999
DXF file: C:\Users\sesa63760\Dev\_Creo\CAD\MCADUE0002933_3D-CAD\drw0001_1.dxf
999
Pro/ENGINEER 2019471 by Parametric Technology Corporation
  0
SECTION
  2
HEADER
  9
$ACADVER
  1
AC1024
  9
$DWGCODEPAGE
  3
ANSI_1252
  9
$EXTMAX
 10
1319.4345672061
 20
1866.0574593344
 30
0.0
  9
$EXTMIN
 10
0.0
 20
0.0
 30
0.0
  9
$LIMMIN
 10
0.0
 20
0.0
  9
$LIMMAX
 10
1319.4345672061
 20
1866.0574593344
  9
$VIEWCTR
 10
659.7172836031
 20
933.0287296672
  9
$VIEWSIZE
 40
1866.0574593344
  9
$CLAYER
  8
0
  9
$LTSCALE
 40
121.6393010529
  9
$CELTYPE
  6
BYLAYER
  9
$DIMSCALE
 40
1.0
  9
$DIMASZ
 40
15.7075543715
  9
$DIMEXO
 40
1.0
  9
$DIMDLI
 40
84.0416989093
  9
$DIMEXE
 40
1.0
  9
$DIMCEN
 40
19.9046128996
  9
$DIMLFAC
 40
1.0
  9
$DIMBLK
  1
_FILLED
  9
$DIMALT
 70
0
  9
$DIMALTF
 40
0.0393700787
  9
$DIMTXT
 40
21.9905761201
  9
$DIMTOL
 70
1
  9
$DIMLIM
 70
0
  9
$DIMTFAC
 40
1.0
  9
$DIMTP
 40
0.01
  9
$DIMTM
 40
0.01
  9
$DIMGAP
 40
0.625
  9
$DIMDSEP
 70
46
  9
$AUNITS
 70
0
  9
$PDMODE
 70
3
  9
$PDSIZE
 40
0.3125
  9
$HANDSEED
  5
3ED
  9
$TILEMODE
 70
1
  9
$MEASUREMENT
 70
1
  9
$INSUNITS
 70
4
  0
ENDSEC
  0
SECTION
  2
CLASSES
  0
CLASS
  1
ACDBDICTIONARYWDFLT
  2
AcDbDictionaryWithDefault
  3
AutoCAD 2000
 90
0
 91
1
280
0
281
0
  0
CLASS
  1
ACDBPLACEHOLDER
  2
AcDbPlaceHolder
  3
AutoCAD 2000
 90
0
 91
1
280
0
281
0
  0
CLASS
  1
LAYOUT
  2
AcDbLayout
  3
AutoCAD 2000
 90
0
 91
0
280
0
281
0
  0
ENDSEC
  0
SECTION
  2
TABLES
  0
TABLE
  2
VPORT
  5
8
100
AcDbSymbolTable
 70
2
  0
VPORT
  5
1F4
100
AcDbSymbolTableRecord
100
AcDbViewportTableRecord
  2
*ACTIVE
 70
0
 10
0.0
 20
0.0
 11
1.0
 21
1.0
 12
659.7172836031
 22
933.0287296672
 13
0.0
 23
0.0
 14
1.0
 24
1.0
 15
0.0
 25
0.0
 16
0.0
 26
0.0
 36
1.0
 17
0.0
 27
0.0
 37
0.0
 40
1866.0574593344
 41
0.7070707071
 42
50.0
 43
0.0
 44
0.0
 50
0.0
 51
0.0
 71
0
 72
100
 73
1
 74
1
 75
0
 76
0
 77
0
 78
0
  0
ENDTAB
  0
TABLE
  2
LTYPE
  5
5
100
AcDbSymbolTable
 70
6
  0
LTYPE
  5
14
100
AcDbSymbolTableRecord
100
AcDbLinetypeTableRecord
  2
BYBLOCK
 70
0
  3

 72
65
 73
0
 40
0.0
  0
LTYPE
  5
15
100
AcDbSymbolTableRecord
100
AcDbLinetypeTableRecord
  2
BYLAYER
 70
0
  3

 72
65
 73
0
 40
0.0
  0
LTYPE
  5
16
100
AcDbSymbolTableRecord
100
AcDbLinetypeTableRecord
  2
CONTINUOUS
 70
64
  3
Solid line
 72
65
 73
0
 40
0.0
  0
LTYPE
  5
1F5
100
AcDbSymbolTableRecord
100
AcDbLinetypeTableRecord
  2
CENTER
 70
64
  3
____ _ ____ _ ____ _ ____ _ ____ _ ____ _ ____
 72
65
 73
4
 40
0.6
 49
0.375
 74
0
 49
-0.075
 74
0
 49
0.075
 74
0
 49
-0.075
 74
0
  0
LTYPE
  5
1F6
100
AcDbSymbolTableRecord
100
AcDbLinetypeTableRecord
  2
HIDDEN
 70
64
  3
- - - - - - - - - - - - - - - - - - - -
 72
65
 73
2
 40
0.2
 49
0.1
 74
0
 49
-0.1
 74
0
  0
LTYPE
  5
1F7
100
AcDbSymbolTableRecord
100
AcDbLinetypeTableRecord
  2
PHANTOM
 70
64
  3
_____ _ _ _____ _ _ _____ _ _ _____
 72
65
 73
6
 40
0.8
 49
0.45
 74
0
 49
-0.05
 74
0
 49
0.1
 74
0
 49
-0.05
 74
0
 49
0.1
 74
0
 49
-0.05
 74
0
  0
LTYPE
  5
1F8
100
AcDbSymbolTableRecord
100
AcDbLinetypeTableRecord
  2
DOT
 70
64
  3
. . . . . . . . . . . . . . . . . . . .
 72
65
 73
2
 40
0.2
 49
0.1
 74
0
 49
-0.1
 74
0
  0
LTYPE
  5
1F9
100
AcDbSymbolTableRecord
100
AcDbLinetypeTableRecord
  2
DASHED
 70
64
  3
- - - - - - - - - - - - - - - - - - - -
 72
65
 73
2
 40
0.2
 49
0.1
 74
0
 49
-0.1
 74
0
  0
ENDTAB
  0
TABLE
  2
LAYER
  5
2
100
AcDbSymbolTable
 70
36
  0
LAYER
  5
10
100
AcDbSymbolTableRecord
100
AcDbLayerTableRecord
  2
0
 70
0
 62
7
  6
CONTINUOUS
370
-3
390
F
  0
LAYER
  5
1FA
100
AcDbSymbolTableRecord
100
AcDbLayerTableRecord
  2
DEFAULT_1
 70
0
 62
7
  6
CENTER
370
-3
390
F
  0
LAYER
  5
1FB
100
AcDbSymbolTableRecord
100
AcDbLayerTableRecord
  2
DEFAULT_2
 70
0
 62
8
  6
HIDDEN
370
-3
390
F
  0
LAYER
  5
1FC
100
AcDbSymbolTableRecord
100
AcDbLayerTableRecord
  2
DEFAULT_3
 70
0
 62
7
  6
PHANTOM
370
-3
390
F
  0
LAYER
  5
1FD
100
AcDbSymbolTableRecord
100
AcDbLayerTableRecord
  2
00_COMPONENTS
 70
0
 62
7
  6
CONTINUOUS
370
-3
390
F
  0
LAYER
  5
1FE
100
AcDbSymbolTableRecord
100
AcDbLayerTableRecord
  2
01_1_DEFAULT_DATUMS
 70
0
 62
7
  6
CONTINUOUS
370
-3
390
F
  0
LAYER
  5
1FF
100
AcDbSymbolTableRecord
100
AcDbLayerTableRecord
  2
01_PLANES
 70
0
 62
7
  6
CONTINUOUS
370
-3
390
F
  0
LAYER
  5
200
100
AcDbSymbolTableRecord
100
AcDbLayerTableRecord
  2
02_COORD_SYS
 70
0
 62
7
  6
CONTINUOUS
370
-3
390
F
  0
LAYER
  5
201
100
AcDbSymbolTableRecord
100
AcDbLayerTableRecord
  2
03_AXES
 70
0
 62
7
  6
CONTINUOUS
370
-3
390
F
  0
LAYER
  5
202
100
AcDbSymbolTableRecord
100
AcDbLayerTableRecord
  2
04_POINTS
 70
0
 62
7
  6
CONTINUOUS
370
-3
390
F
  0
LAYER
  5
203
100
AcDbSymbolTableRecord
100
AcDbLayerTableRecord
  2
05_CURVES
 70
0
 62
7
  6
CONTINUOUS
370
-3
390
F
  0
LAYER
  5
204
100
AcDbSymbolTableRecord
100
AcDbLayerTableRecord
  2
06_SURFS
 70
0
 62
7
  6
CONTINUOUS
370
-3
390
F
  0
LAYER
  5
205
100
AcDbSymbolTableRecord
100
AcDbLayerTableRecord
  2
07_COSMETICS
 70
0
 62
7
  6
CONTINUOUS
370
-3
390
F
  0
LAYER
  5
206
100
AcDbSymbolTableRecord
100
AcDbLayerTableRecord
  2
10_NOTES
 70
0
 62
7
  6
CONTINUOUS
370
-3
390
F
  0
LAYER
  5
207
100
AcDbSymbolTableRecord
100
AcDbLayerTableRecord
  2
11_NOTES_PUB
 70
0
 62
7
  6
CONTINUOUS
370
-3
390
F
  0
LAYER
  5
208
100
AcDbSymbolTableRecord
100
AcDbLayerTableRecord
  2
13_REF_GTOL
 70
0
 62
7
  6
CONTINUOUS
370
-3
390
F
  0
LAYER
  5
209
100
AcDbSymbolTableRecord
100
AcDbLayerTableRecord
  2
16_MISC
 70
0
 62
7
  6
CONTINUOUS
370
-3
390
F
  0
LAYER
  5
20A
100
AcDbSymbolTableRecord
100
AcDbLayerTableRecord
  2
17_NO_PRINT
 70
0
 62
7
  6
CONTINUOUS
370
-3
390
F
  0
LAYER
  5
20B
100
AcDbSymbolTableRecord
100
AcDbLayerTableRecord
  2
18_DATUM_CAMS_JOINTS
 70
0
 62
7
  6
CONTINUOUS
370
-3
390
F
  0
LAYER
  5
20C
100
AcDbSymbolTableRecord
100
AcDbLayerTableRecord
  2
19_DATUM_FUNCTIONAL
 70
0
 62
7
  6
CONTINUOUS
370
-3
390
F
  0
LAYER
  5
20D
100
AcDbSymbolTableRecord
100
AcDbLayerTableRecord
  2
20_DATUM_KINEMATIC_SCHEME
 70
0
 62
7
  6
CONTINUOUS
370
-3
390
F
  0
ENDTAB
  0
TABLE
  2
STYLE
  5
3
100
AcDbSymbolTable
 70
1
  0
STYLE
  5
11
100
AcDbSymbolTableRecord
100
AcDbTextStyleTableRecord
  2
STANDARD
 70
0
 40
0.0
 41
0.8
 50
0.0
 71
0
 42
0.2
  3
txt
  4

  0
STYLE
  5
20E
100
AcDbSymbolTableRecord
100
AcDbTextStyleTableRecord
  2
TEXTSTYLE_1
 70
0
 40
0.0
 41
0.8
 50
0.0
 71
0
 42
0.2
  3
gdt
  4

  0
ENDTAB
  0
TABLE
  2
VIEW
  5
6
100
AcDbSymbolTable
 70
0
  0
ENDTAB
  0
TABLE
  2
UCS
  5
7
100
AcDbSymbolTable
 70
0
  0
ENDTAB
  0
TABLE
  2
APPID
  5
9
100
AcDbSymbolTable
 70
1
  0
APPID
  5
20F
100
AcDbSymbolTableRecord
100
AcDbRegAppTableRecord
  2
ACAD
 70
0
  0
ENDTAB
  0
TABLE
  2
BLOCK_RECORD
  5
1
100
AcDbSymbolTable
 70
0
  0
BLOCK_RECORD
  5
210
100
AcDbSymbolTableRecord
100
AcDbBlockTableRecord
  2
*Model_Space
  0
BLOCK_RECORD
  5
211
100
AcDbSymbolTableRecord
100
AcDbBlockTableRecord
  2
*Paper_Space
  0
BLOCK_RECORD
  5
212
100
AcDbSymbolTableRecord
100
AcDbBlockTableRecord
  2
_FILLED
  0
ENDTAB
  0
TABLE
  2
DIMSTYLE
  5
A
100
AcDbSymbolTable
 70
1
100
AcDbDimStyleTable
 71
0
  0
DIMSTYLE
105
213
100
AcDbSymbolTableRecord
100
AcDbDimStyleTableRecord
  2
STANDARD
 70
0
  3

  4

 40
1.0
 41
15.7075543715
 42
1.0
 43
0.38
 44
1.0
 45
0.0
 46
0.0
 47
0.01
 48
0.01
140
21.9905761201
141
0.09
142
0.0
143
25.4
144
1.0
145
0.0
146
1.0
147
0.625
 71
1
 72
0
 73
0
 74
0
 75
0
 76
0
 77
1
 78
8
 79
2
170
0
171
1
172
0
173
0
174
0
175
0
176
0
177
0
178
0
270
2
179
2
271
2
272
2
273
2
274
2
275
0
280
0
281
0
282
0
283
1
284
8
285
0
286
0
287
3
288
0
340
11
278
46
341
212
342
212
343
212
344
212
  0
ENDTAB
  0
ENDSEC
  0
SECTION
  2
BLOCKS
  0
BLOCK
  5
20
100
AcDbEntity
  8
0
100
AcDbBlockBegin
  2
*Model_Space
 70
0
 10
0.0
 20
0.0
 30
0.0
  3
*Model_Space
  1

  0
ENDBLK
  5
21
100
AcDbEntity
  8
0
100
AcDbBlockEnd
  0
BLOCK
  5
1C
100
AcDbEntity
  8
0
100
AcDbBlockBegin
  2
*Paper_Space
 70
0
 10
0.0
 20
0.0
 30
0.0
  3
*Paper_Space
  1

  0
ENDBLK
  5
1D
100
AcDbEntity
  8
0
100
AcDbBlockEnd
  0
BLOCK
  5
214
100
AcDbEntity
  8
0
100
AcDbBlockBegin
  2
_FILLED
 70
64
 10
0.0
 20
0.0
  3
_FILLED
  1

  0
SOLID
  5
215
100
AcDbEntity
  8
0
  6
BYBLOCK
 62
0
100
AcDbTrace
 10
0.0
 20
0.0
 11
-1.0
 21
0.25
 12
-1.0
 22
-0.25
 13
-1.0
 23
-0.25
  0
ENDBLK
  5
216
100
AcDbEntity
  8
0
  6
BYBLOCK
 62
0
100
AcDbBlockEnd
  0
ENDSEC
  0
SECTION
  2
ENTITIES
  0
LINE
  5
217
100
AcDbEntity
  8
0
100
AcDbLine
 62
7
  6
CONTINUOUS
 10
153.0695902511
 20
857.1261036246
 11
153.0695902511
 21
859.1673596675
  0
LINE
  5
218
100
AcDbEntity
  8
0
100
AcDbLine
 62
7
  6
CONTINUOUS
 10
154.8477722475
 20
856.0994929954
 11
154.8477722475
 21
858.1407490383
  0
LINE
  5
219
100
AcDbEntity
  8
0
100
AcDbLine
 62
7
  6
CONTINUOUS
 10
156.7265180998
 20
848.96131191
 11
156.7265180998
 21
846.9200558671
  0
LINE
  5
21A
100
AcDbEntity
  8
0
100
AcDbLine
 62
7
  6
CONTINUOUS
 10
157.3122383415
 20
858.1407549621
 11
157.3122383415
 21
856.0994989193
  0
LINE
  5
21B
100
AcDbEntity
  8
0
100
AcDbLine
 62
7
  6
CONTINUOUS
 10
157.3123104253
 20
846.1035675594
 11
157.3123104253
 21
848.1448236022
  0
LINE
  5
21C
100
AcDbEntity
  8
0
100
AcDbLine
 62
7
  6
CONTINUOUS
 10
157.6658652879
 20
847.940703225
 11
157.6658652879
 21
845.8994471821
  0
LINE
  5
21D
100
AcDbEntity
  8
0
100
AcDbLine
 62
7
  6
CONTINUOUS
 10
157.6658917836
 20
842.2252650944
 11
157.6658917836
 21
844.2665211372
  0
LINE
  5
21E
100
AcDbEntity
  8
0
100
AcDbLine
 62
7
  6
CONTINUOUS
 10
160.8477089088
 20
864.8827289508
 11
160.8477089088
 21
866.9239849936
  0
LINE
  5
21F
100
AcDbEntity
  8
0
100
AcDbLine
 62
7
  6
CONTINUOUS
 10
161.9083734965
 20
866.3116238618
 11
161.9083734965
 21
864.270367819
  0
LINE
  5
220
100
AcDbEntity
  8
0
100
AcDbLine
 62
7
  6
CONTINUOUS
 10
179.3286572174
 20
869.292992641
 11
179.3286572174
 21
869.1693562224
  0
LINE
  5
221
100
AcDbEntity
  8
0
100
AcDbLine
 62
7
  6
CONTINUOUS
 10
180.8234585493
 20
868.8631863665
 11
180.8234585493
 21
869.2714271211
  0
LINE
  5
222
100
AcDbEntity
  8
0
100
AcDbLine
 62
7
  6
CONTINUOUS
 10
181.177003108
 20
870.087914579
 11
181.177003108
 21
870.4961553335
  0
LINE
  5
223
100
AcDbEntity
  8
0
100
AcDbLine
 62
7
  6
CONTINUOUS
 10
181.3537702354
 20
871.41470298
 11
181.3537702354
 21
871.8229437346
  0
LINE
  5
224
100
AcDbEntity
  8
0
100
AcDbLine
 62
7
  6
CONTINUOUS
 10
184.0054317047
 20
869.8838001506
 11
184.0054317047
 21
870.2920409051
  0
LINE
  5
225
100
AcDbEntity
  8
0
100
AcDbLine
 62
7
  6
CONTINUOUS
 10
184.3589865673
 20
869.6796797733
 11
184.3589865673
 21
870.0879205278
  0
LINE
  5
226
100
AcDbEntity
  8
0
100
AcDbLine
 62
7
  6
CONTINUOUS
 10
186.4802951349
 20
871.3126512898
 11
186.4802951349
 21
871.7208954437
  0
LINE
  5
227
100
AcDbEntity
  8
0
100
AcDbLine
 62
7
  6
CONTINUOUS
 10
188.3286572174
 20
869.2890859876
 11
188.3286572174
 21
869.1693562224
  0
LINE
  5
228
100
AcDbEntity
  8
0
100
AcDbLine
 62
7
  6
CONTINUOUS
 10
157.3123104253
 20
846.1035675594
 11
156.7265614856
 21
846.9200558671
  0
LINE
  5
229
100
AcDbEntity
  8
0
100
AcDbLine
 62
7
  6
CONTINUOUS
 10
156.7265614856
 20
848.96131191
 11
157.3123104253
 21
848.1448236022
  0
LINE
  5
22A
100
AcDbEntity
  8
0
100
AcDbLine
 62
7
  6
CONTINUOUS
 10
162.6405596711
 20
865.2910134772
 11
161.9083882163
 21
864.2704115909
  0
LINE
  5
22B
100
AcDbEntity
  8
0
100
AcDbLine
 62
7
  6
CONTINUOUS
 10
157.3122986495
 20
849.777793419
 11
156.7265614856
 21
848.96131191
  0
LINE
  5
22C
100
AcDbEntity
  8
0
100
AcDbLine
 62
7
  6
CONTINUOUS
 10
187.0106509805
 20
868.1487752442
 11
188.3285870292
 21
869.985858674
  0
LINE
  5
22D
100
AcDbEntity
  8
0
100
AcDbLine
 62
7
  6
CONTINUOUS
 10
510.5136446319
 20
638.5131285887
 11
157.6658917836
 21
842.2252650944
  0
LINE
  5
22E
100
AcDbEntity
  8
0
100
AcDbLine
 62
7
  6
CONTINUOUS
 10
510.5136446319
 20
640.5543846316
 11
157.6658917836
 21
844.2665211372
  0
LINE
  5
22F
100
AcDbEntity
  8
0
100
AcDbLine
 62
7
  6
CONTINUOUS
 10
517.2311605251
 20
638.3090235086
 11
516.8776056626
 21
638.5131438858
  0
LINE
  5
230
100
AcDbEntity
  8
0
100
AcDbLine
 62
7
  6
CONTINUOUS
 10
157.6658652879
 20
845.8994471821
 11
157.3123104253
 21
846.1035675594
  0
LINE
  5
231
100
AcDbEntity
  8
0
100
AcDbLine
 62
7
  6
CONTINUOUS
 10
517.2311605251
 20
640.3502795514
 11
516.8776056626
 21
640.5543999287
  0
LINE
  5
232
100
AcDbEntity
  8
0
100
AcDbLine
 62
7
  6
CONTINUOUS
 10
157.6658652879
 20
847.940703225
 11
157.3123104253
 21
848.1448236022
  0
LINE
  5
233
100
AcDbEntity
  8
0
100
AcDbLine
 62
7
  6
CONTINUOUS
 10
536.3230612808
 20
635.8596146746
 11
534.5448792845
 21
636.8862253038
  0
LINE
  5
234
100
AcDbEntity
  8
0
100
AcDbLine
 62
7
  6
CONTINUOUS
 10
154.8477722475
 20
856.0994929954
 11
153.0695902511
 21
857.1261036246
  0
LINE
  5
235
100
AcDbEntity
  8
0
100
AcDbLine
 62
7
  6
CONTINUOUS
 10
536.3230612808
 20
637.9008707175
 11
534.5448792845
 21
638.9274813467
  0
LINE
  5
236
100
AcDbEntity
  8
0
100
AcDbLine
 62
7
  6
CONTINUOUS
 10
154.8477722475
 20
858.1407490383
 11
153.0695902511
 21
859.1673596675
  0
LINE
  5
237
100
AcDbEntity
  8
0
100
AcDbLine
 62
7
  6
CONTINUOUS
 10
161.9083734965
 20
864.270367819
 11
160.8477089088
 21
864.8827289508
  0
LINE
  5
238
100
AcDbEntity
  8
0
100
AcDbLine
 62
7
  6
CONTINUOUS
 10
548.6973931519
 20
640.9626750964
 11
549.7580577396
 21
640.3503139646
  0
LINE
  5
239
100
AcDbEntity
  8
0
100
AcDbLine
 62
7
  6
CONTINUOUS
 10
161.9083734965
 20
866.3116238618
 11
160.8477089088
 21
866.9239849936
  0
LINE
  5
23A
100
AcDbEntity
  8
0
100
AcDbLine
 62
7
  6
CONTINUOUS
 10
548.6973931519
 20
643.0039311392
 11
549.7580577396
 21
642.3915700074
  0
LINE
  5
23B
100
AcDbEntity
  8
0
100
AcDbLine
 62
7
  6
CONTINUOUS
 10
553.4702866457
 20
653.7203070347
 11
551.7025123329
 21
654.740908921
  0
LINE
  5
23C
100
AcDbEntity
  8
0
100
AcDbLine
 62
7
  6
CONTINUOUS
 10
182.2376809436
 20
868.0467031578
 11
180.4699066307
 21
869.0673050441
  0
LINE
  5
23D
100
AcDbEntity
  8
0
100
AcDbLine
 62
7
  6
CONTINUOUS
 10
180.8234585493
 20
869.2714271211
 11
182.5912328622
 21
868.2508252348
  0
LINE
  5
23E
100
AcDbEntity
  8
0
100
AcDbLine
 62
7
  6
CONTINUOUS
 10
552.0560642515
 20
654.9450309979
 11
553.8238385643
 21
653.9244291116
  0
LINE
  5
23F
100
AcDbEntity
  8
0
100
AcDbLine
 62
7
  6
CONTINUOUS
 10
555.5916055173
 20
653.9244333608
 11
552.0560568916
 21
655.9656371334
  0
LINE
  5
240
100
AcDbEntity
  8
0
100
AcDbLine
 62
7
  6
CONTINUOUS
 10
184.3589998151
 20
868.250829484
 11
180.8234511894
 21
870.2920332566
  0
LINE
  5
241
100
AcDbEntity
  8
0
100
AcDbLine
 62
7
  6
CONTINUOUS
 10
181.177003108
 20
870.4961553335
 11
184.7125517337
 21
868.4549515609
  0
LINE
  5
242
100
AcDbEntity
  8
0
100
AcDbLine
 62
7
  6
CONTINUOUS
 10
552.4096088102
 20
656.1697592103
 11
555.9451574359
 21
654.1285554377
  0
LINE
  5
243
100
AcDbEntity
  8
0
100
AcDbLine
 62
7
  6
CONTINUOUS
 10
557.8897018201
 20
654.0264994983
 11
552.232824019
 21
657.2924255345
  0
LINE
  5
244
100
AcDbEntity
  8
0
100
AcDbLine
 62
7
  6
CONTINUOUS
 10
186.657096118
 20
868.3528956215
 11
181.0002183168
 21
871.6188216576
  0
LINE
  5
245
100
AcDbEntity
  8
0
100
AcDbLine
 62
7
  6
CONTINUOUS
 10
181.3537702354
 20
871.8229437346
 11
184.0054317047
 21
870.2920409051
  0
LINE
  5
246
100
AcDbEntity
  8
0
100
AcDbLine
 62
7
  6
CONTINUOUS
 10
184.3589865673
 20
870.0879205278
 11
187.0106480366
 21
868.5570176984
  0
LINE
  5
247
100
AcDbEntity
  8
0
100
AcDbLine
 62
7
  6
CONTINUOUS
 10
552.5863759376
 20
657.4965476114
 11
555.2380374069
 21
655.9656447819
  0
LINE
  5
248
100
AcDbEntity
  8
0
100
AcDbLine
 62
7
  6
CONTINUOUS
 10
555.5915922694
 20
655.7615244047
 11
558.2432537387
 21
654.2306215752
  0
LINE
  5
249
100
AcDbEntity
  8
0
100
AcDbLine
 62
7
  6
CONTINUOUS
 10
186.4802951349
 20
871.7208954437
 11
186.8338499975
 21
871.5167750664
  0
LINE
  5
24A
100
AcDbEntity
  8
0
100
AcDbLine
 62
7
  6
CONTINUOUS
 10
557.7129008371
 20
657.3944993205
 11
558.0664556997
 21
657.1903789432
  0
LINE
  5
24B
100
AcDbEntity
  8
0
100
AcDbLine
 62
7
  6
CONTINUOUS
 10
160.8477089088
 20
866.9239849936
 11
790.1701240291
 21
1230.2612819392
  0
LINE
  5
24C
100
AcDbEntity
  8
0
100
AcDbLine
 62
7
  6
CONTINUOUS
 10
510.5136446319
 20
640.5543846316
 11
510.5136446319
 21
638.5131285887
  0
LINE
  5
24D
100
AcDbEntity
  8
0
100
AcDbLine
 62
7
  6
CONTINUOUS
 10
153.0695902511
 20
859.1673596675
 11
161.9083882163
 21
864.2704115909
  0
LINE
  5
24E
100
AcDbEntity
  8
0
100
AcDbLine
 62
7
  6
CONTINUOUS
 10
794.7663225227
 20
1229.6489293058
 11
803.6051204879
 21
1234.7519812292
  0
LINE
  5
24F
100
AcDbEntity
  8
0
100
AcDbLine
 62
7
  6
CONTINUOUS
 10
181.0002183168
 20
871.6188216576
 11
181.3537702354
 21
871.8229437346
  0
LINE
  5
250
100
AcDbEntity
  8
0
100
AcDbLine
 62
7
  6
CONTINUOUS
 10
781.68492803
 20
1218.4222303715
 11
782.0384799486
 21
1218.6263524484
  0
LINE
  5
251
100
AcDbEntity
  8
0
100
AcDbLine
 62
7
  6
CONTINUOUS
 10
180.8234511894
 20
870.2920332566
 11
181.177003108
 21
870.4961553335
  0
LINE
  5
252
100
AcDbEntity
  8
0
100
AcDbLine
 62
7
  6
CONTINUOUS
 10
783.9830243328
 20
1218.5242965089
 11
784.3365762514
 21
1218.7284185859
  0
LINE
  5
253
100
AcDbEntity
  8
0
100
AcDbLine
 62
7
  6
CONTINUOUS
 10
180.4699066307
 20
869.0673050441
 11
180.8234585493
 21
869.2714271211
  0
LINE
  5
254
100
AcDbEntity
  8
0
100
AcDbLine
 62
7
  6
CONTINUOUS
 10
786.1043432044
 20
1218.7284228351
 11
786.457895123
 21
1218.932544912
  0
LINE
  5
255
100
AcDbEntity
  8
0
100
AcDbLine
 62
7
  6
CONTINUOUS
 10
184.0054317047
 20
870.2920409051
 11
186.4802951349
 21
871.7208954437
  0
LINE
  5
256
100
AcDbEntity
  8
0
100
AcDbLine
 62
7
  6
CONTINUOUS
 10
781.861726069
 20
1215.4624730035
 11
784.3365894993
 21
1216.891327542
  0
LINE
  5
257
100
AcDbEntity
  8
0
100
AcDbLine
 62
7
  6
CONTINUOUS
 10
784.6901443618
 20
1216.6872071647
 11
782.2152809316
 21
1215.2583526262
  0
LINE
  5
258
100
AcDbEntity
  8
0
100
AcDbLine
 62
7
  6
CONTINUOUS
 10
186.8338499975
 20
871.5167750664
 11
184.3589865673
 21
870.0879205278
  0
LINE
  5
259
100
AcDbEntity
  8
0
100
AcDbLine
 62
7
  6
CONTINUOUS
 10
788.2256694358
 20
1217.9119430257
 11
787.8721175172
 21
1217.7078209488
  0
LINE
  5
25A
100
AcDbEntity
  8
0
100
AcDbLine
 62
7
  6
CONTINUOUS
 10
182.5912328622
 20
868.2508252348
 11
182.2376809436
 21
868.0467031578
  0
LINE
  5
25B
100
AcDbEntity
  8
0
100
AcDbLine
 62
7
  6
CONTINUOUS
 10
787.8721248771
 20
1216.6872148133
 11
787.5185729585
 21
1216.4830927363
  0
LINE
  5
25C
100
AcDbEntity
  8
0
100
AcDbLine
 62
7
  6
CONTINUOUS
 10
184.7125517337
 20
868.4549515609
 11
184.3589998151
 21
868.250829484
  0
LINE
  5
25D
100
AcDbEntity
  8
0
100
AcDbLine
 62
7
  6
CONTINUOUS
 10
787.6953577497
 20
1215.3604264122
 11
787.3418058311
 21
1215.1563043353
  0
LINE
  5
25E
100
AcDbEntity
  8
0
100
AcDbLine
 62
7
  6
CONTINUOUS
 10
187.0106480366
 20
868.5570176984
 11
186.657096118
 21
868.3528956215
  0
LINE
  5
25F
100
AcDbEntity
  8
0
100
AcDbLine
 62
7
  6
CONTINUOUS
 10
157.3122986495
 20
849.777793419
 11
161.5549216727
 21
852.2272583422
  0
LINE
  5
260
100
AcDbEntity
  8
0
100
AcDbLine
 62
7
  6
CONTINUOUS
 10
815.6259710956
 20
1229.8531006734
 11
819.8685941188
 21
1232.3025655966
  0
LINE
  5
261
100
AcDbEntity
  8
0
100
AcDbLine
 62
7
  6
CONTINUOUS
 10
516.8776056626
 20
638.5131438858
 11
516.8776056626
 21
640.5543999287
  0
LINE
  5
262
100
AcDbEntity
  8
0
100
AcDbLine
 62
7
  6
CONTINUOUS
 10
517.2311605251
 20
640.3502795514
 11
517.2311605251
 21
638.3090235086
  0
LINE
  5
263
100
AcDbEntity
  8
0
100
AcDbLine
 62
7
  6
CONTINUOUS
 10
520.0595876499
 20
638.3090303073
 11
520.0595876499
 21
640.3502863501
  0
LINE
  5
264
100
AcDbEntity
  8
0
100
AcDbLine
 62
7
  6
CONTINUOUS
 10
524.3022106731
 20
642.7997512733
 11
524.3022106731
 21
640.7584952305
  0
LINE
  5
265
100
AcDbEntity
  8
0
100
AcDbLine
 62
7
  6
CONTINUOUS
 10
534.5448792846
 20
636.8862253038
 11
534.5448690239
 21
640.3503211685
  0
LINE
  5
266
100
AcDbEntity
  8
0
100
AcDbLine
 62
7
  6
CONTINUOUS
 10
536.3230612808
 20
635.8596146746
 11
536.3230612808
 21
637.9008707175
  0
LINE
  5
267
100
AcDbEntity
  8
0
100
AcDbLine
 62
7
  6
CONTINUOUS
 10
545.161859246
 20
643.0039226409
 11
545.161859246
 21
640.962666598
  0
LINE
  5
268
100
AcDbEntity
  8
0
100
AcDbLine
 62
7
  6
CONTINUOUS
 10
548.6973931519
 20
640.9626750964
 11
548.6973931519
 21
643.0039311392
  0
LINE
  5
269
100
AcDbEntity
  8
0
100
AcDbLine
 62
7
  6
CONTINUOUS
 10
549.7580577396
 20
640.3503139646
 11
549.7580577396
 21
642.3915700074
  0
LINE
  5
26A
100
AcDbEntity
  8
0
100
AcDbLine
 62
7
  6
CONTINUOUS
 10
550.5612629195
 20
654.9665965178
 11
550.5612629195
 21
654.8429600993
  0
LINE
  5
26B
100
AcDbEntity
  8
0
100
AcDbLine
 62
7
  6
CONTINUOUS
 10
552.0560642515
 20
654.5367902434
 11
552.0560642515
 21
654.9450309979
  0
LINE
  5
26C
100
AcDbEntity
  8
0
100
AcDbLine
 62
7
  6
CONTINUOUS
 10
552.4096088102
 20
655.7615184558
 11
552.4096088102
 21
656.1697592103
  0
LINE
  5
26D
100
AcDbEntity
  8
0
100
AcDbLine
 62
7
  6
CONTINUOUS
 10
552.5863759376
 20
657.0883068569
 11
552.5863759376
 21
657.4965476114
  0
LINE
  5
26E
100
AcDbEntity
  8
0
100
AcDbLine
 62
7
  6
CONTINUOUS
 10
555.2380374069
 20
655.5574040274
 11
555.2380374069
 21
655.9656447819
  0
LINE
  5
26F
100
AcDbEntity
  8
0
100
AcDbLine
 62
7
  6
CONTINUOUS
 10
555.5915922694
 20
655.3532836502
 11
555.5915922694
 21
655.7615244047
  0
LINE
  5
270
100
AcDbEntity
  8
0
100
AcDbLine
 62
7
  6
CONTINUOUS
 10
557.7129008371
 20
656.9862551666
 11
557.7129008371
 21
657.3944993205
  0
LINE
  5
271
100
AcDbEntity
  8
0
100
AcDbLine
 62
7
  6
CONTINUOUS
 10
559.5612629195
 20
654.9626898645
 11
559.5612629195
 21
654.8429600993
  0
LINE
  5
272
100
AcDbEntity
  8
0
100
AcDbLine
 62
7
  6
CONTINUOUS
 10
157.3122383416
 20
856.0994989193
 11
154.8477722475
 21
856.0994929954
  0
LINE
  5
273
100
AcDbEntity
  8
0
100
AcDbLine
 62
7
  6
CONTINUOUS
 10
154.8477722475
 20
858.1407490383
 11
157.3122383416
 21
858.1407549621
  0
LINE
  5
274
100
AcDbEntity
  8
0
100
AcDbLine
 62
7
  6
CONTINUOUS
 10
788.0489126123
 20
1215.156306035
 11
789.366848661
 21
1216.9933894648
  0
LINE
  5
275
100
AcDbEntity
  8
0
100
AcDbLine
 62
7
  6
CONTINUOUS
 10
558.2432566827
 20
653.822379121
 11
559.5611927314
 21
655.6594625508
  0
LINE
  5
276
100
AcDbEntity
  8
0
100
AcDbLine
 62
7
  6
CONTINUOUS
 10
1185.0804095212
 20
1014.5121029084
 11
1182.6159434271
 21
1014.5120969846
  0
LINE
  5
277
100
AcDbEntity
  8
0
100
AcDbLine
 62
7
  6
CONTINUOUS
 10
780.3669188492
 20
1216.3005234318
 11
780.3669188492
 21
1216.1768870132
  0
LINE
  5
278
100
AcDbEntity
  8
0
100
AcDbLine
 62
7
  6
CONTINUOUS
 10
782.0384799486
 20
1218.2181116939
 11
782.0384799486
 21
1218.6263524484
  0
LINE
  5
279
100
AcDbEntity
  8
0
100
AcDbLine
 62
7
  6
CONTINUOUS
 10
784.3365762514
 20
1218.3201778313
 11
784.3365762514
 21
1218.7284185859
  0
LINE
  5
27A
100
AcDbEntity
  8
0
100
AcDbLine
 62
7
  6
CONTINUOUS
 10
784.3365894993
 20
1216.4830833881
 11
784.3365894993
 21
1216.891327542
  0
LINE
  5
27B
100
AcDbEntity
  8
0
100
AcDbLine
 62
7
  6
CONTINUOUS
 10
786.457895123
 20
1218.5243041575
 11
786.457895123
 21
1218.932544912
  0
LINE
  5
27C
100
AcDbEntity
  8
0
100
AcDbLine
 62
7
  6
CONTINUOUS
 10
789.3669188492
 20
1216.2966167784
 11
789.3669188492
 21
1216.1768870132
  0
LINE
  5
27D
100
AcDbEntity
  8
0
100
AcDbLine
 62
7
  6
CONTINUOUS
 10
805.3833127448
 20
1232.3025307782
 11
805.3833024842
 21
1233.7253706
  0
LINE
  5
27E
100
AcDbEntity
  8
0
100
AcDbLine
 62
7
  6
CONTINUOUS
 10
1182.6158831192
 20
1022.8750585277
 11
1178.373260096
 21
1020.4255936045
  0
LINE
  5
27F
100
AcDbEntity
  8
0
100
AcDbLine
 62
7
  6
CONTINUOUS
 10
524.3022106731
 20
642.7997512733
 11
520.0595876499
 21
640.3502863501
  0
LINE
  5
280
100
AcDbEntity
  8
0
100
AcDbLine
 62
7
  6
CONTINUOUS
 10
552.232824019
 20
657.2924255345
 11
552.5863759376
 21
657.4965476114
  0
LINE
  5
281
100
AcDbEntity
  8
0
100
AcDbLine
 62
7
  6
CONTINUOUS
 10
1152.9175337321
 20
1004.0958342483
 11
1153.2710856507
 21
1004.2999563252
  0
LINE
  5
282
100
AcDbEntity
  8
0
100
AcDbLine
 62
7
  6
CONTINUOUS
 10
1182.6158831192
 20
1020.8338024849
 11
1178.373260096
 21
1018.3843375616
  0
LINE
  5
283
100
AcDbEntity
  8
0
100
AcDbLine
 62
7
  6
CONTINUOUS
 10
524.3022106731
 20
640.7584952305
 11
520.0595876499
 21
638.3090303073
  0
LINE
  5
284
100
AcDbEntity
  8
0
100
AcDbLine
 62
7
  6
CONTINUOUS
 10
552.0560568916
 20
655.9656371334
 11
552.4096088102
 21
656.1697592103
  0
LINE
  5
285
100
AcDbEntity
  8
0
100
AcDbLine
 62
7
  6
CONTINUOUS
 10
1155.215630035
 20
1004.1979003858
 11
1155.5691819536
 21
1004.4020224627
  0
LINE
  5
286
100
AcDbEntity
  8
0
100
AcDbLine
 62
7
  6
CONTINUOUS
 10
551.7025123329
 20
654.740908921
 11
552.0560642515
 21
654.9450309979
  0
LINE
  5
287
100
AcDbEntity
  8
0
100
AcDbLine
 62
7
  6
CONTINUOUS
 10
1157.3369489065
 20
1004.4020267119
 11
1157.6905008251
 21
1004.6061487888
  0
LINE
  5
288
100
AcDbEntity
  8
0
100
AcDbLine
 62
7
  6
CONTINUOUS
 10
555.2380374069
 20
655.9656447819
 11
557.7129008371
 21
657.3944993205
  0
LINE
  5
289
100
AcDbEntity
  8
0
100
AcDbLine
 62
7
  6
CONTINUOUS
 10
1153.0943317712
 20
1001.1360768803
 11
1155.5691952014
 21
1002.5649314188
  0
LINE
  5
28A
100
AcDbEntity
  8
0
100
AcDbLine
 62
7
  6
CONTINUOUS
 10
1155.922750064
 20
1002.3608110416
 11
1153.4478866338
 21
1000.931956503
  0
LINE
  5
28B
100
AcDbEntity
  8
0
100
AcDbLine
 62
7
  6
CONTINUOUS
 10
558.0664556997
 20
657.1903789432
 11
555.5915922694
 21
655.7615244047
  0
LINE
  5
28C
100
AcDbEntity
  8
0
100
AcDbLine
 62
7
  6
CONTINUOUS
 10
1159.458275138
 20
1003.5855469025
 11
1159.1047232194
 21
1003.3814248256
  0
LINE
  5
28D
100
AcDbEntity
  8
0
100
AcDbLine
 62
7
  6
CONTINUOUS
 10
553.8238385643
 20
653.9244291116
 11
553.4702866457
 21
653.7203070347
  0
LINE
  5
28E
100
AcDbEntity
  8
0
100
AcDbLine
 62
7
  6
CONTINUOUS
 10
1159.1047305793
 20
1002.3608186901
 11
1158.7511786607
 21
1002.1566966132
  0
LINE
  5
28F
100
AcDbEntity
  8
0
100
AcDbLine
 62
7
  6
CONTINUOUS
 10
555.9451574359
 20
654.1285554377
 11
555.5916055173
 21
653.9244333608
  0
LINE
  5
290
100
AcDbEntity
  8
0
100
AcDbLine
 62
7
  6
CONTINUOUS
 10
1158.9279634519
 20
1001.0340302891
 11
1158.5744115333
 21
1000.8299082121
  0
LINE
  5
291
100
AcDbEntity
  8
0
100
AcDbLine
 62
7
  6
CONTINUOUS
 10
558.2432537387
 20
654.2306215752
 11
557.8897018201
 21
654.0264994983
  0
LINE
  5
292
100
AcDbEntity
  8
0
100
AcDbLine
 62
7
  6
CONTINUOUS
 10
1186.8585915176
 20
1013.4854922792
 11
1178.0197935524
 21
1008.3824403558
  0
LINE
  5
293
100
AcDbEntity
  8
0
100
AcDbLine
 62
7
  6
CONTINUOUS
 10
545.161859246
 20
643.0039226409
 11
536.3230612808
 21
637.9008707175
  0
LINE
  5
294
100
AcDbEntity
  8
0
100
AcDbLine
 62
7
  6
CONTINUOUS
 10
1186.8585915176
 20
1011.4442362364
 11
1178.0197935524
 21
1006.341184313
  0
LINE
  5
295
100
AcDbEntity
  8
0
100
AcDbLine
 62
7
  6
CONTINUOUS
 10
545.161859246
 20
640.962666598
 11
536.3230612808
 21
635.8596146746
  0
LINE
  5
296
100
AcDbEntity
  8
0
100
AcDbLine
 62
7
  6
CONTINUOUS
 10
1179.0804728599
 20
1005.7288669531
 11
549.7580577396
 21
642.3915700074
  0
LINE
  5
297
100
AcDbEntity
  8
0
100
AcDbLine
 62
7
  6
CONTINUOUS
 10
1179.0804728599
 20
1003.6876109103
 11
549.7580577396
 21
640.3503139646
  0
LINE
  5
298
100
AcDbEntity
  8
0
100
AcDbLine
 62
7
  6
CONTINUOUS
 10
1153.4478866338
 20
1000.931956503
 11
1153.0943317712
 21
1001.1360768803
  0
LINE
  5
299
100
AcDbEntity
  8
0
100
AcDbLine
 62
7
  6
CONTINUOUS
 10
782.2152809316
 20
1215.2583526262
 11
781.861726069
 21
1215.4624730035
  0
LINE
  5
29A
100
AcDbEntity
  8
0
100
AcDbLine
 62
7
  6
CONTINUOUS
 10
1158.5744115333
 20
1000.8299082121
 11
1155.922750064
 21
1002.3608110416
  0
LINE
  5
29B
100
AcDbEntity
  8
0
100
AcDbLine
 62
7
  6
CONTINUOUS
 10
1155.5691952014
 20
1002.5649314188
 11
1152.9175337321
 21
1004.0958342483
  0
LINE
  5
29C
100
AcDbEntity
  8
0
100
AcDbLine
 62
7
  6
CONTINUOUS
 10
787.3418058311
 20
1215.1563043353
 11
784.6901443618
 21
1216.6872071647
  0
LINE
  5
29D
100
AcDbEntity
  8
0
100
AcDbLine
 62
7
  6
CONTINUOUS
 10
784.3365894993
 20
1216.891327542
 11
781.68492803
 21
1218.4222303715
  0
LINE
  5
29E
100
AcDbEntity
  8
0
100
AcDbLine
 62
7
  6
CONTINUOUS
 10
782.0384799486
 20
1218.6263524484
 11
787.6953577497
 21
1215.3604264122
  0
LINE
  5
29F
100
AcDbEntity
  8
0
100
AcDbLine
 62
7
  6
CONTINUOUS
 10
1153.2710856507
 20
1004.2999563252
 11
1158.9279634519
 21
1001.0340302891
  0
LINE
  5
2A0
100
AcDbEntity
  8
0
100
AcDbLine
 62
7
  6
CONTINUOUS
 10
1158.7511786607
 20
1002.1566966132
 11
1155.215630035
 21
1004.1979003858
  0
LINE
  5
2A1
100
AcDbEntity
  8
0
100
AcDbLine
 62
7
  6
CONTINUOUS
 10
787.5185729585
 20
1216.4830927363
 11
783.9830243328
 21
1218.5242965089
  0
LINE
  5
2A2
100
AcDbEntity
  8
0
100
AcDbLine
 62
7
  6
CONTINUOUS
 10
784.3365762514
 20
1218.7284185859
 11
787.8721248771
 21
1216.6872148133
  0
LINE
  5
2A3
100
AcDbEntity
  8
0
100
AcDbLine
 62
7
  6
CONTINUOUS
 10
1155.5691819536
 20
1004.4020224627
 11
1159.1047305793
 21
1002.3608186901
  0
LINE
  5
2A4
100
AcDbEntity
  8
0
100
AcDbLine
 62
7
  6
CONTINUOUS
 10
1159.1047232194
 20
1003.3814248256
 11
1157.3369489065
 21
1004.4020267119
  0
LINE
  5
2A5
100
AcDbEntity
  8
0
100
AcDbLine
 62
7
  6
CONTINUOUS
 10
787.8721175172
 20
1217.7078209488
 11
786.1043432044
 21
1218.7284228351
  0
LINE
  5
2A6
100
AcDbEntity
  8
0
100
AcDbLine
 62
7
  6
CONTINUOUS
 10
786.457895123
 20
1218.932544912
 11
788.2256694358
 21
1217.9119430257
  0
LINE
  5
2A7
100
AcDbEntity
  8
0
100
AcDbLine
 62
7
  6
CONTINUOUS
 10
1157.6905008251
 20
1004.6061487888
 11
1159.458275138
 21
1003.5855469025
  0
LINE
  5
2A8
100
AcDbEntity
  8
0
100
AcDbLine
 62
7
  6
CONTINUOUS
 10
791.2307886168
 20
1229.6489208075
 11
790.1701240291
 21
1230.2612819392
  0
LINE
  5
2A9
100
AcDbEntity
  8
0
100
AcDbLine
 62
7
  6
CONTINUOUS
 10
1178.0198082722
 20
1006.3412280849
 11
1179.0804728599
 21
1005.7288669531
  0
LINE
  5
2AA
100
AcDbEntity
  8
0
100
AcDbLine
 62
7
  6
CONTINUOUS
 10
1159.2815183145
 20
1000.8299099118
 11
1160.5994543632
 21
1002.6669933416
  0
LINE
  5
2AB
100
AcDbEntity
  8
0
100
AcDbLine
 62
7
  6
CONTINUOUS
 10
803.6051204879
 20
1234.7519812292
 11
805.3833024842
 21
1233.7253706
  0
LINE
  5
2AC
100
AcDbEntity
  8
0
100
AcDbLine
 62
7
  6
CONTINUOUS
 10
1185.0804095212
 20
1014.5121029084
 11
1186.8585915176
 21
1013.4854922792
  0
LINE
  5
2AD
100
AcDbEntity
  8
0
100
AcDbLine
 62
7
  6
CONTINUOUS
 10
822.6970212436
 20
1232.3025723953
 11
823.0505761061
 21
1232.098452018
  0
LINE
  5
2AE
100
AcDbEntity
  8
0
100
AcDbLine
 62
7
  6
CONTINUOUS
 10
1182.2623164808
 20
1024.7121487217
 11
1182.6158713434
 21
1024.5080283445
  0
LINE
  5
2AF
100
AcDbEntity
  8
0
100
AcDbLine
 62
7
  6
CONTINUOUS
 10
829.4145371368
 20
1232.0984673151
 11
1182.2622899851
 21
1028.3863308095
  0
LINE
  5
2B0
100
AcDbEntity
  8
0
100
AcDbLine
 62
7
  6
CONTINUOUS
 10
1182.6158831192
 20
1022.8750585277
 11
1183.2016202831
 21
1023.6915400367
  0
LINE
  5
2B1
100
AcDbEntity
  8
0
100
AcDbLine
 62
7
  6
CONTINUOUS
 10
1183.2016202831
 20
1021.6502839939
 11
1182.6158831192
 21
1020.8338024849
  0
LINE
  5
2B2
100
AcDbEntity
  8
0
100
AcDbLine
 62
7
  6
CONTINUOUS
 10
1177.2876220976
 20
1007.3618384695
 11
1178.0197935524
 21
1008.3824403558
  0
LINE
  5
2B3
100
AcDbEntity
  8
0
100
AcDbLine
 62
7
  6
CONTINUOUS
 10
1151.5995245513
 20
1001.9741273086
 11
1151.5995245513
 21
1001.85049089
  0
LINE
  5
2B4
100
AcDbEntity
  8
0
100
AcDbLine
 62
7
  6
CONTINUOUS
 10
1178.0198082722
 20
1006.3412280849
 11
1177.2876220976
 21
1007.3618384695
  0
LINE
  5
2B5
100
AcDbEntity
  8
0
100
AcDbLine
 62
7
  6
CONTINUOUS
 10
1183.2016202831
 20
1023.6915400367
 11
1182.6158713434
 21
1024.5080283445
  0
LINE
  5
2B6
100
AcDbEntity
  8
0
100
AcDbLine
 62
7
  6
CONTINUOUS
 10
1153.2710856507
 20
1003.8917155707
 11
1153.2710856507
 21
1004.2999563252
  0
LINE
  5
2B7
100
AcDbEntity
  8
0
100
AcDbLine
 62
7
  6
CONTINUOUS
 10
1155.5691819536
 20
1003.9937817082
 11
1155.5691819536
 21
1004.4020224627
  0
LINE
  5
2B8
100
AcDbEntity
  8
0
100
AcDbLine
 62
7
  6
CONTINUOUS
 10
1155.5691952014
 20
1002.156687265
 11
1155.5691952014
 21
1002.5649314188
  0
LINE
  5
2B9
100
AcDbEntity
  8
0
100
AcDbLine
 62
7
  6
CONTINUOUS
 10
1157.6905008251
 20
1004.1979080343
 11
1157.6905008251
 21
1004.6061487888
  0
LINE
  5
2BA
100
AcDbEntity
  8
0
100
AcDbLine
 62
7
  6
CONTINUOUS
 10
1160.5995245513
 20
1001.9702206553
 11
1160.5995245513
 21
1001.85049089
  0
LINE
  5
2BB
100
AcDbEntity
  8
0
100
AcDbLine
 62
7
  6
CONTINUOUS
 10
1178.0197935524
 20
1006.341184313
 11
1178.0197935524
 21
1008.3824403558
  0
LINE
  5
2BC
100
AcDbEntity
  8
0
100
AcDbLine
 62
7
  6
CONTINUOUS
 10
1178.373260096
 20
1018.3843375616
 11
1178.373260096
 21
1020.4255936045
  0
LINE
  5
2BD
100
AcDbEntity
  8
0
100
AcDbLine
 62
7
  6
CONTINUOUS
 10
1179.0804728599
 20
1003.6876109103
 11
1179.0804728599
 21
1005.7288669531
  0
LINE
  5
2BE
100
AcDbEntity
  8
0
100
AcDbLine
 62
7
  6
CONTINUOUS
 10
1182.2622899851
 20
1026.3450747667
 11
1182.2622899851
 21
1028.3863308095
  0
LINE
  5
2BF
100
AcDbEntity
  8
0
100
AcDbLine
 62
7
  6
CONTINUOUS
 10
1182.6158831192
 20
1022.8750585277
 11
1182.6158831192
 21
1020.8338024849
  0
LINE
  5
2C0
100
AcDbEntity
  8
0
100
AcDbLine
 62
7
  6
CONTINUOUS
 10
1183.2016636689
 20
1023.6915400367
 11
1183.2016636689
 21
1021.6502839939
  0
LINE
  5
2C1
100
AcDbEntity
  8
0
100
AcDbLine
 62
7
  6
CONTINUOUS
 10
1186.8585915176
 20
1011.4442362364
 11
1186.8585915176
 21
1013.4854922792
  0
ARC
  5
2C2
100
AcDbEntity
  8
0
100
AcDbCircle
 62
7
  6
CONTINUOUS
 10
183.8309048687
 20
875.6726505206
 40
8.5734579005
100
AcDbArc
 50
269.9791567338
 51
275.3584995171
  0
ARC
  5
2C3
100
AcDbEntity
  8
0
100
AcDbCircle
 62
7
  6
CONTINUOUS
 10
183.8463939039
 20
875.4994291811
 40
8.3995471177
100
AcDbArc
 50
275.3636516872
 51
276.8446506402
  0
ARC
  5
2C4
100
AcDbEntity
  8
0
100
AcDbCircle
 62
7
  6
CONTINUOUS
 10
183.8648346291
 20
875.3461749576
 40
8.2451874231
100
AcDbArc
 50
276.8443393028
 51
278.2811615824
  0
ARC
  5
2C5
100
AcDbEntity
  8
0
100
AcDbCircle
 62
7
  6
CONTINUOUS
 10
183.8272792994
 20
864.857768925
 40
7.7261002744
100
AcDbArc
 50
83.0325679469
 51
94.0921515634
  0
ARC
  5
2C6
100
AcDbEntity
  8
0
100
AcDbCircle
 62
7
  6
CONTINUOUS
 10
183.6859733875
 20
874.739189306
 40
7.6286055406
100
AcDbArc
 50
256.9976391975
 51
259.4292228071
  0
ARC
  5
2C7
100
AcDbEntity
  8
0
100
AcDbCircle
 62
7
  6
CONTINUOUS
 10
184.671221162
 20
872.680019115
 40
5.4483976698
100
AcDbArc
 50
294.2975379484
 51
296.1918574789
  0
ARC
  5
2C8
100
AcDbEntity
  8
0
100
AcDbCircle
 62
7
  6
CONTINUOUS
 10
182.9504595012
 20
867.3678188148
 40
5.3643574247
100
AcDbArc
 50
114.2851951118
 51
117.086186199
  0
ARC
  5
2C9
100
AcDbEntity
  8
0
100
AcDbCircle
 62
7
  6
CONTINUOUS
 10
183.1778473565
 20
867.3248419054
 40
5.1631284912
100
AcDbArc
 50
112.7233009877
 51
114.6553638419
  0
ARC
  5
2CA
100
AcDbEntity
  8
0
100
AcDbCircle
 62
7
  6
CONTINUOUS
 10
182.8525541033
 20
872.4021048939
 40
5.1400934078
100
AcDbArc
 50
242.0744358006
 51
243.8751451392
  0
ARC
  5
2CB
100
AcDbEntity
  8
0
100
AcDbCircle
 62
7
  6
CONTINUOUS
 10
184.8223617298
 20
872.3726210592
 40
5.1058527349
100
AcDbArc
 50
296.1924995888
 51
298.01474207
  0
ARC
  5
2CC
100
AcDbEntity
  8
0
100
AcDbCircle
 62
7
  6
CONTINUOUS
 10
184.8752557014
 20
867.7077729067
 40
4.9850073011
100
AcDbArc
 50
60.2323605176
 51
63.9034050706
  0
ARC
  5
2CD
100
AcDbEntity
  8
0
100
AcDbCircle
 62
7
  6
CONTINUOUS
 10
182.7145924414
 20
867.8285417296
 40
4.8467679908
100
AcDbArc
 50
117.0836246314
 51
119.9740659744
  0
ARC
  5
2CE
100
AcDbEntity
  8
0
100
AcDbCircle
 62
7
  6
CONTINUOUS
 10
182.709422736
 20
872.1321910226
 40
4.8345773154
100
AcDbArc
 50
240.2043677179
 51
242.0751174879
  0
ARC
  5
2CF
100
AcDbEntity
  8
0
100
AcDbCircle
 62
7
  6
CONTINUOUS
 10
184.6214750845
 20
867.6389910562
 40
4.8184461698
100
AcDbArc
 50
63.1861331828
 51
65.2150749349
  0
ARC
  5
2D0
100
AcDbEntity
  8
0
100
AcDbCircle
 62
7
  6
CONTINUOUS
 10
184.98248867
 20
872.0719663364
 40
4.7652152794
100
AcDbArc
 50
298.0129720702
 51
299.9876376787
  0
ARC
  5
2D1
100
AcDbEntity
  8
0
100
AcDbCircle
 62
7
  6
CONTINUOUS
 10
184.8065789926
 20
868.0017862615
 40
4.4111610046
100
AcDbArc
 50
59.8379702913
 51
63.206218336
  0
ARC
  5
2D2
100
AcDbEntity
  8
0
100
AcDbCircle
 62
7
  6
CONTINUOUS
 10
185.188679201
 20
871.7188045189
 40
4.3562738397
100
AcDbArc
 50
299.9603651827
 51
304.4122202448
  0
ARC
  5
2D3
100
AcDbEntity
  8
0
100
AcDbCircle
 62
7
  6
CONTINUOUS
 10
182.6098096951
 20
868.4177162718
 40
3.9305859182
100
AcDbArc
 50
119.9638730962
 51
124.2154356655
  0
ARC
  5
2D4
100
AcDbEntity
  8
0
100
AcDbCircle
 62
7
  6
CONTINUOUS
 10
155.7162476325
 20
844.5574981806
 40
3.9047516406
100
AcDbArc
 50
55.243030529
 51
60.0467214857
  0
ARC
  5
2D5
100
AcDbEntity
  8
0
100
AcDbCircle
 62
7
  6
CONTINUOUS
 10
181.6548903093
 20
870.7002101477
 40
3.0502252212
100
AcDbArc
 50
223.397423424
 51
226.0678312973
  0
ARC
  5
2D6
100
AcDbEntity
  8
0
100
AcDbCircle
 62
7
  6
CONTINUOUS
 10
186.7852118684
 20
869.048546006
 40
2.0640074561
100
AcDbArc
 50
25.0000307379
 51
27.639836462
  0
ARC
  5
2D7
100
AcDbEntity
  8
0
100
AcDbCircle
 62
7
  6
CONTINUOUS
 10
180.8693690525
 20
870.1053538286
 40
2.0609364786
100
AcDbArc
 50
204.7609393855
 51
207.5638946529
  0
ARC
  5
2D8
100
AcDbEntity
  8
0
100
AcDbCircle
 62
7
  6
CONTINUOUS
 10
180.8618780669
 20
869.0523743714
 40
2.0535027365
100
AcDbArc
 50
152.3613611994
 51
155.0946636348
  0
ARC
  5
2D9
100
AcDbEntity
  8
0
100
AcDbCircle
 62
7
  6
CONTINUOUS
 10
186.7957712529
 20
870.1026053727
 40
2.0530869841
100
AcDbArc
 50
332.3633590889
 51
335.0989650891
  0
ARC
  5
2DA
100
AcDbEntity
  8
0
100
AcDbCircle
 62
7
  6
CONTINUOUS
 10
186.8888080859
 20
869.0958818752
 40
1.9501125941
100
AcDbArc
 50
19.4089650779
 51
25.0259107062
  0
ARC
  5
2DB
100
AcDbEntity
  8
0
100
AcDbCircle
 62
7
  6
CONTINUOUS
 10
180.7649659697
 20
870.0580739741
 40
1.9463296719
100
AcDbArc
 50
199.2836242898
 51
204.7843239935
  0
ARC
  5
2DC
100
AcDbEntity
  8
0
100
AcDbCircle
 62
7
  6
CONTINUOUS
 10
180.7574553741
 20
869.0999290851
 40
1.9387647813
100
AcDbArc
 50
155.0697754715
 51
160.659372581
  0
ARC
  5
2DD
100
AcDbEntity
  8
0
100
AcDbCircle
 62
7
  6
CONTINUOUS
 10
186.8998614061
 20
870.0552104972
 40
1.9387178902
100
AcDbArc
 50
335.0741842333
 51
340.6631248105
  0
ARC
  5
2DE
100
AcDbEntity
  8
0
100
AcDbCircle
 62
7
  6
CONTINUOUS
 10
187.1554266272
 20
869.9859025214
 40
1.6731494969
100
AcDbArc
 50
351.6048001984
 51
8.4670056445
  0
ARC
  5
2DF
100
AcDbEntity
  8
0
100
AcDbCircle
 62
7
  6
CONTINUOUS
 10
180.5018826937
 20
869.9858150644
 40
1.6731443831
100
AcDbArc
 50
171.606004057
 51
188.4670056446
  0
ARC
  5
2E0
100
AcDbEntity
  8
0
100
AcDbCircle
 62
7
  6
CONTINUOUS
 10
555.0635105709
 20
661.3462543972
 40
8.5734579002
100
AcDbArc
 50
269.9791567338
 51
275.3584995171
  0
ARC
  5
2E1
100
AcDbEntity
  8
0
100
AcDbCircle
 62
7
  6
CONTINUOUS
 10
555.0804150914
 20
661.1593835814
 40
8.385825092
100
AcDbArc
 50
275.3627403786
 51
277.1118258848
  0
ARC
  5
2E2
100
AcDbEntity
  8
0
100
AcDbCircle
 62
7
  6
CONTINUOUS
 10
555.0996137217
 20
661.0040063249
 40
8.229266336
100
AcDbArc
 50
277.1131192155
 51
278.2820040307
  0
ARC
  5
2E3
100
AcDbEntity
  8
0
100
AcDbCircle
 62
7
  6
CONTINUOUS
 10
555.0598850016
 20
650.5313728018
 40
7.7261002744
100
AcDbArc
 50
83.0325679469
 51
94.0921515634
  0
ARC
  5
2E4
100
AcDbEntity
  8
0
100
AcDbCircle
 62
7
  6
CONTINUOUS
 10
554.9185790897
 20
660.4127931829
 40
7.6286055408
100
AcDbArc
 50
256.9976391976
 51
259.4292228071
  0
ARC
  5
2E5
100
AcDbEntity
  8
0
100
AcDbCircle
 62
7
  6
CONTINUOUS
 10
555.9038268642
 20
658.3536229918
 40
5.4483976697
100
AcDbArc
 50
294.2975379484
 51
296.1918574789
  0
ARC
  5
2E6
100
AcDbEntity
  8
0
100
AcDbCircle
 62
7
  6
CONTINUOUS
 10
554.1830652033
 20
653.0414226918
 40
5.3643574246
100
AcDbArc
 50
114.2851951117
 51
117.086186199
  0
ARC
  5
2E7
100
AcDbEntity
  8
0
100
AcDbCircle
 62
7
  6
CONTINUOUS
 10
554.129214235
 20
658.1631506468
 40
5.2380023941
100
AcDbArc
 50
242.6538438293
 51
244.4459621398
  0
ARC
  5
2E8
100
AcDbEntity
  8
0
100
AcDbCircle
 62
7
  6
CONTINUOUS
 10
554.4104530588
 20
652.9984457819
 40
5.1631284916
100
AcDbArc
 50
112.7233009878
 51
114.6553638419
  0
ARC
  5
2E9
100
AcDbEntity
  8
0
100
AcDbCircle
 62
7
  6
CONTINUOUS
 10
556.0549674317
 20
658.0462249365
 40
5.1058527354
100
AcDbArc
 50
296.1924995889
 51
298.0147420699
  0
ARC
  5
2EA
100
AcDbEntity
  8
0
100
AcDbCircle
 62
7
  6
CONTINUOUS
 10
556.1078614036
 20
653.3813767837
 40
4.9850073009
100
AcDbArc
 50
60.2323605176
 51
63.9034050707
  0
ARC
  5
2EB
100
AcDbEntity
  8
0
100
AcDbCircle
 62
7
  6
CONTINUOUS
 10
553.9655183978
 20
657.8480455266
 40
4.8829149331
100
AcDbArc
 50
240.2115254303
 51
242.6615186264
  0
ARC
  5
2EC
100
AcDbEntity
  8
0
100
AcDbCircle
 62
7
  6
CONTINUOUS
 10
553.9471981435
 20
653.5021456065
 40
4.8467679906
100
AcDbArc
 50
117.0836246313
 51
119.9740659745
  0
ARC
  5
2ED
100
AcDbEntity
  8
0
100
AcDbCircle
 62
7
  6
CONTINUOUS
 10
555.854080787
 20
653.3125949337
 40
4.8184461691
100
AcDbArc
 50
63.1861331827
 51
65.2150749351
  0
ARC
  5
2EE
100
AcDbEntity
  8
0
100
AcDbCircle
 62
7
  6
CONTINUOUS
 10
556.2150943719
 20
657.7455702136
 40
4.7652152798
100
AcDbArc
 50
298.0129720703
 51
299.9876376786
  0
ARC
  5
2EF
100
AcDbEntity
  8
0
100
AcDbCircle
 62
7
  6
CONTINUOUS
 10
556.0391846949
 20
653.6753901385
 40
4.4111610044
100
AcDbArc
 50
59.8379702912
 51
63.2062183361
  0
ARC
  5
2F0
100
AcDbEntity
  8
0
100
AcDbCircle
 62
7
  6
CONTINUOUS
 10
556.4212849032
 20
657.3924083958
 40
4.3562738397
100
AcDbArc
 50
299.9603651826
 51
304.4122202448
  0
ARC
  5
2F1
100
AcDbEntity
  8
0
100
AcDbCircle
 62
7
  6
CONTINUOUS
 10
553.8424153972
 20
654.0913201487
 40
3.9305859182
100
AcDbArc
 50
119.9638730962
 51
124.2154356655
  0
ARC
  5
2F2
100
AcDbEntity
  8
0
100
AcDbCircle
 62
7
  6
CONTINUOUS
 10
552.8874960115
 20
656.3738140245
 40
3.0502252212
100
AcDbArc
 50
223.3974234239
 51
226.0678312972
  0
ARC
  5
2F3
100
AcDbEntity
  8
0
100
AcDbCircle
 62
7
  6
CONTINUOUS
 10
531.8244556149
 20
638.0082140412
 40
2.7874375777
100
AcDbArc
 50
31.513410411
 51
35.4530162095
  0
ARC
  5
2F4
100
AcDbEntity
  8
0
100
AcDbCircle
 62
7
  6
CONTINUOUS
 10
558.0178175706
 20
654.7221498828
 40
2.0640074561
100
AcDbArc
 50
25.0000307378
 51
27.6398364618
  0
ARC
  5
2F5
100
AcDbEntity
  8
0
100
AcDbCircle
 62
7
  6
CONTINUOUS
 10
552.1019747548
 20
655.7789577055
 40
2.0609364788
100
AcDbArc
 50
204.7609393856
 51
207.5638946527
  0
ARC
  5
2F6
100
AcDbEntity
  8
0
100
AcDbCircle
 62
7
  6
CONTINUOUS
 10
552.0944837691
 20
654.7259782482
 40
2.0535027366
100
AcDbArc
 50
152.3613611994
 51
155.0946636347
  0
ARC
  5
2F7
100
AcDbEntity
  8
0
100
AcDbCircle
 62
7
  6
CONTINUOUS
 10
558.028376955
 20
655.7762092495
 40
2.0530869841
100
AcDbArc
 50
332.3633590889
 51
335.0989650891
  0
ARC
  5
2F8
100
AcDbEntity
  8
0
100
AcDbCircle
 62
7
  6
CONTINUOUS
 10
558.121413788
 20
654.769485752
 40
1.9501125942
100
AcDbArc
 50
19.408965078
 51
25.0259107061
  0
ARC
  5
2F9
100
AcDbEntity
  8
0
100
AcDbCircle
 62
7
  6
CONTINUOUS
 10
551.9975716718
 20
655.7316778509
 40
1.9463296718
100
AcDbArc
 50
199.2836242898
 51
204.7843239936
  0
ARC
  5
2FA
100
AcDbEntity
  8
0
100
AcDbCircle
 62
7
  6
CONTINUOUS
 10
551.9900610763
 20
654.7735329619
 40
1.9387647813
100
AcDbArc
 50
155.0697754715
 51
160.659372581
  0
ARC
  5
2FB
100
AcDbEntity
  8
0
100
AcDbCircle
 62
7
  6
CONTINUOUS
 10
558.1324671083
 20
655.7288143741
 40
1.9387178902
100
AcDbArc
 50
335.0741842333
 51
340.6631248105
  0
ARC
  5
2FC
100
AcDbEntity
  8
0
100
AcDbCircle
 62
7
  6
CONTINUOUS
 10
558.3880323293
 20
655.6595063982
 40
1.673149497
100
AcDbArc
 50
351.6048001985
 51
8.4670056446
  0
ARC
  5
2FD
100
AcDbEntity
  8
0
100
AcDbCircle
 62
7
  6
CONTINUOUS
 10
551.7344883959
 20
655.6594189413
 40
1.6731443831
100
AcDbArc
 50
171.606004057
 51
188.4670056446
  0
ARC
  5
2FE
100
AcDbEntity
  8
0
100
AcDbCircle
 62
7
  6
CONTINUOUS
 10
784.8684351968
 20
1222.7033482436
 40
8.596624597
100
AcDbArc
 50
264.7347890254
 51
272.854500764
  0
ARC
  5
2FF
100
AcDbEntity
  8
0
100
AcDbCircle
 62
7
  6
CONTINUOUS
 10
784.8604827065
 20
1211.3970655884
 40
8.4829924414
100
AcDbArc
 50
89.9506445646
 51
98.5149465098
  0
ARC
  5
300
100
AcDbEntity
  8
0
100
AcDbCircle
 62
7
  6
CONTINUOUS
 10
784.8550135985
 20
1222.5549553584
 40
8.4476393027
100
AcDbArc
 50
263.256683774
 51
264.7320827797
  0
ARC
  5
301
100
AcDbEntity
  8
0
100
AcDbCircle
 62
7
  6
CONTINUOUS
 10
784.8373965771
 20
1222.4063403471
 40
8.2979837681
100
AcDbArc
 50
261.8384741585
 51
263.2569913438
  0
ARC
  5
302
100
AcDbEntity
  8
0
100
AcDbCircle
 62
7
  6
CONTINUOUS
 10
784.8651680039
 20
1211.8725433607
 40
7.7188453234
100
AcDbArc
 50
89.7768317482
 51
95.4385687469
  0
ARC
  5
303
100
AcDbEntity
  8
0
100
AcDbCircle
 62
7
  6
CONTINUOUS
 10
784.8500399127
 20
1212.0391317436
 40
7.5515730745
100
AcDbArc
 50
95.4440998575
 51
96.9878610398
  0
ARC
  5
304
100
AcDbEntity
  8
0
100
AcDbCircle
 62
7
  6
CONTINUOUS
 10
785.0853170731
 20
1213.1017573358
 40
6.4690265959
100
AcDbArc
 50
74.1111697397
 51
76.9236195601
  0
ARC
  5
305
100
AcDbEntity
  8
0
100
AcDbCircle
 62
7
  6
CONTINUOUS
 10
785.4451167336
 20
1220.2969990985
 40
6.1127955634
100
AcDbArc
 50
290.7253379868
 51
292.5486941257
  0
ARC
  5
306
100
AcDbEntity
  8
0
100
AcDbCircle
 62
7
  6
CONTINUOUS
 10
785.5702856902
 20
1219.9954564401
 40
5.7863062964
100
AcDbArc
 50
292.549009174
 51
294.2992337239
  0
ARC
  5
307
100
AcDbEntity
  8
0
100
AcDbCircle
 62
7
  6
CONTINUOUS
 10
784.1569243899
 20
1219.9746811647
 40
5.7647418169
100
AcDbArc
 50
245.6493089487
 51
247.5174154146
  0
ARC
  5
308
100
AcDbEntity
  8
0
100
AcDbCircle
 62
7
  6
CONTINUOUS
 10
784.0259207781
 20
1219.6850502901
 40
5.4468613607
100
AcDbArc
 50
243.8748522768
 51
245.6485581039
  0
ARC
  5
309
100
AcDbEntity
  8
0
100
AcDbCircle
 62
7
  6
CONTINUOUS
 10
785.7451165653
 20
1219.6114292551
 40
5.3643574248
100
AcDbArc
 50
294.2851951118
 51
297.0861861989
  0
ARC
  5
30A
100
AcDbEntity
  8
0
100
AcDbCircle
 62
7
  6
CONTINUOUS
 10
783.8203203651
 20
1219.271475163
 40
4.985007301
100
AcDbArc
 50
240.2323605176
 51
243.9034050707
  0
ARC
  5
30B
100
AcDbEntity
  8
0
100
AcDbCircle
 62
7
  6
CONTINUOUS
 10
785.9626633708
 20
1214.8048064198
 40
4.8829149334
100
AcDbArc
 50
60.2115254304
 51
62.6615186264
  0
ARC
  5
30C
100
AcDbEntity
  8
0
100
AcDbCircle
 62
7
  6
CONTINUOUS
 10
785.9809836254
 20
1219.1507063398
 40
4.8467679903
100
AcDbArc
 50
297.0836246313
 51
299.9740659746
  0
ARC
  5
30D
100
AcDbEntity
  8
0
100
AcDbCircle
 62
7
  6
CONTINUOUS
 10
783.7528540732
 20
1214.8360725203
 40
4.8467679908
100
AcDbArc
 50
117.0836246314
 51
119.9740659744
  0
ARC
  5
30E
100
AcDbEntity
  8
0
100
AcDbCircle
 62
7
  6
CONTINUOUS
 10
783.8764439902
 20
1215.0297758097
 40
4.3872602972
100
AcDbArc
 50
116.7618496071
 51
119.9681677402
  0
ARC
  5
30F
100
AcDbEntity
  8
0
100
AcDbCircle
 62
7
  6
CONTINUOUS
 10
783.5068968656
 20
1215.2604435509
 40
4.3562738397
100
AcDbArc
 50
119.9603651827
 51
124.4122202448
  0
ARC
  5
310
100
AcDbEntity
  8
0
100
AcDbCircle
 62
7
  6
CONTINUOUS
 10
786.6719704906
 20
1218.1092203627
 40
3.5951441544
100
AcDbArc
 50
306.838228387
 51
312.256473581
  0
ARC
  5
311
100
AcDbEntity
  8
0
100
AcDbCircle
 62
7
  6
CONTINUOUS
 10
787.8234734992
 20
1216.0560767963
 40
2.0640074572
100
AcDbArc
 50
25.0000307385
 51
27.6398364612
  0
ARC
  5
312
100
AcDbEntity
  8
0
100
AcDbCircle
 62
7
  6
CONTINUOUS
 10
781.9076306848
 20
1217.1128846196
 40
2.0609364792
100
AcDbArc
 50
204.760939386
 51
207.5638946526
  0
ARC
  5
313
100
AcDbEntity
  8
0
100
AcDbCircle
 62
7
  6
CONTINUOUS
 10
781.9001396983
 20
1216.0599051623
 40
2.0535027361
100
AcDbArc
 50
152.361361199
 51
155.0946636349
  0
ARC
  5
314
100
AcDbEntity
  8
0
100
AcDbCircle
 62
7
  6
CONTINUOUS
 10
787.8340328851
 20
1217.1101361632
 40
2.0530869836
100
AcDbArc
 50
332.3633590888
 51
335.0989650897
  0
ARC
  5
315
100
AcDbEntity
  8
0
100
AcDbCircle
 62
7
  6
CONTINUOUS
 10
787.9270697175
 20
1216.1034126659
 40
1.9501125943
100
AcDbArc
 50
19.4089650782
 51
25.025910706
  0
ARC
  5
316
100
AcDbEntity
  8
0
100
AcDbCircle
 62
7
  6
CONTINUOUS
 10
781.8032276013
 20
1217.0656047648
 40
1.9463296717
100
AcDbArc
 50
199.2836242895
 51
204.7843239937
  0
ARC
  5
317
100
AcDbEntity
  8
0
100
AcDbCircle
 62
7
  6
CONTINUOUS
 10
781.7957170058
 20
1216.1074598759
 40
1.9387647813
100
AcDbArc
 50
155.0697754714
 51
160.6593725812
  0
ARC
  5
318
100
AcDbEntity
  8
0
100
AcDbCircle
 62
7
  6
CONTINUOUS
 10
787.9381230378
 20
1217.062741288
 40
1.9387178903
100
AcDbArc
 50
335.0741842334
 51
340.6631248103
  0
ARC
  5
319
100
AcDbEntity
  8
0
100
AcDbCircle
 62
7
  6
CONTINUOUS
 10
788.193688259
 20
1216.9934333121
 40
1.6731494969
100
AcDbArc
 50
351.6048001983
 51
8.4670056445
  0
ARC
  5
31A
100
AcDbEntity
  8
0
100
AcDbCircle
 62
7
  6
CONTINUOUS
 10
781.5401443255
 20
1216.9933458552
 40
1.6731443831
100
AcDbArc
 50
171.6060040572
 51
188.4670056445
  0
ARC
  5
31B
100
AcDbEntity
  8
0
100
AcDbCircle
 62
7
  6
CONTINUOUS
 10
1156.1010408989
 20
1008.3769521213
 40
8.5966245978
100
AcDbArc
 50
264.7347890255
 51
272.8545007639
  0
ARC
  5
31C
100
AcDbEntity
  8
0
100
AcDbCircle
 62
7
  6
CONTINUOUS
 10
1156.0930884087
 20
997.0706694652
 40
8.4829924414
100
AcDbArc
 50
89.9506445646
 51
98.5149465098
  0
ARC
  5
31D
100
AcDbEntity
  8
0
100
AcDbCircle
 62
7
  6
CONTINUOUS
 10
1156.0876193005
 20
1008.2285592339
 40
8.4476393013
100
AcDbArc
 50
263.2566837739
 51
264.7320827798
  0
ARC
  5
31E
100
AcDbEntity
  8
0
100
AcDbCircle
 62
7
  6
CONTINUOUS
 10
1156.0700022791
 20
1008.0799442226
 40
8.2979837669
100
AcDbArc
 50
261.8384741584
 51
263.2569913439
  0
ARC
  5
31F
100
AcDbEntity
  8
0
100
AcDbCircle
 62
7
  6
CONTINUOUS
 10
1156.097773706
 20
997.5461472377
 40
7.7188453232
100
AcDbArc
 50
89.7768317481
 51
95.438568747
  0
ARC
  5
320
100
AcDbEntity
  8
0
100
AcDbCircle
 62
7
  6
CONTINUOUS
 10
1156.0826456146
 20
997.7127356231
 40
7.5515730717
100
AcDbArc
 50
95.4440998572
 51
96.9878610401
  0
ARC
  5
321
100
AcDbEntity
  8
0
100
AcDbCircle
 62
7
  6
CONTINUOUS
 10
1156.3332820054
 20
998.832271243
 40
6.4100859585
100
AcDbArc
 50
74.1039481462
 51
75.9452643015
  0
ARC
  5
322
100
AcDbEntity
  8
0
100
AcDbCircle
 62
7
  6
CONTINUOUS
 10
1156.6777224362
 20
1005.9706029743
 40
6.1127955622
100
AcDbArc
 50
290.7253379866
 51
292.5486941259
  0
ARC
  5
323
100
AcDbEntity
  8
0
100
AcDbCircle
 62
7
  6
CONTINUOUS
 10
1156.8028913916
 20
1005.6690603188
 40
5.7863062984
100
AcDbArc
 50
292.5490091742
 51
294.2992337236
  0
ARC
  5
324
100
AcDbEntity
  8
0
100
AcDbCircle
 62
7
  6
CONTINUOUS
 10
1155.3895300916
 20
1005.6482850404
 40
5.7647418155
100
AcDbArc
 50
245.6493089485
 51
247.5174154149
  0
ARC
  5
325
100
AcDbEntity
  8
0
100
AcDbCircle
 62
7
  6
CONTINUOUS
 10
1155.2585264802
 20
1005.3586541669
 40
5.4468613605
100
AcDbArc
 50
243.8748522768
 51
245.6485581039
  0
ARC
  5
326
100
AcDbEntity
  8
0
100
AcDbCircle
 62
7
  6
CONTINUOUS
 10
1156.9777222677
 20
1005.2850331314
 40
5.3643574242
100
AcDbArc
 50
294.2851951117
 51
297.0861861991
  0
ARC
  5
327
100
AcDbEntity
  8
0
100
AcDbCircle
 62
7
  6
CONTINUOUS
 10
1155.0529260673
 20
1004.9450790399
 40
4.985007301
100
AcDbArc
 50
240.2323605176
 51
243.9034050707
  0
ARC
  5
328
100
AcDbEntity
  8
0
100
AcDbCircle
 62
7
  6
CONTINUOUS
 10
1157.1952690732
 20
1000.4784102971
 40
4.8829149329
100
AcDbArc
 50
60.2115254302
 51
62.6615186265
  0
ARC
  5
329
100
AcDbEntity
  8
0
100
AcDbCircle
 62
7
  6
CONTINUOUS
 10
1157.2135893272
 20
1004.8243102173
 40
4.846767991
100
AcDbArc
 50
297.0836246314
 51
299.9740659744
  0
ARC
  5
32A
100
AcDbEntity
  8
0
100
AcDbCircle
 62
7
  6
CONTINUOUS
 10
1154.9854597754
 20
1000.509676397
 40
4.846767991
100
AcDbArc
 50
117.0836246314
 51
119.9740659744
  0
ARC
  5
32B
100
AcDbEntity
  8
0
100
AcDbCircle
 62
7
  6
CONTINUOUS
 10
1155.1090496923
 20
1000.7033796866
 40
4.387260297
100
AcDbArc
 50
116.761849607
 51
119.9681677403
  0
ARC
  5
32C
100
AcDbEntity
  8
0
100
AcDbCircle
 62
7
  6
CONTINUOUS
 10
1154.7395025677
 20
1000.9340474277
 40
4.3562738397
100
AcDbArc
 50
119.9603651827
 51
124.4122202448
  0
ARC
  5
32D
100
AcDbEntity
  8
0
100
AcDbCircle
 62
7
  6
CONTINUOUS
 10
1157.9045761926
 20
1003.7828242397
 40
3.5951441547
100
AcDbArc
 50
306.8382283872
 51
312.2564735807
  0
ARC
  5
32E
100
AcDbEntity
  8
0
100
AcDbCircle
 62
7
  6
CONTINUOUS
 10
1159.0560792014
 20
1001.7296806731
 40
2.0640074572
100
AcDbArc
 50
25.0000307385
 51
27.6398364612
  0
ARC
  5
32F
100
AcDbEntity
  8
0
100
AcDbCircle
 62
7
  6
CONTINUOUS
 10
1153.1402363876
 20
1002.7864884968
 40
2.06093648
100
AcDbArc
 50
204.7609393867
 51
207.5638946522
  0
ARC
  5
330
100
AcDbEntity
  8
0
100
AcDbCircle
 62
7
  6
CONTINUOUS
 10
1153.1327454005
 20
1001.7335090392
 40
2.0535027361
100
AcDbArc
 50
152.361361199
 51
155.0946636349
  0
ARC
  5
331
100
AcDbEntity
  8
0
100
AcDbCircle
 62
7
  6
CONTINUOUS
 10
1159.0666385867
 20
1002.7837400403
 40
2.0530869842
100
AcDbArc
 50
332.3633590891
 51
335.0989650892
  0
ARC
  5
332
100
AcDbEntity
  8
0
100
AcDbCircle
 62
7
  6
CONTINUOUS
 10
1159.1596754199
 20
1001.7770165428
 40
1.9501125941
100
AcDbArc
 50
19.4089650779
 51
25.0259107062
  0
ARC
  5
333
100
AcDbEntity
  8
0
100
AcDbCircle
 62
7
  6
CONTINUOUS
 10
1153.0358333036
 20
1002.7392086417
 40
1.9463296718
100
AcDbArc
 50
199.2836242897
 51
204.7843239936
  0
ARC
  5
334
100
AcDbEntity
  8
0
100
AcDbCircle
 62
7
  6
CONTINUOUS
 10
1153.0283227081
 20
1001.7810637527
 40
1.9387647814
100
AcDbArc
 50
155.0697754716
 51
160.6593725811
  0
ARC
  5
335
100
AcDbEntity
  8
0
100
AcDbCircle
 62
7
  6
CONTINUOUS
 10
1159.17072874
 20
1002.7363451649
 40
1.9387178902
100
AcDbArc
 50
335.0741842333
 51
340.6631248104
  0
ARC
  5
336
100
AcDbEntity
  8
0
100
AcDbCircle
 62
7
  6
CONTINUOUS
 10
1159.4262939612
 20
1002.667037189
 40
1.6731494969
100
AcDbArc
 50
351.6048001983
 51
8.4670056444
  0
ARC
  5
337
100
AcDbEntity
  8
0
100
AcDbCircle
 62
7
  6
CONTINUOUS
 10
1152.7727500277
 20
1002.666949732
 40
1.6731443831
100
AcDbArc
 50
171.6060040572
 51
188.4670056444
  0
SPLINE
  5
338
100
AcDbEntity
  8
0
100
AcDbSpline
 62
7
  6
CONTINUOUS
 70
0
 71
3
 72
9
 73
5
 74
0
 42
0.0000001
 43
0.0000001
 44
0.0000000001
 40
0.0
 40
0.0
 40
0.0
 40
0.0
 40
0.2407186296
 40
1.0
 40
1.0
 40
1.0
 40
1.0
 10
794.7663225227
 20
1229.6489293058
 30
0.0
 10
794.5153475583
 20
1229.5040297075
 30
0.0
 10
793.3780865214
 20
1229.0939764562
 30
0.0
 10
792.0224240983
 20
1229.1918801887
 30
0.0
 10
791.2307886168
 20
1229.6489208075
 30
0.0
  0
SPLINE
  5
339
100
AcDbEntity
  8
0
100
AcDbSpline
 62
7
  6
CONTINUOUS
 70
0
 71
3
 72
11
 73
7
 74
0
 42
0.0000001
 43
0.0000001
 44
0.0000000001
 40
0.0
 40
0.0
 40
0.0
 40
0.0
 40
0.2715555841
 40
0.5647550822
 40
0.8163736113
 40
1.0
 40
1.0
 40
1.0
 40
1.0
 10
815.6259710956
 20
1229.8531006734
 30
0.0
 10
814.6977467747
 20
1229.3171933108
 30
0.0
 10
812.4742552295
 20
1228.7100308069
 30
0.0
 10
809.2225247651
 20
1228.9060806445
 30
0.0
 10
806.4614709219
 20
1229.9407587045
 30
0.0
 10
805.3833179713
 20
1231.5777644318
 30
0.0
 10
805.3833127448
 20
1232.3025307782
 30
0.0
  0
SPLINE
  5
33A
100
AcDbEntity
  8
0
100
AcDbSpline
 62
7
  6
CONTINUOUS
 70
0
 71
3
 72
9
 73
5
 74
0
 42
0.0000001
 43
0.0000001
 44
0.0000000001
 40
0.0
 40
0.0
 40
0.0
 40
0.0
 40
0.2407194189
 40
1.0
 40
1.0
 40
1.0
 40
1.0
 10
822.6970212436
 20
1232.3025723953
 30
0.0
 10
822.4962397879
 20
1232.4184910003
 30
0.0
 10
821.5864295453
 20
1232.7465283346
 30
0.0
 10
820.5018991772
 20
1232.66820226
 30
0.0
 10
819.8685941188
 20
1232.3025655966
 30
0.0
  0
SPLINE
  5
33B
100
AcDbEntity
  8
0
100
AcDbSpline
 62
7
  6
CONTINUOUS
 70
0
 71
3
 72
9
 73
5
 74
0
 42
0.0000001
 43
0.0000001
 44
0.0000000001
 40
0.0
 40
0.0
 40
0.0
 40
0.0
 40
0.4999994563
 40
1.0
 40
1.0
 40
1.0
 40
1.0
 10
829.4145371368
 20
1232.0984673151
 30
0.0
 10
828.4700811736
 20
1231.5531886655
 30
0.0
 10
826.2325597361
 20
1231.1219521707
 30
0.0
 10
823.9950380554
 20
1231.5531789931
 30
0.0
 10
823.0505761061
 20
1232.098452018
 30
0.0
  0
SPLINE
  5
33C
100
AcDbEntity
  8
0
100
AcDbSpline
 62
7
  6
CONTINUOUS
 70
0
 71
3
 72
8
 73
4
 74
0
 42
0.0000001
 43
0.0000001
 44
0.0000000001
 40
0.0
 40
0.0
 40
0.0
 40
0.0
 40
1.0
 40
1.0
 40
1.0
 40
1.0
 10
1182.2623164808
 20
1024.7121487217
 30
0.0
 10
1182.0599482797
 20
1024.828983414
 30
0.0
 10
1181.8661892031
 20
1024.9635469541
 30
0.0
 10
1181.6902557771
 20
1025.1173346771
 30
0.0
  0
SPLINE
  5
33D
100
AcDbEntity
  8
0
100
AcDbSpline
 62
7
  6
CONTINUOUS
 70
0
 71
3
 72
8
 73
4
 74
0
 42
0.0000001
 43
0.0000001
 44
0.0000000001
 40
0.0
 40
0.0
 40
0.0
 40
0.0
 40
1.0
 40
1.0
 40
1.0
 40
1.0
 10
1181.6902557771
 20
1025.1173346771
 30
0.0
 10
1181.4892114462
 20
1025.2930724578
 30
0.0
 10
1181.3071291938
 20
1025.4983960866
 30
0.0
 10
1181.1739807323
 20
1025.7298568344
 30
0.0
  0
SPLINE
  5
33E
100
AcDbEntity
  8
0
100
AcDbSpline
 62
7
  6
CONTINUOUS
 70
0
 71
3
 72
8
 73
4
 74
0
 42
0.0000001
 43
0.0000001
 44
0.0000000001
 40
0.0
 40
0.0
 40
0.0
 40
0.0
 40
1.0
 40
1.0
 40
1.0
 40
1.0
 10
1181.1739807323
 20
1025.7298568344
 30
0.0
 10
1181.0325425871
 20
1025.9757280858
 30
0.0
 10
1180.9443813499
 20
1026.2655972401
 30
0.0
 10
1180.9443813665
 20
1026.5492474141
 30
0.0
  0
SPLINE
  5
33F
100
AcDbEntity
  8
0
100
AcDbSpline
 62
7
  6
CONTINUOUS
 70
0
 71
3
 72
9
 73
5
 74
0
 42
0.0000001
 43
0.0000001
 44
0.0000000001
 40
0.0
 40
0.0
 40
0.0
 40
0.0
 40
0.278743572
 40
1.0
 40
1.0
 40
1.0
 40
1.0
 10
1182.6159434271
 20
1014.5120969846
 30
0.0
 10
1182.1145675204
 20
1014.5120957794
 30
0.0
 10
1180.3321602428
 20
1014.6420238403
 30
0.0
 10
1178.4849013185
 20
1015.2583004127
 30
0.0
 10
1177.5309441457
 20
1016.1375125946
 30
0.0
  0
SPLINE
  5
340
100
AcDbEntity
  8
0
100
AcDbSpline
 62
7
  6
CONTINUOUS
 70
0
 71
3
 72
9
 73
5
 74
0
 42
0.0000001
 43
0.0000001
 44
0.0000000001
 40
0.0
 40
0.0
 40
0.0
 40
0.0
 40
0.2787482176
 40
1.0
 40
1.0
 40
1.0
 40
1.0
 10
1177.5309441457
 20
1016.1375125946
 30
0.0
 10
1177.3884462011
 20
1016.2688454598
 30
0.0
 10
1176.9116035462
 20
1016.7718691466
 30
0.0
 10
1176.6164956161
 20
1017.4747289901
 30
0.0
 10
1176.6162294528
 20
1017.9761502655
 30
0.0
  0
SPLINE
  5
341
100
AcDbEntity
  8
0
100
AcDbSpline
 62
7
  6
CONTINUOUS
 70
0
 71
3
 72
9
 73
5
 74
0
 42
0.0000001
 43
0.0000001
 44
0.0000000001
 40
0.0
 40
0.0
 40
0.0
 40
0.0
 40
0.4997654627
 40
1.0
 40
1.0
 40
1.0
 40
1.0
 10
796.5341557149
 20
1220.4634783356
 30
0.0
 10
795.6968083082
 20
1219.9800384707
 30
0.0
 10
793.7125455069
 20
1219.596158307
 30
0.0
 10
791.728226822
 20
1219.976087933
 30
0.0
 10
790.8884578526
 20
1220.4571374033
 30
0.0
  0
SPLINE
  5
342
100
AcDbEntity
  8
0
100
AcDbSpline
 62
7
  6
CONTINUOUS
 70
0
 71
3
 72
9
 73
5
 74
0
 42
0.0000001
 43
0.0000001
 44
0.0000000001
 40
0.0
 40
0.0
 40
0.0
 40
0.0
 40
0.2958324938
 40
1.0
 40
1.0
 40
1.0
 40
1.0
 10
790.8884578526
 20
1220.4571374033
 30
0.0
 10
790.7113690465
 20
1220.5585801566
 30
0.0
 10
790.1431555657
 20
1220.9360390742
 30
0.0
 10
789.7060015237
 20
1221.6106571956
 30
0.0
 10
789.7057816894
 20
1222.0964411679
 30
0.0
  0
SPLINE
  5
343
100
AcDbEntity
  8
0
100
AcDbSpline
 62
7
  6
CONTINUOUS
 70
0
 71
3
 72
9
 73
5
 74
0
 42
0.0000001
 43
0.0000001
 44
0.0000000001
 40
0.0
 40
0.0
 40
0.0
 40
0.0
 40
0.4997654627
 40
1.0
 40
1.0
 40
1.0
 40
1.0
 10
1167.7667614171
 20
1006.1370822125
 30
0.0
 10
1166.9294140104
 20
1005.6536423475
 30
0.0
 10
1164.945151209
 20
1005.2697621838
 30
0.0
 10
1162.9608325242
 20
1005.6496918099
 30
0.0
 10
1162.1210635548
 20
1006.1307412801
 30
0.0
  0
SPLINE
  5
344
100
AcDbEntity
  8
0
100
AcDbSpline
 62
7
  6
CONTINUOUS
 70
0
 71
3
 72
9
 73
5
 74
0
 42
0.0000001
 43
0.0000001
 44
0.0000000001
 40
0.0
 40
0.0
 40
0.0
 40
0.0
 40
0.2958324938
 40
1.0
 40
1.0
 40
1.0
 40
1.0
 10
1162.1210635548
 20
1006.1307412801
 30
0.0
 10
1161.9439747487
 20
1006.2321840334
 30
0.0
 10
1161.3757612678
 20
1006.609642951
 30
0.0
 10
1160.9386072258
 20
1007.2842610724
 30
0.0
 10
1160.9383873915
 20
1007.7700450447
 30
0.0
  0
SPLINE
  5
345
100
AcDbEntity
  8
0
100
AcDbSpline
 62
7
  6
CONTINUOUS
 70
0
 71
3
 72
9
 73
5
 74
0
 42
0.0000001
 43
0.0000001
 44
0.0000000001
 40
0.0
 40
0.0
 40
0.0
 40
0.0
 40
0.4997654627
 40
1.0
 40
1.0
 40
1.0
 40
1.0
 10
549.050903855
 20
648.9234475749
 30
0.0
 10
548.2135564483
 20
648.44000771
 30
0.0
 10
546.2292936469
 20
648.0561275463
 30
0.0
 10
544.2449749621
 20
648.4360571723
 30
0.0
 10
543.4052059927
 20
648.9171066426
 30
0.0
  0
SPLINE
  5
346
100
AcDbEntity
  8
0
100
AcDbSpline
 62
7
  6
CONTINUOUS
 70
0
 71
3
 72
9
 73
5
 74
0
 42
0.0000001
 43
0.0000001
 44
0.0000000001
 40
0.0
 40
0.0
 40
0.0
 40
0.0
 40
0.2958324938
 40
1.0
 40
1.0
 40
1.0
 40
1.0
 10
543.4052059927
 20
648.9171066426
 30
0.0
 10
543.2281171866
 20
649.0185493959
 30
0.0
 10
542.6599037057
 20
649.3960083135
 30
0.0
 10
542.2227496637
 20
650.0706264348
 30
0.0
 10
542.2225298294
 20
650.5564104072
 30
0.0
  0
SPLINE
  5
347
100
AcDbEntity
  8
0
100
AcDbSpline
 62
7
  6
CONTINUOUS
 70
0
 71
3
 72
9
 73
5
 74
0
 42
0.0000001
 43
0.0000001
 44
0.0000000001
 40
0.0
 40
0.0
 40
0.0
 40
0.0
 40
0.4997654627
 40
1.0
 40
1.0
 40
1.0
 40
1.0
 10
177.8182981528
 20
863.2498436981
 30
0.0
 10
176.9809507461
 20
862.7664038332
 30
0.0
 10
174.9966879447
 20
862.3825236694
 30
0.0
 10
173.0123692599
 20
862.7624532955
 30
0.0
 10
172.1726002905
 20
863.2435027658
 30
0.0
  0
SPLINE
  5
348
100
AcDbEntity
  8
0
100
AcDbSpline
 62
7
  6
CONTINUOUS
 70
0
 71
3
 72
9
 73
5
 74
0
 42
0.0000001
 43
0.0000001
 44
0.0000000001
 40
0.0
 40
0.0
 40
0.0
 40
0.0
 40
0.2958324938
 40
1.0
 40
1.0
 40
1.0
 40
1.0
 10
172.1726002905
 20
863.2435027658
 30
0.0
 10
171.9955114844
 20
863.344945519
 30
0.0
 10
171.4272980036
 20
863.7224044366
 30
0.0
 10
170.9901439615
 20
864.397022558
 30
0.0
 10
170.9899241273
 20
864.8828065304
 30
0.0
  0
SPLINE
  5
349
100
AcDbEntity
  8
0
100
AcDbSpline
 62
7
  6
CONTINUOUS
 70
0
 71
3
 72
8
 73
4
 74
0
 42
0.0000001
 43
0.0000001
 44
0.0000000001
 40
0.0
 40
0.0
 40
0.0
 40
0.0
 40
1.0
 40
1.0
 40
1.0
 40
1.0
 10
558.1457073545
 20
653.3878391629
 30
0.0
 10
557.5581995533
 20
653.1224761299
 30
0.0
 10
556.9229330067
 20
652.9534414416
 30
0.0
 10
556.28500164
 20
652.8605623414
 30
0.0
  0
SPLINE
  5
34A
100
AcDbEntity
  8
0
100
AcDbSpline
 62
7
  6
CONTINUOUS
 70
0
 71
3
 72
8
 73
4
 74
0
 42
0.0000001
 43
0.0000001
 44
0.0000000001
 40
0.0
 40
0.0
 40
0.0
 40
0.0
 40
1.0
 40
1.0
 40
1.0
 40
1.0
 10
555.0603916874
 20
652.7727970643
 30
0.0
 10
554.5444906593
 20
652.7729478023
 30
0.0
 10
554.0262378566
 20
652.8189070149
 30
0.0
 10
553.5191114333
 20
652.9136523805
 30
0.0
  0
SPLINE
  5
34B
100
AcDbEntity
  8
0
100
AcDbSpline
 62
7
  6
CONTINUOUS
 70
0
 71
3
 72
8
 73
4
 74
0
 42
0.0000001
 43
0.0000001
 44
0.0000000001
 40
0.0
 40
0.0
 40
0.0
 40
0.0
 40
1.0
 40
1.0
 40
1.0
 40
1.0
 10
553.2022099604
 20
652.9797790225
 30
0.0
 10
552.7446370414
 20
653.0855384147
 30
0.0
 10
552.2934034157
 20
653.2348887272
 30
0.0
 10
551.8697381652
 20
653.4375356635
 30
0.0
  0
SPLINE
  5
34C
100
AcDbEntity
  8
0
100
AcDbSpline
 62
7
  6
CONTINUOUS
 70
0
 71
3
 72
8
 73
4
 74
0
 42
0.0000001
 43
0.0000001
 44
0.0000000001
 40
0.0
 40
0.0
 40
0.0
 40
0.0
 40
1.0
 40
1.0
 40
1.0
 40
1.0
 10
551.5396892174
 20
653.6103325784
 30
0.0
 10
551.2634970247
 20
653.7685452688
 30
0.0
 10
551.0003944701
 20
653.9562575421
 30
0.0
 10
550.7712306213
 20
654.177158681
 30
0.0
  0
SPLINE
  5
34D
100
AcDbEntity
  8
0
100
AcDbSpline
 62
7
  6
CONTINUOUS
 70
0
 71
3
 72
8
 73
4
 74
0
 42
0.0000001
 43
0.0000001
 44
0.0000000001
 40
0.0
 40
0.0
 40
0.0
 40
0.0
 40
1.0
 40
1.0
 40
1.0
 40
1.0
 10
550.671185381
 20
654.2781420347
 30
0.0
 10
550.5165206773
 20
654.441803708
 30
0.0
 10
550.3791297137
 20
654.6256458258
 30
0.0
 10
550.2749641444
 20
654.8252851207
 30
0.0
  0
SPLINE
  5
34E
100
AcDbEntity
  8
0
100
AcDbSpline
 62
7
  6
CONTINUOUS
 70
0
 71
3
 72
8
 73
4
 74
0
 42
0.0000001
 43
0.0000001
 44
0.0000000001
 40
0.0
 40
0.0
 40
0.0
 40
0.0
 40
1.0
 40
1.0
 40
1.0
 40
1.0
 10
550.1604400917
 20
655.0889129259
 30
0.0
 10
550.1235453192
 20
655.1945549615
 30
0.0
 10
550.0960202865
 20
655.304042008
 30
0.0
 10
550.0795804554
 20
655.4147271285
 30
0.0
  0
SPLINE
  5
34F
100
AcDbEntity
  8
0
100
AcDbSpline
 62
7
  6
CONTINUOUS
 70
0
 71
3
 72
9
 73
5
 74
0
 42
0.0000001
 43
0.0000001
 44
0.0000000001
 40
0.0
 40
0.0
 40
0.0
 40
0.0
 40
0.2392266381
 40
1.0
 40
1.0
 40
1.0
 40
1.0
 10
1158.8409704385
 20
1000.2533809508
 30
0.0
 10
1158.6647382115
 20
1000.1866711833
 30
0.0
 10
1157.9157018077
 20
999.940864772
 30
0.0
 10
1157.1276590566
 20
999.8208327119
 30
0.0
 10
1156.5291513399
 20
999.7909940544
 30
0.0
  0
SPLINE
  5
350
100
AcDbEntity
  8
0
100
AcDbSpline
 62
7
  6
CONTINUOUS
 70
0
 71
3
 72
8
 73
4
 74
0
 42
0.0000001
 43
0.0000001
 44
0.0000000001
 40
0.0
 40
0.0
 40
0.0
 40
0.0
 40
1.0
 40
1.0
 40
1.0
 40
1.0
 10
1154.8919851033
 20
999.8660042345
 30
0.0
 10
1154.3090577948
 20
999.9496314494
 30
0.0
 10
1153.7291805651
 20
1000.0964101521
 30
0.0
 10
1153.185077858
 20
1000.3216877635
 30
0.0
  0
SPLINE
  5
351
100
AcDbEntity
  8
0
100
AcDbSpline
 62
7
  6
CONTINUOUS
 70
0
 71
3
 72
9
 73
5
 74
0
 42
0.0000001
 43
0.0000001
 44
0.0000000001
 40
0.0
 40
0.0
 40
0.0
 40
0.0
 40
0.2780553767
 40
1.0
 40
1.0
 40
1.0
 40
1.0
 10
1152.5779508492
 20
1000.6178633692
 30
0.0
 10
1152.4359286574
 20
1000.6992187212
 30
0.0
 10
1151.9421756034
 20
1001.0167349449
 30
0.0
 10
1151.5098078811
 20
1001.4560550193
 30
0.0
 10
1151.3132257762
 20
1001.8328159115
 30
0.0
  0
SPLINE
  5
352
100
AcDbEntity
  8
0
100
AcDbSpline
 62
7
  6
CONTINUOUS
 70
0
 71
3
 72
8
 73
4
 74
0
 42
0.0000001
 43
0.0000001
 44
0.0000000001
 40
0.0
 40
0.0
 40
0.0
 40
0.0
 40
1.0
 40
1.0
 40
1.0
 40
1.0
 10
1151.1987017235
 20
1002.0964437166
 30
0.0
 10
1151.161806951
 20
1002.2020857523
 30
0.0
 10
1151.1342819182
 20
1002.3115727988
 30
0.0
 10
1151.1178420872
 20
1002.4222579193
 30
0.0
  0
SPLINE
  5
353
100
AcDbEntity
  8
0
100
AcDbSpline
 62
7
  6
CONTINUOUS
 70
0
 71
3
 72
9
 73
5
 74
0
 42
0.0000001
 43
0.0000001
 44
0.0000000001
 40
0.0
 40
0.0
 40
0.0
 40
0.0
 40
0.2392266381
 40
1.0
 40
1.0
 40
1.0
 40
1.0
 10
787.6083647364
 20
1214.5797770739
 30
0.0
 10
787.4321325094
 20
1214.5130673065
 30
0.0
 10
786.6830961056
 20
1214.2672608952
 30
0.0
 10
785.8950533545
 20
1214.1472288351
 30
0.0
 10
785.2965456378
 20
1214.1173901776
 30
0.0
  0
SPLINE
  5
354
100
AcDbEntity
  8
0
100
AcDbSpline
 62
7
  6
CONTINUOUS
 70
0
 71
3
 72
8
 73
4
 74
0
 42
0.0000001
 43
0.0000001
 44
0.0000000001
 40
0.0
 40
0.0
 40
0.0
 40
0.0
 40
1.0
 40
1.0
 40
1.0
 40
1.0
 10
783.6593794011
 20
1214.1924003577
 30
0.0
 10
783.0764520926
 20
1214.2760275725
 30
0.0
 10
782.4965748629
 20
1214.4228062752
 30
0.0
 10
781.9524721558
 20
1214.6480838867
 30
0.0
  0
SPLINE
  5
355
100
AcDbEntity
  8
0
100
AcDbSpline
 62
7
  6
CONTINUOUS
 70
0
 71
3
 72
9
 73
5
 74
0
 42
0.0000001
 43
0.0000001
 44
0.0000000001
 40
0.0
 40
0.0
 40
0.0
 40
0.0
 40
0.2780553767
 40
1.0
 40
1.0
 40
1.0
 40
1.0
 10
781.345345147
 20
1214.9442594923
 30
0.0
 10
781.2033229553
 20
1215.0256148443
 30
0.0
 10
780.7095699013
 20
1215.3431310681
 30
0.0
 10
780.2772021789
 20
1215.7824511424
 30
0.0
 10
780.080620074
 20
1216.1592120346
 30
0.0
  0
SPLINE
  5
356
100
AcDbEntity
  8
0
100
AcDbSpline
 62
7
  6
CONTINUOUS
 70
0
 71
3
 72
8
 73
4
 74
0
 42
0.0000001
 43
0.0000001
 44
0.0000000001
 40
0.0
 40
0.0
 40
0.0
 40
0.0
 40
1.0
 40
1.0
 40
1.0
 40
1.0
 10
779.9660960213
 20
1216.4228398398
 30
0.0
 10
779.9292012488
 20
1216.5284818754
 30
0.0
 10
779.9016762161
 20
1216.637968922
 30
0.0
 10
779.885236385
 20
1216.7486540424
 30
0.0
  0
SPLINE
  5
357
100
AcDbEntity
  8
0
100
AcDbSpline
 62
7
  6
CONTINUOUS
 70
0
 71
3
 72
8
 73
4
 74
0
 42
0.0000001
 43
0.0000001
 44
0.0000000001
 40
0.0
 40
0.0
 40
0.0
 40
0.0
 40
1.0
 40
1.0
 40
1.0
 40
1.0
 10
186.9131016523
 20
867.7142352861
 30
0.0
 10
186.3255938511
 20
867.448872253
 30
0.0
 10
185.6903273045
 20
867.2798375647
 30
0.0
 10
185.0523959378
 20
867.1869584646
 30
0.0
  0
SPLINE
  5
358
100
AcDbEntity
  8
0
100
AcDbSpline
 62
7
  6
CONTINUOUS
 70
0
 71
3
 72
8
 73
4
 74
0
 42
0.0000001
 43
0.0000001
 44
0.0000000001
 40
0.0
 40
0.0
 40
0.0
 40
0.0
 40
1.0
 40
1.0
 40
1.0
 40
1.0
 10
183.8277859852
 20
867.0991931874
 30
0.0
 10
183.3118849571
 20
867.0993439255
 30
0.0
 10
182.7936321544
 20
867.1453031381
 30
0.0
 10
182.2865057311
 20
867.2400485036
 30
0.0
  0
SPLINE
  5
359
100
AcDbEntity
  8
0
100
AcDbSpline
 62
7
  6
CONTINUOUS
 70
0
 71
3
 72
8
 73
4
 74
0
 42
0.0000001
 43
0.0000001
 44
0.0000000001
 40
0.0
 40
0.0
 40
0.0
 40
0.0
 40
1.0
 40
1.0
 40
1.0
 40
1.0
 10
181.9696042582
 20
867.3061751457
 30
0.0
 10
181.4948625177
 20
867.4159027887
 30
0.0
 10
181.026668235
 20
867.5725201285
 30
0.0
 10
180.589223496
 20
867.7871406683
 30
0.0
  0
SPLINE
  5
35A
100
AcDbEntity
  8
0
100
AcDbSpline
 62
7
  6
CONTINUOUS
 70
0
 71
3
 72
8
 73
4
 74
0
 42
0.0000001
 43
0.0000001
 44
0.0000000001
 40
0.0
 40
0.0
 40
0.0
 40
0.0
 40
1.0
 40
1.0
 40
1.0
 40
1.0
 10
180.3070835152
 20
867.9367287016
 30
0.0
 10
180.0308913226
 20
868.094941392
 30
0.0
 10
179.7677887679
 20
868.2826536653
 30
0.0
 10
179.5386249192
 20
868.5035548041
 30
0.0
  0
SPLINE
  5
35B
100
AcDbEntity
  8
0
100
AcDbSpline
 62
7
  6
CONTINUOUS
 70
0
 71
3
 72
8
 73
4
 74
0
 42
0.0000001
 43
0.0000001
 44
0.0000000001
 40
0.0
 40
0.0
 40
0.0
 40
0.0
 40
1.0
 40
1.0
 40
1.0
 40
1.0
 10
179.4385796788
 20
868.6045381579
 30
0.0
 10
179.2839149751
 20
868.7681998312
 30
0.0
 10
179.1465240115
 20
868.952041949
 30
0.0
 10
179.0423584422
 20
869.1516812438
 30
0.0
  0
SPLINE
  5
35C
100
AcDbEntity
  8
0
100
AcDbSpline
 62
7
  6
CONTINUOUS
 70
0
 71
3
 72
8
 73
4
 74
0
 42
0.0000001
 43
0.0000001
 44
0.0000000001
 40
0.0
 40
0.0
 40
0.0
 40
0.0
 40
1.0
 40
1.0
 40
1.0
 40
1.0
 10
178.9278343896
 20
869.415309049
 30
0.0
 10
178.890939617
 20
869.5209510847
 30
0.0
 10
178.8634145843
 20
869.6304381312
 30
0.0
 10
178.8469747533
 20
869.7411232516
 30
0.0
  0
SPLINE
  5
35D
100
AcDbEntity
  8
0
100
AcDbSpline
 62
7
  6
CONTINUOUS
 70
0
 71
3
 72
9
 73
5
 74
0
 42
0.0000001
 43
0.0000001
 44
0.0000000001
 40
0.0
 40
0.0
 40
0.0
 40
0.0
 40
0.2211612694
 40
1.0
 40
1.0
 40
1.0
 40
1.0
 10
188.3285879927
 20
869.9858586742
 30
0.0
 10
188.3284905581
 20
870.1563635367
 30
0.0
 10
188.1909060281
 20
870.9323979522
 30
0.0
 10
187.5419373939
 20
871.5137280735
 30
0.0
 10
187.0229539393
 20
871.8157112088
 30
0.0
  0
SPLINE
  5
35E
100
AcDbEntity
  8
0
100
AcDbSpline
 62
7
  6
CONTINUOUS
 70
0
 71
3
 72
9
 73
5
 74
0
 42
0.0000001
 43
0.0000001
 44
0.0000000001
 40
0.0
 40
0.0
 40
0.0
 40
0.0
 40
0.2366597249
 40
1.0
 40
1.0
 40
1.0
 40
1.0
 10
186.6414314433
 20
872.0135995873
 30
0.0
 10
186.5017621427
 20
872.0781232775
 30
0.0
 10
185.8990804349
 20
872.3234631101
 30
0.0
 10
185.2570506741
 20
872.4663746372
 30
0.0
 10
184.764494996
 20
872.5268139886
 30
0.0
  0
SPLINE
  5
35F
100
AcDbEntity
  8
0
100
AcDbSpline
 62
7
  6
CONTINUOUS
 70
0
 71
3
 72
9
 73
5
 74
0
 42
0.0000001
 43
0.0000001
 44
0.0000000001
 40
0.0
 40
0.0
 40
0.0
 40
0.0
 40
0.762431343
 40
1.0
 40
1.0
 40
1.0
 40
1.0
 10
183.2759385012
 20
872.5641720272
 30
0.0
 10
182.7305215343
 20
872.5251725496
 30
0.0
 10
182.0151424736
 20
872.398629498
 30
0.0
 10
181.3405740307
 20
872.153056406
 30
0.0
 10
181.1834279531
 20
872.0872139048
 30
0.0
  0
SPLINE
  5
360
100
AcDbEntity
  8
0
100
AcDbSpline
 62
7
  6
CONTINUOUS
 70
0
 71
3
 72
8
 73
4
 74
0
 42
0.0000001
 43
0.0000001
 44
0.0000000001
 40
0.0
 40
0.0
 40
0.0
 40
0.0
 40
1.0
 40
1.0
 40
1.0
 40
1.0
 10
181.0240009313
 20
872.0172657347
 30
0.0
 10
180.8954311828
 20
871.9582237065
 30
0.0
 10
180.7691875367
 20
871.8936809247
 30
0.0
 10
180.6466634542
 20
871.8229420349
 30
0.0
  0
SPLINE
  5
361
100
AcDbEntity
  8
0
100
AcDbSpline
 62
7
  6
CONTINUOUS
 70
0
 71
3
 72
8
 73
4
 74
0
 42
0.0000001
 43
0.0000001
 44
0.0000000001
 40
0.0
 40
0.0
 40
0.0
 40
0.0
 40
1.0
 40
1.0
 40
1.0
 40
1.0
 10
188.8106476049
 20
869.741622448
 30
0.0
 10
188.7942145325
 20
869.630055858
 30
0.0
 10
188.7664917911
 20
869.5196890905
 30
0.0
 10
188.7292124187
 20
869.4132588399
 30
0.0
  0
SPLINE
  5
362
100
AcDbEntity
  8
0
100
AcDbSpline
 62
7
  6
CONTINUOUS
 70
0
 71
3
 72
9
 73
5
 74
0
 42
0.0000001
 43
0.0000001
 44
0.0000000001
 40
0.0
 40
0.0
 40
0.0
 40
0.0
 40
0.2297880104
 40
1.0
 40
1.0
 40
1.0
 40
1.0
 10
188.6146156262
 20
869.1502549593
 30
0.0
 10
188.5643342971
 20
869.0541872179
 30
0.0
 10
188.3127085385
 20
868.6531320249
 30
0.0
 10
187.9502863104
 20
868.330521341
 30
0.0
 10
187.6505967529
 20
868.1249091763
 30
0.0
  0
SPLINE
  5
363
100
AcDbEntity
  8
0
100
AcDbSpline
 62
7
  6
CONTINUOUS
 70
0
 71
3
 72
9
 73
5
 74
0
 42
0.0000001
 43
0.0000001
 44
0.0000000001
 40
0.0
 40
0.0
 40
0.0
 40
0.0
 40
0.5000005437
 40
1.0
 40
1.0
 40
1.0
 40
1.0
 10
516.8776056626
 20
638.5131438858
 30
0.0
 10
515.9331437133
 20
639.0584169108
 30
0.0
 10
513.6956220326
 20
639.4896437332
 30
0.0
 10
511.4581005951
 20
639.0584072384
 30
0.0
 10
510.5136446319
 20
638.5131285887
 30
0.0
  0
SPLINE
  5
364
100
AcDbEntity
  8
0
100
AcDbSpline
 62
7
  6
CONTINUOUS
 70
0
 71
3
 72
9
 73
5
 74
0
 42
0.0000001
 43
0.0000001
 44
0.0000000001
 40
0.0
 40
0.0
 40
0.0
 40
0.0
 40
0.2407186296
 40
1.0
 40
1.0
 40
1.0
 40
1.0
 10
520.0595876499
 20
638.3090303073
 30
0.0
 10
519.8588076784
 20
638.1931106286
 30
0.0
 10
518.9489988488
 20
637.8650680275
 30
0.0
 10
517.8644689104
 20
637.9433910136
 30
0.0
 10
517.2311605251
 20
638.3090235086
 30
0.0
  0
SPLINE
  5
365
100
AcDbEntity
  8
0
100
AcDbSpline
 62
7
  6
CONTINUOUS
 70
0
 71
3
 72
8
 73
4
 74
0
 42
0.0000001
 43
0.0000001
 44
0.0000000001
 40
0.0
 40
0.0
 40
0.0
 40
0.0
 40
1.0
 40
1.0
 40
1.0
 40
1.0
 10
534.5448690239
 20
638.3090651257
 30
0.0
 10
534.5448661244
 20
638.7111485524
 30
0.0
 10
534.4107952678
 20
639.1223156269
 30
0.0
 10
534.2007958977
 20
639.4652024109
 30
0.0
  0
SPLINE
  5
366
100
AcDbEntity
  8
0
100
AcDbSpline
 62
7
  6
CONTINUOUS
 70
0
 71
3
 72
10
 73
6
 74
0
 42
0.0000001
 43
0.0000001
 44
0.0000000001
 40
0.0
 40
0.0
 40
0.0
 40
0.0
 40
0.210829568
 40
0.4727658732
 40
1.0
 40
1.0
 40
1.0
 40
1.0
 10
534.0950783876
 20
639.6250258649
 30
0.0
 10
533.6697988474
 20
640.2228992967
 30
0.0
 10
532.2407204135
 20
641.2042732351
 30
0.0
 10
528.8615154945
 20
642.0398194178
 30
0.0
 10
525.8912024416
 20
641.6758945796
 30
0.0
 10
524.3022106731
 20
640.7584952305
 30
0.0
  0
SPLINE
  5
367
100
AcDbEntity
  8
0
100
AcDbSpline
 62
7
  6
CONTINUOUS
 70
0
 71
3
 72
9
 73
5
 74
0
 42
0.0000001
 43
0.0000001
 44
0.0000000001
 40
0.0
 40
0.0
 40
0.0
 40
0.0
 40
0.2407194189
 40
1.0
 40
1.0
 40
1.0
 40
1.0
 10
548.6973931519
 20
640.9626750964
 30
0.0
 10
548.4464163324
 20
641.1075733527
 30
0.0
 10
547.309153529
 20
641.5176200205
 30
0.0
 10
545.9534905689
 20
641.4197124272
 30
0.0
 10
545.161859246
 20
640.962666598
 30
0.0
  0
SPLINE
  5
368
100
AcDbEntity
  8
0
100
AcDbSpline
 62
7
  6
CONTINUOUS
 70
0
 71
3
 72
9
 73
5
 74
0
 42
0.0000001
 43
0.0000001
 44
0.0000000001
 40
0.0
 40
0.0
 40
0.0
 40
0.0
 40
0.2676423064
 40
1.0
 40
1.0
 40
1.0
 40
1.0
 10
1178.373260096
 20
1018.3843375616
 30
0.0
 10
1178.2559410857
 20
1018.3166038038
 30
0.0
 10
1177.8274062696
 20
1018.0478055171
 30
0.0
 10
1177.4368272457
 20
1017.7119941425
 30
0.0
 10
1177.2005630831
 20
1017.4263597897
 30
0.0
  0
SPLINE
  5
369
100
AcDbEntity
  8
0
100
AcDbSpline
 62
7
  6
CONTINUOUS
 70
0
 71
3
 72
9
 73
5
 74
0
 42
0.0000001
 43
0.0000001
 44
0.0000000001
 40
0.0
 40
0.0
 40
0.0
 40
0.0
 40
0.2211612694
 40
1.0
 40
1.0
 40
1.0
 40
1.0
 10
789.3668496245
 20
1216.9933894649
 30
0.0
 10
789.3667521898
 20
1217.1638943274
 30
0.0
 10
789.2291676599
 20
1217.939928743
 30
0.0
 10
788.5801990256
 20
1218.5212588643
 30
0.0
 10
788.0612155711
 20
1218.8232419996
 30
0.0
  0
SPLINE
  5
36A
100
AcDbEntity
  8
0
100
AcDbSpline
 62
7
  6
CONTINUOUS
 70
0
 71
3
 72
8
 73
4
 74
0
 42
0.0000001
 43
0.0000001
 44
0.0000000001
 40
0.0
 40
0.0
 40
0.0
 40
0.0
 40
1.0
 40
1.0
 40
1.0
 40
1.0
 10
788.0612155711
 20
1218.8232419996
 30
0.0
 10
787.6853371849
 20
1219.0419559731
 30
0.0
 10
787.2745923379
 20
1219.2044827171
 30
0.0
 10
786.856353632
 20
1219.3236328252
 30
0.0
  0
SPLINE
  5
36B
100
AcDbEntity
  8
0
100
AcDbSpline
 62
7
  6
CONTINUOUS
 70
0
 71
3
 72
8
 73
4
 74
0
 42
0.0000001
 43
0.0000001
 44
0.0000000001
 40
0.0
 40
0.0
 40
0.0
 40
0.0
 40
1.0
 40
1.0
 40
1.0
 40
1.0
 10
786.5489328993
 20
1219.403037667
 30
0.0
 10
786.0085509067
 20
1219.5286752225
 30
0.0
 10
785.4500239413
 20
1219.5892101074
 30
0.0
 10
784.8952329908
 20
1219.5913301321
 30
0.0
  0
SPLINE
  5
36C
100
AcDbEntity
  8
0
100
AcDbSpline
 62
7
  6
CONTINUOUS
 70
0
 71
3
 72
9
 73
5
 74
0
 42
0.0000001
 43
0.0000001
 44
0.0000000001
 40
0.0
 40
0.0
 40
0.0
 40
0.0
 40
0.2638795813
 40
1.0
 40
1.0
 40
1.0
 40
1.0
 10
783.9313226683
 20
1219.5346113496
 30
0.0
 10
783.7462977245
 20
1219.5119252176
 30
0.0
 10
783.0490776686
 20
1219.3998421784
 30
0.0
 10
782.3651193286
 20
1219.1815027497
 30
0.0
 10
781.9009347681
 20
1218.9470983938
 30
0.0
  0
SPLINE
  5
36D
100
AcDbEntity
  8
0
100
AcDbSpline
 62
7
  6
CONTINUOUS
 70
0
 71
3
 72
8
 73
4
 74
0
 42
0.0000001
 43
0.0000001
 44
0.0000000001
 40
0.0
 40
0.0
 40
0.0
 40
0.0
 40
1.0
 40
1.0
 40
1.0
 40
1.0
 10
1182.2622899851
 20
1026.3450747667
 30
0.0
 10
1182.0599344436
 20
1026.2282454377
 30
0.0
 10
1181.8661873581
 20
1026.0936892049
 30
0.0
 10
1181.6902637007
 20
1025.9399110399
 30
0.0
  0
SPLINE
  5
36E
100
AcDbEntity
  8
0
100
AcDbSpline
 62
7
  6
CONTINUOUS
 70
0
 71
3
 72
8
 73
4
 74
0
 42
0.0000001
 43
0.0000001
 44
0.0000000001
 40
0.0
 40
0.0
 40
0.0
 40
0.0
 40
1.0
 40
1.0
 40
1.0
 40
1.0
 10
1181.6902637007
 20
1025.9399110399
 30
0.0
 10
1181.575315867
 20
1025.8394329847
 30
0.0
 10
1181.4672613814
 20
1025.7300374328
 30
0.0
 10
1181.3708074379
 20
1025.6116926787
 30
0.0
  0
SPLINE
  5
36F
100
AcDbEntity
  8
0
100
AcDbSpline
 62
7
  6
CONTINUOUS
 70
0
 71
3
 72
8
 73
4
 74
0
 42
0.0000001
 43
0.0000001
 44
0.0000000001
 40
0.0
 40
0.0
 40
0.0
 40
0.0
 40
1.0
 40
1.0
 40
1.0
 40
1.0
 10
789.8489092366
 20
1216.7491532387
 30
0.0
 10
789.8324761643
 20
1216.6375866488
 30
0.0
 10
789.8047534229
 20
1216.5272198812
 30
0.0
 10
789.7674740505
 20
1216.4207896306
 30
0.0
  0
SPLINE
  5
370
100
AcDbEntity
  8
0
100
AcDbSpline
 62
7
  6
CONTINUOUS
 70
0
 71
3
 72
8
 73
4
 74
0
 42
0.0000001
 43
0.0000001
 44
0.0000000001
 40
0.0
 40
0.0
 40
0.0
 40
0.0
 40
1.0
 40
1.0
 40
1.0
 40
1.0
 10
789.652877258
 20
1216.15778575
 30
0.0
 10
789.5776424801
 20
1216.0140418332
 30
0.0
 10
789.4852128889
 20
1215.8785578509
 30
0.0
 10
789.3818738374
 20
1215.7534833696
 30
0.0
  0
SPLINE
  5
371
100
AcDbEntity
  8
0
100
AcDbSpline
 62
7
  6
CONTINUOUS
 70
0
 71
3
 72
8
 73
4
 74
0
 42
0.0000001
 43
0.0000001
 44
0.0000000001
 40
0.0
 40
0.0
 40
0.0
 40
0.0
 40
1.0
 40
1.0
 40
1.0
 40
1.0
 10
789.3818738374
 20
1215.7534833696
 30
0.0
 10
789.2921470253
 20
1215.6448842068
 30
0.0
 10
789.1936785561
 20
1215.5431555578
 30
0.0
 10
789.089526748
 20
1215.44830262
 30
0.0
  0
SPLINE
  5
372
100
AcDbEntity
  8
0
100
AcDbSpline
 62
7
  6
CONTINUOUS
 70
0
 71
3
 72
8
 73
4
 74
0
 42
0.0000001
 43
0.0000001
 44
0.0000000001
 40
0.0
 40
0.0
 40
0.0
 40
0.0
 40
1.0
 40
1.0
 40
1.0
 40
1.0
 10
788.8274669304
 20
1215.231913186
 30
0.0
 10
788.6918478953
 20
1215.1300749029
 30
0.0
 10
788.549344067
 20
1215.0369843915
 30
0.0
 10
788.4024674749
 20
1214.9521856577
 30
0.0
  0
SPLINE
  5
373
100
AcDbEntity
  8
0
100
AcDbSpline
 62
7
  6
CONTINUOUS
 70
0
 71
3
 72
9
 73
5
 74
0
 42
0.0000001
 43
0.0000001
 44
0.0000000001
 40
0.0
 40
0.0
 40
0.0
 40
0.0
 40
0.2211612694
 40
1.0
 40
1.0
 40
1.0
 40
1.0
 10
1160.5994553266
 20
1002.6669933418
 30
0.0
 10
1160.599357892
 20
1002.8374982043
 30
0.0
 10
1160.4617733621
 20
1003.6135326198
 30
0.0
 10
1159.8128047278
 20
1004.1948627411
 30
0.0
 10
1159.2938212733
 20
1004.4968458764
 30
0.0
  0
SPLINE
  5
374
100
AcDbEntity
  8
0
100
AcDbSpline
 62
7
  6
CONTINUOUS
 70
0
 71
3
 72
8
 73
4
 74
0
 42
0.0000001
 43
0.0000001
 44
0.0000000001
 40
0.0
 40
0.0
 40
0.0
 40
0.0
 40
1.0
 40
1.0
 40
1.0
 40
1.0
 10
1159.2938212733
 20
1004.4968458764
 30
0.0
 10
1158.9179428871
 20
1004.71555985
 30
0.0
 10
1158.5071980401
 20
1004.878086594
 30
0.0
 10
1158.0889593341
 20
1004.9972367021
 30
0.0
  0
SPLINE
  5
375
100
AcDbEntity
  8
0
100
AcDbSpline
 62
7
  6
CONTINUOUS
 70
0
 71
3
 72
8
 73
4
 74
0
 42
0.0000001
 43
0.0000001
 44
0.0000000001
 40
0.0
 40
0.0
 40
0.0
 40
0.0
 40
1.0
 40
1.0
 40
1.0
 40
1.0
 10
1157.8899632152
 20
1005.0504659654
 30
0.0
 10
1157.315980114
 20
1005.1942134174
 30
0.0
 10
1156.7195437021
 20
1005.2626729244
 30
0.0
 10
1156.127838693
 20
1005.2649340089
 30
0.0
  0
SPLINE
  5
376
100
AcDbEntity
  8
0
100
AcDbSpline
 62
7
  6
CONTINUOUS
 70
0
 71
3
 72
9
 73
5
 74
0
 42
0.0000001
 43
0.0000001
 44
0.0000000001
 40
0.0
 40
0.0
 40
0.0
 40
0.0
 40
0.2638795813
 40
1.0
 40
1.0
 40
1.0
 40
1.0
 10
1155.1639283705
 20
1005.2082152264
 30
0.0
 10
1154.9789034266
 20
1005.1855290944
 30
0.0
 10
1154.2816833708
 20
1005.0734460553
 30
0.0
 10
1153.5977250308
 20
1004.8551066265
 30
0.0
 10
1153.1335404703
 20
1004.6207022706
 30
0.0
  0
SPLINE
  5
377
100
AcDbEntity
  8
0
100
AcDbSpline
 62
7
  6
CONTINUOUS
 70
0
 71
3
 72
8
 73
4
 74
0
 42
0.0000001
 43
0.0000001
 44
0.0000000001
 40
0.0
 40
0.0
 40
0.0
 40
0.0
 40
1.0
 40
1.0
 40
1.0
 40
1.0
 10
1161.0815149388
 20
1002.4227571156
 30
0.0
 10
1161.0650818665
 20
1002.3111905256
 30
0.0
 10
1161.0373591251
 20
1002.2008237581
 30
0.0
 10
1161.0000797527
 20
1002.0943935075
 30
0.0
  0
SPLINE
  5
378
100
AcDbEntity
  8
0
100
AcDbSpline
 62
7
  6
CONTINUOUS
 70
0
 71
3
 72
8
 73
4
 74
0
 42
0.0000001
 43
0.0000001
 44
0.0000000001
 40
0.0
 40
0.0
 40
0.0
 40
0.0
 40
1.0
 40
1.0
 40
1.0
 40
1.0
 10
1160.8854829602
 20
1001.8313896269
 30
0.0
 10
1160.8102481823
 20
1001.6876457101
 30
0.0
 10
1160.7178185911
 20
1001.5521617277
 30
0.0
 10
1160.6144795396
 20
1001.4270872465
 30
0.0
  0
SPLINE
  5
379
100
AcDbEntity
  8
0
100
AcDbSpline
 62
7
  6
CONTINUOUS
 70
0
 71
3
 72
8
 73
4
 74
0
 42
0.0000001
 43
0.0000001
 44
0.0000000001
 40
0.0
 40
0.0
 40
0.0
 40
0.0
 40
1.0
 40
1.0
 40
1.0
 40
1.0
 10
1160.6144795396
 20
1001.4270872465
 30
0.0
 10
1160.5247527275
 20
1001.3184880837
 30
0.0
 10
1160.4262842583
 20
1001.2167594347
 30
0.0
 10
1160.3221324501
 20
1001.1219064968
 30
0.0
  0
SPLINE
  5
37A
100
AcDbEntity
  8
0
100
AcDbSpline
 62
7
  6
CONTINUOUS
 70
0
 71
3
 72
8
 73
4
 74
0
 42
0.0000001
 43
0.0000001
 44
0.0000000001
 40
0.0
 40
0.0
 40
0.0
 40
0.0
 40
1.0
 40
1.0
 40
1.0
 40
1.0
 10
1160.0600726326
 20
1000.9055170628
 30
0.0
 10
1159.9244535975
 20
1000.8036787797
 30
0.0
 10
1159.7819497692
 20
1000.7105882684
 30
0.0
 10
1159.6350731771
 20
1000.6257895345
 30
0.0
  0
SPLINE
  5
37B
100
AcDbEntity
  8
0
100
AcDbSpline
 62
7
  6
CONTINUOUS
 70
0
 71
3
 72
8
 73
4
 74
0
 42
0.0000001
 43
0.0000001
 44
0.0000000001
 40
0.0
 40
0.0
 40
0.0
 40
0.0
 40
1.0
 40
1.0
 40
1.0
 40
1.0
 10
172.1614203516
 20
864.4745136914
 30
0.0
 10
172.0434717943
 20
864.4064164666
 30
0.0
 10
171.9290461925
 20
864.3316357027
 30
0.0
 10
171.820177913
 20
864.2498017739
 30
0.0
  0
SPLINE
  5
37C
100
AcDbEntity
  8
0
100
AcDbSpline
 62
7
  6
CONTINUOUS
 70
0
 71
3
 72
8
 73
4
 74
0
 42
0.0000001
 43
0.0000001
 44
0.0000000001
 40
0.0
 40
0.0
 40
0.0
 40
0.0
 40
1.0
 40
1.0
 40
1.0
 40
1.0
 10
171.820177913
 20
864.2498017739
 30
0.0
 10
171.6971834427
 20
864.1573494934
 30
0.0
 10
171.5805036138
 20
864.0553304166
 30
0.0
 10
171.4749738663
 20
863.9433548108
 30
0.0
  0
SPLINE
  5
37D
100
AcDbEntity
  8
0
100
AcDbSpline
 62
7
  6
CONTINUOUS
 70
0
 71
3
 72
8
 73
4
 74
0
 42
0.0000001
 43
0.0000001
 44
0.0000000001
 40
0.0
 40
0.0
 40
0.0
 40
0.0
 40
1.0
 40
1.0
 40
1.0
 40
1.0
 10
543.3940260538
 20
650.1481175682
 30
0.0
 10
543.2760774965
 20
650.0800203434
 30
0.0
 10
543.1616518947
 20
650.0052395796
 30
0.0
 10
543.0527836151
 20
649.9234056508
 30
0.0
  0
SPLINE
  5
37E
100
AcDbEntity
  8
0
100
AcDbSpline
 62
7
  6
CONTINUOUS
 70
0
 71
3
 72
8
 73
4
 74
0
 42
0.0000001
 43
0.0000001
 44
0.0000000001
 40
0.0
 40
0.0
 40
0.0
 40
0.0
 40
1.0
 40
1.0
 40
1.0
 40
1.0
 10
543.0527836151
 20
649.9234056508
 30
0.0
 10
542.9297891448
 20
649.8309533703
 30
0.0
 10
542.813109316
 20
649.7289342934
 30
0.0
 10
542.7075795685
 20
649.6169586877
 30
0.0
  0
SPLINE
  5
37F
100
AcDbEntity
  8
0
100
AcDbSpline
 62
7
  6
CONTINUOUS
 70
0
 71
3
 72
8
 73
4
 74
0
 42
0.0000001
 43
0.0000001
 44
0.0000000001
 40
0.0
 40
0.0
 40
0.0
 40
0.0
 40
1.0
 40
1.0
 40
1.0
 40
1.0
 10
1162.1098836159
 20
1007.3617522058
 30
0.0
 10
1161.9919350586
 20
1007.293654981
 30
0.0
 10
1161.8775094568
 20
1007.2188742171
 30
0.0
 10
1161.7686411772
 20
1007.1370402883
 30
0.0
  0
SPLINE
  5
380
100
AcDbEntity
  8
0
100
AcDbSpline
 62
7
  6
CONTINUOUS
 70
0
 71
3
 72
8
 73
4
 74
0
 42
0.0000001
 43
0.0000001
 44
0.0000000001
 40
0.0
 40
0.0
 40
0.0
 40
0.0
 40
1.0
 40
1.0
 40
1.0
 40
1.0
 10
1161.7686411772
 20
1007.1370402883
 30
0.0
 10
1161.6456467069
 20
1007.0445880078
 30
0.0
 10
1161.5289668781
 20
1006.942568931
 30
0.0
 10
1161.4234371306
 20
1006.8305933252
 30
0.0
  0
SPLINE
  5
381
100
AcDbEntity
  8
0
100
AcDbSpline
 62
7
  6
CONTINUOUS
 70
0
 71
3
 72
8
 73
4
 74
0
 42
0.0000001
 43
0.0000001
 44
0.0000000001
 40
0.0
 40
0.0
 40
0.0
 40
0.0
 40
1.0
 40
1.0
 40
1.0
 40
1.0
 10
790.8772779137
 20
1221.688148329
 30
0.0
 10
790.7593293564
 20
1221.6200511041
 30
0.0
 10
790.6449037547
 20
1221.5452703403
 30
0.0
 10
790.5360354751
 20
1221.4634364115
 30
0.0
  0
SPLINE
  5
382
100
AcDbEntity
  8
0
100
AcDbSpline
 62
7
  6
CONTINUOUS
 70
0
 71
3
 72
8
 73
4
 74
0
 42
0.0000001
 43
0.0000001
 44
0.0000000001
 40
0.0
 40
0.0
 40
0.0
 40
0.0
 40
1.0
 40
1.0
 40
1.0
 40
1.0
 10
790.5360354751
 20
1221.4634364115
 30
0.0
 10
790.4130410048
 20
1221.370984131
 30
0.0
 10
790.2963611759
 20
1221.2689650541
 30
0.0
 10
790.1908314284
 20
1221.1569894484
 30
0.0
  0
SPLINE
  5
383
100
AcDbEntity
  8
0
100
AcDbSpline
 62
7
  6
CONTINUOUS
 70
0
 71
3
 72
9
 73
5
 74
0
 42
0.0000001
 43
0.0000001
 44
0.0000000001
 40
0.0
 40
0.0
 40
0.0
 40
0.0
 40
0.2211612694
 40
1.0
 40
1.0
 40
1.0
 40
1.0
 10
559.5611936949
 20
655.659462551
 30
0.0
 10
559.5610962602
 20
655.8299674135
 30
0.0
 10
559.4235117303
 20
656.606001829
 30
0.0
 10
558.774543096
 20
657.1873319504
 30
0.0
 10
558.2555596415
 20
657.4893150857
 30
0.0
  0
SPLINE
  5
384
100
AcDbEntity
  8
0
100
AcDbSpline
 62
7
  6
CONTINUOUS
 70
0
 71
3
 72
9
 73
5
 74
0
 42
0.0000001
 43
0.0000001
 44
0.0000000001
 40
0.0
 40
0.0
 40
0.0
 40
0.0
 40
0.2366597249
 40
1.0
 40
1.0
 40
1.0
 40
1.0
 10
557.8740371455
 20
657.6872034641
 30
0.0
 10
557.7343678449
 20
657.7517271544
 30
0.0
 10
557.1316861371
 20
657.997066987
 30
0.0
 10
556.4896563763
 20
658.139978514
 30
0.0
 10
555.9971006982
 20
658.2004178655
 30
0.0
  0
SPLINE
  5
385
100
AcDbEntity
  8
0
100
AcDbSpline
 62
7
  6
CONTINUOUS
 70
0
 71
3
 72
9
 73
5
 74
0
 42
0.0000001
 43
0.0000001
 44
0.0000000001
 40
0.0
 40
0.0
 40
0.0
 40
0.0
 40
0.762431343
 40
1.0
 40
1.0
 40
1.0
 40
1.0
 10
554.5085442034
 20
658.2377759041
 30
0.0
 10
553.9631272365
 20
658.1987764265
 30
0.0
 10
553.2477481758
 20
658.0722333748
 30
0.0
 10
552.5731797329
 20
657.8266602829
 30
0.0
 10
552.4160336553
 20
657.7608177816
 30
0.0
  0
SPLINE
  5
386
100
AcDbEntity
  8
0
100
AcDbSpline
 62
7
  6
CONTINUOUS
 70
0
 71
3
 72
8
 73
4
 74
0
 42
0.0000001
 43
0.0000001
 44
0.0000000001
 40
0.0
 40
0.0
 40
0.0
 40
0.0
 40
1.0
 40
1.0
 40
1.0
 40
1.0
 10
552.2566066334
 20
657.6908696115
 30
0.0
 10
552.1280368849
 20
657.6318275834
 30
0.0
 10
552.0017932389
 20
657.5672848015
 30
0.0
 10
551.8792691564
 20
657.4965459117
 30
0.0
  0
SPLINE
  5
387
100
AcDbEntity
  8
0
100
AcDbSpline
 62
7
  6
CONTINUOUS
 70
0
 71
3
 72
8
 73
4
 74
0
 42
0.0000001
 43
0.0000001
 44
0.0000000001
 40
0.0
 40
0.0
 40
0.0
 40
0.0
 40
1.0
 40
1.0
 40
1.0
 40
1.0
 10
560.043253307
 20
655.4152263248
 30
0.0
 10
560.0268202347
 20
655.3036597349
 30
0.0
 10
559.9990974933
 20
655.1932929673
 30
0.0
 10
559.9618181209
 20
655.0868627167
 30
0.0
  0
SPLINE
  5
388
100
AcDbEntity
  8
0
100
AcDbSpline
 62
7
  6
CONTINUOUS
 70
0
 71
3
 72
9
 73
5
 74
0
 42
0.0000001
 43
0.0000001
 44
0.0000000001
 40
0.0
 40
0.0
 40
0.0
 40
0.0
 40
0.2297880104
 40
1.0
 40
1.0
 40
1.0
 40
1.0
 10
559.8472213284
 20
654.8238588361
 30
0.0
 10
559.7969399993
 20
654.7277910947
 30
0.0
 10
559.5453142406
 20
654.3267359018
 30
0.0
 10
559.1828920126
 20
654.0041252179
 30
0.0
 10
558.883202455
 20
653.7985130531
 30
0.0
  0
SPLINE
  5
389
100
AcDbEntity
  8
0
100
AcDbSpline
 62
7
  6
CONTINUOUS
 70
0
 71
3
 72
8
 73
4
 74
0
 42
0.0000001
 43
0.0000001
 44
0.0000000001
 40
0.0
 40
0.0
 40
0.0
 40
0.0
 40
1.0
 40
1.0
 40
1.0
 40
1.0
 10
797.2219062185
 20
1221.1558462956
 30
0.0
 10
797.0262076564
 20
1221.3639970706
 30
0.0
 10
796.7920302501
 20
1221.5380337189
 30
0.0
 10
796.5450916783
 20
1221.681720928
 30
0.0
  0
SPLINE
  5
38A
100
AcDbEntity
  8
0
100
AcDbSpline
 62
7
  6
CONTINUOUS
 70
0
 71
3
 72
9
 73
5
 74
0
 42
0.0000001
 43
0.0000001
 44
0.0000000001
 40
0.0
 40
0.0
 40
0.0
 40
0.0
 40
0.4997042732
 40
1.0
 40
1.0
 40
1.0
 40
1.0
 10
796.5450916783
 20
1221.681720928
 30
0.0
 10
795.705965799
 20
1222.1699867132
 30
0.0
 10
793.7125905252
 20
1222.5569582407
 30
0.0
 10
791.7190488338
 20
1222.1741420953
 30
0.0
 10
790.8772779137
 20
1221.688148329
 30
0.0
  0
SPLINE
  5
38B
100
AcDbEntity
  8
0
100
AcDbSpline
 62
7
  6
CONTINUOUS
 70
0
 71
3
 72
9
 73
5
 74
0
 42
0.0000001
 43
0.0000001
 44
0.0000000001
 40
0.0
 40
0.0
 40
0.0
 40
0.0
 40
0.227497524
 40
1.0
 40
1.0
 40
1.0
 40
1.0
 10
797.7056519393
 20
1222.0964415395
 30
0.0
 10
797.7057093071
 20
1221.9696715648
 30
0.0
 10
797.6247977417
 20
1221.4097168521
 30
0.0
 10
797.2194956389
 20
1220.9468540812
 30
0.0
 10
796.8754040825
 20
1220.6881985963
 30
0.0
  0
SPLINE
  5
38C
100
AcDbEntity
  8
0
100
AcDbSpline
 62
7
  6
CONTINUOUS
 70
0
 71
3
 72
8
 73
4
 74
0
 42
0.0000001
 43
0.0000001
 44
0.0000000001
 40
0.0
 40
0.0
 40
0.0
 40
0.0
 40
1.0
 40
1.0
 40
1.0
 40
1.0
 10
796.8754040825
 20
1220.6881985963
 30
0.0
 10
796.7665346759
 20
1220.6063608742
 30
0.0
 10
796.6521070263
 20
1220.5315771505
 30
0.0
 10
796.5341557149
 20
1220.4634783356
 30
0.0
  0
SPLINE
  5
38D
100
AcDbEntity
  8
0
100
AcDbSpline
 62
7
  6
CONTINUOUS
 70
0
 71
3
 72
8
 73
4
 74
0
 42
0.0000001
 43
0.0000001
 44
0.0000000001
 40
0.0
 40
0.0
 40
0.0
 40
0.0
 40
1.0
 40
1.0
 40
1.0
 40
1.0
 10
1168.4545119206
 20
1006.8294501724
 30
0.0
 10
1168.2588133586
 20
1007.0376009474
 30
0.0
 10
1168.0246359523
 20
1007.2116375958
 30
0.0
 10
1167.7776973805
 20
1007.3553248049
 30
0.0
  0
SPLINE
  5
38E
100
AcDbEntity
  8
0
100
AcDbSpline
 62
7
  6
CONTINUOUS
 70
0
 71
3
 72
9
 73
5
 74
0
 42
0.0000001
 43
0.0000001
 44
0.0000000001
 40
0.0
 40
0.0
 40
0.0
 40
0.0
 40
0.4997042732
 40
1.0
 40
1.0
 40
1.0
 40
1.0
 10
1167.7776973805
 20
1007.3553248049
 30
0.0
 10
1166.9385715012
 20
1007.84359059
 30
0.0
 10
1164.9451962274
 20
1008.2305621175
 30
0.0
 10
1162.951654536
 20
1007.8477459721
 30
0.0
 10
1162.1098836159
 20
1007.3617522058
 30
0.0
  0
SPLINE
  5
38F
100
AcDbEntity
  8
0
100
AcDbSpline
 62
7
  6
CONTINUOUS
 70
0
 71
3
 72
9
 73
5
 74
0
 42
0.0000001
 43
0.0000001
 44
0.0000000001
 40
0.0
 40
0.0
 40
0.0
 40
0.0
 40
0.227497524
 40
1.0
 40
1.0
 40
1.0
 40
1.0
 10
1168.9382576414
 20
1007.7700454163
 30
0.0
 10
1168.9383150093
 20
1007.6432754416
 30
0.0
 10
1168.8574034438
 20
1007.083320729
 30
0.0
 10
1168.4521013411
 20
1006.620457958
 30
0.0
 10
1168.1080097847
 20
1006.3618024731
 30
0.0
  0
SPLINE
  5
390
100
AcDbEntity
  8
0
100
AcDbSpline
 62
7
  6
CONTINUOUS
 70
0
 71
3
 72
8
 73
4
 74
0
 42
0.0000001
 43
0.0000001
 44
0.0000000001
 40
0.0
 40
0.0
 40
0.0
 40
0.0
 40
1.0
 40
1.0
 40
1.0
 40
1.0
 10
1168.1080097847
 20
1006.3618024731
 30
0.0
 10
1167.9991403781
 20
1006.2799647511
 30
0.0
 10
1167.8847127284
 20
1006.2051810273
 30
0.0
 10
1167.7667614171
 20
1006.1370822125
 30
0.0
  0
SPLINE
  5
391
100
AcDbEntity
  8
0
100
AcDbSpline
 62
7
  6
CONTINUOUS
 70
0
 71
3
 72
8
 73
4
 74
0
 42
0.0000001
 43
0.0000001
 44
0.0000000001
 40
0.0
 40
0.0
 40
0.0
 40
0.0
 40
1.0
 40
1.0
 40
1.0
 40
1.0
 10
549.7386543585
 20
649.6158155349
 30
0.0
 10
549.5429557965
 20
649.8239663098
 30
0.0
 10
549.3087783902
 20
649.9980029582
 30
0.0
 10
549.0618398183
 20
650.1416901673
 30
0.0
  0
SPLINE
  5
392
100
AcDbEntity
  8
0
100
AcDbSpline
 62
7
  6
CONTINUOUS
 70
0
 71
3
 72
9
 73
5
 74
0
 42
0.0000001
 43
0.0000001
 44
0.0000000001
 40
0.0
 40
0.0
 40
0.0
 40
0.0
 40
0.4997042732
 40
1.0
 40
1.0
 40
1.0
 40
1.0
 10
549.0618398183
 20
650.1416901673
 30
0.0
 10
548.2227139391
 20
650.6299559525
 30
0.0
 10
546.2293386653
 20
651.01692748
 30
0.0
 10
544.2357969738
 20
650.6341113345
 30
0.0
 10
543.3940260538
 20
650.1481175682
 30
0.0
  0
SPLINE
  5
393
100
AcDbEntity
  8
0
100
AcDbSpline
 62
7
  6
CONTINUOUS
 70
0
 71
3
 72
9
 73
5
 74
0
 42
0.0000001
 43
0.0000001
 44
0.0000000001
 40
0.0
 40
0.0
 40
0.0
 40
0.0
 40
0.227497524
 40
1.0
 40
1.0
 40
1.0
 40
1.0
 10
550.2224000793
 20
650.5564107788
 30
0.0
 10
550.2224574472
 20
650.4296408041
 30
0.0
 10
550.1415458817
 20
649.8696860914
 30
0.0
 10
549.736243779
 20
649.4068233205
 30
0.0
 10
549.3921522225
 20
649.1481678356
 30
0.0
  0
SPLINE
  5
394
100
AcDbEntity
  8
0
100
AcDbSpline
 62
7
  6
CONTINUOUS
 70
0
 71
3
 72
8
 73
4
 74
0
 42
0.0000001
 43
0.0000001
 44
0.0000000001
 40
0.0
 40
0.0
 40
0.0
 40
0.0
 40
1.0
 40
1.0
 40
1.0
 40
1.0
 10
549.3921522225
 20
649.1481678356
 30
0.0
 10
549.283282816
 20
649.0663301135
 30
0.0
 10
549.1688551663
 20
648.9915463898
 30
0.0
 10
549.050903855
 20
648.9234475749
 30
0.0
  0
SPLINE
  5
395
100
AcDbEntity
  8
0
100
AcDbSpline
 62
7
  6
CONTINUOUS
 70
0
 71
3
 72
8
 73
4
 74
0
 42
0.0000001
 43
0.0000001
 44
0.0000000001
 40
0.0
 40
0.0
 40
0.0
 40
0.0
 40
1.0
 40
1.0
 40
1.0
 40
1.0
 10
178.5060486564
 20
863.942211658
 30
0.0
 10
178.3103500943
 20
864.150362433
 30
0.0
 10
178.076172688
 20
864.3243990814
 30
0.0
 10
177.8292341162
 20
864.4680862905
 30
0.0
  0
SPLINE
  5
396
100
AcDbEntity
  8
0
100
AcDbSpline
 62
7
  6
CONTINUOUS
 70
0
 71
3
 72
9
 73
5
 74
0
 42
0.0000001
 43
0.0000001
 44
0.0000000001
 40
0.0
 40
0.0
 40
0.0
 40
0.0
 40
0.4997042732
 40
1.0
 40
1.0
 40
1.0
 40
1.0
 10
177.8292341162
 20
864.4680862905
 30
0.0
 10
176.9901082369
 20
864.9563520756
 30
0.0
 10
174.9967329631
 20
865.3433236031
 30
0.0
 10
173.0031912717
 20
864.9605074577
 30
0.0
 10
172.1614203516
 20
864.4745136914
 30
0.0
  0
SPLINE
  5
397
100
AcDbEntity
  8
0
100
AcDbSpline
 62
7
  6
CONTINUOUS
 70
0
 71
3
 72
9
 73
5
 74
0
 42
0.0000001
 43
0.0000001
 44
0.0000000001
 40
0.0
 40
0.0
 40
0.0
 40
0.0
 40
0.227497524
 40
1.0
 40
1.0
 40
1.0
 40
1.0
 10
178.9897943772
 20
864.8828069019
 30
0.0
 10
178.989851745
 20
864.7560369272
 30
0.0
 10
178.9089401796
 20
864.1960822146
 30
0.0
 10
178.5036380768
 20
863.7332194437
 30
0.0
 10
178.1595465204
 20
863.4745639587
 30
0.0
  0
SPLINE
  5
398
100
AcDbEntity
  8
0
100
AcDbSpline
 62
7
  6
CONTINUOUS
 70
0
 71
3
 72
8
 73
4
 74
0
 42
0.0000001
 43
0.0000001
 44
0.0000000001
 40
0.0
 40
0.0
 40
0.0
 40
0.0
 40
1.0
 40
1.0
 40
1.0
 40
1.0
 10
178.1595465204
 20
863.4745639587
 30
0.0
 10
178.0506771138
 20
863.3927262367
 30
0.0
 10
177.9362494641
 20
863.3179425129
 30
0.0
 10
177.8182981528
 20
863.2498436981
 30
0.0
  0
SPLINE
  5
399
100
AcDbEntity
  8
0
100
AcDbSpline
 62
7
  6
CONTINUOUS
 70
0
 71
3
 72
8
 73
4
 74
0
 42
0.0000001
 43
0.0000001
 44
0.0000000001
 40
0.0
 40
0.0
 40
0.0
 40
0.0
 40
1.0
 40
1.0
 40
1.0
 40
1.0
 10
551.6322226617
 20
657.3416360921
 30
0.0
 10
551.4869647932
 20
657.242722845
 30
0.0
 10
551.3480984221
 20
657.1331966754
 30
0.0
 10
551.2204014708
 20
657.0124607342
 30
0.0
  0
SPLINE
  5
39A
100
AcDbEntity
  8
0
100
AcDbSpline
 62
7
  6
CONTINUOUS
 70
0
 71
3
 72
8
 73
4
 74
0
 42
0.0000001
 43
0.0000001
 44
0.0000000001
 40
0.0
 40
0.0
 40
0.0
 40
0.0
 40
1.0
 40
1.0
 40
1.0
 40
1.0
 10
551.2204014708
 20
657.0124607342
 30
0.0
 10
551.0286995075
 20
656.8312088192
 30
0.0
 10
550.8580809601
 20
656.6194818671
 30
0.0
 10
550.7396481461
 20
656.3837371578
 30
0.0
  0
SPLINE
  5
39B
100
AcDbEntity
  8
0
100
AcDbSpline
 62
7
  6
CONTINUOUS
 70
0
 71
3
 72
8
 73
4
 74
0
 42
0.0000001
 43
0.0000001
 44
0.0000000001
 40
0.0
 40
0.0
 40
0.0
 40
0.0
 40
1.0
 40
1.0
 40
1.0
 40
1.0
 10
550.7396481461
 20
656.3837371578
 30
0.0
 10
550.6861072094
 20
656.2771620278
 30
0.0
 10
550.6426348709
 20
656.1647078646
 30
0.0
 10
550.6123042463
 20
656.0493608082
 30
0.0
  0
SPLINE
  5
39C
100
AcDbEntity
  8
0
100
AcDbSpline
 62
7
  6
CONTINUOUS
 70
0
 71
3
 72
8
 73
4
 74
0
 42
0.0000001
 43
0.0000001
 44
0.0000000001
 40
0.0
 40
0.0
 40
0.0
 40
0.0
 40
1.0
 40
1.0
 40
1.0
 40
1.0
 10
550.6123042463
 20
656.0493608082
 30
0.0
 10
550.5789718244
 20
655.9225979469
 30
0.0
 10
550.5612572434
 20
655.7905344762
 30
0.0
 10
550.5613321442
 20
655.6594624817
 30
0.0
  0
SPLINE
  5
39D
100
AcDbEntity
  8
0
100
AcDbSpline
 62
7
  6
CONTINUOUS
 70
0
 71
3
 72
8
 73
4
 74
0
 42
0.0000001
 43
0.0000001
 44
0.0000000001
 40
0.0
 40
0.0
 40
0.0
 40
0.0
 40
1.0
 40
1.0
 40
1.0
 40
1.0
 10
158.5573830439
 20
845.1660391583
 30
0.0
 10
158.4609291126
 20
845.2843853016
 30
0.0
 10
158.3528743005
 20
845.3937820907
 30
0.0
 10
158.2379259916
 20
845.4942612268
 30
0.0
  0
SPLINE
  5
39E
100
AcDbEntity
  8
0
100
AcDbSpline
 62
7
  6
CONTINUOUS
 70
0
 71
3
 72
8
 73
4
 74
0
 42
0.0000001
 43
0.0000001
 44
0.0000000001
 40
0.0
 40
0.0
 40
0.0
 40
0.0
 40
1.0
 40
1.0
 40
1.0
 40
1.0
 10
158.2379259916
 20
845.4942612268
 30
0.0
 10
158.0619925656
 20
845.6480489497
 30
0.0
 10
157.868233489
 20
845.7826124899
 30
0.0
 10
157.6658652879
 20
845.8994471821
 30
0.0
  0
SPLINE
  5
39F
100
AcDbEntity
  8
0
100
AcDbSpline
 62
7
  6
CONTINUOUS
 70
0
 71
3
 72
8
 73
4
 74
0
 42
0.0000001
 43
0.0000001
 44
0.0000000001
 40
0.0
 40
0.0
 40
0.0
 40
0.0
 40
1.0
 40
1.0
 40
1.0
 40
1.0
 10
158.9838004022
 20
846.1036045326
 30
0.0
 10
158.9838003857
 20
845.8199543172
 30
0.0
 10
158.8956391792
 20
845.5300851078
 30
0.0
 10
158.7542009797
 20
845.2842138398
 30
0.0
  0
SPLINE
  5
3A0
100
AcDbEntity
  8
0
100
AcDbSpline
 62
7
  6
CONTINUOUS
 70
0
 71
3
 72
8
 73
4
 74
0
 42
0.0000001
 43
0.0000001
 44
0.0000000001
 40
0.0
 40
0.0
 40
0.0
 40
0.0
 40
1.0
 40
1.0
 40
1.0
 40
1.0
 10
158.7542009797
 20
845.2842138398
 30
0.0
 10
158.6210507773
 20
845.0527501388
 30
0.0
 10
158.4389655567
 20
844.8474242407
 30
0.0
 10
158.237918068
 20
844.671684864
 30
0.0
  0
SPLINE
  5
3A1
100
AcDbEntity
  8
0
100
AcDbSpline
 62
7
  6
CONTINUOUS
 70
0
 71
3
 72
8
 73
4
 74
0
 42
0.0000001
 43
0.0000001
 44
0.0000000001
 40
0.0
 40
0.0
 40
0.0
 40
0.0
 40
1.0
 40
1.0
 40
1.0
 40
1.0
 10
158.237918068
 20
844.671684864
 30
0.0
 10
158.0619944106
 20
844.5179066989
 30
0.0
 10
157.8682473251
 20
844.3833504662
 30
0.0
 10
157.6658917836
 20
844.2665211372
 30
0.0
  0
SPLINE
  5
3A2
100
AcDbEntity
  8
0
100
AcDbSpline
 62
7
  6
CONTINUOUS
 70
0
 71
3
 72
8
 73
4
 74
0
 42
0.0000001
 43
0.0000001
 44
0.0000000001
 40
0.0
 40
0.0
 40
0.0
 40
0.0
 40
1.0
 40
1.0
 40
1.0
 40
1.0
 10
163.0024629376
 20
853.7338429846
 30
0.0
 10
162.8426453776
 20
854.0096002344
 30
0.0
 10
162.6316025524
 20
854.2580814731
 30
0.0
 10
162.397237623
 20
854.4740833092
 30
0.0
  0
SPLINE
  5
3A3
100
AcDbEntity
  8
0
100
AcDbSpline
 62
7
  6
CONTINUOUS
 70
0
 71
3
 72
9
 73
5
 74
0
 42
0.0000001
 43
0.0000001
 44
0.0000000001
 40
0.0
 40
0.0
 40
0.0
 40
0.0
 40
0.2168714486
 40
1.0
 40
1.0
 40
1.0
 40
1.0
 10
162.397237623
 20
854.4740833092
 30
0.0
 10
162.1098078501
 20
854.7389922223
 30
0.0
 10
160.6035140966
 20
855.7602909334
 30
0.0
 10
158.7237414776
 20
856.0995023121
 30
0.0
 10
157.3122383416
 20
856.0994989193
 30
0.0
  0
SPLINE
  5
3A4
100
AcDbEntity
  8
0
100
AcDbSpline
 62
7
  6
CONTINUOUS
 70
0
 71
3
 72
9
 73
5
 74
0
 42
0.0000001
 43
0.0000001
 44
0.0000000001
 40
0.0
 40
0.0
 40
0.0
 40
0.0
 40
0.7298281029
 40
1.0
 40
1.0
 40
1.0
 40
1.0
 10
163.3119523159
 20
854.6767016812
 30
0.0
 10
163.3121614673
 20
854.282684285
 30
0.0
 10
163.1367645286
 20
853.7346649204
 30
0.0
 10
162.8205853617
 20
853.2976292765
 30
0.0
 10
162.7276186856
 20
853.1852361142
 30
0.0
  0
SPLINE
  5
3A5
100
AcDbEntity
  8
0
100
AcDbSpline
 62
7
  6
CONTINUOUS
 70
0
 71
3
 72
9
 73
5
 74
0
 42
0.0000001
 43
0.0000001
 44
0.0000000001
 40
0.0
 40
0.0
 40
0.0
 40
0.0
 40
0.2331082226
 40
1.0
 40
1.0
 40
1.0
 40
1.0
 10
162.7276186856
 20
853.1852361142
 30
0.0
 10
162.6523951276
 20
853.0942937043
 30
0.0
 10
162.3079289316
 20
852.7222024224
 30
0.0
 10
161.8911771625
 20
852.4213943809
 30
0.0
 10
161.5549216727
 20
852.2272583422
 30
0.0
  0
SPLINE
  5
3A6
100
AcDbEntity
  8
0
100
AcDbSpline
 62
7
  6
CONTINUOUS
 70
0
 71
3
 72
8
 73
4
 74
0
 42
0.0000001
 43
0.0000001
 44
0.0000000001
 40
0.0
 40
0.0
 40
0.0
 40
0.0
 40
1.0
 40
1.0
 40
1.0
 40
1.0
 10
1152.9175307882
 20
1004.5040767025
 30
0.0
 10
1152.6815140018
 20
1004.3678131608
 30
0.0
 10
1152.4566915706
 20
1004.2072250746
 30
0.0
 10
1152.2586631026
 20
1004.019991525
 30
0.0
  0
SPLINE
  5
3A7
100
AcDbEntity
  8
0
100
AcDbSpline
 62
7
  6
CONTINUOUS
 70
0
 71
3
 72
8
 73
4
 74
0
 42
0.0000001
 43
0.0000001
 44
0.0000000001
 40
0.0
 40
0.0
 40
0.0
 40
0.0
 40
1.0
 40
1.0
 40
1.0
 40
1.0
 10
1152.2586631026
 20
1004.019991525
 30
0.0
 10
1152.1786734834
 20
1003.9443622961
 30
0.0
 10
1152.1027793535
 20
1003.8640297266
 30
0.0
 10
1152.0328425459
 20
1003.7790181839
 30
0.0
  0
SPLINE
  5
3A8
100
AcDbEntity
  8
0
100
AcDbSpline
 62
7
  6
CONTINUOUS
 70
0
 71
3
 72
8
 73
4
 74
0
 42
0.0000001
 43
0.0000001
 44
0.0000000001
 40
0.0
 40
0.0
 40
0.0
 40
0.0
 40
1.0
 40
1.0
 40
1.0
 40
1.0
 10
1152.0328425459
 20
1003.7790181839
 30
0.0
 10
1151.7801058715
 20
1003.4718046388
 30
0.0
 10
1151.599366446
 20
1003.0648072205
 30
0.0
 10
1151.599593776
 20
1002.6669932725
 30
0.0
  0
SPLINE
  5
3A9
100
AcDbEntity
  8
0
100
AcDbSpline
 62
7
  6
CONTINUOUS
 70
0
 71
3
 72
8
 73
4
 74
0
 42
0.0000001
 43
0.0000001
 44
0.0000000001
 40
0.0
 40
0.0
 40
0.0
 40
0.0
 40
1.0
 40
1.0
 40
1.0
 40
1.0
 10
781.684925086
 20
1218.8304728256
 30
0.0
 10
781.4489082997
 20
1218.6942092839
 30
0.0
 10
781.2240858685
 20
1218.5336211978
 30
0.0
 10
781.0260574004
 20
1218.3463876482
 30
0.0
  0
SPLINE
  5
3AA
100
AcDbEntity
  8
0
100
AcDbSpline
 62
7
  6
CONTINUOUS
 70
0
 71
3
 72
8
 73
4
 74
0
 42
0.0000001
 43
0.0000001
 44
0.0000000001
 40
0.0
 40
0.0
 40
0.0
 40
0.0
 40
1.0
 40
1.0
 40
1.0
 40
1.0
 10
781.0260574004
 20
1218.3463876482
 30
0.0
 10
780.9460677813
 20
1218.2707584193
 30
0.0
 10
780.8701736513
 20
1218.1904258498
 30
0.0
 10
780.8002368438
 20
1218.1054143071
 30
0.0
  0
SPLINE
  5
3AB
100
AcDbEntity
  8
0
100
AcDbSpline
 62
7
  6
CONTINUOUS
 70
0
 71
3
 72
8
 73
4
 74
0
 42
0.0000001
 43
0.0000001
 44
0.0000000001
 40
0.0
 40
0.0
 40
0.0
 40
0.0
 40
1.0
 40
1.0
 40
1.0
 40
1.0
 10
780.8002368438
 20
1218.1054143071
 30
0.0
 10
780.5475001693
 20
1217.798200762
 30
0.0
 10
780.3667607439
 20
1217.3912033437
 30
0.0
 10
780.3669880738
 20
1216.9933893957
 30
0.0
  0
SPLINE
  5
3AC
100
AcDbEntity
  8
0
100
AcDbSpline
 62
7
  6
CONTINUOUS
 70
0
 71
3
 72
8
 73
4
 74
0
 42
0.0000001
 43
0.0000001
 44
0.0000000001
 40
0.0
 40
0.0
 40
0.0
 40
0.0
 40
1.0
 40
1.0
 40
1.0
 40
1.0
 10
180.3996169596
 20
871.6680322153
 30
0.0
 10
180.254359091
 20
871.5691189681
 30
0.0
 10
180.1154927199
 20
871.4595927985
 30
0.0
 10
179.9877957687
 20
871.3388568574
 30
0.0
  0
SPLINE
  5
3AD
100
AcDbEntity
  8
0
100
AcDbSpline
 62
7
  6
CONTINUOUS
 70
0
 71
3
 72
8
 73
4
 74
0
 42
0.0000001
 43
0.0000001
 44
0.0000000001
 40
0.0
 40
0.0
 40
0.0
 40
0.0
 40
1.0
 40
1.0
 40
1.0
 40
1.0
 10
179.9877957687
 20
871.3388568574
 30
0.0
 10
179.7960938054
 20
871.1576049424
 30
0.0
 10
179.625475258
 20
870.9458779903
 30
0.0
 10
179.5070424439
 20
870.710133281
 30
0.0
  0
SPLINE
  5
3AE
100
AcDbEntity
  8
0
100
AcDbSpline
 62
7
  6
CONTINUOUS
 70
0
 71
3
 72
8
 73
4
 74
0
 42
0.0000001
 43
0.0000001
 44
0.0000000001
 40
0.0
 40
0.0
 40
0.0
 40
0.0
 40
1.0
 40
1.0
 40
1.0
 40
1.0
 10
179.5070424439
 20
870.710133281
 30
0.0
 10
179.4535015073
 20
870.603558151
 30
0.0
 10
179.4100291687
 20
870.4911039878
 30
0.0
 10
179.3796985441
 20
870.3757569313
 30
0.0
  0
SPLINE
  5
3AF
100
AcDbEntity
  8
0
100
AcDbSpline
 62
7
  6
CONTINUOUS
 70
0
 71
3
 72
8
 73
4
 74
0
 42
0.0000001
 43
0.0000001
 44
0.0000000001
 40
0.0
 40
0.0
 40
0.0
 40
0.0
 40
1.0
 40
1.0
 40
1.0
 40
1.0
 10
179.3796985441
 20
870.3757569313
 30
0.0
 10
179.3463661222
 20
870.2489940701
 30
0.0
 10
179.3286515412
 20
870.1169305994
 30
0.0
 10
179.3287264421
 20
869.9858586049
 30
0.0
  0
SPLINE
  5
3B0
100
AcDbEntity
  8
0
100
AcDbSpline
 62
7
  6
CONTINUOUS
 70
0
 71
3
 72
9
 73
5
 74
0
 42
0.0000001
 43
0.0000001
 44
0.0000000001
 40
0.0
 40
0.0
 40
0.0
 40
0.0
 40
0.2247016892
 40
1.0
 40
1.0
 40
1.0
 40
1.0
 10
779.8849232746
 20
1217.2375904037
 30
0.0
 10
779.9070187791
 20
1217.3876218567
 30
0.0
 10
780.0959920461
 20
1218.0439929883
 30
0.0
 10
780.6135193162
 20
1218.5583211584
 30
0.0
 10
781.0449793137
 20
1218.8543388936
 30
0.0
  0
SPLINE
  5
3B1
100
AcDbEntity
  8
0
100
AcDbSpline
 62
7
  6
CONTINUOUS
 70
0
 71
3
 72
8
 73
4
 74
0
 42
0.0000001
 43
0.0000001
 44
0.0000000001
 40
0.0
 40
0.0
 40
0.0
 40
0.0
 40
1.0
 40
1.0
 40
1.0
 40
1.0
 10
1160.9383873915
 20
1007.7700450447
 30
0.0
 10
1160.9383421367
 20
1007.8700479487
 30
0.0
 10
1160.949870339
 20
1007.970627548
 30
0.0
 10
1160.9718795993
 20
1008.0681784338
 30
0.0
  0
SPLINE
  5
3B2
100
AcDbEntity
  8
0
100
AcDbSpline
 62
7
  6
CONTINUOUS
 70
0
 71
3
 72
9
 73
5
 74
0
 42
0.0000001
 43
0.0000001
 44
0.0000000001
 40
0.0
 40
0.0
 40
0.0
 40
0.0
 40
0.2210358689
 40
1.0
 40
1.0
 40
1.0
 40
1.0
 10
1160.9718795993
 20
1008.0681784338
 30
0.0
 10
1161.0008187636
 20
1008.1964444944
 30
0.0
 10
1161.2153002716
 20
1008.7594672662
 30
0.0
 10
1161.7085743563
 20
1009.1713136226
 30
0.0
 10
1162.1098836159
 20
1009.4030082486
 30
0.0
  0
SPLINE
  5
3B3
100
AcDbEntity
  8
0
100
AcDbSpline
 62
7
  6
CONTINUOUS
 70
0
 71
3
 72
9
 73
5
 74
0
 42
0.0000001
 43
0.0000001
 44
0.0000000001
 40
0.0
 40
0.0
 40
0.0
 40
0.0
 40
0.2211612694
 40
1.0
 40
1.0
 40
1.0
 40
1.0
 10
1151.599593776
 20
1002.6669932725
 30
0.0
 10
1151.5996912106
 20
1002.49648841
 30
0.0
 10
1151.7372757406
 20
1001.7204539945
 30
0.0
 10
1152.3862443748
 20
1001.1391238731
 30
0.0
 10
1152.9052278294
 20
1000.8371407379
 30
0.0
  0
SPLINE
  5
3B4
100
AcDbEntity
  8
0
100
AcDbSpline
 62
7
  6
CONTINUOUS
 70
0
 71
3
 72
9
 73
5
 74
0
 42
0.0000001
 43
0.0000001
 44
0.0000000001
 40
0.0
 40
0.0
 40
0.0
 40
0.0
 40
0.4997042732
 40
1.0
 40
1.0
 40
1.0
 40
1.0
 10
1152.9052278294
 20
1000.8371407379
 30
0.0
 10
1153.8492444435
 20
1000.2878417296
 30
0.0
 10
1156.0917916265
 20
999.8524987611
 30
0.0
 10
1158.3345260294
 20
1000.2831669247
 30
0.0
 10
1159.2815183145
 20
1000.8299099118
 30
0.0
  0
SPLINE
  5
3B5
100
AcDbEntity
  8
0
100
AcDbSpline
 62
7
  6
CONTINUOUS
 70
0
 71
3
 72
8
 73
4
 74
0
 42
0.0000001
 43
0.0000001
 44
0.0000000001
 40
0.0
 40
0.0
 40
0.0
 40
0.0
 40
1.0
 40
1.0
 40
1.0
 40
1.0
 10
1160.5994515669
 20
1001.850491099
 30
0.0
 10
1160.5995108724
 20
1001.7194394512
 30
0.0
 10
1160.5817984705
 20
1001.5873994707
 30
0.0
 10
1160.5484777413
 20
1001.4606545816
 30
0.0
  0
SPLINE
  5
3B6
100
AcDbEntity
  8
0
100
AcDbSpline
 62
7
  6
CONTINUOUS
 70
0
 71
3
 72
10
 73
6
 74
0
 42
0.0000001
 43
0.0000001
 44
0.0000000001
 40
0.0
 40
0.0
 40
0.0
 40
0.0
 40
0.2776477383
 40
0.5773673644
 40
1.0
 40
1.0
 40
1.0
 40
1.0
 10
172.1614203516
 20
866.5157697342
 30
0.0
 10
172.7802956126
 20
866.8730754
 30
0.0
 10
174.2898207758
 20
867.2545793724
 30
0.0
 10
176.7385047969
 20
867.2249890778
 30
0.0
 10
178.989302119
 20
865.9705859468
 30
0.0
 10
178.9897943772
 20
864.8828069019
 30
0.0
  0
SPLINE
  5
3B7
100
AcDbEntity
  8
0
100
AcDbSpline
 62
7
  6
CONTINUOUS
 70
0
 71
3
 72
8
 73
4
 74
0
 42
0.0000001
 43
0.0000001
 44
0.0000000001
 40
0.0
 40
0.0
 40
0.0
 40
0.0
 40
1.0
 40
1.0
 40
1.0
 40
1.0
 10
542.2225298294
 20
650.5564104072
 30
0.0
 10
542.2224845746
 20
650.6564133111
 30
0.0
 10
542.2340127769
 20
650.7569929105
 30
0.0
 10
542.2560220372
 20
650.8545437962
 30
0.0
  0
SPLINE
  5
3B8
100
AcDbEntity
  8
0
100
AcDbSpline
 62
7
  6
CONTINUOUS
 70
0
 71
3
 72
9
 73
5
 74
0
 42
0.0000001
 43
0.0000001
 44
0.0000000001
 40
0.0
 40
0.0
 40
0.0
 40
0.0
 40
0.2210358689
 40
1.0
 40
1.0
 40
1.0
 40
1.0
 10
542.2560220372
 20
650.8545437962
 30
0.0
 10
542.2849612015
 20
650.9828098568
 30
0.0
 10
542.4994427094
 20
651.5458326286
 30
0.0
 10
542.9927167942
 20
651.9576789851
 30
0.0
 10
543.3940260538
 20
652.1893736111
 30
0.0
  0
SPLINE
  5
3B9
100
AcDbEntity
  8
0
100
AcDbSpline
 62
7
  6
CONTINUOUS
 70
0
 71
3
 72
11
 73
7
 74
0
 42
0.0000001
 43
0.0000001
 44
0.0000000001
 40
0.0
 40
0.0
 40
0.0
 40
0.0
 40
0.2715555841
 40
0.5647550822
 40
0.8163736113
 40
1.0
 40
1.0
 40
1.0
 40
1.0
 10
524.3022106731
 20
642.7997512733
 30
0.0
 10
525.230434994
 20
643.3356586359
 30
0.0
 10
527.4539265392
 20
643.9428211398
 30
0.0
 10
530.7056570036
 20
643.7467713022
 30
0.0
 10
533.4667108468
 20
642.7120932422
 30
0.0
 10
534.5448637974
 20
641.0750875148
 30
0.0
 10
534.5448690239
 20
640.3503211685
 30
0.0
  0
SPLINE
  5
3BA
100
AcDbEntity
  8
0
100
AcDbSpline
 62
7
  6
CONTINUOUS
 70
0
 71
3
 72
8
 73
4
 74
0
 42
0.0000001
 43
0.0000001
 44
0.0000000001
 40
0.0
 40
0.0
 40
0.0
 40
0.0
 40
1.0
 40
1.0
 40
1.0
 40
1.0
 10
1160.8845446989
 20
1002.6871986666
 30
0.0
 10
1160.7812694021
 20
1002.8844842715
 30
0.0
 10
1160.6455276276
 20
1003.0662662971
 30
0.0
 10
1160.4928401068
 20
1003.2283586098
 30
0.0
  0
SPLINE
  5
3BB
100
AcDbEntity
  8
0
100
AcDbSpline
 62
7
  6
CONTINUOUS
 70
0
 71
3
 72
9
 73
5
 74
0
 42
0.0000001
 43
0.0000001
 44
0.0000000001
 40
0.0
 40
0.0
 40
0.0
 40
0.0
 40
0.2407194189
 40
1.0
 40
1.0
 40
1.0
 40
1.0
 10
517.2311605251
 20
640.3502795514
 30
0.0
 10
517.4319419808
 20
640.2343609464
 30
0.0
 10
518.3417522234
 20
639.9063236121
 30
0.0
 10
519.4262825915
 20
639.9846496867
 30
0.0
 10
520.0595876499
 20
640.3502863501
 30
0.0
  0
SPLINE
  5
3BC
100
AcDbEntity
  8
0
100
AcDbSpline
 62
7
  6
CONTINUOUS
 70
0
 71
3
 72
9
 73
5
 74
0
 42
0.0000001
 43
0.0000001
 44
0.0000000001
 40
0.0
 40
0.0
 40
0.0
 40
0.0
 40
0.2247016892
 40
1.0
 40
1.0
 40
1.0
 40
1.0
 10
1151.1175289768
 20
1002.9111942805
 30
0.0
 10
1151.1396244813
 20
1003.0612257336
 30
0.0
 10
1151.3285977483
 20
1003.7175968651
 30
0.0
 10
1151.8461250183
 20
1004.2319250352
 30
0.0
 10
1152.2775850158
 20
1004.5279427704
 30
0.0
  0
SPLINE
  5
3BD
100
AcDbEntity
  8
0
100
AcDbSpline
 62
7
  6
CONTINUOUS
 70
0
 71
3
 72
9
 73
5
 74
0
 42
0.0000001
 43
0.0000001
 44
0.0000000001
 40
0.0
 40
0.0
 40
0.0
 40
0.0
 40
0.2354579476
 40
1.0
 40
1.0
 40
1.0
 40
1.0
 10
551.9768184846
 20
657.9310858698
 30
0.0
 10
552.2884170335
 20
658.0718273815
 30
0.0
 10
553.6640164333
 20
658.5500114276
 30
0.0
 10
555.1698599492
 20
658.6181067416
 30
0.0
 10
556.2688023676
 20
658.460451589
 30
0.0
  0
SPLINE
  5
3BE
100
AcDbEntity
  8
0
100
AcDbSpline
 62
7
  6
CONTINUOUS
 70
0
 71
3
 72
9
 73
5
 74
0
 42
0.0000001
 43
0.0000001
 44
0.0000000001
 40
0.0
 40
0.0
 40
0.0
 40
0.0
 40
0.263022811
 40
1.0
 40
1.0
 40
1.0
 40
1.0
 10
556.2688023676
 20
658.460451589
 30
0.0
 10
556.4531281874
 20
658.4340080604
 30
0.0
 10
557.1499308402
 20
658.309731221
 30
0.0
 10
557.8322755044
 20
658.0879986061
 30
0.0
 10
558.3006953261
 20
657.8581811327
 30
0.0
  0
SPLINE
  5
3BF
100
AcDbEntity
  8
0
100
AcDbSpline
 62
7
  6
CONTINUOUS
 70
0
 71
3
 72
9
 73
5
 74
0
 42
0.0000001
 43
0.0000001
 44
0.0000000001
 40
0.0
 40
0.0
 40
0.0
 40
0.0
 40
0.2909649225
 40
1.0
 40
1.0
 40
1.0
 40
1.0
 10
558.5828366217
 20
657.7085924544
 30
0.0
 10
558.7815801892
 20
657.5947450852
 30
0.0
 10
559.4323598856
 20
657.1639394403
 30
0.0
 10
559.9609457385
 20
656.4562802578
 30
0.0
 10
560.0429453837
 20
655.9041979043
 30
0.0
  0
SPLINE
  5
3C0
100
AcDbEntity
  8
0
100
AcDbSpline
 62
7
  6
CONTINUOUS
 70
0
 71
3
 72
8
 73
4
 74
0
 42
0.0000001
 43
0.0000001
 44
0.0000000001
 40
0.0
 40
0.0
 40
0.0
 40
0.0
 40
1.0
 40
1.0
 40
1.0
 40
1.0
 10
170.9899241273
 20
864.8828065304
 30
0.0
 10
170.9898788724
 20
864.9828094343
 30
0.0
 10
171.0014070747
 20
865.0833890336
 30
0.0
 10
171.023416335
 20
865.1809399194
 30
0.0
  0
SPLINE
  5
3C1
100
AcDbEntity
  8
0
100
AcDbSpline
 62
7
  6
CONTINUOUS
 70
0
 71
3
 72
9
 73
5
 74
0
 42
0.0000001
 43
0.0000001
 44
0.0000000001
 40
0.0
 40
0.0
 40
0.0
 40
0.0
 40
0.2210358689
 40
1.0
 40
1.0
 40
1.0
 40
1.0
 10
171.023416335
 20
865.1809399194
 30
0.0
 10
171.0523554993
 20
865.30920598
 30
0.0
 10
171.2668370073
 20
865.8722287518
 30
0.0
 10
171.760111092
 20
866.2840751082
 30
0.0
 10
172.1614203516
 20
866.5157697342
 30
0.0
  0
SPLINE
  5
3C2
100
AcDbEntity
  8
0
100
AcDbSpline
 62
7
  6
CONTINUOUS
 70
0
 71
3
 72
9
 73
5
 74
0
 42
0.0000001
 43
0.0000001
 44
0.0000000001
 40
0.0
 40
0.0
 40
0.0
 40
0.0
 40
0.2211612694
 40
1.0
 40
1.0
 40
1.0
 40
1.0
 10
550.5613321442
 20
655.6594624817
 30
0.0
 10
550.5614295789
 20
655.4889576193
 30
0.0
 10
550.6990141088
 20
654.7129232037
 30
0.0
 10
551.3479827431
 20
654.1315930824
 30
0.0
 10
551.8669661976
 20
653.8296099471
 30
0.0
  0
SPLINE
  5
3C3
100
AcDbEntity
  8
0
100
AcDbSpline
 62
7
  6
CONTINUOUS
 70
0
 71
3
 72
9
 73
5
 74
0
 42
0.0000001
 43
0.0000001
 44
0.0000000001
 40
0.0
 40
0.0
 40
0.0
 40
0.0
 40
0.4997042732
 40
1.0
 40
1.0
 40
1.0
 40
1.0
 10
551.8669661976
 20
653.8296099471
 30
0.0
 10
552.8109828118
 20
653.2803109388
 30
0.0
 10
555.0535299948
 20
652.8449679703
 30
0.0
 10
557.2962643977
 20
653.275636134
 30
0.0
 10
558.2432566827
 20
653.822379121
 30
0.0
  0
SPLINE
  5
3C4
100
AcDbEntity
  8
0
100
AcDbSpline
 62
7
  6
CONTINUOUS
 70
0
 71
3
 72
9
 73
5
 74
0
 42
0.0000001
 43
0.0000001
 44
0.0000000001
 40
0.0
 40
0.0
 40
0.0
 40
0.0
 40
0.4999994563
 40
1.0
 40
1.0
 40
1.0
 40
1.0
 10
510.5136446319
 20
640.5543846316
 30
0.0
 10
511.4581005951
 20
641.0996632812
 30
0.0
 10
513.6956220326
 20
641.530899776
 30
0.0
 10
515.9331437133
 20
641.0996729536
 30
0.0
 10
516.8776056626
 20
640.5543999287
 30
0.0
  0
SPLINE
  5
3C5
100
AcDbEntity
  8
0
100
AcDbSpline
 62
7
  6
CONTINUOUS
 70
0
 71
3
 72
8
 73
4
 74
0
 42
0.0000001
 43
0.0000001
 44
0.0000000001
 40
0.0
 40
0.0
 40
0.0
 40
0.0
 40
1.0
 40
1.0
 40
1.0
 40
1.0
 10
1180.9443813665
 20
1026.5492474141
 30
0.0
 10
1180.9443813767
 20
1026.7252371233
 30
0.0
 10
1180.976892572
 20
1026.9033588786
 30
0.0
 10
1181.0355503065
 20
1027.0692855129
 30
0.0
  0
SPLINE
  5
3C6
100
AcDbEntity
  8
0
100
AcDbSpline
 62
7
  6
CONTINUOUS
 70
0
 71
3
 72
9
 73
5
 74
0
 42
0.0000001
 43
0.0000001
 44
0.0000000001
 40
0.0
 40
0.0
 40
0.0
 40
0.0
 40
0.2226248652
 40
1.0
 40
1.0
 40
1.0
 40
1.0
 10
1181.0355503065
 20
1027.0692855129
 30
0.0
 10
1181.0806283426
 20
1027.1967989071
 30
0.0
 10
1181.3532620264
 20
1027.7456535543
 30
0.0
 10
1181.8532975909
 20
1028.1502003501
 30
0.0
 10
1182.2622899851
 20
1028.3863308095
 30
0.0
  0
SPLINE
  5
3C7
100
AcDbEntity
  8
0
100
AcDbSpline
 62
7
  6
CONTINUOUS
 70
0
 71
3
 72
9
 73
5
 74
0
 42
0.0000001
 43
0.0000001
 44
0.0000000001
 40
0.0
 40
0.0
 40
0.0
 40
0.0
 40
0.2348228475
 40
1.0
 40
1.0
 40
1.0
 40
1.0
 10
1152.7787725368
 20
1004.82496218
 30
0.0
 10
1152.9292281678
 20
1004.9019838765
 30
0.0
 10
1153.5860593525
 20
1005.1982250323
 30
0.0
 10
1154.2923974873
 20
1005.3781808968
 30
0.0
 10
1154.8370337184
 20
1005.4601561823
 30
0.0
  0
SPLINE
  5
3C8
100
AcDbEntity
  8
0
100
AcDbSpline
 62
7
  6
CONTINUOUS
 70
0
 71
3
 72
9
 73
5
 74
0
 42
0.0000001
 43
0.0000001
 44
0.0000000001
 40
0.0
 40
0.0
 40
0.0
 40
0.0
 40
0.2648315757
 40
1.0
 40
1.0
 40
1.0
 40
1.0
 10
1156.1003957835
 20
1005.5536587593
 30
0.0
 10
1156.4035872895
 20
1005.5535701715
 30
0.0
 10
1157.5456840299
 20
1005.4927589594
 30
0.0
 10
1158.6901914001
 20
1005.2026902607
 30
0.0
 10
1159.437729543
 20
1004.8159475342
 30
0.0
  0
SPLINE
  5
3C9
100
AcDbEntity
  8
0
100
AcDbSpline
 62
7
  6
CONTINUOUS
 70
0
 71
3
 72
8
 73
4
 74
0
 42
0.0000001
 43
0.0000001
 44
0.0000000001
 40
0.0
 40
0.0
 40
0.0
 40
0.0
 40
1.0
 40
1.0
 40
1.0
 40
1.0
 10
1159.6210982535
 20
1004.7161232451
 30
0.0
 10
1159.8972904461
 20
1004.5579105547
 30
0.0
 10
1160.1603930008
 20
1004.3701982814
 30
0.0
 10
1160.3895568495
 20
1004.1492971425
 30
0.0
  0
SPLINE
  5
3CA
100
AcDbEntity
  8
0
100
AcDbSpline
 62
7
  6
CONTINUOUS
 70
0
 71
3
 72
9
 73
5
 74
0
 42
0.0000001
 43
0.0000001
 44
0.0000000001
 40
0.0
 40
0.0
 40
0.0
 40
0.0
 40
0.273875796
 40
1.0
 40
1.0
 40
1.0
 40
1.0
 10
1160.3895568495
 20
1004.1492971425
 30
0.0
 10
1160.4836532711
 20
1004.0585934526
 30
0.0
 10
1160.806729038
 20
1003.7085214975
 30
0.0
 10
1161.0302988479
 20
1003.2544801897
 30
0.0
 10
1161.0812070154
 20
1002.911728695
 30
0.0
  0
SPLINE
  5
3CB
100
AcDbEntity
  8
0
100
AcDbSpline
 62
7
  6
CONTINUOUS
 70
0
 71
3
 72
8
 73
4
 74
0
 42
0.0000001
 43
0.0000001
 44
0.0000000001
 40
0.0
 40
0.0
 40
0.0
 40
0.0
 40
1.0
 40
1.0
 40
1.0
 40
1.0
 10
157.9423336716
 20
847.7655546516
 30
0.0
 10
158.2514393754
 20
847.5506786349
 30
0.0
 10
158.5383501825
 20
847.2813381749
 30
0.0
 10
158.7329339663
 20
846.9590724618
 30
0.0
  0
SPLINE
  5
3CC
100
AcDbEntity
  8
0
100
AcDbSpline
 62
7
  6
CONTINUOUS
 70
0
 71
3
 72
8
 73
4
 74
0
 42
0.0000001
 43
0.0000001
 44
0.0000000001
 40
0.0
 40
0.0
 40
0.0
 40
0.0
 40
1.0
 40
1.0
 40
1.0
 40
1.0
 10
158.7329339663
 20
846.9590724618
 30
0.0
 10
158.7969372219
 20
846.8530715689
 30
0.0
 10
158.8513478252
 20
846.7404158257
 30
0.0
 10
158.8926210777
 20
846.6236719837
 30
0.0
  0
SPLINE
  5
3CD
100
AcDbEntity
  8
0
100
AcDbSpline
 62
7
  6
CONTINUOUS
 70
0
 71
3
 72
8
 73
4
 74
0
 42
0.0000001
 43
0.0000001
 44
0.0000000001
 40
0.0
 40
0.0
 40
0.0
 40
0.0
 40
1.0
 40
1.0
 40
1.0
 40
1.0
 10
158.8926210777
 20
846.6236719837
 30
0.0
 10
158.9512852889
 20
846.4577367835
 30
0.0
 10
158.9838004125
 20
846.2796044767
 30
0.0
 10
158.9838004022
 20
846.1036045326
 30
0.0
  0
SPLINE
  5
3CE
100
AcDbEntity
  8
0
100
AcDbSpline
 62
7
  6
CONTINUOUS
 70
0
 71
3
 72
9
 73
5
 74
0
 42
0.0000001
 43
0.0000001
 44
0.0000000001
 40
0.0
 40
0.0
 40
0.0
 40
0.0
 40
0.2348228475
 40
1.0
 40
1.0
 40
1.0
 40
1.0
 10
781.5461668346
 20
1219.1513583032
 30
0.0
 10
781.6966224657
 20
1219.2283799996
 30
0.0
 10
782.3534536504
 20
1219.5246211555
 30
0.0
 10
783.0597917852
 20
1219.7045770199
 30
0.0
 10
783.6044280162
 20
1219.7865523054
 30
0.0
  0
SPLINE
  5
3CF
100
AcDbEntity
  8
0
100
AcDbSpline
 62
7
  6
CONTINUOUS
 70
0
 71
3
 72
9
 73
5
 74
0
 42
0.0000001
 43
0.0000001
 44
0.0000000001
 40
0.0
 40
0.0
 40
0.0
 40
0.0
 40
0.2648315757
 40
1.0
 40
1.0
 40
1.0
 40
1.0
 10
784.8677900813
 20
1219.8800548824
 30
0.0
 10
785.1709815874
 20
1219.8799662947
 30
0.0
 10
786.3130783277
 20
1219.8191550826
 30
0.0
 10
787.457585698
 20
1219.5290863839
 30
0.0
 10
788.2051238408
 20
1219.1423436574
 30
0.0
  0
SPLINE
  5
3D0
100
AcDbEntity
  8
0
100
AcDbSpline
 62
7
  6
CONTINUOUS
 70
0
 71
3
 72
8
 73
4
 74
0
 42
0.0000001
 43
0.0000001
 44
0.0000000001
 40
0.0
 40
0.0
 40
0.0
 40
0.0
 40
1.0
 40
1.0
 40
1.0
 40
1.0
 10
788.3884925513
 20
1219.0425193683
 30
0.0
 10
788.664684744
 20
1218.8843066779
 30
0.0
 10
788.9277872986
 20
1218.6965944046
 30
0.0
 10
789.1569511474
 20
1218.4756932657
 30
0.0
  0
SPLINE
  5
3D1
100
AcDbEntity
  8
0
100
AcDbSpline
 62
7
  6
CONTINUOUS
 70
0
 71
3
 72
9
 73
5
 74
0
 42
0.0000001
 43
0.0000001
 44
0.0000000001
 40
0.0
 40
0.0
 40
0.0
 40
0.0
 40
0.273875796
 40
1.0
 40
1.0
 40
1.0
 40
1.0
 10
789.1569511474
 20
1218.4756932657
 30
0.0
 10
789.2510475689
 20
1218.3849895758
 30
0.0
 10
789.5741233358
 20
1218.0349176206
 30
0.0
 10
789.7976931457
 20
1217.5808763129
 30
0.0
 10
789.8486013133
 20
1217.2381248182
 30
0.0
  0
SPLINE
  5
3D2
100
AcDbEntity
  8
0
100
AcDbSpline
 62
7
  6
CONTINUOUS
 70
0
 71
3
 72
8
 73
4
 74
0
 42
0.0000001
 43
0.0000001
 44
0.0000000001
 40
0.0
 40
0.0
 40
0.0
 40
0.0
 40
1.0
 40
1.0
 40
1.0
 40
1.0
 10
161.9083734965
 20
866.3116238618
 30
0.0
 10
162.0886359177
 20
866.2075516589
 30
0.0
 10
162.2591178119
 20
866.0770945198
 30
0.0
 10
162.3926910993
 20
865.9174582431
 30
0.0
  0
SPLINE
  5
3D3
100
AcDbEntity
  8
0
100
AcDbSpline
 62
7
  6
CONTINUOUS
 70
0
 71
3
 72
8
 73
4
 74
0
 42
0.0000001
 43
0.0000001
 44
0.0000000001
 40
0.0
 40
0.0
 40
0.0
 40
0.0
 40
1.0
 40
1.0
 40
1.0
 40
1.0
 10
162.3926910993
 20
865.9174582431
 30
0.0
 10
162.5368006894
 20
865.7452298069
 30
0.0
 10
162.6405596842
 20
865.5155801893
 30
0.0
 10
162.6405596711
 20
865.2910134772
 30
0.0
  0
SPLINE
  5
3D4
100
AcDbEntity
  8
0
100
AcDbSpline
 62
7
  6
CONTINUOUS
 70
0
 71
3
 72
8
 73
4
 74
0
 42
0.0000001
 43
0.0000001
 44
0.0000000001
 40
0.0
 40
0.0
 40
0.0
 40
0.0
 40
1.0
 40
1.0
 40
1.0
 40
1.0
 10
178.8466616429
 20
870.2300596129
 30
0.0
 10
178.90007549
 20
870.5927468333
 30
0.0
 10
179.0801995595
 20
870.9431491271
 30
0.0
 10
179.3137022291
 20
871.2257647002
 30
0.0
  0
SPLINE
  5
3D5
100
AcDbEntity
  8
0
100
AcDbSpline
 62
7
  6
CONTINUOUS
 70
0
 71
3
 72
8
 73
4
 74
0
 42
0.0000001
 43
0.0000001
 44
0.0000000001
 40
0.0
 40
0.0
 40
0.0
 40
0.0
 40
1.0
 40
1.0
 40
1.0
 40
1.0
 10
179.3137022291
 20
871.2257647002
 30
0.0
 10
179.5823710749
 20
871.5509429946
 30
0.0
 10
179.9278096701
 20
871.8161582404
 30
0.0
 10
180.2931085916
 20
872.0270624121
 30
0.0
  0
SPLINE
  5
3D6
100
AcDbEntity
  8
0
100
AcDbSpline
 62
7
  6
CONTINUOUS
 70
0
 71
3
 72
9
 73
5
 74
0
 42
0.0000001
 43
0.0000001
 44
0.0000000001
 40
0.0
 40
0.0
 40
0.0
 40
0.0
 40
0.2354579476
 40
1.0
 40
1.0
 40
1.0
 40
1.0
 10
180.7442127824
 20
872.257481993
 30
0.0
 10
181.0558113313
 20
872.3982235046
 30
0.0
 10
182.4314107311
 20
872.8764075507
 30
0.0
 10
183.937254247
 20
872.9445028647
 30
0.0
 10
185.0361966654
 20
872.7868477122
 30
0.0
  0
SPLINE
  5
3D7
100
AcDbEntity
  8
0
100
AcDbSpline
 62
7
  6
CONTINUOUS
 70
0
 71
3
 72
9
 73
5
 74
0
 42
0.0000001
 43
0.0000001
 44
0.0000000001
 40
0.0
 40
0.0
 40
0.0
 40
0.0
 40
0.263022811
 40
1.0
 40
1.0
 40
1.0
 40
1.0
 10
185.0361966654
 20
872.7868477122
 30
0.0
 10
185.2205224852
 20
872.7604041836
 30
0.0
 10
185.9173251381
 20
872.6361273442
 30
0.0
 10
186.5996698022
 20
872.4143947292
 30
0.0
 10
187.0680896239
 20
872.1845772558
 30
0.0
  0
SPLINE
  5
3D8
100
AcDbEntity
  8
0
100
AcDbSpline
 62
7
  6
CONTINUOUS
 70
0
 71
3
 72
9
 73
5
 74
0
 42
0.0000001
 43
0.0000001
 44
0.0000000001
 40
0.0
 40
0.0
 40
0.0
 40
0.0
 40
0.2909649225
 40
1.0
 40
1.0
 40
1.0
 40
1.0
 10
187.3502309195
 20
872.0349885775
 30
0.0
 10
187.5489744871
 20
871.9211412084
 30
0.0
 10
188.1997541834
 20
871.4903355634
 30
0.0
 10
188.7283400363
 20
870.782676381
 30
0.0
 10
188.8103396815
 20
870.2305940274
 30
0.0
  0
SPLINE
  5
3D9
100
AcDbEntity
  8
0
100
AcDbSpline
 62
7
  6
CONTINUOUS
 70
0
 71
3
 72
9
 73
5
 74
0
 42
0.0000001
 43
0.0000001
 44
0.0000000001
 40
0.0
 40
0.0
 40
0.0
 40
0.0
 40
0.7259634065
 40
1.0
 40
1.0
 40
1.0
 40
1.0
 10
1176.6162294528
 20
1017.9761502655
 30
0.0
 10
1176.6159959142
 20
1018.4161103664
 30
0.0
 10
1176.8385415405
 20
1019.0309250048
 30
0.0
 10
1177.2217141124
 20
1019.4991815512
 30
0.0
 10
1177.3351855773
 20
1019.6204478021
 30
0.0
  0
SPLINE
  5
3DA
100
AcDbEntity
  8
0
100
AcDbSpline
 62
7
  6
CONTINUOUS
 70
0
 71
3
 72
8
 73
4
 74
0
 42
0.0000001
 43
0.0000001
 44
0.0000000001
 40
0.0
 40
0.0
 40
0.0
 40
0.0
 40
1.0
 40
1.0
 40
1.0
 40
1.0
 10
1177.3351855773
 20
1019.6204478021
 30
0.0
 10
1177.6343850415
 20
1019.9402004139
 30
0.0
 10
1177.9940214266
 20
1020.2066413636
 30
0.0
 10
1178.373260096
 20
1020.4255936045
 30
0.0
  0
SPLINE
  5
3DB
100
AcDbEntity
  8
0
100
AcDbSpline
 62
7
  6
CONTINUOUS
 70
0
 71
3
 72
9
 73
5
 74
0
 42
0.0000001
 43
0.0000001
 44
0.0000000001
 40
0.0
 40
0.0
 40
0.0
 40
0.0
 40
0.2211612694
 40
1.0
 40
1.0
 40
1.0
 40
1.0
 10
179.3287264421
 20
869.9858586049
 30
0.0
 10
179.3288238767
 20
869.8153537424
 30
0.0
 10
179.4664084066
 20
869.0393193269
 30
0.0
 10
180.1153770409
 20
868.4579892055
 30
0.0
 10
180.6343604954
 20
868.1560060703
 30
0.0
  0
SPLINE
  5
3DC
100
AcDbEntity
  8
0
100
AcDbSpline
 62
7
  6
CONTINUOUS
 70
0
 71
3
 72
9
 73
5
 74
0
 42
0.0000001
 43
0.0000001
 44
0.0000000001
 40
0.0
 40
0.0
 40
0.0
 40
0.0
 40
0.4997042732
 40
1.0
 40
1.0
 40
1.0
 40
1.0
 10
180.6343604954
 20
868.1560060703
 30
0.0
 10
181.5783771096
 20
867.606707062
 30
0.0
 10
183.8209242926
 20
867.1713640935
 30
0.0
 10
186.0636586955
 20
867.6020322571
 30
0.0
 10
187.0106509805
 20
868.1487752442
 30
0.0
  0
SPLINE
  5
3DD
100
AcDbEntity
  8
0
100
AcDbSpline
 62
7
  6
CONTINUOUS
 70
0
 71
3
 72
9
 73
5
 74
0
 42
0.0000001
 43
0.0000001
 44
0.0000000001
 40
0.0
 40
0.0
 40
0.0
 40
0.0
 40
0.2211612694
 40
1.0
 40
1.0
 40
1.0
 40
1.0
 10
780.3669880738
 20
1216.9933893957
 30
0.0
 10
780.3670855085
 20
1216.8228845332
 30
0.0
 10
780.5046700384
 20
1216.0468501177
 30
0.0
 10
781.1536386727
 20
1215.4655199963
 30
0.0
 10
781.6726221272
 20
1215.163536861
 30
0.0
  0
SPLINE
  5
3DE
100
AcDbEntity
  8
0
100
AcDbSpline
 62
7
  6
CONTINUOUS
 70
0
 71
3
 72
9
 73
5
 74
0
 42
0.0000001
 43
0.0000001
 44
0.0000000001
 40
0.0
 40
0.0
 40
0.0
 40
0.0
 40
0.4997042732
 40
1.0
 40
1.0
 40
1.0
 40
1.0
 10
781.6726221272
 20
1215.163536861
 30
0.0
 10
782.6166387414
 20
1214.6142378527
 30
0.0
 10
784.8591859244
 20
1214.1788948843
 30
0.0
 10
787.1019203273
 20
1214.6095630479
 30
0.0
 10
788.0489126123
 20
1215.156306035
 30
0.0
  0
SPLINE
  5
3DF
100
AcDbEntity
  8
0
100
AcDbSpline
 62
7
  6
CONTINUOUS
 70
0
 71
3
 72
8
 73
4
 74
0
 42
0.0000001
 43
0.0000001
 44
0.0000000001
 40
0.0
 40
0.0
 40
0.0
 40
0.0
 40
1.0
 40
1.0
 40
1.0
 40
1.0
 10
157.3122383416
 20
858.1407549621
 30
0.0
 10
157.9830209317
 20
858.1407565745
 30
0.0
 10
158.6575299994
 20
858.0762814461
 30
0.0
 10
159.3147583528
 20
857.9421167169
 30
0.0
  0
SPLINE
  5
3E0
100
AcDbEntity
  8
0
100
AcDbSpline
 62
7
  6
CONTINUOUS
 70
0
 71
3
 72
9
 73
5
 74
0
 42
0.0000001
 43
0.0000001
 44
0.0000000001
 40
0.0
 40
0.0
 40
0.0
 40
0.0
 40
0.5808079742
 40
1.0
 40
1.0
 40
1.0
 40
1.0
 10
159.3147583528
 20
857.9421167169
 30
0.0
 10
160.3473683213
 20
857.7313226509
 30
0.0
 10
162.1229150442
 20
857.1532111242
 30
0.0
 10
163.311548552
 20
855.4373469798
 30
0.0
 10
163.3119523159
 20
854.6767016812
 30
0.0
  0
SPLINE
  5
3E1
100
AcDbEntity
  8
0
100
AcDbSpline
 62
7
  6
CONTINUOUS
 70
0
 71
3
 72
10
 73
6
 74
0
 42
0.0000001
 43
0.0000001
 44
0.0000000001
 40
0.0
 40
0.0
 40
0.0
 40
0.0
 40
0.2776477383
 40
0.5773673644
 40
1.0
 40
1.0
 40
1.0
 40
1.0
 10
790.8772779137
 20
1223.7294043718
 30
0.0
 10
791.4961531748
 20
1224.0867100375
 30
0.0
 10
793.0056783379
 20
1224.4682140099
 30
0.0
 10
795.454362359
 20
1224.4386237153
 30
0.0
 10
797.7051596811
 20
1223.1842205843
 30
0.0
 10
797.7056519393
 20
1222.0964415395
 30
0.0
  0
SPLINE
  5
3E2
100
AcDbEntity
  8
0
100
AcDbSpline
 62
7
  6
CONTINUOUS
 70
0
 71
3
 72
8
 73
4
 74
0
 42
0.0000001
 43
0.0000001
 44
0.0000000001
 40
0.0
 40
0.0
 40
0.0
 40
0.0
 40
1.0
 40
1.0
 40
1.0
 40
1.0
 10
789.3668458647
 20
1216.1768872222
 30
0.0
 10
789.3669051702
 20
1216.0458355744
 30
0.0
 10
789.3491927683
 20
1215.9137955939
 30
0.0
 10
789.3158720391
 20
1215.7870507048
 30
0.0
  0
SPLINE
  5
3E3
100
AcDbEntity
  8
0
100
AcDbSpline
 62
7
  6
CONTINUOUS
 70
0
 71
3
 72
10
 73
6
 74
0
 42
0.0000001
 43
0.0000001
 44
0.0000000001
 40
0.0
 40
0.0
 40
0.0
 40
0.0
 40
0.2776477383
 40
0.5773673644
 40
1.0
 40
1.0
 40
1.0
 40
1.0
 10
1162.1098836159
 20
1009.4030082486
 30
0.0
 10
1162.7287588769
 20
1009.7603139143
 30
0.0
 10
1164.2382840401
 20
1010.1418178868
 30
0.0
 10
1166.6869680611
 20
1010.1122275922
 30
0.0
 10
1168.9377653833
 20
1008.8578244612
 30
0.0
 10
1168.9382576414
 20
1007.7700454163
 30
0.0
  0
SPLINE
  5
3E4
100
AcDbEntity
  8
0
100
AcDbSpline
 62
7
  6
CONTINUOUS
 70
0
 71
3
 72
8
 73
4
 74
0
 42
0.0000001
 43
0.0000001
 44
0.0000000001
 40
0.0
 40
0.0
 40
0.0
 40
0.0
 40
1.0
 40
1.0
 40
1.0
 40
1.0
 10
550.079267345
 20
655.9036634898
 30
0.0
 10
550.1326811921
 20
656.2663507102
 30
0.0
 10
550.3128052617
 20
656.6167530039
 30
0.0
 10
550.5463079313
 20
656.8993685771
 30
0.0
  0
SPLINE
  5
3E5
100
AcDbEntity
  8
0
100
AcDbSpline
 62
7
  6
CONTINUOUS
 70
0
 71
3
 72
8
 73
4
 74
0
 42
0.0000001
 43
0.0000001
 44
0.0000000001
 40
0.0
 40
0.0
 40
0.0
 40
0.0
 40
1.0
 40
1.0
 40
1.0
 40
1.0
 10
550.5463079313
 20
656.8993685771
 30
0.0
 10
550.814976777
 20
657.2245468714
 30
0.0
 10
551.1604153722
 20
657.4897621172
 30
0.0
 10
551.5257142938
 20
657.700666289
 30
0.0
  0
SPLINE
  5
3E6
100
AcDbEntity
  8
0
100
AcDbSpline
 62
7
  6
CONTINUOUS
 70
0
 71
3
 72
8
 73
4
 74
0
 42
0.0000001
 43
0.0000001
 44
0.0000000001
 40
0.0
 40
0.0
 40
0.0
 40
0.0
 40
1.0
 40
1.0
 40
1.0
 40
1.0
 10
789.7057816894
 20
1222.0964411679
 30
0.0
 10
789.7057364345
 20
1222.1964440719
 30
0.0
 10
789.7172646369
 20
1222.2970236712
 30
0.0
 10
789.7392738971
 20
1222.3945745569
 30
0.0
  0
SPLINE
  5
3E7
100
AcDbEntity
  8
0
100
AcDbSpline
 62
7
  6
CONTINUOUS
 70
0
 71
3
 72
9
 73
5
 74
0
 42
0.0000001
 43
0.0000001
 44
0.0000000001
 40
0.0
 40
0.0
 40
0.0
 40
0.0
 40
0.2210358689
 40
1.0
 40
1.0
 40
1.0
 40
1.0
 10
789.7392738971
 20
1222.3945745569
 30
0.0
 10
789.7682130614
 20
1222.5228406175
 30
0.0
 10
789.9826945694
 20
1223.0858633893
 30
0.0
 10
790.4759686542
 20
1223.4977097458
 30
0.0
 10
790.8772779137
 20
1223.7294043718
 30
0.0
  0
SPLINE
  5
3E8
100
AcDbEntity
  8
0
100
AcDbSpline
 62
7
  6
CONTINUOUS
 70
0
 71
3
 72
9
 73
5
 74
0
 42
0.0000001
 43
0.0000001
 44
0.0000000001
 40
0.0
 40
0.0
 40
0.0
 40
0.0
 40
0.2407186296
 40
1.0
 40
1.0
 40
1.0
 40
1.0
 10
545.161859246
 20
643.0039226409
 30
0.0
 10
545.4128342104
 20
643.1488222392
 30
0.0
 10
546.5500952473
 20
643.5588754905
 30
0.0
 10
547.9057576704
 20
643.4609717579
 30
0.0
 10
548.6973931519
 20
643.0039311392
 30
0.0
  0
SPLINE
  5
3E9
100
AcDbEntity
  8
0
100
AcDbSpline
 62
7
  6
CONTINUOUS
 70
0
 71
3
 72
10
 73
6
 74
0
 42
0.0000001
 43
0.0000001
 44
0.0000000001
 40
0.0
 40
0.0
 40
0.0
 40
0.0
 40
0.2776477383
 40
0.5773673644
 40
1.0
 40
1.0
 40
1.0
 40
1.0
 10
543.3940260538
 20
652.1893736111
 30
0.0
 10
544.0129013148
 20
652.5466792768
 30
0.0
 10
545.522426478
 20
652.9281832492
 30
0.0
 10
547.971110499
 20
652.8985929546
 30
0.0
 10
550.2219078211
 20
651.6441898236
 30
0.0
 10
550.2224000793
 20
650.5564107788
 30
0.0
  0
SPLINE
  5
3EA
100
AcDbEntity
  8
0
100
AcDbSpline
 62
7
  6
CONTINUOUS
 70
0
 71
3
 72
8
 73
4
 74
0
 42
0.0000001
 43
0.0000001
 44
0.0000000001
 40
0.0
 40
0.0
 40
0.0
 40
0.0
 40
1.0
 40
1.0
 40
1.0
 40
1.0
 10
789.6519389967
 20
1217.0135947897
 30
0.0
 10
789.5486637
 20
1217.2108803947
 30
0.0
 10
789.4129219254
 20
1217.3926624203
 30
0.0
 10
789.2602344046
 20
1217.554754733
 30
0.0
  0
ENDSEC
  0
SECTION
  2
OBJECTS
  0
DICTIONARY
  5
C
100
AcDbDictionary
280
0
281
1
  3
ACAD_GROUP
350
D
  3
ACAD_MLINESTYLE
350
17
  3
ACAD_LAYOUT
350
1A
  3
ACAD_PLOTSETTINGS
350
19
  3
ACAD_PLOTSTYLENAME
350
E
  0
DICTIONARY
  5
D
102
{ACAD_REACTORS
330
C
102
}
100
AcDbDictionary
280
0
281
1
  0
ACDBDICTIONARYWDFLT
  5
E
102
{ACAD_REACTORS
330
C
102
}
100
AcDbDictionary
281
1
  3
Normal
350
F
100
AcDbDictionaryWithDefault
340
F
  0
DICTIONARY
  5
17
102
{ACAD_REACTORS
330
C
102
}
100
AcDbDictionary
280
0
281
1
  3
Standard
350
18
  0
DICTIONARY
  5
19
102
{ACAD_REACTORS
330
C
102
}
100
AcDbDictionary
281
1
  0
DICTIONARY
  5
1A
102
{ACAD_REACTORS
330
C
102
}
100
AcDbDictionary
281
1
  3
Model
350
3EB
  3
Layout1
350
3EC
  0
ACDBPLACEHOLDER
  5
F
102
{ACAD_REACTORS
330
E
102
}
  0
MLINESTYLE
  5
18
102
{ACAD_REACTORS
330
17
102
}
100
AcDbMlineStyle
  2
STANDARD
 70
0
  3

 62
256
 51
90.0
 52
90.0
 71
2
 49
0.5
 62
256
  6
BYLAYER
 49
-0.5
 62
256
  6
BYLAYER
  0
LAYOUT
  5
3EB
102
{ACAD_REACTORS
330
1A
102
}
100
AcDbPlotSettings
  1

  2
none_device
  4

  6

 40
0.0
 41
0.0
 42
0.0
 43
0.0
 44
210.0
 45
297.0
 46
0.0
 47
0.0
 48
0.0
 49
0.0
140
0.0
141
0.0
142
1.0
143
1.0
 70
1024
 72
1
 73
0
 74
0
  7

 75
0
147
1.0
148
0.0
149
0.0
100
AcDbLayout
  1
Model
 70
0
 71
0
 10
0.0
 20
0.0
 11
210.0
 21
297.0
 12
0.0
 22
0.0
 32
0.0
 14
0.0
 24
0.0
 34
0.0
 15
0.0
 25
0.0
 35
0.0
146
0.0
 13
0.0
 23
0.0
 33
0.0
 16
1.0
 26
0.0
 36
0.0
 17
0.0
 27
1.0
 37
0.0
 76
0
330
210
345
0
346
0
  0
LAYOUT
  5
3EC
102
{ACAD_REACTORS
330
1A
102
}
100
AcDbPlotSettings
  1

  2
none_device
  4

  6

 40
0.0
 41
0.0
 42
0.0
 43
0.0
 44
210.0
 45
297.0
 46
0.0
 47
0.0
 48
0.0
 49
0.0
140
0.0
141
0.0
142
1.0
143
1.0
 70
0
 72
1
 73
0
 74
0
  7

 75
0
147
1.0
148
0.0
149
0.0
100
AcDbLayout
  1
Layout1
 70
0
 71
1
 10
0.0
 20
0.0
 11
210.0
 21
297.0
 12
0.0
 22
0.0
 32
0.0
 14
0.0
 24
0.0
 34
0.0
 15
0.0
 25
0.0
 35
0.0
146
0.0
 13
0.0
 23
0.0
 33
0.0
 16
1.0
 26
0.0
 36
0.0
 17
0.0
 27
1.0
 37
0.0
 76
0
330
211
345
0
346
0
  0
ENDSEC
  0
EOF
