999
DXF file: C:\Users\sesa63760\Dev\_Creo\CAD\MCADUE0002933_3D-CAD\drw0001_7.dxf
999
Pro/ENGINEER 2019471 by Parametric Technology Corporation
  0
SECTION
  2
HEADER
  9
$ACADVER
  1
AC1024
  9
$DWGCODEPAGE
  3
ANSI_1252
  9
$EXTMAX
 10
783.9898989899
 20
1108.7857142857
 30
0.0
  9
$EXTMIN
 10
0.0
 20
0.0
 30
0.0
  9
$LIMMIN
 10
0.0
 20
0.0
  9
$LIMMAX
 10
783.9898989899
 20
1108.7857142857
  9
$VIEWCTR
 10
391.9949494949
 20
554.3928571429
  9
$VIEWSIZE
 40
1108.7857142857
  9
$CLAYER
  8
0
  9
$LTSCALE
 40
72.2764021164
  9
$CELTYPE
  6
BYLAYER
  9
$DIMSCALE
 40
1.0
  9
$DIMASZ
 40
9.3332130832
  9
$DIMEXO
 40
1.0
  9
$DIMDLI
 40
49.9364232804
  9
$DIMEXE
 40
1.0
  9
$DIMCEN
 40
11.827047619
  9
$DIMLFAC
 40
1.0
  9
$DIMBLK
  1
_FILLED
  9
$DIMALT
 70
0
  9
$DIMALTF
 40
0.0393700787
  9
$DIMTXT
 40
13.0664983165
  9
$DIMTOL
 70
1
  9
$DIMLIM
 70
0
  9
$DIMTFAC
 40
1.0
  9
$DIMTP
 40
0.01
  9
$DIMTM
 40
0.01
  9
$DIMGAP
 40
0.625
  9
$DIMDSEP
 70
46
  9
$AUNITS
 70
0
  9
$PDMODE
 70
3
  9
$PDSIZE
 40
0.3125
  9
$HANDSEED
  5
291
  9
$TILEMODE
 70
1
  9
$MEASUREMENT
 70
1
  9
$INSUNITS
 70
4
  0
ENDSEC
  0
SECTION
  2
CLASSES
  0
CLASS
  1
ACDBDICTIONARYWDFLT
  2
AcDbDictionaryWithDefault
  3
AutoCAD 2000
 90
0
 91
1
280
0
281
0
  0
CLASS
  1
ACDBPLACEHOLDER
  2
AcDbPlaceHolder
  3
AutoCAD 2000
 90
0
 91
1
280
0
281
0
  0
CLASS
  1
LAYOUT
  2
AcDbLayout
  3
AutoCAD 2000
 90
0
 91
0
280
0
281
0
  0
ENDSEC
  0
SECTION
  2
TABLES
  0
TABLE
  2
VPORT
  5
8
100
AcDbSymbolTable
 70
2
  0
VPORT
  5
1F4
100
AcDbSymbolTableRecord
100
AcDbViewportTableRecord
  2
*ACTIVE
 70
0
 10
0.0
 20
0.0
 11
1.0
 21
1.0
 12
391.9949494949
 22
554.3928571429
 13
0.0
 23
0.0
 14
1.0
 24
1.0
 15
0.0
 25
0.0
 16
0.0
 26
0.0
 36
1.0
 17
0.0
 27
0.0
 37
0.0
 40
1108.7857142857
 41
0.7070707071
 42
50.0
 43
0.0
 44
0.0
 50
0.0
 51
0.0
 71
0
 72
100
 73
1
 74
1
 75
0
 76
0
 77
0
 78
0
  0
ENDTAB
  0
TABLE
  2
LTYPE
  5
5
100
AcDbSymbolTable
 70
6
  0
LTYPE
  5
14
100
AcDbSymbolTableRecord
100
AcDbLinetypeTableRecord
  2
BYBLOCK
 70
0
  3

 72
65
 73
0
 40
0.0
  0
LTYPE
  5
15
100
AcDbSymbolTableRecord
100
AcDbLinetypeTableRecord
  2
BYLAYER
 70
0
  3

 72
65
 73
0
 40
0.0
  0
LTYPE
  5
16
100
AcDbSymbolTableRecord
100
AcDbLinetypeTableRecord
  2
CONTINUOUS
 70
64
  3
Solid line
 72
65
 73
0
 40
0.0
  0
LTYPE
  5
1F5
100
AcDbSymbolTableRecord
100
AcDbLinetypeTableRecord
  2
CENTER
 70
64
  3
____ _ ____ _ ____ _ ____ _ ____ _ ____ _ ____
 72
65
 73
4
 40
0.6
 49
0.375
 74
0
 49
-0.075
 74
0
 49
0.075
 74
0
 49
-0.075
 74
0
  0
LTYPE
  5
1F6
100
AcDbSymbolTableRecord
100
AcDbLinetypeTableRecord
  2
HIDDEN
 70
64
  3
- - - - - - - - - - - - - - - - - - - -
 72
65
 73
2
 40
0.2
 49
0.1
 74
0
 49
-0.1
 74
0
  0
LTYPE
  5
1F7
100
AcDbSymbolTableRecord
100
AcDbLinetypeTableRecord
  2
PHANTOM
 70
64
  3
_____ _ _ _____ _ _ _____ _ _ _____
 72
65
 73
6
 40
0.8
 49
0.45
 74
0
 49
-0.05
 74
0
 49
0.1
 74
0
 49
-0.05
 74
0
 49
0.1
 74
0
 49
-0.05
 74
0
  0
LTYPE
  5
1F8
100
AcDbSymbolTableRecord
100
AcDbLinetypeTableRecord
  2
DOT
 70
64
  3
. . . . . . . . . . . . . . . . . . . .
 72
65
 73
2
 40
0.2
 49
0.1
 74
0
 49
-0.1
 74
0
  0
LTYPE
  5
1F9
100
AcDbSymbolTableRecord
100
AcDbLinetypeTableRecord
  2
DASHED
 70
64
  3
- - - - - - - - - - - - - - - - - - - -
 72
65
 73
2
 40
0.2
 49
0.1
 74
0
 49
-0.1
 74
0
  0
ENDTAB
  0
TABLE
  2
LAYER
  5
2
100
AcDbSymbolTable
 70
36
  0
LAYER
  5
10
100
AcDbSymbolTableRecord
100
AcDbLayerTableRecord
  2
0
 70
0
 62
7
  6
CONTINUOUS
370
-3
390
F
  0
LAYER
  5
1FA
100
AcDbSymbolTableRecord
100
AcDbLayerTableRecord
  2
DEFAULT_1
 70
0
 62
7
  6
CENTER
370
-3
390
F
  0
LAYER
  5
1FB
100
AcDbSymbolTableRecord
100
AcDbLayerTableRecord
  2
DEFAULT_2
 70
0
 62
8
  6
HIDDEN
370
-3
390
F
  0
LAYER
  5
1FC
100
AcDbSymbolTableRecord
100
AcDbLayerTableRecord
  2
DEFAULT_3
 70
0
 62
7
  6
PHANTOM
370
-3
390
F
  0
LAYER
  5
1FD
100
AcDbSymbolTableRecord
100
AcDbLayerTableRecord
  2
00_COMPONENTS
 70
0
 62
7
  6
CONTINUOUS
370
-3
390
F
  0
LAYER
  5
1FE
100
AcDbSymbolTableRecord
100
AcDbLayerTableRecord
  2
01_1_DEFAULT_DATUMS
 70
0
 62
7
  6
CONTINUOUS
370
-3
390
F
  0
LAYER
  5
1FF
100
AcDbSymbolTableRecord
100
AcDbLayerTableRecord
  2
01_PLANES
 70
0
 62
7
  6
CONTINUOUS
370
-3
390
F
  0
LAYER
  5
200
100
AcDbSymbolTableRecord
100
AcDbLayerTableRecord
  2
02_COORD_SYS
 70
0
 62
7
  6
CONTINUOUS
370
-3
390
F
  0
LAYER
  5
201
100
AcDbSymbolTableRecord
100
AcDbLayerTableRecord
  2
03_AXES
 70
0
 62
7
  6
CONTINUOUS
370
-3
390
F
  0
LAYER
  5
202
100
AcDbSymbolTableRecord
100
AcDbLayerTableRecord
  2
04_POINTS
 70
0
 62
7
  6
CONTINUOUS
370
-3
390
F
  0
LAYER
  5
203
100
AcDbSymbolTableRecord
100
AcDbLayerTableRecord
  2
05_CURVES
 70
0
 62
7
  6
CONTINUOUS
370
-3
390
F
  0
LAYER
  5
204
100
AcDbSymbolTableRecord
100
AcDbLayerTableRecord
  2
06_SURFS
 70
0
 62
7
  6
CONTINUOUS
370
-3
390
F
  0
LAYER
  5
205
100
AcDbSymbolTableRecord
100
AcDbLayerTableRecord
  2
07_COSMETICS
 70
0
 62
7
  6
CONTINUOUS
370
-3
390
F
  0
LAYER
  5
206
100
AcDbSymbolTableRecord
100
AcDbLayerTableRecord
  2
10_NOTES
 70
0
 62
7
  6
CONTINUOUS
370
-3
390
F
  0
LAYER
  5
207
100
AcDbSymbolTableRecord
100
AcDbLayerTableRecord
  2
11_NOTES_PUB
 70
0
 62
7
  6
CONTINUOUS
370
-3
390
F
  0
LAYER
  5
208
100
AcDbSymbolTableRecord
100
AcDbLayerTableRecord
  2
13_REF_GTOL
 70
0
 62
7
  6
CONTINUOUS
370
-3
390
F
  0
LAYER
  5
209
100
AcDbSymbolTableRecord
100
AcDbLayerTableRecord
  2
16_MISC
 70
0
 62
7
  6
CONTINUOUS
370
-3
390
F
  0
LAYER
  5
20A
100
AcDbSymbolTableRecord
100
AcDbLayerTableRecord
  2
17_NO_PRINT
 70
0
 62
7
  6
CONTINUOUS
370
-3
390
F
  0
LAYER
  5
20B
100
AcDbSymbolTableRecord
100
AcDbLayerTableRecord
  2
18_DATUM_CAMS_JOINTS
 70
0
 62
7
  6
CONTINUOUS
370
-3
390
F
  0
LAYER
  5
20C
100
AcDbSymbolTableRecord
100
AcDbLayerTableRecord
  2
19_DATUM_FUNCTIONAL
 70
0
 62
7
  6
CONTINUOUS
370
-3
390
F
  0
LAYER
  5
20D
100
AcDbSymbolTableRecord
100
AcDbLayerTableRecord
  2
20_DATUM_KINEMATIC_SCHEME
 70
0
 62
7
  6
CONTINUOUS
370
-3
390
F
  0
ENDTAB
  0
TABLE
  2
STYLE
  5
3
100
AcDbSymbolTable
 70
1
  0
STYLE
  5
11
100
AcDbSymbolTableRecord
100
AcDbTextStyleTableRecord
  2
STANDARD
 70
0
 40
0.0
 41
0.8
 50
0.0
 71
0
 42
0.2
  3
txt
  4

  0
STYLE
  5
20E
100
AcDbSymbolTableRecord
100
AcDbTextStyleTableRecord
  2
TEXTSTYLE_1
 70
0
 40
0.0
 41
0.8
 50
0.0
 71
0
 42
0.2
  3
gdt
  4

  0
ENDTAB
  0
TABLE
  2
VIEW
  5
6
100
AcDbSymbolTable
 70
0
  0
ENDTAB
  0
TABLE
  2
UCS
  5
7
100
AcDbSymbolTable
 70
0
  0
ENDTAB
  0
TABLE
  2
APPID
  5
9
100
AcDbSymbolTable
 70
1
  0
APPID
  5
20F
100
AcDbSymbolTableRecord
100
AcDbRegAppTableRecord
  2
ACAD
 70
0
  0
ENDTAB
  0
TABLE
  2
BLOCK_RECORD
  5
1
100
AcDbSymbolTable
 70
0
  0
BLOCK_RECORD
  5
210
100
AcDbSymbolTableRecord
100
AcDbBlockTableRecord
  2
*Model_Space
  0
BLOCK_RECORD
  5
211
100
AcDbSymbolTableRecord
100
AcDbBlockTableRecord
  2
*Paper_Space
  0
BLOCK_RECORD
  5
212
100
AcDbSymbolTableRecord
100
AcDbBlockTableRecord
  2
_FILLED
  0
ENDTAB
  0
TABLE
  2
DIMSTYLE
  5
A
100
AcDbSymbolTable
 70
1
100
AcDbDimStyleTable
 71
0
  0
DIMSTYLE
105
213
100
AcDbSymbolTableRecord
100
AcDbDimStyleTableRecord
  2
STANDARD
 70
0
  3

  4

 40
1.0
 41
9.3332130832
 42
1.0
 43
0.38
 44
1.0
 45
0.0
 46
0.0
 47
0.01
 48
0.01
140
13.0664983165
141
0.09
142
0.0
143
25.4
144
1.0
145
0.0
146
1.0
147
0.625
 71
1
 72
0
 73
0
 74
0
 75
0
 76
0
 77
1
 78
8
 79
2
170
0
171
1
172
0
173
0
174
0
175
0
176
0
177
0
178
0
270
2
179
2
271
2
272
2
273
2
274
2
275
0
280
0
281
0
282
0
283
1
284
8
285
0
286
0
287
3
288
0
340
11
278
46
341
212
342
212
343
212
344
212
  0
ENDTAB
  0
ENDSEC
  0
SECTION
  2
BLOCKS
  0
BLOCK
  5
20
100
AcDbEntity
  8
0
100
AcDbBlockBegin
  2
*Model_Space
 70
0
 10
0.0
 20
0.0
 30
0.0
  3
*Model_Space
  1

  0
ENDBLK
  5
21
100
AcDbEntity
  8
0
100
AcDbBlockEnd
  0
BLOCK
  5
1C
100
AcDbEntity
  8
0
100
AcDbBlockBegin
  2
*Paper_Space
 70
0
 10
0.0
 20
0.0
 30
0.0
  3
*Paper_Space
  1

  0
ENDBLK
  5
1D
100
AcDbEntity
  8
0
100
AcDbBlockEnd
  0
BLOCK
  5
214
100
AcDbEntity
  8
0
100
AcDbBlockBegin
  2
_FILLED
 70
64
 10
0.0
 20
0.0
  3
_FILLED
  1

  0
SOLID
  5
215
100
AcDbEntity
  8
0
  6
BYBLOCK
 62
0
100
AcDbTrace
 10
0.0
 20
0.0
 11
-1.0
 21
0.25
 12
-1.0
 22
-0.25
 13
-1.0
 23
-0.25
  0
ENDBLK
  5
216
100
AcDbEntity
  8
0
  6
BYBLOCK
 62
0
100
AcDbBlockEnd
  0
ENDSEC
  0
SECTION
  2
ENTITIES
  0
LINE
  5
217
100
AcDbEntity
  8
0
100
AcDbLine
 62
7
  6
CONTINUOUS
 10
642.8520923521
 20
82.1071428571
 11
143.8520923521
 21
82.1071428571
  0
LINE
  5
218
100
AcDbEntity
  8
0
100
AcDbLine
 62
7
  6
CONTINUOUS
 10
647.8520923521
 20
86.6071428571
 11
647.3520923521
 21
86.6071428571
  0
LINE
  5
219
100
AcDbEntity
  8
0
100
AcDbLine
 62
7
  6
CONTINUOUS
 10
139.3520923521
 20
86.6071428571
 11
138.8520923521
 21
86.6071428571
  0
LINE
  5
21A
100
AcDbEntity
  8
0
100
AcDbLine
 62
7
  6
CONTINUOUS
 10
664.3520923521
 20
97.1071428571
 11
661.8373737263
 21
97.1071428571
  0
LINE
  5
21B
100
AcDbEntity
  8
0
100
AcDbLine
 62
7
  6
CONTINUOUS
 10
124.8668109779
 20
97.1071428571
 11
122.3520923521
 21
97.1071428571
  0
LINE
  5
21C
100
AcDbEntity
  8
0
100
AcDbLine
 62
7
  6
CONTINUOUS
 10
119.8520923521
 20
112.1071428571
 11
118.3520923521
 21
112.1071428571
  0
LINE
  5
21D
100
AcDbEntity
  8
0
100
AcDbLine
 62
7
  6
CONTINUOUS
 10
666.8520923521
 20
112.1071428571
 11
668.3520923521
 21
112.1071428571
  0
LINE
  5
21E
100
AcDbEntity
  8
0
100
AcDbLine
 62
7
  6
CONTINUOUS
 10
657.1020923521
 20
128.6071428571
 11
654.6020923521
 21
128.6071428571
  0
LINE
  5
21F
100
AcDbEntity
  8
0
100
AcDbLine
 62
7
  6
CONTINUOUS
 10
132.1020923521
 20
128.6071428571
 11
129.6020923521
 21
128.6071428571
  0
LINE
  5
220
100
AcDbEntity
  8
0
100
AcDbLine
 62
7
  6
CONTINUOUS
 10
129.6020923521
 20
129.1071428571
 11
132.1020923521
 21
129.1071428571
  0
LINE
  5
221
100
AcDbEntity
  8
0
100
AcDbLine
 62
7
  6
CONTINUOUS
 10
654.6020923521
 20
129.1071428571
 11
657.1020923521
 21
129.1071428571
  0
LINE
  5
222
100
AcDbEntity
  8
0
100
AcDbLine
 62
7
  6
CONTINUOUS
 10
658.3520923521
 20
130.3571428571
 11
653.3520923521
 21
130.3571428571
  0
LINE
  5
223
100
AcDbEntity
  8
0
100
AcDbLine
 62
7
  6
CONTINUOUS
 10
133.3520923521
 20
130.3571428571
 11
128.3520923521
 21
130.3571428571
  0
LINE
  5
224
100
AcDbEntity
  8
0
100
AcDbLine
 62
7
  6
CONTINUOUS
 10
128.3520923521
 20
130.8571428571
 11
133.3520923521
 21
130.8571428571
  0
LINE
  5
225
100
AcDbEntity
  8
0
100
AcDbLine
 62
7
  6
CONTINUOUS
 10
653.3520923521
 20
130.8571428571
 11
658.3520923521
 21
130.8571428571
  0
LINE
  5
226
100
AcDbEntity
  8
0
100
AcDbLine
 62
7
  6
CONTINUOUS
 10
659.8520923521
 20
132.1071428571
 11
651.8520923521
 21
132.1071428571
  0
LINE
  5
227
100
AcDbEntity
  8
0
100
AcDbLine
 62
7
  6
CONTINUOUS
 10
134.8520923521
 20
132.1071428571
 11
126.8520923521
 21
132.1071428571
  0
LINE
  5
228
100
AcDbEntity
  8
0
100
AcDbLine
 62
7
  6
CONTINUOUS
 10
126.8520923521
 20
132.6071428571
 11
130.6020923521
 21
132.6071428571
  0
LINE
  5
229
100
AcDbEntity
  8
0
100
AcDbLine
 62
7
  6
CONTINUOUS
 10
131.1020923521
 20
132.6071428571
 11
134.8520923521
 21
132.6071428571
  0
LINE
  5
22A
100
AcDbEntity
  8
0
100
AcDbLine
 62
7
  6
CONTINUOUS
 10
651.8520923521
 20
132.6071428571
 11
655.6020923521
 21
132.6071428571
  0
LINE
  5
22B
100
AcDbEntity
  8
0
100
AcDbLine
 62
7
  6
CONTINUOUS
 10
656.1020923521
 20
132.6071428571
 11
659.8520923521
 21
132.6071428571
  0
LINE
  5
22C
100
AcDbEntity
  8
0
100
AcDbLine
 62
7
  6
CONTINUOUS
 10
130.6020923521
 20
136.1071428571
 11
131.1020923521
 21
136.1071428571
  0
LINE
  5
22D
100
AcDbEntity
  8
0
100
AcDbLine
 62
7
  6
CONTINUOUS
 10
655.6020923521
 20
136.1071428571
 11
656.1020923521
 21
136.1071428571
  0
LINE
  5
22E
100
AcDbEntity
  8
0
100
AcDbLine
 62
7
  6
CONTINUOUS
 10
118.3520923521
 20
112.1071428571
 11
118.3520923521
 21
1002.1071428571
  0
LINE
  5
22F
100
AcDbEntity
  8
0
100
AcDbLine
 62
7
  6
CONTINUOUS
 10
122.3520923521
 20
97.1071428571
 11
122.3520923521
 21
109.6071428571
  0
LINE
  5
230
100
AcDbEntity
  8
0
100
AcDbLine
 62
7
  6
CONTINUOUS
 10
122.3520923521
 20
1004.6071428571
 11
122.3520923521
 21
1017.1071428571
  0
LINE
  5
231
100
AcDbEntity
  8
0
100
AcDbLine
 62
7
  6
CONTINUOUS
 10
126.8520923521
 20
132.1071428571
 11
126.8520923521
 21
132.6071428571
  0
LINE
  5
232
100
AcDbEntity
  8
0
100
AcDbLine
 62
7
  6
CONTINUOUS
 10
126.8520923521
 20
981.6071428571
 11
126.8520923521
 21
982.1071428571
  0
LINE
  5
233
100
AcDbEntity
  8
0
100
AcDbLine
 62
7
  6
CONTINUOUS
 10
128.3520923521
 20
130.3571428571
 11
128.3520923521
 21
130.8571428571
  0
LINE
  5
234
100
AcDbEntity
  8
0
100
AcDbLine
 62
7
  6
CONTINUOUS
 10
128.3520923521
 20
983.3571428571
 11
128.3520923521
 21
983.8571428571
  0
LINE
  5
235
100
AcDbEntity
  8
0
100
AcDbLine
 62
7
  6
CONTINUOUS
 10
129.6020923521
 20
128.6071428571
 11
129.6020923521
 21
129.1071428571
  0
LINE
  5
236
100
AcDbEntity
  8
0
100
AcDbLine
 62
7
  6
CONTINUOUS
 10
129.6020923521
 20
985.1071428571
 11
129.6020923521
 21
985.6071428571
  0
LINE
  5
237
100
AcDbEntity
  8
0
100
AcDbLine
 62
7
  6
CONTINUOUS
 10
130.6020923521
 20
132.6071428571
 11
130.6020923521
 21
136.1071428571
  0
LINE
  5
238
100
AcDbEntity
  8
0
100
AcDbLine
 62
7
  6
CONTINUOUS
 10
130.6020923521
 20
978.1071428571
 11
130.6020923521
 21
981.6071428571
  0
LINE
  5
239
100
AcDbEntity
  8
0
100
AcDbLine
 62
7
  6
CONTINUOUS
 10
131.1020923521
 20
981.6071428571
 11
131.1020923521
 21
978.1071428571
  0
LINE
  5
23A
100
AcDbEntity
  8
0
100
AcDbLine
 62
7
  6
CONTINUOUS
 10
131.1020923521
 20
136.1071428571
 11
131.1020923521
 21
132.6071428571
  0
LINE
  5
23B
100
AcDbEntity
  8
0
100
AcDbLine
 62
7
  6
CONTINUOUS
 10
132.1020923521
 20
985.6071428571
 11
132.1020923521
 21
985.1071428571
  0
LINE
  5
23C
100
AcDbEntity
  8
0
100
AcDbLine
 62
7
  6
CONTINUOUS
 10
132.1020923521
 20
129.1071428571
 11
132.1020923521
 21
128.6071428571
  0
LINE
  5
23D
100
AcDbEntity
  8
0
100
AcDbLine
 62
7
  6
CONTINUOUS
 10
133.3520923521
 20
983.8571428571
 11
133.3520923521
 21
983.3571428571
  0
LINE
  5
23E
100
AcDbEntity
  8
0
100
AcDbLine
 62
7
  6
CONTINUOUS
 10
133.3520923521
 20
130.8571428571
 11
133.3520923521
 21
130.3571428571
  0
LINE
  5
23F
100
AcDbEntity
  8
0
100
AcDbLine
 62
7
  6
CONTINUOUS
 10
134.8520923521
 20
982.1071428571
 11
134.8520923521
 21
981.6071428571
  0
LINE
  5
240
100
AcDbEntity
  8
0
100
AcDbLine
 62
7
  6
CONTINUOUS
 10
134.8520923521
 20
132.6071428571
 11
134.8520923521
 21
132.1071428571
  0
LINE
  5
241
100
AcDbEntity
  8
0
100
AcDbLine
 62
7
  6
CONTINUOUS
 10
136.8520923521
 20
88.6071428571
 11
136.8520923521
 21
94.6071428571
  0
LINE
  5
242
100
AcDbEntity
  8
0
100
AcDbLine
 62
7
  6
CONTINUOUS
 10
136.8520923521
 20
1019.6071428571
 11
136.8520923521
 21
1025.6071428571
  0
LINE
  5
243
100
AcDbEntity
  8
0
100
AcDbLine
 62
7
  6
CONTINUOUS
 10
661.8373737263
 20
1017.1071428571
 11
660.0947330391
 21
1015.3645021699
  0
LINE
  5
244
100
AcDbEntity
  8
0
100
AcDbLine
 62
7
  6
CONTINUOUS
 10
660.0947330391
 20
98.8497835444
 11
661.8373737263
 21
97.1071428571
  0
LINE
  5
245
100
AcDbEntity
  8
0
100
AcDbLine
 62
7
  6
CONTINUOUS
 10
124.8668109779
 20
97.1071428571
 11
126.6094516651
 21
98.8497835444
  0
LINE
  5
246
100
AcDbEntity
  8
0
100
AcDbLine
 62
7
  6
CONTINUOUS
 10
126.6094516651
 20
1015.3645021699
 11
124.8668109779
 21
1017.1071428571
  0
LINE
  5
247
100
AcDbEntity
  8
0
100
AcDbLine
 62
7
  6
CONTINUOUS
 10
649.8520923521
 20
1025.6071428571
 11
649.8520923521
 21
1019.6071428571
  0
LINE
  5
248
100
AcDbEntity
  8
0
100
AcDbLine
 62
7
  6
CONTINUOUS
 10
649.8520923521
 20
94.6071428571
 11
649.8520923521
 21
88.6071428571
  0
LINE
  5
249
100
AcDbEntity
  8
0
100
AcDbLine
 62
7
  6
CONTINUOUS
 10
651.8520923521
 20
132.1071428571
 11
651.8520923521
 21
132.6071428571
  0
LINE
  5
24A
100
AcDbEntity
  8
0
100
AcDbLine
 62
7
  6
CONTINUOUS
 10
651.8520923521
 20
981.6071428571
 11
651.8520923521
 21
982.1071428571
  0
LINE
  5
24B
100
AcDbEntity
  8
0
100
AcDbLine
 62
7
  6
CONTINUOUS
 10
653.3520923521
 20
130.3571428571
 11
653.3520923521
 21
130.8571428571
  0
LINE
  5
24C
100
AcDbEntity
  8
0
100
AcDbLine
 62
7
  6
CONTINUOUS
 10
653.3520923521
 20
983.3571428571
 11
653.3520923521
 21
983.8571428571
  0
LINE
  5
24D
100
AcDbEntity
  8
0
100
AcDbLine
 62
7
  6
CONTINUOUS
 10
654.6020923521
 20
128.6071428571
 11
654.6020923521
 21
129.1071428571
  0
LINE
  5
24E
100
AcDbEntity
  8
0
100
AcDbLine
 62
7
  6
CONTINUOUS
 10
654.6020923521
 20
985.1071428571
 11
654.6020923521
 21
985.6071428571
  0
LINE
  5
24F
100
AcDbEntity
  8
0
100
AcDbLine
 62
7
  6
CONTINUOUS
 10
655.6020923521
 20
132.6071428571
 11
655.6020923521
 21
136.1071428571
  0
LINE
  5
250
100
AcDbEntity
  8
0
100
AcDbLine
 62
7
  6
CONTINUOUS
 10
655.6020923521
 20
978.1071428571
 11
655.6020923521
 21
981.6071428571
  0
LINE
  5
251
100
AcDbEntity
  8
0
100
AcDbLine
 62
7
  6
CONTINUOUS
 10
656.1020923521
 20
981.6071428571
 11
656.1020923521
 21
978.1071428571
  0
LINE
  5
252
100
AcDbEntity
  8
0
100
AcDbLine
 62
7
  6
CONTINUOUS
 10
656.1020923521
 20
136.1071428571
 11
656.1020923521
 21
132.6071428571
  0
LINE
  5
253
100
AcDbEntity
  8
0
100
AcDbLine
 62
7
  6
CONTINUOUS
 10
657.1020923521
 20
985.6071428571
 11
657.1020923521
 21
985.1071428571
  0
LINE
  5
254
100
AcDbEntity
  8
0
100
AcDbLine
 62
7
  6
CONTINUOUS
 10
657.1020923521
 20
129.1071428571
 11
657.1020923521
 21
128.6071428571
  0
LINE
  5
255
100
AcDbEntity
  8
0
100
AcDbLine
 62
7
  6
CONTINUOUS
 10
658.3520923521
 20
983.8571428571
 11
658.3520923521
 21
983.3571428571
  0
LINE
  5
256
100
AcDbEntity
  8
0
100
AcDbLine
 62
7
  6
CONTINUOUS
 10
658.3520923521
 20
130.8571428571
 11
658.3520923521
 21
130.3571428571
  0
LINE
  5
257
100
AcDbEntity
  8
0
100
AcDbLine
 62
7
  6
CONTINUOUS
 10
659.8520923521
 20
982.1071428571
 11
659.8520923521
 21
981.6071428571
  0
LINE
  5
258
100
AcDbEntity
  8
0
100
AcDbLine
 62
7
  6
CONTINUOUS
 10
659.8520923521
 20
132.6071428571
 11
659.8520923521
 21
132.1071428571
  0
LINE
  5
259
100
AcDbEntity
  8
0
100
AcDbLine
 62
7
  6
CONTINUOUS
 10
664.3520923521
 20
1017.1071428571
 11
664.3520923521
 21
1004.6071428571
  0
LINE
  5
25A
100
AcDbEntity
  8
0
100
AcDbLine
 62
7
  6
CONTINUOUS
 10
664.3520923521
 20
109.6071428571
 11
664.3520923521
 21
97.1071428571
  0
LINE
  5
25B
100
AcDbEntity
  8
0
100
AcDbLine
 62
7
  6
CONTINUOUS
 10
668.3520923521
 20
1002.1071428571
 11
668.3520923521
 21
112.1071428571
  0
LINE
  5
25C
100
AcDbEntity
  8
0
100
AcDbLine
 62
7
  6
CONTINUOUS
 10
656.1020923521
 20
978.1071428571
 11
655.6020923521
 21
978.1071428571
  0
LINE
  5
25D
100
AcDbEntity
  8
0
100
AcDbLine
 62
7
  6
CONTINUOUS
 10
131.1020923521
 20
978.1071428571
 11
130.6020923521
 21
978.1071428571
  0
LINE
  5
25E
100
AcDbEntity
  8
0
100
AcDbLine
 62
7
  6
CONTINUOUS
 10
659.8520923521
 20
981.6071428571
 11
656.1020923521
 21
981.6071428571
  0
LINE
  5
25F
100
AcDbEntity
  8
0
100
AcDbLine
 62
7
  6
CONTINUOUS
 10
655.6020923521
 20
981.6071428571
 11
651.8520923521
 21
981.6071428571
  0
LINE
  5
260
100
AcDbEntity
  8
0
100
AcDbLine
 62
7
  6
CONTINUOUS
 10
134.8520923521
 20
981.6071428571
 11
131.1020923521
 21
981.6071428571
  0
LINE
  5
261
100
AcDbEntity
  8
0
100
AcDbLine
 62
7
  6
CONTINUOUS
 10
130.6020923521
 20
981.6071428571
 11
126.8520923521
 21
981.6071428571
  0
LINE
  5
262
100
AcDbEntity
  8
0
100
AcDbLine
 62
7
  6
CONTINUOUS
 10
126.8520923521
 20
982.1071428571
 11
134.8520923521
 21
982.1071428571
  0
LINE
  5
263
100
AcDbEntity
  8
0
100
AcDbLine
 62
7
  6
CONTINUOUS
 10
651.8520923521
 20
982.1071428571
 11
659.8520923521
 21
982.1071428571
  0
LINE
  5
264
100
AcDbEntity
  8
0
100
AcDbLine
 62
7
  6
CONTINUOUS
 10
658.3520923521
 20
983.3571428571
 11
653.3520923521
 21
983.3571428571
  0
LINE
  5
265
100
AcDbEntity
  8
0
100
AcDbLine
 62
7
  6
CONTINUOUS
 10
133.3520923521
 20
983.3571428571
 11
128.3520923521
 21
983.3571428571
  0
LINE
  5
266
100
AcDbEntity
  8
0
100
AcDbLine
 62
7
  6
CONTINUOUS
 10
128.3520923521
 20
983.8571428571
 11
133.3520923521
 21
983.8571428571
  0
LINE
  5
267
100
AcDbEntity
  8
0
100
AcDbLine
 62
7
  6
CONTINUOUS
 10
653.3520923521
 20
983.8571428571
 11
658.3520923521
 21
983.8571428571
  0
LINE
  5
268
100
AcDbEntity
  8
0
100
AcDbLine
 62
7
  6
CONTINUOUS
 10
657.1020923521
 20
985.1071428571
 11
654.6020923521
 21
985.1071428571
  0
LINE
  5
269
100
AcDbEntity
  8
0
100
AcDbLine
 62
7
  6
CONTINUOUS
 10
132.1020923521
 20
985.1071428571
 11
129.6020923521
 21
985.1071428571
  0
LINE
  5
26A
100
AcDbEntity
  8
0
100
AcDbLine
 62
7
  6
CONTINUOUS
 10
129.6020923521
 20
985.6071428571
 11
132.1020923521
 21
985.6071428571
  0
LINE
  5
26B
100
AcDbEntity
  8
0
100
AcDbLine
 62
7
  6
CONTINUOUS
 10
654.6020923521
 20
985.6071428571
 11
657.1020923521
 21
985.6071428571
  0
LINE
  5
26C
100
AcDbEntity
  8
0
100
AcDbLine
 62
7
  6
CONTINUOUS
 10
119.8520923521
 20
1002.1071428571
 11
118.3520923521
 21
1002.1071428571
  0
LINE
  5
26D
100
AcDbEntity
  8
0
100
AcDbLine
 62
7
  6
CONTINUOUS
 10
666.8520923521
 20
1002.1071428571
 11
668.3520923521
 21
1002.1071428571
  0
LINE
  5
26E
100
AcDbEntity
  8
0
100
AcDbLine
 62
7
  6
CONTINUOUS
 10
122.3520923521
 20
1017.1071428571
 11
124.8668109779
 21
1017.1071428571
  0
LINE
  5
26F
100
AcDbEntity
  8
0
100
AcDbLine
 62
7
  6
CONTINUOUS
 10
661.8373737263
 20
1017.1071428571
 11
664.3520923521
 21
1017.1071428571
  0
LINE
  5
270
100
AcDbEntity
  8
0
100
AcDbLine
 62
7
  6
CONTINUOUS
 10
138.8520923521
 20
1027.6071428571
 11
139.3520923521
 21
1027.6071428571
  0
LINE
  5
271
100
AcDbEntity
  8
0
100
AcDbLine
 62
7
  6
CONTINUOUS
 10
647.3520923521
 20
1027.6071428571
 11
647.8520923521
 21
1027.6071428571
  0
LINE
  5
272
100
AcDbEntity
  8
0
100
AcDbLine
 62
7
  6
CONTINUOUS
 10
143.8520923521
 20
1032.1071428571
 11
642.8520923521
 21
1032.1071428571
  0
ARC
  5
273
100
AcDbEntity
  8
0
100
AcDbCircle
 62
7
  6
CONTINUOUS
 10
130.8520923521
 20
94.6071428571
 40
6.0
100
AcDbArc
 50
0.0
 51
134.9999999985
  0
CIRCLE
  5
274
100
AcDbEntity
  8
0
100
AcDbCircle
 62
7
  6
CONTINUOUS
 10
130.8520923521
 20
132.1071428571
 40
5.0
  0
ARC
  5
275
100
AcDbEntity
  8
0
100
AcDbCircle
 62
7
  6
CONTINUOUS
 10
139.3520923521
 20
82.1071428571
 40
4.5
100
AcDbArc
 50
0.0
 51
90.0
  0
CIRCLE
  5
276
100
AcDbEntity
  8
0
100
AcDbCircle
 62
7
  6
CONTINUOUS
 10
130.8520923521
 20
132.1071428571
 40
4.5
  0
CIRCLE
  5
277
100
AcDbEntity
  8
0
100
AcDbCircle
 62
7
  6
CONTINUOUS
 10
130.8520923521
 20
119.6071428571
 40
4.0
  0
ARC
  5
278
100
AcDbEntity
  8
0
100
AcDbCircle
 62
7
  6
CONTINUOUS
 10
119.8520923521
 20
109.6071428571
 40
2.5
100
AcDbArc
 50
0.0
 51
90.0
  0
ARC
  5
279
100
AcDbEntity
  8
0
100
AcDbCircle
 62
7
  6
CONTINUOUS
 10
138.8520923521
 20
88.6071428571
 40
2.0
100
AcDbArc
 50
180.0
 51
270.0
  0
ARC
  5
27A
100
AcDbEntity
  8
0
100
AcDbCircle
 62
7
  6
CONTINUOUS
 10
130.8520923521
 20
1019.6071428571
 40
6.0
100
AcDbArc
 50
225.0000000015
 51
360.0
  0
CIRCLE
  5
27B
100
AcDbEntity
  8
0
100
AcDbCircle
 62
7
  6
CONTINUOUS
 10
130.8520923521
 20
982.1071428571
 40
5.0
  0
ARC
  5
27C
100
AcDbEntity
  8
0
100
AcDbCircle
 62
7
  6
CONTINUOUS
 10
139.3520923521
 20
1032.1071428571
 40
4.5
100
AcDbArc
 50
270.0
 51
360.0
  0
CIRCLE
  5
27D
100
AcDbEntity
  8
0
100
AcDbCircle
 62
7
  6
CONTINUOUS
 10
130.8520923521
 20
982.1071428571
 40
4.5
  0
CIRCLE
  5
27E
100
AcDbEntity
  8
0
100
AcDbCircle
 62
7
  6
CONTINUOUS
 10
130.8520923521
 20
994.6071428571
 40
4.0
  0
ARC
  5
27F
100
AcDbEntity
  8
0
100
AcDbCircle
 62
7
  6
CONTINUOUS
 10
119.8520923521
 20
1004.6071428571
 40
2.5
100
AcDbArc
 50
270.0
 51
360.0
  0
ARC
  5
280
100
AcDbEntity
  8
0
100
AcDbCircle
 62
7
  6
CONTINUOUS
 10
138.8520923521
 20
1025.6071428571
 40
2.0
100
AcDbArc
 50
90.0
 51
180.0
  0
ARC
  5
281
100
AcDbEntity
  8
0
100
AcDbCircle
 62
7
  6
CONTINUOUS
 10
655.8520923521
 20
94.6071428571
 40
6.0
100
AcDbArc
 50
45.0000000015
 51
180.0
  0
CIRCLE
  5
282
100
AcDbEntity
  8
0
100
AcDbCircle
 62
7
  6
CONTINUOUS
 10
655.8520923521
 20
132.1071428571
 40
5.0
  0
ARC
  5
283
100
AcDbEntity
  8
0
100
AcDbCircle
 62
7
  6
CONTINUOUS
 10
647.3520923521
 20
82.1071428571
 40
4.5
100
AcDbArc
 50
90.0
 51
180.0
  0
CIRCLE
  5
284
100
AcDbEntity
  8
0
100
AcDbCircle
 62
7
  6
CONTINUOUS
 10
655.8520923521
 20
132.1071428571
 40
4.5
  0
CIRCLE
  5
285
100
AcDbEntity
  8
0
100
AcDbCircle
 62
7
  6
CONTINUOUS
 10
655.8520923521
 20
119.6071428571
 40
4.0
  0
ARC
  5
286
100
AcDbEntity
  8
0
100
AcDbCircle
 62
7
  6
CONTINUOUS
 10
666.8520923521
 20
109.6071428571
 40
2.5
100
AcDbArc
 50
90.0
 51
180.0
  0
ARC
  5
287
100
AcDbEntity
  8
0
100
AcDbCircle
 62
7
  6
CONTINUOUS
 10
647.8520923521
 20
88.6071428571
 40
2.0
100
AcDbArc
 50
270.0
 51
360.0
  0
ARC
  5
288
100
AcDbEntity
  8
0
100
AcDbCircle
 62
7
  6
CONTINUOUS
 10
655.8520923521
 20
1019.6071428571
 40
6.0
100
AcDbArc
 50
180.0
 51
314.9999999985
  0
CIRCLE
  5
289
100
AcDbEntity
  8
0
100
AcDbCircle
 62
7
  6
CONTINUOUS
 10
655.8520923521
 20
982.1071428571
 40
5.0
  0
ARC
  5
28A
100
AcDbEntity
  8
0
100
AcDbCircle
 62
7
  6
CONTINUOUS
 10
647.3520923521
 20
1032.1071428571
 40
4.5
100
AcDbArc
 50
180.0
 51
270.0
  0
CIRCLE
  5
28B
100
AcDbEntity
  8
0
100
AcDbCircle
 62
7
  6
CONTINUOUS
 10
655.8520923521
 20
982.1071428571
 40
4.5
  0
CIRCLE
  5
28C
100
AcDbEntity
  8
0
100
AcDbCircle
 62
7
  6
CONTINUOUS
 10
655.8520923521
 20
994.6071428571
 40
4.0
  0
ARC
  5
28D
100
AcDbEntity
  8
0
100
AcDbCircle
 62
7
  6
CONTINUOUS
 10
666.8520923521
 20
1004.6071428571
 40
2.5
100
AcDbArc
 50
180.0
 51
270.0
  0
ARC
  5
28E
100
AcDbEntity
  8
0
100
AcDbCircle
 62
7
  6
CONTINUOUS
 10
647.8520923521
 20
1025.6071428571
 40
2.0
100
AcDbArc
 50
0.0
 51
90.0
  0
ENDSEC
  0
SECTION
  2
OBJECTS
  0
DICTIONARY
  5
C
100
AcDbDictionary
280
0
281
1
  3
ACAD_GROUP
350
D
  3
ACAD_MLINESTYLE
350
17
  3
ACAD_LAYOUT
350
1A
  3
ACAD_PLOTSETTINGS
350
19
  3
ACAD_PLOTSTYLENAME
350
E
  0
DICTIONARY
  5
D
102
{ACAD_REACTORS
330
C
102
}
100
AcDbDictionary
280
0
281
1
  0
ACDBDICTIONARYWDFLT
  5
E
102
{ACAD_REACTORS
330
C
102
}
100
AcDbDictionary
281
1
  3
Normal
350
F
100
AcDbDictionaryWithDefault
340
F
  0
DICTIONARY
  5
17
102
{ACAD_REACTORS
330
C
102
}
100
AcDbDictionary
280
0
281
1
  3
Standard
350
18
  0
DICTIONARY
  5
19
102
{ACAD_REACTORS
330
C
102
}
100
AcDbDictionary
281
1
  0
DICTIONARY
  5
1A
102
{ACAD_REACTORS
330
C
102
}
100
AcDbDictionary
281
1
  3
Model
350
28F
  3
Layout1
350
290
  0
ACDBPLACEHOLDER
  5
F
102
{ACAD_REACTORS
330
E
102
}
  0
MLINESTYLE
  5
18
102
{ACAD_REACTORS
330
17
102
}
100
AcDbMlineStyle
  2
STANDARD
 70
0
  3

 62
256
 51
90.0
 52
90.0
 71
2
 49
0.5
 62
256
  6
BYLAYER
 49
-0.5
 62
256
  6
BYLAYER
  0
LAYOUT
  5
28F
102
{ACAD_REACTORS
330
1A
102
}
100
AcDbPlotSettings
  1

  2
none_device
  4

  6

 40
0.0
 41
0.0
 42
0.0
 43
0.0
 44
210.0
 45
297.0
 46
0.0
 47
0.0
 48
0.0
 49
0.0
140
0.0
141
0.0
142
1.0
143
1.0
 70
1024
 72
1
 73
0
 74
0
  7

 75
0
147
1.0
148
0.0
149
0.0
100
AcDbLayout
  1
Model
 70
0
 71
0
 10
0.0
 20
0.0
 11
210.0
 21
297.0
 12
0.0
 22
0.0
 32
0.0
 14
0.0
 24
0.0
 34
0.0
 15
0.0
 25
0.0
 35
0.0
146
0.0
 13
0.0
 23
0.0
 33
0.0
 16
1.0
 26
0.0
 36
0.0
 17
0.0
 27
1.0
 37
0.0
 76
0
330
210
345
0
346
0
  0
LAYOUT
  5
290
102
{ACAD_REACTORS
330
1A
102
}
100
AcDbPlotSettings
  1

  2
none_device
  4

  6

 40
0.0
 41
0.0
 42
0.0
 43
0.0
 44
210.0
 45
297.0
 46
0.0
 47
0.0
 48
0.0
 49
0.0
140
0.0
141
0.0
142
1.0
143
1.0
 70
0
 72
1
 73
0
 74
0
  7

 75
0
147
1.0
148
0.0
149
0.0
100
AcDbLayout
  1
Layout1
 70
0
 71
1
 10
0.0
 20
0.0
 11
210.0
 21
297.0
 12
0.0
 22
0.0
 32
0.0
 14
0.0
 24
0.0
 34
0.0
 15
0.0
 25
0.0
 35
0.0
146
0.0
 13
0.0
 23
0.0
 33
0.0
 16
1.0
 26
0.0
 36
0.0
 17
0.0
 27
1.0
 37
0.0
 76
0
330
211
345
0
346
0
  0
ENDSEC
  0
EOF
