999
DXF file: C:\Users\sesa63760\Dev\_Creo\CAD\MCADID0005027_3D-CAD\drw0001_3.dxf
999
Pro/ENGINEER 2019471 by Parametric Technology Corporation
  0
SECTION
  2
HEADER
  9
$ACADVER
  1
AC1024
  9
$DWGCODEPAGE
  3
ANSI_1252
  9
$EXTMAX
 10
62.8762037719
 20
88.9249167631
 30
0.0
  9
$EXTMIN
 10
0.0
 20
0.0
 30
0.0
  9
$LIMMIN
 10
0.0
 20
0.0
  9
$LIMMAX
 10
62.8762037719
 20
88.9249167631
  9
$VIEWCTR
 10
31.4381018859
 20
44.4624583815
  9
$VIEWSIZE
 40
88.9249167631
  9
$CLAYER
  8
0
  9
$LTSCALE
 40
5.7965871668
  9
$CELTYPE
  6
BYLAYER
  9
$DIMSCALE
 40
1.0
  9
$DIMASZ
 40
0.7485262354
  9
$DIMEXO
 40
1.0
  9
$DIMDLI
 40
4.0049147698
  9
$DIMEXE
 40
1.0
  9
$DIMCEN
 40
0.9485324455
  9
$DIMLFAC
 40
1.0
  9
$DIMBLK
  1
_FILLED
  9
$DIMALT
 70
0
  9
$DIMALTF
 40
0.0393700787
  9
$DIMTXT
 40
1.0479367295
  9
$DIMTOL
 70
1
  9
$DIMLIM
 70
0
  9
$DIMTFAC
 40
1.0
  9
$DIMTP
 40
0.01
  9
$DIMTM
 40
0.01
  9
$DIMGAP
 40
0.625
  9
$DIMDSEP
 70
46
  9
$AUNITS
 70
0
  9
$PDMODE
 70
3
  9
$PDSIZE
 40
0.3125
  9
$HANDSEED
  5
37E
  9
$TILEMODE
 70
1
  9
$MEASUREMENT
 70
1
  9
$INSUNITS
 70
4
  0
ENDSEC
  0
SECTION
  2
CLASSES
  0
CLASS
  1
ACDBDICTIONARYWDFLT
  2
AcDbDictionaryWithDefault
  3
AutoCAD 2000
 90
0
 91
1
280
0
281
0
  0
CLASS
  1
ACDBPLACEHOLDER
  2
AcDbPlaceHolder
  3
AutoCAD 2000
 90
0
 91
1
280
0
281
0
  0
CLASS
  1
LAYOUT
  2
AcDbLayout
  3
AutoCAD 2000
 90
0
 91
0
280
0
281
0
  0
ENDSEC
  0
SECTION
  2
TABLES
  0
TABLE
  2
VPORT
  5
8
100
AcDbSymbolTable
 70
2
  0
VPORT
  5
1F4
100
AcDbSymbolTableRecord
100
AcDbViewportTableRecord
  2
*ACTIVE
 70
0
 10
0.0
 20
0.0
 11
1.0
 21
1.0
 12
31.4381018859
 22
44.4624583815
 13
0.0
 23
0.0
 14
1.0
 24
1.0
 15
0.0
 25
0.0
 16
0.0
 26
0.0
 36
1.0
 17
0.0
 27
0.0
 37
0.0
 40
88.9249167631
 41
0.7070707071
 42
50.0
 43
0.0
 44
0.0
 50
0.0
 51
0.0
 71
0
 72
100
 73
1
 74
1
 75
0
 76
0
 77
0
 78
0
  0
ENDTAB
  0
TABLE
  2
LTYPE
  5
5
100
AcDbSymbolTable
 70
6
  0
LTYPE
  5
14
100
AcDbSymbolTableRecord
100
AcDbLinetypeTableRecord
  2
BYBLOCK
 70
0
  3

 72
65
 73
0
 40
0.0
  0
LTYPE
  5
15
100
AcDbSymbolTableRecord
100
AcDbLinetypeTableRecord
  2
BYLAYER
 70
0
  3

 72
65
 73
0
 40
0.0
  0
LTYPE
  5
16
100
AcDbSymbolTableRecord
100
AcDbLinetypeTableRecord
  2
CONTINUOUS
 70
64
  3
Solid line
 72
65
 73
0
 40
0.0
  0
LTYPE
  5
1F5
100
AcDbSymbolTableRecord
100
AcDbLinetypeTableRecord
  2
CENTER
 70
64
  3
____ _ ____ _ ____ _ ____ _ ____ _ ____ _ ____
 72
65
 73
4
 40
0.6
 49
0.375
 74
0
 49
-0.075
 74
0
 49
0.075
 74
0
 49
-0.075
 74
0
  0
LTYPE
  5
1F6
100
AcDbSymbolTableRecord
100
AcDbLinetypeTableRecord
  2
HIDDEN
 70
64
  3
- - - - - - - - - - - - - - - - - - - -
 72
65
 73
2
 40
0.2
 49
0.1
 74
0
 49
-0.1
 74
0
  0
LTYPE
  5
1F7
100
AcDbSymbolTableRecord
100
AcDbLinetypeTableRecord
  2
PHANTOM
 70
64
  3
_____ _ _ _____ _ _ _____ _ _ _____
 72
65
 73
6
 40
0.8
 49
0.45
 74
0
 49
-0.05
 74
0
 49
0.1
 74
0
 49
-0.05
 74
0
 49
0.1
 74
0
 49
-0.05
 74
0
  0
LTYPE
  5
1F8
100
AcDbSymbolTableRecord
100
AcDbLinetypeTableRecord
  2
DOT
 70
64
  3
. . . . . . . . . . . . . . . . . . . .
 72
65
 73
2
 40
0.2
 49
0.1
 74
0
 49
-0.1
 74
0
  0
LTYPE
  5
1F9
100
AcDbSymbolTableRecord
100
AcDbLinetypeTableRecord
  2
DASHED
 70
64
  3
- - - - - - - - - - - - - - - - - - - -
 72
65
 73
2
 40
0.2
 49
0.1
 74
0
 49
-0.1
 74
0
  0
ENDTAB
  0
TABLE
  2
LAYER
  5
2
100
AcDbSymbolTable
 70
36
  0
LAYER
  5
10
100
AcDbSymbolTableRecord
100
AcDbLayerTableRecord
  2
0
 70
0
 62
7
  6
CONTINUOUS
370
-3
390
F
  0
LAYER
  5
1FA
100
AcDbSymbolTableRecord
100
AcDbLayerTableRecord
  2
DEFAULT_1
 70
0
 62
7
  6
CENTER
370
-3
390
F
  0
LAYER
  5
1FB
100
AcDbSymbolTableRecord
100
AcDbLayerTableRecord
  2
DEFAULT_2
 70
0
 62
7
  6
HIDDEN
370
-3
390
F
  0
LAYER
  5
1FC
100
AcDbSymbolTableRecord
100
AcDbLayerTableRecord
  2
DEFAULT_3
 70
0
 62
7
  6
PHANTOM
370
-3
390
F
  0
LAYER
  5
1FD
100
AcDbSymbolTableRecord
100
AcDbLayerTableRecord
  2
00_COMPONENTS
 70
0
 62
7
  6
CONTINUOUS
370
-3
390
F
  0
LAYER
  5
1FE
100
AcDbSymbolTableRecord
100
AcDbLayerTableRecord
  2
01_1_DEFAULT_DATUMS
 70
0
 62
7
  6
CONTINUOUS
370
-3
390
F
  0
LAYER
  5
1FF
100
AcDbSymbolTableRecord
100
AcDbLayerTableRecord
  2
01_PLANES
 70
0
 62
7
  6
CONTINUOUS
370
-3
390
F
  0
LAYER
  5
200
100
AcDbSymbolTableRecord
100
AcDbLayerTableRecord
  2
02_COORD_SYS
 70
0
 62
7
  6
CONTINUOUS
370
-3
390
F
  0
LAYER
  5
201
100
AcDbSymbolTableRecord
100
AcDbLayerTableRecord
  2
03_AXES
 70
0
 62
7
  6
CONTINUOUS
370
-3
390
F
  0
LAYER
  5
202
100
AcDbSymbolTableRecord
100
AcDbLayerTableRecord
  2
04_POINTS
 70
0
 62
7
  6
CONTINUOUS
370
-3
390
F
  0
LAYER
  5
203
100
AcDbSymbolTableRecord
100
AcDbLayerTableRecord
  2
05_CURVES
 70
0
 62
7
  6
CONTINUOUS
370
-3
390
F
  0
LAYER
  5
204
100
AcDbSymbolTableRecord
100
AcDbLayerTableRecord
  2
06_SURFS
 70
0
 62
7
  6
CONTINUOUS
370
-3
390
F
  0
LAYER
  5
205
100
AcDbSymbolTableRecord
100
AcDbLayerTableRecord
  2
07_COSMETICS
 70
0
 62
7
  6
CONTINUOUS
370
-3
390
F
  0
LAYER
  5
206
100
AcDbSymbolTableRecord
100
AcDbLayerTableRecord
  2
10_NOTES
 70
0
 62
7
  6
CONTINUOUS
370
-3
390
F
  0
LAYER
  5
207
100
AcDbSymbolTableRecord
100
AcDbLayerTableRecord
  2
11_NOTES_PUB
 70
0
 62
7
  6
CONTINUOUS
370
-3
390
F
  0
LAYER
  5
208
100
AcDbSymbolTableRecord
100
AcDbLayerTableRecord
  2
13_REF_GTOL
 70
0
 62
7
  6
CONTINUOUS
370
-3
390
F
  0
LAYER
  5
209
100
AcDbSymbolTableRecord
100
AcDbLayerTableRecord
  2
16_MISC
 70
0
 62
7
  6
CONTINUOUS
370
-3
390
F
  0
LAYER
  5
20A
100
AcDbSymbolTableRecord
100
AcDbLayerTableRecord
  2
17_NO_PRINT
 70
0
 62
7
  6
CONTINUOUS
370
-3
390
F
  0
LAYER
  5
20B
100
AcDbSymbolTableRecord
100
AcDbLayerTableRecord
  2
18_DATUM_CAMS_JOINTS
 70
0
 62
7
  6
CONTINUOUS
370
-3
390
F
  0
LAYER
  5
20C
100
AcDbSymbolTableRecord
100
AcDbLayerTableRecord
  2
19_DATUM_FUNCTIONAL
 70
0
 62
7
  6
CONTINUOUS
370
-3
390
F
  0
LAYER
  5
20D
100
AcDbSymbolTableRecord
100
AcDbLayerTableRecord
  2
20_DATUM_KINEMATIC_SCHEME
 70
0
 62
7
  6
CONTINUOUS
370
-3
390
F
  0
ENDTAB
  0
TABLE
  2
STYLE
  5
3
100
AcDbSymbolTable
 70
1
  0
STYLE
  5
11
100
AcDbSymbolTableRecord
100
AcDbTextStyleTableRecord
  2
STANDARD
 70
0
 40
0.0
 41
1.0
 50
0.0
 71
0
 42
0.2
  3
ARIAL.TTF
  4

  0
STYLE
  5
20E
100
AcDbSymbolTableRecord
100
AcDbTextStyleTableRecord
  2
TEXTSTYLE_1
 70
0
 40
0.0
 41
0.8
 50
0.0
 71
0
 42
0.2
  3
gdt
  4

  0
ENDTAB
  0
TABLE
  2
VIEW
  5
6
100
AcDbSymbolTable
 70
0
  0
ENDTAB
  0
TABLE
  2
UCS
  5
7
100
AcDbSymbolTable
 70
0
  0
ENDTAB
  0
TABLE
  2
APPID
  5
9
100
AcDbSymbolTable
 70
1
  0
APPID
  5
20F
100
AcDbSymbolTableRecord
100
AcDbRegAppTableRecord
  2
ACAD
 70
0
  0
ENDTAB
  0
TABLE
  2
BLOCK_RECORD
  5
1
100
AcDbSymbolTable
 70
0
  0
BLOCK_RECORD
  5
210
100
AcDbSymbolTableRecord
100
AcDbBlockTableRecord
  2
*Model_Space
  0
BLOCK_RECORD
  5
211
100
AcDbSymbolTableRecord
100
AcDbBlockTableRecord
  2
*Paper_Space
  0
BLOCK_RECORD
  5
212
100
AcDbSymbolTableRecord
100
AcDbBlockTableRecord
  2
_FILLED
  0
ENDTAB
  0
TABLE
  2
DIMSTYLE
  5
A
100
AcDbSymbolTable
 70
1
100
AcDbDimStyleTable
 71
0
  0
DIMSTYLE
105
213
100
AcDbSymbolTableRecord
100
AcDbDimStyleTableRecord
  2
STANDARD
 70
0
  3

  4

 40
1.0
 41
0.7485262354
 42
1.0
 43
0.38
 44
1.0
 45
0.0
 46
0.0
 47
0.01
 48
0.01
140
1.0479367295
141
0.09
142
0.0
143
25.4
144
1.0
145
0.0
146
1.0
147
0.625
 71
1
 72
0
 73
0
 74
0
 75
0
 76
0
 77
1
 78
8
 79
2
170
0
171
1
172
0
173
0
174
0
175
0
176
0
177
0
178
0
270
2
179
2
271
2
272
2
273
2
274
2
275
0
280
0
281
0
282
0
283
1
284
8
285
0
286
0
287
3
288
0
340
11
278
46
341
212
342
212
343
212
344
212
  0
ENDTAB
  0
ENDSEC
  0
SECTION
  2
BLOCKS
  0
BLOCK
  5
20
100
AcDbEntity
  8
0
100
AcDbBlockBegin
  2
*Model_Space
 70
0
 10
0.0
 20
0.0
 30
0.0
  3
*Model_Space
  1

  0
ENDBLK
  5
21
100
AcDbEntity
  8
0
100
AcDbBlockEnd
  0
BLOCK
  5
1C
100
AcDbEntity
  8
0
100
AcDbBlockBegin
  2
*Paper_Space
 70
0
 10
0.0
 20
0.0
 30
0.0
  3
*Paper_Space
  1

  0
ENDBLK
  5
1D
100
AcDbEntity
  8
0
100
AcDbBlockEnd
  0
BLOCK
  5
214
100
AcDbEntity
  8
0
100
AcDbBlockBegin
  2
_FILLED
 70
64
 10
0.0
 20
0.0
  3
_FILLED
  1

  0
SOLID
  5
215
100
AcDbEntity
  8
0
  6
BYBLOCK
 62
0
100
AcDbTrace
 10
0.0
 20
0.0
 11
-1.0
 21
0.25
 12
-1.0
 22
-0.25
 13
-1.0
 23
-0.25
  0
ENDBLK
  5
216
100
AcDbEntity
  8
0
  6
BYBLOCK
 62
0
100
AcDbBlockEnd
  0
ENDSEC
  0
SECTION
  2
ENTITIES
  0
LINE
  5
217
100
AcDbEntity
  8
0
100
AcDbLine
 62
7
  6
BYLAYER
 10
37.9688477049
 20
7.1292313929
 11
33.0688477049
 21
7.1292313929
  0
LINE
  5
218
100
AcDbEntity
  8
0
100
AcDbLine
 62
7
  6
BYLAYER
 10
42.7188477049
 20
9.4792313929
 11
41.0188477049
 21
9.4792313929
  0
LINE
  5
219
100
AcDbEntity
  8
0
100
AcDbLine
 62
7
  6
BYLAYER
 10
30.0188477049
 20
9.4792313929
 11
28.3188477049
 21
9.4792313929
  0
LINE
  5
21A
100
AcDbEntity
  8
0
100
AcDbLine
 62
7
  6
BYLAYER
 10
18.4588477049
 20
10.3710582797
 11
27.4270208181
 21
10.3710582797
  0
LINE
  5
21B
100
AcDbEntity
  8
0
100
AcDbLine
 62
7
  6
BYLAYER
 10
43.6106745917
 20
10.3710582797
 11
46.9088477049
 21
10.3710582797
  0
LINE
  5
21C
100
AcDbEntity
  8
0
100
AcDbLine
 62
7
  6
BYLAYER
 10
24.7888477049
 20
11.3710582797
 11
26.6888477049
 21
11.3710582797
  0
LINE
  5
21D
100
AcDbEntity
  8
0
100
AcDbLine
 62
7
  6
BYLAYER
 10
44.9888477049
 20
11.3710582797
 11
45.9088477049
 21
11.3710582797
  0
LINE
  5
21E
100
AcDbEntity
  8
0
100
AcDbLine
 62
7
  6
BYLAYER
 10
26.8188477049
 20
11.5310582797
 11
24.8188477049
 21
11.5310582797
  0
LINE
  5
21F
100
AcDbEntity
  8
0
100
AcDbLine
 62
7
  6
BYLAYER
 10
44.2188477049
 20
11.5310582797
 11
45.7688477049
 21
11.5310582797
  0
LINE
  5
220
100
AcDbEntity
  8
0
100
AcDbLine
 62
7
  6
BYLAYER
 10
20.5888477049
 20
11.8010582797
 11
23.5888477049
 21
11.8010582797
  0
LINE
  5
221
100
AcDbEntity
  8
0
100
AcDbLine
 62
7
  6
BYLAYER
 10
18.4588477049
 20
10.3710582797
 11
17.7088477049
 21
11.1210582797
  0
LINE
  5
222
100
AcDbEntity
  8
0
100
AcDbLine
 62
7
  6
BYLAYER
 10
29.1188477049
 20
13.0292313929
 11
41.9188477049
 21
13.0292313929
  0
LINE
  5
223
100
AcDbEntity
  8
0
100
AcDbLine
 62
7
  6
BYLAYER
 10
45.7688477049
 20
14.0710582797
 11
45.9088477049
 21
14.0710582797
  0
LINE
  5
224
100
AcDbEntity
  8
0
100
AcDbLine
 62
7
  6
BYLAYER
 10
44.6188477049
 20
14.1310582797
 11
43.3188477049
 21
14.1310582797
  0
LINE
  5
225
100
AcDbEntity
  8
0
100
AcDbLine
 62
7
  6
BYLAYER
 10
28.1188477049
 20
14.1310582797
 11
26.8188477049
 21
14.1310582797
  0
LINE
  5
226
100
AcDbEntity
  8
0
100
AcDbLine
 62
7
  6
BYLAYER
 10
43.0688477049
 20
14.1792313929
 11
43.3188477049
 21
14.1792313929
  0
LINE
  5
227
100
AcDbEntity
  8
0
100
AcDbLine
 62
7
  6
BYLAYER
 10
45.7838477049
 20
14.3410582797
 11
45.7688477049
 21
14.3410582797
  0
LINE
  5
228
100
AcDbEntity
  8
0
100
AcDbLine
 62
7
  6
BYLAYER
 10
33.0688477049
 20
7.1292313929
 11
30.0188477049
 21
9.4792313929
  0
LINE
  5
229
100
AcDbEntity
  8
0
100
AcDbLine
 62
7
  6
BYLAYER
 10
41.5688477049
 20
17.7292313929
 11
31.3188477049
 21
17.7292313929
  0
LINE
  5
22A
100
AcDbEntity
  8
0
100
AcDbLine
 62
7
  6
BYLAYER
 10
28.3188477049
 20
9.4792313929
 11
26.8188477049
 21
10.9792313929
  0
LINE
  5
22B
100
AcDbEntity
  8
0
100
AcDbLine
 62
7
  6
BYLAYER
 10
31.3188477049
 20
18.3292313929
 11
38.2188477049
 21
18.3292313929
  0
LINE
  5
22C
100
AcDbEntity
  8
0
100
AcDbLine
 62
7
  6
BYLAYER
 10
38.2188477049
 20
19.3292313929
 11
30.4688477049
 21
19.3292313929
  0
LINE
  5
22D
100
AcDbEntity
  8
0
100
AcDbLine
 62
7
  6
BYLAYER
 10
33.7188477049
 20
20.1310582797
 11
35.0946188669
 21
20.1310582797
  0
LINE
  5
22E
100
AcDbEntity
  8
0
100
AcDbLine
 62
7
  6
BYLAYER
 10
35.9430885023
 20
20.1310582797
 11
37.7188477049
 21
20.1310582797
  0
LINE
  5
22F
100
AcDbEntity
  8
0
100
AcDbLine
 62
7
  6
BYLAYER
 10
32.9188477049
 20
20.5292313929
 11
34.5390518078
 21
20.5292313929
  0
LINE
  5
230
100
AcDbEntity
  8
0
100
AcDbLine
 62
7
  6
BYLAYER
 10
36.498643602
 20
20.5292313929
 11
38.1188477049
 21
20.5292313929
  0
LINE
  5
231
100
AcDbEntity
  8
0
100
AcDbLine
 62
7
  6
BYLAYER
 10
45.9088477049
 20
20.9710582797
 11
45.7838477049
 21
20.9710582797
  0
LINE
  5
232
100
AcDbEntity
  8
0
100
AcDbLine
 62
7
  6
BYLAYER
 10
31.5688477049
 20
20.9792313929
 11
32.9188477049
 21
20.9792313929
  0
LINE
  5
233
100
AcDbEntity
  8
0
100
AcDbLine
 62
7
  6
BYLAYER
 10
21.9088477049
 20
21.8010582797
 11
18.9088477049
 21
21.8010582797
  0
LINE
  5
234
100
AcDbEntity
  8
0
100
AcDbLine
 62
7
  6
BYLAYER
 10
38.2188477049
 20
21.8292313929
 11
36.641344921
 21
21.8292313929
  0
LINE
  5
235
100
AcDbEntity
  8
0
100
AcDbLine
 62
7
  6
BYLAYER
 10
34.3963504889
 20
21.8292313929
 11
31.8188477049
 21
21.8292313929
  0
LINE
  5
236
100
AcDbEntity
  8
0
100
AcDbLine
 62
7
  6
BYLAYER
 10
37.7188477049
 20
22.2310582797
 11
36.3167154312
 21
22.2310582797
  0
LINE
  5
237
100
AcDbEntity
  8
0
100
AcDbLine
 62
7
  6
BYLAYER
 10
34.7209799786
 20
22.2310582797
 11
33.7188477049
 21
22.2310582797
  0
LINE
  5
238
100
AcDbEntity
  8
0
100
AcDbLine
 62
7
  6
BYLAYER
 10
18.7088477049
 20
22.4710582797
 11
24.8188477049
 21
22.4710582797
  0
LINE
  5
239
100
AcDbEntity
  8
0
100
AcDbLine
 62
7
  6
BYLAYER
 10
45.7838477049
 20
22.4710582797
 11
45.9088477049
 21
22.4710582797
  0
LINE
  5
23A
100
AcDbEntity
  8
0
100
AcDbLine
 62
7
  6
BYLAYER
 10
24.8188477049
 20
22.6310582797
 11
18.7688477049
 21
22.6310582797
  0
LINE
  5
23B
100
AcDbEntity
  8
0
100
AcDbLine
 62
7
  6
BYLAYER
 10
18.7088477049
 20
22.7010582797
 11
18.7688477049
 21
22.7010582797
  0
LINE
  5
23C
100
AcDbEntity
  8
0
100
AcDbLine
 62
7
  6
BYLAYER
 10
45.7838477049
 20
22.7010582797
 11
45.9088477049
 21
22.7010582797
  0
LINE
  5
23D
100
AcDbEntity
  8
0
100
AcDbLine
 62
7
  6
BYLAYER
 10
45.7688477049
 20
22.7410582797
 11
45.7838477049
 21
22.7410582797
  0
LINE
  5
23E
100
AcDbEntity
  8
0
100
AcDbLine
 62
7
  6
BYLAYER
 10
45.7838477049
 20
22.9310582797
 11
45.7688477049
 21
22.9310582797
  0
LINE
  5
23F
100
AcDbEntity
  8
0
100
AcDbLine
 62
7
  6
BYLAYER
 10
20.3088477049
 20
24.4310582797
 11
24.6088477049
 21
24.4310582797
  0
LINE
  5
240
100
AcDbEntity
  8
0
100
AcDbLine
 62
7
  6
BYLAYER
 10
19.6588477049
 20
26.6310582797
 11
18.7688477049
 21
26.6310582797
  0
LINE
  5
241
100
AcDbEntity
  8
0
100
AcDbLine
 62
7
  6
BYLAYER
 10
43.3188477049
 20
26.6310582797
 11
45.7688477049
 21
26.6310582797
  0
LINE
  5
242
100
AcDbEntity
  8
0
100
AcDbLine
 62
7
  6
BYLAYER
 10
18.7088477049
 20
26.9260582797
 11
19.5088477049
 21
26.9260582797
  0
LINE
  5
243
100
AcDbEntity
  8
0
100
AcDbLine
 62
7
  6
BYLAYER
 10
45.1088477049
 20
26.9260582797
 11
45.9088477049
 21
26.9260582797
  0
LINE
  5
244
100
AcDbEntity
  8
0
100
AcDbLine
 62
7
  6
BYLAYER
 10
24.6088477049
 20
27.2010582797
 11
20.3088477049
 21
27.2010582797
  0
LINE
  5
245
100
AcDbEntity
  8
0
100
AcDbLine
 62
7
  6
BYLAYER
 10
29.1188477049
 20
27.7792313929
 11
41.9188477049
 21
27.7792313929
  0
LINE
  5
246
100
AcDbEntity
  8
0
100
AcDbLine
 62
7
  6
BYLAYER
 10
19.5088477049
 20
28.3010582797
 11
17.7088477049
 21
28.3010582797
  0
LINE
  5
247
100
AcDbEntity
  8
0
100
AcDbLine
 62
7
  6
BYLAYER
 10
45.1088477049
 20
28.3010582797
 11
46.9088477049
 21
28.3010582797
  0
LINE
  5
248
100
AcDbEntity
  8
0
100
AcDbLine
 62
7
  6
BYLAYER
 10
28.1188477049
 20
28.3292313929
 11
43.0688477049
 21
28.3292313929
  0
LINE
  5
249
100
AcDbEntity
  8
0
100
AcDbLine
 62
7
  6
BYLAYER
 10
28.1188477049
 20
28.4010582797
 11
19.6588477049
 21
28.4010582797
  0
LINE
  5
24A
100
AcDbEntity
  8
0
100
AcDbLine
 62
7
  6
BYLAYER
 10
44.2188477049
 20
28.7792313929
 11
43.0688477049
 21
28.7792313929
  0
LINE
  5
24B
100
AcDbEntity
  8
0
100
AcDbLine
 62
7
  6
BYLAYER
 10
27.9688477049
 20
28.7792313929
 11
26.8188477049
 21
28.7792313929
  0
LINE
  5
24C
100
AcDbEntity
  8
0
100
AcDbLine
 62
7
  6
BYLAYER
 10
17.7088477049
 20
82.2310582797
 11
17.7088477049
 21
11.1210582797
  0
LINE
  5
24D
100
AcDbEntity
  8
0
100
AcDbLine
 62
7
  6
BYLAYER
 10
18.7088477049
 20
62.9760582797
 11
18.7088477049
 21
29.6260582797
  0
LINE
  5
24E
100
AcDbEntity
  8
0
100
AcDbLine
 62
7
  6
BYLAYER
 10
18.7088477049
 20
22.4710582797
 11
18.7088477049
 21
28.3010582797
  0
LINE
  5
24F
100
AcDbEntity
  8
0
100
AcDbLine
 62
7
  6
BYLAYER
 10
18.7088477049
 20
64.3010582797
 11
18.7088477049
 21
81.2310582797
  0
LINE
  5
250
100
AcDbEntity
  8
0
100
AcDbLine
 62
7
  6
BYLAYER
 10
18.7688477049
 20
81.0710582797
 11
18.7688477049
 21
65.6760582797
  0
LINE
  5
251
100
AcDbEntity
  8
0
100
AcDbLine
 62
7
  6
BYLAYER
 10
18.7688477049
 20
62.9760582797
 11
18.7688477049
 21
29.6260582797
  0
LINE
  5
252
100
AcDbEntity
  8
0
100
AcDbLine
 62
7
  6
BYLAYER
 10
18.7688477049
 20
26.9260582797
 11
18.7688477049
 21
22.6310582797
  0
LINE
  5
253
100
AcDbEntity
  8
0
100
AcDbLine
 62
7
  6
BYLAYER
 10
18.9088477049
 20
21.8010582797
 11
18.9088477049
 21
20.0010582797
  0
LINE
  5
254
100
AcDbEntity
  8
0
100
AcDbLine
 62
7
  6
BYLAYER
 10
19.1588477049
 20
18.0767933619
 11
19.1588477049
 21
15.5253231975
  0
LINE
  5
255
100
AcDbEntity
  8
0
100
AcDbLine
 62
7
  6
BYLAYER
 10
19.5088477049
 20
29.6260582797
 11
18.7088477049
 21
29.6260582797
  0
LINE
  5
256
100
AcDbEntity
  8
0
100
AcDbLine
 62
7
  6
BYLAYER
 10
45.1088477049
 20
29.6260582797
 11
45.9088477049
 21
29.6260582797
  0
LINE
  5
257
100
AcDbEntity
  8
0
100
AcDbLine
 62
7
  6
BYLAYER
 10
19.6588477049
 20
30.0510582797
 11
18.7688477049
 21
30.0510582797
  0
LINE
  5
258
100
AcDbEntity
  8
0
100
AcDbLine
 62
7
  6
BYLAYER
 10
44.8288477049
 20
30.0510582797
 11
45.7688477049
 21
30.0510582797
  0
LINE
  5
259
100
AcDbEntity
  8
0
100
AcDbLine
 62
7
  6
BYLAYER
 10
43.0688477049
 20
30.8792313929
 11
27.9688477049
 21
30.8792313929
  0
LINE
  5
25A
100
AcDbEntity
  8
0
100
AcDbLine
 62
7
  6
BYLAYER
 10
45.7688477049
 20
31.3310582797
 11
45.7838477049
 21
31.3310582797
  0
LINE
  5
25B
100
AcDbEntity
  8
0
100
AcDbLine
 62
7
  6
BYLAYER
 10
19.5088477049
 20
65.6760582797
 11
19.5088477049
 21
62.9760582797
  0
LINE
  5
25C
100
AcDbEntity
  8
0
100
AcDbLine
 62
7
  6
BYLAYER
 10
19.5088477049
 20
29.6260582797
 11
19.5088477049
 21
26.9260582797
  0
LINE
  5
25D
100
AcDbEntity
  8
0
100
AcDbLine
 62
7
  6
BYLAYER
 10
19.6588477049
 20
26.6310582797
 11
19.6588477049
 21
30.0510582797
  0
LINE
  5
25E
100
AcDbEntity
  8
0
100
AcDbLine
 62
7
  6
BYLAYER
 10
19.6588477049
 20
62.5510582797
 11
19.6588477049
 21
65.9710582797
  0
LINE
  5
25F
100
AcDbEntity
  8
0
100
AcDbLine
 62
7
  6
BYLAYER
 10
20.2088477049
 20
79.2710582797
 11
20.2088477049
 21
66.2010582797
  0
LINE
  5
260
100
AcDbEntity
  8
0
100
AcDbLine
 62
7
  6
BYLAYER
 10
20.3088477049
 20
27.2010582797
 11
20.3088477049
 21
24.4310582797
  0
LINE
  5
261
100
AcDbEntity
  8
0
100
AcDbLine
 62
7
  6
BYLAYER
 10
20.5888477049
 20
12.8663918389
 11
20.5888477049
 21
11.8010582797
  0
LINE
  5
262
100
AcDbEntity
  8
0
100
AcDbLine
 62
7
  6
BYLAYER
 10
20.7688477049
 20
64.2010582797
 11
20.7688477049
 21
58.4010582797
  0
LINE
  5
263
100
AcDbEntity
  8
0
100
AcDbLine
 62
7
  6
BYLAYER
 10
21.9088477049
 20
20.7558022664
 11
21.9088477049
 21
21.8010582797
  0
LINE
  5
264
100
AcDbEntity
  8
0
100
AcDbLine
 62
7
  6
BYLAYER
 10
28.2688477049
 20
56.9510582797
 11
30.2688477049
 21
57.5510582797
  0
LINE
  5
265
100
AcDbEntity
  8
0
100
AcDbLine
 62
7
  6
BYLAYER
 10
36.2688477049
 20
56.9510582797
 11
34.2688477049
 21
56.3510582797
  0
LINE
  5
266
100
AcDbEntity
  8
0
100
AcDbLine
 62
7
  6
BYLAYER
 10
18.7088477049
 20
31.9241652237
 11
18.7688477049
 21
31.9241735733
  0
LINE
  5
267
100
AcDbEntity
  8
0
100
AcDbLine
 62
7
  6
BYLAYER
 10
45.7688477049
 20
31.9260582797
 11
45.9088477049
 21
31.9260582797
  0
LINE
  5
268
100
AcDbEntity
  8
0
100
AcDbLine
 62
7
  6
BYLAYER
 10
18.7088477049
 20
32.6710582797
 11
18.7688477049
 21
32.6710582797
  0
LINE
  5
269
100
AcDbEntity
  8
0
100
AcDbLine
 62
7
  6
BYLAYER
 10
45.7688477049
 20
32.6710582797
 11
45.9088477049
 21
32.6710582797
  0
LINE
  5
26A
100
AcDbEntity
  8
0
100
AcDbLine
 62
7
  6
BYLAYER
 10
23.4588477049
 20
15.5253231975
 11
23.4588477049
 21
18.0767933619
  0
LINE
  5
26B
100
AcDbEntity
  8
0
100
AcDbLine
 62
7
  6
BYLAYER
 10
23.5787896281
 20
35.5753501451
 11
23.5787896281
 21
35.9027155965
  0
LINE
  5
26C
100
AcDbEntity
  8
0
100
AcDbLine
 62
7
  6
BYLAYER
 10
23.5888477049
 20
11.8010582797
 11
23.5888477049
 21
13.5144795114
  0
LINE
  5
26D
100
AcDbEntity
  8
0
100
AcDbLine
 62
7
  6
BYLAYER
 10
23.7688477049
 20
58.4010582797
 11
23.7688477049
 21
64.2010582797
  0
LINE
  5
26E
100
AcDbEntity
  8
0
100
AcDbLine
 62
7
  6
BYLAYER
 10
24.6088477049
 20
24.4310582797
 11
24.6088477049
 21
27.2010582797
  0
LINE
  5
26F
100
AcDbEntity
  8
0
100
AcDbLine
 62
7
  6
BYLAYER
 10
18.7088477049
 20
35.2310582797
 11
18.7688477049
 21
35.2310582797
  0
LINE
  5
270
100
AcDbEntity
  8
0
100
AcDbLine
 62
7
  6
BYLAYER
 10
33.2037896281
 20
35.526739034
 11
32.7662896281
 21
35.526739034
  0
LINE
  5
271
100
AcDbEntity
  8
0
100
AcDbLine
 62
7
  6
BYLAYER
 10
38.0162896281
 20
35.5753501451
 11
37.5787896281
 21
35.5753501451
  0
LINE
  5
272
100
AcDbEntity
  8
0
100
AcDbLine
 62
7
  6
BYLAYER
 10
36.3149007392
 20
35.5753501451
 11
35.8234727878
 21
35.5753501451
  0
LINE
  5
273
100
AcDbEntity
  8
0
100
AcDbLine
 62
7
  6
BYLAYER
 10
34.4243842462
 20
35.5753501451
 11
33.9329562948
 21
35.5753501451
  0
LINE
  5
274
100
AcDbEntity
  8
0
100
AcDbLine
 62
7
  6
BYLAYER
 10
31.0162896281
 20
35.5753501451
 11
30.6274007392
 21
35.5753501451
  0
LINE
  5
275
100
AcDbEntity
  8
0
100
AcDbLine
 62
7
  6
BYLAYER
 10
30.0698920587
 20
35.5753501451
 11
29.7265760864
 21
35.5753501451
  0
LINE
  5
276
100
AcDbEntity
  8
0
100
AcDbLine
 62
7
  6
BYLAYER
 10
29.1690674059
 20
35.5753501451
 11
28.780178517
 21
35.5753501451
  0
LINE
  5
277
100
AcDbEntity
  8
0
100
AcDbLine
 62
7
  6
BYLAYER
 10
25.6690674059
 20
35.5753501451
 11
23.5787896281
 21
35.5753501451
  0
LINE
  5
278
100
AcDbEntity
  8
0
100
AcDbLine
 62
7
  6
BYLAYER
 10
18.7088477049
 20
35.9310582797
 11
18.7688477049
 21
35.9310582797
  0
LINE
  5
279
100
AcDbEntity
  8
0
100
AcDbLine
 62
7
  6
BYLAYER
 10
24.0649007392
 20
35.964239034
 11
25.6690674059
 21
35.964239034
  0
LINE
  5
27A
100
AcDbEntity
  8
0
100
AcDbLine
 62
7
  6
BYLAYER
 10
33.6344536906
 20
36.4503501451
 11
33.2037896281
 21
36.4503501451
  0
LINE
  5
27B
100
AcDbEntity
  8
0
100
AcDbLine
 62
7
  6
BYLAYER
 10
32.7662896281
 20
36.4503501451
 11
31.3565674059
 21
36.4503501451
  0
LINE
  5
27C
100
AcDbEntity
  8
0
100
AcDbLine
 62
7
  6
BYLAYER
 10
29.87772626
 20
36.7678414645
 11
29.918741885
 21
36.7678414645
  0
LINE
  5
27D
100
AcDbEntity
  8
0
100
AcDbLine
 62
7
  6
BYLAYER
 10
31.8107774753
 20
36.839239034
 11
32.7662896281
 21
36.839239034
  0
LINE
  5
27E
100
AcDbEntity
  8
0
100
AcDbLine
 62
7
  6
BYLAYER
 10
33.2037896281
 20
36.839239034
 11
33.6344536906
 21
36.839239034
  0
LINE
  5
27F
100
AcDbEntity
  8
0
100
AcDbLine
 62
7
  6
BYLAYER
 10
18.7688477049
 20
36.9010582797
 11
18.7088477049
 21
36.9010582797
  0
LINE
  5
280
100
AcDbEntity
  8
0
100
AcDbLine
 62
7
  6
BYLAYER
 10
24.7588477049
 20
22.6310582797
 11
24.7588477049
 21
22.4710582797
  0
LINE
  5
281
100
AcDbEntity
  8
0
100
AcDbLine
 62
7
  6
BYLAYER
 10
24.7888477049
 20
22.4710582797
 11
24.7888477049
 21
11.3710582797
  0
LINE
  5
282
100
AcDbEntity
  8
0
100
AcDbLine
 62
7
  6
BYLAYER
 10
24.8188477049
 20
11.5310582797
 11
24.8188477049
 21
22.6310582797
  0
LINE
  5
283
100
AcDbEntity
  8
0
100
AcDbLine
 62
7
  6
BYLAYER
 10
25.6690674059
 20
35.964239034
 11
25.6690674059
 21
35.5753501451
  0
LINE
  5
284
100
AcDbEntity
  8
0
100
AcDbLine
 62
7
  6
BYLAYER
 10
26.1065674059
 20
37.1795168117
 11
26.1065674059
 21
37.5197945895
  0
LINE
  5
285
100
AcDbEntity
  8
0
100
AcDbLine
 62
7
  6
BYLAYER
 10
26.6888477049
 20
11.3710582797
 11
26.6888477049
 21
10.3710582797
  0
LINE
  5
286
100
AcDbEntity
  8
0
100
AcDbLine
 62
7
  6
BYLAYER
 10
26.8188477049
 20
10.9792313929
 11
26.8188477049
 21
14.1310582797
  0
LINE
  5
287
100
AcDbEntity
  8
0
100
AcDbLine
 62
7
  6
BYLAYER
 10
26.8188477049
 20
28.4010582797
 11
26.8188477049
 21
28.7792313929
  0
LINE
  5
288
100
AcDbEntity
  8
0
100
AcDbLine
 62
7
  6
BYLAYER
 10
30.8253353113
 20
53.4010582797
 11
31.7948865933
 21
54.4357137284
  0
LINE
  5
289
100
AcDbEntity
  8
0
100
AcDbLine
 62
7
  6
BYLAYER
 10
31.9861926831
 20
54.3250366452
 11
31.3606918818
 21
53.6574685361
  0
LINE
  5
28A
100
AcDbEntity
  8
0
100
AcDbLine
 62
7
  6
BYLAYER
 10
32.7484122344
 20
53.4010582797
 11
33.7179635164
 21
54.4357137284
  0
LINE
  5
28B
100
AcDbEntity
  8
0
100
AcDbLine
 62
7
  6
BYLAYER
 10
33.9092696062
 20
54.3250366452
 11
33.2837688049
 21
53.6574685361
  0
LINE
  5
28C
100
AcDbEntity
  8
0
100
AcDbLine
 62
7
  6
BYLAYER
 10
28.4399007392
 20
37.1795168117
 11
26.1065674059
 21
37.1795168117
  0
LINE
  5
28D
100
AcDbEntity
  8
0
100
AcDbLine
 62
7
  6
BYLAYER
 10
26.1065674059
 20
37.5197945895
 11
28.4399007392
 21
37.5197945895
  0
LINE
  5
28E
100
AcDbEntity
  8
0
100
AcDbLine
 62
7
  6
BYLAYER
 10
24.1135118503
 20
37.9086834784
 11
23.6760118503
 21
37.9086834784
  0
LINE
  5
28F
100
AcDbEntity
  8
0
100
AcDbLine
 62
7
  6
BYLAYER
 10
30.6274007392
 20
38.0727459784
 11
30.584866017
 21
38.0727459784
  0
LINE
  5
290
100
AcDbEntity
  8
0
100
AcDbLine
 62
7
  6
BYLAYER
 10
29.2116021281
 20
38.0727459784
 11
29.1690674059
 21
38.0727459784
  0
LINE
  5
291
100
AcDbEntity
  8
0
100
AcDbLine
 62
7
  6
BYLAYER
 10
37.5787896281
 20
38.2975723673
 11
36.9468451837
 21
38.2975723673
  0
LINE
  5
292
100
AcDbEntity
  8
0
100
AcDbLine
 62
7
  6
BYLAYER
 10
28.780178517
 20
39.0753501451
 11
29.4014892809
 21
39.0753501451
  0
LINE
  5
293
100
AcDbEntity
  8
0
100
AcDbLine
 62
7
  6
BYLAYER
 10
30.3949788642
 20
39.0753501451
 11
31.0162896281
 21
39.0753501451
  0
LINE
  5
294
100
AcDbEntity
  8
0
100
AcDbLine
 62
7
  6
BYLAYER
 10
34.030178517
 20
39.0753501451
 11
34.5216064684
 21
39.0753501451
  0
LINE
  5
295
100
AcDbEntity
  8
0
100
AcDbLine
 62
7
  6
BYLAYER
 10
35.7262505656
 20
39.0753501451
 11
36.217678517
 21
39.0753501451
  0
LINE
  5
296
100
AcDbEntity
  8
0
100
AcDbLine
 62
7
  6
BYLAYER
 10
32.731350392
 20
39.1239612562
 11
33.2037896281
 21
39.1239612562
  0
LINE
  5
297
100
AcDbEntity
  8
0
100
AcDbLine
 62
7
  6
BYLAYER
 10
37.7732340725
 20
39.1239612562
 11
38.0162896281
 21
39.1239612562
  0
LINE
  5
298
100
AcDbEntity
  8
0
100
AcDbLine
 62
7
  6
BYLAYER
 10
18.7088477049
 20
39.6010582797
 11
18.7688477049
 21
39.6010582797
  0
LINE
  5
299
100
AcDbEntity
  8
0
100
AcDbLine
 62
7
  6
BYLAYER
 10
27.9688477049
 20
30.8792313929
 11
27.9688477049
 21
28.4010582797
  0
LINE
  5
29A
100
AcDbEntity
  8
0
100
AcDbLine
 62
7
  6
BYLAYER
 10
28.1188477049
 20
28.4010582797
 11
28.1188477049
 21
14.1310582797
  0
LINE
  5
29B
100
AcDbEntity
  8
0
100
AcDbLine
 62
7
  6
BYLAYER
 10
28.4399007392
 20
37.5197945895
 11
28.4399007392
 21
37.1795168117
  0
LINE
  5
29C
100
AcDbEntity
  8
0
100
AcDbLine
 62
7
  6
BYLAYER
 10
28.780178517
 20
35.5753501451
 11
28.780178517
 21
39.0753501451
  0
LINE
  5
29D
100
AcDbEntity
  8
0
100
AcDbLine
 62
7
  6
BYLAYER
 10
29.1188477049
 20
27.7792313929
 11
29.1188477049
 21
13.0292313929
  0
LINE
  5
29E
100
AcDbEntity
  8
0
100
AcDbLine
 62
7
  6
BYLAYER
 10
29.1690674059
 20
38.0727459784
 11
29.1690674059
 21
35.5753501451
  0
LINE
  5
29F
100
AcDbEntity
  8
0
100
AcDbLine
 62
7
  6
BYLAYER
 10
29.4688477049
 20
20.3292313929
 11
29.4688477049
 21
27.7792313929
  0
LINE
  5
2A0
100
AcDbEntity
  8
0
100
AcDbLine
 62
7
  6
BYLAYER
 10
29.4014892809
 20
39.0753501451
 11
29.87772626
 21
36.7678414645
  0
LINE
  5
2A1
100
AcDbEntity
  8
0
100
AcDbLine
 62
7
  6
BYLAYER
 10
29.7265760864
 20
35.5753501451
 11
29.2116021281
 21
38.0727459784
  0
LINE
  5
2A2
100
AcDbEntity
  8
0
100
AcDbLine
 62
7
  6
BYLAYER
 10
30.2688477049
 20
56.3510582797
 11
30.2688477049
 21
56.7010582797
  0
LINE
  5
2A3
100
AcDbEntity
  8
0
100
AcDbLine
 62
7
  6
BYLAYER
 10
30.2688477049
 20
57.2010582797
 11
30.2688477049
 21
57.5510582797
  0
LINE
  5
2A4
100
AcDbEntity
  8
0
100
AcDbLine
 62
7
  6
BYLAYER
 10
30.6274007392
 20
35.5753501451
 11
30.6274007392
 21
38.0727459784
  0
LINE
  5
2A5
100
AcDbEntity
  8
0
100
AcDbLine
 62
7
  6
BYLAYER
 10
31.0162896281
 20
39.0753501451
 11
31.0162896281
 21
35.5753501451
  0
LINE
  5
2A6
100
AcDbEntity
  8
0
100
AcDbLine
 62
7
  6
BYLAYER
 10
31.3188477049
 20
17.7292313929
 11
31.3188477049
 21
18.3292313929
  0
LINE
  5
2A7
100
AcDbEntity
  8
0
100
AcDbLine
 62
7
  6
BYLAYER
 10
31.3565674059
 20
36.4503501451
 11
31.3565674059
 21
36.839239034
  0
LINE
  5
2A8
100
AcDbEntity
  8
0
100
AcDbLine
 62
7
  6
BYLAYER
 10
32.52405326
 20
53.6574685361
 11
32.52405326
 21
53.4010582797
  0
LINE
  5
2A9
100
AcDbEntity
  8
0
100
AcDbLine
 62
7
  6
BYLAYER
 10
30.584866017
 20
38.0727459784
 11
30.0698920587
 21
35.5753501451
  0
LINE
  5
2AA
100
AcDbEntity
  8
0
100
AcDbLine
 62
7
  6
BYLAYER
 10
29.918741885
 20
36.7678414645
 11
30.3949788642
 21
39.0753501451
  0
LINE
  5
2AB
100
AcDbEntity
  8
0
100
AcDbLine
 62
7
  6
BYLAYER
 10
37.7788477049
 20
43.9010582797
 11
37.4288477049
 21
43.9010582797
  0
LINE
  5
2AC
100
AcDbEntity
  8
0
100
AcDbLine
 62
7
  6
BYLAYER
 10
36.9288477049
 20
43.9010582797
 11
36.5788477049
 21
43.9010582797
  0
LINE
  5
2AD
100
AcDbEntity
  8
0
100
AcDbLine
 62
7
  6
BYLAYER
 10
35.34647626
 20
37.4195341729
 11
36.3149007392
 21
35.5753501451
  0
LINE
  5
2AE
100
AcDbEntity
  8
0
100
AcDbLine
 62
7
  6
BYLAYER
 10
34.8899875448
 20
37.3975072631
 11
34.030178517
 21
39.0753501451
  0
LINE
  5
2AF
100
AcDbEntity
  8
0
100
AcDbLine
 62
7
  6
BYLAYER
 10
35.8234727878
 20
35.5753501451
 11
35.1132948364
 21
37.0086183742
  0
LINE
  5
2B0
100
AcDbEntity
  8
0
100
AcDbLine
 62
7
  6
BYLAYER
 10
34.5216064684
 20
39.0753501451
 11
35.1353217462
 21
37.7856366034
  0
LINE
  5
2B1
100
AcDbEntity
  8
0
100
AcDbLine
 62
7
  6
BYLAYER
 10
32.7662896281
 20
35.526739034
 11
32.7662896281
 21
36.4503501451
  0
LINE
  5
2B2
100
AcDbEntity
  8
0
100
AcDbLine
 62
7
  6
BYLAYER
 10
32.7662896281
 20
36.839239034
 11
32.7662896281
 21
38.4274551798
  0
LINE
  5
2B3
100
AcDbEntity
  8
0
100
AcDbLine
 62
7
  6
BYLAYER
 10
32.9188477049
 20
20.9792313929
 11
32.9188477049
 21
20.5292313929
  0
LINE
  5
2B4
100
AcDbEntity
  8
0
100
AcDbLine
 62
7
  6
BYLAYER
 10
33.2037896281
 20
39.1239612562
 11
33.2037896281
 21
36.839239034
  0
LINE
  5
2B5
100
AcDbEntity
  8
0
100
AcDbLine
 62
7
  6
BYLAYER
 10
33.2037896281
 20
36.4503501451
 11
33.2037896281
 21
35.526739034
  0
LINE
  5
2B6
100
AcDbEntity
  8
0
100
AcDbLine
 62
7
  6
BYLAYER
 10
33.6344536906
 20
36.839239034
 11
33.6344536906
 21
36.4503501451
  0
LINE
  5
2B7
100
AcDbEntity
  8
0
100
AcDbLine
 62
7
  6
BYLAYER
 10
33.7188477049
 20
22.2310582797
 11
33.7188477049
 21
21.8292313929
  0
LINE
  5
2B8
100
AcDbEntity
  8
0
100
AcDbLine
 62
7
  6
BYLAYER
 10
33.7188477049
 20
20.5292313929
 11
33.7188477049
 21
20.1310582797
  0
LINE
  5
2B9
100
AcDbEntity
  8
0
100
AcDbLine
 62
7
  6
BYLAYER
 10
34.2688477049
 20
57.5510582797
 11
34.2688477049
 21
57.2010582797
  0
LINE
  5
2BA
100
AcDbEntity
  8
0
100
AcDbLine
 62
7
  6
BYLAYER
 10
34.2688477049
 20
56.7010582797
 11
34.2688477049
 21
56.3510582797
  0
LINE
  5
2BB
100
AcDbEntity
  8
0
100
AcDbLine
 62
7
  6
BYLAYER
 10
34.4443984223
 20
50.6740893106
 11
34.4443984223
 21
50.3963115328
  0
LINE
  5
2BC
100
AcDbEntity
  8
0
100
AcDbLine
 62
7
  6
BYLAYER
 10
34.4471301831
 20
53.6574685361
 11
34.4471301831
 21
53.4010582797
  0
LINE
  5
2BD
100
AcDbEntity
  8
0
100
AcDbLine
 62
7
  6
BYLAYER
 10
33.4851970334
 20
50.3963115328
 11
33.4314860959
 21
49.7317064981
  0
LINE
  5
2BE
100
AcDbEntity
  8
0
100
AcDbLine
 62
7
  6
BYLAYER
 10
33.1249539779
 20
49.3893670884
 11
33.2291206445
 21
50.6740893106
  0
LINE
  5
2BF
100
AcDbEntity
  8
0
100
AcDbLine
 62
7
  6
BYLAYER
 10
36.5788477049
 20
54.1010582797
 11
37.1788477049
 21
56.1010582797
  0
LINE
  5
2C0
100
AcDbEntity
  8
0
100
AcDbLine
 62
7
  6
BYLAYER
 10
45.9088477049
 20
46.8010582797
 11
45.7688477049
 21
46.8010582797
  0
LINE
  5
2C1
100
AcDbEntity
  8
0
100
AcDbLine
 62
7
  6
BYLAYER
 10
45.7688477049
 20
47.3010582797
 11
45.9088477049
 21
47.3010582797
  0
LINE
  5
2C2
100
AcDbEntity
  8
0
100
AcDbLine
 62
7
  6
BYLAYER
 10
45.7688477049
 20
47.6510582797
 11
45.9088477049
 21
47.6510582797
  0
LINE
  5
2C3
100
AcDbEntity
  8
0
100
AcDbLine
 62
7
  6
BYLAYER
 10
36.9288477049
 20
54.1010582797
 11
36.9288477049
 21
43.9010582797
  0
LINE
  5
2C4
100
AcDbEntity
  8
0
100
AcDbLine
 62
7
  6
BYLAYER
 10
36.9468451837
 20
38.2975723673
 11
36.9468451837
 21
38.5406279229
  0
LINE
  5
2C5
100
AcDbEntity
  8
0
100
AcDbLine
 62
7
  6
BYLAYER
 10
37.4288477049
 20
43.9010582797
 11
37.4288477049
 21
54.1010582797
  0
LINE
  5
2C6
100
AcDbEntity
  8
0
100
AcDbLine
 62
7
  6
BYLAYER
 10
37.5787896281
 20
35.5753501451
 11
37.5787896281
 21
38.2975723673
  0
LINE
  5
2C7
100
AcDbEntity
  8
0
100
AcDbLine
 62
7
  6
BYLAYER
 10
37.7188477049
 20
20.1310582797
 11
37.7188477049
 21
20.5292313929
  0
LINE
  5
2C8
100
AcDbEntity
  8
0
100
AcDbLine
 62
7
  6
BYLAYER
 10
37.7188477049
 20
21.8292313929
 11
37.7188477049
 21
22.2310582797
  0
LINE
  5
2C9
100
AcDbEntity
  8
0
100
AcDbLine
 62
7
  6
BYLAYER
 10
38.0162896281
 20
39.1239612562
 11
38.0162896281
 21
35.5753501451
  0
LINE
  5
2CA
100
AcDbEntity
  8
0
100
AcDbLine
 62
7
  6
BYLAYER
 10
37.7788477049
 20
43.9010582797
 11
37.1788477049
 21
41.9010582797
  0
LINE
  5
2CB
100
AcDbEntity
  8
0
100
AcDbLine
 62
7
  6
BYLAYER
 10
35.1353217462
 20
37.7856366034
 11
35.7262505656
 21
39.0753501451
  0
LINE
  5
2CC
100
AcDbEntity
  8
0
100
AcDbLine
 62
7
  6
BYLAYER
 10
33.9329562948
 20
35.5753501451
 11
34.8899875448
 21
37.3975072631
  0
LINE
  5
2CD
100
AcDbEntity
  8
0
100
AcDbLine
 62
7
  6
BYLAYER
 10
32.7662896281
 20
38.4274551798
 11
31.8107774753
 21
36.839239034
  0
LINE
  5
2CE
100
AcDbEntity
  8
0
100
AcDbLine
 62
7
  6
BYLAYER
 10
31.3565674059
 20
36.839239034
 11
32.731350392
 21
39.1239612562
  0
LINE
  5
2CF
100
AcDbEntity
  8
0
100
AcDbLine
 62
7
  6
BYLAYER
 10
34.9305095334
 20
48.7990893106
 11
35.2430095334
 21
48.7990893106
  0
LINE
  5
2D0
100
AcDbEntity
  8
0
100
AcDbLine
 62
7
  6
BYLAYER
 10
33.0207873112
 20
48.9032559772
 11
33.3332873112
 21
48.9032559772
  0
LINE
  5
2D1
100
AcDbEntity
  8
0
100
AcDbLine
 62
7
  6
BYLAYER
 10
18.7688477049
 20
49.1610582797
 11
18.7088477049
 21
49.1610582797
  0
LINE
  5
2D2
100
AcDbEntity
  8
0
100
AcDbLine
 62
7
  6
BYLAYER
 10
33.4027317556
 20
49.3893670884
 11
33.1249539779
 21
49.3893670884
  0
LINE
  5
2D3
100
AcDbEntity
  8
0
100
AcDbLine
 62
7
  6
BYLAYER
 10
18.7688477049
 20
49.5610582797
 11
18.7088477049
 21
49.5610582797
  0
LINE
  5
2D4
100
AcDbEntity
  8
0
100
AcDbLine
 62
7
  6
BYLAYER
 10
18.7088477049
 20
50.0610582797
 11
18.7688477049
 21
50.0610582797
  0
LINE
  5
2D5
100
AcDbEntity
  8
0
100
AcDbLine
 62
7
  6
BYLAYER
 10
34.4443984223
 20
50.3963115328
 11
33.4851970334
 21
50.3963115328
  0
LINE
  5
2D6
100
AcDbEntity
  8
0
100
AcDbLine
 62
7
  6
BYLAYER
 10
37.1788477049
 20
41.9010582797
 11
36.5788477049
 21
43.9010582797
  0
LINE
  5
2D7
100
AcDbEntity
  8
0
100
AcDbLine
 62
7
  6
BYLAYER
 10
38.1188477049
 20
20.5292313929
 11
38.1188477049
 21
20.8225348302
  0
LINE
  5
2D8
100
AcDbEntity
  8
0
100
AcDbLine
 62
7
  6
BYLAYER
 10
38.2188477049
 20
66.2010582797
 11
38.2188477049
 21
79.2710582797
  0
LINE
  5
2D9
100
AcDbEntity
  8
0
100
AcDbLine
 62
7
  6
BYLAYER
 10
39.7188477049
 20
81.0710582797
 11
39.7188477049
 21
69.9710582797
  0
LINE
  5
2DA
100
AcDbEntity
  8
0
100
AcDbLine
 62
7
  6
BYLAYER
 10
39.8288477049
 20
70.1310582797
 11
39.8288477049
 21
81.2310582797
  0
LINE
  5
2DB
100
AcDbEntity
  8
0
100
AcDbLine
 62
7
  6
BYLAYER
 10
39.8588477049
 20
69.9710582797
 11
39.8588477049
 21
70.1310582797
  0
LINE
  5
2DC
100
AcDbEntity
  8
0
100
AcDbLine
 62
7
  6
BYLAYER
 10
35.1132948364
 20
37.0086183742
 11
34.4243842462
 21
35.5753501451
  0
LINE
  5
2DD
100
AcDbEntity
  8
0
100
AcDbLine
 62
7
  6
BYLAYER
 10
36.217678517
 20
39.0753501451
 11
35.34647626
 21
37.4195341729
  0
LINE
  5
2DE
100
AcDbEntity
  8
0
100
AcDbLine
 62
7
  6
BYLAYER
 10
33.2291206445
 20
50.6740893106
 11
34.4443984223
 21
50.6740893106
  0
LINE
  5
2DF
100
AcDbEntity
  8
0
100
AcDbLine
 62
7
  6
BYLAYER
 10
45.9088477049
 20
52.6010582797
 11
45.7688477049
 21
52.6010582797
  0
LINE
  5
2E0
100
AcDbEntity
  8
0
100
AcDbLine
 62
7
  6
BYLAYER
 10
37.1788477049
 20
56.1010582797
 11
37.7788477049
 21
54.1010582797
  0
LINE
  5
2E1
100
AcDbEntity
  8
0
100
AcDbLine
 62
7
  6
BYLAYER
 10
40.7688477049
 20
64.2010582797
 11
40.7688477049
 21
58.4010582797
  0
LINE
  5
2E2
100
AcDbEntity
  8
0
100
AcDbLine
 62
7
  6
BYLAYER
 10
41.0288477049
 20
80.8010582797
 11
41.0288477049
 21
79.087637048
  0
LINE
  5
2E3
100
AcDbEntity
  8
0
100
AcDbLine
 62
7
  6
BYLAYER
 10
41.1588477049
 20
77.0767933619
 11
41.1588477049
 21
74.5253231975
  0
LINE
  5
2E4
100
AcDbEntity
  8
0
100
AcDbLine
 62
7
  6
BYLAYER
 10
41.5688477049
 20
24.6292313929
 11
41.5688477049
 21
17.7292313929
  0
LINE
  5
2E5
100
AcDbEntity
  8
0
100
AcDbLine
 62
7
  6
BYLAYER
 10
41.9188477049
 20
13.0292313929
 11
41.9188477049
 21
27.7792313929
  0
LINE
  5
2E6
100
AcDbEntity
  8
0
100
AcDbLine
 62
7
  6
BYLAYER
 10
42.7088477049
 20
71.846314293
 11
42.7088477049
 21
70.8010582797
  0
LINE
  5
2E7
100
AcDbEntity
  8
0
100
AcDbLine
 62
7
  6
BYLAYER
 10
43.0688477049
 20
14.1792313929
 11
43.0688477049
 21
30.8792313929
  0
LINE
  5
2E8
100
AcDbEntity
  8
0
100
AcDbLine
 62
7
  6
BYLAYER
 10
43.3188477049
 20
14.1310582797
 11
43.3188477049
 21
26.6310582797
  0
LINE
  5
2E9
100
AcDbEntity
  8
0
100
AcDbLine
 62
7
  6
BYLAYER
 10
34.4471301831
 20
53.4010582797
 11
32.7484122344
 21
53.4010582797
  0
LINE
  5
2EA
100
AcDbEntity
  8
0
100
AcDbLine
 62
7
  6
BYLAYER
 10
32.52405326
 20
53.4010582797
 11
30.8253353113
 21
53.4010582797
  0
LINE
  5
2EB
100
AcDbEntity
  8
0
100
AcDbLine
 62
7
  6
BYLAYER
 10
31.3606918818
 20
53.6574685361
 11
32.52405326
 21
53.6574685361
  0
LINE
  5
2EC
100
AcDbEntity
  8
0
100
AcDbLine
 62
7
  6
BYLAYER
 10
33.2837688049
 20
53.6574685361
 11
34.4471301831
 21
53.6574685361
  0
LINE
  5
2ED
100
AcDbEntity
  8
0
100
AcDbLine
 62
7
  6
BYLAYER
 10
36.5788477049
 20
54.1010582797
 11
36.9288477049
 21
54.1010582797
  0
LINE
  5
2EE
100
AcDbEntity
  8
0
100
AcDbLine
 62
7
  6
BYLAYER
 10
37.4288477049
 20
54.1010582797
 11
37.7788477049
 21
54.1010582797
  0
LINE
  5
2EF
100
AcDbEntity
  8
0
100
AcDbLine
 62
7
  6
BYLAYER
 10
33.0689250549
 20
55.1318275105
 11
32.8445660805
 21
55.1318275105
  0
LINE
  5
2F0
100
AcDbEntity
  8
0
100
AcDbLine
 62
7
  6
BYLAYER
 10
31.1458481318
 20
55.1318275105
 11
30.9214891574
 21
55.1318275105
  0
LINE
  5
2F1
100
AcDbEntity
  8
0
100
AcDbLine
 62
7
  6
BYLAYER
 10
45.7688477049
 20
55.3010582797
 11
45.9088477049
 21
55.3010582797
  0
LINE
  5
2F2
100
AcDbEntity
  8
0
100
AcDbLine
 62
7
  6
BYLAYER
 10
30.2688477049
 20
56.3510582797
 11
28.2688477049
 21
56.9510582797
  0
LINE
  5
2F3
100
AcDbEntity
  8
0
100
AcDbLine
 62
7
  6
BYLAYER
 10
43.7688477049
 20
58.4010582797
 11
43.7688477049
 21
64.2010582797
  0
LINE
  5
2F4
100
AcDbEntity
  8
0
100
AcDbLine
 62
7
  6
BYLAYER
 10
44.0288477049
 20
79.7357247205
 11
44.0288477049
 21
80.8010582797
  0
LINE
  5
2F5
100
AcDbEntity
  8
0
100
AcDbLine
 62
7
  6
BYLAYER
 10
44.2188477049
 20
28.7792313929
 11
44.2188477049
 21
26.6310582797
  0
LINE
  5
2F6
100
AcDbEntity
  8
0
100
AcDbLine
 62
7
  6
BYLAYER
 10
44.2188477049
 20
14.1310582797
 11
44.2188477049
 21
10.9792313929
  0
LINE
  5
2F7
100
AcDbEntity
  8
0
100
AcDbLine
 62
7
  6
BYLAYER
 10
44.6188477049
 20
11.5310582797
 11
44.6188477049
 21
14.1310582797
  0
LINE
  5
2F8
100
AcDbEntity
  8
0
100
AcDbLine
 62
7
  6
BYLAYER
 10
44.8288477049
 20
65.9710582797
 11
44.8288477049
 21
62.5510582797
  0
LINE
  5
2F9
100
AcDbEntity
  8
0
100
AcDbLine
 62
7
  6
BYLAYER
 10
44.8288477049
 20
26.6310582797
 11
44.8288477049
 21
30.0510582797
  0
LINE
  5
2FA
100
AcDbEntity
  8
0
100
AcDbLine
 62
7
  6
BYLAYER
 10
44.9888477049
 20
10.3710582797
 11
44.9888477049
 21
11.3710582797
  0
LINE
  5
2FB
100
AcDbEntity
  8
0
100
AcDbLine
 62
7
  6
BYLAYER
 10
45.1088477049
 20
26.9260582797
 11
45.1088477049
 21
29.6260582797
  0
LINE
  5
2FC
100
AcDbEntity
  8
0
100
AcDbLine
 62
7
  6
BYLAYER
 10
45.1088477049
 20
62.9760582797
 11
45.1088477049
 21
65.6760582797
  0
LINE
  5
2FD
100
AcDbEntity
  8
0
100
AcDbLine
 62
7
  6
BYLAYER
 10
45.4588477049
 20
74.5253231975
 11
45.4588477049
 21
77.0767933619
  0
LINE
  5
2FE
100
AcDbEntity
  8
0
100
AcDbLine
 62
7
  6
BYLAYER
 10
45.7088477049
 20
70.8010582797
 11
45.7088477049
 21
72.6010582797
  0
LINE
  5
2FF
100
AcDbEntity
  8
0
100
AcDbLine
 62
7
  6
BYLAYER
 10
45.7688477049
 20
11.5310582797
 11
45.7688477049
 21
26.9260582797
  0
LINE
  5
300
100
AcDbEntity
  8
0
100
AcDbLine
 62
7
  6
BYLAYER
 10
45.7688477049
 20
29.6260582797
 11
45.7688477049
 21
62.9760582797
  0
LINE
  5
301
100
AcDbEntity
  8
0
100
AcDbLine
 62
7
  6
BYLAYER
 10
45.7688477049
 20
65.6760582797
 11
45.7688477049
 21
69.9710582797
  0
LINE
  5
302
100
AcDbEntity
  8
0
100
AcDbLine
 62
7
  6
BYLAYER
 10
45.7838477049
 20
69.7110582797
 11
45.7838477049
 21
65.6760582797
  0
LINE
  5
303
100
AcDbEntity
  8
0
100
AcDbLine
 62
7
  6
BYLAYER
 10
45.7838477049
 20
62.9760582797
 11
45.7838477049
 21
61.3110582797
  0
LINE
  5
304
100
AcDbEntity
  8
0
100
AcDbLine
 62
7
  6
BYLAYER
 10
45.7838477049
 20
31.3310582797
 11
45.7838477049
 21
29.6260582797
  0
LINE
  5
305
100
AcDbEntity
  8
0
100
AcDbLine
 62
7
  6
BYLAYER
 10
45.7838477049
 20
26.9260582797
 11
45.7838477049
 21
22.9310582797
  0
LINE
  5
306
100
AcDbEntity
  8
0
100
AcDbLine
 62
7
  6
BYLAYER
 10
45.7838477049
 20
22.7410582797
 11
45.7838477049
 21
14.3410582797
  0
LINE
  5
307
100
AcDbEntity
  8
0
100
AcDbLine
 62
7
  6
BYLAYER
 10
45.9088477049
 20
70.1310582797
 11
45.9088477049
 21
64.3010582797
  0
LINE
  5
308
100
AcDbEntity
  8
0
100
AcDbLine
 62
7
  6
BYLAYER
 10
45.9088477049
 20
62.9760582797
 11
45.9088477049
 21
29.6260582797
  0
LINE
  5
309
100
AcDbEntity
  8
0
100
AcDbLine
 62
7
  6
BYLAYER
 10
45.9088477049
 20
11.3710582797
 11
45.9088477049
 21
28.3010582797
  0
LINE
  5
30A
100
AcDbEntity
  8
0
100
AcDbLine
 62
7
  6
BYLAYER
 10
45.9088477049
 20
56.6710582797
 11
45.7688477049
 21
56.6710582797
  0
LINE
  5
30B
100
AcDbEntity
  8
0
100
AcDbLine
 62
7
  6
BYLAYER
 10
30.2688477049
 20
56.7010582797
 11
34.2688477049
 21
56.7010582797
  0
LINE
  5
30C
100
AcDbEntity
  8
0
100
AcDbLine
 62
7
  6
BYLAYER
 10
34.2688477049
 20
57.2010582797
 11
30.2688477049
 21
57.2010582797
  0
LINE
  5
30D
100
AcDbEntity
  8
0
100
AcDbLine
 62
7
  6
BYLAYER
 10
45.9088477049
 20
57.3710582797
 11
45.7688477049
 21
57.3710582797
  0
LINE
  5
30E
100
AcDbEntity
  8
0
100
AcDbLine
 62
7
  6
BYLAYER
 10
20.7688477049
 20
58.4010582797
 11
23.7688477049
 21
58.4010582797
  0
LINE
  5
30F
100
AcDbEntity
  8
0
100
AcDbLine
 62
7
  6
BYLAYER
 10
40.7688477049
 20
58.4010582797
 11
43.7688477049
 21
58.4010582797
  0
LINE
  5
310
100
AcDbEntity
  8
0
100
AcDbLine
 62
7
  6
BYLAYER
 10
34.2688477049
 20
57.5510582797
 11
36.2688477049
 21
56.9510582797
  0
LINE
  5
311
100
AcDbEntity
  8
0
100
AcDbLine
 62
7
  6
BYLAYER
 10
46.9088477049
 20
10.3710582797
 11
46.9088477049
 21
81.4810582797
  0
LINE
  5
312
100
AcDbEntity
  8
0
100
AcDbLine
 62
7
  6
BYLAYER
 10
18.7688477049
 20
60.6741738517
 11
18.7088477049
 21
60.6741655021
  0
LINE
  5
313
100
AcDbEntity
  8
0
100
AcDbLine
 62
7
  6
BYLAYER
 10
45.9088477049
 20
59.9310582768
 11
45.7688477049
 21
59.9310582768
  0
LINE
  5
314
100
AcDbEntity
  8
0
100
AcDbLine
 62
7
  6
BYLAYER
 10
18.7688477049
 20
59.9310582768
 11
18.7088477049
 21
59.9310582768
  0
LINE
  5
315
100
AcDbEntity
  8
0
100
AcDbLine
 62
7
  6
BYLAYER
 10
20.7688477049
 20
60.4010582797
 11
23.7688477049
 21
60.4010582797
  0
LINE
  5
316
100
AcDbEntity
  8
0
100
AcDbLine
 62
7
  6
BYLAYER
 10
40.7688477049
 20
60.4010582797
 11
43.7688477049
 21
60.4010582797
  0
LINE
  5
317
100
AcDbEntity
  8
0
100
AcDbLine
 62
7
  6
BYLAYER
 10
45.9088477049
 20
60.6760582797
 11
45.7688477049
 21
60.6760582797
  0
LINE
  5
318
100
AcDbEntity
  8
0
100
AcDbLine
 62
7
  6
BYLAYER
 10
30.8243811541
 20
23.3449562892
 11
36.3906476782
 21
27.2332948783
  0
LINE
  5
319
100
AcDbEntity
  8
0
100
AcDbLine
 62
7
  6
BYLAYER
 10
45.7838477049
 20
61.3110582797
 11
45.7688477049
 21
61.3110582797
  0
LINE
  5
31A
100
AcDbEntity
  8
0
100
AcDbLine
 62
7
  6
BYLAYER
 10
23.7688477049
 20
62.4010582797
 11
20.7688477049
 21
62.4010582797
  0
LINE
  5
31B
100
AcDbEntity
  8
0
100
AcDbLine
 62
7
  6
BYLAYER
 10
40.7688477049
 20
62.4010582797
 11
43.7688477049
 21
62.4010582797
  0
LINE
  5
31C
100
AcDbEntity
  8
0
100
AcDbLine
 62
7
  6
BYLAYER
 10
19.6588477049
 20
62.5510582797
 11
18.7688477049
 21
62.5510582797
  0
LINE
  5
31D
100
AcDbEntity
  8
0
100
AcDbLine
 62
7
  6
BYLAYER
 10
44.8288477049
 20
62.5510582797
 11
45.7688477049
 21
62.5510582797
  0
LINE
  5
31E
100
AcDbEntity
  8
0
100
AcDbLine
 62
7
  6
BYLAYER
 10
19.5088477049
 20
62.9760582797
 11
18.7088477049
 21
62.9760582797
  0
LINE
  5
31F
100
AcDbEntity
  8
0
100
AcDbLine
 62
7
  6
BYLAYER
 10
45.1088477049
 20
62.9760582797
 11
45.9088477049
 21
62.9760582797
  0
LINE
  5
320
100
AcDbEntity
  8
0
100
AcDbLine
 62
7
  6
BYLAYER
 10
39.5000764415
 20
26.0172152724
 11
31.6292572838
 21
22.7918926861
  0
LINE
  5
321
100
AcDbEntity
  8
0
100
AcDbLine
 62
7
  6
BYLAYER
 10
19.6588477049
 20
64.2010582797
 11
44.8288477049
 21
64.2010582797
  0
LINE
  5
322
100
AcDbEntity
  8
0
100
AcDbLine
 62
7
  6
BYLAYER
 10
17.7088477049
 20
64.3010582797
 11
19.5088477049
 21
64.3010582797
  0
LINE
  5
323
100
AcDbEntity
  8
0
100
AcDbLine
 62
7
  6
BYLAYER
 10
45.1088477049
 20
64.3010582797
 11
46.9088477049
 21
64.3010582797
  0
LINE
  5
324
100
AcDbEntity
  8
0
100
AcDbLine
 62
7
  6
BYLAYER
 10
45.9088477049
 20
65.6760582797
 11
45.1088477049
 21
65.6760582797
  0
LINE
  5
325
100
AcDbEntity
  8
0
100
AcDbLine
 62
7
  6
BYLAYER
 10
19.5088477049
 20
65.6760582797
 11
18.7088477049
 21
65.6760582797
  0
LINE
  5
326
100
AcDbEntity
  8
0
100
AcDbLine
 62
7
  6
BYLAYER
 10
19.6588477049
 20
65.9710582797
 11
18.7688477049
 21
65.9710582797
  0
LINE
  5
327
100
AcDbEntity
  8
0
100
AcDbLine
 62
7
  6
BYLAYER
 10
44.8288477049
 20
65.9710582797
 11
45.7688477049
 21
65.9710582797
  0
LINE
  5
328
100
AcDbEntity
  8
0
100
AcDbLine
 62
7
  6
BYLAYER
 10
20.2088477049
 20
66.2010582797
 11
38.2188477049
 21
66.2010582797
  0
LINE
  5
329
100
AcDbEntity
  8
0
100
AcDbLine
 62
7
  6
BYLAYER
 10
45.7688477049
 20
69.7110582797
 11
45.7838477049
 21
69.7110582797
  0
LINE
  5
32A
100
AcDbEntity
  8
0
100
AcDbLine
 62
7
  6
BYLAYER
 10
45.9088477049
 20
69.9010582797
 11
45.7688477049
 21
69.9010582797
  0
LINE
  5
32B
100
AcDbEntity
  8
0
100
AcDbLine
 62
7
  6
BYLAYER
 10
18.7688477049
 20
69.9010582797
 11
18.7088477049
 21
69.9010582797
  0
LINE
  5
32C
100
AcDbEntity
  8
0
100
AcDbLine
 62
7
  6
BYLAYER
 10
39.7188477049
 20
69.9710582797
 11
45.7688477049
 21
69.9710582797
  0
LINE
  5
32D
100
AcDbEntity
  8
0
100
AcDbLine
 62
7
  6
BYLAYER
 10
45.9088477049
 20
70.1310582797
 11
39.7188477049
 21
70.1310582797
  0
LINE
  5
32E
100
AcDbEntity
  8
0
100
AcDbLine
 62
7
  6
BYLAYER
 10
18.7688477049
 20
70.1310582797
 11
18.7088477049
 21
70.1310582797
  0
LINE
  5
32F
100
AcDbEntity
  8
0
100
AcDbLine
 62
7
  6
BYLAYER
 10
42.7088477049
 20
70.8010582797
 11
45.7088477049
 21
70.8010582797
  0
LINE
  5
330
100
AcDbEntity
  8
0
100
AcDbLine
 62
7
  6
BYLAYER
 10
18.7688477049
 20
71.6310582797
 11
18.7088477049
 21
71.6310582797
  0
LINE
  5
331
100
AcDbEntity
  8
0
100
AcDbLine
 62
7
  6
BYLAYER
 10
44.2188477049
 20
10.9792313929
 11
42.7188477049
 21
9.4792313929
  0
LINE
  5
332
100
AcDbEntity
  8
0
100
AcDbLine
 62
7
  6
BYLAYER
 10
41.0188477049
 20
9.4792313929
 11
37.9688477049
 21
7.1292313929
  0
LINE
  5
333
100
AcDbEntity
  8
0
100
AcDbLine
 62
7
  6
BYLAYER
 10
18.7688477049
 20
78.5310582797
 11
18.7088477049
 21
78.5310582797
  0
LINE
  5
334
100
AcDbEntity
  8
0
100
AcDbLine
 62
7
  6
BYLAYER
 10
38.2188477049
 20
79.2710582797
 11
20.2088477049
 21
79.2710582797
  0
LINE
  5
335
100
AcDbEntity
  8
0
100
AcDbLine
 62
7
  6
BYLAYER
 10
44.0288477049
 20
80.8010582797
 11
41.0288477049
 21
80.8010582797
  0
LINE
  5
336
100
AcDbEntity
  8
0
100
AcDbLine
 62
7
  6
BYLAYER
 10
39.7188477049
 20
81.0710582797
 11
18.7688477049
 21
81.0710582797
  0
LINE
  5
337
100
AcDbEntity
  8
0
100
AcDbLine
 62
7
  6
BYLAYER
 10
39.8288477049
 20
81.2310582797
 11
18.7088477049
 21
81.2310582797
  0
LINE
  5
338
100
AcDbEntity
  8
0
100
AcDbLine
 62
7
  6
BYLAYER
 10
46.1588477049
 20
82.2310582797
 11
17.7088477049
 21
82.2310582797
  0
LINE
  5
339
100
AcDbEntity
  8
0
100
AcDbLine
 62
7
  6
BYLAYER
 10
46.1588477049
 20
82.2310582797
 11
46.9088477049
 21
81.4810582797
  0
ARC
  5
33A
100
AcDbEntity
  8
0
100
AcDbCircle
 62
7
  6
BYLAYER
 10
21.3088477049
 20
16.8010582797
 40
4.0
100
AcDbArc
 50
259.6302401945
 51
304.7502257537
  0
ARC
  5
33B
100
AcDbEntity
  8
0
100
AcDbCircle
 62
7
  6
BYLAYER
 10
21.3088477049
 20
16.8010582797
 40
4.0
100
AcDbArc
 50
81.3730734413
 51
126.8698976458
  0
ARC
  5
33C
100
AcDbEntity
  8
0
100
AcDbCircle
 62
7
  6
BYLAYER
 10
43.3088477049
 20
75.8010582797
 40
4.0
100
AcDbArc
 50
261.3730734413
 51
306.8698976458
  0
ARC
  5
33D
100
AcDbEntity
  8
0
100
AcDbCircle
 62
7
  6
BYLAYER
 10
43.3088477049
 20
75.8010582797
 40
4.0
100
AcDbArc
 50
79.6302401945
 51
124.7502257537
  0
ARC
  5
33E
100
AcDbEntity
  8
0
100
AcDbCircle
 62
7
  6
BYLAYER
 10
21.3088477049
 20
16.8010582797
 40
2.5
100
AcDbArc
 50
30.683417109
 51
149.316582891
  0
ARC
  5
33F
100
AcDbEntity
  8
0
100
AcDbCircle
 62
7
  6
BYLAYER
 10
21.3088477049
 20
16.8010582797
 40
2.5
100
AcDbArc
 50
210.683417109
 51
329.316582891
  0
ARC
  5
340
100
AcDbEntity
  8
0
100
AcDbCircle
 62
7
  6
BYLAYER
 10
43.3088477049
 20
75.8010582797
 40
2.5
100
AcDbArc
 50
210.683417109
 51
329.316582891
  0
ARC
  5
341
100
AcDbEntity
  8
0
100
AcDbCircle
 62
7
  6
BYLAYER
 10
43.3088477049
 20
75.8010582797
 40
2.5
100
AcDbArc
 50
30.683417109
 51
149.316582891
  0
ARC
  5
342
100
AcDbEntity
  8
0
100
AcDbCircle
 62
7
  6
BYLAYER
 10
38.2188477049
 20
20.0792313929
 40
1.75
100
AcDbArc
 50
270.0
 51
90.0
  0
ARC
  5
343
100
AcDbEntity
  8
0
100
AcDbCircle
 62
7
  6
BYLAYER
 10
40.0688477049
 20
24.6292313929
 40
1.5
100
AcDbArc
 50
0.0
 51
112.2829513737
  0
ARC
  5
344
100
AcDbEntity
  8
0
100
AcDbCircle
 62
7
  6
BYLAYER
 10
31.5688477049
 20
22.2792313929
 40
1.3
100
AcDbArc
 50
124.9363844301
 51
270.0
  0
ARC
  5
345
100
AcDbEntity
  8
0
100
AcDbCircle
 62
7
  6
BYLAYER
 10
35.5188477049
 20
21.2792313929
 40
1.25
100
AcDbArc
 50
26.1038811373
 51
153.8961188627
  0
ARC
  5
346
100
AcDbEntity
  8
0
100
AcDbCircle
 62
7
  6
BYLAYER
 10
35.5188477049
 20
21.2392313929
 40
1.21
100
AcDbArc
 50
215.9286164212
 51
324.0713835788
  0
ARC
  5
347
100
AcDbEntity
  8
0
100
AcDbCircle
 62
7
  6
BYLAYER
 10
30.4688477049
 20
20.3292313929
 40
1.0
100
AcDbArc
 50
180.0
 51
270.0
  0
ARC
  5
348
100
AcDbEntity
  8
0
100
AcDbCircle
 62
7
  6
BYLAYER
 10
38.2188477049
 20
20.0792313929
 40
0.75
100
AcDbArc
 50
270.0
 51
97.6622556608
  0
ARC
  5
349
100
AcDbEntity
  8
0
100
AcDbCircle
 62
7
  6
BYLAYER
 10
31.8188477049
 20
22.3292313929
 40
0.5
100
AcDbArc
 50
112.2829513723
 51
270.0
  0
ARC
  5
34A
100
AcDbEntity
  8
0
100
AcDbCircle
 62
7
  6
BYLAYER
 10
36.2188477049
 20
27.4792313929
 40
0.3
100
AcDbArc
 50
304.936384428
 51
90.0
  0
SPLINE
  5
34B
100
AcDbEntity
  8
0
100
AcDbSpline
 62
7
  6
BYLAYER
 70
0
 71
3
 72
23
 73
19
 74
0
 42
0.0000001
 43
0.0000001
 44
0.0000000001
 40
0.0
 40
0.0
 40
0.0
 40
0.0
 40
0.0469512598
 40
0.091842147
 40
0.1357465906
 40
0.1802249152
 40
0.2261617897
 40
0.2751385388
 40
0.3278597018
 40
0.3853613201
 40
0.446983241
 40
0.5123877274
 40
0.5822402731
 40
0.6562345769
 40
0.7350135546
 40
0.8183496267
 40
0.9067960377
 40
1.0
 40
1.0
 40
1.0
 40
1.0
 10
40.3845621975
 20
35.9156279229
 30
0.0
 10
40.4114777765
 20
35.9168385208
 30
0.0
 10
40.464127792
 20
35.9192065919
 30
0.0
 10
40.5406200426
 20
35.9365322815
 30
0.0
 10
40.6103970142
 20
35.9683158931
 30
0.0
 10
40.6763614647
 20
36.0088285372
 30
0.0
 10
40.7340190197
 20
36.0647773803
 30
0.0
 10
40.7878765954
 20
36.130291361
 30
0.0
 10
40.8347062199
 20
36.2089751678
 30
0.0
 10
40.8759625867
 20
36.2985573212
 30
0.0
 10
40.9118747832
 20
36.3981544776
 30
0.0
 10
40.9438101592
 20
36.5064550969
 30
0.0
 10
40.9710186021
 20
36.6233468131
 30
0.0
 10
40.992973527
 20
36.749123688
 30
0.0
 10
41.0092738405
 20
36.8835303674
 30
0.0
 10
41.0212858953
 20
37.0266744741
 30
0.0
 10
41.0291620201
 20
37.1784158788
 30
0.0
 10
41.0298338197
 20
37.2825520435
 30
0.0
 10
41.030178517
 20
37.3359838256
 30
0.0
  0
SPLINE
  5
34C
100
AcDbEntity
  8
0
100
AcDbSpline
 62
7
  6
BYLAYER
 70
0
 71
3
 72
23
 73
19
 74
0
 42
0.0000001
 43
0.0000001
 44
0.0000000001
 40
0.0
 40
0.0
 40
0.0
 40
0.0
 40
0.0926894585
 40
0.1806706567
 40
0.2635851004
 40
0.3420424029
 40
0.4157853893
 40
0.4853536347
 40
0.5507830234
 40
0.6125305328
 40
0.6702837756
 40
0.7236476282
 40
0.7729132897
 40
0.8195681663
 40
0.864172335
 40
0.9082368822
 40
0.9533079202
 40
1.0
 40
1.0
 40
1.0
 40
1.0
 10
39.717678517
 20
37.3359838256
 30
0.0
 10
39.7179457288
 20
37.2825482845
 30
0.0
 10
39.7184665791
 20
37.1783915177
 30
0.0
 10
39.7274135849
 20
37.0266665809
 30
0.0
 10
39.7398776726
 20
36.8834603727
 30
0.0
 10
39.7578335367
 20
36.7490583873
 30
0.0
 10
39.7816798567
 20
36.6234406328
 30
0.0
 10
39.8089163948
 20
36.5061522548
 30
0.0
 10
39.8436239669
 20
36.3980812474
 30
0.0
 10
39.8817915828
 20
36.2984964906
 30
0.0
 10
39.925074258
 20
36.2085283945
 30
0.0
 10
39.9753843846
 20
36.1306702722
 30
0.0
 10
40.0304648709
 20
36.0643323218
 30
0.0
 10
40.0904384874
 20
36.0092582003
 30
0.0
 10
40.1571669858
 20
35.9682334495
 30
0.0
 10
40.2277853252
 20
35.9365462038
 30
0.0
 10
40.3047520253
 20
35.9192621086
 30
0.0
 10
40.3576473327
 20
35.9168535012
 30
0.0
 10
40.3845621975
 20
35.9156279229
 30
0.0
  0
SPLINE
  5
34D
100
AcDbEntity
  8
0
100
AcDbSpline
 62
7
  6
BYLAYER
 70
0
 71
3
 72
23
 73
19
 74
0
 42
0.0000001
 43
0.0000001
 44
0.0000000001
 40
0.0
 40
0.0
 40
0.0
 40
0.0
 40
0.0471720272
 40
0.092608941
 40
0.1367800514
 40
0.1818427059
 40
0.2280978655
 40
0.2771927257
 40
0.3299923624
 40
0.3867516542
 40
0.4478951999
 40
0.5131516397
 40
0.5821412424
 40
0.6562061509
 40
0.7345905396
 40
0.8179153157
 40
0.9063577875
 40
1.0
 40
1.0
 40
1.0
 40
1.0
 10
40.3845621975
 20
38.7350723673
 30
0.0
 10
40.3576468383
 20
38.7338053191
 30
0.0
 10
40.3048061388
 20
38.7313178281
 30
0.0
 10
40.2280939683
 20
38.7146919599
 30
0.0
 10
40.1567215656
 20
38.6851578991
 30
0.0
 10
40.0912524927
 20
38.643482655
 30
0.0
 10
40.0301404553
 20
38.5911874791
 30
0.0
 10
39.9756623878
 20
38.5261932375
 30
0.0
 10
39.9252290768
 20
38.4508059662
 30
0.0
 10
39.8816033666
 20
38.3634765413
 30
0.0
 10
39.8434802797
 20
38.2661058465
 30
0.0
 10
39.8090631952
 20
38.1599716152
 30
0.0
 10
39.7814470965
 20
38.0442819135
 30
0.0
 10
39.7579459497
 20
37.9201082432
 30
0.0
 10
39.7397989085
 20
37.7867488661
 30
0.0
 10
39.7274277588
 20
37.6445400935
 30
0.0
 10
39.7184475239
 20
37.4933245103
 30
0.0
 10
39.7179396867
 20
37.3894197798
 30
0.0
 10
39.717678517
 20
37.3359838256
 30
0.0
  0
SPLINE
  5
34E
100
AcDbEntity
  8
0
100
AcDbSpline
 62
7
  6
BYLAYER
 70
0
 71
3
 72
23
 73
19
 74
0
 42
0.0000001
 43
0.0000001
 44
0.0000000001
 40
0.0
 40
0.0
 40
0.0
 40
0.0
 40
0.0941755938
 40
0.1830983147
 40
0.266858479
 40
0.3455730341
 40
0.4198992056
 40
0.4891769132
 40
0.5544078032
 40
0.6154167366
 40
0.6719048188
 40
0.7240361469
 40
0.7728344784
 40
0.8183467686
 40
0.8632887702
 40
0.9072993231
 40
0.9525592833
 40
1.0
 40
1.0
 40
1.0
 40
1.0
 10
41.030178517
 20
37.3359838256
 30
0.0
 10
41.0298391982
 20
37.3894159474
 30
0.0
 10
41.0291794868
 20
37.4932998844
 30
0.0
 10
41.0212725929
 20
37.644532435
 30
0.0
 10
41.0093479875
 20
37.7866770187
 30
0.0
 10
40.9928673202
 20
37.9200444648
 30
0.0
 10
40.9712423785
 20
38.0443730318
 30
0.0
 10
40.9436727026
 20
38.1596682339
 30
0.0
 10
40.9120112311
 20
38.2660260739
 30
0.0
 10
40.8761447322
 20
38.3634057586
 30
0.0
 10
40.834571785
 20
38.4503622399
 30
0.0
 10
40.7875908885
 20
38.5265853263
 30
0.0
 10
40.7343580889
 20
38.5907328711
 30
0.0
 10
40.6755339814
 20
38.6439319523
 30
0.0
 10
40.6108472021
 20
38.6850707921
 30
0.0
 10
40.5403087937
 20
38.7147086064
 30
0.0
 10
40.4640730981
 20
38.731371597
 30
0.0
 10
40.4114782572
 20
38.7338195812
 30
0.0
 10
40.3845621975
 20
38.7350723673
 30
0.0
  0
SPLINE
  5
34F
100
AcDbEntity
  8
0
100
AcDbSpline
 62
7
  6
BYLAYER
 70
0
 71
3
 72
23
 73
19
 74
0
 42
0.0000001
 43
0.0000001
 44
0.0000000001
 40
0.0
 40
0.0
 40
0.0
 40
0.0
 40
0.0761552192
 40
0.1496194392
 40
0.2208957284
 40
0.2896776622
 40
0.3566598913
 40
0.4216336098
 40
0.4853990657
 40
0.5480836388
 40
0.6083947632
 40
0.6653066787
 40
0.7200632636
 40
0.7735344773
 40
0.8273829359
 40
0.8820801902
 40
0.9393759177
 40
1.0
 40
1.0
 40
1.0
 40
1.0
 10
39.2315674059
 20
37.3359838256
 30
0.0
 10
39.2324483193
 20
37.3965212565
 30
0.0
 10
39.2341790184
 20
37.5154569848
 30
0.0
 10
39.2476446541
 20
37.6905948863
 30
0.0
 10
39.2678703334
 20
37.8592141729
 30
0.0
 10
39.3000266239
 20
38.0207051213
 30
0.0
 10
39.3377695625
 20
38.1758245918
 30
0.0
 10
39.3862872512
 20
38.3237719479
 30
0.0
 10
39.4421903281
 20
38.4653842713
 30
0.0
 10
39.5068089851
 20
38.5991837586
 30
0.0
 10
39.5799362969
 20
38.7223774349
 30
0.0
 10
39.6646945524
 20
38.8302464971
 30
0.0
 10
39.7606062554
 20
38.9204915402
 30
0.0
 10
39.8658465663
 20
38.9955431688
 30
0.0
 10
39.9814351801
 20
39.0534840113
 30
0.0
 10
40.1070270862
 20
39.0948174937
 30
0.0
 10
40.242587357
 20
39.1192999463
 30
0.0
 10
40.3363550351
 20
39.1223785214
 30
0.0
 10
40.3845621975
 20
39.1239612562
 30
0.0
  0
SPLINE
  5
350
100
AcDbEntity
  8
0
100
AcDbSpline
 62
7
  6
BYLAYER
 70
0
 71
3
 72
23
 73
19
 74
0
 42
0.0000001
 43
0.0000001
 44
0.0000000001
 40
0.0
 40
0.0
 40
0.0
 40
0.0
 40
0.0601938276
 40
0.1171400409
 40
0.1715493958
 40
0.225158624
 40
0.2786183664
 40
0.3336419986
 40
0.3908965429
 40
0.4515934701
 40
0.5146879628
 40
0.5785890492
 40
0.6440047473
 40
0.7111254459
 40
0.780040385
 40
0.8508108197
 40
0.9240690807
 40
1.0
 40
1.0
 40
1.0
 40
1.0
 10
40.3845621975
 20
35.526739034
 30
0.0
 10
40.336344739
 20
35.5282516076
 30
0.0
 10
40.2425112796
 20
35.5311951477
 30
0.0
 10
40.1069693051
 20
35.5566772541
 30
0.0
 10
39.9814047944
 20
35.5987705518
 30
0.0
 10
39.8655978579
 20
35.6574124766
 30
0.0
 10
39.7603345331
 20
35.7341088864
 30
0.0
 10
39.6646653734
 20
35.8266600454
 30
0.0
 10
39.579923717
 20
35.9367622086
 30
0.0
 10
39.5067830877
 20
36.0621944961
 30
0.0
 10
39.4423757772
 20
36.1980832868
 30
0.0
 10
39.3860993479
 20
36.3415666223
 30
0.0
 10
39.3379276092
 20
36.4913991792
 30
0.0
 10
39.2999889277
 20
36.6482227231
 30
0.0
 10
39.2680297807
 20
36.8107588711
 30
0.0
 10
39.2475723184
 20
36.9800982966
 30
0.0
 10
39.2341938823
 20
37.1557541494
 30
0.0
 10
39.232453292
 20
37.2751940293
 30
0.0
 10
39.2315674059
 20
37.3359838256
 30
0.0
  0
SPLINE
  5
351
100
AcDbEntity
  8
0
100
AcDbSpline
 62
7
  6
BYLAYER
 70
0
 71
3
 72
23
 73
19
 74
0
 42
0.0000001
 43
0.0000001
 44
0.0000000001
 40
0.0
 40
0.0
 40
0.0
 40
0.0
 40
0.0762848002
 40
0.149861847
 40
0.2209621119
 40
0.2900252077
 40
0.357383071
 40
0.4229128628
 40
0.4867687791
 40
0.5497522492
 40
0.6102508182
 40
0.6671926634
 40
0.7217918346
 40
0.7749869378
 40
0.8282806489
 40
0.8829435821
 40
0.9398428553
 40
1.0
 40
1.0
 40
1.0
 40
1.0
 10
41.5162896281
 20
37.3359838256
 30
0.0
 10
41.515293668
 20
37.2752040651
 30
0.0
 10
41.5133370998
 20
37.1558019411
 30
0.0
 10
41.501521885
 20
36.9800217666
 30
0.0
 10
41.4797544057
 20
36.8110433537
 30
0.0
 10
41.4515158406
 20
36.6480393812
 30
0.0
 10
41.4134393203
 20
36.4915670208
 30
0.0
 10
41.3669936531
 20
36.3417545805
 30
0.0
 10
41.3131237346
 20
36.1981430883
 30
0.0
 10
41.2509430482
 20
36.0622982558
 30
0.0
 10
41.1801095581
 20
35.9368860415
 30
0.0
 10
41.0976556413
 20
35.8268073404
 30
0.0
 10
41.0042381786
 20
35.7339367264
 30
0.0
 10
40.9005040439
 20
35.6575086015
 30
0.0
 10
40.7858676996
 20
35.5984202154
 30
0.0
 10
40.6608398545
 20
35.5568478946
 30
0.0
 10
40.5258721384
 20
35.5311589449
 30
0.0
 10
40.4325314524
 20
35.5282394226
 30
0.0
 10
40.3845621975
 20
35.526739034
 30
0.0
  0
SPLINE
  5
352
100
AcDbEntity
  8
0
100
AcDbSpline
 62
7
  6
BYLAYER
 70
0
 71
3
 72
23
 73
19
 74
0
 42
0.0000001
 43
0.0000001
 44
0.0000000001
 40
0.0
 40
0.0
 40
0.0
 40
0.0
 40
0.0605917152
 40
0.117843907
 40
0.1728002334
 40
0.2263327549
 40
0.2795361081
 40
0.3338578494
 40
0.390447811
 40
0.4505532401
 40
0.513121072
 40
0.5768398616
 40
0.6419264701
 40
0.7091490526
 40
0.7780809055
 40
0.8496947931
 40
0.9234840735
 40
1.0
 40
1.0
 40
1.0
 40
1.0
 10
40.3845621975
 20
39.1239612562
 30
0.0
 10
40.4325209946
 20
39.1223906199
 30
0.0
 10
40.5257953309
 20
39.1193359132
 30
0.0
 10
40.6607836581
 20
39.0946497746
 30
0.0
 10
40.7858336096
 20
39.0538309559
 30
0.0
 10
40.9002549556
 20
38.9954507018
 30
0.0
 10
41.0039617792
 20
38.9206681681
 30
0.0
 10
41.0976304749
 20
38.8301003692
 30
0.0
 10
41.1800989616
 20
38.7222526299
 30
0.0
 10
41.2509194946
 20
38.5990797416
 30
0.0
 10
41.3133048119
 20
38.4653188813
 30
0.0
 10
41.3668123529
 20
38.3235863382
 30
0.0
 10
41.4135960503
 20
38.1756527781
 30
0.0
 10
41.451477198
 20
38.0208903869
 30
0.0
 10
41.4799066907
 20
37.8589255975
 30
0.0
 10
41.5014526801
 20
37.6906724151
 30
0.0
 10
41.5133516692
 20
37.5154088582
 30
0.0
 10
41.5152985359
 20
37.3965111337
 30
0.0
 10
41.5162896281
 20
37.3359838256
 30
0.0
  0
SPLINE
  5
353
100
AcDbEntity
  8
0
100
AcDbSpline
 62
7
  6
BYLAYER
 70
0
 71
3
 72
19
 73
15
 74
0
 42
0.0000001
 43
0.0000001
 44
0.0000000001
 40
0.0
 40
0.0
 40
0.0
 40
0.0
 40
0.1007444911
 40
0.1936958167
 40
0.2798053435
 40
0.35813705
 40
0.4296196259
 40
0.4938176657
 40
0.5503034625
 40
0.5999826715
 40
0.6943065367
 40
0.791686206
 40
0.8938608697
 40
1.0
 40
1.0
 40
1.0
 40
1.0
 10
24.8366021281
 20
36.8468345201
 30
0.0
 10
24.8071533355
 20
36.820337284
 30
0.0
 10
24.7505337838
 20
36.7693925254
 30
0.0
 10
24.6700182535
 20
36.6944065748
 30
0.0
 10
24.5955939115
 20
36.6258172221
 30
0.0
 10
24.5284319796
 20
36.5618114525
 30
0.0
 10
24.4686787387
 20
36.5025580748
 30
0.0
 10
24.4153162995
 20
36.44904261
 30
0.0
 10
24.3697986011
 20
36.3998906314
 30
0.0
 10
24.3161025961
 20
36.3421433499
 30
0.0
 10
24.2571517476
 20
36.2676113291
 30
0.0
 10
24.1897343647
 20
36.1737269592
 30
0.0
 10
24.1254668687
 20
36.0720486766
 30
0.0
 10
24.0853439783
 20
36.0006286517
 30
0.0
 10
24.0649007392
 20
35.964239034
 30
0.0
  0
SPLINE
  5
354
100
AcDbEntity
  8
0
100
AcDbSpline
 62
7
  6
BYLAYER
 70
0
 71
3
 72
19
 73
15
 74
0
 42
0.0000001
 43
0.0000001
 44
0.0000000001
 40
0.0
 40
0.0
 40
0.0
 40
0.0
 40
0.0626282815
 40
0.1241117723
 40
0.183333017
 40
0.242276623
 40
0.3002922575
 40
0.3587146376
 40
0.4168916156
 40
0.476302076
 40
0.5986506618
 40
0.7262417593
 40
0.8600496475
 40
1.0
 40
1.0
 40
1.0
 40
1.0
 10
25.6204562948
 20
38.0985706312
 30
0.0
 10
25.6196793047
 20
38.0666407053
 30
0.0
 10
25.6181395273
 20
38.003364505
 30
0.0
 10
25.6073560872
 20
37.9103980793
 30
0.0
 10
25.5899164306
 20
37.8204021216
 30
0.0
 10
25.5648935126
 20
37.734000193
 30
0.0
 10
25.532476764
 20
37.6506007715
 30
0.0
 10
25.4943855151
 20
37.5699961184
 30
0.0
 10
25.4470919723
 20
37.4935668839
 30
0.0
 10
25.3750880173
 20
37.394605281
 30
0.0
 10
25.2723084506
 20
37.2748062617
 30
0.0
 10
25.140276543
 20
37.1304384532
 30
0.0
 10
24.9942337757
 20
36.9869672055
 30
0.0
 10
24.8899261465
 20
36.8942389469
 30
0.0
 10
24.8366021281
 20
36.8468345201
 30
0.0
  0
SPLINE
  5
355
100
AcDbEntity
  8
0
100
AcDbSpline
 62
7
  6
BYLAYER
 70
0
 71
3
 72
23
 73
19
 74
0
 42
0.0000001
 43
0.0000001
 44
0.0000000001
 40
0.0
 40
0.0
 40
0.0
 40
0.0
 40
0.0693466064
 40
0.1352930919
 40
0.1978674466
 40
0.2582731493
 40
0.3166122183
 40
0.3742968028
 40
0.4314815603
 40
0.4893204543
 40
0.5478576058
 40
0.6071238591
 40
0.6667289909
 40
0.7281155425
 40
0.7915004487
 40
0.8581227709
 40
0.927305599
 40
1.0
 40
1.0
 40
1.0
 40
1.0
 10
24.678616017
 20
39.1239612562
 30
0.0
 10
24.7151152728
 20
39.1230780489
 30
0.0
 10
24.786324196
 20
39.1213549387
 30
0.0
 10
24.8897845184
 20
39.1082154058
 30
0.0
 10
24.9871288265
 20
39.0872956991
 30
0.0
 10
25.0777405856
 20
39.0567893635
 30
0.0
 10
25.162264176
 20
39.0179230944
 30
0.0
 10
25.2399966445
 20
38.9698845264
 30
0.0
 10
25.3111963796
 20
38.9130885991
 30
0.0
 10
25.3758747216
 20
38.8483413698
 30
0.0
 10
25.4336790193
 20
38.7759968931
 30
0.0
 10
25.4838256719
 20
38.6970163444
 30
0.0
 10
25.5255574085
 20
38.6116928436
 30
0.0
 10
25.5610131572
 20
38.5212139159
 30
0.0
 10
25.5870703511
 20
38.4237720367
 30
0.0
 10
25.6070179986
 20
38.3207899707
 30
0.0
 10
25.6183526666
 20
38.2114903345
 30
0.0
 10
25.6197436097
 20
38.1368265282
 30
0.0
 10
25.6204562948
 20
38.0985706312
 30
0.0
  0
SPLINE
  5
356
100
AcDbEntity
  8
0
100
AcDbSpline
 62
7
  6
BYLAYER
 70
0
 71
3
 72
23
 73
19
 74
0
 42
0.0000001
 43
0.0000001
 44
0.0000000001
 40
0.0
 40
0.0
 40
0.0
 40
0.0
 40
0.0804560931
 40
0.1561569043
 40
0.2278595039
 40
0.2959222374
 40
0.3606216087
 40
0.4225480112
 40
0.4818810829
 40
0.5393749129
 40
0.5955983587
 40
0.6504006914
 40
0.7048892549
 40
0.7602792305
 40
0.8162164507
 40
0.8746402622
 40
0.9358854506
 40
1.0
 40
1.0
 40
1.0
 40
1.0
 10
23.6760118503
 20
37.9086834784
 30
0.0
 10
23.6785114181
 20
37.9563231231
 30
0.0
 10
23.6833628192
 20
38.0487867161
 30
0.0
 10
23.6993240183
 20
38.1830263581
 30
0.0
 10
23.7225800721
 20
38.3087305934
 30
0.0
 10
23.7538201624
 20
38.4259631512
 30
0.0
 10
23.7915475037
 20
38.5351555013
 30
0.0
 10
23.8369043102
 20
38.6358510186
 30
0.0
 10
23.8905530157
 20
38.7274207705
 30
0.0
 10
23.9504046995
 20
38.8109805443
 30
0.0
 10
24.0182172273
 20
38.8846635496
 30
0.0
 10
24.0923677888
 20
38.9492367705
 30
0.0
 10
24.1736672773
 20
39.0038172258
 30
0.0
 10
24.2619917622
 20
39.0474546136
 30
0.0
 10
24.3566201231
 20
39.0823779551
 30
0.0
 10
24.4581958879
 20
39.105932919
 30
0.0
 10
24.5662020553
 20
39.1219411825
 30
0.0
 10
24.6405772382
 20
39.1232777011
 30
0.0
 10
24.678616017
 20
39.1239612562
 30
0.0
  0
SPLINE
  5
357
100
AcDbEntity
  8
0
100
AcDbSpline
 62
7
  6
BYLAYER
 70
0
 71
3
 72
23
 73
19
 74
0
 42
0.0000001
 43
0.0000001
 44
0.0000000001
 40
0.0
 40
0.0
 40
0.0
 40
0.0
 40
0.0487687531
 40
0.0966907703
 40
0.1437896795
 40
0.1917641617
 40
0.2398624247
 40
0.2890095436
 40
0.3408779004
 40
0.3944382009
 40
0.4512635786
 40
0.5112412145
 40
0.5760674008
 40
0.6475188413
 40
0.7249840861
 40
0.8089598572
 40
0.9005630634
 40
1.0
 40
1.0
 40
1.0
 40
1.0
 10
24.6702609823
 20
38.7350723673
 30
0.0
 10
24.6520057751
 20
38.7344213465
 30
0.0
 10
24.6158123126
 20
38.7331306079
 30
0.0
 10
24.5624453685
 20
38.7248678877
 30
0.0
 10
24.5109423176
 20
38.7098973194
 30
0.0
 10
24.4609567448
 20
38.690359767
 30
0.0
 10
24.4125908268
 20
38.6652252034
 30
0.0
 10
24.3666474651
 20
38.6333217515
 30
0.0
 10
24.3220900818
 20
38.5962991235
 30
0.0
 10
24.2789403395
 20
38.5534355313
 30
0.0
 10
24.2389039013
 20
38.5034617013
 30
0.0
 10
24.2058862223
 20
38.4437688119
 30
0.0
 10
24.1765300377
 20
38.3762901657
 30
0.0
 10
24.153651744
 20
38.2994466627
 30
0.0
 10
24.1354598057
 20
38.2140977695
 30
0.0
 10
24.123110637
 20
38.1201177304
 30
0.0
 10
24.1142266366
 20
38.0174683186
 30
0.0
 10
24.113756538
 20
37.945923013
 30
0.0
 10
24.1135118503
 20
37.9086834784
 30
0.0
  0
SPLINE
  5
358
100
AcDbEntity
  8
0
100
AcDbSpline
 62
7
  6
BYLAYER
 70
0
 71
3
 72
19
 73
15
 74
0
 42
0.0000001
 43
0.0000001
 44
0.0000000001
 40
0.0
 40
0.0
 40
0.0
 40
0.0
 40
0.1403978324
 40
0.2704646927
 40
0.3931978496
 40
0.5116753981
 40
0.5692610864
 40
0.6253281944
 40
0.6827383808
 40
0.7402030907
 40
0.7998603739
 40
0.8625827645
 40
0.9290124179
 40
1.0
 40
1.0
 40
1.0
 40
1.0
 10
25.1829562948
 20
38.1190784437
 30
0.0
 10
25.1816034979
 20
38.1617173128
 30
0.0
 10
25.1789974479
 20
38.2438575313
 30
0.0
 10
25.1561257615
 20
38.3615861968
 30
0.0
 10
25.1171923921
 20
38.4678224081
 30
0.0
 10
25.0719422814
 20
38.5469610845
 30
0.0
 10
25.0286027848
 20
38.6027562299
 30
0.0
 10
24.9903890115
 20
38.6381869233
 30
0.0
 10
24.9481412953
 20
38.6685439357
 30
0.0
 10
24.9010003038
 20
38.6930800473
 30
0.0
 10
24.8496895805
 20
38.7120243454
 30
0.0
 10
24.7939378394
 20
38.7258447658
 30
0.0
 10
24.7334898252
 20
38.7330390481
 30
0.0
 10
24.6917982132
 20
38.734379771
 30
0.0
 10
24.6702609823
 20
38.7350723673
 30
0.0
  0
SPLINE
  5
359
100
AcDbEntity
  8
0
100
AcDbSpline
 62
7
  6
BYLAYER
 70
0
 71
3
 72
19
 73
15
 74
0
 42
0.0000001
 43
0.0000001
 44
0.0000000001
 40
0.0
 40
0.0
 40
0.0
 40
0.0
 40
0.0865424742
 40
0.168442758
 40
0.2461840313
 40
0.3198857013
 40
0.388744289
 40
0.4537902982
 40
0.5150915648
 40
0.5720426787
 40
0.6807189769
 40
0.7864088115
 40
0.8924058553
 40
1.0
 40
1.0
 40
1.0
 40
1.0
 10
24.5479736559
 20
37.1339438951
 30
0.0
 10
24.5754268016
 20
37.1558351567
 30
0.0
 10
24.6288604899
 20
37.1984434194
 30
0.0
 10
24.7051383073
 20
37.2629697877
 30
0.0
 10
24.7748430678
 20
37.3270536984
 30
0.0
 10
24.8394841817
 20
37.3887992588
 30
0.0
 10
24.8976466664
 20
37.4497907943
 30
0.0
 10
24.9490868107
 20
37.51002988
 30
0.0
 10
24.9957538822
 20
37.5679851442
 30
0.0
 10
25.0481441705
 20
37.6437645561
 30
0.0
 10
25.1024876088
 20
37.7398982212
 30
0.0
 10
25.1496740373
 20
37.8614688055
 30
0.0
 10
25.1777575994
 20
37.9886720252
 30
0.0
 10
25.1812147794
 20
38.075393488
 30
0.0
 10
25.1829562948
 20
38.1190784437
 30
0.0
  0
SPLINE
  5
35A
100
AcDbEntity
  8
0
100
AcDbSpline
 62
7
  6
BYLAYER
 70
0
 71
3
 72
19
 73
15
 74
0
 42
0.0000001
 43
0.0000001
 44
0.0000000001
 40
0.0
 40
0.0
 40
0.0
 40
0.0
 40
0.1101376565
 40
0.2196160349
 40
0.3290440995
 40
0.4395239398
 40
0.496754047
 40
0.5574987257
 40
0.6219119362
 40
0.6899948521
 40
0.7618060053
 40
0.8374013387
 40
0.9167652179
 40
1.0
 40
1.0
 40
1.0
 40
1.0
 10
23.5787896281
 20
35.9027155965
 30
0.0
 10
23.6003891581
 20
35.9568132504
 30
0.0
 10
23.6434589244
 20
36.0646847324
 30
0.0
 10
23.7246767512
 20
36.2187476163
 30
0.0
 10
23.814719607
 20
36.3678998119
 30
0.0
 10
23.9011485871
 20
36.4863526526
 30
0.0
 10
23.9765141078
 20
36.5807438302
 30
0.0
 10
24.041142496
 20
36.6523053511
 30
0.0
 10
24.1095710886
 20
36.7281578897
 30
0.0
 10
24.1863742469
 20
36.8041061073
 30
0.0
 10
24.2669692566
 20
36.8846046463
 30
0.0
 10
24.3558489411
 20
36.9650538942
 30
0.0
 10
24.448668919
 20
37.050124469
 30
0.0
 10
24.5143508582
 20
37.1055641451
 30
0.0
 10
24.5479736559
 20
37.1339438951
 30
0.0
  0
SPLINE
  5
35B
100
AcDbEntity
  8
0
100
AcDbSpline
 62
7
  6
BYLAYER
 70
0
 71
3
 72
23
 73
19
 74
0
 42
0.0000001
 43
0.0000001
 44
0.0000000001
 40
0.0
 40
0.0
 40
0.0
 40
0.0
 40
0.0668051032
 40
0.1310281427
 40
0.1926086564
 40
0.2523117014
 40
0.3106287808
 40
0.3693480517
 40
0.4281774433
 40
0.4884054357
 40
0.5496265969
 40
0.6096343766
 40
0.6703537166
 40
0.7327505304
 40
0.7958645995
 40
0.8614564583
 40
0.9293925626
 40
1.0
 40
1.0
 40
1.0
 40
1.0
 10
35.587519082
 20
49.3199226439
 30
0.0
 10
35.6032701791
 20
49.3203736832
 30
0.0
 10
35.6341635824
 20
49.3212583287
 30
0.0
 10
35.6792778368
 20
49.3271788714
 30
0.0
 10
35.7218979598
 20
49.3374107851
 30
0.0
 10
35.7616584423
 20
49.3522252046
 30
0.0
 10
35.7990735624
 20
49.3707696502
 30
0.0
 10
35.8337416664
 20
49.3936767722
 30
0.0
 10
35.8661642692
 20
49.4203933585
 30
0.0
 10
35.8952456365
 20
49.4515228015
 30
0.0
 10
35.921529904
 20
49.4853300567
 30
0.0
 10
35.9447796332
 20
49.5214778143
 30
0.0
 10
35.9637326452
 20
49.5603708953
 30
0.0
 10
35.9792390198
 20
49.6014840467
 30
0.0
 10
35.9921158878
 20
49.6447353575
 30
0.0
 10
36.0003846604
 20
49.6904083741
 30
0.0
 10
36.0061769539
 20
49.7382490868
 30
0.0
 10
36.0066548612
 20
49.7709313571
 30
0.0
 10
36.0068984223
 20
49.7875875745
 30
0.0
  0
SPLINE
  5
35C
100
AcDbEntity
  8
0
100
AcDbSpline
 62
7
  6
BYLAYER
 70
0
 71
3
 72
23
 73
19
 74
0
 42
0.0000001
 43
0.0000001
 44
0.0000000001
 40
0.0
 40
0.0
 40
0.0
 40
0.0
 40
0.0845708429
 40
0.1647891306
 40
0.2406690405
 40
0.3126880876
 40
0.3801256895
 40
0.443723708
 40
0.5045514016
 40
0.5624914531
 40
0.6178500761
 40
0.6707372932
 40
0.7226275936
 40
0.7746296064
 40
0.82714796
 40
0.8818740128
 40
0.9389818027
 40
1.0
 40
1.0
 40
1.0
 40
1.0
 10
35.2430095334
 20
49.8461813245
 30
0.0
 10
35.243078741
 20
49.8260938246
 30
0.0
 10
35.2432135942
 20
49.7869526559
 30
0.0
 10
35.2482760515
 20
49.7300164358
 30
0.0
 10
35.2534483983
 20
49.6760703457
 30
0.0
 10
35.2631256344
 20
49.6258412734
 30
0.0
 10
35.2738578229
 20
49.5787748486
 30
0.0
 10
35.2892962268
 20
49.5358741726
 30
0.0
 10
35.3048028045
 20
49.495401222
 30
0.0
 10
35.324612474
 20
49.458998187
 30
0.0
 10
35.3467082134
 20
49.4262351853
 30
0.0
 10
35.3718567596
 20
49.397558018
 30
0.0
 10
35.4003661279
 20
49.3734059827
 30
0.0
 10
35.4320753113
 20
49.3538546694
 30
0.0
 10
35.4667199537
 20
49.3384153122
 30
0.0
 10
35.5043552936
 20
49.3277500728
 30
0.0
 10
35.544962255
 20
49.3210421417
 30
0.0
 10
35.5730238257
 20
49.3203039554
 30
0.0
 10
35.587519082
 20
49.3199226439
 30
0.0
  0
SPLINE
  5
35D
100
AcDbEntity
  8
0
100
AcDbSpline
 62
7
  6
BYLAYER
 70
0
 71
3
 72
19
 73
15
 74
0
 42
0.0000001
 43
0.0000001
 44
0.0000000001
 40
0.0
 40
0.0
 40
0.0
 40
0.0
 40
0.087012702
 40
0.1733808457
 40
0.2661030577
 40
0.367127068
 40
0.4224325239
 40
0.4834538694
 40
0.5508452898
 40
0.6248380502
 40
0.7062392083
 40
0.795464058
 40
0.8935406314
 40
1.0
 40
1.0
 40
1.0
 40
1.0
 10
35.587519082
 20
50.431033755
 30
0.0
 10
35.565409802
 20
50.4296688598
 30
0.0
 10
35.5213550194
 20
50.42694918
 30
0.0
 10
35.4578909116
 20
50.4014419911
 30
0.0
 10
35.3988838772
 20
50.361533029
 30
0.0
 10
35.353938383
 20
50.3166822142
 30
0.0
 10
35.3214757124
 20
50.2720282328
 30
0.0
 10
35.3008504777
 20
50.2301690709
 30
0.0
 10
35.2821772073
 20
50.1823805018
 30
0.0
 10
35.2679587396
 20
50.1276913821
 30
0.0
 10
35.2566490186
 20
50.0667710031
 30
0.0
 10
35.2487041272
 20
49.9991686295
 30
0.0
 10
35.2438478973
 20
49.924920744
 30
0.0
 10
35.2432965207
 20
49.8731352643
 30
0.0
 10
35.2430095334
 20
49.8461813245
 30
0.0
  0
SPLINE
  5
35E
100
AcDbEntity
  8
0
100
AcDbSpline
 62
7
  6
BYLAYER
 70
0
 71
3
 72
23
 73
19
 74
0
 42
0.0000001
 43
0.0000001
 44
0.0000000001
 40
0.0
 40
0.0
 40
0.0
 40
0.0
 40
0.0904148576
 40
0.1747665608
 40
0.2538748524
 40
0.3281108106
 40
0.3977027636
 40
0.4624366097
 40
0.5236473553
 40
0.5820039867
 40
0.6370060337
 40
0.6898299238
 40
0.7412015404
 40
0.7913740167
 40
0.8414088562
 40
0.8924572808
 40
0.9452960887
 40
1.0
 40
1.0
 40
1.0
 40
1.0
 10
36.0068984223
 20
49.7875875745
 30
0.0
 10
36.0066673931
 20
49.8136414676
 30
0.0
 10
36.0062208275
 20
49.8640020989
 30
0.0
 10
36.0005000505
 20
49.9369594524
 30
0.0
 10
35.9922146071
 20
50.0049722309
 30
0.0
 10
35.9796372997
 20
50.0680117203
 30
0.0
 10
35.9641223499
 20
50.126105824
 30
0.0
 10
35.9451951074
 20
50.1792445899
 30
0.0
 10
35.9224272613
 20
50.2273257389
 30
0.0
 10
35.8958659973
 20
50.2701544576
 30
0.0
 10
35.8663664681
 20
50.3079716643
 30
0.0
 10
35.8342316546
 20
50.3408574651
 30
0.0
 10
35.799318041
 20
50.3685549281
 30
0.0
 10
35.7622255268
 20
50.3918421809
 30
0.0
 10
35.7220864061
 20
50.4091962605
 30
0.0
 10
35.6794517414
 20
50.4216812735
 30
0.0
 10
35.634274049
 20
50.4294210474
 30
0.0
 10
35.603283228
 20
50.4304900062
 30
0.0
 10
35.587519082
 20
50.431033755
 30
0.0
  0
SPLINE
  5
35F
100
AcDbEntity
  8
0
100
AcDbSpline
 62
7
  6
BYLAYER
 70
0
 71
3
 72
23
 73
19
 74
0
 42
0.0000001
 43
0.0000001
 44
0.0000000001
 40
0.0
 40
0.0
 40
0.0
 40
0.0
 40
0.0749794952
 40
0.1463444846
 40
0.2148224774
 40
0.2804306624
 40
0.3437727087
 40
0.4049709816
 40
0.465097248
 40
0.5238753464
 40
0.5816730514
 40
0.6380603683
 40
0.6942416597
 40
0.750694746
 40
0.8087726548
 40
0.8692619463
 40
0.9327371273
 40
1.0
 40
1.0
 40
1.0
 40
1.0
 10
34.8957873112
 20
49.8456387897
 30
0.0
 10
34.8962732604
 20
49.877125863
 30
0.0
 10
34.8972217328
 20
49.9385821251
 30
0.0
 10
34.9056310677
 20
50.0284586847
 30
0.0
 10
34.9187164532
 20
50.1138025788
 30
0.0
 10
34.9386418893
 20
50.1943534353
 30
0.0
 10
34.962743039
 20
50.2705278916
 30
0.0
 10
34.9926376781
 20
50.3422094886
 30
0.0
 10
35.0286480942
 20
50.4088082609
 30
0.0
 10
35.0690681905
 20
50.4711451038
 30
0.0
 10
35.1155841659
 20
50.5271894414
 30
0.0
 10
35.168261701
 20
50.5758319212
 30
0.0
 10
35.225905594
 20
50.6175960436
 30
0.0
 10
35.2897342012
 20
50.6506961681
 30
0.0
 10
35.3585752746
 20
50.6767793475
 30
0.0
 10
35.4327385803
 20
50.6959383735
 30
0.0
 10
35.5125192358
 20
50.7065984518
 30
0.0
 10
35.5674143473
 20
50.7080597273
 30
0.0
 10
35.5956571029
 20
50.7088115328
 30
0.0
  0
SPLINE
  5
360
100
AcDbEntity
  8
0
100
AcDbSpline
 62
7
  6
BYLAYER
 70
0
 71
3
 72
23
 73
19
 74
0
 42
0.0000001
 43
0.0000001
 44
0.0000000001
 40
0.0
 40
0.0
 40
0.0
 40
0.0
 40
0.0597393095
 40
0.1167538
 40
0.1725965211
 40
0.2270440294
 40
0.2816878404
 40
0.3368143445
 40
0.3927735713
 40
0.4509400248
 40
0.5106146263
 40
0.5716969705
 40
0.6343441583
 40
0.700024382
 40
0.7693114286
 40
0.8417680817
 40
0.9186795531
 40
1.0
 40
1.0
 40
1.0
 40
1.0
 10
35.5316380056
 20
49.0421448661
 30
0.0
 10
35.5086322145
 20
49.0427294936
 30
0.0
 10
35.4636699684
 20
49.0438720825
 30
0.0
 10
35.3978544897
 20
49.054038468
 30
0.0
 10
35.3353595646
 20
49.0700398148
 30
0.0
 10
35.2760953936
 20
49.0932138797
 30
0.0
 10
35.2199938013
 20
49.1225835492
 30
0.0
 10
35.1670734022
 20
49.1584858827
 30
0.0
 10
35.1179803635
 20
49.2015045034
 30
0.0
 10
35.0719452084
 20
49.2501547088
 30
0.0
 10
35.0298594379
 20
49.3048857847
 30
0.0
 10
34.9943721444
 20
49.3660813264
 30
0.0
 10
34.963619437
 20
49.4322888276
 30
0.0
 10
34.9387706926
 20
49.504311716
 30
0.0
 10
34.9195085957
 20
49.5818710175
 30
0.0
 10
34.9052783858
 20
49.6648952171
 30
0.0
 10
34.8972858652
 20
49.7534298477
 30
0.0
 10
34.8962960229
 20
49.8143367721
 30
0.0
 10
34.8957873112
 20
49.8456387897
 30
0.0
  0
SPLINE
  5
361
100
AcDbEntity
  8
0
100
AcDbSpline
 62
7
  6
BYLAYER
 70
0
 71
3
 72
15
 73
11
 74
0
 42
0.0000001
 43
0.0000001
 44
0.0000000001
 40
0.0
 40
0.0
 40
0.0
 40
0.0
 40
0.1344368813
 40
0.2624529265
 40
0.3881675815
 40
0.5119264187
 40
0.6343464651
 40
0.7549177433
 40
0.8752838341
 40
1.0
 40
1.0
 40
1.0
 40
1.0
 10
36.0345676931
 20
49.3790589286
 30
0.0
 10
36.0216776402
 20
49.3533509664
 30
0.0
 10
35.9965131759
 20
49.3031628793
 30
0.0
 10
35.9479089016
 20
49.235524336
 30
0.0
 10
35.8919555416
 20
49.1770461445
 30
0.0
 10
35.8285414979
 20
49.1286979412
 30
0.0
 10
35.7601463419
 20
49.0899289772
 30
0.0
 10
35.6874262049
 20
49.0620170503
 30
0.0
 10
35.6107182712
 20
49.0451095901
 30
0.0
 10
35.5583081776
 20
49.0431447325
 30
0.0
 10
35.5316380056
 20
49.0421448661
 30
0.0
  0
SPLINE
  5
362
100
AcDbEntity
  8
0
100
AcDbSpline
 62
7
  6
BYLAYER
 70
0
 71
3
 72
23
 73
19
 74
0
 42
0.0000001
 43
0.0000001
 44
0.0000000001
 40
0.0
 40
0.0
 40
0.0
 40
0.0
 40
0.0468663022
 40
0.091465132
 40
0.1353036447
 40
0.1788584412
 40
0.224109749
 40
0.2711639825
 40
0.3216395357
 40
0.3757845468
 40
0.4345307335
 40
0.4986077811
 40
0.5675578187
 40
0.6422875106
 40
0.7228530219
 40
0.8093975318
 40
0.9016295946
 40
1.0
 40
1.0
 40
1.0
 40
1.0
 10
35.5473715126
 20
48.4171448661
 30
0.0
 10
35.5658803224
 20
48.4178286669
 30
0.0
 10
35.602002454
 20
48.4191631851
 30
0.0
 10
35.6543790112
 20
48.4309768183
 30
0.0
 10
35.7029942928
 20
48.450087317
 30
0.0
 10
35.7484578525
 20
48.4765074291
 30
0.0
 10
35.789604233
 20
48.5111791833
 30
0.0
 10
35.8276893843
 20
48.5529388736
 30
0.0
 10
35.8608979892
 20
48.6029140572
 30
0.0
 10
35.8915305697
 20
48.6597214489
 30
0.0
 10
35.9181927451
 20
48.7243341101
 30
0.0
 10
35.9433184441
 20
48.7957455532
 30
0.0
 10
35.9645762004
 20
48.8749634225
 30
0.0
 10
35.9842058009
 20
48.9612436589
 30
0.0
 10
36.0008827787
 20
49.055226794
 30
0.0
 10
36.0145935932
 20
49.1566280027
 30
0.0
 10
36.0269864167
 20
49.2652908183
 30
0.0
 10
36.0319869207
 20
49.3403306736
 30
0.0
 10
36.0345676931
 20
49.3790589286
 30
0.0
  0
SPLINE
  5
363
100
AcDbEntity
  8
0
100
AcDbSpline
 62
7
  6
BYLAYER
 70
0
 71
3
 72
19
 73
15
 74
0
 42
0.0000001
 43
0.0000001
 44
0.0000000001
 40
0.0
 40
0.0
 40
0.0
 40
0.0
 40
0.1324898168
 40
0.2609178799
 40
0.3893420431
 40
0.5191047014
 40
0.5839744505
 40
0.6462522919
 40
0.7053359353
 40
0.7633675603
 40
0.8211916818
 40
0.8788075525
 40
0.9388748
 40
1.0
 40
1.0
 40
1.0
 40
1.0
 10
35.2430095334
 20
48.7990893106
 30
0.0
 10
35.2440427904
 20
48.7751243583
 30
0.0
 10
35.2460776276
 20
48.7279291497
 30
0.0
 10
35.2625726416
 20
48.6591263951
 30
0.0
 10
35.2885585193
 20
48.5940096375
 30
0.0
 10
35.3190796962
 20
48.5439531148
 30
0.0
 10
35.347358623
 20
48.5070462113
 30
0.0
 10
35.3713314922
 20
48.4832850593
 30
0.0
 10
35.3966140243
 20
48.4629593596
 30
0.0
 10
35.4231886697
 20
48.4456041776
 30
0.0
 10
35.4522461928
 20
48.4335158991
 30
0.0
 10
35.4825345865
 20
48.4240855702
 30
0.0
 10
35.5143803342
 20
48.4177935536
 30
0.0
 10
35.5363106394
 20
48.41736235
 30
0.0
 10
35.5473715126
 20
48.4171448661
 30
0.0
  0
SPLINE
  5
364
100
AcDbEntity
  8
0
100
AcDbSpline
 62
7
  6
BYLAYER
 70
0
 71
3
 72
23
 73
19
 74
0
 42
0.0000001
 43
0.0000001
 44
0.0000000001
 40
0.0
 40
0.0
 40
0.0
 40
0.0
 40
0.0673550379
 40
0.1321166331
 40
0.1943612112
 40
0.2562215452
 40
0.3171469086
 40
0.3782628187
 40
0.4412968809
 40
0.506224168
 40
0.5713302905
 40
0.6345392307
 40
0.6964233526
 40
0.7569804078
 40
0.8173768404
 40
0.8779314651
 40
0.9386317473
 40
1.0
 40
1.0
 40
1.0
 40
1.0
 10
35.5408610959
 20
48.1393670883
 30
0.0
 10
35.5183957127
 20
48.1399521439
 30
0.0
 10
35.4743299547
 20
48.141099728
 30
0.0
 10
35.4101929945
 20
48.1512784185
 30
0.0
 10
35.3490433161
 20
48.1667610609
 30
0.0
 10
35.2916690453
 20
48.1898053139
 30
0.0
 10
35.2373504285
 20
48.21852792
 30
0.0
 10
35.1870663815
 20
48.2545171711
 30
0.0
 10
35.1396291419
 20
48.2962042813
 30
0.0
 10
35.0968420227
 20
48.3444622269
 30
0.0
 10
35.0583590023
 20
48.3961628474
 30
0.0
 10
35.0237439153
 20
48.4493561156
 30
0.0
 10
34.9949860006
 20
48.5042581667
 30
0.0
 10
34.9715347621
 20
48.5605783198
 30
0.0
 10
34.9528670537
 20
48.6182177152
 30
0.0
 10
34.9399379727
 20
48.6774551765
 30
0.0
 10
34.9321896922
 20
48.7379386803
 30
0.0
 10
34.9310716257
 20
48.7786315421
 30
0.0
 10
34.9305095334
 20
48.7990893106
 30
0.0
  0
SPLINE
  5
365
100
AcDbEntity
  8
0
100
AcDbSpline
 62
7
  6
BYLAYER
 70
0
 71
3
 72
23
 73
19
 74
0
 42
0.0000001
 43
0.0000001
 44
0.0000000001
 40
0.0
 40
0.0
 40
0.0
 40
0.0
 40
0.0848111375
 40
0.1651060526
 40
0.2417519641
 40
0.3142887543
 40
0.3837240513
 40
0.4499163807
 40
0.5131436018
 40
0.5743033515
 40
0.6323583187
 40
0.6874411169
 40
0.7399126128
 40
0.7909465191
 40
0.8414598543
 40
0.8923160169
 40
0.9448443844
 40
1.0
 40
1.0
 40
1.0
 40
1.0
 10
36.3541206445
 20
49.4609816717
 30
0.0
 10
36.3535150734
 20
49.4119578815
 30
0.0
 10
36.352336178
 20
49.3165208349
 30
0.0
 10
36.3426275746
 20
49.1770265034
 30
0.0
 10
36.3256964094
 20
49.0454240375
 30
0.0
 10
36.3033929955
 20
48.9209511662
 30
0.0
 10
36.2732712979
 20
48.8043776816
 30
0.0
 10
36.2380822234
 20
48.6948382244
 30
0.0
 10
36.194734458
 20
48.593418979
 30
0.0
 10
36.1459920405
 20
48.4997779511
 30
0.0
 10
36.0908408806
 20
48.4152235951
 30
0.0
 10
36.0294229357
 20
48.3415160531
 30
0.0
 10
35.9622758016
 20
48.2786839658
 30
0.0
 10
35.8888027041
 20
48.2279061189
 30
0.0
 10
35.8100772745
 20
48.1877230511
 30
0.0
 10
35.7254527498
 20
48.1594313398
 30
0.0
 10
35.6350636795
 20
48.1421514054
 30
0.0
 10
35.5727685775
 20
48.140310168
 30
0.0
 10
35.5408610959
 20
48.1393670883
 30
0.0
  0
SPLINE
  5
366
100
AcDbEntity
  8
0
100
AcDbSpline
 62
7
  6
BYLAYER
 70
0
 71
3
 72
23
 73
19
 74
0
 42
0.0000001
 43
0.0000001
 44
0.0000000001
 40
0.0
 40
0.0
 40
0.0
 40
0.0
 40
0.0518930693
 40
0.1018212981
 40
0.1500702528
 40
0.197798085
 40
0.2455259173
 40
0.2943473733
 40
0.3450036026
 40
0.3979567567
 40
0.454229026
 40
0.5149334837
 40
0.5805970038
 40
0.6520918459
 40
0.7292119075
 40
0.8129463294
 40
0.9029301462
 40
1.0
 40
1.0
 40
1.0
 40
1.0
 10
35.5956571029
 20
50.7088115328
 30
0.0
 10
35.624115908
 20
50.7081143058
 30
0.0
 10
35.6799559753
 20
50.7067462511
 30
0.0
 10
35.7611302195
 20
50.6919706528
 30
0.0
 10
35.8379493115
 20
50.6693306935
 30
0.0
 10
35.9100782587
 20
50.6371324844
 30
0.0
 10
35.9774397244
 20
50.5953555322
 30
0.0
 10
36.0402088581
 20
50.5443981892
 30
0.0
 10
36.098455851
 20
50.4843010828
 30
0.0
 10
36.1520518756
 20
50.4147818096
 30
0.0
 10
36.2000526391
 20
50.3347721004
 30
0.0
 10
36.2417085271
 20
50.2435909906
 30
0.0
 10
36.2768336407
 20
50.1408756886
 30
0.0
 10
36.3051227126
 20
50.0268268096
 30
0.0
 10
36.3273012474
 20
49.9013847616
 30
0.0
 10
36.3424010002
 20
49.7647349992
 30
0.0
 10
36.3524957637
 20
49.6166591292
 30
0.0
 10
36.3535655094
 20
49.5141683555
 30
0.0
 10
36.3541206445
 20
49.4609816717
 30
0.0
  0
SPLINE
  5
367
100
AcDbEntity
  8
0
100
AcDbSpline
 62
7
  6
BYLAYER
 70
0
 71
3
 72
23
 73
19
 74
0
 42
0.0000001
 43
0.0000001
 44
0.0000000001
 40
0.0
 40
0.0
 40
0.0
 40
0.0
 40
0.0619654007
 40
0.1221219056
 40
0.1809884968
 40
0.2399332165
 40
0.2999058311
 40
0.3599888475
 40
0.4217757417
 40
0.4865758264
 40
0.5515348046
 40
0.6150175428
 40
0.6772586167
 40
0.7397299624
 40
0.8030501027
 40
0.866495132
 40
0.9319734742
 40
1.0
 40
1.0
 40
1.0
 40
1.0
 10
32.2676430036
 20
55.20193969
 30
0.0
 10
32.2671889019
 20
55.2189978317
 30
0.0
 10
32.2662939548
 20
55.2526161534
 30
0.0
 10
32.2583955995
 20
55.3019059812
 30
0.0
 10
32.2464595237
 20
55.3494522768
 30
0.0
 10
32.2293557679
 20
55.3954012905
 30
0.0
 10
32.206779525
 20
55.439291042
 30
0.0
 10
32.1792985394
 20
55.4811749564
 30
0.0
 10
32.1475913512
 20
55.5216670744
 30
0.0
 10
32.1109118731
 20
55.5596337159
 30
0.0
 10
32.0706179304
 20
55.5944060055
 30
0.0
 10
32.0280506093
 20
55.6252089236
 30
0.0
 10
31.9830148205
 20
55.6509511456
 30
0.0
 10
31.9357004475
 20
55.6720536436
 30
0.0
 10
31.8862393979
 20
55.6886074873
 30
0.0
 10
31.8345360086
 20
55.7000779012
 30
0.0
 10
31.7807331398
 20
55.7072796755
 30
0.0
 10
31.7439949286
 20
55.708254084
 30
0.0
 10
31.7252752151
 20
55.7087505874
 30
0.0
  0
SPLINE
  5
368
100
AcDbEntity
  8
0
100
AcDbSpline
 62
7
  6
BYLAYER
 70
0
 71
3
 72
19
 73
15
 74
0
 42
0.0000001
 43
0.0000001
 44
0.0000000001
 40
0.0
 40
0.0
 40
0.0
 40
0.0
 40
0.1108026438
 40
0.2128292023
 40
0.3061013098
 40
0.3906473211
 40
0.4669244694
 40
0.5344810393
 40
0.593586941
 40
0.6445570045
 40
0.7362004526
 40
0.8250240256
 40
0.9119855848
 40
1.0
 40
1.0
 40
1.0
 40
1.0
 10
31.7948865933
 20
54.4357137284
 30
0.0
 10
31.8184922268
 20
54.460355376
 30
0.0
 10
31.8638338176
 20
54.5076869378
 30
0.0
 10
31.9279642296
 20
54.5767890522
 30
0.0
 10
31.9855635069
 20
54.640895867
 30
0.0
 10
32.0370045018
 20
54.6998862588
 30
0.0
 10
32.0811712913
 20
54.7546230929
 30
0.0
 10
32.1203657427
 20
54.8033335955
 30
0.0
 10
32.1517697363
 20
54.8481582028
 30
0.0
 10
32.1858521618
 20
54.9001157842
 30
0.0
 10
32.2188621485
 20
54.9635531536
 30
0.0
 10
32.2472281171
 20
55.0410772174
 30
0.0
 10
32.2645244374
 20
55.1208823979
 30
0.0
 10
32.2665993199
 20
55.1748124243
 30
0.0
 10
32.2676430036
 20
55.20193969
 30
0.0
  0
SPLINE
  5
369
100
AcDbEntity
  8
0
100
AcDbSpline
 62
7
  6
BYLAYER
 70
0
 71
3
 72
19
 73
15
 74
0
 42
0.0000001
 43
0.0000001
 44
0.0000000001
 40
0.0
 40
0.0
 40
0.0
 40
0.0
 40
0.0987013749
 40
0.1956706804
 40
0.2924199929
 40
0.391339287
 40
0.4444587418
 40
0.5042245792
 40
0.5703475915
 40
0.642913826
 40
0.7222898166
 40
0.8079227213
 40
0.9004703664
 40
1.0
 40
1.0
 40
1.0
 40
1.0
 10
32.4920019779
 20
55.2219717412
 30
0.0
 10
32.4907924855
 20
55.1871518744
 30
0.0
 10
32.4883947254
 20
55.1181231801
 30
0.0
 10
32.467884735
 20
55.0166837726
 30
0.0
 10
32.4358504524
 20
54.9184035953
 30
0.0
 10
32.3972843299
 20
54.8393028265
 30
0.0
 10
32.3583677909
 20
54.7755706508
 30
0.0
 10
32.3233334148
 20
54.7230708181
 30
0.0
 10
32.2820866354
 20
54.6665574885
 30
0.0
 10
32.2349798469
 20
54.6058019249
 30
0.0
 10
32.1812018037
 20
54.5415997727
 30
0.0
 10
32.1221496519
 20
54.4726411355
 30
0.0
 10
32.0562983496
 20
54.4002011061
 30
0.0
 10
32.0101207555
 20
54.3506913568
 30
0.0
 10
31.9861926831
 20
54.3250366452
 30
0.0
  0
SPLINE
  5
36A
100
AcDbEntity
  8
0
100
AcDbSpline
 62
7
  6
BYLAYER
 70
0
 71
3
 72
23
 73
19
 74
0
 42
0.0000001
 43
0.0000001
 44
0.0000000001
 40
0.0
 40
0.0
 40
0.0
 40
0.0
 40
0.0694796364
 40
0.1365250035
 40
0.2008008929
 40
0.2639832069
 40
0.3257111448
 40
0.3872705141
 40
0.4494927805
 40
0.5129551958
 40
0.5762663971
 40
0.6375749668
 40
0.6979010984
 40
0.7575582794
 40
0.8165875044
 40
0.8766457566
 40
0.9372858729
 40
1.0
 40
1.0
 40
1.0
 40
1.0
 10
31.7367936446
 20
55.9651608438
 30
0.0
 10
31.7642084838
 20
55.9645242971
 30
0.0
 10
31.8180776636
 20
55.9632735055
 30
0.0
 10
31.8966660973
 20
55.9523705253
 30
0.0
 10
31.971658311
 20
55.9356626799
 30
0.0
 10
32.0422044185
 20
55.910904285
 30
0.0
 10
32.1090284212
 20
55.8798379152
 30
0.0
 10
32.1713029271
 20
55.8412028141
 30
0.0
 10
32.2305337985
 20
55.7968270648
 30
0.0
 10
32.2838140876
 20
55.7444836924
 30
0.0
 10
32.3327584607
 20
55.6886331818
 30
0.0
 10
32.3749455512
 20
55.6289853061
 30
0.0
 10
32.4112774054
 20
55.567307566
 30
0.0
 10
32.4410138932
 20
55.5031181687
 30
0.0
 10
32.4635554734
 20
55.4362080821
 30
0.0
 10
32.480256624
 20
55.3672187964
 30
0.0
 10
32.4898039042
 20
55.2953541282
 30
0.0
 10
32.4912611198
 20
55.2467051891
 30
0.0
 10
32.4920019779
 20
55.2219717412
 30
0.0
  0
SPLINE
  5
36B
100
AcDbEntity
  8
0
100
AcDbSpline
 62
7
  6
BYLAYER
 70
0
 71
3
 72
23
 73
19
 74
0
 42
0.0000001
 43
0.0000001
 44
0.0000000001
 40
0.0
 40
0.0
 40
0.0
 40
0.0
 40
0.0687907944
 40
0.1351032894
 40
0.1989786743
 40
0.2619042998
 40
0.3234949694
 40
0.385195378
 40
0.4469692387
 40
0.5097647767
 40
0.5722505688
 40
0.6334051757
 40
0.6932511629
 40
0.7525831628
 40
0.8125792662
 40
0.8732750849
 40
0.9355499429
 40
1.0
 40
1.0
 40
1.0
 40
1.0
 10
30.9214891574
 20
55.1318275105
 30
0.0
 10
30.9229514096
 20
55.1615924303
 30
0.0
 10
30.9258232339
 20
55.2200499407
 30
0.0
 10
30.9392720119
 20
55.3052813024
 30
0.0
 10
30.9585154956
 20
55.3867490158
 30
0.0
 10
30.9857236771
 20
55.4637989544
 30
0.0
 10
31.0195138755
 20
55.5371123881
 30
0.0
 10
31.0600353236
 20
55.6063981136
 30
0.0
 10
31.1080309311
 20
55.6713918198
 30
0.0
 10
31.1624643126
 20
55.7314909936
 30
0.0
 10
31.2215847691
 20
55.7866249727
 30
0.0
 10
31.2853747258
 20
55.8342358605
 30
0.0
 10
31.3524068882
 20
55.8744627686
 30
0.0
 10
31.4224778874
 20
55.908092227
 30
0.0
 10
31.49637829
 20
55.9333349741
 30
0.0
 10
31.5734374741
 20
55.9520647167
 30
0.0
 10
31.6539940002
 20
55.9633335351
 30
0.0
 10
31.7088797302
 20
55.9645448105
 30
0.0
 10
31.7367936446
 20
55.9651608438
 30
0.0
  0
SPLINE
  5
36C
100
AcDbEntity
  8
0
100
AcDbSpline
 62
7
  6
BYLAYER
 70
0
 71
3
 72
23
 73
19
 74
0
 42
0.0000001
 43
0.0000001
 44
0.0000000001
 40
0.0
 40
0.0
 40
0.0
 40
0.0
 40
0.0644298907
 40
0.1265296671
 40
0.1867436668
 40
0.2458976835
 40
0.3040531068
 40
0.3621955162
 40
0.4206546389
 40
0.4803308563
 40
0.5406628761
 40
0.6007435113
 40
0.6619818568
 40
0.7244800554
 40
0.789067141
 40
0.8563333368
 40
0.926362064
 40
1.0
 40
1.0
 40
1.0
 40
1.0
 10
31.7252752151
 20
55.7087505874
 30
0.0
 10
31.7057197132
 20
55.7082600029
 30
0.0
 10
31.6673159364
 20
55.7072965761
 30
0.0
 10
31.6110503718
 20
55.6999991006
 30
0.0
 10
31.5570048431
 20
55.6889361245
 30
0.0
 10
31.5059857577
 20
55.6713657039
 30
0.0
 10
31.4568883296
 20
55.6506053787
 30
0.0
 10
31.4107607113
 20
55.6242316228
 30
0.0
 10
31.3668370432
 20
55.5935847325
 30
0.0
 10
31.3258397844
 20
55.5580484133
 30
0.0
 10
31.2883962391
 20
55.5181207899
 30
0.0
 10
31.2550345814
 20
55.4741177925
 30
0.0
 10
31.2260766664
 20
55.4263562078
 30
0.0
 10
31.2007758676
 20
55.3750320585
 30
0.0
 10
31.1802384722
 20
55.3196343474
 30
0.0
 10
31.1645426889
 20
55.260372312
 30
0.0
 10
31.152123702
 20
55.1974997255
 30
0.0
 10
31.1479747322
 20
55.1540818317
 30
0.0
 10
31.1458481318
 20
55.1318275105
 30
0.0
  0
SPLINE
  5
36D
100
AcDbEntity
  8
0
100
AcDbSpline
 62
7
  6
BYLAYER
 70
0
 71
3
 72
23
 73
19
 74
0
 42
0.0000001
 43
0.0000001
 44
0.0000000001
 40
0.0
 40
0.0
 40
0.0
 40
0.0
 40
0.0619654007
 40
0.1221219056
 40
0.1809884968
 40
0.2399332165
 40
0.2999058311
 40
0.3599888475
 40
0.4217757417
 40
0.4865758264
 40
0.5515348046
 40
0.6150175428
 40
0.6772586167
 40
0.7397299624
 40
0.8030501027
 40
0.866495132
 40
0.9319734742
 40
1.0
 40
1.0
 40
1.0
 40
1.0
 10
34.1907199267
 20
55.20193969
 30
0.0
 10
34.190265825
 20
55.2189978317
 30
0.0
 10
34.1893708779
 20
55.2526161534
 30
0.0
 10
34.1814725225
 20
55.3019059812
 30
0.0
 10
34.1695364468
 20
55.3494522768
 30
0.0
 10
34.152432691
 20
55.3954012905
 30
0.0
 10
34.1298564481
 20
55.439291042
 30
0.0
 10
34.1023754624
 20
55.4811749564
 30
0.0
 10
34.0706682743
 20
55.5216670744
 30
0.0
 10
34.0339887962
 20
55.5596337159
 30
0.0
 10
33.9936948535
 20
55.5944060055
 30
0.0
 10
33.9511275323
 20
55.6252089236
 30
0.0
 10
33.9060917436
 20
55.6509511456
 30
0.0
 10
33.8587773706
 20
55.6720536436
 30
0.0
 10
33.809316321
 20
55.6886074873
 30
0.0
 10
33.7576129316
 20
55.7000779012
 30
0.0
 10
33.7038100629
 20
55.7072796755
 30
0.0
 10
33.6670718517
 20
55.708254084
 30
0.0
 10
33.6483521382
 20
55.7087505874
 30
0.0
  0
SPLINE
  5
36E
100
AcDbEntity
  8
0
100
AcDbSpline
 62
7
  6
BYLAYER
 70
0
 71
3
 72
19
 73
15
 74
0
 42
0.0000001
 43
0.0000001
 44
0.0000000001
 40
0.0
 40
0.0
 40
0.0
 40
0.0
 40
0.1108026438
 40
0.2128292023
 40
0.3061013098
 40
0.3906473211
 40
0.4669244694
 40
0.5344810393
 40
0.593586941
 40
0.6445570045
 40
0.7362004526
 40
0.8250240256
 40
0.9119855848
 40
1.0
 40
1.0
 40
1.0
 40
1.0
 10
33.7179635164
 20
54.4357137284
 30
0.0
 10
33.7415691498
 20
54.460355376
 30
0.0
 10
33.7869107406
 20
54.5076869378
 30
0.0
 10
33.8510411526
 20
54.5767890522
 30
0.0
 10
33.90864043
 20
54.640895867
 30
0.0
 10
33.9600814249
 20
54.6998862588
 30
0.0
 10
34.0042482144
 20
54.7546230929
 30
0.0
 10
34.0434426658
 20
54.8033335955
 30
0.0
 10
34.0748466593
 20
54.8481582028
 30
0.0
 10
34.1089290848
 20
54.9001157842
 30
0.0
 10
34.1419390716
 20
54.9635531536
 30
0.0
 10
34.1703050402
 20
55.0410772174
 30
0.0
 10
34.1876013605
 20
55.1208823979
 30
0.0
 10
34.189676243
 20
55.1748124243
 30
0.0
 10
34.1907199267
 20
55.20193969
 30
0.0
  0
SPLINE
  5
36F
100
AcDbEntity
  8
0
100
AcDbSpline
 62
7
  6
BYLAYER
 70
0
 71
3
 72
19
 73
15
 74
0
 42
0.0000001
 43
0.0000001
 44
0.0000000001
 40
0.0
 40
0.0
 40
0.0
 40
0.0
 40
0.0987013749
 40
0.1956706804
 40
0.2924199929
 40
0.391339287
 40
0.4444587418
 40
0.5042245792
 40
0.5703475915
 40
0.642913826
 40
0.7222898166
 40
0.8079227213
 40
0.9004703664
 40
1.0
 40
1.0
 40
1.0
 40
1.0
 10
34.415078901
 20
55.2219717412
 30
0.0
 10
34.4138694085
 20
55.1871518744
 30
0.0
 10
34.4114716485
 20
55.1181231801
 30
0.0
 10
34.3909616581
 20
55.0166837726
 30
0.0
 10
34.3589273755
 20
54.9184035953
 30
0.0
 10
34.320361253
 20
54.8393028265
 30
0.0
 10
34.281444714
 20
54.7755706508
 30
0.0
 10
34.2464103379
 20
54.7230708181
 30
0.0
 10
34.2051635585
 20
54.6665574885
 30
0.0
 10
34.15805677
 20
54.6058019249
 30
0.0
 10
34.1042787267
 20
54.5415997727
 30
0.0
 10
34.045226575
 20
54.4726411355
 30
0.0
 10
33.9793752727
 20
54.4002011061
 30
0.0
 10
33.9331976786
 20
54.3506913568
 30
0.0
 10
33.9092696062
 20
54.3250366452
 30
0.0
  0
SPLINE
  5
370
100
AcDbEntity
  8
0
100
AcDbSpline
 62
7
  6
BYLAYER
 70
0
 71
3
 72
23
 73
19
 74
0
 42
0.0000001
 43
0.0000001
 44
0.0000000001
 40
0.0
 40
0.0
 40
0.0
 40
0.0
 40
0.0694796364
 40
0.1365250035
 40
0.2008008929
 40
0.2639832069
 40
0.3257111448
 40
0.3872705141
 40
0.4494927805
 40
0.5129551958
 40
0.5762663971
 40
0.6375749668
 40
0.6979010984
 40
0.7575582794
 40
0.8165875044
 40
0.8766457566
 40
0.9372858729
 40
1.0
 40
1.0
 40
1.0
 40
1.0
 10
33.6598705677
 20
55.9651608438
 30
0.0
 10
33.6872854069
 20
55.9645242971
 30
0.0
 10
33.7411545866
 20
55.9632735055
 30
0.0
 10
33.8197430204
 20
55.9523705253
 30
0.0
 10
33.8947352341
 20
55.9356626799
 30
0.0
 10
33.9652813416
 20
55.910904285
 30
0.0
 10
34.0321053443
 20
55.8798379152
 30
0.0
 10
34.0943798501
 20
55.8412028141
 30
0.0
 10
34.1536107216
 20
55.7968270648
 30
0.0
 10
34.2068910107
 20
55.7444836924
 30
0.0
 10
34.2558353838
 20
55.6886331818
 30
0.0
 10
34.2980224743
 20
55.6289853061
 30
0.0
 10
34.3343543285
 20
55.567307566
 30
0.0
 10
34.3640908163
 20
55.5031181687
 30
0.0
 10
34.3866323965
 20
55.4362080821
 30
0.0
 10
34.4033335471
 20
55.3672187964
 30
0.0
 10
34.4128808273
 20
55.2953541282
 30
0.0
 10
34.4143380428
 20
55.2467051891
 30
0.0
 10
34.415078901
 20
55.2219717412
 30
0.0
  0
SPLINE
  5
371
100
AcDbEntity
  8
0
100
AcDbSpline
 62
7
  6
BYLAYER
 70
0
 71
3
 72
23
 73
19
 74
0
 42
0.0000001
 43
0.0000001
 44
0.0000000001
 40
0.0
 40
0.0
 40
0.0
 40
0.0
 40
0.0687907944
 40
0.1351032894
 40
0.1989786743
 40
0.2619042998
 40
0.3234949694
 40
0.385195378
 40
0.4469692387
 40
0.5097647767
 40
0.5722505688
 40
0.6334051757
 40
0.6932511629
 40
0.7525831628
 40
0.8125792662
 40
0.8732750849
 40
0.9355499429
 40
1.0
 40
1.0
 40
1.0
 40
1.0
 10
32.8445660805
 20
55.1318275105
 30
0.0
 10
32.8460283327
 20
55.1615924303
 30
0.0
 10
32.848900157
 20
55.2200499407
 30
0.0
 10
32.862348935
 20
55.3052813024
 30
0.0
 10
32.8815924187
 20
55.3867490158
 30
0.0
 10
32.9088006002
 20
55.4637989544
 30
0.0
 10
32.9425907986
 20
55.5371123881
 30
0.0
 10
32.9831122467
 20
55.6063981136
 30
0.0
 10
33.0311078542
 20
55.6713918198
 30
0.0
 10
33.0855412357
 20
55.7314909936
 30
0.0
 10
33.1446616921
 20
55.7866249727
 30
0.0
 10
33.2084516489
 20
55.8342358605
 30
0.0
 10
33.2754838113
 20
55.8744627686
 30
0.0
 10
33.3455548105
 20
55.908092227
 30
0.0
 10
33.4194552131
 20
55.9333349741
 30
0.0
 10
33.4965143972
 20
55.9520647167
 30
0.0
 10
33.5770709232
 20
55.9633335351
 30
0.0
 10
33.6319566533
 20
55.9645448105
 30
0.0
 10
33.6598705677
 20
55.9651608438
 30
0.0
  0
SPLINE
  5
372
100
AcDbEntity
  8
0
100
AcDbSpline
 62
7
  6
BYLAYER
 70
0
 71
3
 72
23
 73
19
 74
0
 42
0.0000001
 43
0.0000001
 44
0.0000000001
 40
0.0
 40
0.0
 40
0.0
 40
0.0
 40
0.0644298907
 40
0.1265296671
 40
0.1867436668
 40
0.2458976835
 40
0.3040531068
 40
0.3621955162
 40
0.4206546389
 40
0.4803308563
 40
0.5406628761
 40
0.6007435113
 40
0.6619818568
 40
0.7244800554
 40
0.789067141
 40
0.8563333368
 40
0.926362064
 40
1.0
 40
1.0
 40
1.0
 40
1.0
 10
33.6483521382
 20
55.7087505874
 30
0.0
 10
33.6287966363
 20
55.7082600029
 30
0.0
 10
33.5903928595
 20
55.7072965761
 30
0.0
 10
33.5341272949
 20
55.6999991006
 30
0.0
 10
33.4800817662
 20
55.6889361245
 30
0.0
 10
33.4290626808
 20
55.6713657039
 30
0.0
 10
33.3799652527
 20
55.6506053787
 30
0.0
 10
33.3338376344
 20
55.6242316228
 30
0.0
 10
33.2899139663
 20
55.5935847325
 30
0.0
 10
33.2489167075
 20
55.5580484133
 30
0.0
 10
33.2114731622
 20
55.5181207899
 30
0.0
 10
33.1781115044
 20
55.4741177925
 30
0.0
 10
33.1491535894
 20
55.4263562078
 30
0.0
 10
33.1238527907
 20
55.3750320585
 30
0.0
 10
33.1033153953
 20
55.3196343474
 30
0.0
 10
33.0876196119
 20
55.260372312
 30
0.0
 10
33.0752006251
 20
55.1974997255
 30
0.0
 10
33.0710516552
 20
55.1540818317
 30
0.0
 10
33.0689250549
 20
55.1318275105
 30
0.0
  0
SPLINE
  5
373
100
AcDbEntity
  8
0
100
AcDbSpline
 62
7
  6
BYLAYER
 70
0
 71
3
 72
15
 73
11
 74
0
 42
0.0000001
 43
0.0000001
 44
0.0000000001
 40
0.0
 40
0.0
 40
0.0
 40
0.0
 40
0.1193606216
 40
0.2342069004
 40
0.3454626417
 40
0.4536604192
 40
0.5674379708
 40
0.6954294003
 40
0.8396831303
 40
1.0
 40
1.0
 40
1.0
 40
1.0
 10
33.4314860959
 20
49.7317064981
 30
0.0
 10
33.4460664566
 20
49.7459098859
 30
0.0
 10
33.4746757336
 20
49.7737794747
 30
0.0
 10
33.5211162739
 20
49.8101460245
 30
0.0
 10
33.5688667781
 20
49.8413689753
 30
0.0
 10
33.619589273
 20
49.8671831123
 30
0.0
 10
33.6759326086
 20
49.8874037627
 30
0.0
 10
33.7406393623
 20
49.9000565926
 30
0.0
 10
33.8139006524
 20
49.9090851794
 30
0.0
 10
33.8658425045
 20
49.9098158293
 30
0.0
 10
33.8931831445
 20
49.9102004217
 30
0.0
  0
SPLINE
  5
374
100
AcDbEntity
  8
0
100
AcDbSpline
 62
7
  6
BYLAYER
 70
0
 71
3
 72
15
 73
11
 74
0
 42
0.0000001
 43
0.0000001
 44
0.0000000001
 40
0.0
 40
0.0
 40
0.0
 40
0.0
 40
0.1236674288
 40
0.2402122563
 40
0.3522655186
 40
0.460917522
 40
0.5749496061
 40
0.7012931521
 40
0.8426974684
 40
1.0
 40
1.0
 40
1.0
 40
1.0
 10
33.8329617904
 20
49.6671448661
 30
0.0
 10
33.8106500427
 20
49.6665398421
 30
0.0
 10
33.7673115883
 20
49.6653646402
 30
0.0
 10
33.704882578
 20
49.6526712693
 30
0.0
 10
33.6467861056
 20
49.6342864041
 30
0.0
 10
33.5930776358
 20
49.606163253
 30
0.0
 10
33.5426605017
 20
49.5681531832
 30
0.0
 10
33.4944250284
 20
49.5188809048
 30
0.0
 10
33.4464614175
 20
49.4589858671
 30
0.0
 10
33.4178165035
 20
49.4133824061
 30
0.0
 10
33.4027317556
 20
49.3893670883
 30
0.0
  0
SPLINE
  5
375
100
AcDbEntity
  8
0
100
AcDbSpline
 62
7
  6
BYLAYER
 70
0
 71
3
 72
23
 73
19
 74
0
 42
0.0000001
 43
0.0000001
 44
0.0000000001
 40
0.0
 40
0.0
 40
0.0
 40
0.0
 40
0.0933252756
 40
0.1797939806
 40
0.2611516179
 40
0.3368242852
 40
0.4072733346
 40
0.4720638898
 40
0.5335616249
 40
0.5911927237
 40
0.6456449589
 40
0.6977321792
 40
0.7476926829
 40
0.7971432965
 40
0.8461490528
 40
0.8954052235
 40
0.9466110398
 40
1.0
 40
1.0
 40
1.0
 40
1.0
 10
34.2013428667
 20
49.0866327134
 30
0.0
 10
34.2009850427
 20
49.1106886724
 30
0.0
 10
34.2002956838
 20
49.1570332088
 30
0.0
 10
34.196307061
 20
49.2242908677
 30
0.0
 10
34.1879203354
 20
49.2865344647
 30
0.0
 10
34.1774541137
 20
49.3442806582
 30
0.0
 10
34.1632965415
 20
49.3968260801
 30
0.0
 10
34.1466790587
 20
49.4448313332
 30
0.0
 10
34.1259479128
 20
49.4875696132
 30
0.0
 10
34.1027373512
 20
49.5259387269
 30
0.0
 10
34.0763762172
 20
49.5591498157
 30
0.0
 10
34.0483133454
 20
49.5882910859
 30
0.0
 10
34.0173352255
 20
49.6122141734
 30
0.0
 10
33.9849189049
 20
49.6327639137
 30
0.0
 10
33.9497258186
 20
49.6475935856
 30
0.0
 10
33.9130215383
 20
49.6595577978
 30
0.0
 10
33.8736904321
 20
49.6659008891
 30
0.0
 10
33.8467256111
 20
49.666724477
 30
0.0
 10
33.8329617904
 20
49.6671448661
 30
0.0
  0
SPLINE
  5
376
100
AcDbEntity
  8
0
100
AcDbSpline
 62
7
  6
BYLAYER
 70
0
 71
3
 72
23
 73
19
 74
0
 42
0.0000001
 43
0.0000001
 44
0.0000000001
 40
0.0
 40
0.0
 40
0.0
 40
0.0
 40
0.0552152992
 40
0.1080235634
 40
0.1596384024
 40
0.2098423473
 40
0.2600999156
 40
0.3109259461
 40
0.3630496932
 40
0.4176139731
 40
0.4744700047
 40
0.5350449261
 40
0.5997146354
 40
0.6687804122
 40
0.7431807234
 40
0.8229392686
 40
0.9082922447
 40
1.0
 40
1.0
 40
1.0
 40
1.0
 10
33.7591770681
 20
48.4171448661
 30
0.0
 10
33.7758475799
 20
48.4176718891
 30
0.0
 10
33.8084618755
 20
48.4187029601
 30
0.0
 10
33.8561033863
 20
48.4266274518
 30
0.0
 10
33.9012722112
 20
48.4387402386
 30
0.0
 10
33.9435850157
 20
48.4569336607
 30
0.0
 10
33.9828215277
 20
48.4805064199
 30
0.0
 10
34.0193967071
 20
48.5089530354
 30
0.0
 10
34.0533702588
 20
48.5423654442
 30
0.0
 10
34.0841614128
 20
48.5810556121
 30
0.0
 10
34.112297812
 20
48.6248148183
 30
0.0
 10
34.1358037414
 20
48.6746145534
 30
0.0
 10
34.1564812862
 20
48.7295377942
 30
0.0
 10
34.1733982842
 20
48.7901298558
 30
0.0
 10
34.1853736962
 20
48.8564859915
 30
0.0
 10
34.1944744882
 20
48.9281985908
 30
0.0
 10
34.2008031449
 20
49.0055026263
 30
0.0
 10
34.2011587057
 20
49.058949936
 30
0.0
 10
34.2013428667
 20
49.0866327134
 30
0.0
  0
SPLINE
  5
377
100
AcDbEntity
  8
0
100
AcDbSpline
 62
7
  6
BYLAYER
 70
0
 71
3
 72
23
 73
19
 74
0
 42
0.0000001
 43
0.0000001
 44
0.0000000001
 40
0.0
 40
0.0
 40
0.0
 40
0.0
 40
0.0734118054
 40
0.1434771045
 40
0.2105008046
 40
0.2748609585
 40
0.3369842653
 40
0.3976580672
 40
0.4565117909
 40
0.5158072435
 40
0.5740038875
 40
0.6313254872
 40
0.6880642953
 40
0.7467357148
 40
0.80581769
 40
0.8674838916
 40
0.9317458085
 40
1.0
 40
1.0
 40
1.0
 40
1.0
 10
33.3332873112
 20
48.9032559772
 30
0.0
 10
33.3335327691
 20
48.8853362197
 30
0.0
 10
33.3340124957
 20
48.8503135838
 30
0.0
 10
33.3397108501
 20
48.7992013956
 30
0.0
 10
33.3482417492
 20
48.7507591415
 30
0.0
 10
33.3602071373
 20
48.7050334254
 30
0.0
 10
33.3752724157
 20
48.6618563544
 30
0.0
 10
33.3942782371
 20
48.6217186594
 30
0.0
 10
33.4168643798
 20
48.5843190343
 30
0.0
 10
33.4425759522
 20
48.5497032631
 30
0.0
 10
33.4720698056
 20
48.5187665134
 30
0.0
 10
33.504077584
 20
48.491394588
 30
0.0
 10
33.5394259321
 20
48.4682205164
 30
0.0
 10
33.5777622561
 20
48.4494918611
 30
0.0
 10
33.6190126543
 20
48.4345524058
 30
0.0
 10
33.6630975043
 20
48.4244174557
 30
0.0
 10
33.7101839556
 20
48.4184307476
 30
0.0
 10
33.7425212914
 20
48.4175820164
 30
0.0
 10
33.7591770681
 20
48.4171448661
 30
0.0
  0
SPLINE
  5
378
100
AcDbEntity
  8
0
100
AcDbSpline
 62
7
  6
BYLAYER
 70
0
 71
3
 72
23
 73
19
 74
0
 42
0.0000001
 43
0.0000001
 44
0.0000000001
 40
0.0
 40
0.0
 40
0.0
 40
0.0
 40
0.064410675
 40
0.1260862967
 40
0.1859437171
 40
0.2443660031
 40
0.3021482832
 40
0.3601083326
 40
0.4189054465
 40
0.4788344368
 40
0.5395451271
 40
0.600038314
 40
0.6615974105
 40
0.7246358426
 40
0.7893469569
 40
0.8563875798
 40
0.9266424386
 40
1.0
 40
1.0
 40
1.0
 40
1.0
 10
33.738018214
 20
48.1393670883
 30
0.0
 10
33.7128423002
 20
48.1399405023
 30
0.0
 10
33.6635595109
 20
48.1410629814
 30
0.0
 10
33.5915327397
 20
48.1513926028
 30
0.0
 10
33.5227619814
 20
48.1665314326
 30
0.0
 10
33.4579108502
 20
48.189882379
 30
0.0
 10
33.3961019149
 20
48.2185592141
 30
0.0
 10
33.3377834676
 20
48.2541487292
 30
0.0
 10
33.2827362551
 20
48.2960032499
 30
0.0
 10
33.2319329862
 20
48.3444685516
 30
0.0
 10
33.1852984471
 20
48.3978355406
 30
0.0
 10
33.1443621159
 20
48.4564851685
 30
0.0
 10
33.1088890051
 20
48.5196276712
 30
0.0
 10
33.0796598333
 20
48.5877004859
 30
0.0
 10
33.0564135095
 20
48.6602601987
 30
0.0
 10
33.0385864245
 20
48.7371950706
 30
0.0
 10
33.0258260414
 20
48.8186093535
 30
0.0
 10
33.0224909061
 20
48.8746369496
 30
0.0
 10
33.0207873112
 20
48.9032559772
 30
0.0
  0
SPLINE
  5
379
100
AcDbEntity
  8
0
100
AcDbSpline
 62
7
  6
BYLAYER
 70
0
 71
3
 72
23
 73
19
 74
0
 42
0.0000001
 43
0.0000001
 44
0.0000000001
 40
0.0
 40
0.0
 40
0.0
 40
0.0
 40
0.0779585817
 40
0.1522842476
 40
0.2226151985
 40
0.2901006289
 40
0.3544565117
 40
0.4166049529
 40
0.4771463843
 40
0.5369672118
 40
0.5957169248
 40
0.6526607037
 40
0.7082195322
 40
0.7640161998
 40
0.8204422041
 40
0.8780941923
 40
0.9377581745
 40
1.0
 40
1.0
 40
1.0
 40
1.0
 10
34.5138428667
 20
49.0839200397
 30
0.0
 10
34.5132291531
 20
49.0480926332
 30
0.0
 10
34.5120303252
 20
48.9781073983
 30
0.0
 10
34.5023901009
 20
48.8761367904
 30
0.0
 10
34.4854536885
 20
48.7800448158
 30
0.0
 10
34.4624238903
 20
48.6899311558
 30
0.0
 10
34.4325037617
 20
48.6058150379
 30
0.0
 10
34.396066184
 20
48.5278324346
 30
0.0
 10
34.3531614732
 20
48.4555640175
 30
0.0
 10
34.3030148089
 20
48.3901037179
 30
0.0
 10
34.2480416984
 20
48.3308921484
 30
0.0
 10
34.1880730433
 20
48.2796708478
 30
0.0
 10
34.1239203713
 20
48.2361617542
 30
0.0
 10
34.0551642737
 20
48.2009130744
 30
0.0
 10
33.982098762
 20
48.1729145775
 30
0.0
 10
33.9044612599
 20
48.1537110019
 30
0.0
 10
33.822694867
 20
48.1412620486
 30
0.0
 10
33.7666388884
 20
48.1400075842
 30
0.0
 10
33.738018214
 20
48.1393670883
 30
0.0
  0
SPLINE
  5
37A
100
AcDbEntity
  8
0
100
AcDbSpline
 62
7
  6
BYLAYER
 70
0
 71
3
 72
23
 73
19
 74
0
 42
0.0000001
 43
0.0000001
 44
0.0000000001
 40
0.0
 40
0.0
 40
0.0
 40
0.0
 40
0.0579365062
 40
0.1132538049
 40
0.1673649911
 40
0.2209259894
 40
0.2741872778
 40
0.3287094587
 40
0.3842114961
 40
0.4420370001
 40
0.5018763569
 40
0.5635245736
 40
0.6270707434
 40
0.6939239222
 40
0.7639902556
 40
0.8381827193
 40
0.9168975027
 40
1.0
 40
1.0
 40
1.0
 40
1.0
 10
33.8931831445
 20
49.9102004217
 30
0.0
 10
33.9156598669
 20
49.9096864872
 30
0.0
 10
33.9595971787
 20
49.9086818523
 30
0.0
 10
34.0236470221
 20
49.8975217295
 30
0.0
 10
34.0850047917
 20
49.8819656754
 30
0.0
 10
34.142546656
 20
49.8574201959
 30
0.0
 10
34.197548551
 20
49.8274950892
 30
0.0
 10
34.2491257583
 20
49.7905165482
 30
0.0
 10
34.2970790629
 20
49.746411586
 30
0.0
 10
34.3422744612
 20
49.6966591309
 30
0.0
 10
34.3829245761
 20
49.6401182446
 30
0.0
 10
34.4182791285
 20
49.5775643483
 30
0.0
 10
34.4474623406
 20
49.5089741557
 30
0.0
 10
34.4718799201
 20
49.4351410647
 30
0.0
 10
34.490813417
 20
49.3554503686
 30
0.0
 10
34.5041632584
 20
49.2700182687
 30
0.0
 10
34.512391066
 20
49.1788444042
 30
0.0
 10
34.5133502636
 20
49.1161283481
 30
0.0
 10
34.5138428667
 20
49.0839200397
 30
0.0
  0
SPLINE
  5
37B
100
AcDbEntity
  8
0
100
AcDbSpline
 62
7
  6
BYLAYER
 70
0
 71
3
 72
23
 73
19
 74
0
 42
0.0000001
 43
0.0000001
 44
0.0000000001
 40
0.0
 40
0.0
 40
0.0
 40
0.0
 40
0.0790954213
 40
0.1543251743
 40
0.2252735702
 40
0.2922572929
 40
0.3556524698
 40
0.4165353488
 40
0.4747618022
 40
0.5314846535
 40
0.5867344712
 40
0.6421647963
 40
0.6978460144
 40
0.7543719392
 40
0.8123104183
 40
0.8721891255
 40
0.9346986452
 40
1.0
 40
1.0
 40
1.0
 40
1.0
 10
36.9468451837
 20
38.5406279229
 30
0.0
 10
36.9762280519
 20
38.5410446943
 30
0.0
 10
37.0335577453
 20
38.5418578681
 30
0.0
 10
37.1170161498
 20
38.5487593748
 30
0.0
 10
37.1954417419
 20
38.559980504
 30
0.0
 10
37.2686099483
 20
38.5758003855
 30
0.0
 10
37.3366706703
 20
38.5964086839
 30
0.0
 10
37.3998571029
 20
38.6212355128
 30
0.0
 10
37.4580151931
 20
38.651156723
 30
0.0
 10
37.5114760028
 20
38.6851339137
 30
0.0
 10
37.5596955977
 20
38.7245726273
 30
0.0
 10
37.6039824557
 20
38.7677961178
 30
0.0
 10
37.6436350388
 20
38.815968035
 30
0.0
 10
37.6786866737
 20
38.8686709156
 30
0.0
 10
37.7092022253
 20
38.925918908
 30
0.0
 10
37.7347542487
 20
38.9878991226
 30
0.0
 10
37.7572241617
 20
39.0539964784
 30
0.0
 10
37.7678202835
 20
39.1003025019
 30
0.0
 10
37.7732340725
 20
39.1239612562
 30
0.0
  0
ENDSEC
  0
SECTION
  2
OBJECTS
  0
DICTIONARY
  5
C
100
AcDbDictionary
280
0
281
1
  3
ACAD_GROUP
350
D
  3
ACAD_MLINESTYLE
350
17
  3
ACAD_LAYOUT
350
1A
  3
ACAD_PLOTSETTINGS
350
19
  3
ACAD_PLOTSTYLENAME
350
E
  0
DICTIONARY
  5
D
102
{ACAD_REACTORS
330
C
102
}
100
AcDbDictionary
280
0
281
1
  0
ACDBDICTIONARYWDFLT
  5
E
102
{ACAD_REACTORS
330
C
102
}
100
AcDbDictionary
281
1
  3
Normal
350
F
100
AcDbDictionaryWithDefault
340
F
  0
DICTIONARY
  5
17
102
{ACAD_REACTORS
330
C
102
}
100
AcDbDictionary
280
0
281
1
  3
Standard
350
18
  0
DICTIONARY
  5
19
102
{ACAD_REACTORS
330
C
102
}
100
AcDbDictionary
281
1
  0
DICTIONARY
  5
1A
102
{ACAD_REACTORS
330
C
102
}
100
AcDbDictionary
281
1
  3
Model
350
37C
  3
Layout1
350
37D
  0
ACDBPLACEHOLDER
  5
F
102
{ACAD_REACTORS
330
E
102
}
  0
MLINESTYLE
  5
18
102
{ACAD_REACTORS
330
17
102
}
100
AcDbMlineStyle
  2
STANDARD
 70
0
  3

 62
256
 51
90.0
 52
90.0
 71
2
 49
0.5
 62
256
  6
BYLAYER
 49
-0.5
 62
256
  6
BYLAYER
  0
LAYOUT
  5
37C
102
{ACAD_REACTORS
330
1A
102
}
100
AcDbPlotSettings
  1

  2
none_device
  4

  6

 40
0.0
 41
0.0
 42
0.0
 43
0.0
 44
210.0
 45
297.0
 46
0.0
 47
0.0
 48
0.0
 49
0.0
140
0.0
141
0.0
142
1.0
143
1.0
 70
1024
 72
1
 73
0
 74
0
  7

 75
0
147
1.0
148
0.0
149
0.0
100
AcDbLayout
  1
Model
 70
0
 71
0
 10
0.0
 20
0.0
 11
210.0
 21
297.0
 12
0.0
 22
0.0
 32
0.0
 14
0.0
 24
0.0
 34
0.0
 15
0.0
 25
0.0
 35
0.0
146
0.0
 13
0.0
 23
0.0
 33
0.0
 16
1.0
 26
0.0
 36
0.0
 17
0.0
 27
1.0
 37
0.0
 76
0
330
210
345
0
346
0
  0
LAYOUT
  5
37D
102
{ACAD_REACTORS
330
1A
102
}
100
AcDbPlotSettings
  1

  2
none_device
  4

  6

 40
0.0
 41
0.0
 42
0.0
 43
0.0
 44
210.0
 45
297.0
 46
0.0
 47
0.0
 48
0.0
 49
0.0
140
0.0
141
0.0
142
1.0
143
1.0
 70
0
 72
1
 73
0
 74
0
  7

 75
0
147
1.0
148
0.0
149
0.0
100
AcDbLayout
  1
Layout1
 70
0
 71
1
 10
0.0
 20
0.0
 11
210.0
 21
297.0
 12
0.0
 22
0.0
 32
0.0
 14
0.0
 24
0.0
 34
0.0
 15
0.0
 25
0.0
 35
0.0
146
0.0
 13
0.0
 23
0.0
 33
0.0
 16
1.0
 26
0.0
 36
0.0
 17
0.0
 27
1.0
 37
0.0
 76
0
330
211
345
0
346
0
  0
ENDSEC
  0
EOF
