  0
SECTION
  2
HEADER
  9
$ACADVER
  1
AC1009
  9
$DWGCODEPAGE
  3
ansi_1250
  9
$INSBASE
 10
0.0
 20
0.0
 30
0.0
  9
$EXTMIN
 10
-4.330709
 20
-3.070866
 30
0.0
  9
$EXTMAX
 10
4.330709
 20
21.507874
 30
0.0
  9
$LIMMIN
 10
0.0
 20
0.0
  9
$LIMMAX
 10
0.0
 20
0.0
  9
$ORTHOMODE
 70
     0
  9
$REGENMODE
 70
     1
  9
$FILLMODE
 70
     1
  9
$QTEXTMODE
 70
     0
  9
$MIRRTEXT
 70
     1
  9
$DRAGMODE
 70
     2
  9
$LTSCALE
 40
1.0
  9
$OSMODE
 70
     0
  9
$ATTMODE
 70
     1
  9
$TEXTSIZE
 40
0.2
  9
$TRACEWID
 40
0.05
  9
$TEXTSTYLE
  7
STANDARD
  9
$CLAYER
  8
0
  9
$CELTYPE
  6
CONTINUOUS
  9
$CECOLOR
 62
   256
  9
$DIMSCALE
 40
1.0
  9
$DIMASZ
 40
0.18
  9
$DIMEXO
 40
0.0625
  9
$DIMDLI
 40
0.38
  9
$DIMRND
 40
0.0
  9
$DIMDLE
 40
0.0
  9
$DIMEXE
 40
0.18
  9
$DIMTP
 40
0.0
  9
$DIMTM
 40
0.0
  9
$DIMTXT
 40
0.18
  9
$DIMCEN
 40
0.09
  9
$DIMTSZ
 40
0.0
  9
$DIMTOL
 70
     0
  9
$DIMLIM
 70
     0
  9
$DIMTIH
 70
     1
  9
$DIMTOH
 70
     1
  9
$DIMSE1
 70
     0
  9
$DIMSE2
 70
     0
  9
$DIMTAD
 70
     0
  9
$DIMZIN
 70
     0
  9
$DIMBLK
  1

  9
$DIMASO
 70
     1
  9
$DIMSHO
 70
     1
  9
$DIMPOST
  1

  9
$DIMAPOST
  1

  9
$DIMALT
 70
     0
  9
$DIMALTD
 70
     2
  9
$DIMALTF
 40
25.4
  9
$DIMLFAC
 40
1.0
  9
$DIMTOFL
 70
     0
  9
$DIMTVP
 40
0.0
  9
$DIMTIX
 70
     0
  9
$DIMSOXD
 70
     0
  9
$DIMSAH
 70
     0
  9
$DIMBLK1
  1

  9
$DIMBLK2
  1

  9
$DIMSTYLE
  2
STANDARD
  9
$DIMCLRD
 70
     0
  9
$DIMCLRE
 70
     0
  9
$DIMCLRT
 70
     0
  9
$DIMTFAC
 40
1.0
  9
$DIMGAP
 40
0.09
  9
$LUNITS
 70
     2
  9
$LUPREC
 70
     4
  9
$AXISMODE
 70
     0
  9
$AXISUNIT
 10
0.0
 20
0.0
  9
$SKETCHINC
 40
0.1
  9
$FILLETRAD
 40
0.0
  9
$AUNITS
 70
     0
  9
$AUPREC
 70
     0
  9
$MENU
  1
acad
  9
$ELEVATION
 40
0.0
  9
$PELEVATION
 40
0.0
  9
$THICKNESS
 40
0.0
  9
$LIMCHECK
 70
     0
  9
$BLIPMODE
 70
     1
  9
$CHAMFERA
 40
0.0
  9
$CHAMFERB
 40
0.0
  9
$SKPOLY
 70
     0
  9
$TDCREATE
 40
0.000000000
  9
$TDUPDATE
 40
0.000000000
  9
$TDINDWG
 40
0.0000000000
  9
$TDUSRTIMER
 40
0.0000000000
  9
$USRTIMER
 70
     1
  9
$ANGBASE
 50
0.0
  9
$ANGDIR
 70
     0
  9
$PDMODE
 70
     0
  9
$PDSIZE
 40
0.0
  9
$PLINEWID
 40
0.0
  9
$COORDS
 70
     0
  9
$SPLFRAME
 70
     0
  9
$SPLINETYPE
 70
     6
  9
$SPLINESEGS
 70
     8
  9
$ATTDIA
 70
     0
  9
$ATTREQ
 70
     1
  9
$HANDLING
 70
     1
  9
$HANDSEED
  5
11B
  9
$SURFTAB1
 70
     6
  9
$SURFTAB2
 70
     6
  9
$SURFTYPE
 70
     6
  9
$SURFU
 70
     6
  9
$SURFV
 70
     6
  9
$UCSNAME
  2

  9
$UCSORG
 10
0.0
 20
0.0
 30
0.0
  9
$UCSXDIR
 10
1.0
 20
0.0
 30
0.0
  9
$UCSYDIR
 10
0.0
 20
1.0
 30
0.0
  9
$PUCSNAME
  2

  9
$PUCSORG
 10
0.0
 20
0.0
 30
0.0
  9
$PUCSXDIR
 10
1.0
 20
0.0
 30
0.0
  9
$PUCSYDIR
 10
0.0
 20
1.0
 30
0.0
  9
$USERI1
 70
     0
  9
$USERI2
 70
     0
  9
$USERI3
 70
     0
  9
$USERI4
 70
     0
  9
$USERI5
 70
     0
  9
$USERR1
 40
0.0
  9
$USERR2
 40
0.0
  9
$USERR3
 40
0.0
  9
$USERR4
 40
0.0
  9
$USERR5
 40
0.0
  9
$WORLDVIEW
 70
     1
  9
$SHADEDGE
 70
     3
  9
$SHADEDIF
 70
    70
  9
$TILEMODE
 70
     1
  9
$MAXACTVP
 70
    16
  9
$PINSBASE
 10
0.0
 20
0.0
 30
0.0
  9
$PLIMCHECK
 70
     0
  9
$PEXTMIN
 10
1.000000E+20
 20
1.000000E+20
 30
1.000000E+20
  9
$PEXTMAX
 10
-1.000000E+20
 20
-1.000000E+20
 30
-1.000000E+20
  9
$PLIMMIN
 10
0.0
 20
0.0
  9
$PLIMMAX
 10
12.0
 20
9.0
  9
$UNITMODE
 70
     0
  9
$VISRETAIN
 70
     0
  9
$PLINEGEN
 70
     1
  9
$PSLTSCALE
 70
     0
  9
$TREEDEPTH
 70
  3020
  0
ENDSEC
  0
SECTION
  2
TABLES
  0
TABLE
  2
VPORT
 70
     1
  0
VPORT
  2
*ACTIVE
 70
     0
 10
0.0
 20
0.0
 11
1.0
 21
1.0
 12
6.591288
 22
4.579184
 13
0.0
 23
0.0
 14
1.0
 24
1.0
 15
0.0
 25
0.0
 16
0.0
 26
0.0
 36
1.0
 17
0.0
 27
0.0
 37
0.0
 40
9.158369
 41
0.688564
 42
50.0
 43
0.0
 44
0.0
 50
0.0
 51
0.0
 71
     0
 72
   100
 73
     1
 74
     1
 75
     0
 76
     0
 77
     0
 78
     0
  0
ENDTAB
  0
TABLE
  2
LTYPE
 70
     5
  0
LTYPE
  2
CONTINUOUS
 70
    64
  3
Solid line
 72
    65
 73
     0
 40
0.0
  0
LTYPE
  2
CENTER
 70
    64
  3
Center ____ _ ____ _ ____ _ ____ _ ____ _ ____
 72
    65
 73
     4
 40
50.8
 49
31.75
 49
-6.35
 49
6.35
 49
-6.35
  0
LTYPE
  2
HIDDEN
 70
    64
  3
Hidden __ __ __ __ __ __ __ __ __ __ __ __ __ __
 72
    65
 73
     2
 40
9.525
 49
6.35
 49
-3.175
  0
LTYPE
  2
CENTER2
 70
    64
  3
Center (.5x) ___ _ ___ _ ___ _ ___ _ ___ _ ___
 72
    65
 73
     4
 40
28.575
 49
19.05
 49
-3.175
 49
3.175
 49
-3.175
  0
LTYPE
  2
HIDDEN2
 70
    64
  3
Hidden (.5x) _ _ _ _ _ _ _ _ _ _ _ _ _ _ _ _ _
 72
    65
 73
     2
 40
4.7625
 49
3.175
 49
-1.5875
  0
ENDTAB
  0
TABLE
  2
LAYER
 70
     1
  0
LAYER
  2
0
 70
     0
 62
     7
  6
CONTINUOUS
  0
ENDTAB
  0
TABLE
  2
STYLE
 70
     1
  0
STYLE
  2
STANDARD
 70
     0
 40
0.0
 41
1.0
 50
0.0
 71
     0
 42
0.0
  3
txt
  4

  0
ENDTAB
  0
TABLE
  2
VIEW
 70
     0
  0
ENDTAB
  0
TABLE
  2
UCS
 70
     0
  0
ENDTAB
  0
TABLE
  2
APPID
 70
     1
  0
APPID
  2
ACAD
 70
     0
  0
ENDTAB
  0
TABLE
  2
DIMSTYLE
 70
     1
  0
DIMSTYLE
  2
STANDARD
 70
     0
  3

  4

  5

  6

  7

 40
1.0
 41
0.18
 42
0.0625
 43
0.38
 44
0.18
 45
0.0
 46
0.0
 47
0.0
 48
0.0
 71
     0
 72
     0
 73
     1
 74
     1
 75
     0
 76
     0
 77
     0
 78
     0
140
0.18
141
0.09
142
0.0
143
25.4
144
1.0
145
0.0
146
1.0
147
0.09
170
     0
171
     2
172
     0
173
     0
174
     0
175
     0
176
     0
177
     0
178
     0
  0
ENDTAB
  0
ENDSEC
  0
SECTION
  2
BLOCKS
  0
ENDSEC
  0
SECTION
  2
ENTITIES
  0
LINE
  8
0
  6
CONTINUOUS
 62
     7
  5
B7
 10
0.725
 20
0.2
 30
0.0
 11
0.875
 21
0.2
 31
0.0
  0
LINE
  8
0
  6
CONTINUOUS
 62
     7
  5
B8
 10
0.925
 20
-0.08
 30
0.0
 11
0.675
 21
-0.08
 31
0.0
  0
LINE
  8
0
  6
CONTINUOUS
 62
     7
  5
B9
 10
0.284129
 20
0.216535
 30
0.0
 11
0.568258
 21
0.216535
 31
0.0
  0
LINE
  8
0
  6
CONTINUOUS
 62
     7
  5
BA
 10
-0.284129
 20
0.216535
 30
0.0
 11
0.284129
 21
0.216535
 31
0.0
  0
LINE
  8
0
  6
CONTINUOUS
 62
     7
  5
BB
 10
-0.568258
 20
0.216535
 30
0.0
 11
-0.284129
 21
0.216535
 31
0.0
  0
LINE
  8
0
  6
CONTINUOUS
 62
     7
  5
BC
 10
0.568258
 20
0.216535
 30
0.0
 11
0.568258
 21
0.649606
 31
0.0
  0
LINE
  8
0
  6
CONTINUOUS
 62
     7
  5
BD
 10
0.568258
 20
0.649606
 30
0.0
 11
0.284129
 21
0.649606
 31
0.0
  0
LINE
  8
0
  6
CONTINUOUS
 62
     7
  5
BE
 10
0.284129
 20
0.216535
 30
0.0
 11
0.284129
 21
0.649606
 31
0.0
  0
LINE
  8
0
  6
CONTINUOUS
 62
     7
  5
BF
 10
0.284129
 20
0.649606
 30
0.0
 11
-0.284129
 21
0.649606
 31
0.0
  0
LINE
  8
0
  6
CONTINUOUS
 62
     7
  5
C0
 10
-0.284129
 20
0.216535
 30
0.0
 11
-0.284129
 21
0.649606
 31
0.0
  0
LINE
  8
0
  6
CONTINUOUS
 62
     7
  5
C1
 10
-0.284129
 20
0.649606
 30
0.0
 11
-0.568258
 21
0.649606
 31
0.0
  0
LINE
  8
0
  6
CONTINUOUS
 62
     7
  5
C2
 10
-0.568258
 20
0.216535
 30
0.0
 11
-0.568258
 21
0.649606
 31
0.0
  0
LINE
  8
0
  6
CONTINUOUS
 62
     7
  5
C3
 10
-0.284129
 20
-0.098425
 30
0.0
 11
-0.568258
 21
-0.098425
 31
0.0
  0
LINE
  8
0
  6
CONTINUOUS
 62
     7
  5
C4
 10
0.284129
 20
-0.098425
 30
0.0
 11
-0.284129
 21
-0.098425
 31
0.0
  0
LINE
  8
0
  6
CONTINUOUS
 62
     7
  5
C5
 10
0.568258
 20
-0.098425
 30
0.0
 11
0.284129
 21
-0.098425
 31
0.0
  0
LINE
  8
0
  6
CONTINUOUS
 62
     7
  5
C6
 10
0.284129
 20
-0.531496
 30
0.0
 11
0.568258
 21
-0.531496
 31
0.0
  0
LINE
  8
0
  6
CONTINUOUS
 62
     7
  5
C7
 10
-0.284129
 20
-0.531496
 30
0.0
 11
0.284129
 21
-0.531496
 31
0.0
  0
LINE
  8
0
  6
CONTINUOUS
 62
     7
  5
C8
 10
-0.568258
 20
-0.531496
 30
0.0
 11
-0.284129
 21
-0.531496
 31
0.0
  0
LINE
  8
0
  6
CONTINUOUS
 62
     7
  5
C9
 10
-0.568258
 20
-0.098425
 30
0.0
 11
-0.568258
 21
-0.531496
 31
0.0
  0
LINE
  8
0
  6
CONTINUOUS
 62
     7
  5
CA
 10
-0.284129
 20
-0.098425
 30
0.0
 11
-0.284129
 21
-0.531496
 31
0.0
  0
LINE
  8
0
  6
CONTINUOUS
 62
     7
  5
CB
 10
0.284129
 20
-0.098425
 30
0.0
 11
0.284129
 21
-0.531496
 31
0.0
  0
LINE
  8
0
  6
CONTINUOUS
 62
     7
  5
CC
 10
0.568258
 20
-0.098425
 30
0.0
 11
0.568258
 21
-0.531496
 31
0.0
  0
LINE
  8
0
  6
CONTINUOUS
 62
     7
  5
CD
 10
-0.433071
 20
-0.757874
 30
0.0
 11
0.433071
 21
-0.757874
 31
0.0
  0
LINE
  8
0
  6
CONTINUOUS
 62
     7
  5
CE
 10
-0.403543
 20
-0.787402
 30
0.0
 11
0.403543
 21
-0.787402
 31
0.0
  0
LINE
  8
0
  6
CONTINUOUS
 62
     7
  5
CF
 10
2.244094
 20
-3.070866
 30
0.0
 11
2.244094
 21
-2.440945
 31
0.0
  0
LINE
  8
0
  6
CONTINUOUS
 62
     7
  5
D0
 10
2.362205
 20
-2.440945
 30
0.0
 11
2.362205
 21
-3.070866
 31
0.0
  0
LINE
  8
0
  6
CONTINUOUS
 62
     7
  5
D1
 10
2.362205
 20
-2.440945
 30
0.0
 11
2.362205
 21
-0.15748
 31
0.0
  0
ARC
  8
0
  6
CONTINUOUS
 62
     7
  5
D2
 10
2.086614
 20
-0.15748
 30
0.0
 40
0.275591
 50
0.0
 51
90.0
  0
LINE
  8
0
  6
CONTINUOUS
 62
     7
  5
D3
 10
2.086614
 20
0.11811
 30
0.0
 11
0.0
 21
0.11811
 31
0.0
  0
LINE
  8
0
  6
CONTINUOUS
 62
     7
  5
D4
 10
0.0
 20
0.0
 30
0.0
 11
2.086614
 21
0.0
 31
0.0
  0
ARC
  8
0
  6
CONTINUOUS
 62
     7
  5
D5
 10
2.086614
 20
-0.15748
 30
0.0
 40
0.15748
 50
0.0
 51
90.0
  0
LINE
  8
0
  6
CONTINUOUS
 62
     7
  5
D6
 10
2.244094
 20
-0.15748
 30
0.0
 11
2.244094
 21
-2.440945
 31
0.0
  0
LINE
  8
0
  6
CONTINUOUS
 62
     7
  5
D7
 10
-0.629921
 20
0.11811
 30
0.0
 11
0.0
 21
0.11811
 31
0.0
  0
LINE
  8
0
  6
CONTINUOUS
 62
     7
  5
D8
 10
0.0
 20
0.0
 30
0.0
 11
-0.629921
 21
0.0
 31
0.0
  0
LINE
  8
0
  6
CONTINUOUS
 62
     7
  5
D9
 10
0.767717
 20
11.692913
 30
0.0
 11
-0.767717
 21
11.692913
 31
0.0
  0
LINE
  8
0
  6
CONTINUOUS
 62
     7
  5
DA
 10
1.122047
 20
12.401575
 30
0.0
 11
-1.122047
 21
12.401575
 31
0.0
  0
LINE
  8
0
  6
CONTINUOUS
 62
     7
  5
DB
 10
1.181102
 20
13.248031
 30
0.0
 11
-1.181102
 21
13.248031
 31
0.0
  0
LINE
  8
0
  6
CONTINUOUS
 62
     7
  5
DC
 10
1.181102
 20
13.129921
 30
0.0
 11
-1.181102
 21
13.129921
 31
0.0
  0
LINE
  8
0
  6
CONTINUOUS
 62
     7
  5
DD
 10
1.181102
 20
14.822835
 30
0.0
 11
-1.181102
 21
14.822835
 31
0.0
  0
LINE
  8
0
  6
CONTINUOUS
 62
     7
  5
DE
 10
1.181102
 20
14.704724
 30
0.0
 11
-1.181102
 21
14.704724
 31
0.0
  0
LINE
  8
0
  6
CONTINUOUS
 62
     7
  5
DF
 10
1.181102
 20
16.397638
 30
0.0
 11
-1.181102
 21
16.397638
 31
0.0
  0
LINE
  8
0
  6
CONTINUOUS
 62
     7
  5
E0
 10
1.181102
 20
16.279528
 30
0.0
 11
-1.181102
 21
16.279528
 31
0.0
  0
LINE
  8
0
  6
CONTINUOUS
 62
     7
  5
E1
 10
1.181102
 20
17.972441
 30
0.0
 11
-1.181102
 21
17.972441
 31
0.0
  0
LINE
  8
0
  6
CONTINUOUS
 62
     7
  5
E2
 10
1.181102
 20
17.854331
 30
0.0
 11
-1.181102
 21
17.854331
 31
0.0
  0
LINE
  8
0
  6
CONTINUOUS
 62
     7
  5
E3
 10
1.181102
 20
19.547244
 30
0.0
 11
-1.181102
 21
19.547244
 31
0.0
  0
LINE
  8
0
  6
CONTINUOUS
 62
     7
  5
E4
 10
1.181102
 20
19.429134
 30
0.0
 11
-1.181102
 21
19.429134
 31
0.0
  0
LINE
  8
0
  6
CONTINUOUS
 62
     7
  5
E5
 10
1.181102
 20
21.003937
 30
0.0
 11
-1.181102
 21
21.003937
 31
0.0
  0
LINE
  8
0
  6
CONTINUOUS
 62
     7
  5
E6
 10
0.433071
 20
0.649606
 30
0.0
 11
0.433071
 21
11.692913
 31
0.0
  0
LINE
  8
0
  6
CONTINUOUS
 62
     7
  5
E7
 10
-0.433071
 20
11.692913
 30
0.0
 11
-0.433071
 21
0.649606
 31
0.0
  0
LINE
  8
0
  6
CONTINUOUS
 62
     7
  5
E8
 10
0.725
 20
0.2
 30
0.0
 11
0.725
 21
0.11811
 31
0.0
  0
LINE
  8
0
  6
CONTINUOUS
 62
     7
  5
E9
 10
0.875
 20
0.11811
 30
0.0
 11
0.875
 21
0.2
 31
0.0
  0
LINE
  8
0
  6
CONTINUOUS
 62
     7
  5
EA
 10
0.925
 20
-0.08
 30
0.0
 11
0.925
 21
0.0
 31
0.0
  0
LINE
  8
0
  6
CONTINUOUS
 62
     7
  5
EB
 10
0.675
 20
0.0
 30
0.0
 11
0.675
 21
-0.08
 31
0.0
  0
LINE
  8
0
  6
CONTINUOUS
 62
     7
  5
EC
 10
-0.472441
 20
0.216535
 30
0.0
 11
-0.472441
 21
0.11811
 31
0.0
  0
LINE
  8
0
  6
CONTINUOUS
 62
     7
  5
ED
 10
0.472441
 20
0.11811
 30
0.0
 11
0.472441
 21
0.216535
 31
0.0
  0
LINE
  8
0
  6
CONTINUOUS
 62
     7
  5
EE
 10
0.472441
 20
-0.098425
 30
0.0
 11
0.472441
 21
0.0
 31
0.0
  0
LINE
  8
0
  6
CONTINUOUS
 62
     7
  5
EF
 10
-0.472441
 20
0.0
 30
0.0
 11
-0.472441
 21
-0.098425
 31
0.0
  0
LINE
  8
0
  6
CONTINUOUS
 62
     7
  5
F0
 10
-0.433071
 20
-0.531496
 30
0.0
 11
-0.433071
 21
-0.757874
 31
0.0
  0
LINE
  8
0
  6
CONTINUOUS
 62
     7
  5
F1
 10
0.433071
 20
-0.757874
 30
0.0
 11
0.433071
 21
-0.531496
 31
0.0
  0
LINE
  8
0
  6
CONTINUOUS
 62
     7
  5
F2
 10
-0.433071
 20
-0.757874
 30
0.0
 11
-0.403543
 21
-0.787402
 31
0.0
  0
LINE
  8
0
  6
CONTINUOUS
 62
     7
  5
F3
 10
0.403543
 20
-0.787402
 30
0.0
 11
0.433071
 21
-0.757874
 31
0.0
  0
LINE
  8
0
  6
CONTINUOUS
 62
     7
  5
F4
 10
2.244094
 20
-3.070866
 30
0.0
 11
2.362205
 21
-3.070866
 31
0.0
  0
LINE
  8
0
  6
CONTINUOUS
 62
     7
  5
F5
 10
-0.629921
 20
0.11811
 30
0.0
 11
-0.629921
 21
0.0
 31
0.0
  0
LINE
  8
0
  6
CONTINUOUS
 62
     7
  5
F6
 10
0.767717
 20
11.692913
 30
0.0
 11
0.767717
 21
12.047244
 31
0.0
  0
LINE
  8
0
  6
CONTINUOUS
 62
     7
  5
F7
 10
-0.767717
 20
12.047244
 30
0.0
 11
-0.767717
 21
11.692913
 31
0.0
  0
ARC
  8
0
  6
CONTINUOUS
 62
     7
  5
F8
 10
-1.122047
 20
12.047244
 30
0.0
 40
0.354331
 50
0.0
 51
90.0
  0
ARC
  8
0
  6
CONTINUOUS
 62
     7
  5
F9
 10
1.122047
 20
12.047244
 30
0.0
 40
0.354331
 50
90.0
 51
180.0
  0
LINE
  8
0
  6
CONTINUOUS
 62
     7
  5
FA
 10
1.122047
 20
12.401575
 30
0.0
 11
1.17126
 21
13.129921
 31
0.0
  0
LINE
  8
0
  6
CONTINUOUS
 62
     7
  5
FB
 10
-1.171252
 20
13.129802
 30
0.0
 11
-1.122047
 21
12.401575
 31
0.0
  0
LINE
  8
0
  6
CONTINUOUS
 62
     7
  5
FC
 10
1.17126
 20
13.248031
 30
0.0
 11
1.17126
 21
14.704724
 31
0.0
  0
LINE
  8
0
  6
CONTINUOUS
 62
     7
  5
FD
 10
-1.17126
 20
14.704724
 30
0.0
 11
-1.17126
 21
13.248031
 31
0.0
  0
LINE
  8
0
  6
CONTINUOUS
 62
     7
  5
FE
 10
1.181102
 20
13.129921
 30
0.0
 11
1.181102
 21
13.248031
 31
0.0
  0
LINE
  8
0
  6
CONTINUOUS
 62
     7
  5
FF
 10
-1.181102
 20
13.248031
 30
0.0
 11
-1.181102
 21
13.129921
 31
0.0
  0
LINE
  8
0
  6
CONTINUOUS
 62
     7
  5
100
 10
1.17126
 20
14.822835
 30
0.0
 11
1.17126
 21
16.279528
 31
0.0
  0
LINE
  8
0
  6
CONTINUOUS
 62
     7
  5
101
 10
-1.17126
 20
16.279528
 30
0.0
 11
-1.17126
 21
14.822835
 31
0.0
  0
LINE
  8
0
  6
CONTINUOUS
 62
     7
  5
102
 10
1.181102
 20
14.704724
 30
0.0
 11
1.181102
 21
14.822835
 31
0.0
  0
LINE
  8
0
  6
CONTINUOUS
 62
     7
  5
103
 10
-1.181102
 20
14.822835
 30
0.0
 11
-1.181102
 21
14.704724
 31
0.0
  0
LINE
  8
0
  6
CONTINUOUS
 62
     7
  5
104
 10
1.17126
 20
16.397638
 30
0.0
 11
1.17126
 21
17.854331
 31
0.0
  0
LINE
  8
0
  6
CONTINUOUS
 62
     7
  5
105
 10
-1.17126
 20
17.854331
 30
0.0
 11
-1.17126
 21
16.397638
 31
0.0
  0
LINE
  8
0
  6
CONTINUOUS
 62
     7
  5
106
 10
1.181102
 20
16.279528
 30
0.0
 11
1.181102
 21
16.397638
 31
0.0
  0
LINE
  8
0
  6
CONTINUOUS
 62
     7
  5
107
 10
-1.181102
 20
16.397638
 30
0.0
 11
-1.181102
 21
16.279528
 31
0.0
  0
LINE
  8
0
  6
CONTINUOUS
 62
     7
  5
108
 10
1.17126
 20
17.972441
 30
0.0
 11
1.17126
 21
19.429134
 31
0.0
  0
LINE
  8
0
  6
CONTINUOUS
 62
     7
  5
109
 10
-1.17126
 20
19.429134
 30
0.0
 11
-1.17126
 21
17.972441
 31
0.0
  0
LINE
  8
0
  6
CONTINUOUS
 62
     7
  5
10A
 10
1.181102
 20
17.854331
 30
0.0
 11
1.181102
 21
17.972441
 31
0.0
  0
LINE
  8
0
  6
CONTINUOUS
 62
     7
  5
10B
 10
-1.181102
 20
17.972441
 30
0.0
 11
-1.181102
 21
17.854331
 31
0.0
  0
LINE
  8
0
  6
CONTINUOUS
 62
     7
  5
10C
 10
1.17126
 20
19.547244
 30
0.0
 11
1.17126
 21
21.003937
 31
0.0
  0
LINE
  8
0
  6
CONTINUOUS
 62
     7
  5
10D
 10
-1.17126
 20
21.003937
 30
0.0
 11
-1.17126
 21
19.547244
 31
0.0
  0
LINE
  8
0
  6
CONTINUOUS
 62
     7
  5
10E
 10
1.181102
 20
19.429134
 30
0.0
 11
1.181102
 21
19.547244
 31
0.0
  0
LINE
  8
0
  6
CONTINUOUS
 62
     7
  5
10F
 10
-1.181102
 20
19.547244
 30
0.0
 11
-1.181102
 21
19.429134
 31
0.0
  0
ARC
  8
0
  6
CONTINUOUS
 62
     7
  5
110
 10
0.0
 20
17.177165
 30
0.0
 40
4.330709
 50
76.225853
 51
90.0
  0
ARC
  8
0
  6
CONTINUOUS
 62
     7
  5
111
 10
0.0
 20
17.177165
 30
0.0
 40
4.330709
 50
90.0
 51
103.774147
  0
ARC
  8
0
  6
CONTINUOUS
 62
     7
  5
112
 10
-0.984252
 20
21.192141
 30
0.0
 40
0.19685
 50
103.774147
 51
180.0
  0
ARC
  8
0
  6
CONTINUOUS
 62
     7
  5
113
 10
0.984252
 20
21.192141
 30
0.0
 40
0.19685
 50
0.0
 51
76.225853
  0
LINE
  8
0
  6
CONTINUOUS
 62
     7
  5
114
 10
1.181102
 20
21.003937
 30
0.0
 11
1.181102
 21
21.192141
 31
0.0
  0
LINE
  8
0
  6
CONTINUOUS
 62
     7
  5
115
 10
-1.181102
 20
21.192141
 30
0.0
 11
-1.181102
 21
21.003937
 31
0.0
  0
LINE
  8
0
  6
CONTINUOUS
 62
     3
  5
116
 10
2.362205
 20
-2.440945
 30
0.0
 11
2.244094
 21
-2.440945
 31
0.0
  0
LINE
  8
0
  6
CONTINUOUS
 62
     3
  5
117
 10
2.362205
 20
-1.062992
 30
0.0
 11
2.244094
 21
-1.062992
 31
0.0
  0
LINE
  8
0
  6
CONTINUOUS
 62
     3
  5
118
 10
0.0
 20
-0.787402
 30
0.0
 11
0.0
 21
21.507874
 31
0.0
  0
ENDSEC
  0
EOF
