999
DXF file: 2008426.dxf
999
Pro/ENGINEER 2009380 by Parametric Technology Corporation
  0
SECTION
  2
HEADER
  9
$ACADVER
  1
AC1012
  9
$DWGCODEPAGE
  3
ANSI_1252
  9
$EXTMAX
 10
594.0
 20
420.0
 30
0.0
  9
$EXTMIN
 10
0.0
 20
0.0
 30
0.0
  9
$LIMMIN
 10
0.0
 20
0.0
  9
$LIMMAX
 10
594.0
 20
420.0
  9
$VIEWCTR
 10
297.0
 20
210.0
  9
$VIEWSIZE
 40
420.0
  9
$CLAYER
  8
0
  9
$LTSCALE
 40
32.67
  9
$CELTYPE
  6
BYLAYER
  9
$DIMSCALE
 40
1.0
  9
$DIMASZ
 40
3.5
  9
$DIMEXO
 40
3.7125
  9
$DIMDLI
 40
22.572
  9
$DIMEXE
 40
10.692
  9
$DIMCEN
 40
5.346
  9
$DIMLFAC
 40
1.0
  9
$DIMBLK
  1
_FILLED
  9
$DIMTXT
 40
3.5
  9
$DIMTOL
 70
1
  9
$DIMLIM
 70
0
  9
$DIMTFAC
 40
1.0
  9
$DIMTP
 40
0.001
  9
$DIMTM
 40
0.001
  9
$PDMODE
 70
3
  9
$PDSIZE
 40
0.05
  9
$HANDSEED
  5
5A9
  9
$TILEMODE
 70
1
  0
ENDSEC
  0
SECTION
  2
CLASSES
  0
ENDSEC
  0
SECTION
  2
TABLES
  0
TABLE
  2
VPORT
  5
8
100
AcDbSymbolTable
 70
2
  0
VPORT
  5
1F4
100
AcDbSymbolTableRecord
100
AcDbViewportTableRecord
  2
*ACTIVE
 70
0
 10
0.0
 20
0.0
 11
1.0
 21
1.0
 12
297.0
 22
210.0
 13
0.0
 23
0.0
 14
1.0
 24
1.0
 15
0.0
 25
0.0
 16
0.0
 26
0.0
 36
1.0
 17
0.0
 27
0.0
 37
0.0
 40
420.0
 41
1.4142857143
 42
50.0
 43
0.0
 44
0.0
 50
0.0
 51
0.0
 71
0
 72
100
 73
1
 74
1
 75
0
 76
0
 77
0
 78
0
  0
ENDTAB
  0
TABLE
  2
LTYPE
  5
5
100
AcDbSymbolTable
 70
6
  0
LTYPE
  5
14
100
AcDbSymbolTableRecord
100
AcDbLinetypeTableRecord
  2
BYBLOCK
 70
0
  3

 72
65
 73
0
 40
0.0
  0
LTYPE
  5
15
100
AcDbSymbolTableRecord
100
AcDbLinetypeTableRecord
  2
BYLAYER
 70
0
  3

 72
65
 73
0
 40
0.0
  0
LTYPE
  5
16
100
AcDbSymbolTableRecord
100
AcDbLinetypeTableRecord
  2
CONTINUOUS
 70
64
  3
Solid line
 72
65
 73
0
 40
0.0
  0
LTYPE
  5
1F5
100
AcDbSymbolTableRecord
100
AcDbLinetypeTableRecord
  2
CENTER
 70
64
  3
____ _ ____ _ ____ _ ____ _ ____ _ ____ _ ____
 72
65
 73
4
 40
0.6
 49
0.375
 74
0
 49
-0.075
 74
0
 49
0.075
 74
0
 49
-0.075
 74
0
  0
LTYPE
  5
1F6
100
AcDbSymbolTableRecord
100
AcDbLinetypeTableRecord
  2
HIDDEN
 70
64
  3
- - - - - - - - - - - - - - - - - - - -
 72
65
 73
2
 40
0.2
 49
0.1
 74
0
 49
-0.1
 74
0
  0
LTYPE
  5
1F7
100
AcDbSymbolTableRecord
100
AcDbLinetypeTableRecord
  2
PHANTOM
 70
64
  3
_____ _ _ _____ _ _ _____ _ _ _____
 72
65
 73
6
 40
0.8
 49
0.45
 74
0
 49
-0.05
 74
0
 49
0.1
 74
0
 49
-0.05
 74
0
 49
0.1
 74
0
 49
-0.05
 74
0
  0
LTYPE
  5
1F8
100
AcDbSymbolTableRecord
100
AcDbLinetypeTableRecord
  2
DOT
 70
64
  3
. . . . . . . . . . . . . . . . . . . .
 72
65
 73
2
 40
0.2
 49
0.1
 74
0
 49
-0.1
 74
0
  0
LTYPE
  5
1F9
100
AcDbSymbolTableRecord
100
AcDbLinetypeTableRecord
  2
DASHED
 70
64
  3
- - - - - - - - - - - - - - - - - - - -
 72
65
 73
2
 40
0.2
 49
0.1
 74
0
 49
-0.1
 74
0
  0
ENDTAB
  0
TABLE
  2
LAYER
  5
2
100
AcDbSymbolTable
 70
36
  0
LAYER
  5
10
100
AcDbSymbolTableRecord
100
AcDbLayerTableRecord
  2
0
 70
0
 62
7
  6
CONTINUOUS
  0
LAYER
  5
1FA
100
AcDbSymbolTableRecord
100
AcDbLayerTableRecord
  2
DEFAULT_1
 70
0
 62
7
  6
CENTER
  0
LAYER
  5
1FB
100
AcDbSymbolTableRecord
100
AcDbLayerTableRecord
  2
DEFAULT_2
 70
0
 62
7
  6
HIDDEN
  0
LAYER
  5
1FC
100
AcDbSymbolTableRecord
100
AcDbLayerTableRecord
  2
DEFAULT_3
 70
0
 62
7
  6
PHANTOM
  0
LAYER
  5
1FD
100
AcDbSymbolTableRecord
100
AcDbLayerTableRecord
  2
ACHSEN
 70
0
 62
7
  6
CONTINUOUS
  0
LAYER
  5
1FE
100
AcDbSymbolTableRecord
100
AcDbLayerTableRecord
  2
BG_ACHSEN
 70
0
 62
7
  6
CONTINUOUS
  0
LAYER
  5
1FF
100
AcDbSymbolTableRecord
100
AcDbLayerTableRecord
  2
BG_EBENEN
 70
0
 62
7
  6
CONTINUOUS
  0
LAYER
  5
200
100
AcDbSymbolTableRecord
100
AcDbLayerTableRecord
  2
BG_FLAECHEN
 70
0
 62
7
  6
CONTINUOUS
  0
LAYER
  5
201
100
AcDbSymbolTableRecord
100
AcDbLayerTableRecord
  2
BG_KOORDSYS
 70
0
 62
7
  6
CONTINUOUS
  0
LAYER
  5
202
100
AcDbSymbolTableRecord
100
AcDbLayerTableRecord
  2
BG_KURVEN
 70
0
 62
7
  6
CONTINUOUS
  0
LAYER
  5
203
100
AcDbSymbolTableRecord
100
AcDbLayerTableRecord
  2
BG_PUNKTE
 70
0
 62
7
  6
CONTINUOUS
  0
LAYER
  5
204
100
AcDbSymbolTableRecord
100
AcDbLayerTableRecord
  2
EBENEN
 70
0
 62
7
  6
CONTINUOUS
  0
LAYER
  5
205
100
AcDbSymbolTableRecord
100
AcDbLayerTableRecord
  2
NOTIZ
 70
0
 62
7
  6
CONTINUOUS
  0
LAYER
  5
206
100
AcDbSymbolTableRecord
100
AcDbLayerTableRecord
  2
PRT_ACHSEN
 70
0
 62
7
  6
CONTINUOUS
  0
LAYER
  5
207
100
AcDbSymbolTableRecord
100
AcDbLayerTableRecord
  2
PRT_EBENEN
 70
0
 62
7
  6
CONTINUOUS
  0
LAYER
  5
208
100
AcDbSymbolTableRecord
100
AcDbLayerTableRecord
  2
PRT_EINBAU_REF
 70
0
 62
7
  6
CONTINUOUS
  0
LAYER
  5
209
100
AcDbSymbolTableRecord
100
AcDbLayerTableRecord
  2
PRT_FLAECHEN
 70
0
 62
7
  6
CONTINUOUS
  0
LAYER
  5
20A
100
AcDbSymbolTableRecord
100
AcDbLayerTableRecord
  2
PRT_IMPORT_KE
 70
0
 62
7
  6
CONTINUOUS
  0
LAYER
  5
20B
100
AcDbSymbolTableRecord
100
AcDbLayerTableRecord
  2
PRT_KOORDSYS
 70
0
 62
7
  6
CONTINUOUS
  0
LAYER
  5
20C
100
AcDbSymbolTableRecord
100
AcDbLayerTableRecord
  2
PRT_KOSMETIK
 70
0
 62
7
  6
CONTINUOUS
  0
LAYER
  5
20D
100
AcDbSymbolTableRecord
100
AcDbLayerTableRecord
  2
PRT_KURVEN
 70
0
 62
7
  6
CONTINUOUS
  0
LAYER
  5
20E
100
AcDbSymbolTableRecord
100
AcDbLayerTableRecord
  2
PRT_PUNKTE
 70
0
 62
7
  6
CONTINUOUS
  0
LAYER
  5
20F
100
AcDbSymbolTableRecord
100
AcDbLayerTableRecord
  2
PRT_TOL_BEZ
 70
0
 62
7
  6
CONTINUOUS
  0
LAYER
  5
210
100
AcDbSymbolTableRecord
100
AcDbLayerTableRecord
  2
PRT_VERSCHMELZUNG
 70
0
 62
7
  6
CONTINUOUS
  0
LAYER
  5
211
100
AcDbSymbolTableRecord
100
AcDbLayerTableRecord
  2
S-BG-EBENEN
 70
0
 62
7
  6
CONTINUOUS
  0
LAYER
  5
212
100
AcDbSymbolTableRecord
100
AcDbLayerTableRecord
  2
S-BG-KOORDSYS
 70
0
 62
7
  6
CONTINUOUS
  0
LAYER
  5
213
100
AcDbSymbolTableRecord
100
AcDbLayerTableRecord
  2
S-EBENEN
 70
0
 62
7
  6
CONTINUOUS
  0
LAYER
  5
214
100
AcDbSymbolTableRecord
100
AcDbLayerTableRecord
  2
S-KOORDSYS
 70
0
 62
7
  6
CONTINUOUS
  0
LAYER
  5
215
100
AcDbSymbolTableRecord
100
AcDbLayerTableRecord
  2
STUECKLISTE
 70
0
 62
7
  6
CONTINUOUS
  0
LAYER
  5
216
100
AcDbSymbolTableRecord
100
AcDbLayerTableRecord
  2
UEBERMASSE
 70
0
 62
7
  6
CONTINUOUS
  0
LAYER
  5
217
100
AcDbSymbolTableRecord
100
AcDbLayerTableRecord
  2
ZEICH_ELEMENTE
 70
0
 62
7
  6
CONTINUOUS
  0
LAYER
  5
218
100
AcDbSymbolTableRecord
100
AcDbLayerTableRecord
  2
HATCHING_BL0
 70
0
 62
7
  6
CONTINUOUS
  0
LAYER
  5
219
100
AcDbSymbolTableRecord
100
AcDbLayerTableRecord
  2
TABLE_BL1
 70
0
 62
7
  6
CONTINUOUS
  0
ENDTAB
  0
TABLE
  2
STYLE
  5
3
100
AcDbSymbolTable
 70
1
  0
STYLE
  5
11
100
AcDbSymbolTableRecord
100
AcDbTextStyleTableRecord
  2
STANDARD
 70
0
 40
0.0
 41
0.8
 50
0.0
 71
0
 42
0.2
  3
SIMPLEX.SHX
  4

  0
STYLE
  5
21A
100
AcDbSymbolTableRecord
100
AcDbTextStyleTableRecord
  2
TEXTSTYLE_1
 70
0
 40
0.0
 41
0.8
 50
0.0
 71
0
 42
0.2
  3
gdt
  4

  0
STYLE
  5
21B
100
AcDbSymbolTableRecord
100
AcDbTextStyleTableRecord
  2
TEXTSTYLE_2
 70
0
 40
0.0
 41
0.65
 50
0.0
 71
0
 42
0.2
  3
txt
  4

  0
ENDTAB
  0
TABLE
  2
VIEW
  5
6
100
AcDbSymbolTable
 70
0
  0
ENDTAB
  0
TABLE
  2
UCS
  5
7
100
AcDbSymbolTable
 70
0
  0
ENDTAB
  0
TABLE
  2
APPID
  5
9
100
AcDbSymbolTable
 70
1
  0
APPID
  5
21C
100
AcDbSymbolTableRecord
100
AcDbRegAppTableRecord
  2
ACAD
 70
0
  0
ENDTAB
  0
TABLE
  2
BLOCK_RECORD
  5
1
100
AcDbSymbolTable
 70
0
  0
BLOCK_RECORD
  5
1F
100
AcDbSymbolTableRecord
100
AcDbBlockTableRecord
  2
*MODEL_SPACE
  0
BLOCK_RECORD
  5
1B
100
AcDbSymbolTableRecord
100
AcDbBlockTableRecord
  2
*PAPER_SPACE
  0
BLOCK_RECORD
  5
21D
100
AcDbSymbolTableRecord
100
AcDbBlockTableRecord
  2
_FILLED
  0
BLOCK_RECORD
  5
21E
100
AcDbSymbolTableRecord
100
AcDbBlockTableRecord
  2
*D0
  0
BLOCK_RECORD
  5
21F
100
AcDbSymbolTableRecord
100
AcDbBlockTableRecord
  2
*D1
  0
BLOCK_RECORD
  5
220
100
AcDbSymbolTableRecord
100
AcDbBlockTableRecord
  2
*D2
  0
BLOCK_RECORD
  5
221
100
AcDbSymbolTableRecord
100
AcDbBlockTableRecord
  2
*D3
  0
BLOCK_RECORD
  5
222
100
AcDbSymbolTableRecord
100
AcDbBlockTableRecord
  2
HATCHING_BL0
  0
BLOCK_RECORD
  5
223
100
AcDbSymbolTableRecord
100
AcDbBlockTableRecord
  2
TABLE_BL1
  0
ENDTAB
  0
TABLE
  2
DIMSTYLE
  5
A
100
AcDbSymbolTable
 70
1
  0
DIMSTYLE
105
224
100
AcDbSymbolTableRecord
100
AcDbDimStyleTableRecord
  2
STANDARD
 70
0
  3

  4

  5
_FILLED
  6
_FILLED
  7
_FILLED
 40
1.0
 41
3.5
 42
0.0625
 43
0.38
 44
0.18
 45
0.0
 46
0.0
 47
0.001
 48
0.001
140
3.5
141
0.09
142
0.0
143
25.4
144
1.0
145
0.0
146
1.0
147
0.09
 71
1.0
 72
0.0
 73
0
 74
0
 75
0
 76
0
 77
1
 78
8
170
0
171
2
172
0
173
0
174
0
175
0
176
0
177
0
178
2
270
2
271
3
272
3
273
2
274
2
275
0
280
0
281
0
282
0
283
1
284
8
285
0
286
0
287
3
288
0
340
11
  0
DIMSTYLE
105
225
100
AcDbSymbolTableRecord
100
AcDbDimStyleTableRecord
  2
DIMSTYLE_1
 70
0
  3

  4

  5
_FILLED
  6
_FILLED
  7
_FILLED
 40
1.0
 41
3.5
 42
0.0625
 43
0.38
 44
0.18
 45
0.0
 46
0.0
 47
0.2
 48
0.2
140
3.5
141
0.09
142
0.0
143
25.4
144
1.0
145
0.0
146
1.0
147
0.09
 71
0.0
 72
0.0
 73
0
 74
0
 75
0
 76
0
 77
1
 78
8
170
0
171
2
172
0
173
0
174
0
175
0
176
0
177
0
178
2
270
2
271
3
272
3
273
2
274
2
275
0
280
0
281
0
282
0
283
1
284
8
285
0
286
0
287
3
288
0
340
11
  0
DIMSTYLE
105
226
100
AcDbSymbolTableRecord
100
AcDbDimStyleTableRecord
  2
DIMSTYLE_2
 70
0
  3

  4

  5
_FILLED
  6
_FILLED
  7
_FILLED
 40
1.0
 41
3.5
 42
0.0625
 43
0.38
 44
0.18
 45
0.0
 46
0.0
 47
0.3
 48
0.3
140
3.5
141
0.09
142
0.0
143
25.4
144
1.0
145
0.0
146
1.0
147
0.09
 71
0.0
 72
0.0
 73
0
 74
0
 75
0
 76
0
 77
1
 78
8
170
0
171
2
172
0
173
0
174
0
175
0
176
0
177
0
178
2
270
2
271
3
272
3
273
2
274
2
275
0
280
0
281
0
282
0
283
1
284
8
285
0
286
0
287
3
288
0
340
11
  0
DIMSTYLE
105
227
100
AcDbSymbolTableRecord
100
AcDbDimStyleTableRecord
  2
DIMSTYLE_3
 70
0
  3

  4

  5
_FILLED
  6
_FILLED
  7
_FILLED
 40
1.0
 41
3.5
 42
0.0625
 43
0.38
 44
0.18
 45
0.0
 46
0.0
 47
0.5
 48
0.5
140
3.5
141
0.09
142
0.0
143
25.4
144
1.0
145
0.0
146
1.0
147
0.09
 71
0.0
 72
0.0
 73
0
 74
0
 75
0
 76
0
 77
1
 78
8
170
0
171
2
172
0
173
0
174
0
175
0
176
0
177
0
178
2
270
2
271
3
272
3
273
2
274
2
275
0
280
0
281
0
282
0
283
1
284
8
285
0
286
0
287
3
288
0
340
11
  0
ENDTAB
  0
ENDSEC
  0
SECTION
  2
BLOCKS
  0
BLOCK
  5
20
100
AcDbEntity
  8
0
100
AcDbBlockBegin
  2
*MODEL_SPACE
 70
0
 10
0.0
 20
0.0
 30
0.0
  3
*MODEL_SPACE
  1

  0
ENDBLK
  5
21
100
AcDbEntity
  8
0
100
AcDbBlockEnd
  0
BLOCK
  5
1C
100
AcDbEntity
  8
0
100
AcDbBlockBegin
  2
*PAPER_SPACE
 70
0
 10
0.0
 20
0.0
 30
0.0
  3
*PAPER_SPACE
  1

  0
ENDBLK
  5
1D
100
AcDbEntity
  8
0
100
AcDbBlockEnd
  0
BLOCK
  5
228
100
AcDbEntity
  8
HATCHING_BL0
100
AcDbBlockBegin
  2
HATCHING_BL0
 70
64
 10
579.6581489736
 20
30.4073864343
  3
HATCHING_BL0
  1

  0
SOLID
  5
229
100
AcDbEntity
  8
HATCHING_BL0
100
AcDbTrace
 62
253
  6
BYLAYER
 10
578.6602733697
 20
34.5874790984
 11
578.7931742425
 21
34.6056786271
 12
578.9273039625
 22
34.6039227729
 13
578.9273039625
 23
34.6039227729
  0
SOLID
  5
22A
100
AcDbEntity
  8
HATCHING_BL0
100
AcDbTrace
 62
253
  6
BYLAYER
 10
578.9273039625
 20
34.6039227729
 11
579.0596828852
 21
34.5822505415
 12
578.6602733697
 22
34.5874790984
 13
578.6602733697
 23
34.5874790984
  0
SOLID
  5
22B
100
AcDbEntity
  8
HATCHING_BL0
100
AcDbTrace
 62
253
  6
BYLAYER
 10
578.5315536904
 20
34.549728483
 11
578.6602733697
 21
34.5874790984
 12
579.0596828852
 22
34.5822505415
 13
579.0596828852
 23
34.5822505415
  0
SOLID
  5
22C
100
AcDbEntity
  8
HATCHING_BL0
100
AcDbTrace
 62
253
  6
BYLAYER
 10
579.0596828852
 20
34.5822505415
 11
579.1873702597
 21
34.5411433739
 12
578.5315536904
 22
34.549728483
 13
578.5315536904
 23
34.549728483
  0
SOLID
  5
22D
100
AcDbEntity
  8
HATCHING_BL0
100
AcDbTrace
 62
253
  6
BYLAYER
 10
578.4098746668
 20
34.4932653975
 11
578.5315536904
 21
34.549728483
 12
579.1873702597
 22
34.5411433739
 13
579.1873702597
 23
34.5411433739
  0
SOLID
  5
22E
100
AcDbEntity
  8
HATCHING_BL0
100
AcDbTrace
 62
253
  6
BYLAYER
 10
579.1873702597
 20
34.5411433739
 11
579.3075295556
 21
34.4815144513
 12
578.4098746668
 22
34.4932653975
 13
578.4098746668
 23
34.4932653975
  0
SOLID
  5
22F
100
AcDbEntity
  8
HATCHING_BL0
100
AcDbTrace
 62
253
  6
BYLAYER
 10
578.2979393556
 20
34.4193441494
 11
578.4098746668
 21
34.4932653975
 12
579.3075295556
 22
34.4815144513
 13
579.3075295556
 23
34.4815144513
  0
SOLID
  5
230
100
AcDbEntity
  8
HATCHING_BL0
100
AcDbTrace
 62
253
  6
BYLAYER
 10
579.3075295556
 20
34.4815144513
 11
579.4174914767
 21
34.4046884093
 12
578.2979393556
 22
34.4193441494
 13
578.2979393556
 23
34.4193441494
  0
SOLID
  5
231
100
AcDbEntity
  8
HATCHING_BL0
100
AcDbTrace
 62
253
  6
BYLAYER
 10
578.1982343604
 20
34.3296068732
 11
578.2979393556
 21
34.4193441494
 12
579.4174914767
 22
34.4046884093
 13
579.4174914767
 23
34.4046884093
  0
SOLID
  5
232
100
AcDbEntity
  8
HATCHING_BL0
100
AcDbTrace
 62
253
  6
BYLAYER
 10
579.4174914767
 20
34.4046884093
 11
579.5148132575
 21
34.3123719114
 12
578.1982343604
 22
34.3296068732
 13
578.1982343604
 23
34.3296068732
  0
SOLID
  5
233
100
AcDbEntity
  8
HATCHING_BL0
100
AcDbTrace
 62
253
  6
BYLAYER
 10
578.1129745924
 20
34.226047051
 11
578.1982343604
 21
34.3296068732
 12
579.5148132575
 22
34.3123719114
 13
579.5148132575
 23
34.3123719114
  0
SOLID
  5
234
100
AcDbEntity
  8
HATCHING_BL0
100
AcDbTrace
 62
253
  6
BYLAYER
 10
579.5148132575
 20
34.3123719114
 11
579.5973329289
 21
34.2066157359
 12
578.1129745924
 22
34.226047051
 13
578.1129745924
 23
34.226047051
  0
SOLID
  5
235
100
AcDbEntity
  8
HATCHING_BL0
100
AcDbTrace
 62
253
  6
BYLAYER
 10
578.0440540675
 20
34.1109652277
 11
578.1129745924
 21
34.226047051
 12
579.5973329289
 22
34.2066157359
 13
579.5973329289
 23
34.2066157359
  0
SOLID
  5
236
100
AcDbEntity
  8
HATCHING_BL0
100
AcDbTrace
 62
253
  6
BYLAYER
 10
579.5973329289
 20
34.2066157359
 11
579.6632173456
 21
34.0897692193
 12
578.0440540675
 22
34.1109652277
 13
578.0440540675
 23
34.1109652277
  0
SOLID
  5
237
100
AcDbEntity
  8
HATCHING_BL0
100
AcDbTrace
 62
253
  6
BYLAYER
 10
577.9930038308
 20
33.9869179055
 11
578.0440540675
 21
34.1109652277
 12
579.6632173456
 22
34.0897692193
 13
579.6632173456
 23
34.0897692193
  0
SOLID
  5
238
100
AcDbEntity
  8
HATCHING_BL0
100
AcDbTrace
 62
253
  6
BYLAYER
 10
579.6632173456
 20
34.0897692193
 11
579.7110029083
 21
33.9644280656
 12
577.9930038308
 22
33.9869179055
 13
577.9930038308
 23
33.9869179055
  0
SOLID
  5
239
100
AcDbEntity
  8
HATCHING_BL0
100
AcDbTrace
 62
253
  6
BYLAYER
 10
577.9609579453
 20
33.856660752
 11
577.9930038308
 21
33.9869179055
 12
579.7110029083
 22
33.9644280656
 13
579.7110029083
 23
33.9644280656
  0
SOLID
  5
23A
100
AcDbEntity
  8
HATCHING_BL0
100
AcDbTrace
 62
253
  6
BYLAYER
 10
579.7110029083
 20
33.9644280656
 11
579.7396280777
 21
33.8333766845
 12
577.9609579453
 22
33.856660752
 13
577.9609579453
 23
33.856660752
  0
SOLID
  5
23B
100
AcDbEntity
  8
HATCHING_BL0
100
AcDbTrace
 62
253
  6
BYLAYER
 10
577.9486282992
 20
33.723087384
 11
577.9609579453
 21
33.856660752
 12
579.7396280777
 22
33.8333766845
 13
579.7396280777
 23
33.8333766845
  0
SOLID
  5
23C
100
AcDbEntity
  8
HATCHING_BL0
100
AcDbTrace
 62
253
  6
BYLAYER
 10
577.9486282992
 20
33.723087384
 11
579.7396280777
 21
33.8333766845
 12
577.9485254941
 22
33.7152341001
 13
577.9485254941
 23
33.7152341001
  0
SOLID
  5
23D
100
AcDbEntity
  8
HATCHING_BL0
100
AcDbTrace
 62
253
  6
BYLAYER
 10
577.9485254941
 20
33.7152341001
 11
579.7396280777
 21
33.8333766845
 12
577.9484912248
 22
33.7073802182
 13
577.9484912248
 23
33.7073802182
  0
SOLID
  5
23E
100
AcDbEntity
  8
HATCHING_BL0
100
AcDbTrace
 62
253
  6
BYLAYER
 10
579.7396280777
 20
33.8333766845
 11
579.7484569556
 21
33.6995263362
 12
577.9484912248
 22
33.7073802182
 13
577.9484912248
 23
33.7073802182
  0
SOLID
  5
23F
100
AcDbEntity
  8
HATCHING_BL0
100
AcDbTrace
 62
253
  6
BYLAYER
 10
577.9584878164
 20
33.5736120121
 11
577.9484912248
 21
33.7073802182
 12
579.7484569556
 22
33.6995263362
 13
579.7484569556
 23
33.6995263362
  0
SOLID
  5
240
100
AcDbEntity
  8
HATCHING_BL0
100
AcDbTrace
 62
253
  6
BYLAYER
 10
579.7484569556
 20
33.6995263362
 11
579.7372934117
 21
33.5658504592
 12
577.9584878164
 22
33.5736120121
 13
577.9584878164
 23
33.5736120121
  0
SOLID
  5
241
100
AcDbEntity
  8
HATCHING_BL0
100
AcDbTrace
 62
253
  6
BYLAYER
 10
577.9882555203
 20
33.4428154195
 11
577.9584878164
 21
33.5736120121
 12
579.7372934117
 22
33.5658504592
 13
579.7372934117
 23
33.5658504592
  0
SOLID
  5
242
100
AcDbEntity
  8
HATCHING_BL0
100
AcDbTrace
 62
253
  6
BYLAYER
 10
579.7372934117
 20
33.5658504592
 11
579.7063854401
 21
33.4353186159
 12
577.9882555203
 22
33.4428154195
 13
577.9882555203
 23
33.4428154195
  0
SOLID
  5
243
100
AcDbEntity
  8
HATCHING_BL0
100
AcDbTrace
 62
253
  6
BYLAYER
 10
578.0371330575
 20
33.3178960409
 11
577.9882555203
 21
33.4428154195
 12
579.7063854401
 22
33.4353186159
 13
579.7063854401
 23
33.4353186159
  0
SOLID
  5
244
100
AcDbEntity
  8
HATCHING_BL0
100
AcDbTrace
 62
253
  6
BYLAYER
 10
579.7063854401
 20
33.4353186159
 11
579.6564196506
 21
33.3108305254
 12
578.0371330575
 22
33.3178960409
 13
578.0371330575
 23
33.3178960409
  0
SOLID
  5
245
100
AcDbEntity
  8
HATCHING_BL0
100
AcDbTrace
 62
253
  6
BYLAYER
 10
578.1040346308
 20
33.2016289161
 11
578.0371330575
 21
33.3178960409
 12
579.6564196506
 22
33.3108305254
 13
579.6564196506
 23
33.3108305254
  0
SOLID
  5
246
100
AcDbEntity
  8
HATCHING_BL0
100
AcDbTrace
 62
253
  6
BYLAYER
 10
579.6564196506
 20
33.3108305254
 11
579.5885060155
 21
33.1951516466
 12
578.1040346308
 22
33.2016289161
 13
578.1040346308
 23
33.2016289161
  0
SOLID
  5
247
100
AcDbEntity
  8
HATCHING_BL0
100
AcDbTrace
 62
253
  6
BYLAYER
 10
578.1874740452
 20
33.0965968784
 11
578.1040346308
 21
33.2016289161
 12
579.5885060155
 22
33.1951516466
 13
579.5885060155
 23
33.1951516466
  0
SOLID
  5
248
100
AcDbEntity
  8
HATCHING_BL0
100
AcDbTrace
 62
253
  6
BYLAYER
 10
579.5885060155
 20
33.1951516466
 11
579.5041532125
 21
33.0908517453
 12
578.1874740452
 22
33.0965968784
 13
578.1874740452
 23
33.0965968784
  0
SOLID
  5
249
100
AcDbEntity
  8
HATCHING_BL0
100
AcDbTrace
 62
253
  6
BYLAYER
 10
578.2855977234
 20
33.0051331775
 11
578.1874740452
 21
33.0965968784
 12
579.5041532125
 22
33.0908517453
 13
579.5041532125
 23
33.0908517453
  0
SOLID
  5
24A
100
AcDbEntity
  8
HATCHING_BL0
100
AcDbTrace
 62
253
  6
BYLAYER
 10
579.5041532125
 20
33.0908517453
 11
579.4052351092
 21
33.0002478068
 12
578.2855977234
 22
33.0051331775
 13
578.2855977234
 23
33.0051331775
  0
SOLID
  5
24B
100
AcDbEntity
  8
HATCHING_BL0
100
AcDbTrace
 62
253
  6
BYLAYER
 10
578.3962258827
 20
32.9292696475
 11
578.2855977234
 21
33.0051331775
 12
579.4052351092
 22
33.0002478068
 13
579.4052351092
 23
33.0002478068
  0
SOLID
  5
24C
100
AcDbEntity
  8
HATCHING_BL0
100
AcDbTrace
 62
253
  6
BYLAYER
 10
579.4052351092
 20
33.0002478068
 11
579.2939491366
 21
32.925352566
 12
578.3962258827
 22
32.9292696475
 13
578.3962258827
 23
32.9292696475
  0
SOLID
  5
24D
100
AcDbEntity
  8
HATCHING_BL0
100
AcDbTrace
 62
253
  6
BYLAYER
 10
578.5169009572
 20
32.8706915697
 11
578.3962258827
 21
32.9292696475
 12
579.2939491366
 22
32.925352566
 13
579.2939491366
 23
32.925352566
  0
SOLID
  5
24E
100
AcDbEntity
  8
HATCHING_BL0
100
AcDbTrace
 62
253
  6
BYLAYER
 10
579.2939491366
 20
32.925352566
 11
579.1727674733
 21
32.867829794
 12
578.5169009572
 22
32.8706915697
 13
578.5169009572
 23
32.8706915697
  0
SOLID
  5
24F
100
AcDbEntity
  8
HATCHING_BL0
100
AcDbTrace
 62
253
  6
BYLAYER
 10
578.6449421929
 20
32.8307002358
 11
578.5169009572
 21
32.8706915697
 12
579.1727674733
 22
32.867829794
 13
579.1727674733
 23
32.867829794
  0
SOLID
  5
250
100
AcDbEntity
  8
HATCHING_BL0
100
AcDbTrace
 62
253
  6
BYLAYER
 10
579.1727674733
 20
32.867829794
 11
579.0443821273
 21
32.8289573392
 12
578.6449421929
 22
32.8307002358
 13
578.6449421929
 23
32.8307002358
  0
SOLID
  5
251
100
AcDbEntity
  8
HATCHING_BL0
100
AcDbTrace
 62
253
  6
BYLAYER
 10
578.7775051986
 20
32.8101840389
 11
578.6449421929
 21
32.8307002358
 12
579.0443821273
 22
32.8289573392
 13
579.0443821273
 23
32.8289573392
  0
SOLID
  5
252
100
AcDbEntity
  8
HATCHING_BL0
100
AcDbTrace
 62
253
  6
BYLAYER
 10
579.0443821273
 20
32.8289573392
 11
578.9116451338
 21
32.8095987393
 12
578.7775051986
 22
32.8101840389
 13
578.7775051986
 23
32.8101840389
  0
SOLID
  5
253
100
AcDbEntity
  8
HATCHING_BL0
100
AcDbTrace
 62
253
  6
BYLAYER
 10
581.8740543914
 20
31.4914761709
 11
581.8740543914
 21
32.5994249371
 12
587.1581365415
 22
32.5994249371
 13
587.1581365415
 23
32.5994249371
  0
SOLID
  5
254
100
AcDbEntity
  8
HATCHING_BL0
100
AcDbTrace
 62
253
  6
BYLAYER
 10
581.8740543914
 20
31.4914761709
 11
587.1581365415
 21
32.5994249371
 12
585.1126853866
 22
31.4914761709
 13
585.1126853866
 23
31.4914761709
  0
SOLID
  5
255
100
AcDbEntity
  8
HATCHING_BL0
100
AcDbTrace
 62
253
  6
BYLAYER
 10
587.1581365415
 20
32.5994249371
 11
587.1581365415
 21
31.4914761709
 12
585.1126853866
 22
31.4914761709
 13
585.1126853866
 23
31.4914761709
  0
SOLID
  5
256
100
AcDbEntity
  8
HATCHING_BL0
100
AcDbTrace
 62
253
  6
BYLAYER
 10
581.8740543914
 20
28.5085239881
 11
585.1126853866
 21
31.4914761709
 12
587.1581365415
 22
31.4914761709
 13
587.1581365415
 23
31.4914761709
  0
SOLID
  5
257
100
AcDbEntity
  8
HATCHING_BL0
100
AcDbTrace
 62
253
  6
BYLAYER
 10
587.1581365415
 20
31.4914761709
 11
583.9195055463
 21
28.5085239881
 12
581.8740543914
 22
28.5085239881
 13
581.8740543914
 23
28.5085239881
  0
SOLID
  5
258
100
AcDbEntity
  8
HATCHING_BL0
100
AcDbTrace
 62
253
  6
BYLAYER
 10
581.8740543914
 20
27.40057254
 11
581.8740543914
 21
28.5085239881
 12
583.9195055463
 22
28.5085239881
 13
583.9195055463
 23
28.5085239881
  0
SOLID
  5
259
100
AcDbEntity
  8
HATCHING_BL0
100
AcDbTrace
 62
253
  6
BYLAYER
 10
573.6922497719
 20
31.4488613388
 11
577.2672958526
 21
31.5824312052
 12
574.8002024808
 22
31.4488613388
 13
574.8002024808
 23
31.4488613388
  0
SOLID
  5
25A
100
AcDbEntity
  8
HATCHING_BL0
100
AcDbTrace
 62
253
  6
BYLAYER
 10
574.8002024808
 20
31.4488613388
 11
577.2672958526
 21
31.5824312052
 12
574.9893168208
 22
31.436466026
 13
574.9893168208
 23
31.436466026
  0
SOLID
  5
25B
100
AcDbEntity
  8
HATCHING_BL0
100
AcDbTrace
 62
253
  6
BYLAYER
 10
574.9893168208
 20
31.436466026
 11
577.2672958526
 21
31.5824312052
 12
575.1751953621
 22
31.3994924853
 13
575.1751953621
 23
31.3994924853
  0
SOLID
  5
25C
100
AcDbEntity
  8
HATCHING_BL0
100
AcDbTrace
 62
253
  6
BYLAYER
 10
575.1751953621
 20
31.3994924853
 11
577.2672958526
 21
31.5824312052
 12
575.3546576711
 22
31.3385732402
 13
575.3546576711
 23
31.3385732402
  0
SOLID
  5
25D
100
AcDbEntity
  8
HATCHING_BL0
100
AcDbTrace
 62
253
  6
BYLAYER
 10
577.2672958526
 20
31.5824312052
 11
577.4562016136
 21
31.2997137547
 12
575.3546576711
 22
31.3385732402
 13
575.3546576711
 23
31.3385732402
  0
SOLID
  5
25E
100
AcDbEntity
  8
HATCHING_BL0
100
AcDbTrace
 62
253
  6
BYLAYER
 10
575.5246330982
 20
31.2547506358
 11
575.3546576711
 21
31.3385732402
 12
577.4562016136
 22
31.2997137547
 13
577.4562016136
 23
31.2997137547
  0
SOLID
  5
25F
100
AcDbEntity
  8
HATCHING_BL0
100
AcDbTrace
 62
253
  6
BYLAYER
 10
575.5246330982
 20
31.2547506358
 11
577.4562016136
 21
31.2997137547
 12
575.6822133165
 22
31.1494589002
 13
575.6822133165
 23
31.1494589002
  0
SOLID
  5
260
100
AcDbEntity
  8
HATCHING_BL0
100
AcDbTrace
 62
253
  6
BYLAYER
 10
575.6822133165
 20
31.1494589002
 11
577.4562016136
 21
31.2997137547
 12
575.8247020849
 22
31.0244996041
 13
575.8247020849
 23
31.0244996041
  0
SOLID
  5
261
100
AcDbEntity
  8
HATCHING_BL0
100
AcDbTrace
 62
253
  6
BYLAYER
 10
577.4562016136
 20
31.2997137547
 11
577.6065892273
 21
30.9947578414
 12
575.8247020849
 22
31.0244996041
 13
575.8247020849
 23
31.0244996041
  0
SOLID
  5
262
100
AcDbEntity
  8
HATCHING_BL0
100
AcDbTrace
 62
253
  6
BYLAYER
 10
575.949661381
 20
30.8820108357
 11
575.8247020849
 21
31.0244996041
 12
577.6065892273
 22
30.9947578414
 13
577.6065892273
 23
30.9947578414
  0
SOLID
  5
263
100
AcDbEntity
  8
HATCHING_BL0
100
AcDbTrace
 62
253
  6
BYLAYER
 10
575.949661381
 20
30.8820108357
 11
577.6065892273
 21
30.9947578414
 12
576.0549531166
 22
30.7244306173
 13
576.0549531166
 23
30.7244306173
  0
SOLID
  5
264
100
AcDbEntity
  8
HATCHING_BL0
100
AcDbTrace
 62
253
  6
BYLAYER
 10
577.6065892273
 20
30.9947578414
 11
577.71588552
 21
30.6727813458
 12
576.0549531166
 22
30.7244306173
 13
576.0549531166
 23
30.7244306173
  0
SOLID
  5
265
100
AcDbEntity
  8
HATCHING_BL0
100
AcDbTrace
 62
253
  6
BYLAYER
 10
576.138775721
 20
30.5544551903
 11
576.0549531166
 21
30.7244306173
 12
577.71588552
 22
30.6727813458
 13
577.71588552
 23
30.6727813458
  0
SOLID
  5
266
100
AcDbEntity
  8
HATCHING_BL0
100
AcDbTrace
 62
253
  6
BYLAYER
 10
576.138775721
 20
30.5544551903
 11
577.71588552
 21
30.6727813458
 12
576.1996949661
 22
30.3749928812
 13
576.1996949661
 23
30.3749928812
  0
SOLID
  5
267
100
AcDbEntity
  8
HATCHING_BL0
100
AcDbTrace
 62
253
  6
BYLAYER
 10
577.71588552
 20
30.6727813458
 11
577.7822204018
 21
30.3392933747
 12
576.1996949661
 22
30.3749928812
 13
576.1996949661
 23
30.3749928812
  0
SOLID
  5
268
100
AcDbEntity
  8
HATCHING_BL0
100
AcDbTrace
 62
253
  6
BYLAYER
 10
576.2366685068
 20
30.18911434
 11
576.1996949661
 21
30.3749928812
 12
577.7822204018
 22
30.3392933747
 13
577.7822204018
 23
30.3392933747
  0
SOLID
  5
269
100
AcDbEntity
  8
HATCHING_BL0
100
AcDbTrace
 62
253
  6
BYLAYER
 10
576.2366685068
 20
30.18911434
 11
577.7822204018
 21
30.3392933747
 12
576.2490637155
 22
29.9999980334
 13
576.2490637155
 23
29.9999980334
  0
SOLID
  5
26A
100
AcDbEntity
  8
HATCHING_BL0
100
AcDbTrace
 62
253
  6
BYLAYER
 10
577.7822204018
 20
30.3392933747
 11
577.8044588645
 21
29.9999980334
 12
576.2490637155
 22
29.9999980334
 13
576.2490637155
 23
29.9999980334
  0
SOLID
  5
26B
100
AcDbEntity
  8
HATCHING_BL0
100
AcDbTrace
 62
253
  6
BYLAYER
 10
576.2366685068
 20
29.81088566
 11
576.2490637155
 21
29.9999980334
 12
577.8044588645
 22
29.9999980334
 13
577.8044588645
 23
29.9999980334
  0
SOLID
  5
26C
100
AcDbEntity
  8
HATCHING_BL0
100
AcDbTrace
 62
253
  6
BYLAYER
 10
577.8044588645
 20
29.9999980334
 11
577.7822204018
 21
29.6607066253
 12
576.2366685068
 22
29.81088566
 13
576.2366685068
 23
29.81088566
  0
SOLID
  5
26D
100
AcDbEntity
  8
HATCHING_BL0
100
AcDbTrace
 62
253
  6
BYLAYER
 10
576.1996949661
 20
29.6250071188
 11
576.2366685068
 21
29.81088566
 12
577.7822204018
 22
29.6607066253
 13
577.7822204018
 23
29.6607066253
  0
SOLID
  5
26E
100
AcDbEntity
  8
HATCHING_BL0
100
AcDbTrace
 62
253
  6
BYLAYER
 10
576.1996949661
 20
29.6250071188
 11
577.7822204018
 21
29.6607066253
 12
576.138775721
 22
29.4455448097
 13
576.138775721
 23
29.4455448097
  0
SOLID
  5
26F
100
AcDbEntity
  8
HATCHING_BL0
100
AcDbTrace
 62
253
  6
BYLAYER
 10
577.7822204018
 20
29.6607066253
 11
577.71588552
 21
29.3272186542
 12
576.138775721
 22
29.4455448097
 13
576.138775721
 23
29.4455448097
  0
SOLID
  5
270
100
AcDbEntity
  8
HATCHING_BL0
100
AcDbTrace
 62
253
  6
BYLAYER
 10
576.0549531166
 20
29.2755693827
 11
576.138775721
 21
29.4455448097
 12
577.71588552
 22
29.3272186542
 13
577.71588552
 23
29.3272186542
  0
SOLID
  5
271
100
AcDbEntity
  8
HATCHING_BL0
100
AcDbTrace
 62
253
  6
BYLAYER
 10
576.0549531166
 20
29.2755693827
 11
577.71588552
 21
29.3272186542
 12
575.949661381
 22
29.1179891643
 13
575.949661381
 23
29.1179891643
  0
SOLID
  5
272
100
AcDbEntity
  8
HATCHING_BL0
100
AcDbTrace
 62
253
  6
BYLAYER
 10
577.71588552
 20
29.3272186542
 11
577.6065892273
 21
29.0052421586
 12
575.949661381
 22
29.1179891643
 13
575.949661381
 23
29.1179891643
  0
SOLID
  5
273
100
AcDbEntity
  8
HATCHING_BL0
100
AcDbTrace
 62
253
  6
BYLAYER
 10
575.8247020849
 20
28.9755003959
 11
575.949661381
 21
29.1179891643
 12
577.6065892273
 22
29.0052421586
 13
577.6065892273
 23
29.0052421586
  0
SOLID
  5
274
100
AcDbEntity
  8
HATCHING_BL0
100
AcDbTrace
 62
253
  6
BYLAYER
 10
575.8247020849
 20
28.9755003959
 11
577.6065892273
 21
29.0052421586
 12
575.6822133165
 22
28.8505410998
 13
575.6822133165
 23
28.8505410998
  0
SOLID
  5
275
100
AcDbEntity
  8
HATCHING_BL0
100
AcDbTrace
 62
253
  6
BYLAYER
 10
575.6822133165
 20
28.8505410998
 11
577.6065892273
 21
29.0052421586
 12
575.5246330982
 22
28.7452493642
 13
575.5246330982
 23
28.7452493642
  0
SOLID
  5
276
100
AcDbEntity
  8
HATCHING_BL0
100
AcDbTrace
 62
253
  6
BYLAYER
 10
577.6065892273
 20
29.0052421586
 11
577.4562016136
 21
28.7002862453
 12
575.5246330982
 22
28.7452493642
 13
575.5246330982
 23
28.7452493642
  0
SOLID
  5
277
100
AcDbEntity
  8
HATCHING_BL0
100
AcDbTrace
 62
253
  6
BYLAYER
 10
575.3546576711
 20
28.6614267598
 11
575.5246330982
 21
28.7452493642
 12
577.4562016136
 22
28.7002862453
 13
577.4562016136
 23
28.7002862453
  0
SOLID
  5
278
100
AcDbEntity
  8
HATCHING_BL0
100
AcDbTrace
 62
253
  6
BYLAYER
 10
575.3546576711
 20
28.6614267598
 11
577.4562016136
 21
28.7002862453
 12
575.1751953621
 22
28.6005075147
 13
575.1751953621
 23
28.6005075147
  0
SOLID
  5
279
100
AcDbEntity
  8
HATCHING_BL0
100
AcDbTrace
 62
253
  6
BYLAYER
 10
575.1751953621
 20
28.6005075147
 11
577.4562016136
 21
28.7002862453
 12
574.9893168208
 22
28.563533974
 13
574.9893168208
 23
28.563533974
  0
SOLID
  5
27A
100
AcDbEntity
  8
HATCHING_BL0
100
AcDbTrace
 62
253
  6
BYLAYER
 10
574.9893168208
 20
28.563533974
 11
577.4562016136
 21
28.7002862453
 12
574.8002024808
 22
28.5511411202
 13
574.8002024808
 23
28.5511411202
  0
SOLID
  5
27B
100
AcDbEntity
  8
HATCHING_BL0
100
AcDbTrace
 62
253
  6
BYLAYER
 10
577.4562016136
 20
28.7002862453
 11
577.2672958526
 21
28.4175687948
 12
574.8002024808
 22
28.5511411202
 13
574.8002024808
 23
28.5511411202
  0
SOLID
  5
27C
100
AcDbEntity
  8
HATCHING_BL0
100
AcDbTrace
 62
253
  6
BYLAYER
 10
577.2672958526
 20
28.4175687948
 11
573.9053176006
 21
27.40057254
 12
574.8002024808
 22
28.5511411202
 13
574.8002024808
 23
28.5511411202
  0
SOLID
  5
27D
100
AcDbEntity
  8
HATCHING_BL0
100
AcDbTrace
 62
253
  6
BYLAYER
 10
573.9053176006
 20
27.40057254
 11
573.9053176006
 21
28.5511411202
 12
574.8002024808
 22
28.5511411202
 13
574.8002024808
 23
28.5511411202
  0
SOLID
  5
27E
100
AcDbEntity
  8
HATCHING_BL0
100
AcDbTrace
 62
253
  6
BYLAYER
 10
577.2672958526
 20
31.5824312052
 11
573.6922497719
 21
31.4488613388
 12
577.0431041743
 22
31.838072819
 13
577.0431041743
 23
31.838072819
  0
SOLID
  5
27F
100
AcDbEntity
  8
HATCHING_BL0
100
AcDbTrace
 62
253
  6
BYLAYER
 10
577.0431041743
 20
31.838072819
 11
573.6922497719
 21
31.4488613388
 12
576.7874625604
 22
32.0622644974
 13
576.7874625604
 23
32.0622644974
  0
SOLID
  5
280
100
AcDbEntity
  8
HATCHING_BL0
100
AcDbTrace
 62
253
  6
BYLAYER
 10
576.7874625604
 20
32.0622644974
 11
573.6922497719
 21
31.4488613388
 12
576.5047451099
 22
32.2511702584
 13
576.5047451099
 23
32.2511702584
  0
SOLID
  5
281
100
AcDbEntity
  8
HATCHING_BL0
100
AcDbTrace
 62
253
  6
BYLAYER
 10
576.5047451099
 20
32.2511702584
 11
573.6922497719
 21
31.4488613388
 12
576.1997891967
 22
32.4015578721
 13
576.1997891967
 23
32.4015578721
  0
SOLID
  5
282
100
AcDbEntity
  8
HATCHING_BL0
100
AcDbTrace
 62
253
  6
BYLAYER
 10
576.1997891967
 20
32.4015578721
 11
573.6922497719
 21
31.4488613388
 12
575.877812701
 22
32.5108541648
 13
575.877812701
 23
32.5108541648
  0
SOLID
  5
283
100
AcDbEntity
  8
HATCHING_BL0
100
AcDbTrace
 62
253
  6
BYLAYER
 10
575.877812701
 20
32.5108541648
 11
573.6922497719
 21
31.4488613388
 12
575.54432473
 22
32.5771890466
 13
575.54432473
 23
32.5771890466
  0
SOLID
  5
284
100
AcDbEntity
  8
HATCHING_BL0
100
AcDbTrace
 62
253
  6
BYLAYER
 10
575.54432473
 20
32.5771890466
 11
573.6922497719
 21
31.4488613388
 12
575.2050313552
 22
32.5994275657
 13
575.2050313552
 23
32.5994275657
  0
SOLID
  5
285
100
AcDbEntity
  8
HATCHING_BL0
100
AcDbTrace
 62
253
  6
BYLAYER
 10
575.2050313552
 20
32.5994275657
 11
573.6922497719
 21
31.4488613388
 12
572.1581614058
 22
32.5994275657
 13
572.1581614058
 23
32.5994275657
  0
SOLID
  5
286
100
AcDbEntity
  8
HATCHING_BL0
100
AcDbTrace
 62
253
  6
BYLAYER
 10
572.1581614058
 20
26.2073929717
 11
572.1581614058
 21
32.5994275657
 12
573.6922497719
 22
31.4488613388
 13
573.6922497719
 23
31.4488613388
  0
SOLID
  5
287
100
AcDbEntity
  8
HATCHING_BL0
100
AcDbTrace
 62
253
  6
BYLAYER
 10
573.6922497719
 20
31.4488613388
 11
573.6922497719
 21
26.2073929717
 12
572.1581614058
 22
26.2073929717
 13
572.1581614058
 23
26.2073929717
  0
SOLID
  5
288
100
AcDbEntity
  8
HATCHING_BL0
100
AcDbTrace
 62
253
  6
BYLAYER
 10
575.54432473
 20
27.4228109534
 11
573.9053176006
 21
27.4005721112
 12
575.877812701
 22
27.4891458352
 13
575.877812701
 23
27.4891458352
  0
SOLID
  5
289
100
AcDbEntity
  8
HATCHING_BL0
100
AcDbTrace
 62
253
  6
BYLAYER
 10
575.877812701
 20
27.4891458352
 11
573.9053176006
 21
27.4005721112
 12
576.1997891967
 22
27.5984421279
 13
576.1997891967
 23
27.5984421279
  0
SOLID
  5
28A
100
AcDbEntity
  8
HATCHING_BL0
100
AcDbTrace
 62
253
  6
BYLAYER
 10
576.1997891967
 20
27.5984421279
 11
573.9053176006
 21
27.4005721112
 12
576.5047451099
 22
27.7488297416
 13
576.5047451099
 23
27.7488297416
  0
SOLID
  5
28B
100
AcDbEntity
  8
HATCHING_BL0
100
AcDbTrace
 62
253
  6
BYLAYER
 10
576.5047451099
 20
27.7488297416
 11
573.9053176006
 21
27.4005721112
 12
576.7874625604
 22
27.9377355026
 13
576.7874625604
 23
27.9377355026
  0
SOLID
  5
28C
100
AcDbEntity
  8
HATCHING_BL0
100
AcDbTrace
 62
253
  6
BYLAYER
 10
576.7874625604
 20
27.9377355026
 11
573.9053176006
 21
27.4005721112
 12
577.0431041743
 22
28.161927181
 13
577.0431041743
 23
28.161927181
  0
SOLID
  5
28D
100
AcDbEntity
  8
HATCHING_BL0
100
AcDbTrace
 62
253
  6
BYLAYER
 10
573.9053176006
 20
27.4005721112
 11
577.2672958526
 21
28.4175687948
 12
577.0431041743
 22
28.161927181
 13
577.0431041743
 23
28.161927181
  0
SOLID
  5
28E
100
AcDbEntity
  8
HATCHING_BL0
100
AcDbTrace
 62
253
  6
BYLAYER
 10
575.54432473
 20
27.4228109534
 11
575.2050313552
 21
27.4005721112
 12
573.9053176006
 22
27.4005721112
 13
573.9053176006
 23
27.4005721112
  0
SOLID
  5
28F
100
AcDbEntity
  8
HATCHING_BL0
100
AcDbTrace
 62
253
  6
BYLAYER
 10
578.1240606075
 20
27.40057254
 11
578.1240606075
 21
32.599427454
 12
579.5729218422
 22
27.40057254
 13
579.5729218422
 23
32.599427454
  0
SOLID
  5
290
100
AcDbEntity
  8
HATCHING_BL0
100
AcDbTrace
 62
253
  6
BYLAYER
 10
579.9990574994
 20
27.40057254
 11
579.9990574994
 21
34.218742734
 12
581.4905322999
 22
27.40057254
 13
581.4905322999
 23
34.218742734
  0
SOLID
  5
291
100
AcDbEntity
  8
HATCHING_BL0
100
AcDbTrace
 62
253
  6
BYLAYER
 10
587.1581365415
 20
28.5085251
 11
587.1581365415
 21
27.40057254
 12
583.9195055463
 22
28.5085251
 13
581.8740543914
 23
27.40057254
  0
LINE
  5
292
100
AcDbEntity
  8
HATCHING_BL0
100
AcDbLine
 62
253
  6
BYLAYER
 10
572.1581614058
 20
26.2073926504
 11
573.6922497719
 21
26.2073926504
  0
LINE
  5
293
100
AcDbEntity
  8
HATCHING_BL0
100
AcDbLine
 62
253
  6
BYLAYER
 10
573.9053176006
 20
27.4005724907
 11
575.2050313552
 21
27.4005724907
  0
LINE
  5
294
100
AcDbEntity
  8
HATCHING_BL0
100
AcDbLine
 62
253
  6
BYLAYER
 10
578.1240606075
 20
27.4005724907
 11
579.5729218422
 21
27.4005724907
  0
LINE
  5
295
100
AcDbEntity
  8
HATCHING_BL0
100
AcDbLine
 62
253
  6
BYLAYER
 10
579.9990574994
 20
27.4005724907
 11
581.4905322999
 21
27.4005724907
  0
LINE
  5
296
100
AcDbEntity
  8
HATCHING_BL0
100
AcDbLine
 62
253
  6
BYLAYER
 10
581.8740543914
 20
27.4005724907
 11
587.1581365415
 21
27.4005724907
  0
LINE
  5
297
100
AcDbEntity
  8
HATCHING_BL0
100
AcDbLine
 62
253
  6
BYLAYER
 10
587.1581365415
 20
28.5085251996
 11
583.9195055463
 21
28.5085251996
  0
LINE
  5
298
100
AcDbEntity
  8
HATCHING_BL0
100
AcDbLine
 62
253
  6
BYLAYER
 10
574.8002024808
 20
28.5511387653
 11
573.9053176006
 21
28.5511387653
  0
LINE
  5
299
100
AcDbEntity
  8
HATCHING_BL0
100
AcDbLine
 62
253
  6
BYLAYER
 10
573.6922497719
 20
31.4488612347
 11
574.8002024808
 21
31.4488612347
  0
LINE
  5
29A
100
AcDbEntity
  8
HATCHING_BL0
100
AcDbLine
 62
253
  6
BYLAYER
 10
581.8740543914
 20
31.4914748004
 11
585.1126853866
 21
31.4914748004
  0
LINE
  5
29B
100
AcDbEntity
  8
HATCHING_BL0
100
AcDbLine
 62
253
  6
BYLAYER
 10
587.1581365415
 20
32.5994275093
 11
581.8740543914
 21
32.5994275093
  0
LINE
  5
29C
100
AcDbEntity
  8
HATCHING_BL0
100
AcDbLine
 62
253
  6
BYLAYER
 10
579.5729218422
 20
32.5994275093
 11
578.1240606075
 21
32.5994275093
  0
LINE
  5
29D
100
AcDbEntity
  8
HATCHING_BL0
100
AcDbLine
 62
253
  6
BYLAYER
 10
575.2050313552
 20
32.5994275093
 11
572.1581614058
 21
32.5994275093
  0
LINE
  5
29E
100
AcDbEntity
  8
HATCHING_BL0
100
AcDbLine
 62
253
  6
BYLAYER
 10
581.4905322999
 20
34.2187430069
 11
579.9990574994
 21
34.2187430069
  0
LINE
  5
29F
100
AcDbEntity
  8
HATCHING_BL0
100
AcDbLine
 62
253
  6
BYLAYER
 10
572.1581614058
 20
32.5994275093
 11
572.1581614058
 21
26.2073926504
  0
LINE
  5
2A0
100
AcDbEntity
  8
HATCHING_BL0
100
AcDbLine
 62
253
  6
BYLAYER
 10
573.6922497719
 20
26.2073926504
 11
573.6922497719
 21
31.4488612347
  0
LINE
  5
2A1
100
AcDbEntity
  8
HATCHING_BL0
100
AcDbLine
 62
253
  6
BYLAYER
 10
573.9053176006
 20
28.5511387653
 11
573.9053176006
 21
27.4005724907
  0
LINE
  5
2A2
100
AcDbEntity
  8
HATCHING_BL0
100
AcDbLine
 62
253
  6
BYLAYER
 10
578.1240606075
 20
32.5994275093
 11
578.1240606075
 21
27.4005724907
  0
LINE
  5
2A3
100
AcDbEntity
  8
HATCHING_BL0
100
AcDbLine
 62
253
  6
BYLAYER
 10
579.5729218422
 20
27.4005724907
 11
579.5729218422
 21
32.5994275093
  0
LINE
  5
2A4
100
AcDbEntity
  8
HATCHING_BL0
100
AcDbLine
 62
253
  6
BYLAYER
 10
579.9990574994
 20
34.2187430069
 11
579.9990574994
 21
27.4005724907
  0
LINE
  5
2A5
100
AcDbEntity
  8
HATCHING_BL0
100
AcDbLine
 62
253
  6
BYLAYER
 10
581.4905322999
 20
27.4005724907
 11
581.4905322999
 21
34.2187430069
  0
LINE
  5
2A6
100
AcDbEntity
  8
HATCHING_BL0
100
AcDbLine
 62
253
  6
BYLAYER
 10
581.8740543914
 20
32.5994275093
 11
581.8740543914
 21
31.4914748004
  0
LINE
  5
2A7
100
AcDbEntity
  8
HATCHING_BL0
100
AcDbLine
 62
253
  6
BYLAYER
 10
581.8740543914
 20
28.5085251996
 11
581.8740543914
 21
27.4005724907
  0
LINE
  5
2A8
100
AcDbEntity
  8
HATCHING_BL0
100
AcDbLine
 62
253
  6
BYLAYER
 10
587.1581365415
 20
27.4005724907
 11
587.1581365415
 21
28.5085251996
  0
LINE
  5
2A9
100
AcDbEntity
  8
HATCHING_BL0
100
AcDbLine
 62
253
  6
BYLAYER
 10
587.1581365415
 20
31.4914748004
 11
587.1581365415
 21
32.5994275093
  0
LINE
  5
2AA
100
AcDbEntity
  8
HATCHING_BL0
100
AcDbLine
 62
253
  6
BYLAYER
 10
585.1126853866
 20
31.4914748004
 11
581.8740543914
 21
28.5085251996
  0
LINE
  5
2AB
100
AcDbEntity
  8
HATCHING_BL0
100
AcDbLine
 62
253
  6
BYLAYER
 10
583.9195055463
 20
28.5085251996
 11
587.1581365415
 21
31.4914748004
  0
ARC
  5
2AC
100
AcDbEntity
  8
HATCHING_BL0
100
AcDbCircle
 62
253
  6
BYLAYER
 10
575.2050313552
 20
30.0
 40
2.5994275093
100
AcDbArc
 50
270.0
 51
90.0
  0
ARC
  5
2AD
100
AcDbEntity
  8
HATCHING_BL0
100
AcDbCircle
 62
253
  6
BYLAYER
 10
574.8002024808
 20
30.0
 40
1.4488612347
100
AcDbArc
 50
270.0
 51
90.0
  0
CIRCLE
  5
2AE
100
AcDbEntity
  8
HATCHING_BL0
100
AcDbCircle
 62
253
  6
BYLAYER
 10
578.8484912248
 20
33.7073802182
 40
0.9
  0
ENDBLK
  5
2AF
100
AcDbEntity
  8
0
  6
BYBLOCK
 62
0
100
AcDbBlockEnd
  0
BLOCK
  5
2B0
100
AcDbEntity
  8
TABLE_BL1
100
AcDbBlockBegin
  2
TABLE_BL1
 70
64
 10
496.5
 20
30.0
  3
TABLE_BL1
  1

  0
LINE
  5
2B1
100
AcDbEntity
  8
TABLE_BL1
100
AcDbLine
 62
3
  6
BYLAYER
 10
404.0
 20
55.0
 11
589.0
 21
55.0
  0
LINE
  5
2B2
100
AcDbEntity
  8
TABLE_BL1
100
AcDbLine
 62
3
  6
BYLAYER
 10
404.0
 20
55.0
 11
404.0
 21
5.0
  0
LINE
  5
2B3
100
AcDbEntity
  8
TABLE_BL1
100
AcDbLine
 62
3
  6
BYLAYER
 10
404.0
 20
50.0
 11
484.0
 21
50.0
  0
LINE
  5
2B4
100
AcDbEntity
  8
TABLE_BL1
100
AcDbLine
 62
3
  6
BYLAYER
 10
404.0
 20
45.0
 11
589.0
 21
45.0
  0
LINE
  5
2B5
100
AcDbEntity
  8
TABLE_BL1
100
AcDbLine
 62
3
  6
BYLAYER
 10
454.0
 20
40.0
 11
589.0
 21
40.0
  0
LINE
  5
2B6
100
AcDbEntity
  8
TABLE_BL1
100
AcDbLine
 62
3
  6
BYLAYER
 10
404.0
 20
35.0
 11
499.0
 21
35.0
  0
LINE
  5
2B7
100
AcDbEntity
  8
TABLE_BL1
100
AcDbLine
 62
3
  6
BYLAYER
 10
454.0
 20
30.0
 11
499.0
 21
30.0
  0
LINE
  5
2B8
100
AcDbEntity
  8
TABLE_BL1
100
AcDbLine
 62
3
  6
BYLAYER
 10
454.0
 20
25.0
 11
499.0
 21
25.0
  0
LINE
  5
2B9
100
AcDbEntity
  8
TABLE_BL1
100
AcDbLine
 62
3
  6
BYLAYER
 10
404.0
 20
20.0
 11
589.0
 21
20.0
  0
LINE
  5
2BA
100
AcDbEntity
  8
TABLE_BL1
100
AcDbLine
 62
3
  6
BYLAYER
 10
499.0
 20
12.5
 11
589.0
 21
12.5
  0
LINE
  5
2BB
100
AcDbEntity
  8
TABLE_BL1
100
AcDbLine
 62
3
  6
BYLAYER
 10
404.0
 20
5.0
 11
589.0
 21
5.0
  0
LINE
  5
2BC
100
AcDbEntity
  8
TABLE_BL1
100
AcDbLine
 62
3
  6
BYLAYER
 10
416.0
 20
55.0
 11
416.0
 21
45.0
  0
LINE
  5
2BD
100
AcDbEntity
  8
TABLE_BL1
100
AcDbLine
 62
3
  6
BYLAYER
 10
426.5
 20
45.0
 11
426.5
 21
35.0
  0
LINE
  5
2BE
100
AcDbEntity
  8
TABLE_BL1
100
AcDbLine
 62
3
  6
BYLAYER
 10
439.0
 20
55.0
 11
439.0
 21
45.0
  0
LINE
  5
2BF
100
AcDbEntity
  8
TABLE_BL1
100
AcDbLine
 62
3
  6
BYLAYER
 10
454.0
 20
55.0
 11
454.0
 21
5.0
  0
LINE
  5
2C0
100
AcDbEntity
  8
TABLE_BL1
100
AcDbLine
 62
3
  6
BYLAYER
 10
469.0
 20
55.0
 11
469.0
 21
25.0
  0
LINE
  5
2C1
100
AcDbEntity
  8
TABLE_BL1
100
AcDbLine
 62
3
  6
BYLAYER
 10
484.0
 20
55.0
 11
484.0
 21
25.0
  0
LINE
  5
2C2
100
AcDbEntity
  8
TABLE_BL1
100
AcDbLine
 62
3
  6
BYLAYER
 10
499.0
 20
45.0
 11
499.0
 21
5.0
  0
LINE
  5
2C3
100
AcDbEntity
  8
TABLE_BL1
100
AcDbLine
 62
3
  6
BYLAYER
 10
544.0
 20
45.0
 11
544.0
 21
40.0
  0
LINE
  5
2C4
100
AcDbEntity
  8
TABLE_BL1
100
AcDbLine
 62
3
  6
BYLAYER
 10
569.0
 20
40.0
 11
569.0
 21
5.0
  0
LINE
  5
2C5
100
AcDbEntity
  8
TABLE_BL1
100
AcDbLine
 62
3
  6
BYLAYER
 10
589.0
 20
55.0
 11
589.0
 21
5.0
  0
MTEXT
  5
2C6
100
AcDbEntity
  8
TABLE_BL1
100
AcDbMText
 62
2
  6
BYLAYER
  7
STANDARD
 71
1
 72
1
 10
405.4
 20
53.25
 30
0.0
 11
1.0
 21
0.0
 31
0.0
  1
A
 40
2.1
 41
1.8
  0
MTEXT
  5
2C7
100
AcDbEntity
  8
TABLE_BL1
100
AcDbMText
 62
2
  6
BYLAYER
  7
STANDARD
 71
1
 72
1
 10
417.4
 20
53.25
 30
0.0
 11
1.0
 21
0.0
 31
0.0
  1
20110138
 40
2.1
 41
11.7
  0
MTEXT
  5
2C8
100
AcDbEntity
  8
TABLE_BL1
100
AcDbMText
 62
2
  6
BYLAYER
  7
STANDARD
 71
2
 72
1
 10
446.5
 20
53.25
 30
0.0
 11
1.0
 21
0.0
 31
0.0
  1
05.05.2011
 40
1.9
 41
13.0285714286
  0
MTEXT
  5
2C9
100
AcDbEntity
  8
TABLE_BL1
100
AcDbMText
 62
2
  6
BYLAYER
  7
STANDARD
 71
2
 72
1
 10
461.5
 20
53.25
 30
0.0
 11
1.0
 21
0.0
 31
0.0
  1
EP-MK
 40
2.1
 41
8.5
  0
MTEXT
  5
2CA
100
AcDbEntity
  8
TABLE_BL1
100
AcDbMText
 62
2
  6
BYLAYER
  7
STANDARD
 71
2
 72
1
 10
476.5
 20
53.25
 30
0.0
 11
1.0
 21
0.0
 31
0.0
  1
EP-MK
 40
2.1
 41
8.5
  0
MTEXT
  5
2CB
100
AcDbEntity
  8
TABLE_BL1
100
AcDbMText
 62
2
  6
BYLAYER
  7
STANDARD
 71
1
 72
1
 10
485.4
 20
53.25
 30
0.0
 11
1.0
 21
0.0
 31
0.0
  1
Neue Zeichnung\PNew drawing.
 40
2.5
 41
24.880952381
  0
MTEXT
  5
2CC
100
AcDbEntity
  8
TABLE_BL1
100
AcDbMText
 62
2
  6
BYLAYER
  7
STANDARD
 71
1
 72
1
 10
500.4
 20
43.25
 30
0.0
 11
1.0
 21
0.0
 31
0.0
  1
MODEL: 2008425
 40
2.5
 41
26.1904761905
  0
MTEXT
  5
2CD
100
AcDbEntity
  8
TABLE_BL1
100
AcDbMText
 62
2
  6
BYLAYER
  7
STANDARD
 71
1
 72
1
 10
545.4
 20
43.25
 30
0.0
 11
1.0
 21
0.0
 31
0.0
  1
DRW: 2008426
 40
2.5
 41
24.2261904762
  0
MTEXT
  5
2CE
100
AcDbEntity
  8
TABLE_BL1
100
AcDbMText
 62
2
  6
BYLAYER
  7
STANDARD
 71
2
 72
1
 10
476.5
 20
38.25
 30
0.0
 11
1.0
 21
0.0
 31
0.0
  1
01.02.2011
 40
1.9
 41
12.8928571429
  0
MTEXT
  5
2CF
100
AcDbEntity
  8
TABLE_BL1
100
AcDbMText
 62
2
  6
BYLAYER
  7
STANDARD
 71
2
 72
1
 10
491.5
 20
38.25
 30
0.0
 11
1.0
 21
0.0
 31
0.0
  1
EP-MK
 40
2.1
 41
8.5
  0
MTEXT
  5
2D0
100
AcDbEntity
  8
TABLE_BL1
100
AcDbMText
 62
2
  6
BYLAYER
  7
STANDARD
 71
1
 72
1
 10
500.4
 20
36.0
 30
0.0
 11
1.0
 21
0.0
 31
0.0
  1
Internet Dokument\PInternet document\PS99/22,5
 40
3.0
 41
36.1428571429
  0
MTEXT
  5
2D1
100
AcDbEntity
  8
TABLE_BL1
100
AcDbMText
 62
2
  6
BYLAYER
  7
STANDARD
 71
1
 72
1
 10
405.4
 20
33.25
 30
0.0
 11
1.0
 21
0.0
 31
0.0
  1
 \P-\P-
 40
2.15
 41
1.6892857143
  0
MTEXT
  5
2D2
100
AcDbEntity
  8
TABLE_BL1
100
AcDbMText
 62
2
  6
BYLAYER
  7
STANDARD
 71
2
 72
1
 10
476.5
 20
33.25
 30
0.0
 11
1.0
 21
0.0
 31
0.0
  1
01.02.2011
 40
1.9
 41
12.8928571429
  0
MTEXT
  5
2D3
100
AcDbEntity
  8
TABLE_BL1
100
AcDbMText
 62
2
  6
BYLAYER
  7
STANDARD
 71
2
 72
1
 10
491.5
 20
33.25
 30
0.0
 11
1.0
 21
0.0
 31
0.0
  1
EP-MK
 40
2.1
 41
8.5
  0
MTEXT
  5
2D4
100
AcDbEntity
  8
TABLE_BL1
100
AcDbMText
 62
2
  6
BYLAYER
  7
STANDARD
 71
2
 72
1
 10
476.5
 20
28.25
 30
0.0
 11
1.0
 21
0.0
 31
0.0
  1
-
 40
1.9
 41
1.3571428571
  0
MTEXT
  5
2D5
100
AcDbEntity
  8
TABLE_BL1
100
AcDbMText
 62
2
  6
BYLAYER
  7
STANDARD
 71
2
 72
1
 10
491.5
 20
28.25
 30
0.0
 11
1.0
 21
0.0
 31
0.0
  1
-
 40
2.1
 41
1.9
  0
MTEXT
  5
2D6
100
AcDbEntity
  8
TABLE_BL1
100
AcDbMText
 62
2
  6
BYLAYER
  7
STANDARD
 71
1
 72
1
 10
405.4
 20
18.25
 30
0.0
 11
1.0
 21
0.0
 31
0.0
  1
 \P-\P-
 40
2.15
 41
1.6892857143
  0
MTEXT
  5
2D7
100
AcDbEntity
  8
TABLE_BL1
100
AcDbMText
 62
2
  6
BYLAYER
  7
STANDARD
 71
2
 72
1
 10
534.0
 20
18.0
 30
0.0
 11
1.0
 21
0.0
 31
0.0
  1
2008426
 40
3.5
 41
19.25
  0
MTEXT
  5
2D8
100
AcDbEntity
  8
TABLE_BL1
100
AcDbMText
 62
2
  6
BYLAYER
  7
STANDARD
 71
2
 72
1
 10
534.0
 20
10.75
 30
0.0
 11
1.0
 21
0.0
 31
0.0
  1
-
 40
4.0
 41
2.8571428571
  0
ENDBLK
  5
2D9
100
AcDbEntity
  8
0
  6
BYBLOCK
 62
0
100
AcDbBlockEnd
  0
BLOCK
  5
2DA
100
AcDbEntity
  8
0
100
AcDbBlockBegin
  2
_FILLED
 70
64
 10
0.0
 20
0.0
  3
_FILLED
  1

  0
SOLID
  5
2DB
100
AcDbEntity
  8
0
  6
BYBLOCK
 62
0
100
AcDbTrace
 10
0.0
 20
0.0
 11
-1.0
 21
0.1428571429
 12
-1.0
 22
-0.1428571429
 13
-1.0
 23
-0.1428571429
  0
ENDBLK
  5
2DC
100
AcDbEntity
  8
0
  6
BYBLOCK
 62
0
100
AcDbBlockEnd
  0
BLOCK
  5
2DD
100
AcDbEntity
  8
0
100
AcDbBlockBegin
 62
3
  6
BYLAYER
  2
*D0
 70
65
 10
0.0
 20
0.0
  3
*D0
  1

  0
MTEXT
  5
2DE
100
AcDbEntity
  8
0
100
AcDbMText
 62
2
  6
BYLAYER
  7
STANDARD
 71
2
 72
1
 10
206.5215468315
 20
261.8155783582
 30
0.0
 11
1.0
 21
0.0
 31
0.0
  1
22.5
 40
3.5
 41
10.0
  0
LINE
  5
2DF
100
AcDbEntity
  8
0
100
AcDbLine
 62
3
  6
BYLAYER
 10
195.2715468315
 20
249.8405890462
 11
195.2715468315
 21
258.4405783582
  0
LINE
  5
2E0
100
AcDbEntity
  8
0
100
AcDbLine
 62
3
  6
BYLAYER
 10
217.7715468315
 20
249.8405890462
 11
217.7715468315
 21
258.4405783582
  0
LINE
  5
2E1
100
AcDbEntity
  8
0
100
AcDbLine
 62
3
  6
BYLAYER
 10
195.2715468315
 20
257.4405783582
 11
188.2715468315
 21
257.4405783582
  0
LINE
  5
2E2
100
AcDbEntity
  8
0
100
AcDbLine
 62
3
  6
BYLAYER
 10
188.2715468315
 20
257.4405783582
 11
206.5215468315
 21
257.4405783582
  0
LINE
  5
2E3
100
AcDbEntity
  8
0
100
AcDbLine
 62
3
  6
BYLAYER
 10
217.7715468315
 20
257.4405783582
 11
224.7715468315
 21
257.4405783582
  0
LINE
  5
2E4
100
AcDbEntity
  8
0
100
AcDbLine
 62
3
  6
BYLAYER
 10
224.7715468315
 20
257.4405783582
 11
206.5215468315
 21
257.4405783582
  0
INSERT
  5
2E5
100
AcDbEntity
  8
0
100
AcDbBlockReference
 62
3
  6
BYLAYER
  2
_FILLED
 10
195.2715468315
 20
257.4405783582
 41
3.5
 42
3.5
 43
3.5
  0
INSERT
  5
2E6
100
AcDbEntity
  8
0
100
AcDbBlockReference
 62
3
  6
BYLAYER
  2
_FILLED
 10
217.7715468315
 20
257.4405783582
 41
3.5
 42
3.5
 43
3.5
 50
180.0
  0
ENDBLK
  5
2E7
100
AcDbEntity
  8
0
  6
BYBLOCK
 62
0
100
AcDbBlockEnd
  0
BLOCK
  5
2E8
100
AcDbEntity
  8
0
100
AcDbBlockBegin
 62
3
  6
BYLAYER
  2
*D1
 70
65
 10
0.0
 20
0.0
  3
*D1
  1

  0
MTEXT
  5
2E9
100
AcDbEntity
  8
0
100
AcDbMText
 62
2
  6
BYLAYER
  7
STANDARD
 71
2
 72
1
 10
410.5199626866
 20
206.3405890462
 30
0.0
 11
0.0
 21
1.0
 31
0.0
  1
87
 40
3.5
 41
5.5
  0
LINE
  5
2EA
100
AcDbEntity
  8
0
100
AcDbLine
 62
3
  6
BYLAYER
 10
360.8348016637
 20
249.8405890462
 11
415.8949626866
 21
249.8405890462
  0
LINE
  5
2EB
100
AcDbEntity
  8
0
100
AcDbLine
 62
3
  6
BYLAYER
 10
360.8346498584
 20
162.8405890462
 11
415.8949626866
 21
162.8405890462
  0
LINE
  5
2EC
100
AcDbEntity
  8
0
100
AcDbLine
 62
3
  6
BYLAYER
 10
414.8949626866
 20
249.8405890462
 11
414.8949626866
 21
206.3405890462
  0
LINE
  5
2ED
100
AcDbEntity
  8
0
100
AcDbLine
 62
3
  6
BYLAYER
 10
414.8949626866
 20
162.8405890462
 11
414.8949626866
 21
206.3405890462
  0
INSERT
  5
2EE
100
AcDbEntity
  8
0
100
AcDbBlockReference
 62
3
  6
BYLAYER
  2
_FILLED
 10
414.8949626866
 20
249.8405890462
 41
3.5
 42
3.5
 43
3.5
 50
90.0
  0
INSERT
  5
2EF
100
AcDbEntity
  8
0
100
AcDbBlockReference
 62
3
  6
BYLAYER
  2
_FILLED
 10
414.8949626866
 20
162.8405890462
 41
3.5
 42
3.5
 43
3.5
 50
270.0
  0
ENDBLK
  5
2F0
100
AcDbEntity
  8
0
  6
BYBLOCK
 62
0
100
AcDbBlockEnd
  0
BLOCK
  5
2F1
100
AcDbEntity
  8
0
100
AcDbBlockBegin
 62
3
  6
BYLAYER
  2
*D2
 70
65
 10
0.0
 20
0.0
  3
*D2
  1

  0
MTEXT
  5
2F2
100
AcDbEntity
  8
0
100
AcDbMText
 62
2
  6
BYLAYER
  7
STANDARD
 71
2
 72
1
 10
329.3709967001
 20
263.034608209
 30
0.0
 11
1.0
 21
0.0
 31
0.0
  1
115.4
 40
3.5
 41
11.25
  0
LINE
  5
2F3
100
AcDbEntity
  8
0
100
AcDbLine
 62
3
  6
BYLAYER
 10
271.6709435417
 20
224.0405890462
 11
271.6709435417
 21
259.659608209
  0
LINE
  5
2F4
100
AcDbEntity
  8
0
100
AcDbLine
 62
3
  6
BYLAYER
 10
387.0710498584
 20
234.1077334787
 11
387.0710498584
 21
259.659608209
  0
LINE
  5
2F5
100
AcDbEntity
  8
0
100
AcDbLine
 62
3
  6
BYLAYER
 10
271.6709435417
 20
258.659608209
 11
329.3709967001
 21
258.659608209
  0
LINE
  5
2F6
100
AcDbEntity
  8
0
100
AcDbLine
 62
3
  6
BYLAYER
 10
387.0710498584
 20
258.659608209
 11
329.3709967001
 21
258.659608209
  0
INSERT
  5
2F7
100
AcDbEntity
  8
0
100
AcDbBlockReference
 62
3
  6
BYLAYER
  2
_FILLED
 10
271.6709435417
 20
258.659608209
 41
3.5
 42
3.5
 43
3.5
 50
180.0
  0
INSERT
  5
2F8
100
AcDbEntity
  8
0
100
AcDbBlockReference
 62
3
  6
BYLAYER
  2
_FILLED
 10
387.0710498584
 20
258.659608209
 41
3.5
 42
3.5
 43
3.5
  0
ENDBLK
  5
2F9
100
AcDbEntity
  8
0
  6
BYBLOCK
 62
0
100
AcDbBlockEnd
  0
BLOCK
  5
2FA
100
AcDbEntity
  8
0
100
AcDbBlockBegin
 62
3
  6
BYLAYER
  2
*D3
 70
65
 10
0.0
 20
0.0
  3
*D3
  1

  0
MTEXT
  5
2FB
100
AcDbEntity
  8
0
100
AcDbMText
 62
2
  6
BYLAYER
  7
STANDARD
 71
2
 72
1
 10
326.7709967001
 20
272.0111007463
 30
0.0
 11
1.0
 21
0.0
 31
0.0
  1
120.6
 40
3.5
 41
12.25
  0
LINE
  5
2FC
100
AcDbEntity
  8
0
100
AcDbLine
 62
3
  6
BYLAYER
 10
266.4709435417
 20
234.3405890462
 11
266.4709435417
 21
268.6361007463
  0
LINE
  5
2FD
100
AcDbEntity
  8
0
100
AcDbLine
 62
3
  6
BYLAYER
 10
387.0710498584
 20
234.1077334787
 11
387.0710498584
 21
268.6361007463
  0
LINE
  5
2FE
100
AcDbEntity
  8
0
100
AcDbLine
 62
3
  6
BYLAYER
 10
266.4709435417
 20
267.6361007463
 11
326.7709967001
 21
267.6361007463
  0
LINE
  5
2FF
100
AcDbEntity
  8
0
100
AcDbLine
 62
3
  6
BYLAYER
 10
387.0710498584
 20
267.6361007463
 11
326.7709967001
 21
267.6361007463
  0
INSERT
  5
300
100
AcDbEntity
  8
0
100
AcDbBlockReference
 62
3
  6
BYLAYER
  2
_FILLED
 10
266.4709435417
 20
267.6361007463
 41
3.5
 42
3.5
 43
3.5
 50
180.0
  0
INSERT
  5
301
100
AcDbEntity
  8
0
100
AcDbBlockReference
 62
3
  6
BYLAYER
  2
_FILLED
 10
387.0710498584
 20
267.6361007463
 41
3.5
 42
3.5
 43
3.5
  0
ENDBLK
  5
302
100
AcDbEntity
  8
0
  6
BYBLOCK
 62
0
100
AcDbBlockEnd
  0
ENDSEC
  0
SECTION
  2
ENTITIES
  0
MTEXT
  5
303
100
AcDbEntity
  8
0
100
AcDbMText
 62
2
  6
BYLAYER
  7
STANDARD
 71
1
 72
1
 10
335.375
 20
9.5
 30
0.0
 11
1.0
 21
0.0
 31
0.0
  1
5
 40
4.0
 41
2.8571428571
  0
MTEXT
  5
304
100
AcDbEntity
  8
0
100
AcDbMText
 62
2
  6
BYLAYER
  7
STANDARD
 71
1
 72
1
 10
480.0
 20
414.5
 30
0.0
 11
1.0
 21
0.0
 31
0.0
  1
7
 40
4.0
 41
3.1428571429
  0
MTEXT
  5
305
100
AcDbEntity
  8
0
100
AcDbMText
 62
2
  6
BYLAYER
  7
STANDARD
 71
1
 72
1
 10
552.5
 20
414.5
 30
0.0
 11
1.0
 21
0.0
 31
0.0
  1
8
 40
4.0
 41
3.1428571429
  0
MTEXT
  5
306
100
AcDbEntity
  8
0
100
AcDbMText
 62
2
  6
BYLAYER
  7
STANDARD
 71
1
 72
1
 10
407.5
 20
414.5
 30
0.0
 11
1.0
 21
0.0
 31
0.0
  1
6
 40
4.0
 41
3.1428571429
  0
MTEXT
  5
307
100
AcDbEntity
  8
0
100
AcDbMText
 62
2
  6
BYLAYER
  7
STANDARD
 71
1
 72
1
 10
335.0
 20
414.5
 30
0.0
 11
1.0
 21
0.0
 31
0.0
  1
5
 40
4.0
 41
2.8571428571
  0
MTEXT
  5
308
100
AcDbEntity
  8
0
100
AcDbMText
 62
2
  6
BYLAYER
  7
STANDARD
 71
1
 72
1
 10
45.5
 20
414.5
 30
0.0
 11
1.0
 21
0.0
 31
0.0
  1
1
 40
4.0
 41
2.2857142857
  0
MTEXT
  5
309
100
AcDbEntity
  8
0
100
AcDbMText
 62
2
  6
BYLAYER
  7
STANDARD
 71
1
 72
1
 10
117.5
 20
414.5
 30
0.0
 11
1.0
 21
0.0
 31
0.0
  1
2
 40
4.0
 41
3.1428571429
  0
MTEXT
  5
30A
100
AcDbEntity
  8
0
100
AcDbMText
 62
2
  6
BYLAYER
  7
STANDARD
 71
1
 72
1
 10
190.5
 20
414.5
 30
0.0
 11
1.0
 21
0.0
 31
0.0
  1
3
 40
4.0
 41
2.8571428571
  0
MTEXT
  5
30B
100
AcDbEntity
  8
0
100
AcDbMText
 62
2
  6
BYLAYER
  7
STANDARD
 71
1
 72
1
 10
263.0
 20
414.5
 30
0.0
 11
1.0
 21
0.0
 31
0.0
  1
4
 40
4.0
 41
3.1428571429
  0
MTEXT
  5
30C
100
AcDbEntity
  8
0
100
AcDbMText
 62
2
  6
BYLAYER
  7
STANDARD
 71
1
 72
1
 10
585.0
 20
113.0
 30
0.0
 11
1.0
 21
0.0
 31
0.0
  1
E
 40
4.0
 41
2.8571428571
  0
MTEXT
  5
30D
100
AcDbEntity
  8
0
100
AcDbMText
 62
2
  6
BYLAYER
  7
STANDARD
 71
1
 72
1
 10
585.0
 20
180.0
 30
0.0
 11
1.0
 21
0.0
 31
0.0
  1
D
 40
4.0
 41
3.619047619
  0
MTEXT
  5
30E
100
AcDbEntity
  8
0
100
AcDbMText
 62
2
  6
BYLAYER
  7
STANDARD
 71
1
 72
1
 10
585.0
 20
247.0
 30
0.0
 11
1.0
 21
0.0
 31
0.0
  1
C
 40
4.0
 41
3.3333333333
  0
MTEXT
  5
30F
100
AcDbEntity
  8
0
100
AcDbMText
 62
2
  6
BYLAYER
  7
STANDARD
 71
1
 72
1
 10
585.0
 20
314.0
 30
0.0
 11
1.0
 21
0.0
 31
0.0
  1
B
 40
4.0
 41
3.1428571429
  0
MTEXT
  5
310
100
AcDbEntity
  8
0
100
AcDbMText
 62
2
  6
BYLAYER
  7
STANDARD
 71
1
 72
1
 10
585.0
 20
380.0
 30
0.0
 11
1.0
 21
0.0
 31
0.0
  1
A
 40
4.0
 41
3.4285714286
  0
MTEXT
  5
311
100
AcDbEntity
  8
0
100
AcDbMText
 62
2
  6
BYLAYER
  7
STANDARD
 71
1
 72
1
 10
263.0
 20
9.5
 30
0.0
 11
1.0
 21
0.0
 31
0.0
  1
4
 40
4.0
 41
3.1428571429
  0
MTEXT
  5
312
100
AcDbEntity
  8
0
100
AcDbMText
 62
2
  6
BYLAYER
  7
STANDARD
 71
1
 72
1
 10
190.5
 20
9.5
 30
0.0
 11
1.0
 21
0.0
 31
0.0
  1
3
 40
4.0
 41
2.8571428571
  0
MTEXT
  5
313
100
AcDbEntity
  8
0
100
AcDbMText
 62
2
  6
BYLAYER
  7
STANDARD
 71
1
 72
1
 10
117.5
 20
9.5
 30
0.0
 11
1.0
 21
0.0
 31
0.0
  1
2
 40
4.0
 41
3.1428571429
  0
MTEXT
  5
314
100
AcDbEntity
  8
0
100
AcDbMText
 62
2
  6
BYLAYER
  7
STANDARD
 71
1
 72
1
 10
45.5
 20
9.5
 30
0.0
 11
1.0
 21
0.0
 31
0.0
  1
1
 40
4.0
 41
2.2857142857
  0
MTEXT
  5
315
100
AcDbEntity
  8
0
100
AcDbMText
 62
2
  6
BYLAYER
  7
STANDARD
 71
1
 72
1
 10
6.0
 20
380.0
 30
0.0
 11
1.0
 21
0.0
 31
0.0
  1
A
 40
4.0
 41
3.4285714286
  0
MTEXT
  5
316
100
AcDbEntity
  8
0
100
AcDbMText
 62
2
  6
BYLAYER
  7
STANDARD
 71
1
 72
1
 10
6.0
 20
314.0
 30
0.0
 11
1.0
 21
0.0
 31
0.0
  1
B
 40
4.0
 41
3.1428571429
  0
MTEXT
  5
317
100
AcDbEntity
  8
0
100
AcDbMText
 62
2
  6
BYLAYER
  7
STANDARD
 71
1
 72
1
 10
6.0
 20
247.0
 30
0.0
 11
1.0
 21
0.0
 31
0.0
  1
C
 40
4.0
 41
3.3333333333
  0
MTEXT
  5
318
100
AcDbEntity
  8
0
100
AcDbMText
 62
2
  6
BYLAYER
  7
STANDARD
 71
1
 72
1
 10
6.0
 20
180.0
 30
0.0
 11
1.0
 21
0.0
 31
0.0
  1
D
 40
4.0
 41
3.619047619
  0
MTEXT
  5
319
100
AcDbEntity
  8
0
100
AcDbMText
 62
2
  6
BYLAYER
  7
STANDARD
 71
1
 72
1
 10
6.0
 20
113.0
 30
0.0
 11
1.0
 21
0.0
 31
0.0
  1
E
 40
4.0
 41
2.8571428571
  0
MTEXT
  5
31A
100
AcDbEntity
  8
0
100
AcDbMText
 62
2
  6
BYLAYER
  7
STANDARD
 71
1
 72
1
 10
6.0
 20
47.0
 30
0.0
 11
1.0
 21
0.0
 31
0.0
  1
F
 40
4.0
 41
2.8571428571
  0
MTEXT
  5
31B
100
AcDbEntity
  8
0
100
AcDbMText
 62
2
  6
BYLAYER
  7
STANDARD
 71
1
 72
1
 10
404.88
 20
19.08
 30
0.0
 11
1.0
 21
0.0
 31
0.0
  1
Surface
 40
2.0
 41
9.5714285714
  0
MTEXT
  5
31C
100
AcDbEntity
  8
0
100
AcDbMText
 62
2
  6
BYLAYER
  7
STANDARD
 71
1
 72
1
 10
404.88
 20
33.89
 30
0.0
 11
1.0
 21
0.0
 31
0.0
  1
Material
 40
2.0
 41
10.4761904762
  0
MTEXT
  5
31D
100
AcDbEntity
  8
0
100
AcDbMText
 62
2
  6
BYLAYER
  7
STANDARD
 71
1
 72
1
 10
404.88
 20
44.0
 30
0.0
 11
1.0
 21
0.0
 31
0.0
  1
Scale
 40
2.0
 41
6.7142857143
  0
MTEXT
  5
31E
100
AcDbEntity
  8
0
100
AcDbMText
 62
2
  6
BYLAYER
  7
STANDARD
 71
1
 72
1
 10
404.5
 20
48.3
 30
0.0
 11
1.0
 21
0.0
 31
0.0
  1
Index
 40
2.1
 41
7.35
  0
MTEXT
  5
31F
100
AcDbEntity
  8
0
100
AcDbMText
 62
2
  6
BYLAYER
  7
TEXTSTYLE_2
 71
1
 72
1
 10
400.233085
 20
10.750653
 30
0.0
 11
0.0
 21
1.0
 31
0.0
  1
Observe protection note to DIN 34
 40
2.0
 41
42.9
  0
MTEXT
  5
320
100
AcDbEntity
  8
0
100
AcDbMText
 62
2
  6
BYLAYER
  7
STANDARD
 71
1
 72
1
 10
455.0
 20
23.3
 30
0.0
 11
1.0
 21
0.0
 31
0.0
  1
All dimensions are in mm
 40
2.1
 41
36.0
  0
MTEXT
  5
321
100
AcDbEntity
  8
0
100
AcDbMText
 62
2
  6
BYLAYER
  7
STANDARD
 71
1
 72
1
 10
454.88
 20
19.08
 30
0.0
 11
1.0
 21
0.0
 31
0.0
  1
Unspecified tolerance
 40
2.0
 41
28.0952380952
  0
MTEXT
  5
322
100
AcDbEntity
  8
0
100
AcDbMText
 62
2
  6
BYLAYER
  7
STANDARD
 71
1
 72
1
 10
470.0
 20
43.3
 30
0.0
 11
1.0
 21
0.0
 31
0.0
  1
Date
 40
2.1
 41
6.1
  0
MTEXT
  5
323
100
AcDbEntity
  8
0
100
AcDbMText
 62
2
  6
BYLAYER
  7
STANDARD
 71
1
 72
1
 10
469.5
 20
48.3
 30
0.0
 11
1.0
 21
0.0
 31
0.0
  1
Checked
 40
2.1
 41
10.6
  0
MTEXT
  5
324
100
AcDbEntity
  8
0
100
AcDbMText
 62
2
  6
BYLAYER
  7
STANDARD
 71
1
 72
1
 10
416.77357
 20
48.3
 30
0.0
 11
1.0
 21
0.0
 31
0.0
  1
ECO no.
 40
2.1
 41
10.75
  0
MTEXT
  5
325
100
AcDbEntity
  8
0
100
AcDbMText
 62
2
  6
BYLAYER
  7
STANDARD
 71
1
 72
1
 10
455.0
 20
38.3
 30
0.0
 11
1.0
 21
0.0
 31
0.0
  1
Created
 40
2.1
 41
10.3
  0
MTEXT
  5
326
100
AcDbEntity
  8
0
100
AcDbMText
 62
2
  6
BYLAYER
  7
STANDARD
 71
1
 72
1
 10
455.0
 20
33.3
 30
0.0
 11
1.0
 21
0.0
 31
0.0
  1
Checked
 40
2.1
 41
10.6
  0
MTEXT
  5
327
100
AcDbEntity
  8
0
100
AcDbMText
 62
2
  6
BYLAYER
  7
STANDARD
 71
1
 72
1
 10
455.0
 20
28.3
 30
0.0
 11
1.0
 21
0.0
 31
0.0
  1
Norm
 40
2.1
 41
6.45
  0
MTEXT
  5
328
100
AcDbEntity
  8
0
100
AcDbMText
 62
2
  6
BYLAYER
  7
STANDARD
 71
1
 72
1
 10
439.5
 20
48.3
 30
0.0
 11
1.0
 21
0.0
 31
0.0
  1
Date
 40
2.1
 41
6.1
  0
MTEXT
  5
329
100
AcDbEntity
  8
0
100
AcDbMText
 62
2
  6
BYLAYER
  7
STANDARD
 71
1
 72
1
 10
454.931222
 20
48.3
 30
0.0
 11
1.0
 21
0.0
 31
0.0
  1
Editor
 40
2.1
 41
8.15
  0
MTEXT
  5
32A
100
AcDbEntity
  8
0
100
AcDbMText
 62
2
  6
BYLAYER
  7
STANDARD
 71
1
 72
1
 10
485.0
 20
43.3
 30
0.0
 11
1.0
 21
0.0
 31
0.0
  1
Name
 40
2.1
 41
6.6
  0
MTEXT
  5
32B
100
AcDbEntity
  8
0
100
AcDbMText
 62
2
  6
BYLAYER
  7
STANDARD
 71
1
 72
1
 10
569.5
 20
9.0
 30
0.0
 11
1.0
 21
0.0
 31
0.0
  1
of
 40
2.0
 41
2.5714285714
  0
MTEXT
  5
32C
100
AcDbEntity
  8
0
100
AcDbMText
 62
2
  6
BYLAYER
  7
STANDARD
 71
1
 72
1
 10
569.5
 20
19.0
 30
0.0
 11
1.0
 21
0.0
 31
0.0
  1
Page
 40
2.0
 41
5.8571428571
  0
MTEXT
  5
32D
100
AcDbEntity
  8
0
100
AcDbMText
 62
2
  6
BYLAYER
  7
STANDARD
 71
1
 72
1
 10
406.6892482683
 20
40.4251533478
 30
0.0
 11
1.0
 21
0.0
 31
0.0
  1
1:1
 40
3.5
 41
5.25
  0
MTEXT
  5
32E
100
AcDbEntity
  8
0
100
AcDbMText
 62
2
  6
BYLAYER
  7
STANDARD
 71
1
 72
1
 10
578.304268483
 20
18.0313711286
 30
0.0
 11
1.0
 21
0.0
 31
0.0
  1
1
 40
3.5
 41
2.0
  0
MTEXT
  5
32F
100
AcDbEntity
  8
0
100
AcDbMText
 62
2
  6
BYLAYER
  7
STANDARD
 71
1
 72
1
 10
578.3433079941
 20
10.6677922028
 30
0.0
 11
1.0
 21
0.0
 31
0.0
  1
1
 40
3.5
 41
2.0
  0
MTEXT
  5
330
100
AcDbEntity
  8
0
100
AcDbMText
 62
2
  6
BYLAYER
  7
STANDARD
 71
1
 72
1
 10
499.9894046088
 20
19.0201061151
 30
0.0
 11
1.0
 21
0.0
 31
0.0
  1
Doc.-No.
 40
2.0
 41
11.2380952381
  0
MTEXT
  5
331
100
AcDbEntity
  8
0
100
AcDbMText
 62
2
  6
BYLAYER
  7
STANDARD
 71
1
 72
1
 10
499.9874091224
 20
11.479991216
 30
0.0
 11
1.0
 21
0.0
 31
0.0
  1
Mat.-No.
 40
2.0
 41
11.0
  0
INSERT
  5
332
100
AcDbEntity
  8
HATCHING_BL0
100
AcDbBlockReference
  2
HATCHING_BL0
 10
579.6581489736
 20
30.4073864343
  0
DIMENSION
  5
333
100
AcDbEntity
  8
0
100
AcDbDimension
 62
3
  6
BYLAYER
  2
*D0
 10
217.7715468315
 20
257.4405783582
 11
201.5215468315
 21
260.0655783582
 70
160
  3
DIMSTYLE_1
100
AcDbAlignedDimension
 13
195.2715468315
 23
249.8405890462
 14
217.7715468315
 24
249.8405890462
100
AcDbRotatedDimension
  0
DIMENSION
  5
334
100
AcDbEntity
  8
0
100
AcDbDimension
 62
3
  6
BYLAYER
  2
*D1
 10
414.8949626866
 20
162.8405890462
 11
413.5021651309
 21
203.8820982213
 70
160
  3
DIMSTYLE_2
100
AcDbAlignedDimension
 13
360.8348016637
 23
249.8405890462
 14
360.8346498584
 24
162.8405890462
 50
270.0
100
AcDbRotatedDimension
  0
DIMENSION
  5
335
100
AcDbEntity
  8
0
100
AcDbDimension
 62
3
  6
BYLAYER
  2
*D2
 10
387.0710498584
 20
258.659608209
 11
323.7459967001
 21
261.284608209
 70
160
  3
DIMSTYLE_2
100
AcDbAlignedDimension
 13
271.6709435417
 23
224.0405890462
 14
387.0710498584
 24
234.1077334787
100
AcDbRotatedDimension
  0
DIMENSION
  5
336
100
AcDbEntity
  8
0
100
AcDbDimension
 62
3
  6
BYLAYER
  2
*D3
 10
387.0710498584
 20
267.6361007463
 11
320.6459967001
 21
270.2611007463
 70
160
  3
DIMSTYLE_3
100
AcDbAlignedDimension
 13
266.4709435417
 23
234.3405890462
 14
387.0710498584
 24
234.1077334787
100
AcDbRotatedDimension
  0
LINE
  5
337
100
AcDbEntity
  8
0
100
AcDbLine
 62
253
  6
BYLAYER
 10
-0.0
 20
0.0
 11
-0.0
 21
420.0
  0
LINE
  5
338
100
AcDbEntity
  8
0
100
AcDbLine
 62
7
  6
BYLAYER
 10
5.0
 20
5.0
 11
5.0
 21
415.0
  0
LINE
  5
339
100
AcDbEntity
  8
0
100
AcDbLine
 62
253
  6
BYLAYER
 10
10.0
 20
10.0
 11
10.0
 21
410.0
  0
LINE
  5
33A
100
AcDbEntity
  8
0
100
AcDbLine
 62
253
  6
BYLAYER
 10
82.375
 20
415.0
 11
82.375
 21
410.0
  0
LINE
  5
33B
100
AcDbEntity
  8
0
100
AcDbLine
 62
253
  6
BYLAYER
 10
82.375
 20
10.0
 11
82.375
 21
5.0
  0
LINE
  5
33C
100
AcDbEntity
  8
0
100
AcDbLine
 62
253
  6
BYLAYER
 10
-0.0
 20
0.0
 11
594.0
 21
0.0
  0
LINE
  5
33D
100
AcDbEntity
  8
0
100
AcDbLine
 62
7
  6
BYLAYER
 10
589.0
 20
5.0
 11
5.0
 21
5.0
  0
LINE
  5
33E
100
AcDbEntity
  8
0
100
AcDbLine
 62
253
  6
BYLAYER
 10
105.0
 20
420.0
 11
105.0
 21
415.0
  0
LINE
  5
33F
100
AcDbEntity
  8
0
100
AcDbLine
 62
253
  6
BYLAYER
 10
404.0
 20
10.0
 11
10.0
 21
10.0
  0
LINE
  5
340
100
AcDbEntity
  8
0
100
AcDbLine
 62
253
  6
BYLAYER
 10
433.87
 20
39.964796
 11
439.12
 21
39.964796
  0
LINE
  5
341
100
AcDbEntity
  8
0
100
AcDbLine
 62
253
  6
BYLAYER
 10
439.87
 20
39.964796
 11
445.87
 21
39.964796
  0
LINE
  5
342
100
AcDbEntity
  8
0
100
AcDbLine
 62
253
  6
BYLAYER
 10
154.75
 20
415.0
 11
154.75
 21
410.0
  0
LINE
  5
343
100
AcDbEntity
  8
0
100
AcDbLine
 62
253
  6
BYLAYER
 10
154.75
 20
10.0
 11
154.75
 21
5.0
  0
LINE
  5
344
100
AcDbEntity
  8
0
100
AcDbLine
 62
253
  6
BYLAYER
 10
588.983114
 20
76.717919
 11
584.0
 21
76.717919
  0
LINE
  5
345
100
AcDbEntity
  8
0
100
AcDbLine
 62
253
  6
BYLAYER
 10
9.983114
 20
76.717919
 11
5.0
 21
76.717919
  0
LINE
  5
346
100
AcDbEntity
  8
0
100
AcDbLine
 62
253
  6
BYLAYER
 10
434.62
 20
39.214796
 11
438.37
 21
37.714796
  0
LINE
  5
347
100
AcDbEntity
  8
0
100
AcDbLine
 62
253
  6
BYLAYER
 10
210.0
 20
5.0
 11
210.0
 21
0.0
  0
LINE
  5
348
100
AcDbEntity
  8
0
100
AcDbLine
 62
253
  6
BYLAYER
 10
210.0
 20
415.0
 11
210.0
 21
420.0
  0
LINE
  5
349
100
AcDbEntity
  8
0
100
AcDbLine
 62
253
  6
BYLAYER
 10
227.125
 20
415.0
 11
227.125
 21
410.0
  0
LINE
  5
34A
100
AcDbEntity
  8
0
100
AcDbLine
 62
253
  6
BYLAYER
 10
227.125
 20
10.0
 11
227.125
 21
5.0
  0
LINE
  5
34B
100
AcDbEntity
  8
0
100
AcDbLine
 62
253
  6
BYLAYER
 10
588.983114
 20
143.377919
 11
584.0
 21
143.377919
  0
LINE
  5
34C
100
AcDbEntity
  8
0
100
AcDbLine
 62
253
  6
BYLAYER
 10
9.983114
 20
143.377919
 11
5.0
 21
143.377919
  0
LINE
  5
34D
100
AcDbEntity
  8
0
100
AcDbLine
 62
253
  6
BYLAYER
 10
299.5
 20
415.0
 11
299.5
 21
410.0
  0
LINE
  5
34E
100
AcDbEntity
  8
0
100
AcDbLine
 62
253
  6
BYLAYER
 10
299.5
 20
10.0
 11
299.5
 21
5.0
  0
LINE
  5
34F
100
AcDbEntity
  8
0
100
AcDbLine
 62
253
  6
BYLAYER
 10
588.983114
 20
210.037919
 11
584.0
 21
210.037919
  0
LINE
  5
350
100
AcDbEntity
  8
0
100
AcDbLine
 62
253
  6
BYLAYER
 10
9.983114
 20
210.037919
 11
5.0
 21
210.037919
  0
LINE
  5
351
100
AcDbEntity
  8
0
100
AcDbLine
 62
253
  6
BYLAYER
 10
371.875
 20
415.0
 11
371.875
 21
410.0
  0
LINE
  5
352
100
AcDbEntity
  8
0
100
AcDbLine
 62
253
  6
BYLAYER
 10
371.875
 20
10.0
 11
371.875
 21
5.0
  0
LINE
  5
353
100
AcDbEntity
  8
0
100
AcDbLine
 62
253
  6
BYLAYER
 10
588.983114
 20
276.697919
 11
584.0
 21
276.697919
  0
LINE
  5
354
100
AcDbEntity
  8
0
100
AcDbLine
 62
253
  6
BYLAYER
 10
9.983114
 20
276.697919
 11
5.0
 21
276.697919
  0
LINE
  5
355
100
AcDbEntity
  8
0
100
AcDbLine
 62
253
  6
BYLAYER
 10
402.0
 20
420.0
 11
402.0
 21
415.0
  0
LINE
  5
356
100
AcDbEntity
  8
0
100
AcDbLine
 62
253
  6
BYLAYER
 10
402.0
 20
0.0
 11
402.0
 21
5.0
  0
LINE
  5
357
100
AcDbEntity
  8
0
100
AcDbLine
 62
253
  6
BYLAYER
 10
594.0
 20
297.0
 11
589.0
 21
297.0
  0
LINE
  5
358
100
AcDbEntity
  8
0
100
AcDbLine
 62
253
  6
BYLAYER
 10
-0.0
 20
297.0
 11
5.0
 21
297.0
  0
LINE
  5
359
100
AcDbEntity
  8
0
100
AcDbLine
 62
253
  6
BYLAYER
 10
434.62
 20
40.714796
 11
434.62
 21
39.214796
  0
LINE
  5
35A
100
AcDbEntity
  8
0
100
AcDbLine
 62
253
  6
BYLAYER
 10
438.37
 20
42.214796
 11
438.37
 21
37.714796
  0
LINE
  5
35B
100
AcDbEntity
  8
0
100
AcDbLine
 62
253
  6
BYLAYER
 10
442.87
 20
36.964796
 11
442.87
 21
42.964796
  0
LINE
  5
35C
100
AcDbEntity
  8
0
100
AcDbLine
 62
253
  6
BYLAYER
 10
444.25
 20
415.0
 11
444.25
 21
410.0
  0
LINE
  5
35D
100
AcDbEntity
  8
0
100
AcDbLine
 62
253
  6
BYLAYER
 10
588.983114
 20
343.357919
 11
584.0
 21
343.357919
  0
LINE
  5
35E
100
AcDbEntity
  8
0
100
AcDbLine
 62
253
  6
BYLAYER
 10
9.983114
 20
343.357919
 11
5.0
 21
343.357919
  0
LINE
  5
35F
100
AcDbEntity
  8
0
100
AcDbLine
 62
253
  6
BYLAYER
 10
434.62
 20
40.714796
 11
438.37
 21
42.214796
  0
LINE
  5
360
100
AcDbEntity
  8
0
100
AcDbLine
 62
253
  6
BYLAYER
 10
10.0
 20
410.0
 11
584.0
 21
410.0
  0
LINE
  5
361
100
AcDbEntity
  8
0
100
AcDbLine
 62
7
  6
BYLAYER
 10
5.0
 20
415.0
 11
589.0
 21
415.0
  0
LINE
  5
362
100
AcDbEntity
  8
0
100
AcDbLine
 62
253
  6
BYLAYER
 10
-0.0
 20
420.0
 11
594.0
 21
420.0
  0
LINE
  5
363
100
AcDbEntity
  8
0
100
AcDbLine
 62
253
  6
BYLAYER
 10
516.625
 20
415.0
 11
516.625
 21
410.0
  0
LINE
  5
364
100
AcDbEntity
  8
0
100
AcDbLine
 62
253
  6
BYLAYER
 10
584.0
 20
410.0
 11
584.0
 21
55.0
  0
LINE
  5
365
100
AcDbEntity
  8
0
100
AcDbLine
 62
7
  6
BYLAYER
 10
589.0
 20
415.0
 11
589.0
 21
5.0
  0
LINE
  5
366
100
AcDbEntity
  8
0
100
AcDbLine
 62
253
  6
BYLAYER
 10
594.0
 20
420.0
 11
594.0
 21
0.0
  0
LINE
  5
367
100
AcDbEntity
  8
0
100
AcDbLine
 62
7
  6
BYLAYER
 10
212.5215468315
 20
162.4405890462
 11
200.5215468315
 21
162.4405890462
  0
LINE
  5
368
100
AcDbEntity
  8
0
100
AcDbLine
 62
7
  6
BYLAYER
 10
195.2715468315
 20
162.8405890462
 11
217.7715468315
 21
162.8405890462
  0
LINE
  5
369
100
AcDbEntity
  8
0
100
AcDbLine
 62
7
  6
BYLAYER
 10
196.6215468315
 20
166.8405890462
 11
216.4215468315
 21
166.8405890462
  0
LINE
  5
36A
100
AcDbEntity
  8
0
100
AcDbLine
 62
7
  6
BYLAYER
 10
217.7715468315
 20
167.9405890462
 11
195.2715468315
 21
167.9405890462
  0
LINE
  5
36B
100
AcDbEntity
  8
0
100
AcDbLine
 62
7
  6
BYLAYER
 10
217.7715468315
 20
174.8405890462
 11
195.2715468315
 21
174.8405890462
  0
LINE
  5
36C
100
AcDbEntity
  8
0
100
AcDbLine
 62
7
  6
BYLAYER
 10
217.7215468315
 20
174.8905890462
 11
195.3215468315
 21
174.8905890462
  0
LINE
  5
36D
100
AcDbEntity
  8
0
100
AcDbLine
 62
7
  6
BYLAYER
 10
217.7215468315
 20
178.5734446138
 11
195.3215468315
 21
178.5734446138
  0
LINE
  5
36E
100
AcDbEntity
  8
0
100
AcDbLine
 62
7
  6
BYLAYER
 10
217.7715468315
 20
179.3405890462
 11
217.7215468315
 21
179.3405890462
  0
LINE
  5
36F
100
AcDbEntity
  8
0
100
AcDbLine
 62
7
  6
BYLAYER
 10
195.3215468315
 20
179.3405890462
 11
195.2715468315
 21
179.3405890462
  0
LINE
  5
370
100
AcDbEntity
  8
0
100
AcDbLine
 62
7
  6
BYLAYER
 10
203.2714818273
 20
224.3676160733
 11
201.4386639486
 21
222.6378863435
  0
LINE
  5
371
100
AcDbEntity
  8
0
100
AcDbLine
 62
7
  6
BYLAYER
 10
202.4887289527
 20
222.6378863435
 11
204.3215468315
 21
224.3676160733
  0
LINE
  5
372
100
AcDbEntity
  8
0
100
AcDbLine
 62
7
  6
BYLAYER
 10
195.2715468315
 20
162.8405890462
 11
195.2715468315
 21
249.8405890462
  0
LINE
  5
373
100
AcDbEntity
  8
0
100
AcDbLine
 62
7
  6
BYLAYER
 10
195.3215468315
 20
174.8905890462
 11
195.3215468315
 21
237.7905890462
  0
LINE
  5
374
100
AcDbEntity
  8
0
100
AcDbLine
 62
7
  6
BYLAYER
 10
196.3215468315
 20
224.9441926498
 11
196.3215468315
 21
221.3405890462
  0
LINE
  5
375
100
AcDbEntity
  8
0
100
AcDbLine
 62
7
  6
BYLAYER
 10
196.6215468315
 20
249.8405890462
 11
196.6215468315
 21
245.8405890462
  0
LINE
  5
376
100
AcDbEntity
  8
0
100
AcDbLine
 62
7
  6
BYLAYER
 10
196.6215468315
 20
162.8405890462
 11
196.6215468315
 21
166.8405890462
  0
LINE
  5
377
100
AcDbEntity
  8
0
100
AcDbLine
 62
7
  6
BYLAYER
 10
197.0422675522
 20
221.3405890462
 11
197.0422675522
 21
224.3676160733
  0
LINE
  5
378
100
AcDbEntity
  8
0
100
AcDbLine
 62
7
  6
BYLAYER
 10
197.2584837684
 20
222.6378863435
 11
197.2584837684
 21
222.061309767
  0
LINE
  5
379
100
AcDbEntity
  8
0
100
AcDbLine
 62
7
  6
BYLAYER
 10
199.4206459306
 20
224.9441926498
 11
199.4206459306
 21
222.061309767
  0
LINE
  5
37A
100
AcDbEntity
  8
0
100
AcDbLine
 62
7
  6
BYLAYER
 10
200.1413666513
 20
222.061309767
 11
200.1413666513
 21
224.9441926498
  0
LINE
  5
37B
100
AcDbEntity
  8
0
100
AcDbLine
 62
7
  6
BYLAYER
 10
200.4296549396
 20
225.6649133706
 11
200.4296549396
 21
222.061309767
  0
LINE
  5
37C
100
AcDbEntity
  8
0
100
AcDbLine
 62
7
  6
BYLAYER
 10
200.5215468315
 20
162.4405890462
 11
200.5215468315
 21
162.8405890462
  0
LINE
  5
37D
100
AcDbEntity
  8
0
100
AcDbLine
 62
7
  6
BYLAYER
 10
200.5215468315
 20
249.8405890462
 11
200.5215468315
 21
250.2405890462
  0
LINE
  5
37E
100
AcDbEntity
  8
0
100
AcDbLine
 62
7
  6
BYLAYER
 10
201.1503756603
 20
222.061309767
 11
201.1503756603
 21
225.6649133706
  0
LINE
  5
37F
100
AcDbEntity
  8
0
100
AcDbLine
 62
7
  6
BYLAYER
 10
201.4386639486
 20
224.9441926498
 11
201.4386639486
 21
224.3676160733
  0
LINE
  5
380
100
AcDbEntity
  8
0
100
AcDbLine
 62
7
  6
BYLAYER
 10
201.4386639486
 20
222.6378863435
 11
201.4386639486
 21
222.061309767
  0
LINE
  5
381
100
AcDbEntity
  8
0
100
AcDbLine
 62
7
  6
BYLAYER
 10
204.3215468315
 20
222.061309767
 11
204.3215468315
 21
222.6378863435
  0
LINE
  5
382
100
AcDbEntity
  8
0
100
AcDbLine
 62
7
  6
BYLAYER
 10
204.3215468315
 20
224.3676160733
 11
204.3215468315
 21
224.9441926498
  0
LINE
  5
383
100
AcDbEntity
  8
0
100
AcDbLine
 62
7
  6
BYLAYER
 10
212.5215468315
 20
162.4405890462
 11
212.5215468315
 21
162.8405890462
  0
LINE
  5
384
100
AcDbEntity
  8
0
100
AcDbLine
 62
7
  6
BYLAYER
 10
212.5215468315
 20
249.8405890462
 11
212.5215468315
 21
250.2405890462
  0
LINE
  5
385
100
AcDbEntity
  8
0
100
AcDbLine
 62
7
  6
BYLAYER
 10
216.4215468315
 20
249.8405890462
 11
216.4215468315
 21
245.8405890462
  0
LINE
  5
386
100
AcDbEntity
  8
0
100
AcDbLine
 62
7
  6
BYLAYER
 10
216.4215468315
 20
162.8405890462
 11
216.4215468315
 21
166.8405890462
  0
LINE
  5
387
100
AcDbEntity
  8
0
100
AcDbLine
 62
7
  6
BYLAYER
 10
217.7215468315
 20
174.8905890462
 11
217.7215468315
 21
237.7905890462
  0
LINE
  5
388
100
AcDbEntity
  8
0
100
AcDbLine
 62
7
  6
BYLAYER
 10
217.7715468315
 20
162.8405890462
 11
217.7715468315
 21
249.8405890462
  0
LINE
  5
389
100
AcDbEntity
  8
0
100
AcDbLine
 62
7
  6
BYLAYER
 10
196.3215468315
 20
221.3405890462
 11
197.0422675522
 21
221.3405890462
  0
LINE
  5
38A
100
AcDbEntity
  8
0
100
AcDbLine
 62
7
  6
BYLAYER
 10
197.2584837684
 20
222.061309767
 11
197.7629882729
 21
222.061309767
  0
LINE
  5
38B
100
AcDbEntity
  8
0
100
AcDbLine
 62
7
  6
BYLAYER
 10
199.4206459306
 20
222.061309767
 11
200.1413666513
 21
222.061309767
  0
LINE
  5
38C
100
AcDbEntity
  8
0
100
AcDbLine
 62
7
  6
BYLAYER
 10
200.4296549396
 20
222.061309767
 11
201.1503756603
 21
222.061309767
  0
LINE
  5
38D
100
AcDbEntity
  8
0
100
AcDbLine
 62
7
  6
BYLAYER
 10
201.4386639486
 20
222.061309767
 11
204.3215468315
 21
222.061309767
  0
LINE
  5
38E
100
AcDbEntity
  8
0
100
AcDbLine
 62
7
  6
BYLAYER
 10
204.3215468315
 20
222.6378863435
 11
202.4887289527
 21
222.6378863435
  0
LINE
  5
38F
100
AcDbEntity
  8
0
100
AcDbLine
 62
7
  6
BYLAYER
 10
197.6188441288
 20
222.6378863435
 11
197.2584837684
 21
222.6378863435
  0
LINE
  5
390
100
AcDbEntity
  8
0
100
AcDbLine
 62
7
  6
BYLAYER
 10
197.0422675522
 20
224.3676160733
 11
197.6188441288
 21
224.3676160733
  0
LINE
  5
391
100
AcDbEntity
  8
0
100
AcDbLine
 62
7
  6
BYLAYER
 10
201.4386639486
 20
224.3676160733
 11
203.2714818273
 21
224.3676160733
  0
LINE
  5
392
100
AcDbEntity
  8
0
100
AcDbLine
 62
7
  6
BYLAYER
 10
204.3215468315
 20
224.9441926498
 11
201.4386639486
 21
224.9441926498
  0
LINE
  5
393
100
AcDbEntity
  8
0
100
AcDbLine
 62
7
  6
BYLAYER
 10
200.1413666513
 20
224.9441926498
 11
199.4206459306
 21
224.9441926498
  0
LINE
  5
394
100
AcDbEntity
  8
0
100
AcDbLine
 62
7
  6
BYLAYER
 10
196.3215468315
 20
224.9441926498
 11
197.7629882729
 21
224.9441926498
  0
LINE
  5
395
100
AcDbEntity
  8
0
100
AcDbLine
 62
7
  6
BYLAYER
 10
201.1503756603
 20
225.6649133706
 11
200.4296549396
 21
225.6649133706
  0
LINE
  5
396
100
AcDbEntity
  8
0
100
AcDbLine
 62
7
  6
BYLAYER
 10
217.7715468315
 20
233.3405890462
 11
217.7215468315
 21
233.3405890462
  0
LINE
  5
397
100
AcDbEntity
  8
0
100
AcDbLine
 62
7
  6
BYLAYER
 10
195.3215468315
 20
233.3405890462
 11
195.2715468315
 21
233.3405890462
  0
LINE
  5
398
100
AcDbEntity
  8
0
100
AcDbLine
 62
7
  6
BYLAYER
 10
217.7215468315
 20
234.1077334787
 11
195.3215468315
 21
234.1077334787
  0
LINE
  5
399
100
AcDbEntity
  8
0
100
AcDbLine
 62
7
  6
BYLAYER
 10
217.7215468315
 20
237.7905890462
 11
195.3215468315
 21
237.7905890462
  0
LINE
  5
39A
100
AcDbEntity
  8
0
100
AcDbLine
 62
7
  6
BYLAYER
 10
217.7715468315
 20
237.8405890462
 11
195.2715468315
 21
237.8405890462
  0
LINE
  5
39B
100
AcDbEntity
  8
0
100
AcDbLine
 62
7
  6
BYLAYER
 10
217.7715468315
 20
244.7405890462
 11
195.2715468315
 21
244.7405890462
  0
LINE
  5
39C
100
AcDbEntity
  8
0
100
AcDbLine
 62
7
  6
BYLAYER
 10
216.4215468315
 20
245.8405890462
 11
196.6215468315
 21
245.8405890462
  0
LINE
  5
39D
100
AcDbEntity
  8
0
100
AcDbLine
 62
7
  6
BYLAYER
 10
217.7715468315
 20
249.8405890462
 11
195.2715468315
 21
249.8405890462
  0
LINE
  5
39E
100
AcDbEntity
  8
0
100
AcDbLine
 62
7
  6
BYLAYER
 10
212.5215468315
 20
250.2405890462
 11
200.5215468315
 21
250.2405890462
  0
LINE
  5
39F
100
AcDbEntity
  8
0
100
AcDbLine
 62
7
  6
BYLAYER
 10
268.1460498584
 20
243.8405890462
 11
266.4709435417
 21
234.3405890462
  0
LINE
  5
3A0
100
AcDbEntity
  8
0
100
AcDbLine
 62
7
  6
BYLAYER
 10
266.4709435417
 20
234.3405890462
 11
266.4709435417
 21
221.4405890462
  0
LINE
  5
3A1
100
AcDbEntity
  8
0
100
AcDbLine
 62
7
  6
BYLAYER
 10
266.4710498584
 20
186.1405890462
 11
266.4710498584
 21
168.8405890462
  0
LINE
  5
3A2
100
AcDbEntity
  8
0
100
AcDbLine
 62
7
  6
BYLAYER
 10
269.6709435417
 20
201.3405890462
 11
269.6709435417
 21
211.3405890462
  0
LINE
  5
3A3
100
AcDbEntity
  8
0
100
AcDbLine
 62
7
  6
BYLAYER
 10
269.6710498584
 20
168.8405890462
 11
269.6710498584
 21
164.9405890462
  0
LINE
  5
3A4
100
AcDbEntity
  8
0
100
AcDbLine
 62
253
  6
BYLAYER
 10
270.6709435417
 20
200.3405890462
 11
270.6709435417
 21
212.3405890462
  0
LINE
  5
3A5
100
AcDbEntity
  8
0
100
AcDbLine
 62
7
  6
BYLAYER
 10
271.6709435417
 20
224.0405890462
 11
271.6709435417
 21
188.6405890462
  0
LINE
  5
3A6
100
AcDbEntity
  8
0
100
AcDbLine
 62
7
  6
BYLAYER
 10
272.1710498584
 20
166.9405890462
 11
272.1710498584
 21
168.8405890462
  0
LINE
  5
3A7
100
AcDbEntity
  8
0
100
AcDbLine
 62
7
  6
BYLAYER
 10
269.0499435417
 20
221.4405890462
 11
270.8709435417
 21
224.0405890462
  0
LINE
  5
3A8
100
AcDbEntity
  8
0
100
AcDbLine
 62
7
  6
BYLAYER
 10
274.6710498584
 20
164.9405890462
 11
274.6710498584
 21
166.9405890462
  0
LINE
  5
3A9
100
AcDbEntity
  8
0
100
AcDbLine
 62
7
  6
BYLAYER
 10
327.8710498584
 20
162.4405890462
 11
330.1710498584
 21
162.4405890462
  0
LINE
  5
3AA
100
AcDbEntity
  8
0
100
AcDbLine
 62
7
  6
BYLAYER
 10
327.5708980532
 20
162.8405890462
 11
360.8346498584
 21
162.8405890462
  0
LINE
  5
3AB
100
AcDbEntity
  8
0
100
AcDbLine
 62
7
  6
BYLAYER
 10
316.9060498584
 20
162.8905890462
 11
327.5708980532
 21
162.8905890462
  0
LINE
  5
3AC
100
AcDbEntity
  8
0
100
AcDbLine
 62
7
  6
BYLAYER
 10
269.6710498584
 20
164.9405890462
 11
274.6710498584
 21
164.9405890462
  0
LINE
  5
3AD
100
AcDbEntity
  8
0
100
AcDbLine
 62
7
  6
BYLAYER
 10
274.6710498584
 20
166.9405890462
 11
272.1710498584
 21
166.9405890462
  0
LINE
  5
3AE
100
AcDbEntity
  8
0
100
AcDbLine
 62
7
  6
BYLAYER
 10
266.4710498584
 20
168.8405890462
 11
313.4710498584
 21
168.8405890462
  0
LINE
  5
3AF
100
AcDbEntity
  8
0
100
AcDbLine
 62
7
  6
BYLAYER
 10
316.9060498584
 20
249.7905890462
 11
313.4710498584
 21
243.8405890462
  0
LINE
  5
3B0
100
AcDbEntity
  8
0
100
AcDbLine
 62
7
  6
BYLAYER
 10
362.6910498584
 20
174.8405890462
 11
381.9330498584
 21
174.8405890462
  0
LINE
  5
3B1
100
AcDbEntity
  8
0
100
AcDbLine
 62
7
  6
BYLAYER
 10
382.0059778511
 20
174.8905890462
 11
385.7306000547
 21
174.8905890462
  0
LINE
  5
3B2
100
AcDbEntity
  8
0
100
AcDbLine
 62
7
  6
BYLAYER
 10
313.4710498584
 20
168.8405890462
 11
316.9060498584
 21
162.8905890462
  0
LINE
  5
3B3
100
AcDbEntity
  8
0
100
AcDbLine
 62
7
  6
BYLAYER
 10
268.9709435417
 20
188.6405890462
 11
266.4710498584
 21
186.1405890462
  0
LINE
  5
3B4
100
AcDbEntity
  8
0
100
AcDbLine
 62
7
  6
BYLAYER
 10
271.6709435417
 20
188.6405890462
 11
268.9709435417
 21
188.6405890462
  0
LINE
  5
3B5
100
AcDbEntity
  8
0
100
AcDbLine
 62
7
  6
BYLAYER
 10
327.5708980532
 20
249.8405890462
 11
327.5708980532
 21
249.5405890462
  0
LINE
  5
3B6
100
AcDbEntity
  8
0
100
AcDbLine
 62
7
  6
BYLAYER
 10
327.5708980532
 20
163.1405890462
 11
327.5708980532
 21
162.8405890462
  0
LINE
  5
3B7
100
AcDbEntity
  8
0
100
AcDbLine
 62
7
  6
BYLAYER
 10
327.8710498584
 20
250.2405890462
 11
327.8710498584
 21
249.8405890462
  0
LINE
  5
3B8
100
AcDbEntity
  8
0
100
AcDbLine
 62
7
  6
BYLAYER
 10
327.8710498584
 20
162.8405890462
 11
327.8710498584
 21
162.4405890462
  0
LINE
  5
3B9
100
AcDbEntity
  8
0
100
AcDbLine
 62
7
  6
BYLAYER
 10
330.1710498584
 20
162.4405890462
 11
330.1710498584
 21
162.8405890462
  0
LINE
  5
3BA
100
AcDbEntity
  8
0
100
AcDbLine
 62
7
  6
BYLAYER
 10
330.1710498584
 20
249.8405890462
 11
330.1710498584
 21
250.2405890462
  0
LINE
  5
3BB
100
AcDbEntity
  8
0
100
AcDbLine
 62
7
  6
BYLAYER
 10
266.4709435417
 20
221.4405890462
 11
269.0499435417
 21
221.4405890462
  0
LINE
  5
3BC
100
AcDbEntity
  8
0
100
AcDbLine
 62
7
  6
BYLAYER
 10
270.8709435417
 20
224.0405890462
 11
271.6709435417
 21
224.0405890462
  0
LINE
  5
3BD
100
AcDbEntity
  8
0
100
AcDbLine
 62
7
  6
BYLAYER
 10
385.7306000547
 20
237.7905890462
 11
382.0059778511
 21
237.7905890462
  0
LINE
  5
3BE
100
AcDbEntity
  8
0
100
AcDbLine
 62
7
  6
BYLAYER
 10
381.9331838042
 20
237.8405890462
 11
362.6910498584
 21
237.8405890462
  0
LINE
  5
3BF
100
AcDbEntity
  8
0
100
AcDbLine
 62
7
  6
BYLAYER
 10
362.6910498584
 20
167.9405890462
 11
362.6910498584
 21
174.8405890462
  0
LINE
  5
3C0
100
AcDbEntity
  8
0
100
AcDbLine
 62
7
  6
BYLAYER
 10
362.6910498584
 20
237.8405890462
 11
362.6910498584
 21
244.7405890462
  0
LINE
  5
3C1
100
AcDbEntity
  8
0
100
AcDbLine
 62
7
  6
BYLAYER
 10
313.4710498584
 20
243.8405890462
 11
268.1460498584
 21
243.8405890462
  0
LINE
  5
3C2
100
AcDbEntity
  8
0
100
AcDbLine
 62
7
  6
BYLAYER
 10
327.5708980532
 20
249.7905890462
 11
316.9060498584
 21
249.7905890462
  0
LINE
  5
3C3
100
AcDbEntity
  8
0
100
AcDbLine
 62
7
  6
BYLAYER
 10
360.8348016637
 20
249.8405890462
 11
327.5708980532
 21
249.8405890462
  0
LINE
  5
3C4
100
AcDbEntity
  8
0
100
AcDbLine
 62
7
  6
BYLAYER
 10
330.1710498584
 20
250.2405890462
 11
327.8710498584
 21
250.2405890462
  0
LINE
  5
3C5
100
AcDbEntity
  8
0
100
AcDbLine
 62
7
  6
BYLAYER
 10
360.8346498584
 20
162.8405890462
 11
362.6910498584
 21
167.9405890462
  0
LINE
  5
3C6
100
AcDbEntity
  8
0
100
AcDbLine
 62
7
  6
BYLAYER
 10
362.6910498584
 20
244.7405890462
 11
360.8348016637
 21
249.8405890462
  0
LINE
  5
3C7
100
AcDbEntity
  8
0
100
AcDbLine
 62
7
  6
BYLAYER
 10
383.5710498584
 20
179.1905890462
 11
383.5710498584
 21
233.4905890462
  0
LINE
  5
3C8
100
AcDbEntity
  8
0
100
AcDbLine
 62
7
  6
BYLAYER
 10
387.0710498584
 20
178.5734446138
 11
387.0710498584
 21
234.1077334787
  0
LINE
  5
3C9
100
AcDbEntity
  8
0
100
AcDbLine
 62
7
  6
BYLAYER
 10
381.9330498584
 20
174.8405890462
 11
383.5710498584
 21
179.3405890462
  0
LINE
  5
3CA
100
AcDbEntity
  8
0
100
AcDbLine
 62
7
  6
BYLAYER
 10
383.5710498584
 20
179.1905890462
 11
382.0059778511
 21
174.8905890462
  0
LINE
  5
3CB
100
AcDbEntity
  8
0
100
AcDbLine
 62
7
  6
BYLAYER
 10
383.5710498584
 20
233.3405890462
 11
381.9331838042
 21
237.8405890462
  0
LINE
  5
3CC
100
AcDbEntity
  8
0
100
AcDbLine
 62
7
  6
BYLAYER
 10
382.0059778511
 20
237.7905890462
 11
383.5710498584
 21
233.4905890462
  0
LINE
  5
3CD
100
AcDbEntity
  8
0
100
AcDbLine
 62
7
  6
BYLAYER
 10
385.7306000547
 20
174.8905890462
 11
387.0710498584
 21
178.5734446138
  0
LINE
  5
3CE
100
AcDbEntity
  8
0
100
AcDbLine
 62
7
  6
BYLAYER
 10
387.0710498584
 20
234.1077334787
 11
385.7306000547
 21
237.7905890462
  0
LINE
  5
3CF
100
AcDbEntity
  8
0
100
AcDbLine
 62
7
  6
BYLAYER
 10
217.7215468315
 20
24.1431743869
 11
195.3215468315
 21
24.1431743869
  0
LINE
  5
3D0
100
AcDbEntity
  8
0
100
AcDbLine
 62
7
  6
BYLAYER
 10
217.7215468315
 20
25.4836241905
 11
195.3215468315
 21
25.4836241905
  0
LINE
  5
3D1
100
AcDbEntity
  8
0
100
AcDbLine
 62
7
  6
BYLAYER
 10
217.7715468315
 20
27.6431743869
 11
217.7215468315
 21
27.6431743869
  0
LINE
  5
3D2
100
AcDbEntity
  8
0
100
AcDbLine
 62
7
  6
BYLAYER
 10
195.3215468315
 20
27.6431743869
 11
195.2715468315
 21
27.6431743869
  0
LINE
  5
3D3
100
AcDbEntity
  8
0
100
AcDbLine
 62
7
  6
BYLAYER
 10
217.7215468315
 20
29.2082463942
 11
195.3215468315
 21
29.2082463942
  0
LINE
  5
3D4
100
AcDbEntity
  8
0
100
AcDbLine
 62
7
  6
BYLAYER
 10
217.7715468315
 20
29.2810404411
 11
195.2715468315
 21
29.2810404411
  0
LINE
  5
3D5
100
AcDbEntity
  8
0
100
AcDbLine
 62
7
  6
BYLAYER
 10
196.5215468315
 20
33.0231743869
 11
216.5215468315
 21
33.0231743869
  0
LINE
  5
3D6
100
AcDbEntity
  8
0
100
AcDbLine
 62
7
  6
BYLAYER
 10
217.7715468315
 20
48.5231743869
 11
195.2715468315
 21
48.5231743869
  0
LINE
  5
3D7
100
AcDbEntity
  8
0
100
AcDbLine
 62
7
  6
BYLAYER
 10
216.4215468315
 20
48.9235416446
 11
196.6215468315
 21
48.9235416446
  0
LINE
  5
3D8
100
AcDbEntity
  8
0
100
AcDbLine
 62
7
  6
BYLAYER
 10
217.7715468315
 20
50.3794225816
 11
216.4215468315
 21
50.3794225816
  0
LINE
  5
3D9
100
AcDbEntity
  8
0
100
AcDbLine
 62
7
  6
BYLAYER
 10
196.6215468315
 20
50.3794225816
 11
195.2715468315
 21
50.3794225816
  0
LINE
  5
3DA
100
AcDbEntity
  8
0
100
AcDbLine
 62
7
  6
BYLAYER
 10
216.4215468315
 20
69.4031743869
 11
196.6215468315
 21
69.4031743869
  0
LINE
  5
3DB
100
AcDbEntity
  8
0
100
AcDbLine
 62
7
  6
BYLAYER
 10
195.2715468315
 20
27.6431743869
 11
195.2715468315
 21
83.6433261921
  0
LINE
  5
3DC
100
AcDbEntity
  8
0
100
AcDbLine
 62
7
  6
BYLAYER
 10
195.3215468315
 20
24.1431743869
 11
195.3215468315
 21
29.2082463942
  0
LINE
  5
3DD
100
AcDbEntity
  8
0
100
AcDbLine
 62
7
  6
BYLAYER
 10
195.3215468315
 20
83.6433261921
 11
195.3215468315
 21
144.7432807036
  0
LINE
  5
3DE
100
AcDbEntity
  8
0
100
AcDbLine
 62
7
  6
BYLAYER
 10
196.5215468315
 20
48.5231743869
 11
196.5215468315
 21
33.0231743869
  0
LINE
  5
3DF
100
AcDbEntity
  8
0
100
AcDbLine
 62
7
  6
BYLAYER
 10
196.6215468315
 20
48.9235416446
 11
196.6215468315
 21
69.4031743869
  0
LINE
  5
3E0
100
AcDbEntity
  8
0
100
AcDbLine
 62
7
  6
BYLAYER
 10
200.5215468315
 20
81.0431743869
 11
200.5215468315
 21
83.3431743869
  0
LINE
  5
3E1
100
AcDbEntity
  8
0
100
AcDbLine
 62
7
  6
BYLAYER
 10
212.5215468315
 20
81.0431743869
 11
200.5215468315
 21
81.0431743869
  0
LINE
  5
3E2
100
AcDbEntity
  8
0
100
AcDbLine
 62
7
  6
BYLAYER
 10
212.5215468315
 20
83.3431743869
 11
200.5215468315
 21
83.3431743869
  0
LINE
  5
3E3
100
AcDbEntity
  8
0
100
AcDbLine
 62
7
  6
BYLAYER
 10
217.7715468315
 20
83.6433261921
 11
195.2715468315
 21
83.6433261921
  0
LINE
  5
3E4
100
AcDbEntity
  8
0
100
AcDbLine
 62
7
  6
BYLAYER
 10
212.5215468315
 20
81.0431743869
 11
212.5215468315
 21
83.3431743869
  0
LINE
  5
3E5
100
AcDbEntity
  8
0
100
AcDbLine
 62
7
  6
BYLAYER
 10
216.4215468315
 20
48.9235416446
 11
216.4215468315
 21
69.4031743869
  0
LINE
  5
3E6
100
AcDbEntity
  8
0
100
AcDbLine
 62
7
  6
BYLAYER
 10
216.5215468315
 20
48.5231743869
 11
216.5215468315
 21
33.0231743869
  0
LINE
  5
3E7
100
AcDbEntity
  8
0
100
AcDbLine
 62
7
  6
BYLAYER
 10
217.7215468315
 20
24.1431743869
 11
217.7215468315
 21
29.2082463942
  0
LINE
  5
3E8
100
AcDbEntity
  8
0
100
AcDbLine
 62
7
  6
BYLAYER
 10
217.7215468315
 20
83.6433261921
 11
217.7215468315
 21
144.7432807036
  0
LINE
  5
3E9
100
AcDbEntity
  8
0
100
AcDbLine
 62
7
  6
BYLAYER
 10
217.7715468315
 20
27.6431743869
 11
217.7715468315
 21
83.6433261921
  0
LINE
  5
3EA
100
AcDbEntity
  8
0
100
AcDbLine
 62
7
  6
BYLAYER
 10
217.7215468315
 20
94.3081743869
 11
195.3215468315
 21
94.3081743869
  0
LINE
  5
3EB
100
AcDbEntity
  8
0
100
AcDbLine
 62
7
  6
BYLAYER
 10
217.7215468315
 20
97.7431743869
 11
195.3215468315
 21
97.7431743869
  0
LINE
  5
3EC
100
AcDbEntity
  8
0
100
AcDbLine
 62
7
  6
BYLAYER
 10
217.7215468315
 20
143.0681743869
 11
195.3215468315
 21
143.0681743869
  0
LINE
  5
3ED
100
AcDbEntity
  8
0
100
AcDbLine
 62
7
  6
BYLAYER
 10
217.7215468315
 20
144.7432807036
 11
195.3215468315
 21
144.7432807036
  0
LINE
  5
3EE
100
AcDbEntity
  8
0
100
AcDbLine
 62
7
  6
BYLAYER
 10
539.7560839686
 20
287.9012497678
 11
518.4673218635
 21
290.1480076636
  0
LINE
  5
3EF
100
AcDbEntity
  8
0
100
AcDbLine
 62
7
  6
BYLAYER
 10
547.9711378311
 20
287.7145934592
 11
546.6881097578
 21
287.8500007431
  0
LINE
  5
3F0
100
AcDbEntity
  8
0
100
AcDbLine
 62
7
  6
BYLAYER
 10
540.9767589934
 20
289.4749487889
 11
540.9035524627
 21
289.4826748065
  0
LINE
  5
3F1
100
AcDbEntity
  8
0
100
AcDbLine
 62
7
  6
BYLAYER
 10
539.1929761502
 20
290.6368612657
 11
517.9042140451
 21
292.8836191615
  0
LINE
  5
3F2
100
AcDbEntity
  8
0
100
AcDbLine
 62
7
  6
BYLAYER
 10
542.2398193935
 20
291.226045102
 11
546.0764739066
 21
290.8211350476
  0
LINE
  5
3F3
100
AcDbEntity
  8
0
100
AcDbLine
 62
7
  6
BYLAYER
 10
547.1913021209
 20
291.5027896975
 11
542.7755758901
 21
291.9688134017
  0
LINE
  5
3F4
100
AcDbEntity
  8
0
100
AcDbLine
 62
7
  6
BYLAYER
 10
540.2886686609
 20
292.8174748815
 11
540.2411491026
 21
292.8224899661
  0
LINE
  5
3F5
100
AcDbEntity
  8
0
100
AcDbLine
 62
7
  6
BYLAYER
 10
518.4673218635
 20
290.1480076636
 11
517.9042140451
 21
292.8836191615
  0
LINE
  5
3F6
100
AcDbEntity
  8
0
100
AcDbLine
 62
7
  6
BYLAYER
 10
517.9042140451
 20
292.8836191615
 11
515.6464471126
 21
342.7762360452
  0
LINE
  5
3F7
100
AcDbEntity
  8
0
100
AcDbLine
 62
7
  6
BYLAYER
 10
515.6464471126
 20
342.7762360452
 11
515.9100992366
 21
346.658060572
  0
LINE
  5
3F8
100
AcDbEntity
  8
0
100
AcDbLine
 62
7
  6
BYLAYER
 10
523.0502728064
 20
368.1330750149
 11
533.3084946948
 21
382.3549875425
  0
LINE
  5
3F9
100
AcDbEntity
  8
0
100
AcDbLine
 62
7
  6
BYLAYER
 10
533.3880122692
 20
382.3465954745
 11
536.646968865
 21
386.8647854826
  0
LINE
  5
3FA
100
AcDbEntity
  8
0
100
AcDbLine
 62
7
  6
BYLAYER
 10
524.3333008797
 20
367.997667731
 11
530.2000166282
 21
376.1312330903
  0
LINE
  5
3FB
100
AcDbEntity
  8
0
100
AcDbLine
 62
7
  6
BYLAYER
 10
516.9693853996
 20
334.443308327
 11
517.1158912291
 21
331.2057911521
  0
LINE
  5
3FC
100
AcDbEntity
  8
0
100
AcDbLine
 62
7
  6
BYLAYER
 10
517.0347987708
 20
334.4462684472
 11
517.1775690286
 21
331.2913007344
  0
LINE
  5
3FD
100
AcDbEntity
  8
0
100
AcDbLine
 62
7
  6
BYLAYER
 10
517.8008578348
 20
331.1335016445
 11
517.677792938
 21
333.8530160714
  0
LINE
  5
3FE
100
AcDbEntity
  8
0
100
AcDbLine
 62
7
  6
BYLAYER
 10
517.9536057179
 20
332.2773209752
 11
517.9770466506
 21
331.7593182272
  0
LINE
  5
3FF
100
AcDbEntity
  8
0
100
AcDbLine
 62
7
  6
BYLAYER
 10
518.0190190891
 20
332.2802810954
 11
518.0387244501
 21
331.8448278095
  0
LINE
  5
400
100
AcDbEntity
  8
0
100
AcDbLine
 62
7
  6
BYLAYER
 10
519.9147418041
 20
334.1324634443
 11
520.0319464677
 21
331.5424497044
  0
LINE
  5
401
100
AcDbEntity
  8
0
100
AcDbLine
 62
7
  6
BYLAYER
 10
519.9801551753
 20
334.1354235646
 11
520.0936242672
 21
331.6279592868
  0
LINE
  5
402
100
AcDbEntity
  8
0
100
AcDbLine
 62
7
  6
BYLAYER
 10
520.7169130734
 20
331.4701601968
 11
520.5997084098
 21
334.0601739367
  0
LINE
  5
403
100
AcDbEntity
  8
0
100
AcDbLine
 62
7
  6
BYLAYER
 10
520.8443938862
 20
334.6787615687
 11
520.9908997157
 21
331.4412443938
  0
LINE
  5
404
100
AcDbEntity
  8
0
100
AcDbLine
 62
7
  6
BYLAYER
 10
520.9098072574
 20
334.681721689
 11
521.0525775152
 21
331.5267539762
  0
LINE
  5
405
100
AcDbEntity
  8
0
100
AcDbLine
 62
7
  6
BYLAYER
 10
517.0227330813
 20
348.2006067741
 11
517.0316283006
 21
348.3315735956
  0
LINE
  5
406
100
AcDbEntity
  8
0
100
AcDbLine
 62
7
  6
BYLAYER
 10
530.3626380989
 20
372.5375890262
 11
524.0469446877
 21
363.7815648124
  0
LINE
  5
407
100
AcDbEntity
  8
0
100
AcDbLine
 62
7
  6
BYLAYER
 10
540.4547327887
 20
386.4629244623
 11
551.9259158223
 21
402.3664761174
  0
LINE
  5
408
100
AcDbEntity
  8
0
100
AcDbLine
 62
7
  6
BYLAYER
 10
537.4799279574
 20
381.0760785923
 11
538.1892226518
 21
382.0594387895
  0
LINE
  5
409
100
AcDbEntity
  8
0
100
AcDbLine
 62
7
  6
BYLAYER
 10
517.0316283006
 20
348.3315735956
 11
522.9656906986
 21
356.5585077831
  0
LINE
  5
40A
100
AcDbEntity
  8
0
100
AcDbLine
 62
7
  6
BYLAYER
 10
515.9100992366
 20
346.658060572
 11
517.0587317442
 21
348.2505150175
  0
POLYLINE
  5
40B
100
AcDbEntity
  8
0
100
AcDb2dPolyline
 62
7
  6
BYLAYER
 66
1
 70
0
  0
VERTEX
  5
40C
100
AcDbEntity
  8
0
100
AcDbVertex
 62
7
  6
BYLAYER
100
AcDb2dVertex
 10
519.9454031182
 20
334.6078930639
  0
VERTEX
  5
40D
100
AcDbEntity
  8
0
100
AcDbVertex
 62
7
  6
BYLAYER
100
AcDb2dVertex
 10
520.0148355303
 20
334.520958954
  0
VERTEX
  5
40E
100
AcDbEntity
  8
0
100
AcDbVertex
 62
7
  6
BYLAYER
100
AcDb2dVertex
 10
520.1022672079
 20
334.4498155624
  0
VERTEX
  5
40F
100
AcDbEntity
  8
0
100
AcDbVertex
 62
7
  6
BYLAYER
100
AcDb2dVertex
 10
520.2032979745
 20
334.4011699294
  0
VERTEX
  5
410
100
AcDbEntity
  8
0
100
AcDbVertex
 62
7
  6
BYLAYER
100
AcDb2dVertex
 10
520.3101125567
 20
334.3760793034
  0
SEQEND
  5
411
100
AcDbEntity
  8
0
  0
POLYLINE
  5
412
100
AcDbEntity
  8
0
100
AcDb2dPolyline
 62
7
  6
BYLAYER
 66
1
 70
0
  0
VERTEX
  5
413
100
AcDbEntity
  8
0
100
AcDbVertex
 62
7
  6
BYLAYER
100
AcDb2dVertex
 10
520.5935062304
 20
334.8085581514
  0
VERTEX
  5
414
100
AcDbEntity
  8
0
100
AcDbVertex
 62
7
  6
BYLAYER
100
AcDb2dVertex
 10
520.5409195517
 20
334.8871931446
  0
VERTEX
  5
415
100
AcDbEntity
  8
0
100
AcDbVertex
 62
7
  6
BYLAYER
100
AcDb2dVertex
 10
520.4733507293
 20
334.9557718618
  0
VERTEX
  5
416
100
AcDbEntity
  8
0
100
AcDbVertex
 62
7
  6
BYLAYER
100
AcDb2dVertex
 10
520.3931799956
 20
335.0099712072
  0
VERTEX
  5
417
100
AcDbEntity
  8
0
100
AcDbVertex
 62
7
  6
BYLAYER
100
AcDb2dVertex
 10
520.3051657883
 20
335.048181728
  0
VERTEX
  5
418
100
AcDbEntity
  8
0
100
AcDbVertex
 62
7
  6
BYLAYER
100
AcDb2dVertex
 10
520.2132897967
 20
335.0672105803
  0
SEQEND
  5
419
100
AcDbEntity
  8
0
  0
POLYLINE
  5
41A
100
AcDbEntity
  8
0
100
AcDb2dPolyline
 62
7
  6
BYLAYER
 66
1
 70
0
  0
VERTEX
  5
41B
100
AcDbEntity
  8
0
100
AcDbVertex
 62
7
  6
BYLAYER
100
AcDb2dVertex
 10
519.8815518938
 20
334.8079550689
  0
VERTEX
  5
41C
100
AcDbEntity
  8
0
100
AcDbVertex
 62
7
  6
BYLAYER
100
AcDb2dVertex
 10
519.9018508978
 20
334.7026760035
  0
VERTEX
  5
41D
100
AcDbEntity
  8
0
100
AcDbVertex
 62
7
  6
BYLAYER
100
AcDb2dVertex
 10
519.9454031182
 20
334.6078930639
  0
SEQEND
  5
41E
100
AcDbEntity
  8
0
  0
POLYLINE
  5
41F
100
AcDbEntity
  8
0
100
AcDb2dPolyline
 62
7
  6
BYLAYER
 66
1
 70
0
  0
VERTEX
  5
420
100
AcDbEntity
  8
0
100
AcDbVertex
 62
7
  6
BYLAYER
100
AcDb2dVertex
 10
519.8198740943
 20
334.7224454866
  0
VERTEX
  5
421
100
AcDbEntity
  8
0
100
AcDbVertex
 62
7
  6
BYLAYER
100
AcDb2dVertex
 10
519.8350595258
 20
334.6328096542
  0
VERTEX
  5
422
100
AcDbEntity
  8
0
100
AcDbVertex
 62
7
  6
BYLAYER
100
AcDb2dVertex
 10
519.868201885
 20
334.5495854126
  0
VERTEX
  5
423
100
AcDbEntity
  8
0
100
AcDbVertex
 62
7
  6
BYLAYER
100
AcDb2dVertex
 10
519.9207885636
 20
334.4709504194
  0
VERTEX
  5
424
100
AcDbEntity
  8
0
100
AcDbVertex
 62
7
  6
BYLAYER
100
AcDb2dVertex
 10
519.9883573861
 20
334.4023717022
  0
VERTEX
  5
425
100
AcDbEntity
  8
0
100
AcDbVertex
 62
7
  6
BYLAYER
100
AcDb2dVertex
 10
520.0685281197
 20
334.3481723569
  0
VERTEX
  5
426
100
AcDbEntity
  8
0
100
AcDbVertex
 62
7
  6
BYLAYER
100
AcDb2dVertex
 10
520.1565423271
 20
334.3099618361
  0
VERTEX
  5
427
100
AcDbEntity
  8
0
100
AcDbVertex
 62
7
  6
BYLAYER
100
AcDb2dVertex
 10
520.2484183187
 20
334.2909329837
  0
VERTEX
  5
428
100
AcDbEntity
  8
0
100
AcDbVertex
 62
7
  6
BYLAYER
100
AcDb2dVertex
 10
520.3394456177
 20
334.2906587216
  0
VERTEX
  5
429
100
AcDbEntity
  8
0
100
AcDbVertex
 62
7
  6
BYLAYER
100
AcDb2dVertex
 10
520.4248297003
 20
334.3105692597
  0
VERTEX
  5
42A
100
AcDbEntity
  8
0
100
AcDbVertex
 62
7
  6
BYLAYER
100
AcDb2dVertex
 10
520.500841018
 20
334.3482855773
  0
VERTEX
  5
42B
100
AcDbEntity
  8
0
100
AcDbVertex
 62
7
  6
BYLAYER
100
AcDb2dVertex
 10
520.5628218269
 20
334.4031919797
  0
VERTEX
  5
42C
100
AcDbEntity
  8
0
100
AcDbVertex
 62
7
  6
BYLAYER
100
AcDb2dVertex
 10
520.5815807206
 20
334.4266358911
  0
SEQEND
  5
42D
100
AcDbEntity
  8
0
  0
POLYLINE
  5
42E
100
AcDbEntity
  8
0
100
AcDb2dPolyline
 62
7
  6
BYLAYER
 66
1
 70
0
  0
VERTEX
  5
42F
100
AcDbEntity
  8
0
100
AcDbVertex
 62
7
  6
BYLAYER
100
AcDb2dVertex
 10
520.6418340211
 20
334.6356980775
  0
VERTEX
  5
430
100
AcDbEntity
  8
0
100
AcDbVertex
 62
7
  6
BYLAYER
100
AcDb2dVertex
 10
520.6266485896
 20
334.7253339099
  0
VERTEX
  5
431
100
AcDbEntity
  8
0
100
AcDbVertex
 62
7
  6
BYLAYER
100
AcDb2dVertex
 10
520.5935062304
 20
334.8085581514
  0
SEQEND
  5
432
100
AcDbEntity
  8
0
  0
LINE
  5
433
100
AcDbEntity
  8
0
100
AcDbLine
 62
7
  6
BYLAYER
 10
521.6758663214
 20
331.3689548862
 11
521.5293604919
 21
334.6064720611
  0
LINE
  5
434
100
AcDbEntity
  8
0
100
AcDbLine
 62
7
  6
BYLAYER
 10
521.8326483001
 20
333.9300528231
 11
521.8560892328
 21
333.4120500751
  0
LINE
  5
435
100
AcDbEntity
  8
0
100
AcDbLine
 62
7
  6
BYLAYER
 10
521.926412031
 20
331.8580418312
 11
521.9498529637
 21
331.3400390832
  0
LINE
  5
436
100
AcDbEntity
  8
0
100
AcDbLine
 62
7
  6
BYLAYER
 10
521.8980616713
 20
333.9330129434
 11
521.9177670323
 21
333.4975596575
  0
LINE
  5
437
100
AcDbEntity
  8
0
100
AcDbLine
 62
7
  6
BYLAYER
 10
521.9896149603
 20
331.909848768
 11
522.0115307632
 21
331.4255486655
  0
LINE
  5
438
100
AcDbEntity
  8
0
100
AcDbLine
 62
7
  6
BYLAYER
 10
522.9656906986
 20
356.5585077831
 11
522.6851686616
 21
362.7575437937
  0
LINE
  5
439
100
AcDbEntity
  8
0
100
AcDbLine
 62
7
  6
BYLAYER
 10
524.6897193865
 20
331.0508810528
 11
524.6662784537
 21
331.5688838008
  0
LINE
  5
43A
100
AcDbEntity
  8
0
100
AcDbLine
 62
7
  6
BYLAYER
 10
524.5959556556
 20
333.1228920448
 11
524.5725147229
 21
333.6408947927
  0
LINE
  5
43B
100
AcDbEntity
  8
0
100
AcDbLine
 62
7
  6
BYLAYER
 10
524.1536796553
 20
356.4331306683
 11
524.316301126
 21
352.8394866042
  0
LINE
  5
43C
100
AcDbEntity
  8
0
100
AcDbLine
 62
7
  6
BYLAYER
 10
522.6851686616
 20
362.7575437937
 11
523.0502728064
 21
368.1330750149
  0
LINE
  5
43D
100
AcDbEntity
  8
0
100
AcDbLine
 62
7
  6
BYLAYER
 10
524.3333008797
 20
367.997667731
 11
524.0469446877
 21
363.7815648124
  0
LINE
  5
43E
100
AcDbEntity
  8
0
100
AcDbLine
 62
7
  6
BYLAYER
 10
520.6346542729
 20
334.5484226051
 11
520.6418340211
 21
334.6356980775
  0
LINE
  5
43F
100
AcDbEntity
  8
0
100
AcDbLine
 62
7
  6
BYLAYER
 10
519.8924717063
 20
334.9099393856
 11
519.8815518938
 21
334.8079550689
  0
LINE
  5
440
100
AcDbEntity
  8
0
100
AcDbLine
 62
7
  6
BYLAYER
 10
524.1536796553
 20
356.4331306683
 11
519.3736501936
 21
349.8061380352
  0
LINE
  5
441
100
AcDbEntity
  8
0
100
AcDbLine
 62
7
  6
BYLAYER
 10
524.316301126
 20
352.8394866042
 11
521.9334914868
 21
349.5359793661
  0
POLYLINE
  5
442
100
AcDbEntity
  8
0
100
AcDb2dPolyline
 62
7
  6
BYLAYER
 66
1
 70
0
  0
VERTEX
  5
443
100
AcDbEntity
  8
0
100
AcDbVertex
 62
7
  6
BYLAYER
100
AcDb2dVertex
 10
519.6448628618
 20
332.2871430735
  0
VERTEX
  5
444
100
AcDbEntity
  8
0
100
AcDbVertex
 62
7
  6
BYLAYER
100
AcDb2dVertex
 10
519.7189139668
 20
332.4660404967
  0
VERTEX
  5
445
100
AcDbEntity
  8
0
100
AcDbVertex
 62
7
  6
BYLAYER
100
AcDb2dVertex
 10
519.7598469736
 20
332.6584179331
  0
VERTEX
  5
446
100
AcDbEntity
  8
0
100
AcDbVertex
 62
7
  6
BYLAYER
100
AcDb2dVertex
 10
519.7678541542
 20
332.8591434267
  0
VERTEX
  5
447
100
AcDbEntity
  8
0
100
AcDbVertex
 62
7
  6
BYLAYER
100
AcDb2dVertex
 10
519.7415162763
 20
333.063493604
  0
VERTEX
  5
448
100
AcDbEntity
  8
0
100
AcDbVertex
 62
7
  6
BYLAYER
100
AcDb2dVertex
 10
519.682695734
 20
333.266398758
  0
VERTEX
  5
449
100
AcDbEntity
  8
0
100
AcDbVertex
 62
7
  6
BYLAYER
100
AcDb2dVertex
 10
519.5916651065
 20
333.462718457
  0
VERTEX
  5
44A
100
AcDbEntity
  8
0
100
AcDbVertex
 62
7
  6
BYLAYER
100
AcDb2dVertex
 10
519.4717746056
 20
333.6479415013
  0
VERTEX
  5
44B
100
AcDbEntity
  8
0
100
AcDbVertex
 62
7
  6
BYLAYER
100
AcDb2dVertex
 10
519.3249619406
 20
333.8170135821
  0
VERTEX
  5
44C
100
AcDbEntity
  8
0
100
AcDbVertex
 62
7
  6
BYLAYER
100
AcDb2dVertex
 10
519.1557371988
 20
333.9664235945
  0
VERTEX
  5
44D
100
AcDbEntity
  8
0
100
AcDbVertex
 62
7
  6
BYLAYER
100
AcDb2dVertex
 10
518.9675135427
 20
334.0916981038
  0
VERTEX
  5
44E
100
AcDbEntity
  8
0
100
AcDbVertex
 62
7
  6
BYLAYER
100
AcDb2dVertex
 10
518.7655194568
 20
334.1906697914
  0
VERTEX
  5
44F
100
AcDbEntity
  8
0
100
AcDbVertex
 62
7
  6
BYLAYER
100
AcDb2dVertex
 10
518.5569169219
 20
334.2592228862
  0
VERTEX
  5
450
100
AcDbEntity
  8
0
100
AcDbVertex
 62
7
  6
BYLAYER
100
AcDb2dVertex
 10
518.339318611
 20
334.2987293118
  0
SEQEND
  5
451
100
AcDbEntity
  8
0
  0
POLYLINE
  5
452
100
AcDbEntity
  8
0
100
AcDb2dPolyline
 62
7
  6
BYLAYER
 66
1
 70
0
  0
VERTEX
  5
453
100
AcDbEntity
  8
0
100
AcDbVertex
 62
7
  6
BYLAYER
100
AcDb2dVertex
 10
519.8801273947
 20
334.931507673
  0
VERTEX
  5
454
100
AcDbEntity
  8
0
100
AcDbVertex
 62
7
  6
BYLAYER
100
AcDb2dVertex
 10
519.8529459257
 20
334.8867148664
  0
VERTEX
  5
455
100
AcDbEntity
  8
0
100
AcDbVertex
 62
7
  6
BYLAYER
100
AcDb2dVertex
 10
519.8270538424
 20
334.8097209589
  0
VERTEX
  5
456
100
AcDbEntity
  8
0
100
AcDbVertex
 62
7
  6
BYLAYER
100
AcDb2dVertex
 10
519.8198740943
 20
334.7224454866
  0
SEQEND
  5
457
100
AcDbEntity
  8
0
  0
LINE
  5
458
100
AcDbEntity
  8
0
100
AcDbLine
 62
7
  6
BYLAYER
 10
548.8846219423
 20
379.872458291
 11
549.5939166366
 21
380.8558184882
  0
LINE
  5
459
100
AcDbEntity
  8
0
100
AcDbLine
 62
7
  6
BYLAYER
 10
548.9008840894
 20
379.5130938846
 11
549.6101787837
 21
380.4964540818
  0
LINE
  5
45A
100
AcDbEntity
  8
0
100
AcDbLine
 62
7
  6
BYLAYER
 10
517.1158912291
 20
331.2057911521
 11
517.8008578348
 21
331.1335016445
  0
LINE
  5
45B
100
AcDbEntity
  8
0
100
AcDbLine
 62
7
  6
BYLAYER
 10
539.7560839686
 20
287.9012497678
 11
539.1929761502
 21
290.6368612657
  0
LINE
  5
45C
100
AcDbEntity
  8
0
100
AcDbLine
 62
7
  6
BYLAYER
 10
530.2000166282
 20
376.1312330903
 11
530.3626380989
 21
372.5375890262
  0
POLYLINE
  5
45D
100
AcDbEntity
  8
0
100
AcDb2dPolyline
 62
7
  6
BYLAYER
 66
1
 70
0
  0
VERTEX
  5
45E
100
AcDbEntity
  8
0
100
AcDbVertex
 62
7
  6
BYLAYER
100
AcDb2dVertex
 10
520.5815807206
 20
334.4266358911
  0
VERTEX
  5
45F
100
AcDbEntity
  8
0
100
AcDbVertex
 62
7
  6
BYLAYER
100
AcDb2dVertex
 10
520.6087621897
 20
334.4714286977
  0
VERTEX
  5
460
100
AcDbEntity
  8
0
100
AcDbVertex
 62
7
  6
BYLAYER
100
AcDb2dVertex
 10
520.6346542729
 20
334.5484226051
  0
SEQEND
  5
461
100
AcDbEntity
  8
0
  0
LINE
  5
462
100
AcDbEntity
  8
0
100
AcDbLine
 62
7
  6
BYLAYER
 10
519.5666495032
 20
332.1601141442
 11
519.6448628618
 21
332.2871430735
  0
POLYLINE
  5
463
100
AcDbEntity
  8
0
100
AcDb2dPolyline
 62
7
  6
BYLAYER
 66
1
 70
0
  0
VERTEX
  5
464
100
AcDbEntity
  8
0
100
AcDbVertex
 62
7
  6
BYLAYER
100
AcDb2dVertex
 10
518.9625602867
 20
332.5127141928
  0
VERTEX
  5
465
100
AcDbEntity
  8
0
100
AcDbVertex
 62
7
  6
BYLAYER
100
AcDb2dVertex
 10
518.9903464988
 20
332.5545528224
  0
VERTEX
  5
466
100
AcDbEntity
  8
0
100
AcDbVertex
 62
7
  6
BYLAYER
100
AcDb2dVertex
 10
519.0450730117
 20
332.6710329992
  0
VERTEX
  5
467
100
AcDbEntity
  8
0
100
AcDbVertex
 62
7
  6
BYLAYER
100
AcDb2dVertex
 10
519.0765058432
 20
332.7978254725
  0
VERTEX
  5
468
100
AcDbEntity
  8
0
100
AcDbVertex
 62
7
  6
BYLAYER
100
AcDb2dVertex
 10
519.0826044217
 20
332.9314628147
  0
VERTEX
  5
469
100
AcDbEntity
  8
0
100
AcDbVertex
 62
7
  6
BYLAYER
100
AcDb2dVertex
 10
519.0642944174
 20
333.0676761721
  0
VERTEX
  5
46A
100
AcDbEntity
  8
0
100
AcDbVertex
 62
7
  6
BYLAYER
100
AcDb2dVertex
 10
519.0210294829
 20
333.2023520439
  0
VERTEX
  5
46B
100
AcDbEntity
  8
0
100
AcDbVertex
 62
7
  6
BYLAYER
100
AcDb2dVertex
 10
518.9551850997
 20
333.3315569443
  0
VERTEX
  5
46C
100
AcDbEntity
  8
0
100
AcDbVertex
 62
7
  6
BYLAYER
100
AcDb2dVertex
 10
518.8677750418
 20
333.4510274479
  0
VERTEX
  5
46D
100
AcDbEntity
  8
0
100
AcDbVertex
 62
7
  6
BYLAYER
100
AcDb2dVertex
 10
518.7623380839
 20
333.5576398735
  0
VERTEX
  5
46E
100
AcDbEntity
  8
0
100
AcDbVertex
 62
7
  6
BYLAYER
100
AcDb2dVertex
 10
518.6413258457
 20
333.647495103
  0
VERTEX
  5
46F
100
AcDbEntity
  8
0
100
AcDbVertex
 62
7
  6
BYLAYER
100
AcDb2dVertex
 10
518.5090135664
 20
333.7186560218
  0
VERTEX
  5
470
100
AcDbEntity
  8
0
100
AcDbVertex
 62
7
  6
BYLAYER
100
AcDb2dVertex
 10
518.3711302478
 20
333.7674812066
  0
VERTEX
  5
471
100
AcDbEntity
  8
0
100
AcDbVertex
 62
7
  6
BYLAYER
100
AcDb2dVertex
 10
518.2257662226
 20
333.7951844653
  0
SEQEND
  5
472
100
AcDbEntity
  8
0
  0
LINE
  5
473
100
AcDbEntity
  8
0
100
AcDbLine
 62
7
  6
BYLAYER
 10
517.677792938
 20
333.8530160714
 11
517.7394707376
 21
333.9385256537
  0
LINE
  5
474
100
AcDbEntity
  8
0
100
AcDbLine
 62
253
  6
BYLAYER
 10
518.2257662226
 20
333.7951844653
 11
518.2874440221
 21
333.8806940477
  0
LINE
  5
475
100
AcDbEntity
  8
0
100
AcDbLine
 62
7
  6
BYLAYER
 10
517.1158912291
 20
331.2057911521
 11
517.1775690286
 21
331.2913007344
  0
LINE
  5
476
100
AcDbEntity
  8
0
100
AcDbLine
 62
7
  6
BYLAYER
 10
517.9770466506
 20
331.7593182272
 11
518.0387244501
 21
331.8448278095
  0
LINE
  5
477
100
AcDbEntity
  8
0
100
AcDbLine
 62
7
  6
BYLAYER
 10
543.1510459547
 20
366.0116942339
 11
549.0177617032
 21
374.1452595931
  0
LINE
  5
478
100
AcDbEntity
  8
0
100
AcDbLine
 62
253
  6
BYLAYER
 10
518.4565232746
 20
331.7087155719
 11
518.5182010741
 21
331.7942251542
  0
LINE
  5
479
100
AcDbEntity
  8
0
100
AcDbLine
 62
7
  6
BYLAYER
 10
554.6813089815
 20
380.10612432
 11
557.9357309701
 21
384.6180275868
  0
LINE
  5
47A
100
AcDbEntity
  8
0
100
AcDbLine
 62
7
  6
BYLAYER
 10
544.434074028
 20
365.87628695
 11
554.6922959164
 21
380.0981994775
  0
LINE
  5
47B
100
AcDbEntity
  8
0
100
AcDbLine
 62
7
  6
BYLAYER
 10
520.0319464677
 20
331.5424497044
 11
520.0936242672
 21
331.6279592868
  0
LINE
  5
47C
100
AcDbEntity
  8
0
100
AcDbLine
 62
7
  6
BYLAYER
 10
521.8560892328
 20
333.4120500751
 11
521.9177670323
 21
333.4975596575
  0
LINE
  5
47D
100
AcDbEntity
  8
0
100
AcDbLine
 62
7
  6
BYLAYER
 10
520.9908997157
 20
331.4412443938
 11
521.0525775152
 21
331.5267539762
  0
LINE
  5
47E
100
AcDbEntity
  8
0
100
AcDbLine
 62
7
  6
BYLAYER
 10
519.8988862884
 20
334.9549515843
 11
519.8801273947
 21
334.931507673
  0
POLYLINE
  5
47F
100
AcDbEntity
  8
0
100
AcDb2dPolyline
 62
7
  6
BYLAYER
 66
1
 70
0
  0
VERTEX
  5
480
100
AcDbEntity
  8
0
100
AcDbVertex
 62
7
  6
BYLAYER
100
AcDb2dVertex
 10
518.5182010741
 20
331.7942251542
  0
VERTEX
  5
481
100
AcDbEntity
  8
0
100
AcDbVertex
 62
7
  6
BYLAYER
100
AcDb2dVertex
 10
518.7586008052
 20
331.7894572487
  0
VERTEX
  5
482
100
AcDbEntity
  8
0
100
AcDbVertex
 62
7
  6
BYLAYER
100
AcDb2dVertex
 10
518.9832116744
 20
331.8228746891
  0
VERTEX
  5
483
100
AcDbEntity
  8
0
100
AcDbVertex
 62
7
  6
BYLAYER
100
AcDb2dVertex
 10
519.1950630357
 20
331.895844877
  0
VERTEX
  5
484
100
AcDbEntity
  8
0
100
AcDbVertex
 62
7
  6
BYLAYER
100
AcDb2dVertex
 10
519.3850668273
 20
332.0042656081
  0
VERTEX
  5
485
100
AcDbEntity
  8
0
100
AcDbVertex
 62
7
  6
BYLAYER
100
AcDb2dVertex
 10
519.5463228644
 20
332.14638858
  0
VERTEX
  5
486
100
AcDbEntity
  8
0
100
AcDbVertex
 62
7
  6
BYLAYER
100
AcDb2dVertex
 10
519.5612702815
 20
332.1645430957
  0
SEQEND
  5
487
100
AcDbEntity
  8
0
  0
POLYLINE
  5
488
100
AcDbEntity
  8
0
100
AcDb2dPolyline
 62
7
  6
BYLAYER
 66
1
 70
0
  0
VERTEX
  5
489
100
AcDbEntity
  8
0
100
AcDbVertex
 62
7
  6
BYLAYER
100
AcDb2dVertex
 10
518.2960890208
 20
332.2411762214
  0
VERTEX
  5
48A
100
AcDbEntity
  8
0
100
AcDbVertex
 62
7
  6
BYLAYER
100
AcDb2dVertex
 10
518.4403288594
 20
332.238315478
  0
VERTEX
  5
48B
100
AcDbEntity
  8
0
100
AcDbVertex
 62
7
  6
BYLAYER
100
AcDb2dVertex
 10
518.5750953809
 20
332.2583659423
  0
VERTEX
  5
48C
100
AcDbEntity
  8
0
100
AcDbVertex
 62
7
  6
BYLAYER
100
AcDb2dVertex
 10
518.7022061977
 20
332.302148055
  0
VERTEX
  5
48D
100
AcDbEntity
  8
0
100
AcDbVertex
 62
7
  6
BYLAYER
100
AcDb2dVertex
 10
518.8162084727
 20
332.3672004937
  0
VERTEX
  5
48E
100
AcDbEntity
  8
0
100
AcDbVertex
 62
7
  6
BYLAYER
100
AcDb2dVertex
 10
518.9129620949
 20
332.4524742768
  0
VERTEX
  5
48F
100
AcDbEntity
  8
0
100
AcDbVertex
 62
7
  6
BYLAYER
100
AcDb2dVertex
 10
518.9625602867
 20
332.5127141928
  0
SEQEND
  5
490
100
AcDbEntity
  8
0
  0
POLYLINE
  5
491
100
AcDbEntity
  8
0
100
AcDb2dPolyline
 62
7
  6
BYLAYER
 66
1
 70
0
  0
VERTEX
  5
492
100
AcDbEntity
  8
0
100
AcDbVertex
 62
7
  6
BYLAYER
100
AcDb2dVertex
 10
518.4565232746
 20
331.7087155719
  0
VERTEX
  5
493
100
AcDbEntity
  8
0
100
AcDbVertex
 62
7
  6
BYLAYER
100
AcDb2dVertex
 10
518.6726172944
 20
331.7024512916
  0
VERTEX
  5
494
100
AcDbEntity
  8
0
100
AcDbVertex
 62
7
  6
BYLAYER
100
AcDb2dVertex
 10
518.8769877158
 20
331.7274203468
  0
VERTEX
  5
495
100
AcDbEntity
  8
0
100
AcDbVertex
 62
7
  6
BYLAYER
100
AcDb2dVertex
 10
519.0719200163
 20
331.7845015061
  0
VERTEX
  5
496
100
AcDbEntity
  8
0
100
AcDbVertex
 62
7
  6
BYLAYER
100
AcDb2dVertex
 10
519.2505577634
 20
331.8710584633
  0
VERTEX
  5
497
100
AcDbEntity
  8
0
100
AcDbVertex
 62
7
  6
BYLAYER
100
AcDb2dVertex
 10
519.4078193871
 20
331.9860119951
  0
VERTEX
  5
498
100
AcDbEntity
  8
0
100
AcDbVertex
 62
7
  6
BYLAYER
100
AcDb2dVertex
 10
519.5406657784
 20
332.1255696217
  0
VERTEX
  5
499
100
AcDbEntity
  8
0
100
AcDbVertex
 62
7
  6
BYLAYER
100
AcDb2dVertex
 10
519.5666495032
 20
332.1601141442
  0
SEQEND
  5
49A
100
AcDbEntity
  8
0
  0
LINE
  5
49B
100
AcDbEntity
  8
0
100
AcDbLine
 62
7
  6
BYLAYER
 10
517.1775690286
 20
331.2913007344
 11
517.810462282
 21
331.2245069064
  0
LINE
  5
49C
100
AcDbEntity
  8
0
100
AcDbLine
 62
7
  6
BYLAYER
 10
517.9770466506
 20
331.7593182272
 11
518.4565232746
 21
331.7087155719
  0
LINE
  5
49D
100
AcDbEntity
  8
0
100
AcDbLine
 62
7
  6
BYLAYER
 10
520.0319464677
 20
331.5424497044
 11
520.7169130734
 21
331.4701601968
  0
LINE
  5
49E
100
AcDbEntity
  8
0
100
AcDbLine
 62
7
  6
BYLAYER
 10
520.9908997157
 20
331.4412443938
 11
521.6758663214
 21
331.3689548862
  0
LINE
  5
49F
100
AcDbEntity
  8
0
100
AcDbLine
 62
7
  6
BYLAYER
 10
521.9498529637
 20
331.3400390832
 11
524.6897193865
 21
331.0508810528
  0
LINE
  5
4A0
100
AcDbEntity
  8
0
100
AcDbLine
 62
7
  6
BYLAYER
 10
518.0387244501
 20
331.8448278095
 11
518.5182010741
 21
331.7942251542
  0
LINE
  5
4A1
100
AcDbEntity
  8
0
100
AcDbLine
 62
7
  6
BYLAYER
 10
520.0936242672
 20
331.6279592868
 11
520.7265175206
 21
331.5611654588
  0
LINE
  5
4A2
100
AcDbEntity
  8
0
100
AcDbLine
 62
7
  6
BYLAYER
 10
521.0525775152
 20
331.5267539762
 11
521.6854707686
 21
331.4599601482
  0
LINE
  5
4A3
100
AcDbEntity
  8
0
100
AcDbLine
 62
7
  6
BYLAYER
 10
522.0115307632
 20
331.4255486655
 11
524.6993238336
 21
331.1418863148
  0
LINE
  5
4A4
100
AcDbEntity
  8
0
100
AcDbLine
 62
7
  6
BYLAYER
 10
524.6662784537
 20
331.5688838008
 11
522.924384534
 21
331.7527185348
  0
LINE
  5
4A5
100
AcDbEntity
  8
0
100
AcDbLine
 62
7
  6
BYLAYER
 10
518.2960890208
 20
332.2411762214
 11
517.9536057179
 21
332.2773209752
  0
LINE
  5
4A6
100
AcDbEntity
  8
0
100
AcDbLine
 62
7
  6
BYLAYER
 10
517.677792938
 20
333.8530160714
 11
518.2257662226
 21
333.7951844653
  0
LINE
  5
4A7
100
AcDbEntity
  8
0
100
AcDbLine
 62
7
  6
BYLAYER
 10
521.8560892328
 20
333.4120500751
 11
523.5979831526
 21
333.2282153412
  0
LINE
  5
4A8
100
AcDbEntity
  8
0
100
AcDbLine
 62
7
  6
BYLAYER
 10
517.7394707376
 20
333.9385256537
 11
518.2874440221
 21
333.8806940477
  0
LINE
  5
4A9
100
AcDbEntity
  8
0
100
AcDbLine
 62
7
  6
BYLAYER
 10
521.9177670323
 20
333.4975596575
 11
523.6596609521
 21
333.3137249235
  0
LINE
  5
4AA
100
AcDbEntity
  8
0
100
AcDbLine
 62
7
  6
BYLAYER
 10
524.5725147229
 20
333.6408947927
 11
521.8326483001
 21
333.9300528231
  0
LINE
  5
4AB
100
AcDbEntity
  8
0
100
AcDbLine
 62
7
  6
BYLAYER
 10
520.5997084098
 20
334.0601739367
 11
519.9147418041
 21
334.1324634443
  0
LINE
  5
4AC
100
AcDbEntity
  8
0
100
AcDbLine
 62
7
  6
BYLAYER
 10
516.9693853996
 20
334.443308327
 11
518.339318611
 21
334.2987293118
  0
LINE
  5
4AD
100
AcDbEntity
  8
0
100
AcDbLine
 62
7
  6
BYLAYER
 10
521.5293604919
 20
334.6064720611
 11
520.8443938862
 21
334.6787615687
  0
POLYLINE
  5
4AE
100
AcDbEntity
  8
0
100
AcDb2dPolyline
 62
7
  6
BYLAYER
 66
1
 70
0
  0
VERTEX
  5
4AF
100
AcDbEntity
  8
0
100
AcDbVertex
 62
7
  6
BYLAYER
100
AcDb2dVertex
 10
518.2874440221
 20
333.8806940477
  0
VERTEX
  5
4B0
100
AcDbEntity
  8
0
100
AcDbVertex
 62
7
  6
BYLAYER
100
AcDb2dVertex
 10
518.4514252366
 20
333.8475518777
  0
VERTEX
  5
4B1
100
AcDbEntity
  8
0
100
AcDbVertex
 62
7
  6
BYLAYER
100
AcDb2dVertex
 10
518.6046709703
 20
333.7883513344
  0
VERTEX
  5
4B2
100
AcDbEntity
  8
0
100
AcDbVertex
 62
7
  6
BYLAYER
100
AcDb2dVertex
 10
518.7497910614
 20
333.7012219838
  0
VERTEX
  5
4B3
100
AcDbEntity
  8
0
100
AcDbVertex
 62
7
  6
BYLAYER
100
AcDb2dVertex
 10
518.8789559956
 20
333.5917751281
  0
VERTEX
  5
4B4
100
AcDbEntity
  8
0
100
AcDbVertex
 62
7
  6
BYLAYER
100
AcDb2dVertex
 10
518.9861401778
 20
333.4630446044
  0
VERTEX
  5
4B5
100
AcDbEntity
  8
0
100
AcDbVertex
 62
7
  6
BYLAYER
100
AcDb2dVertex
 10
519.0685416893
 20
333.3208923743
  0
VERTEX
  5
4B6
100
AcDbEntity
  8
0
100
AcDbVertex
 62
7
  6
BYLAYER
100
AcDb2dVertex
 10
519.1214721426
 20
333.1701587328
  0
VERTEX
  5
4B7
100
AcDbEntity
  8
0
100
AcDbVertex
 62
7
  6
BYLAYER
100
AcDb2dVertex
 10
519.144565348
 20
333.0169425166
  0
VERTEX
  5
4B8
100
AcDbEntity
  8
0
100
AcDbVertex
 62
7
  6
BYLAYER
100
AcDb2dVertex
 10
519.1351838907
 20
332.8671535878
  0
VERTEX
  5
4B9
100
AcDbEntity
  8
0
100
AcDbVertex
 62
7
  6
BYLAYER
100
AcDb2dVertex
 10
519.095453059
 20
332.7261991656
  0
VERTEX
  5
4BA
100
AcDbEntity
  8
0
100
AcDbVertex
 62
7
  6
BYLAYER
100
AcDb2dVertex
 10
519.0236355608
 20
332.5979967653
  0
SEQEND
  5
4BB
100
AcDbEntity
  8
0
  0
LINE
  5
4BC
100
AcDbEntity
  8
0
100
AcDbLine
 62
7
  6
BYLAYER
 10
540.2472474078
 20
292.6877283137
 11
540.9047164762
 21
289.4937042133
  0
LINE
  5
4BD
100
AcDbEntity
  8
0
100
AcDbLine
 62
7
  6
BYLAYER
 10
540.9767589934
 20
289.4749487889
 11
540.2886686609
 21
292.8174748815
  0
LINE
  5
4BE
100
AcDbEntity
  8
0
100
AcDbLine
 62
7
  6
BYLAYER
 10
539.1929761502
 20
290.6368612657
 11
536.9352092177
 21
340.5294781495
  0
LINE
  5
4BF
100
AcDbEntity
  8
0
100
AcDbLine
 62
7
  6
BYLAYER
 10
540.2472474078
 20
292.6877283137
 11
538.0396609429
 21
341.4714464842
  0
LINE
  5
4C0
100
AcDbEntity
  8
0
100
AcDbLine
 62
7
  6
BYLAYER
 10
540.2886686609
 20
292.8174748815
 11
538.0932788063
 21
341.3316697472
  0
LINE
  5
4C1
100
AcDbEntity
  8
0
100
AcDbLine
 62
7
  6
BYLAYER
 10
536.9352092177
 20
340.5294781495
 11
537.1988613417
 21
344.4113026762
  0
LINE
  5
4C2
100
AcDbEntity
  8
0
100
AcDbLine
 62
7
  6
BYLAYER
 10
521.9498529637
 20
331.3400390832
 11
522.0115307632
 21
331.4255486655
  0
LINE
  5
4C3
100
AcDbEntity
  8
0
100
AcDbLine
 62
7
  6
BYLAYER
 10
523.5979831526
 20
333.2282153412
 11
523.6596609521
 21
333.3137249235
  0
LINE
  5
4C4
100
AcDbEntity
  8
0
100
AcDbLine
 62
7
  6
BYLAYER
 10
522.924384534
 20
331.7527185348
 11
522.9860623335
 21
331.8382281171
  0
LINE
  5
4C5
100
AcDbEntity
  8
0
100
AcDbLine
 62
7
  6
BYLAYER
 10
559.2369466143
 20
380.7411091185
 11
573.2146779274
 21
400.1197182217
  0
POLYLINE
  5
4C6
100
AcDbEntity
  8
0
100
AcDb2dPolyline
 62
7
  6
BYLAYER
 66
1
 70
0
  0
VERTEX
  5
4C7
100
AcDbEntity
  8
0
100
AcDbVertex
 62
7
  6
BYLAYER
100
AcDb2dVertex
 10
520.3101125567
 20
334.3760793034
  0
VERTEX
  5
4C8
100
AcDbEntity
  8
0
100
AcDbVertex
 62
7
  6
BYLAYER
100
AcDb2dVertex
 10
520.4156705655
 20
334.3787567053
  0
VERTEX
  5
4C9
100
AcDbEntity
  8
0
100
AcDbVertex
 62
7
  6
BYLAYER
100
AcDb2dVertex
 10
520.5132471713
 20
334.4064418579
  0
VERTEX
  5
4CA
100
AcDbEntity
  8
0
100
AcDbVertex
 62
7
  6
BYLAYER
100
AcDb2dVertex
 10
520.5950482391
 20
334.459724887
  0
SEQEND
  5
4CB
100
AcDbEntity
  8
0
  0
POLYLINE
  5
4CC
100
AcDbEntity
  8
0
100
AcDb2dPolyline
 62
7
  6
BYLAYER
 66
1
 70
0
  0
VERTEX
  5
4CD
100
AcDbEntity
  8
0
100
AcDbVertex
 62
7
  6
BYLAYER
100
AcDb2dVertex
 10
520.2132897967
 20
335.0672105803
  0
VERTEX
  5
4CE
100
AcDbEntity
  8
0
100
AcDbVertex
 62
7
  6
BYLAYER
100
AcDb2dVertex
 10
520.1222624977
 20
335.0674848425
  0
VERTEX
  5
4CF
100
AcDbEntity
  8
0
100
AcDbVertex
 62
7
  6
BYLAYER
100
AcDb2dVertex
 10
520.0368784151
 20
335.0475743043
  0
VERTEX
  5
4D0
100
AcDbEntity
  8
0
100
AcDbVertex
 62
7
  6
BYLAYER
100
AcDb2dVertex
 10
519.9608670973
 20
335.0098579868
  0
VERTEX
  5
4D1
100
AcDbEntity
  8
0
100
AcDbVertex
 62
7
  6
BYLAYER
100
AcDb2dVertex
 10
519.8988862884
 20
334.9549515843
  0
SEQEND
  5
4D2
100
AcDbEntity
  8
0
  0
LINE
  5
4D3
100
AcDbEntity
  8
0
100
AcDbLine
 62
7
  6
BYLAYER
 10
546.6881097578
 20
287.8500007431
 11
546.0764739066
 21
290.8211350476
  0
LINE
  5
4D4
100
AcDbEntity
  8
0
100
AcDbLine
 62
7
  6
BYLAYER
 10
547.9711378311
 20
287.7145934592
 11
547.1913021209
 21
291.5027896975
  0
LINE
  5
4D5
100
AcDbEntity
  8
0
100
AcDbLine
 62
7
  6
BYLAYER
 10
537.4961901045
 20
380.7167141859
 11
537.4799279574
 21
381.0760785923
  0
LINE
  5
4D6
100
AcDbEntity
  8
0
100
AcDbLine
 62
7
  6
BYLAYER
 10
538.3474938492
 20
346.0037571217
 11
538.0396609429
 21
341.4714464842
  0
LINE
  5
4D7
100
AcDbEntity
  8
0
100
AcDbLine
 62
7
  6
BYLAYER
 10
538.0932788063
 20
341.3316697472
 11
538.4154295223
 21
346.0747855307
  0
LINE
  5
4D8
100
AcDbEntity
  8
0
100
AcDbLine
 62
7
  6
BYLAYER
 10
543.1510459547
 20
366.0116942339
 11
542.8646897627
 21
361.7955913152
  0
LINE
  5
4D9
100
AcDbEntity
  8
0
100
AcDbLine
 62
7
  6
BYLAYER
 10
543.1615029634
 20
354.4270968328
 11
538.3814735017
 21
347.8001041997
  0
LINE
  5
4DA
100
AcDbEntity
  8
0
100
AcDbLine
 62
7
  6
BYLAYER
 10
537.1988613417
 20
344.4113026762
 11
538.3474938492
 21
346.0037571217
  0
LINE
  5
4DB
100
AcDbEntity
  8
0
100
AcDbLine
 62
7
  6
BYLAYER
 10
538.4154295223
 20
346.0747855307
 11
544.3494919202
 21
354.3017197181
  0
LINE
  5
4DC
100
AcDbEntity
  8
0
100
AcDbLine
 62
7
  6
BYLAYER
 10
523.5979831526
 20
333.2282153412
 11
521.926412031
 21
331.8580418312
  0
LINE
  5
4DD
100
AcDbEntity
  8
0
100
AcDbLine
 62
7
  6
BYLAYER
 10
522.9860623335
 20
331.8382281171
 11
524.578819103
 21
333.1437981316
  0
LINE
  5
4DE
100
AcDbEntity
  8
0
100
AcDbLine
 62
7
  6
BYLAYER
 10
522.924384534
 20
331.7527185348
 11
524.5959556556
 21
333.1228920448
  0
LINE
  5
4DF
100
AcDbEntity
  8
0
100
AcDbLine
 62
7
  6
BYLAYER
 10
536.9352092177
 20
340.5294781495
 11
515.6464471126
 21
342.7762360452
  0
LINE
  5
4E0
100
AcDbEntity
  8
0
100
AcDbLine
 62
7
  6
BYLAYER
 10
538.0932788063
 20
341.3316697472
 11
538.045759248
 21
341.3366848318
  0
LINE
  5
4E1
100
AcDbEntity
  8
0
100
AcDbLine
 62
7
  6
BYLAYER
 10
547.1913021209
 20
291.5027896975
 11
546.9107800839
 21
297.7018257081
  0
LINE
  5
4E2
100
AcDbEntity
  8
0
100
AcDbLine
 62
7
  6
BYLAYER
 10
544.3494919202
 20
354.3017197181
 11
544.0689698832
 21
360.5007557287
  0
LINE
  5
4E3
100
AcDbEntity
  8
0
100
AcDbLine
 62
7
  6
BYLAYER
 10
544.0689698832
 20
360.5007557287
 11
544.434074028
 21
365.87628695
  0
LINE
  5
4E4
100
AcDbEntity
  8
0
100
AcDbLine
 62
7
  6
BYLAYER
 10
537.1988613417
 20
344.4113026762
 11
515.9100992366
 21
346.658060572
  0
LINE
  5
4E5
100
AcDbEntity
  8
0
100
AcDbLine
 62
7
  6
BYLAYER
 10
538.3474938492
 20
346.0037571217
 11
517.0587317442
 21
348.2505150175
  0
LINE
  5
4E6
100
AcDbEntity
  8
0
100
AcDbLine
 62
7
  6
BYLAYER
 10
538.4154295223
 20
346.0747855307
 11
517.0316283006
 21
348.3315735956
  0
LINE
  5
4E7
100
AcDbEntity
  8
0
100
AcDbLine
 62
7
  6
BYLAYER
 10
548.9008840894
 20
379.5130938846
 11
548.8846219423
 21
379.872458291
  0
LINE
  5
4E8
100
AcDbEntity
  8
0
100
AcDbLine
 62
7
  6
BYLAYER
 10
573.1793269761
 20
381.1661575
 11
572.9326157781
 21
380.8241191706
  0
LINE
  5
4E9
100
AcDbEntity
  8
0
100
AcDbLine
 62
7
  6
BYLAYER
 10
574.6419425212
 20
380.7114996703
 11
573.8466072966
 21
379.6088536058
  0
LINE
  5
4EA
100
AcDbEntity
  8
0
100
AcDbLine
 62
7
  6
BYLAYER
 10
519.3736501936
 20
349.8061380352
 11
538.3814735017
 21
347.8001041997
  0
LINE
  5
4EB
100
AcDbEntity
  8
0
100
AcDbLine
 62
7
  6
BYLAYER
 10
549.5939166366
 20
380.8558184882
 11
549.6101787837
 21
380.4964540818
  0
POLYLINE
  5
4EC
100
AcDbEntity
  8
0
100
AcDb2dPolyline
 62
7
  6
BYLAYER
 66
1
 70
0
  0
VERTEX
  5
4ED
100
AcDbEntity
  8
0
100
AcDbVertex
 62
7
  6
BYLAYER
100
AcDb2dVertex
 10
554.7044925267
 20
379.8286761727
  0
VERTEX
  5
4EE
100
AcDbEntity
  8
0
100
AcDbVertex
 62
7
  6
BYLAYER
100
AcDb2dVertex
 10
554.3024738423
 20
375.380932343
  0
VERTEX
  5
4EF
100
AcDbEntity
  8
0
100
AcDbVertex
 62
7
  6
BYLAYER
100
AcDb2dVertex
 10
553.9609036397
 20
370.9503908657
  0
VERTEX
  5
4F0
100
AcDbEntity
  8
0
100
AcDbVertex
 62
7
  6
BYLAYER
100
AcDb2dVertex
 10
553.6795317535
 20
366.5326598554
  0
VERTEX
  5
4F1
100
AcDbEntity
  8
0
100
AcDbVertex
 62
7
  6
BYLAYER
100
AcDb2dVertex
 10
553.4591086798
 20
362.1409149683
  0
VERTEX
  5
4F2
100
AcDbEntity
  8
0
100
AcDbVertex
 62
7
  6
BYLAYER
100
AcDb2dVertex
 10
553.3002572892
 20
357.7840093119
  0
VERTEX
  5
4F3
100
AcDbEntity
  8
0
100
AcDbVertex
 62
7
  6
BYLAYER
100
AcDb2dVertex
 10
553.2031102934
 20
353.4705186461
  0
VERTEX
  5
4F4
100
AcDbEntity
  8
0
100
AcDbVertex
 62
7
  6
BYLAYER
100
AcDb2dVertex
 10
553.1680465014
 20
349.2091918844
  0
VERTEX
  5
4F5
100
AcDbEntity
  8
0
100
AcDbVertex
 62
7
  6
BYLAYER
100
AcDb2dVertex
 10
553.1949504915
 20
345.0083626744
  0
VERTEX
  5
4F6
100
AcDbEntity
  8
0
100
AcDbVertex
 62
7
  6
BYLAYER
100
AcDb2dVertex
 10
553.2839539899
 20
340.8766059483
  0
VERTEX
  5
4F7
100
AcDbEntity
  8
0
100
AcDbVertex
 62
7
  6
BYLAYER
100
AcDb2dVertex
 10
553.4346943622
 20
336.8219467668
  0
VERTEX
  5
4F8
100
AcDbEntity
  8
0
100
AcDbVertex
 62
7
  6
BYLAYER
100
AcDb2dVertex
 10
553.6470552007
 20
332.8527176814
  0
VERTEX
  5
4F9
100
AcDbEntity
  8
0
100
AcDbVertex
 62
7
  6
BYLAYER
100
AcDb2dVertex
 10
553.9204295509
 20
328.976571153
  0
VERTEX
  5
4FA
100
AcDbEntity
  8
0
100
AcDbVertex
 62
7
  6
BYLAYER
100
AcDb2dVertex
 10
554.2544538
 20
325.2015308864
  0
VERTEX
  5
4FB
100
AcDbEntity
  8
0
100
AcDbVertex
 62
7
  6
BYLAYER
100
AcDb2dVertex
 10
554.6482815147
 20
321.5348157015
  0
VERTEX
  5
4FC
100
AcDbEntity
  8
0
100
AcDbVertex
 62
7
  6
BYLAYER
100
AcDb2dVertex
 10
555.1013047775
 20
317.9840764541
  0
VERTEX
  5
4FD
100
AcDbEntity
  8
0
100
AcDbVertex
 62
7
  6
BYLAYER
100
AcDb2dVertex
 10
555.6124444283
 20
314.556040741
  0
VERTEX
  5
4FE
100
AcDbEntity
  8
0
100
AcDbVertex
 62
7
  6
BYLAYER
100
AcDb2dVertex
 10
556.1808530939
 20
311.257925541
  0
VERTEX
  5
4FF
100
AcDbEntity
  8
0
100
AcDbVertex
 62
7
  6
BYLAYER
100
AcDb2dVertex
 10
556.8052274951
 20
308.095913564
  0
VERTEX
  5
500
100
AcDbEntity
  8
0
100
AcDbVertex
 62
7
  6
BYLAYER
100
AcDb2dVertex
 10
557.4837836781
 20
305.0796667257
  0
VERTEX
  5
501
100
AcDbEntity
  8
0
100
AcDbVertex
 62
7
  6
BYLAYER
100
AcDb2dVertex
 10
558.2171162941
 20
302.2059643876
  0
SEQEND
  5
502
100
AcDbEntity
  8
0
  0
LINE
  5
503
100
AcDbEntity
  8
0
100
AcDbLine
 62
7
  6
BYLAYER
 10
540.7642831409
 20
351.1036114378
 11
524.316301126
 21
352.8394866042
  0
LINE
  5
504
100
AcDbEntity
  8
0
100
AcDbLine
 62
7
  6
BYLAYER
 10
575.2044660872
 20
350.1747485649
 11
574.3153308549
 21
350.2685854726
  0
LINE
  5
505
100
AcDbEntity
  8
0
100
AcDbLine
 62
7
  6
BYLAYER
 10
544.3494919202
 20
354.3017197181
 11
543.1615029634
 21
354.4270968328
  0
LINE
  5
506
100
AcDbEntity
  8
0
100
AcDbLine
 62
7
  6
BYLAYER
 10
524.1536796553
 20
356.4331306683
 11
522.9656906986
 21
356.5585077831
  0
LINE
  5
507
100
AcDbEntity
  8
0
100
AcDbLine
 62
7
  6
BYLAYER
 10
554.6922959164
 20
380.0981994775
 11
554.7044925267
 21
379.8286761727
  0
LINE
  5
508
100
AcDbEntity
  8
0
100
AcDbLine
 62
7
  6
BYLAYER
 10
558.2171162941
 20
302.2059643876
 11
558.2293129044
 21
301.9364410828
  0
LINE
  5
509
100
AcDbEntity
  8
0
100
AcDbLine
 62
7
  6
BYLAYER
 10
544.0689698832
 20
360.5007557287
 11
522.6851686616
 21
362.7575437937
  0
LINE
  5
50A
100
AcDbEntity
  8
0
100
AcDbLine
 62
7
  6
BYLAYER
 10
542.8646897627
 20
361.7955913152
 11
524.0469446877
 21
363.7815648124
  0
LINE
  5
50B
100
AcDbEntity
  8
0
100
AcDbLine
 62
7
  6
BYLAYER
 10
562.2860991902
 20
313.3602829161
 11
561.4686824214
 21
306.5461102937
  0
LINE
  5
50C
100
AcDbEntity
  8
0
100
AcDbLine
 62
7
  6
BYLAYER
 10
574.3718157939
 20
349.020369203
 11
575.2044660872
 21
350.1747485649
  0
LINE
  5
50D
100
AcDbEntity
  8
0
100
AcDbLine
 62
7
  6
BYLAYER
 10
544.434074028
 20
365.87628695
 11
543.1510459547
 21
366.0116942339
  0
LINE
  5
50E
100
AcDbEntity
  8
0
100
AcDbLine
 62
7
  6
BYLAYER
 10
524.3333008797
 20
367.997667731
 11
523.0502728064
 21
368.1330750149
  0
LINE
  5
50F
100
AcDbEntity
  8
0
100
AcDbLine
 62
7
  6
BYLAYER
 10
546.6205418807
 20
370.8217741981
 11
530.3626380989
 21
372.5375890262
  0
LINE
  5
510
100
AcDbEntity
  8
0
100
AcDbLine
 62
7
  6
BYLAYER
 10
575.2044660872
 20
350.1747485649
 11
576.0770442133
 21
348.9975453489
  0
LINE
  5
511
100
AcDbEntity
  8
0
100
AcDbLine
 62
7
  6
BYLAYER
 10
557.9357309701
 20
384.6180275868
 11
559.2369466143
 21
380.7411091185
  0
LINE
  5
512
100
AcDbEntity
  8
0
100
AcDbLine
 62
7
  6
BYLAYER
 10
572.9326157781
 20
380.8241191706
 11
574.3718157939
 21
349.020369203
  0
LINE
  5
513
100
AcDbEntity
  8
0
100
AcDbLine
 62
7
  6
BYLAYER
 10
576.0770442133
 20
348.9975453489
 11
576.7803820742
 21
333.4550347716
  0
LINE
  5
514
100
AcDbEntity
  8
0
100
AcDbLine
 62
7
  6
BYLAYER
 10
574.1174882781
 20
392.3010017771
 11
574.6419425212
 21
380.7114996703
  0
LINE
  5
515
100
AcDbEntity
  8
0
100
AcDbLine
 62
7
  6
BYLAYER
 10
540.9047164762
 20
289.4937042133
 11
539.7560839686
 21
287.9012497678
  0
LINE
  5
516
100
AcDbEntity
  8
0
100
AcDbLine
 62
7
  6
BYLAYER
 10
546.9107800839
 20
297.7018257081
 11
540.9767589934
 21
289.4749487889
  0
LINE
  5
517
100
AcDbEntity
  8
0
100
AcDbLine
 62
7
  6
BYLAYER
 10
549.0177617032
 20
374.1452595931
 11
530.2000166282
 21
376.1312330903
  0
LINE
  5
518
100
AcDbEntity
  8
0
100
AcDbLine
 62
7
  6
BYLAYER
 10
576.7803820742
 20
333.4550347716
 11
562.2860991902
 21
313.3602829161
  0
LINE
  5
519
100
AcDbEntity
  8
0
100
AcDbLine
 62
7
  6
BYLAYER
 10
561.4686824214
 20
306.5461102937
 11
558.2242613159
 21
302.0480721671
  0
LINE
  5
51A
100
AcDbEntity
  8
0
100
AcDbLine
 62
7
  6
BYLAYER
 10
558.2293129044
 20
301.9364410828
 11
547.9711378311
 21
287.7145934592
  0
LINE
  5
51B
100
AcDbEntity
  8
0
100
AcDbLine
 62
7
  6
BYLAYER
 10
548.9008840894
 20
379.5130938846
 11
537.4961901045
 21
380.7167141859
  0
LINE
  5
51C
100
AcDbEntity
  8
0
100
AcDbLine
 62
7
  6
BYLAYER
 10
548.8846219423
 20
379.872458291
 11
537.4799279574
 21
381.0760785923
  0
LINE
  5
51D
100
AcDbEntity
  8
0
100
AcDbLine
 62
7
  6
BYLAYER
 10
573.2146779274
 20
400.1197182217
 11
574.1174882781
 21
392.3010017771
  0
LINE
  5
51E
100
AcDbEntity
  8
0
100
AcDbLine
 62
7
  6
BYLAYER
 10
554.6922959164
 20
380.0981994775
 11
549.6038995036
 21
380.6352149583
  0
LINE
  5
51F
100
AcDbEntity
  8
0
100
AcDbLine
 62
7
  6
BYLAYER
 10
538.0420641838
 20
381.8554195276
 11
533.3084946948
 21
382.3549875425
  0
LINE
  5
520
100
AcDbEntity
  8
0
100
AcDbLine
 62
7
  6
BYLAYER
 10
549.5939166366
 20
380.8558184882
 11
538.1892226518
 21
382.0594387895
  0
LINE
  5
521
100
AcDbEntity
  8
0
100
AcDbLine
 62
7
  6
BYLAYER
 10
573.8466072966
 20
379.6088536058
 11
572.9834875026
 21
379.699944915
  0
LINE
  5
522
100
AcDbEntity
  8
0
100
AcDbLine
 62
7
  6
BYLAYER
 10
573.8466072966
 20
379.6088536058
 11
573.1793269761
 21
381.1661575
  0
LINE
  5
523
100
AcDbEntity
  8
0
100
AcDbLine
 62
7
  6
BYLAYER
 10
557.9357309701
 20
384.6180275868
 11
536.646968865
 21
386.8647854826
  0
LINE
  5
524
100
AcDbEntity
  8
0
100
AcDbLine
 62
7
  6
BYLAYER
 10
573.2146779274
 20
400.1197182217
 11
551.9259158223
 21
402.3664761174
  0
LINE
  5
525
100
AcDbEntity
  8
0
100
AcDbLine
 62
7
  6
BYLAYER
 10
39.7158050506
 20
234.1077334787
 11
41.0562548543
 21
237.7905890462
  0
LINE
  5
526
100
AcDbEntity
  8
0
100
AcDbLine
 62
7
  6
BYLAYER
 10
41.0562548543
 20
174.8905890462
 11
39.7158050506
 21
178.5734446138
  0
LINE
  5
527
100
AcDbEntity
  8
0
100
AcDbLine
 62
7
  6
BYLAYER
 10
39.7158050506
 20
178.5734446138
 11
39.7158050506
 21
234.1077334787
  0
LINE
  5
528
100
AcDbEntity
  8
0
100
AcDbLine
 62
7
  6
BYLAYER
 10
44.7808770579
 20
237.7905890462
 11
43.2158050506
 21
233.4905890462
  0
LINE
  5
529
100
AcDbEntity
  8
0
100
AcDbLine
 62
7
  6
BYLAYER
 10
43.2158050506
 20
233.3405890462
 11
44.8536711048
 21
237.8405890462
  0
LINE
  5
52A
100
AcDbEntity
  8
0
100
AcDbLine
 62
7
  6
BYLAYER
 10
43.2158050506
 20
179.1905890462
 11
44.7808770579
 21
174.8905890462
  0
LINE
  5
52B
100
AcDbEntity
  8
0
100
AcDbLine
 62
7
  6
BYLAYER
 10
44.8538050506
 20
174.8405890462
 11
43.2158050506
 21
179.3405890462
  0
LINE
  5
52C
100
AcDbEntity
  8
0
100
AcDbLine
 62
7
  6
BYLAYER
 10
43.2158050506
 20
179.1905890462
 11
43.2158050506
 21
233.4905890462
  0
LINE
  5
52D
100
AcDbEntity
  8
0
100
AcDbLine
 62
7
  6
BYLAYER
 10
64.0958050506
 20
244.7405890462
 11
65.9520532453
 21
249.8405890462
  0
LINE
  5
52E
100
AcDbEntity
  8
0
100
AcDbLine
 62
7
  6
BYLAYER
 10
65.9522050506
 20
162.8405890462
 11
64.0958050506
 21
167.9405890462
  0
LINE
  5
52F
100
AcDbEntity
  8
0
100
AcDbLine
 62
7
  6
BYLAYER
 10
98.9158050506
 20
162.4405890462
 11
96.6158050506
 21
162.4405890462
  0
LINE
  5
530
100
AcDbEntity
  8
0
100
AcDbLine
 62
7
  6
BYLAYER
 10
99.2159568558
 20
162.8405890462
 11
65.9522050506
 21
162.8405890462
  0
LINE
  5
531
100
AcDbEntity
  8
0
100
AcDbLine
 62
7
  6
BYLAYER
 10
109.8808050506
 20
162.8905890462
 11
99.2159568558
 21
162.8905890462
  0
LINE
  5
532
100
AcDbEntity
  8
0
100
AcDbLine
 62
7
  6
BYLAYER
 10
157.1158050506
 20
164.9405890462
 11
152.1158050506
 21
164.9405890462
  0
LINE
  5
533
100
AcDbEntity
  8
0
100
AcDbLine
 62
7
  6
BYLAYER
 10
152.1158050506
 20
166.9405890462
 11
154.6158050506
 21
166.9405890462
  0
LINE
  5
534
100
AcDbEntity
  8
0
100
AcDbLine
 62
7
  6
BYLAYER
 10
64.0958050506
 20
167.9405890462
 11
64.0958050506
 21
174.8405890462
  0
LINE
  5
535
100
AcDbEntity
  8
0
100
AcDbLine
 62
7
  6
BYLAYER
 10
64.0958050506
 20
237.8405890462
 11
64.0958050506
 21
244.7405890462
  0
LINE
  5
536
100
AcDbEntity
  8
0
100
AcDbLine
 62
7
  6
BYLAYER
 10
160.3158050506
 20
168.8405890462
 11
113.3158050506
 21
168.8405890462
  0
LINE
  5
537
100
AcDbEntity
  8
0
100
AcDbLine
 62
7
  6
BYLAYER
 10
64.0958050506
 20
174.8405890462
 11
44.8538050506
 21
174.8405890462
  0
LINE
  5
538
100
AcDbEntity
  8
0
100
AcDbLine
 62
7
  6
BYLAYER
 10
44.7808770579
 20
174.8905890462
 11
41.0562548543
 21
174.8905890462
  0
LINE
  5
539
100
AcDbEntity
  8
0
100
AcDbLine
 62
7
  6
BYLAYER
 10
155.1159113673
 20
188.6405890462
 11
157.8159113673
 21
188.6405890462
  0
LINE
  5
53A
100
AcDbEntity
  8
0
100
AcDbLine
 62
7
  6
BYLAYER
 10
96.6158050506
 20
162.4405890462
 11
96.6158050506
 21
162.8405890462
  0
LINE
  5
53B
100
AcDbEntity
  8
0
100
AcDbLine
 62
7
  6
BYLAYER
 10
96.6158050506
 20
249.8405890462
 11
96.6158050506
 21
250.2405890462
  0
LINE
  5
53C
100
AcDbEntity
  8
0
100
AcDbLine
 62
7
  6
BYLAYER
 10
98.9158050506
 20
250.2405890462
 11
98.9158050506
 21
249.8405890462
  0
LINE
  5
53D
100
AcDbEntity
  8
0
100
AcDbLine
 62
7
  6
BYLAYER
 10
98.9158050506
 20
162.8405890462
 11
98.9158050506
 21
162.4405890462
  0
LINE
  5
53E
100
AcDbEntity
  8
0
100
AcDbLine
 62
7
  6
BYLAYER
 10
99.2159568558
 20
249.8405890462
 11
99.2159568558
 21
249.5405890462
  0
LINE
  5
53F
100
AcDbEntity
  8
0
100
AcDbLine
 62
7
  6
BYLAYER
 10
99.2159568558
 20
163.1405890462
 11
99.2159568558
 21
162.8405890462
  0
LINE
  5
540
100
AcDbEntity
  8
0
100
AcDbLine
 62
7
  6
BYLAYER
 10
160.3159113673
 20
221.4405890462
 11
157.7369113673
 21
221.4405890462
  0
LINE
  5
541
100
AcDbEntity
  8
0
100
AcDbLine
 62
7
  6
BYLAYER
 10
155.9159113673
 20
224.0405890462
 11
155.1159113673
 21
224.0405890462
  0
LINE
  5
542
100
AcDbEntity
  8
0
100
AcDbLine
 62
7
  6
BYLAYER
 10
113.3158050506
 20
168.8405890462
 11
109.8808050506
 21
162.8905890462
  0
LINE
  5
543
100
AcDbEntity
  8
0
100
AcDbLine
 62
7
  6
BYLAYER
 10
157.8159113673
 20
188.6405890462
 11
160.3158050506
 21
186.1405890462
  0
LINE
  5
544
100
AcDbEntity
  8
0
100
AcDbLine
 62
7
  6
BYLAYER
 10
109.8808050506
 20
249.7905890462
 11
113.3158050506
 21
243.8405890462
  0
LINE
  5
545
100
AcDbEntity
  8
0
100
AcDbLine
 62
7
  6
BYLAYER
 10
41.0562548543
 20
237.7905890462
 11
44.7808770579
 21
237.7905890462
  0
LINE
  5
546
100
AcDbEntity
  8
0
100
AcDbLine
 62
7
  6
BYLAYER
 10
44.8536711048
 20
237.8405890462
 11
64.0958050506
 21
237.8405890462
  0
LINE
  5
547
100
AcDbEntity
  8
0
100
AcDbLine
 62
7
  6
BYLAYER
 10
113.3158050506
 20
243.8405890462
 11
158.6408050506
 21
243.8405890462
  0
LINE
  5
548
100
AcDbEntity
  8
0
100
AcDbLine
 62
7
  6
BYLAYER
 10
99.2159568558
 20
249.7905890462
 11
109.8808050506
 21
249.7905890462
  0
LINE
  5
549
100
AcDbEntity
  8
0
100
AcDbLine
 62
7
  6
BYLAYER
 10
65.9520532453
 20
249.8405890462
 11
99.2159568558
 21
249.8405890462
  0
LINE
  5
54A
100
AcDbEntity
  8
0
100
AcDbLine
 62
7
  6
BYLAYER
 10
96.6158050506
 20
250.2405890462
 11
98.9158050506
 21
250.2405890462
  0
LINE
  5
54B
100
AcDbEntity
  8
0
100
AcDbLine
 62
7
  6
BYLAYER
 10
152.1158050506
 20
164.9405890462
 11
152.1158050506
 21
166.9405890462
  0
LINE
  5
54C
100
AcDbEntity
  8
0
100
AcDbLine
 62
7
  6
BYLAYER
 10
154.6158050506
 20
166.9405890462
 11
154.6158050506
 21
168.8405890462
  0
LINE
  5
54D
100
AcDbEntity
  8
0
100
AcDbLine
 62
7
  6
BYLAYER
 10
155.1159113673
 20
224.0405890462
 11
155.1159113673
 21
188.6405890462
  0
LINE
  5
54E
100
AcDbEntity
  8
0
100
AcDbLine
 62
253
  6
BYLAYER
 10
156.1159113673
 20
212.3405890462
 11
156.1159113673
 21
200.3405890462
  0
LINE
  5
54F
100
AcDbEntity
  8
0
100
AcDbLine
 62
7
  6
BYLAYER
 10
157.1158050506
 20
168.8405890462
 11
157.1158050506
 21
164.9405890462
  0
LINE
  5
550
100
AcDbEntity
  8
0
100
AcDbLine
 62
7
  6
BYLAYER
 10
157.1159113673
 20
211.3405890462
 11
157.1159113673
 21
201.3405890462
  0
LINE
  5
551
100
AcDbEntity
  8
0
100
AcDbLine
 62
7
  6
BYLAYER
 10
160.3158050506
 20
186.1405890462
 11
160.3158050506
 21
168.8405890462
  0
LINE
  5
552
100
AcDbEntity
  8
0
100
AcDbLine
 62
7
  6
BYLAYER
 10
160.3159113673
 20
234.3405890462
 11
160.3159113673
 21
221.4405890462
  0
LINE
  5
553
100
AcDbEntity
  8
0
100
AcDbLine
 62
7
  6
BYLAYER
 10
157.7369113673
 20
221.4405890462
 11
155.9159113673
 21
224.0405890462
  0
LINE
  5
554
100
AcDbEntity
  8
0
100
AcDbLine
 62
7
  6
BYLAYER
 10
158.6408050506
 20
243.8405890462
 11
160.3159113673
 21
234.3405890462
  0
LINE
  5
555
100
AcDbEntity
  8
0
100
AcDbLine
 62
7
  6
BYLAYER
 10
487.984141791
 20
162.4405890462
 11
499.984141791
 21
162.4405890462
  0
LINE
  5
556
100
AcDbEntity
  8
0
100
AcDbLine
 62
7
  6
BYLAYER
 10
482.734141791
 20
162.8405890462
 11
505.234141791
 21
162.8405890462
  0
LINE
  5
557
100
AcDbEntity
  8
0
100
AcDbLine
 62
7
  6
BYLAYER
 10
482.784141791
 20
162.8905890462
 11
505.184141791
 21
162.8905890462
  0
LINE
  5
558
100
AcDbEntity
  8
0
100
AcDbLine
 62
7
  6
BYLAYER
 10
482.734141791
 20
163.1405890462
 11
482.784141791
 21
163.1405890462
  0
LINE
  5
559
100
AcDbEntity
  8
0
100
AcDbLine
 62
7
  6
BYLAYER
 10
505.184141791
 20
163.1405890462
 11
505.234141791
 21
163.1405890462
  0
LINE
  5
55A
100
AcDbEntity
  8
0
100
AcDbLine
 62
7
  6
BYLAYER
 10
489.884141791
 20
164.9405890462
 11
498.084141791
 21
164.9405890462
  0
LINE
  5
55B
100
AcDbEntity
  8
0
100
AcDbLine
 62
7
  6
BYLAYER
 10
482.784141791
 20
168.8405890462
 11
505.184141791
 21
168.8405890462
  0
LINE
  5
55C
100
AcDbEntity
  8
0
100
AcDbLine
 62
7
  6
BYLAYER
 10
482.784141791
 20
186.1405890462
 11
505.184141791
 21
186.1405890462
  0
LINE
  5
55D
100
AcDbEntity
  8
0
100
AcDbLine
 62
7
  6
BYLAYER
 10
482.784141791
 20
188.6405890462
 11
505.184141791
 21
188.6405890462
  0
LINE
  5
55E
100
AcDbEntity
  8
0
100
AcDbLine
 62
7
  6
BYLAYER
 10
482.734141791
 20
249.8405890462
 11
482.734141791
 21
162.8405890462
  0
LINE
  5
55F
100
AcDbEntity
  8
0
100
AcDbLine
 62
7
  6
BYLAYER
 10
482.784141791
 20
249.7905890462
 11
482.784141791
 21
162.8905890462
  0
LINE
  5
560
100
AcDbEntity
  8
0
100
AcDbLine
 62
7
  6
BYLAYER
 10
487.984141791
 20
250.2405890462
 11
487.984141791
 21
249.8405890462
  0
LINE
  5
561
100
AcDbEntity
  8
0
100
AcDbLine
 62
7
  6
BYLAYER
 10
487.984141791
 20
162.8405890462
 11
487.984141791
 21
162.4405890462
  0
LINE
  5
562
100
AcDbEntity
  8
0
100
AcDbLine
 62
7
  6
BYLAYER
 10
489.884141791
 20
168.8405890462
 11
489.884141791
 21
164.9405890462
  0
LINE
  5
563
100
AcDbEntity
  8
0
100
AcDbLine
 62
7
  6
BYLAYER
 10
498.084141791
 20
168.8405890462
 11
498.084141791
 21
164.9405890462
  0
LINE
  5
564
100
AcDbEntity
  8
0
100
AcDbLine
 62
7
  6
BYLAYER
 10
499.984141791
 20
250.2405890462
 11
499.984141791
 21
249.8405890462
  0
LINE
  5
565
100
AcDbEntity
  8
0
100
AcDbLine
 62
7
  6
BYLAYER
 10
499.984141791
 20
162.8405890462
 11
499.984141791
 21
162.4405890462
  0
LINE
  5
566
100
AcDbEntity
  8
0
100
AcDbLine
 62
7
  6
BYLAYER
 10
505.184141791
 20
249.7905890462
 11
505.184141791
 21
162.8905890462
  0
LINE
  5
567
100
AcDbEntity
  8
0
100
AcDbLine
 62
7
  6
BYLAYER
 10
505.234141791
 20
249.8405890462
 11
505.234141791
 21
162.8405890462
  0
LINE
  5
568
100
AcDbEntity
  8
0
100
AcDbLine
 62
7
  6
BYLAYER
 10
482.784141791
 20
221.4405890462
 11
505.184141791
 21
221.4405890462
  0
LINE
  5
569
100
AcDbEntity
  8
0
100
AcDbLine
 62
7
  6
BYLAYER
 10
482.784141791
 20
234.3405890462
 11
505.184141791
 21
234.3405890462
  0
LINE
  5
56A
100
AcDbEntity
  8
0
100
AcDbLine
 62
7
  6
BYLAYER
 10
482.784141791
 20
243.8405890462
 11
505.184141791
 21
243.8405890462
  0
LINE
  5
56B
100
AcDbEntity
  8
0
100
AcDbLine
 62
7
  6
BYLAYER
 10
482.734141791
 20
249.5405890462
 11
482.784141791
 21
249.5405890462
  0
LINE
  5
56C
100
AcDbEntity
  8
0
100
AcDbLine
 62
7
  6
BYLAYER
 10
505.184141791
 20
249.5405890462
 11
505.234141791
 21
249.5405890462
  0
LINE
  5
56D
100
AcDbEntity
  8
0
100
AcDbLine
 62
7
  6
BYLAYER
 10
482.784141791
 20
249.7905890462
 11
505.184141791
 21
249.7905890462
  0
LINE
  5
56E
100
AcDbEntity
  8
0
100
AcDbLine
 62
7
  6
BYLAYER
 10
482.734141791
 20
249.8405890462
 11
505.234141791
 21
249.8405890462
  0
LINE
  5
56F
100
AcDbEntity
  8
0
100
AcDbLine
 62
7
  6
BYLAYER
 10
487.984141791
 20
250.2405890462
 11
499.984141791
 21
250.2405890462
  0
LINE
  5
570
100
AcDbEntity
  8
0
100
AcDbLine
 62
7
  6
BYLAYER
 10
217.7215468315
 20
272.1294374867
 11
195.3215468315
 21
272.1294374867
  0
LINE
  5
571
100
AcDbEntity
  8
0
100
AcDbLine
 62
7
  6
BYLAYER
 10
210.6215468315
 20
275.3294374867
 11
202.4215468315
 21
275.3294374867
  0
LINE
  5
572
100
AcDbEntity
  8
0
100
AcDbLine
 62
7
  6
BYLAYER
 10
210.6215468315
 20
280.3294374867
 11
202.4215468315
 21
280.3294374867
  0
LINE
  5
573
100
AcDbEntity
  8
0
100
AcDbLine
 62
7
  6
BYLAYER
 10
217.7215468315
 20
319.1294374867
 11
195.3215468315
 21
319.1294374867
  0
LINE
  5
574
100
AcDbEntity
  8
0
100
AcDbLine
 62
7
  6
BYLAYER
 10
195.2715468315
 20
333.2292856815
 11
195.2715468315
 21
389.2294374867
  0
LINE
  5
575
100
AcDbEntity
  8
0
100
AcDbLine
 62
7
  6
BYLAYER
 10
195.3215468315
 20
272.1294374867
 11
195.3215468315
 21
333.2292856815
  0
LINE
  5
576
100
AcDbEntity
  8
0
100
AcDbLine
 62
7
  6
BYLAYER
 10
195.3215468315
 20
387.6643654794
 11
195.3215468315
 21
392.7294374867
  0
LINE
  5
577
100
AcDbEntity
  8
0
100
AcDbLine
 62
7
  6
BYLAYER
 10
196.5002245458
 20
368.3494374867
 11
196.5002245458
 21
383.8494374867
  0
LINE
  5
578
100
AcDbEntity
  8
0
100
AcDbLine
 62
7
  6
BYLAYER
 10
196.6215468315
 20
347.4694374867
 11
196.6215468315
 21
367.9490374867
  0
LINE
  5
579
100
AcDbEntity
  8
0
100
AcDbLine
 62
7
  6
BYLAYER
 10
217.7215468315
 20
322.5644374867
 11
195.3215468315
 21
322.5644374867
  0
LINE
  5
57A
100
AcDbEntity
  8
0
100
AcDbLine
 62
7
  6
BYLAYER
 10
200.5215468315
 20
333.5294374867
 11
200.5215468315
 21
335.8294374867
  0
LINE
  5
57B
100
AcDbEntity
  8
0
100
AcDbLine
 62
7
  6
BYLAYER
 10
202.4215468315
 20
275.3294374867
 11
202.4215468315
 21
280.3294374867
  0
LINE
  5
57C
100
AcDbEntity
  8
0
100
AcDbLine
 62
7
  6
BYLAYER
 10
210.6215468315
 20
275.3294374867
 11
210.6215468315
 21
280.3294374867
  0
LINE
  5
57D
100
AcDbEntity
  8
0
100
AcDbLine
 62
7
  6
BYLAYER
 10
217.7715468315
 20
333.2292856815
 11
195.2715468315
 21
333.2292856815
  0
LINE
  5
57E
100
AcDbEntity
  8
0
100
AcDbLine
 62
7
  6
BYLAYER
 10
212.5215468315
 20
333.5294374867
 11
200.5215468315
 21
333.5294374867
  0
LINE
  5
57F
100
AcDbEntity
  8
0
100
AcDbLine
 62
7
  6
BYLAYER
 10
212.5215468315
 20
335.8294374867
 11
200.5215468315
 21
335.8294374867
  0
LINE
  5
580
100
AcDbEntity
  8
0
100
AcDbLine
 62
7
  6
BYLAYER
 10
212.5215468315
 20
333.5294374867
 11
212.5215468315
 21
335.8294374867
  0
LINE
  5
581
100
AcDbEntity
  8
0
100
AcDbLine
 62
7
  6
BYLAYER
 10
216.4215468315
 20
347.4694374867
 11
216.4215468315
 21
367.9490374867
  0
LINE
  5
582
100
AcDbEntity
  8
0
100
AcDbLine
 62
7
  6
BYLAYER
 10
216.5002245458
 20
368.3494374867
 11
216.5002245458
 21
383.8494374867
  0
LINE
  5
583
100
AcDbEntity
  8
0
100
AcDbLine
 62
7
  6
BYLAYER
 10
217.7215468315
 20
272.1294374867
 11
217.7215468315
 21
333.2292856815
  0
LINE
  5
584
100
AcDbEntity
  8
0
100
AcDbLine
 62
7
  6
BYLAYER
 10
217.7215468315
 20
387.6643654794
 11
217.7215468315
 21
392.7294374867
  0
LINE
  5
585
100
AcDbEntity
  8
0
100
AcDbLine
 62
7
  6
BYLAYER
 10
217.7715468315
 20
333.2292856815
 11
217.7715468315
 21
389.2294374867
  0
LINE
  5
586
100
AcDbEntity
  8
0
100
AcDbLine
 62
7
  6
BYLAYER
 10
196.6215468315
 20
347.4694374867
 11
216.4215468315
 21
347.4694374867
  0
LINE
  5
587
100
AcDbEntity
  8
0
100
AcDbLine
 62
7
  6
BYLAYER
 10
217.7715468315
 20
366.4930374867
 11
216.4215468315
 21
366.4930374867
  0
LINE
  5
588
100
AcDbEntity
  8
0
100
AcDbLine
 62
7
  6
BYLAYER
 10
196.6215468315
 20
366.4930374867
 11
195.2715468315
 21
366.4930374867
  0
LINE
  5
589
100
AcDbEntity
  8
0
100
AcDbLine
 62
7
  6
BYLAYER
 10
196.6215468315
 20
367.9490374867
 11
216.4215468315
 21
367.9490374867
  0
LINE
  5
58A
100
AcDbEntity
  8
0
100
AcDbLine
 62
7
  6
BYLAYER
 10
217.7715468315
 20
368.3494374867
 11
195.2715468315
 21
368.3494374867
  0
LINE
  5
58B
100
AcDbEntity
  8
0
100
AcDbLine
 62
7
  6
BYLAYER
 10
216.5002245458
 20
383.8494374867
 11
196.5002245458
 21
383.8494374867
  0
LINE
  5
58C
100
AcDbEntity
  8
0
100
AcDbLine
 62
7
  6
BYLAYER
 10
217.7715468315
 20
387.5914374867
 11
195.2715468315
 21
387.5914374867
  0
LINE
  5
58D
100
AcDbEntity
  8
0
100
AcDbLine
 62
7
  6
BYLAYER
 10
217.7215468315
 20
387.6643654794
 11
195.3215468315
 21
387.6643654794
  0
LINE
  5
58E
100
AcDbEntity
  8
0
100
AcDbLine
 62
7
  6
BYLAYER
 10
217.7715468315
 20
389.2294374867
 11
217.7215468315
 21
389.2294374867
  0
LINE
  5
58F
100
AcDbEntity
  8
0
100
AcDbLine
 62
7
  6
BYLAYER
 10
195.3215468315
 20
389.2294374867
 11
195.2715468315
 21
389.2294374867
  0
LINE
  5
590
100
AcDbEntity
  8
0
100
AcDbLine
 62
7
  6
BYLAYER
 10
217.7215468315
 20
391.388987683
 11
195.3215468315
 21
391.388987683
  0
LINE
  5
591
100
AcDbEntity
  8
0
100
AcDbLine
 62
7
  6
BYLAYER
 10
217.7215468315
 20
392.7294374867
 11
195.3215468315
 21
392.7294374867
  0
CIRCLE
  5
592
100
AcDbEntity
  8
0
100
AcDbCircle
 62
253
  6
BYLAYER
 10
442.87
 20
39.964796
 40
2.25
  0
CIRCLE
  5
593
100
AcDbEntity
  8
0
100
AcDbCircle
 62
253
  6
BYLAYER
 10
442.87
 20
39.964796
 40
0.75
  0
ARC
  5
594
100
AcDbEntity
  8
0
100
AcDbCircle
 62
7
  6
BYLAYER
 10
197.7629882729
 20
223.5027512084
 40
1.4414414414
100
AcDbArc
 50
270.0
 51
90.0
  0
ARC
  5
595
100
AcDbEntity
  8
0
100
AcDbCircle
 62
7
  6
BYLAYER
 10
197.6188441288
 20
223.5027512084
 40
0.8648648649
100
AcDbArc
 50
270.0
 51
90.0
  0
CIRCLE
  5
596
100
AcDbEntity
  8
0
100
AcDbCircle
 62
7
  6
BYLAYER
 10
199.7810062909
 20
225.5928412985
 40
0.4324324324
  0
ARC
  5
597
100
AcDbEntity
  8
0
100
AcDbCircle
 62
7
  6
BYLAYER
 10
237.3835375197
 20
206.3405890462
 40
100.0
100
AcDbArc
 50
334.4054477216
 51
25.5945522784
  0
ARC
  5
598
100
AcDbEntity
  8
0
100
AcDbCircle
 62
7
  6
BYLAYER
 10
270.6709435417
 20
199.3405890462
 40
1.0
100
AcDbArc
 50
0.000000041
 51
90.0
  0
ARC
  5
599
100
AcDbEntity
  8
0
100
AcDbCircle
 62
7
  6
BYLAYER
 10
270.6709435417
 20
213.3405890462
 40
1.0
100
AcDbArc
 50
270.0
 51
359.9999999834
  0
ARC
  5
59A
100
AcDbEntity
  8
0
100
AcDbCircle
 62
7
  6
BYLAYER
 10
270.6709435417
 20
201.3405890462
 40
1.0
100
AcDbArc
 50
180.0
 51
270.0
  0
ARC
  5
59B
100
AcDbEntity
  8
0
100
AcDbCircle
 62
7
  6
BYLAYER
 10
270.6709435417
 20
211.3405890462
 40
1.0
100
AcDbArc
 50
90.0
 51
180.0
  0
ARC
  5
59C
100
AcDbEntity
  8
0
100
AcDbCircle
 62
7
  6
BYLAYER
 10
189.4033173893
 20
206.3405890462
 40
100.0
100
AcDbArc
 50
154.4054477216
 51
205.5945522784
  0
ARC
  5
59D
100
AcDbEntity
  8
0
100
AcDbCircle
 62
7
  6
BYLAYER
 10
156.1159113673
 20
213.3405890462
 40
1.0
100
AcDbArc
 50
180.0000000166
 51
270.0
  0
ARC
  5
59E
100
AcDbEntity
  8
0
100
AcDbCircle
 62
7
  6
BYLAYER
 10
156.1159113673
 20
199.3405890462
 40
1.0
100
AcDbArc
 50
90.0
 51
179.999999959
  0
ARC
  5
59F
100
AcDbEntity
  8
0
100
AcDbCircle
 62
7
  6
BYLAYER
 10
156.1159113673
 20
201.3405890462
 40
1.0
100
AcDbArc
 50
270.0
 51
360.0
  0
ARC
  5
5A0
100
AcDbEntity
  8
0
100
AcDbCircle
 62
7
  6
BYLAYER
 10
156.1159113673
 20
211.3405890462
 40
1.0
100
AcDbArc
 50
0.0
 51
90.0
  0
CIRCLE
  5
5A1
100
AcDbEntity
  8
0
100
AcDbCircle
 62
253
  6
BYLAYER
 10
493.984141791
 20
206.3405890462
 40
6.9999954779
  0
CIRCLE
  5
5A2
100
AcDbEntity
  8
0
100
AcDbCircle
 62
7
  6
BYLAYER
 10
493.984141791
 20
206.3405890462
 40
6.0
  0
CIRCLE
  5
5A3
100
AcDbEntity
  8
0
100
AcDbCircle
 62
253
  6
BYLAYER
 10
493.984141791
 20
206.3405890462
 40
4.9999966055
  0
INSERT
  5
5A4
100
AcDbEntity
  8
TABLE_BL1
100
AcDbBlockReference
  2
TABLE_BL1
 10
496.5
 20
30.0
  0
ENDSEC
  0
SECTION
  2
OBJECTS
  0
DICTIONARY
  5
5A5
100
AcDbDictionary
  3
ACAD_GROUP
350
5A6
  3
ACAD_MLINESTYLE
350
5A7
  0
DICTIONARY
  5
5A6
102
{ACAD_REACTORS
330
5A5
102
}
100
AcDbDictionary
  0
DICTIONARY
  5
5A7
102
{ACAD_REACTORS
330
5A5
102
}
100
AcDbDictionary
  3
STANDARD
350
5A8
  0
MLINESTYLE
  5
5A8
102
{ACAD_REACTORS
330
5A7
102
}
100
AcDbMlineStyle
  2
STANDARD
 70
0
  3

 62
256
 51
90.0
 52
90.0
 71
2
 49
0.5
 62
256
  6
BYLAYER
 49
-0.5
 62
256
  6
BYLAYER
  0
ENDSEC
  0
EOF
