999
DXF file: C:\Users\sesa63760\Dev\_Creo\CAD\MCADID0005012_3D-CAD\drw0001_5.dxf
999
Pro/ENGINEER 2019471 by Parametric Technology Corporation
  0
SECTION
  2
HEADER
  9
$ACADVER
  1
AC1024
  9
$DWGCODEPAGE
  3
ANSI_1252
  9
$EXTMAX
 10
38.3982809047
 20
54.3061401367
 30
0.0
  9
$EXTMIN
 10
0.0
 20
0.0
 30
0.0
  9
$LIMMIN
 10
0.0
 20
0.0
  9
$LIMMAX
 10
38.3982809047
 20
54.3061401367
  9
$VIEWCTR
 10
19.1991404524
 20
27.1530700683
  9
$VIEWSIZE
 40
54.3061401367
  9
$CLAYER
  8
0
  9
$LTSCALE
 40
3.5399558015
  9
$CELTYPE
  6
BYLAYER
  9
$DIMSCALE
 40
1.0
  9
$DIMASZ
 40
0.4571223917
  9
$DIMEXO
 40
1.0
  9
$DIMDLI
 40
2.4457876447
  9
$DIMEXE
 40
1.0
  9
$DIMCEN
 40
0.5792654948
  9
$DIMLFAC
 40
1.0
  9
$DIMBLK
  1
_FILLED
  9
$DIMALT
 70
0
  9
$DIMALTF
 40
0.0393700787
  9
$DIMTXT
 40
0.6399713484
  9
$DIMTOL
 70
1
  9
$DIMLIM
 70
0
  9
$DIMTFAC
 40
1.0
  9
$DIMTP
 40
0.01
  9
$DIMTM
 40
0.01
  9
$DIMGAP
 40
0.625
  9
$DIMDSEP
 70
46
  9
$AUNITS
 70
0
  9
$PDMODE
 70
3
  9
$PDSIZE
 40
0.3125
  9
$HANDSEED
  5
294
  9
$TILEMODE
 70
1
  9
$MEASUREMENT
 70
1
  9
$INSUNITS
 70
4
  0
ENDSEC
  0
SECTION
  2
CLASSES
  0
CLASS
  1
ACDBDICTIONARYWDFLT
  2
AcDbDictionaryWithDefault
  3
AutoCAD 2000
 90
0
 91
1
280
0
281
0
  0
CLASS
  1
ACDBPLACEHOLDER
  2
AcDbPlaceHolder
  3
AutoCAD 2000
 90
0
 91
1
280
0
281
0
  0
CLASS
  1
LAYOUT
  2
AcDbLayout
  3
AutoCAD 2000
 90
0
 91
0
280
0
281
0
  0
ENDSEC
  0
SECTION
  2
TABLES
  0
TABLE
  2
VPORT
  5
8
100
AcDbSymbolTable
 70
2
  0
VPORT
  5
1F4
100
AcDbSymbolTableRecord
100
AcDbViewportTableRecord
  2
*ACTIVE
 70
0
 10
0.0
 20
0.0
 11
1.0
 21
1.0
 12
19.1991404524
 22
27.1530700683
 13
0.0
 23
0.0
 14
1.0
 24
1.0
 15
0.0
 25
0.0
 16
0.0
 26
0.0
 36
1.0
 17
0.0
 27
0.0
 37
0.0
 40
54.3061401367
 41
0.7070707071
 42
50.0
 43
0.0
 44
0.0
 50
0.0
 51
0.0
 71
0
 72
100
 73
1
 74
1
 75
0
 76
0
 77
0
 78
0
  0
ENDTAB
  0
TABLE
  2
LTYPE
  5
5
100
AcDbSymbolTable
 70
6
  0
LTYPE
  5
14
100
AcDbSymbolTableRecord
100
AcDbLinetypeTableRecord
  2
BYBLOCK
 70
0
  3

 72
65
 73
0
 40
0.0
  0
LTYPE
  5
15
100
AcDbSymbolTableRecord
100
AcDbLinetypeTableRecord
  2
BYLAYER
 70
0
  3

 72
65
 73
0
 40
0.0
  0
LTYPE
  5
16
100
AcDbSymbolTableRecord
100
AcDbLinetypeTableRecord
  2
CONTINUOUS
 70
64
  3
Solid line
 72
65
 73
0
 40
0.0
  0
LTYPE
  5
1F5
100
AcDbSymbolTableRecord
100
AcDbLinetypeTableRecord
  2
CENTER
 70
64
  3
____ _ ____ _ ____ _ ____ _ ____ _ ____ _ ____
 72
65
 73
4
 40
0.6
 49
0.375
 74
0
 49
-0.075
 74
0
 49
0.075
 74
0
 49
-0.075
 74
0
  0
LTYPE
  5
1F6
100
AcDbSymbolTableRecord
100
AcDbLinetypeTableRecord
  2
HIDDEN
 70
64
  3
- - - - - - - - - - - - - - - - - - - -
 72
65
 73
2
 40
0.2
 49
0.1
 74
0
 49
-0.1
 74
0
  0
LTYPE
  5
1F7
100
AcDbSymbolTableRecord
100
AcDbLinetypeTableRecord
  2
PHANTOM
 70
64
  3
_____ _ _ _____ _ _ _____ _ _ _____
 72
65
 73
6
 40
0.8
 49
0.45
 74
0
 49
-0.05
 74
0
 49
0.1
 74
0
 49
-0.05
 74
0
 49
0.1
 74
0
 49
-0.05
 74
0
  0
LTYPE
  5
1F8
100
AcDbSymbolTableRecord
100
AcDbLinetypeTableRecord
  2
DOT
 70
64
  3
. . . . . . . . . . . . . . . . . . . .
 72
65
 73
2
 40
0.2
 49
0.1
 74
0
 49
-0.1
 74
0
  0
LTYPE
  5
1F9
100
AcDbSymbolTableRecord
100
AcDbLinetypeTableRecord
  2
DASHED
 70
64
  3
- - - - - - - - - - - - - - - - - - - -
 72
65
 73
2
 40
0.2
 49
0.1
 74
0
 49
-0.1
 74
0
  0
ENDTAB
  0
TABLE
  2
LAYER
  5
2
100
AcDbSymbolTable
 70
36
  0
LAYER
  5
10
100
AcDbSymbolTableRecord
100
AcDbLayerTableRecord
  2
0
 70
0
 62
7
  6
CONTINUOUS
370
-3
390
F
  0
LAYER
  5
1FA
100
AcDbSymbolTableRecord
100
AcDbLayerTableRecord
  2
DEFAULT_1
 70
0
 62
7
  6
CENTER
370
-3
390
F
  0
LAYER
  5
1FB
100
AcDbSymbolTableRecord
100
AcDbLayerTableRecord
  2
DEFAULT_2
 70
0
 62
7
  6
HIDDEN
370
-3
390
F
  0
LAYER
  5
1FC
100
AcDbSymbolTableRecord
100
AcDbLayerTableRecord
  2
DEFAULT_3
 70
0
 62
7
  6
PHANTOM
370
-3
390
F
  0
LAYER
  5
1FD
100
AcDbSymbolTableRecord
100
AcDbLayerTableRecord
  2
00_COMPONENTS
 70
0
 62
7
  6
CONTINUOUS
370
-3
390
F
  0
LAYER
  5
1FE
100
AcDbSymbolTableRecord
100
AcDbLayerTableRecord
  2
00_COMPONENTS_1
 70
0
 62
7
  6
CONTINUOUS
370
-3
390
F
  0
LAYER
  5
1FF
100
AcDbSymbolTableRecord
100
AcDbLayerTableRecord
  2
00_COMPONENTS_3
 70
0
 62
7
  6
CONTINUOUS
370
-3
390
F
  0
LAYER
  5
200
100
AcDbSymbolTableRecord
100
AcDbLayerTableRecord
  2
00_COMPONENTS_4
 70
0
 62
7
  6
CONTINUOUS
370
-3
390
F
  0
LAYER
  5
201
100
AcDbSymbolTableRecord
100
AcDbLayerTableRecord
  2
00_COMPONENTS_6
 70
0
 62
7
  6
CONTINUOUS
370
-3
390
F
  0
LAYER
  5
202
100
AcDbSymbolTableRecord
100
AcDbLayerTableRecord
  2
00_COMPONENTS_8
 70
0
 62
7
  6
CONTINUOUS
370
-3
390
F
  0
LAYER
  5
203
100
AcDbSymbolTableRecord
100
AcDbLayerTableRecord
  2
01_1_DEFAULT_DATUMS
 70
0
 62
7
  6
CONTINUOUS
370
-3
390
F
  0
LAYER
  5
204
100
AcDbSymbolTableRecord
100
AcDbLayerTableRecord
  2
01_PLANES
 70
0
 62
7
  6
CONTINUOUS
370
-3
390
F
  0
LAYER
  5
205
100
AcDbSymbolTableRecord
100
AcDbLayerTableRecord
  2
02_COORD_SYS
 70
0
 62
7
  6
CONTINUOUS
370
-3
390
F
  0
LAYER
  5
206
100
AcDbSymbolTableRecord
100
AcDbLayerTableRecord
  2
03_AXES
 70
0
 62
7
  6
CONTINUOUS
370
-3
390
F
  0
LAYER
  5
207
100
AcDbSymbolTableRecord
100
AcDbLayerTableRecord
  2
04_POINTS
 70
0
 62
7
  6
CONTINUOUS
370
-3
390
F
  0
LAYER
  5
208
100
AcDbSymbolTableRecord
100
AcDbLayerTableRecord
  2
05_CURVES
 70
0
 62
7
  6
CONTINUOUS
370
-3
390
F
  0
LAYER
  5
209
100
AcDbSymbolTableRecord
100
AcDbLayerTableRecord
  2
06_SURFS
 70
0
 62
7
  6
CONTINUOUS
370
-3
390
F
  0
LAYER
  5
20A
100
AcDbSymbolTableRecord
100
AcDbLayerTableRecord
  2
07_COSMETICS
 70
0
 62
7
  6
CONTINUOUS
370
-3
390
F
  0
LAYER
  5
20B
100
AcDbSymbolTableRecord
100
AcDbLayerTableRecord
  2
10_NOTES
 70
0
 62
7
  6
CONTINUOUS
370
-3
390
F
  0
LAYER
  5
20C
100
AcDbSymbolTableRecord
100
AcDbLayerTableRecord
  2
11_NOTES_PUB
 70
0
 62
7
  6
CONTINUOUS
370
-3
390
F
  0
LAYER
  5
20D
100
AcDbSymbolTableRecord
100
AcDbLayerTableRecord
  2
13_REF_GTOL
 70
0
 62
7
  6
CONTINUOUS
370
-3
390
F
  0
LAYER
  5
20E
100
AcDbSymbolTableRecord
100
AcDbLayerTableRecord
  2
16_MISC
 70
0
 62
7
  6
CONTINUOUS
370
-3
390
F
  0
LAYER
  5
20F
100
AcDbSymbolTableRecord
100
AcDbLayerTableRecord
  2
17_NO_PRINT
 70
0
 62
7
  6
CONTINUOUS
370
-3
390
F
  0
LAYER
  5
210
100
AcDbSymbolTableRecord
100
AcDbLayerTableRecord
  2
18_DATUM_CAMS_JOINTS
 70
0
 62
7
  6
CONTINUOUS
370
-3
390
F
  0
LAYER
  5
211
100
AcDbSymbolTableRecord
100
AcDbLayerTableRecord
  2
19_DATUM_FUNCTIONAL
 70
0
 62
7
  6
CONTINUOUS
370
-3
390
F
  0
LAYER
  5
212
100
AcDbSymbolTableRecord
100
AcDbLayerTableRecord
  2
20_DATUM_KINEMATIC_SCHEME
 70
0
 62
7
  6
CONTINUOUS
370
-3
390
F
  0
LAYER
  5
213
100
AcDbSymbolTableRecord
100
AcDbLayerTableRecord
  2
INTFCLR_8
 70
0
 62
7
  6
CONTINUOUS
370
-3
390
F
  0
LAYER
  5
214
100
AcDbSymbolTableRecord
100
AcDbLayerTableRecord
  2
NONE
 70
0
 62
7
  6
CONTINUOUS
370
-3
390
F
  0
LAYER
  5
215
100
AcDbSymbolTableRecord
100
AcDbLayerTableRecord
  2
NONE_1
 70
0
 62
7
  6
CONTINUOUS
370
-3
390
F
  0
LAYER
  5
216
100
AcDbSymbolTableRecord
100
AcDbLayerTableRecord
  2
NONE_2
 70
0
 62
7
  6
CONTINUOUS
370
-3
390
F
  0
LAYER
  5
217
100
AcDbSymbolTableRecord
100
AcDbLayerTableRecord
  2
NONE_3
 70
0
 62
7
  6
CONTINUOUS
370
-3
390
F
  0
LAYER
  5
218
100
AcDbSymbolTableRecord
100
AcDbLayerTableRecord
  2
NONE_4
 70
0
 62
7
  6
CONTINUOUS
370
-3
390
F
  0
LAYER
  5
219
100
AcDbSymbolTableRecord
100
AcDbLayerTableRecord
  2
NONE_5
 70
0
 62
7
  6
CONTINUOUS
370
-3
390
F
  0
ENDTAB
  0
TABLE
  2
STYLE
  5
3
100
AcDbSymbolTable
 70
1
  0
STYLE
  5
11
100
AcDbSymbolTableRecord
100
AcDbTextStyleTableRecord
  2
STANDARD
 70
0
 40
0.0
 41
1.0
 50
0.0
 71
0
 42
0.2
  3
ARIAL.TTF
  4

  0
STYLE
  5
21A
100
AcDbSymbolTableRecord
100
AcDbTextStyleTableRecord
  2
TEXTSTYLE_1
 70
0
 40
0.0
 41
0.8
 50
0.0
 71
0
 42
0.2
  3
gdt
  4

  0
ENDTAB
  0
TABLE
  2
VIEW
  5
6
100
AcDbSymbolTable
 70
0
  0
ENDTAB
  0
TABLE
  2
UCS
  5
7
100
AcDbSymbolTable
 70
0
  0
ENDTAB
  0
TABLE
  2
APPID
  5
9
100
AcDbSymbolTable
 70
1
  0
APPID
  5
21B
100
AcDbSymbolTableRecord
100
AcDbRegAppTableRecord
  2
ACAD
 70
0
  0
ENDTAB
  0
TABLE
  2
BLOCK_RECORD
  5
1
100
AcDbSymbolTable
 70
0
  0
BLOCK_RECORD
  5
21C
100
AcDbSymbolTableRecord
100
AcDbBlockTableRecord
  2
*Model_Space
  0
BLOCK_RECORD
  5
21D
100
AcDbSymbolTableRecord
100
AcDbBlockTableRecord
  2
*Paper_Space
  0
BLOCK_RECORD
  5
21E
100
AcDbSymbolTableRecord
100
AcDbBlockTableRecord
  2
_FILLED
  0
ENDTAB
  0
TABLE
  2
DIMSTYLE
  5
A
100
AcDbSymbolTable
 70
1
100
AcDbDimStyleTable
 71
0
  0
DIMSTYLE
105
21F
100
AcDbSymbolTableRecord
100
AcDbDimStyleTableRecord
  2
STANDARD
 70
0
  3

  4

 40
1.0
 41
0.4571223917
 42
1.0
 43
0.38
 44
1.0
 45
0.0
 46
0.0
 47
0.01
 48
0.01
140
0.6399713484
141
0.09
142
0.0
143
25.4
144
1.0
145
0.0
146
1.0
147
0.625
 71
1
 72
0
 73
0
 74
0
 75
0
 76
0
 77
1
 78
8
 79
2
170
0
171
1
172
0
173
0
174
0
175
0
176
0
177
0
178
0
270
2
179
2
271
2
272
2
273
2
274
2
275
0
280
0
281
0
282
0
283
1
284
8
285
0
286
0
287
3
288
0
340
11
278
46
341
21E
342
21E
343
21E
344
21E
  0
ENDTAB
  0
ENDSEC
  0
SECTION
  2
BLOCKS
  0
BLOCK
  5
20
100
AcDbEntity
  8
0
100
AcDbBlockBegin
  2
*Model_Space
 70
0
 10
0.0
 20
0.0
 30
0.0
  3
*Model_Space
  1

  0
ENDBLK
  5
21
100
AcDbEntity
  8
0
100
AcDbBlockEnd
  0
BLOCK
  5
1C
100
AcDbEntity
  8
0
100
AcDbBlockBegin
  2
*Paper_Space
 70
0
 10
0.0
 20
0.0
 30
0.0
  3
*Paper_Space
  1

  0
ENDBLK
  5
1D
100
AcDbEntity
  8
0
100
AcDbBlockEnd
  0
BLOCK
  5
220
100
AcDbEntity
  8
0
100
AcDbBlockBegin
  2
_FILLED
 70
64
 10
0.0
 20
0.0
  3
_FILLED
  1

  0
SOLID
  5
221
100
AcDbEntity
  8
0
  6
BYBLOCK
 62
0
100
AcDbTrace
 10
0.0
 20
0.0
 11
-1.0
 21
0.25
 12
-1.0
 22
-0.25
 13
-1.0
 23
-0.25
  0
ENDBLK
  5
222
100
AcDbEntity
  8
0
  6
BYBLOCK
 62
0
100
AcDbBlockEnd
  0
ENDSEC
  0
SECTION
  2
ENTITIES
  0
LINE
  5
223
100
AcDbEntity
  8
00_COMPONENTS_1
100
AcDbLine
 62
7
  6
BYLAYER
 10
12.1309019225
 20
4.9188132838
 11
14.1309019225
 21
4.9188132838
  0
LINE
  5
224
100
AcDbEntity
  8
00_COMPONENTS_1
100
AcDbLine
 62
7
  6
BYLAYER
 10
16.5309019225
 20
4.9188132838
 11
18.5309019225
 21
4.9188132838
  0
LINE
  5
225
100
AcDbEntity
  8
00_COMPONENTS_1
100
AcDbLine
 62
7
  6
BYLAYER
 10
20.9309019225
 20
4.9188132838
 11
22.9309019225
 21
4.9188132838
  0
LINE
  5
226
100
AcDbEntity
  8
00_COMPONENTS_1
100
AcDbLine
 62
7
  6
BYLAYER
 10
25.3309019225
 20
4.9188132838
 11
27.3309019225
 21
4.9188132838
  0
LINE
  5
227
100
AcDbEntity
  8
00_COMPONENTS_3
100
AcDbLine
 62
7
  6
BYLAYER
 10
10.9809019225
 20
10.7188132838
 11
15.2809019225
 21
10.7188132838
  0
LINE
  5
228
100
AcDbEntity
  8
00_COMPONENTS_3
100
AcDbLine
 62
7
  6
BYLAYER
 10
24.1809019225
 20
10.7188132838
 11
28.4809019225
 21
10.7188132838
  0
LINE
  5
229
100
AcDbEntity
  8
00_COMPONENTS_6
100
AcDbLine
 62
7
  6
BYLAYER
 10
18.7861170553
 20
11.0932923115
 11
19.4211744123
 21
11.0932923115
  0
LINE
  5
22A
100
AcDbEntity
  8
00_COMPONENTS_6
100
AcDbLine
 62
7
  6
BYLAYER
 10
20.0406296277
 20
11.093292071
 11
20.6756845009
 21
11.0932920713
  0
LINE
  5
22B
100
AcDbEntity
  8
00_COMPONENTS_1
100
AcDbLine
 62
7
  6
BYLAYER
 10
22.3809019225
 20
11.1188132838
 11
21.4809019225
 21
11.1188132838
  0
LINE
  5
22C
100
AcDbEntity
  8
00_COMPONENTS_1
100
AcDbLine
 62
7
  6
BYLAYER
 10
17.9809019225
 20
11.1188132838
 11
17.0809019225
 21
11.1188132838
  0
LINE
  5
22D
100
AcDbEntity
  8
00_COMPONENTS_6
100
AcDbLine
 62
7
  6
BYLAYER
 10
20.2174047727
 20
11.1294906142
 11
20.0406201859
 21
11.1294906142
  0
LINE
  5
22E
100
AcDbEntity
  8
00_COMPONENTS_3
100
AcDbLine
 62
7
  6
BYLAYER
 10
9.2309019225
 20
11.2188132838
 11
30.2309019225
 21
11.2188132838
  0
LINE
  5
22F
100
AcDbEntity
  8
00_COMPONENTS_3
100
AcDbLine
 62
7
  6
BYLAYER
 10
30.2309019225
 20
12.2188132838
 11
30.1809019225
 21
12.2188132838
  0
LINE
  5
230
100
AcDbEntity
  8
00_COMPONENTS_3
100
AcDbLine
 62
7
  6
BYLAYER
 10
9.2809019225
 20
12.2188132838
 11
9.2309019225
 21
12.2188132838
  0
LINE
  5
231
100
AcDbEntity
  8
00_COMPONENTS
100
AcDbLine
 62
7
  6
BYLAYER
 10
9.2809019225
 20
12.2188132838
 11
30.1809019225
 21
12.2188132838
  0
LINE
  5
232
100
AcDbEntity
  8
00_COMPONENTS_3
100
AcDbLine
 62
7
  6
BYLAYER
 10
9.2309019225
 20
11.2188132838
 11
9.2309019225
 21
12.2188132838
  0
LINE
  5
233
100
AcDbEntity
  8
00_COMPONENTS
100
AcDbLine
 62
7
  6
BYLAYER
 10
9.2809019225
 20
12.2188132838
 11
9.3416394421
 21
47.0188132838
  0
LINE
  5
234
100
AcDbEntity
  8
00_COMPONENTS_4
100
AcDbLine
 62
7
  6
BYLAYER
 10
9.378121978
 20
49.7240484517
 11
9.3309019225
 21
47.0188132838
  0
LINE
  5
235
100
AcDbEntity
  8
00_COMPONENTS_4
100
AcDbLine
 62
7
  6
BYLAYER
 10
9.9308105396
 20
47.0188132838
 11
9.9780306048
 21
49.7240484517
  0
LINE
  5
236
100
AcDbEntity
  8
00_COMPONENTS_4
100
AcDbLine
 62
7
  6
BYLAYER
 10
9.9780306048
 20
50.0188132838
 11
9.9780306048
 21
49.7240484517
  0
LINE
  5
237
100
AcDbEntity
  8
00_COMPONENTS
100
AcDbLine
 62
7
  6
BYLAYER
 10
9.9809019225
 20
47.0188132838
 11
9.9809019225
 21
12.2188132838
  0
LINE
  5
238
100
AcDbEntity
  8
00_COMPONENTS_3
100
AcDbLine
 62
7
  6
BYLAYER
 10
10.2309019225
 20
12.2188132838
 11
10.2309019225
 21
11.2188132838
  0
LINE
  5
239
100
AcDbEntity
  8
00_COMPONENTS_3
100
AcDbLine
 62
7
  6
BYLAYER
 10
10.3309019225
 20
10.9188132838
 11
10.3309019225
 21
11.2188132838
  0
LINE
  5
23A
100
AcDbEntity
  8
00_COMPONENTS_3
100
AcDbLine
 62
7
  6
BYLAYER
 10
10.7309019225
 20
11.2188132838
 11
10.7309019225
 21
10.9188132838
  0
LINE
  5
23B
100
AcDbEntity
  8
00_COMPONENTS_3
100
AcDbLine
 62
7
  6
BYLAYER
 10
10.9809019225
 20
10.7188132838
 11
10.9809019225
 21
11.2188132838
  0
LINE
  5
23C
100
AcDbEntity
  8
00_COMPONENTS_1
100
AcDbLine
 62
7
  6
BYLAYER
 10
11.8809019225
 20
5.6688132838
 11
11.8809019225
 21
10.7188132838
  0
LINE
  5
23D
100
AcDbEntity
  8
00_COMPONENTS_1
100
AcDbLine
 62
7
  6
BYLAYER
 10
12.6309019225
 20
5.9188132838
 11
12.6309019225
 21
6.9188132838
  0
LINE
  5
23E
100
AcDbEntity
  8
00_COMPONENTS_1
100
AcDbLine
 62
7
  6
BYLAYER
 10
13.6309019225
 20
6.9188132838
 11
13.6309019225
 21
5.9188132838
  0
LINE
  5
23F
100
AcDbEntity
  8
00_COMPONENTS_1
100
AcDbLine
 62
7
  6
BYLAYER
 10
14.3809019225
 20
10.7188132838
 11
14.3809019225
 21
5.6688132838
  0
LINE
  5
240
100
AcDbEntity
  8
00_COMPONENTS_3
100
AcDbLine
 62
7
  6
BYLAYER
 10
15.2809019225
 20
10.7188132838
 11
15.2809019225
 21
11.2188132838
  0
LINE
  5
241
100
AcDbEntity
  8
00_COMPONENTS_3
100
AcDbLine
 62
7
  6
BYLAYER
 10
15.5309019225
 20
10.9188132838
 11
15.5309019225
 21
11.2188132838
  0
LINE
  5
242
100
AcDbEntity
  8
00_COMPONENTS_1
100
AcDbLine
 62
7
  6
BYLAYER
 10
16.2809019225
 20
5.6688132838
 11
16.2809019225
 21
11.2188132838
  0
LINE
  5
243
100
AcDbEntity
  8
00_COMPONENTS_1
100
AcDbLine
 62
7
  6
BYLAYER
 10
17.0309019225
 20
5.9188132838
 11
17.0309019225
 21
6.9188132838
  0
LINE
  5
244
100
AcDbEntity
  8
00_COMPONENTS_1
100
AcDbLine
 62
7
  6
BYLAYER
 10
17.0809019225
 20
11.1188132838
 11
17.0809019225
 21
11.2188132838
  0
LINE
  5
245
100
AcDbEntity
  8
00_COMPONENTS_1
100
AcDbLine
 62
7
  6
BYLAYER
 10
17.9809019225
 20
11.2188132838
 11
17.9809019225
 21
11.1188132838
  0
LINE
  5
246
100
AcDbEntity
  8
00_COMPONENTS_1
100
AcDbLine
 62
7
  6
BYLAYER
 10
18.0309019225
 20
6.9188132838
 11
18.0309019225
 21
5.9188132838
  0
LINE
  5
247
100
AcDbEntity
  8
00_COMPONENTS_6
100
AcDbLine
 62
7
  6
BYLAYER
 10
18.4017496138
 20
11.1990436764
 11
18.4017496138
 21
11.1768511292
  0
LINE
  5
248
100
AcDbEntity
  8
00_COMPONENTS_1
100
AcDbLine
 62
7
  6
BYLAYER
 10
18.7809019225
 20
11.0932923115
 11
18.7809019225
 21
5.6688132838
  0
LINE
  5
249
100
AcDbEntity
  8
00_COMPONENTS_3
100
AcDbLine
 62
7
  6
BYLAYER
 10
19.5309019225
 20
11.2188132838
 11
19.5309019225
 21
10.9188132838
  0
LINE
  5
24A
100
AcDbEntity
  8
00_COMPONENTS_3
100
AcDbLine
 62
7
  6
BYLAYER
 10
19.9309019225
 20
10.9188132838
 11
19.9309019225
 21
11.2188132838
  0
LINE
  5
24B
100
AcDbEntity
  8
00_COMPONENTS_6
100
AcDbLine
 62
7
  6
BYLAYER
 10
18.7861136884
 20
11.0932923115
 11
18.7861175463
 21
11.1066060591
  0
LINE
  5
24C
100
AcDbEntity
  8
00_COMPONENTS_6
100
AcDbLine
 62
7
  6
BYLAYER
 10
20.0031176116
 20
11.2188132838
 11
20.0031176627
 21
11.1768493343
  0
LINE
  5
24D
100
AcDbEntity
  8
00_COMPONENTS_6
100
AcDbLine
 62
7
  6
BYLAYER
 10
20.0406193379
 20
11.0932920164
 11
20.0406201859
 21
11.1294906142
  0
LINE
  5
24E
100
AcDbEntity
  8
00_COMPONENTS_6
100
AcDbLine
 62
7
  6
BYLAYER
 10
20.0901671201
 20
11.2188132838
 11
20.0901667083
 21
11.1294906142
  0
LINE
  5
24F
100
AcDbEntity
  8
00_COMPONENTS_6
100
AcDbLine
 62
7
  6
BYLAYER
 10
20.1678697682
 20
11.2188132838
 11
20.167873988
 21
11.1294906142
  0
LINE
  5
250
100
AcDbEntity
  8
00_COMPONENTS_6
100
AcDbLine
 62
7
  6
BYLAYER
 10
20.2174047727
 20
11.1294906142
 11
20.2174035706
 21
11.0932920117
  0
LINE
  5
251
100
AcDbEntity
  8
00_COMPONENTS_1
100
AcDbLine
 62
7
  6
BYLAYER
 10
20.6809019225
 20
5.6688132838
 11
20.6809019225
 21
11.0932920713
  0
LINE
  5
252
100
AcDbEntity
  8
00_COMPONENTS_1
100
AcDbLine
 62
7
  6
BYLAYER
 10
21.4309019225
 20
5.9188132838
 11
21.4309019225
 21
6.9188132838
  0
LINE
  5
253
100
AcDbEntity
  8
00_COMPONENTS_1
100
AcDbLine
 62
7
  6
BYLAYER
 10
21.4809019225
 20
11.1188132838
 11
21.4809019225
 21
11.2188132838
  0
LINE
  5
254
100
AcDbEntity
  8
00_COMPONENTS_1
100
AcDbLine
 62
7
  6
BYLAYER
 10
22.3809019225
 20
11.2188132838
 11
22.3809019225
 21
11.1188132838
  0
LINE
  5
255
100
AcDbEntity
  8
00_COMPONENTS_1
100
AcDbLine
 62
7
  6
BYLAYER
 10
22.4309019225
 20
6.9188132838
 11
22.4309019225
 21
5.9188132838
  0
LINE
  5
256
100
AcDbEntity
  8
00_COMPONENTS_1
100
AcDbLine
 62
7
  6
BYLAYER
 10
23.1809019225
 20
11.2188132838
 11
23.1809019225
 21
5.6688132838
  0
LINE
  5
257
100
AcDbEntity
  8
00_COMPONENTS_6
100
AcDbLine
 62
7
  6
BYLAYER
 10
20.2565437169
 20
11.184792087
 11
20.2555982665
 21
11.1789559223
  0
LINE
  5
258
100
AcDbEntity
  8
00_COMPONENTS_3
100
AcDbLine
 62
7
  6
BYLAYER
 10
23.9309019225
 20
11.2188132838
 11
23.9309019225
 21
10.9188132838
  0
LINE
  5
259
100
AcDbEntity
  8
00_COMPONENTS_3
100
AcDbLine
 62
7
  6
BYLAYER
 10
24.1809019225
 20
10.7188132838
 11
24.1809019225
 21
11.2188132838
  0
LINE
  5
25A
100
AcDbEntity
  8
00_COMPONENTS_1
100
AcDbLine
 62
7
  6
BYLAYER
 10
25.0809019225
 20
5.6688132838
 11
25.0809019225
 21
10.7188132838
  0
LINE
  5
25B
100
AcDbEntity
  8
00_COMPONENTS_1
100
AcDbLine
 62
7
  6
BYLAYER
 10
25.8309019225
 20
5.9188132838
 11
25.8309019225
 21
6.9188132838
  0
LINE
  5
25C
100
AcDbEntity
  8
00_COMPONENTS_1
100
AcDbLine
 62
7
  6
BYLAYER
 10
26.8309019225
 20
6.9188132838
 11
26.8309019225
 21
5.9188132838
  0
LINE
  5
25D
100
AcDbEntity
  8
00_COMPONENTS_1
100
AcDbLine
 62
7
  6
BYLAYER
 10
27.5809019225
 20
10.7188132838
 11
27.5809019225
 21
5.6688132838
  0
LINE
  5
25E
100
AcDbEntity
  8
00_COMPONENTS_4
100
AcDbLine
 62
7
  6
BYLAYER
 10
29.4837732402
 20
49.7240484517
 11
29.5309933054
 21
47.0188132838
  0
LINE
  5
25F
100
AcDbEntity
  8
00_COMPONENTS_3
100
AcDbLine
 62
7
  6
BYLAYER
 10
28.4809019225
 20
10.7188132838
 11
28.4809019225
 21
11.2188132838
  0
LINE
  5
260
100
AcDbEntity
  8
00_COMPONENTS_3
100
AcDbLine
 62
7
  6
BYLAYER
 10
28.7309019225
 20
10.9188132838
 11
28.7309019225
 21
11.2188132838
  0
LINE
  5
261
100
AcDbEntity
  8
00_COMPONENTS_3
100
AcDbLine
 62
7
  6
BYLAYER
 10
29.1309019225
 20
11.2188132838
 11
29.1309019225
 21
10.9188132838
  0
LINE
  5
262
100
AcDbEntity
  8
00_COMPONENTS_3
100
AcDbLine
 62
7
  6
BYLAYER
 10
29.2309019225
 20
11.2188132838
 11
29.2309019225
 21
12.2188132838
  0
LINE
  5
263
100
AcDbEntity
  8
00_COMPONENTS
100
AcDbLine
 62
7
  6
BYLAYER
 10
29.4809019225
 20
12.2188132838
 11
29.4809019225
 21
47.0188132838
  0
LINE
  5
264
100
AcDbEntity
  8
00_COMPONENTS_4
100
AcDbLine
 62
7
  6
BYLAYER
 10
29.4837732402
 20
49.7240484517
 11
29.4837732402
 21
50.0188132838
  0
LINE
  5
265
100
AcDbEntity
  8
00_COMPONENTS_4
100
AcDbLine
 62
7
  6
BYLAYER
 10
30.1309019225
 20
47.0188132838
 11
30.083681867
 21
49.7240484517
  0
LINE
  5
266
100
AcDbEntity
  8
00_COMPONENTS
100
AcDbLine
 62
7
  6
BYLAYER
 10
30.1201644028
 20
47.0188132838
 11
30.1809019225
 21
12.2188132838
  0
LINE
  5
267
100
AcDbEntity
  8
00_COMPONENTS_3
100
AcDbLine
 62
7
  6
BYLAYER
 10
30.2309019225
 20
12.2188132838
 11
30.2309019225
 21
11.2188132838
  0
LINE
  5
268
100
AcDbEntity
  8
00_COMPONENTS
100
AcDbLine
 62
7
  6
BYLAYER
 10
9.9308199787
 20
47.0188132838
 11
29.5309838663
 21
47.0188132838
  0
LINE
  5
269
100
AcDbEntity
  8
00_COMPONENTS_4
100
AcDbLine
 62
7
  6
BYLAYER
 10
9.3309019225
 20
47.0188132838
 11
30.1309019225
 21
47.0188132838
  0
LINE
  5
26A
100
AcDbEntity
  8
00_COMPONENTS_4
100
AcDbLine
 62
7
  6
BYLAYER
 10
29.4837732402
 20
49.7240484517
 11
9.9780306048
 21
49.7240484517
  0
LINE
  5
26B
100
AcDbEntity
  8
00_COMPONENTS_4
100
AcDbLine
 62
7
  6
BYLAYER
 10
9.6780762962
 20
50.0188132838
 11
29.7837275488
 21
50.0188132838
  0
ARC
  5
26C
100
AcDbEntity
  8
00_COMPONENTS_4
100
AcDbCircle
 62
7
  6
BYLAYER
 10
9.4993117535
 20
-2.4519708542
 40
52.1782149399
100
AcDbArc
 50
89.4743217244
 51
89.9401040473
  0
ARC
  5
26D
100
AcDbEntity
  8
00_COMPONENTS_4
100
AcDbCircle
 62
7
  6
BYLAYER
 10
29.9624920913
 20
-2.4519708167
 40
52.1782149024
100
AcDbArc
 50
90.0598959526
 51
90.5256782758
  0
ARC
  5
26E
100
AcDbEntity
  8
00_COMPONENTS_6
100
AcDbCircle
 62
7
  6
BYLAYER
 10
19.1058523395
 20
13.5654400265
 40
2.4902043226
100
AcDbArc
 50
253.5756589942
 51
255.3026100065
  0
ARC
  5
26F
100
AcDbEntity
  8
00_COMPONENTS_1
100
AcDbCircle
 62
7
  6
BYLAYER
 10
17.5309019225
 20
5.6688132838
 40
1.25
100
AcDbArc
 50
180.0
 51
360.0
  0
ARC
  5
270
100
AcDbEntity
  8
00_COMPONENTS_1
100
AcDbCircle
 62
7
  6
BYLAYER
 10
21.9309019225
 20
5.6688132838
 40
1.25
100
AcDbArc
 50
180.0
 51
360.0
  0
ARC
  5
271
100
AcDbEntity
  8
00_COMPONENTS_1
100
AcDbCircle
 62
7
  6
BYLAYER
 10
13.1309019225
 20
5.6688132838
 40
1.25
100
AcDbArc
 50
180.0
 51
360.0
  0
ARC
  5
272
100
AcDbEntity
  8
00_COMPONENTS_1
100
AcDbCircle
 62
7
  6
BYLAYER
 10
26.3309019225
 20
5.6688132838
 40
1.25
100
AcDbArc
 50
180.0
 51
360.0
  0
ARC
  5
273
100
AcDbEntity
  8
00_COMPONENTS_1
100
AcDbCircle
 62
7
  6
BYLAYER
 10
17.5309019225
 20
6.9188132838
 40
0.5
100
AcDbArc
 50
0.0
 51
180.0
  0
ARC
  5
274
100
AcDbEntity
  8
00_COMPONENTS_1
100
AcDbCircle
 62
7
  6
BYLAYER
 10
17.5309019225
 20
5.9188132838
 40
0.5
100
AcDbArc
 50
180.0
 51
360.0
  0
ARC
  5
275
100
AcDbEntity
  8
00_COMPONENTS_1
100
AcDbCircle
 62
7
  6
BYLAYER
 10
21.9309019225
 20
6.9188132838
 40
0.5
100
AcDbArc
 50
0.0
 51
180.0
  0
ARC
  5
276
100
AcDbEntity
  8
00_COMPONENTS_1
100
AcDbCircle
 62
7
  6
BYLAYER
 10
21.9309019225
 20
5.9188132838
 40
0.5
100
AcDbArc
 50
180.0
 51
360.0
  0
ARC
  5
277
100
AcDbEntity
  8
00_COMPONENTS_1
100
AcDbCircle
 62
7
  6
BYLAYER
 10
13.1309019225
 20
6.9188132838
 40
0.5
100
AcDbArc
 50
0.0
 51
180.0
  0
ARC
  5
278
100
AcDbEntity
  8
00_COMPONENTS_1
100
AcDbCircle
 62
7
  6
BYLAYER
 10
13.1309019225
 20
5.9188132838
 40
0.5
100
AcDbArc
 50
180.0
 51
360.0
  0
ARC
  5
279
100
AcDbEntity
  8
00_COMPONENTS_1
100
AcDbCircle
 62
7
  6
BYLAYER
 10
26.3309019225
 20
6.9188132838
 40
0.5
100
AcDbArc
 50
0.0
 51
180.0
  0
ARC
  5
27A
100
AcDbEntity
  8
00_COMPONENTS_1
100
AcDbCircle
 62
7
  6
BYLAYER
 10
26.3309019225
 20
5.9188132838
 40
0.5
100
AcDbArc
 50
180.0
 51
360.0
  0
ARC
  5
27B
100
AcDbEntity
  8
00_COMPONENTS_4
100
AcDbCircle
 62
7
  6
BYLAYER
 10
9.6780762962
 20
49.7188132838
 40
0.3
100
AcDbArc
 50
90.0
 51
179.0001058229
  0
ARC
  5
27C
100
AcDbEntity
  8
00_COMPONENTS_4
100
AcDbCircle
 62
7
  6
BYLAYER
 10
29.7837275488
 20
49.7188132838
 40
0.3
100
AcDbArc
 50
0.9999470886
 51
90.0
  0
ARC
  5
27D
100
AcDbEntity
  8
00_COMPONENTS_3
100
AcDbCircle
 62
7
  6
BYLAYER
 10
28.9309019225
 20
10.9188132838
 40
0.2
100
AcDbArc
 50
180.0
 51
360.0
  0
ARC
  5
27E
100
AcDbEntity
  8
00_COMPONENTS_3
100
AcDbCircle
 62
7
  6
BYLAYER
 10
24.1309019225
 20
10.9188132838
 40
0.2
100
AcDbArc
 50
180.0
 51
288.1937374959
  0
ARC
  5
27F
100
AcDbEntity
  8
00_COMPONENTS_3
100
AcDbCircle
 62
7
  6
BYLAYER
 10
15.3309019225
 20
10.9188132838
 40
0.2
100
AcDbArc
 50
252.2784630283
 51
360.0
  0
ARC
  5
280
100
AcDbEntity
  8
00_COMPONENTS_3
100
AcDbCircle
 62
7
  6
BYLAYER
 10
19.7309019225
 20
10.9188132838
 40
0.2
100
AcDbArc
 50
180.0
 51
360.0
  0
ARC
  5
281
100
AcDbEntity
  8
00_COMPONENTS_3
100
AcDbCircle
 62
7
  6
BYLAYER
 10
10.5309019225
 20
10.9188132838
 40
0.2
100
AcDbArc
 50
180.0
 51
360.0
  0
SPLINE
  5
282
100
AcDbEntity
  8
00_COMPONENTS_6
100
AcDbSpline
 62
7
  6
BYLAYER
 70
0
 71
3
 72
9
 73
5
 74
0
 42
0.0000001
 43
0.0000001
 44
0.0000000001
 40
0.0
 40
0.0
 40
0.0
 40
0.0
 40
0.7499305694
 40
1.0
 40
1.0
 40
1.0
 40
1.0
 10
18.7861136884
 20
11.0932923115
 30
0.0
 10
18.7073858969
 20
11.105213054
 30
0.0
 10
18.6028500027
 20
11.1246138916
 30
0.0
 10
18.4997346465
 20
11.1499763758
 30
0.0
 10
18.4740529334
 20
11.1567169044
 30
0.0
  0
SPLINE
  5
283
100
AcDbEntity
  8
00_COMPONENTS_6
100
AcDbSpline
 62
7
  6
BYLAYER
 70
0
 71
3
 72
10
 73
6
 74
0
 42
0.0000001
 43
0.0000001
 44
0.0000000001
 40
0.0
 40
0.0
 40
0.0
 40
0.0
 40
0.5601525532
 40
0.8011104345
 40
1.0
 40
1.0
 40
1.0
 40
1.0
 10
18.4017496138
 20
11.1768511292
 30
0.0
 10
18.3747144197
 20
11.1848251632
 30
0.0
 10
18.3361209266
 20
11.1964711487
 30
0.0
 10
18.2880064015
 20
11.2112031215
 30
0.0
 10
18.266829861
 20
11.2176398924
 30
0.0
 10
18.2572368297
 20
11.2204920192
 30
0.0
  0
SPLINE
  5
284
100
AcDbEntity
  8
00_COMPONENTS_6
100
AcDbSpline
 62
7
  6
BYLAYER
 70
0
 71
3
 72
11
 73
7
 74
0
 42
0.0000001
 43
0.0000001
 44
0.0000000001
 40
0.0
 40
0.0
 40
0.0
 40
0.0
 40
0.2172434515
 40
0.4641044489
 40
0.7289872092
 40
1.0
 40
1.0
 40
1.0
 40
1.0
 10
18.3215376087
 20
11.2204431986
 30
0.0
 10
18.3330806099
 20
11.2177099431
 30
0.0
 10
18.3576404173
 20
11.2114508753
 30
0.0
 10
18.3960372869
 20
11.2009548571
 30
0.0
 10
18.4371457445
 20
11.1892523802
 30
0.0
 10
18.4652295414
 20
11.1810334234
 30
0.0
 10
18.4794231933
 20
11.1768470102
 30
0.0
  0
SPLINE
  5
285
100
AcDbEntity
  8
00_COMPONENTS_6
100
AcDbSpline
 62
7
  6
BYLAYER
 70
0
 71
3
 72
9
 73
5
 74
0
 42
0.0000001
 43
0.0000001
 44
0.0000000001
 40
0.0
 40
0.0
 40
0.0
 40
0.0
 40
0.5000221636
 40
1.0
 40
1.0
 40
1.0
 40
1.0
 10
18.479421342
 20
11.1768561801
 30
0.0
 10
18.5423426749
 20
11.1582970622
 30
0.0
 10
18.6697279829
 20
11.1262978539
 30
0.0
 10
18.7989472713
 20
11.1031126284
 30
0.0
 10
18.8638035229
 20
11.0932923115
 30
0.0
  0
SPLINE
  5
286
100
AcDbEntity
  8
00_COMPONENTS_6
100
AcDbSpline
 62
7
  6
BYLAYER
 70
0
 71
3
 72
11
 73
7
 74
0
 42
0.0000001
 43
0.0000001
 44
0.0000000001
 40
0.0
 40
0.0
 40
0.0
 40
0.0
 40
0.2028100006
 40
0.4343892618
 40
0.6988477666
 40
1.0
 40
1.0
 40
1.0
 40
1.0
 10
19.4211846827
 20
11.0932923115
 30
0.0
 10
19.4246276768
 20
11.0986354635
 30
0.0
 10
19.4314815482
 20
11.1104189941
 30
0.0
 10
19.4410729927
 20
11.1301274985
 30
0.0
 10
19.4505793344
 20
11.1532484655
 30
0.0
 10
19.4564445393
 20
11.1699856459
 30
0.0
 10
19.4593794182
 20
11.1789563235
 30
0.0
  0
SPLINE
  5
287
100
AcDbEntity
  8
00_COMPONENTS_6
100
AcDbSpline
 62
7
  6
BYLAYER
 70
0
 71
3
 72
13
 73
9
 74
0
 42
0.0000001
 43
0.0000001
 44
0.0000000001
 40
0.0
 40
0.0
 40
0.0
 40
0.0
 40
0.1600683066
 40
0.2606003537
 40
0.3766975557
 40
0.5088996001
 40
0.6572705899
 40
1.0
 40
1.0
 40
1.0
 40
1.0
 10
19.4593794182
 20
11.1789563235
 30
0.0
 10
19.460819568
 20
11.1833582493
 30
0.0
 10
19.465541668
 20
11.1896869842
 30
0.0
 10
19.4738915775
 20
11.1966505615
 30
0.0
 10
19.4824298608
 20
11.2021035848
 30
0.0
 10
19.4926774065
 20
11.2072945063
 30
0.0
 10
19.5093778461
 20
11.2141443075
 30
0.0
 10
19.5230493852
 20
11.2181750643
 30
0.0
 10
19.5326791185
 20
11.2205436668
 30
0.0
  0
SPLINE
  5
288
100
AcDbEntity
  8
00_COMPONENTS_6
100
AcDbSpline
 62
7
  6
BYLAYER
 70
0
 71
3
 72
14
 73
10
 74
0
 42
0.0000001
 43
0.0000001
 44
0.0000000001
 40
0.0
 40
0.0
 40
0.0
 40
0.0
 40
0.3445453425
 40
0.490329336
 40
0.618755174
 40
0.7310790854
 40
0.8294878111
 40
0.9174653207
 40
1.0
 40
1.0
 40
1.0
 40
1.0
 10
20.2101621896
 20
11.220492456
 30
0.0
 10
20.2169815106
 20
11.218450143
 30
0.0
 10
20.2265650484
 20
11.2150093492
 30
0.0
 10
20.2379182248
 20
11.209094451
 30
0.0
 10
20.2445742289
 20
11.2046451158
 30
0.0
 10
20.2498285746
 20
11.1999667825
 30
0.0
 10
20.2536573289
 20
11.1950708527
 30
0.0
 10
20.2560041261
 20
11.1899698457
 30
0.0
 10
20.2565382695
 20
11.1864284762
 30
0.0
 10
20.2565395065
 20
11.1847232447
 30
0.0
  0
SPLINE
  5
289
100
AcDbEntity
  8
00_COMPONENTS_6
100
AcDbSpline
 62
7
  6
BYLAYER
 70
0
 71
3
 72
10
 73
6
 74
0
 42
0.0000001
 43
0.0000001
 44
0.0000000001
 40
0.0
 40
0.0
 40
0.0
 40
0.0
 40
0.550567127
 40
0.7928830125
 40
1.0
 40
1.0
 40
1.0
 40
1.0
 10
21.0671454434
 20
11.1789561404
 30
0.0
 10
21.0921749763
 20
11.186420595
 30
0.0
 10
21.1281578516
 20
11.1973805823
 30
0.0
 10
21.1734808822
 20
11.211393406
 30
0.0
 10
21.193852395
 20
11.2176857807
 30
0.0
 10
21.2032526929
 20
11.2205453573
 30
0.0
  0
SPLINE
  5
28A
100
AcDbEntity
  8
00_COMPONENTS_6
100
AcDbSpline
 62
7
  6
BYLAYER
 70
0
 71
3
 72
9
 73
5
 74
0
 42
0.0000001
 43
0.0000001
 44
0.0000000001
 40
0.0
 40
0.0
 40
0.0
 40
0.0
 40
0.4999778364
 40
1.0
 40
1.0
 40
1.0
 40
1.0
 10
20.6756859118
 20
11.0932918801
 30
0.0
 10
20.7417572609
 20
11.1032961661
 30
0.0
 10
20.8733862914
 20
11.1269978741
 30
0.0
 10
21.0030996644
 20
11.159856095
 30
0.0
 10
21.0671427681
 20
11.1789553524
 30
0.0
  0
SPLINE
  5
28B
100
AcDbEntity
  8
00_COMPONENTS_6
100
AcDbSpline
 62
7
  6
BYLAYER
 70
0
 71
3
 72
10
 73
6
 74
0
 42
0.0000001
 43
0.0000001
 44
0.0000000001
 40
0.0
 40
0.0
 40
0.0
 40
0.0
 40
0.4353552417
 40
0.6996516747
 40
1.0
 40
1.0
 40
1.0
 40
1.0
 10
20.0406193379
 20
11.0932920164
 30
0.0
 10
20.0334048773
 20
11.1044880425
 30
0.0
 10
20.0234895146
 20
11.1235698632
 30
0.0
 10
20.0117715442
 20
11.1518304843
 30
0.0
 10
20.0060035338
 20
11.1681254984
 30
0.0
 10
20.0031176627
 20
11.1768493343
 30
0.0
  0
SPLINE
  5
28C
100
AcDbEntity
  8
00_COMPONENTS_6
100
AcDbSpline
 62
7
  6
BYLAYER
 70
0
 71
3
 72
13
 73
9
 74
0
 42
0.0000001
 43
0.0000001
 44
0.0000000001
 40
0.0
 40
0.0
 40
0.0
 40
0.0
 40
0.1548762969
 40
0.2544115705
 40
0.3705242359
 40
0.5036209443
 40
0.6535253099
 40
1.0
 40
1.0
 40
1.0
 40
1.0
 10
20.0031174478
 20
11.1768499761
 30
0.0
 10
20.0015288376
 20
11.1816528221
 30
0.0
 10
19.9960489009
 20
11.1884855295
 30
0.0
 10
19.9864996263
 20
11.1958479923
 30
0.0
 10
19.9766290203
 20
11.2016267948
 30
0.0
 10
19.9647745792
 20
11.2070731213
 30
0.0
 10
19.9454580657
 20
11.2141694187
 30
0.0
 10
19.9297008036
 20
11.2181908724
 30
0.0
 10
19.9186202372
 20
11.2204919448
 30
0.0
  0
SPLINE
  5
28D
100
AcDbEntity
  8
00_COMPONENTS_6
100
AcDbSpline
 62
7
  6
BYLAYER
 70
0
 71
3
 72
10
 73
6
 74
0
 42
0.0000001
 43
0.0000001
 44
0.0000000001
 40
0.0
 40
0.0
 40
0.0
 40
0.0
 40
0.3012745855
 40
0.5658337005
 40
1.0
 40
1.0
 40
1.0
 40
1.0
 10
20.2555980485
 20
11.1789552643
 30
0.0
 10
20.2526628502
 20
11.1699836665
 30
0.0
 10
20.2467978991
 20
11.1532407983
 30
0.0
 10
20.2348798911
 20
11.1242643011
 30
0.0
 10
20.2247719551
 20
11.1047269103
 30
0.0
 10
20.2174035706
 20
11.0932920117
 30
0.0
  0
SPLINE
  5
28E
100
AcDbEntity
  8
00_COMPONENTS_4
100
AcDbSpline
 62
7
  6
BYLAYER
 70
0
 71
3
 72
23
 73
19
 74
0
 42
0.0000001
 43
0.0000001
 44
0.0000000001
 40
0.0
 40
0.0
 40
0.0
 40
0.0
 40
0.001297455
 40
0.004565417
 40
0.0098986478
 40
0.0172987594
 40
0.0267551405
 40
0.0382537579
 40
0.0673154468
 40
0.104355335
 40
0.1492409423
 40
0.2018384454
 40
0.2620133936
 40
0.3296310043
 40
0.4045563031
 40
0.5757894598
 40
0.7746314124
 40
1.0
 40
1.0
 40
1.0
 40
1.0
 10
9.37812197
 20
49.7240479915
 30
0.0
 10
9.378123297
 20
49.7241240202
 30
0.0
 10
9.3784712372
 20
49.7242216178
 30
0.0
 10
9.3789595391
 20
49.7243252029
 30
0.0
 10
9.3799361461
 20
49.7244394124
 30
0.0
 10
9.3812121638
 20
49.7245507697
 30
0.0
 10
9.3828779571
 20
49.7246614897
 30
0.0
 10
9.3858016248
 20
49.7248172491
 30
0.0
 10
9.3903486469
 20
49.7249937086
 30
0.0
 10
9.3968496244
 20
49.7251813796
 30
0.0
 10
9.4047321427
 20
49.7253552557
 30
0.0
 10
9.4139705695
 20
49.725514852
 30
0.0
 10
9.4245418084
 20
49.7256592591
 30
0.0
 10
9.4364218468
 20
49.7257880466
 30
0.0
 10
9.4548107459
 20
49.7259452991
 30
0.0
 10
9.4808906328
 20
49.7260923158
 30
0.0
 10
9.5157878294
 20
49.7261951597
 30
0.0
 10
9.5406496545
 20
49.7262155749
 30
0.0
 10
9.5538578886
 20
49.7262155749
 30
0.0
  0
SPLINE
  5
28F
100
AcDbEntity
  8
00_COMPONENTS_4
100
AcDbSpline
 62
7
  6
BYLAYER
 70
0
 71
3
 72
23
 73
19
 74
0
 42
0.0000001
 43
0.0000001
 44
0.0000000001
 40
0.0
 40
0.0
 40
0.0
 40
0.0
 40
0.2253685897
 40
0.4242105439
 40
0.5954437016
 40
0.6703690007
 40
0.7379866115
 40
0.7981615597
 40
0.8507590626
 40
0.8956446695
 40
0.9326845571
 40
0.9617462453
 40
0.9732448622
 40
0.9827012428
 40
0.9901013539
 40
0.9954345841
 40
0.9987025456
 40
1.0
 40
1.0
 40
1.0
 40
1.0
 10
29.9079459564
 20
49.7262155749
 30
0.0
 10
29.9211541906
 20
49.7262155749
 30
0.0
 10
29.9460160159
 20
49.7261951597
 30
0.0
 10
29.9809132128
 20
49.7260923158
 30
0.0
 10
30.0069930999
 20
49.7259452991
 30
0.0
 10
30.0253819991
 20
49.7257880466
 30
0.0
 10
30.0372620375
 20
49.725659259
 30
0.0
 10
30.0478332764
 20
49.7255148519
 30
0.0
 10
30.0570717031
 20
49.7253552557
 30
0.0
 10
30.0649542214
 20
49.7251813796
 30
0.0
 10
30.0714551987
 20
49.7249937086
 30
0.0
 10
30.0760022208
 20
49.7248172491
 30
0.0
 10
30.0789258884
 20
49.7246614897
 30
0.0
 10
30.0805916816
 20
49.7245507697
 30
0.0
 10
30.0818676992
 20
49.7244394124
 30
0.0
 10
30.0828443061
 20
49.7243252028
 30
0.0
 10
30.0833326078
 20
49.7242216178
 30
0.0
 10
30.0836805481
 20
49.7241240201
 30
0.0
 10
30.083681875
 20
49.7240479915
 30
0.0
  0
SPLINE
  5
290
100
AcDbEntity
  8
00_COMPONENTS_4
100
AcDbSpline
 62
7
  6
BYLAYER
 70
0
 71
3
 72
15
 73
11
 74
0
 42
0.0000001
 43
0.0000001
 44
0.0000000001
 40
0.0
 40
0.0
 40
0.0
 40
0.0
 40
0.1358579997
 40
0.2766121538
 40
0.4177654106
 40
0.5540292908
 40
0.6812563007
 40
0.7977303932
 40
0.9032198051
 40
1.0
 40
1.0
 40
1.0
 40
1.0
 10
29.9079459564
 20
49.7262155749
 30
0.0
 10
29.9076321246
 20
49.744197443
 30
0.0
 10
29.9046356815
 20
49.7808057011
 30
0.0
 10
29.8929221849
 20
49.8350401179
 30
0.0
 10
29.8731224518
 20
49.886969566
 30
0.0
 10
29.8461364603
 20
49.9335814882
 30
0.0
 10
29.8126147372
 20
49.9715485285
 30
0.0
 10
29.7750796598
 20
49.9992463976
 30
0.0
 10
29.7355710952
 20
50.0152804102
 30
0.0
 10
29.7086900731
 20
50.0188132838
 30
0.0
 10
29.6958785071
 20
50.0188132838
 30
0.0
  0
SPLINE
  5
291
100
AcDbEntity
  8
00_COMPONENTS_4
100
AcDbSpline
 62
7
  6
BYLAYER
 70
0
 71
3
 72
15
 73
11
 74
0
 42
0.0000001
 43
0.0000001
 44
0.0000000001
 40
0.0
 40
0.0
 40
0.0
 40
0.0
 40
0.1358579998
 40
0.2766121538
 40
0.4177654106
 40
0.5540292908
 40
0.6812563007
 40
0.7977303932
 40
0.9032198051
 40
1.0
 40
1.0
 40
1.0
 40
1.0
 10
9.5538578886
 20
49.7262155749
 30
0.0
 10
9.5541717204
 20
49.744197443
 30
0.0
 10
9.5571681635
 20
49.7808057011
 30
0.0
 10
9.5688816601
 20
49.8350401179
 30
0.0
 10
9.5886813932
 20
49.886969566
 30
0.0
 10
9.6156673846
 20
49.9335814882
 30
0.0
 10
9.6491891078
 20
49.9715485285
 30
0.0
 10
9.6867241851
 20
49.9992463976
 30
0.0
 10
9.7262327497
 20
50.0152804102
 30
0.0
 10
9.7531137719
 20
50.0188132838
 30
0.0
 10
9.7659253379
 20
50.0188132838
 30
0.0
  0
ENDSEC
  0
SECTION
  2
OBJECTS
  0
DICTIONARY
  5
C
100
AcDbDictionary
280
0
281
1
  3
ACAD_GROUP
350
D
  3
ACAD_MLINESTYLE
350
17
  3
ACAD_LAYOUT
350
1A
  3
ACAD_PLOTSETTINGS
350
19
  3
ACAD_PLOTSTYLENAME
350
E
  0
DICTIONARY
  5
D
102
{ACAD_REACTORS
330
C
102
}
100
AcDbDictionary
280
0
281
1
  0
ACDBDICTIONARYWDFLT
  5
E
102
{ACAD_REACTORS
330
C
102
}
100
AcDbDictionary
281
1
  3
Normal
350
F
100
AcDbDictionaryWithDefault
340
F
  0
DICTIONARY
  5
17
102
{ACAD_REACTORS
330
C
102
}
100
AcDbDictionary
280
0
281
1
  3
Standard
350
18
  0
DICTIONARY
  5
19
102
{ACAD_REACTORS
330
C
102
}
100
AcDbDictionary
281
1
  0
DICTIONARY
  5
1A
102
{ACAD_REACTORS
330
C
102
}
100
AcDbDictionary
281
1
  3
Model
350
292
  3
Layout1
350
293
  0
ACDBPLACEHOLDER
  5
F
102
{ACAD_REACTORS
330
E
102
}
  0
MLINESTYLE
  5
18
102
{ACAD_REACTORS
330
17
102
}
100
AcDbMlineStyle
  2
STANDARD
 70
0
  3

 62
256
 51
90.0
 52
90.0
 71
2
 49
0.5
 62
256
  6
BYLAYER
 49
-0.5
 62
256
  6
BYLAYER
  0
LAYOUT
  5
292
102
{ACAD_REACTORS
330
1A
102
}
100
AcDbPlotSettings
  1

  2
none_device
  4

  6

 40
0.0
 41
0.0
 42
0.0
 43
0.0
 44
210.0
 45
297.0
 46
0.0
 47
0.0
 48
0.0
 49
0.0
140
0.0
141
0.0
142
1.0
143
1.0
 70
1024
 72
1
 73
0
 74
0
  7

 75
0
147
1.0
148
0.0
149
0.0
100
AcDbLayout
  1
Model
 70
0
 71
0
 10
0.0
 20
0.0
 11
210.0
 21
297.0
 12
0.0
 22
0.0
 32
0.0
 14
0.0
 24
0.0
 34
0.0
 15
0.0
 25
0.0
 35
0.0
146
0.0
 13
0.0
 23
0.0
 33
0.0
 16
1.0
 26
0.0
 36
0.0
 17
0.0
 27
1.0
 37
0.0
 76
0
330
21C
345
0
346
0
  0
LAYOUT
  5
293
102
{ACAD_REACTORS
330
1A
102
}
100
AcDbPlotSettings
  1

  2
none_device
  4

  6

 40
0.0
 41
0.0
 42
0.0
 43
0.0
 44
210.0
 45
297.0
 46
0.0
 47
0.0
 48
0.0
 49
0.0
140
0.0
141
0.0
142
1.0
143
1.0
 70
0
 72
1
 73
0
 74
0
  7

 75
0
147
1.0
148
0.0
149
0.0
100
AcDbLayout
  1
Layout1
 70
0
 71
1
 10
0.0
 20
0.0
 11
210.0
 21
297.0
 12
0.0
 22
0.0
 32
0.0
 14
0.0
 24
0.0
 34
0.0
 15
0.0
 25
0.0
 35
0.0
146
0.0
 13
0.0
 23
0.0
 33
0.0
 16
1.0
 26
0.0
 36
0.0
 17
0.0
 27
1.0
 37
0.0
 76
0
330
21D
345
0
346
0
  0
ENDSEC
  0
EOF
