999
DXF file: C:\Users\sesa63760\Dev\_Creo\CAD\MCADID0005012_3D-CAD\drw0001_2.dxf
999
Pro/ENGINEER 2019471 by Parametric Technology Corporation
  0
SECTION
  2
HEADER
  9
$ACADVER
  1
AC1024
  9
$DWGCODEPAGE
  3
ANSI_1252
  9
$EXTMAX
 10
37.3634336179
 20
52.8425704025
 30
0.0
  9
$EXTMIN
 10
0.0
 20
0.0
 30
0.0
  9
$LIMMIN
 10
0.0
 20
0.0
  9
$LIMMAX
 10
37.3634336179
 20
52.8425704025
  9
$VIEWCTR
 10
18.681716809
 20
26.4212852012
  9
$VIEWSIZE
 40
52.8425704025
  9
$CLAYER
  8
0
  9
$LTSCALE
 40
3.4445527373
  9
$CELTYPE
  6
BYLAYER
  9
$DIMSCALE
 40
1.0
  9
$DIMASZ
 40
0.4448027812
  9
$DIMEXO
 40
1.0
  9
$DIMDLI
 40
2.3798728003
  9
$DIMEXE
 40
1.0
  9
$DIMCEN
 40
0.5636540843
  9
$DIMLFAC
 40
1.0
  9
$DIMBLK
  1
_FILLED
  9
$DIMALT
 70
0
  9
$DIMALTF
 40
0.0393700787
  9
$DIMTXT
 40
0.6227238936
  9
$DIMTOL
 70
1
  9
$DIMLIM
 70
0
  9
$DIMTFAC
 40
1.0
  9
$DIMTP
 40
0.01
  9
$DIMTM
 40
0.01
  9
$DIMGAP
 40
0.625
  9
$DIMDSEP
 70
46
  9
$AUNITS
 70
0
  9
$PDMODE
 70
3
  9
$PDSIZE
 40
0.3125
  9
$HANDSEED
  5
2A6
  9
$TILEMODE
 70
1
  9
$MEASUREMENT
 70
1
  9
$INSUNITS
 70
4
  0
ENDSEC
  0
SECTION
  2
CLASSES
  0
CLASS
  1
ACDBDICTIONARYWDFLT
  2
AcDbDictionaryWithDefault
  3
AutoCAD 2000
 90
0
 91
1
280
0
281
0
  0
CLASS
  1
ACDBPLACEHOLDER
  2
AcDbPlaceHolder
  3
AutoCAD 2000
 90
0
 91
1
280
0
281
0
  0
CLASS
  1
LAYOUT
  2
AcDbLayout
  3
AutoCAD 2000
 90
0
 91
0
280
0
281
0
  0
ENDSEC
  0
SECTION
  2
TABLES
  0
TABLE
  2
VPORT
  5
8
100
AcDbSymbolTable
 70
2
  0
VPORT
  5
1F4
100
AcDbSymbolTableRecord
100
AcDbViewportTableRecord
  2
*ACTIVE
 70
0
 10
0.0
 20
0.0
 11
1.0
 21
1.0
 12
18.681716809
 22
26.4212852012
 13
0.0
 23
0.0
 14
1.0
 24
1.0
 15
0.0
 25
0.0
 16
0.0
 26
0.0
 36
1.0
 17
0.0
 27
0.0
 37
0.0
 40
52.8425704025
 41
0.7070707071
 42
50.0
 43
0.0
 44
0.0
 50
0.0
 51
0.0
 71
0
 72
100
 73
1
 74
1
 75
0
 76
0
 77
0
 78
0
  0
ENDTAB
  0
TABLE
  2
LTYPE
  5
5
100
AcDbSymbolTable
 70
6
  0
LTYPE
  5
14
100
AcDbSymbolTableRecord
100
AcDbLinetypeTableRecord
  2
BYBLOCK
 70
0
  3

 72
65
 73
0
 40
0.0
  0
LTYPE
  5
15
100
AcDbSymbolTableRecord
100
AcDbLinetypeTableRecord
  2
BYLAYER
 70
0
  3

 72
65
 73
0
 40
0.0
  0
LTYPE
  5
16
100
AcDbSymbolTableRecord
100
AcDbLinetypeTableRecord
  2
CONTINUOUS
 70
64
  3
Solid line
 72
65
 73
0
 40
0.0
  0
LTYPE
  5
1F5
100
AcDbSymbolTableRecord
100
AcDbLinetypeTableRecord
  2
CENTER
 70
64
  3
____ _ ____ _ ____ _ ____ _ ____ _ ____ _ ____
 72
65
 73
4
 40
0.6
 49
0.375
 74
0
 49
-0.075
 74
0
 49
0.075
 74
0
 49
-0.075
 74
0
  0
LTYPE
  5
1F6
100
AcDbSymbolTableRecord
100
AcDbLinetypeTableRecord
  2
HIDDEN
 70
64
  3
- - - - - - - - - - - - - - - - - - - -
 72
65
 73
2
 40
0.2
 49
0.1
 74
0
 49
-0.1
 74
0
  0
LTYPE
  5
1F7
100
AcDbSymbolTableRecord
100
AcDbLinetypeTableRecord
  2
PHANTOM
 70
64
  3
_____ _ _ _____ _ _ _____ _ _ _____
 72
65
 73
6
 40
0.8
 49
0.45
 74
0
 49
-0.05
 74
0
 49
0.1
 74
0
 49
-0.05
 74
0
 49
0.1
 74
0
 49
-0.05
 74
0
  0
LTYPE
  5
1F8
100
AcDbSymbolTableRecord
100
AcDbLinetypeTableRecord
  2
DOT
 70
64
  3
. . . . . . . . . . . . . . . . . . . .
 72
65
 73
2
 40
0.2
 49
0.1
 74
0
 49
-0.1
 74
0
  0
LTYPE
  5
1F9
100
AcDbSymbolTableRecord
100
AcDbLinetypeTableRecord
  2
DASHED
 70
64
  3
- - - - - - - - - - - - - - - - - - - -
 72
65
 73
2
 40
0.2
 49
0.1
 74
0
 49
-0.1
 74
0
  0
ENDTAB
  0
TABLE
  2
LAYER
  5
2
100
AcDbSymbolTable
 70
36
  0
LAYER
  5
10
100
AcDbSymbolTableRecord
100
AcDbLayerTableRecord
  2
0
 70
0
 62
7
  6
CONTINUOUS
370
-3
390
F
  0
LAYER
  5
1FA
100
AcDbSymbolTableRecord
100
AcDbLayerTableRecord
  2
DEFAULT_1
 70
0
 62
7
  6
CENTER
370
-3
390
F
  0
LAYER
  5
1FB
100
AcDbSymbolTableRecord
100
AcDbLayerTableRecord
  2
DEFAULT_2
 70
0
 62
7
  6
HIDDEN
370
-3
390
F
  0
LAYER
  5
1FC
100
AcDbSymbolTableRecord
100
AcDbLayerTableRecord
  2
DEFAULT_3
 70
0
 62
7
  6
PHANTOM
370
-3
390
F
  0
LAYER
  5
1FD
100
AcDbSymbolTableRecord
100
AcDbLayerTableRecord
  2
00_COMPONENTS
 70
0
 62
7
  6
CONTINUOUS
370
-3
390
F
  0
LAYER
  5
1FE
100
AcDbSymbolTableRecord
100
AcDbLayerTableRecord
  2
00_COMPONENTS_1
 70
0
 62
7
  6
CONTINUOUS
370
-3
390
F
  0
LAYER
  5
1FF
100
AcDbSymbolTableRecord
100
AcDbLayerTableRecord
  2
00_COMPONENTS_3
 70
0
 62
7
  6
CONTINUOUS
370
-3
390
F
  0
LAYER
  5
200
100
AcDbSymbolTableRecord
100
AcDbLayerTableRecord
  2
00_COMPONENTS_4
 70
0
 62
7
  6
CONTINUOUS
370
-3
390
F
  0
LAYER
  5
201
100
AcDbSymbolTableRecord
100
AcDbLayerTableRecord
  2
00_COMPONENTS_6
 70
0
 62
7
  6
CONTINUOUS
370
-3
390
F
  0
LAYER
  5
202
100
AcDbSymbolTableRecord
100
AcDbLayerTableRecord
  2
00_COMPONENTS_8
 70
0
 62
7
  6
CONTINUOUS
370
-3
390
F
  0
LAYER
  5
203
100
AcDbSymbolTableRecord
100
AcDbLayerTableRecord
  2
01_1_DEFAULT_DATUMS
 70
0
 62
7
  6
CONTINUOUS
370
-3
390
F
  0
LAYER
  5
204
100
AcDbSymbolTableRecord
100
AcDbLayerTableRecord
  2
01_PLANES
 70
0
 62
7
  6
CONTINUOUS
370
-3
390
F
  0
LAYER
  5
205
100
AcDbSymbolTableRecord
100
AcDbLayerTableRecord
  2
02_COORD_SYS
 70
0
 62
7
  6
CONTINUOUS
370
-3
390
F
  0
LAYER
  5
206
100
AcDbSymbolTableRecord
100
AcDbLayerTableRecord
  2
03_AXES
 70
0
 62
7
  6
CONTINUOUS
370
-3
390
F
  0
LAYER
  5
207
100
AcDbSymbolTableRecord
100
AcDbLayerTableRecord
  2
04_POINTS
 70
0
 62
7
  6
CONTINUOUS
370
-3
390
F
  0
LAYER
  5
208
100
AcDbSymbolTableRecord
100
AcDbLayerTableRecord
  2
05_CURVES
 70
0
 62
7
  6
CONTINUOUS
370
-3
390
F
  0
LAYER
  5
209
100
AcDbSymbolTableRecord
100
AcDbLayerTableRecord
  2
06_SURFS
 70
0
 62
7
  6
CONTINUOUS
370
-3
390
F
  0
LAYER
  5
20A
100
AcDbSymbolTableRecord
100
AcDbLayerTableRecord
  2
07_COSMETICS
 70
0
 62
7
  6
CONTINUOUS
370
-3
390
F
  0
LAYER
  5
20B
100
AcDbSymbolTableRecord
100
AcDbLayerTableRecord
  2
10_NOTES
 70
0
 62
7
  6
CONTINUOUS
370
-3
390
F
  0
LAYER
  5
20C
100
AcDbSymbolTableRecord
100
AcDbLayerTableRecord
  2
11_NOTES_PUB
 70
0
 62
7
  6
CONTINUOUS
370
-3
390
F
  0
LAYER
  5
20D
100
AcDbSymbolTableRecord
100
AcDbLayerTableRecord
  2
13_REF_GTOL
 70
0
 62
7
  6
CONTINUOUS
370
-3
390
F
  0
LAYER
  5
20E
100
AcDbSymbolTableRecord
100
AcDbLayerTableRecord
  2
16_MISC
 70
0
 62
7
  6
CONTINUOUS
370
-3
390
F
  0
LAYER
  5
20F
100
AcDbSymbolTableRecord
100
AcDbLayerTableRecord
  2
17_NO_PRINT
 70
0
 62
7
  6
CONTINUOUS
370
-3
390
F
  0
LAYER
  5
210
100
AcDbSymbolTableRecord
100
AcDbLayerTableRecord
  2
18_DATUM_CAMS_JOINTS
 70
0
 62
7
  6
CONTINUOUS
370
-3
390
F
  0
LAYER
  5
211
100
AcDbSymbolTableRecord
100
AcDbLayerTableRecord
  2
19_DATUM_FUNCTIONAL
 70
0
 62
7
  6
CONTINUOUS
370
-3
390
F
  0
LAYER
  5
212
100
AcDbSymbolTableRecord
100
AcDbLayerTableRecord
  2
20_DATUM_KINEMATIC_SCHEME
 70
0
 62
7
  6
CONTINUOUS
370
-3
390
F
  0
LAYER
  5
213
100
AcDbSymbolTableRecord
100
AcDbLayerTableRecord
  2
INTFCLR_8
 70
0
 62
7
  6
CONTINUOUS
370
-3
390
F
  0
LAYER
  5
214
100
AcDbSymbolTableRecord
100
AcDbLayerTableRecord
  2
NONE
 70
0
 62
7
  6
CONTINUOUS
370
-3
390
F
  0
LAYER
  5
215
100
AcDbSymbolTableRecord
100
AcDbLayerTableRecord
  2
NONE_1
 70
0
 62
7
  6
CONTINUOUS
370
-3
390
F
  0
LAYER
  5
216
100
AcDbSymbolTableRecord
100
AcDbLayerTableRecord
  2
NONE_2
 70
0
 62
7
  6
CONTINUOUS
370
-3
390
F
  0
LAYER
  5
217
100
AcDbSymbolTableRecord
100
AcDbLayerTableRecord
  2
NONE_3
 70
0
 62
7
  6
CONTINUOUS
370
-3
390
F
  0
LAYER
  5
218
100
AcDbSymbolTableRecord
100
AcDbLayerTableRecord
  2
NONE_4
 70
0
 62
7
  6
CONTINUOUS
370
-3
390
F
  0
LAYER
  5
219
100
AcDbSymbolTableRecord
100
AcDbLayerTableRecord
  2
NONE_5
 70
0
 62
7
  6
CONTINUOUS
370
-3
390
F
  0
ENDTAB
  0
TABLE
  2
STYLE
  5
3
100
AcDbSymbolTable
 70
1
  0
STYLE
  5
11
100
AcDbSymbolTableRecord
100
AcDbTextStyleTableRecord
  2
STANDARD
 70
0
 40
0.0
 41
1.0
 50
0.0
 71
0
 42
0.2
  3
ARIAL.TTF
  4

  0
STYLE
  5
21A
100
AcDbSymbolTableRecord
100
AcDbTextStyleTableRecord
  2
TEXTSTYLE_1
 70
0
 40
0.0
 41
0.8
 50
0.0
 71
0
 42
0.2
  3
gdt
  4

  0
ENDTAB
  0
TABLE
  2
VIEW
  5
6
100
AcDbSymbolTable
 70
0
  0
ENDTAB
  0
TABLE
  2
UCS
  5
7
100
AcDbSymbolTable
 70
0
  0
ENDTAB
  0
TABLE
  2
APPID
  5
9
100
AcDbSymbolTable
 70
1
  0
APPID
  5
21B
100
AcDbSymbolTableRecord
100
AcDbRegAppTableRecord
  2
ACAD
 70
0
  0
ENDTAB
  0
TABLE
  2
BLOCK_RECORD
  5
1
100
AcDbSymbolTable
 70
0
  0
BLOCK_RECORD
  5
21C
100
AcDbSymbolTableRecord
100
AcDbBlockTableRecord
  2
*Model_Space
  0
BLOCK_RECORD
  5
21D
100
AcDbSymbolTableRecord
100
AcDbBlockTableRecord
  2
*Paper_Space
  0
BLOCK_RECORD
  5
21E
100
AcDbSymbolTableRecord
100
AcDbBlockTableRecord
  2
_FILLED
  0
ENDTAB
  0
TABLE
  2
DIMSTYLE
  5
A
100
AcDbSymbolTable
 70
1
100
AcDbDimStyleTable
 71
0
  0
DIMSTYLE
105
21F
100
AcDbSymbolTableRecord
100
AcDbDimStyleTableRecord
  2
STANDARD
 70
0
  3

  4

 40
1.0
 41
0.4448027812
 42
1.0
 43
0.38
 44
1.0
 45
0.0
 46
0.0
 47
0.01
 48
0.01
140
0.6227238936
141
0.09
142
0.0
143
25.4
144
1.0
145
0.0
146
1.0
147
0.625
 71
1
 72
0
 73
0
 74
0
 75
0
 76
0
 77
1
 78
8
 79
2
170
0
171
1
172
0
173
0
174
0
175
0
176
0
177
0
178
0
270
2
179
2
271
2
272
2
273
2
274
2
275
0
280
0
281
0
282
0
283
1
284
8
285
0
286
0
287
3
288
0
340
11
278
46
341
21E
342
21E
343
21E
344
21E
  0
ENDTAB
  0
ENDSEC
  0
SECTION
  2
BLOCKS
  0
BLOCK
  5
20
100
AcDbEntity
  8
0
100
AcDbBlockBegin
  2
*Model_Space
 70
0
 10
0.0
 20
0.0
 30
0.0
  3
*Model_Space
  1

  0
ENDBLK
  5
21
100
AcDbEntity
  8
0
100
AcDbBlockEnd
  0
BLOCK
  5
1C
100
AcDbEntity
  8
0
100
AcDbBlockBegin
  2
*Paper_Space
 70
0
 10
0.0
 20
0.0
 30
0.0
  3
*Paper_Space
  1

  0
ENDBLK
  5
1D
100
AcDbEntity
  8
0
100
AcDbBlockEnd
  0
BLOCK
  5
220
100
AcDbEntity
  8
0
100
AcDbBlockBegin
  2
_FILLED
 70
64
 10
0.0
 20
0.0
  3
_FILLED
  1

  0
SOLID
  5
221
100
AcDbEntity
  8
0
  6
BYBLOCK
 62
0
100
AcDbTrace
 10
0.0
 20
0.0
 11
-1.0
 21
0.25
 12
-1.0
 22
-0.25
 13
-1.0
 23
-0.25
  0
ENDBLK
  5
222
100
AcDbEntity
  8
0
  6
BYBLOCK
 62
0
100
AcDbBlockEnd
  0
ENDSEC
  0
SECTION
  2
ENTITIES
  0
LINE
  5
223
100
AcDbEntity
  8
00_COMPONENTS_1
100
AcDbLine
 62
7
  6
BYLAYER
 10
8.9421327299
 20
3.5235400498
 11
9.2421327299
 21
3.5235400498
  0
LINE
  5
224
100
AcDbEntity
  8
00_COMPONENTS_1
100
AcDbLine
 62
7
  6
BYLAYER
 10
13.1421327299
 20
3.5235400498
 11
13.4421327299
 21
3.5235400498
  0
LINE
  5
225
100
AcDbEntity
  8
00_COMPONENTS_1
100
AcDbLine
 62
7
  6
BYLAYER
 10
19.3421327299
 20
3.5235400498
 11
19.6421327299
 21
3.5235400498
  0
LINE
  5
226
100
AcDbEntity
  8
00_COMPONENTS_1
100
AcDbLine
 62
7
  6
BYLAYER
 10
25.7421327299
 20
3.5235400498
 11
26.0421327299
 21
3.5235400498
  0
LINE
  5
227
100
AcDbEntity
  8
00_COMPONENTS_1
100
AcDbLine
 62
7
  6
BYLAYER
 10
8.8421327299
 20
4.7735400498
 11
9.3421327299
 21
4.7735400498
  0
LINE
  5
228
100
AcDbEntity
  8
00_COMPONENTS_1
100
AcDbLine
 62
7
  6
BYLAYER
 10
13.0421327299
 20
4.7735400498
 11
13.5421327299
 21
4.7735400498
  0
LINE
  5
229
100
AcDbEntity
  8
00_COMPONENTS_1
100
AcDbLine
 62
7
  6
BYLAYER
 10
19.2421327299
 20
4.7735400498
 11
19.7421327299
 21
4.7735400498
  0
LINE
  5
22A
100
AcDbEntity
  8
00_COMPONENTS_1
100
AcDbLine
 62
7
  6
BYLAYER
 10
25.6421327299
 20
4.7735400498
 11
26.1421327299
 21
4.7735400498
  0
LINE
  5
22B
100
AcDbEntity
  8
00_COMPONENTS_3
100
AcDbLine
 62
7
  6
BYLAYER
 10
7.4921327299
 20
9.8235400498
 11
21.4921327299
 21
9.8235400498
  0
LINE
  5
22C
100
AcDbEntity
  8
00_COMPONENTS_3
100
AcDbLine
 62
7
  6
BYLAYER
 10
23.7422154733
 20
9.8235400498
 11
28.0420499866
 21
9.8235400498
  0
LINE
  5
22D
100
AcDbEntity
  8
00_COMPONENTS_3
100
AcDbLine
 62
7
  6
BYLAYER
 10
7.4921327299
 20
10.0235400498
 11
21.4921327299
 21
10.0235400498
  0
LINE
  5
22E
100
AcDbEntity
  8
00_COMPONENTS_3
100
AcDbLine
 62
7
  6
BYLAYER
 10
6.4569798315
 20
10.1235400498
 11
7.4935182931
 21
10.1235400498
  0
LINE
  5
22F
100
AcDbEntity
  8
00_COMPONENTS_3
100
AcDbLine
 62
7
  6
BYLAYER
 10
21.8073993613
 20
10.1235400498
 11
23.4785532075
 21
10.1235400498
  0
LINE
  5
230
100
AcDbEntity
  8
00_COMPONENTS_3
100
AcDbLine
 62
7
  6
BYLAYER
 10
5.4921327299
 20
10.3235400498
 11
16.3421327299
 21
10.3235400498
  0
LINE
  5
231
100
AcDbEntity
  8
00_COMPONENTS_3
100
AcDbLine
 62
7
  6
BYLAYER
 10
21.4921327299
 20
10.3235400498
 11
32.4921327299
 21
10.3235400498
  0
LINE
  5
232
100
AcDbEntity
  8
00_COMPONENTS
100
AcDbLine
 62
7
  6
BYLAYER
 10
5.3921327299
 20
11.3235400498
 11
6.2173872961
 21
11.3235400498
  0
LINE
  5
233
100
AcDbEntity
  8
00_COMPONENTS_3
100
AcDbLine
 62
7
  6
BYLAYER
 10
6.2173872961
 20
11.3235400498
 11
16.3421327299
 21
11.3235400498
  0
LINE
  5
234
100
AcDbEntity
  8
00_COMPONENTS
100
AcDbLine
 62
7
  6
BYLAYER
 10
16.3421327299
 20
11.3235400498
 11
21.6421327299
 21
11.3235400498
  0
LINE
  5
235
100
AcDbEntity
  8
00_COMPONENTS_3
100
AcDbLine
 62
7
  6
BYLAYER
 10
21.6421327299
 20
11.3235400498
 11
31.7668781638
 21
11.3235400498
  0
LINE
  5
236
100
AcDbEntity
  8
00_COMPONENTS
100
AcDbLine
 62
7
  6
BYLAYER
 10
31.7668781638
 20
11.3235400498
 11
32.5921327299
 21
11.3235400498
  0
LINE
  5
237
100
AcDbEntity
  8
00_COMPONENTS_1
100
AcDbLine
 62
7
  6
BYLAYER
 10
8.8421327299
 20
4.0235400498
 11
8.9421325763
 21
3.5235408179
  0
LINE
  5
238
100
AcDbEntity
  8
00_COMPONENTS_3
100
AcDbLine
 62
7
  6
BYLAYER
 10
5.4921327299
 20
10.3235400498
 11
5.4921327299
 21
11.3235400498
  0
LINE
  5
239
100
AcDbEntity
  8
00_COMPONENTS_4
100
AcDbLine
 62
7
  6
BYLAYER
 10
6.0892614122
 20
49.1235400498
 11
6.0892614122
 21
48.8287752177
  0
LINE
  5
23A
100
AcDbEntity
  8
00_COMPONENTS
100
AcDbLine
 62
7
  6
BYLAYER
 10
6.0921327299
 20
46.1235400498
 11
6.0921327299
 21
11.3235400498
  0
LINE
  5
23B
100
AcDbEntity
  8
00_COMPONENTS_3
100
AcDbLine
 62
7
  6
BYLAYER
 10
6.4569798315
 20
10.1235400498
 11
6.4569798315
 21
10.3235400498
  0
LINE
  5
23C
100
AcDbEntity
  8
00_COMPONENTS_3
100
AcDbLine
 62
7
  6
BYLAYER
 10
6.4781336777
 20
10.1235400498
 11
6.4781336777
 21
10.3235400498
  0
LINE
  5
23D
100
AcDbEntity
  8
00_COMPONENTS_3
100
AcDbLine
 62
7
  6
BYLAYER
 10
6.4921327299
 20
11.3235400498
 11
6.4921327299
 21
10.3235400498
  0
LINE
  5
23E
100
AcDbEntity
  8
00_COMPONENTS
100
AcDbLine
 62
7
  6
BYLAYER
 10
5.3921327299
 20
11.3235400498
 11
5.4528702496
 21
46.1235400498
  0
LINE
  5
23F
100
AcDbEntity
  8
00_COMPONENTS_4
100
AcDbLine
 62
7
  6
BYLAYER
 10
5.4893527854
 20
48.8287752177
 11
5.4421327299
 21
46.1235400498
  0
LINE
  5
240
100
AcDbEntity
  8
00_COMPONENTS_4
100
AcDbLine
 62
7
  6
BYLAYER
 10
6.042041347
 20
46.1235400498
 11
6.0892614122
 21
48.8287752177
  0
LINE
  5
241
100
AcDbEntity
  8
00_COMPONENTS
100
AcDbLine
 62
7
  6
BYLAYER
 10
20.9421327299
 20
12.8235400498
 11
17.0421327299
 21
12.8235400498
  0
LINE
  5
242
100
AcDbEntity
  8
00_COMPONENTS_3
100
AcDbLine
 62
7
  6
BYLAYER
 10
17.1921327299
 20
12.9235400498
 11
20.7921327299
 21
12.9235400498
  0
LINE
  5
243
100
AcDbEntity
  8
00_COMPONENTS_3
100
AcDbLine
 62
7
  6
BYLAYER
 10
17.1921327299
 20
13.9235400498
 11
20.7921327299
 21
13.9235400498
  0
LINE
  5
244
100
AcDbEntity
  8
00_COMPONENTS_3
100
AcDbLine
 62
7
  6
BYLAYER
 10
7.4921327299
 20
9.8236156773
 11
7.4921327299
 21
10.3235400498
  0
LINE
  5
245
100
AcDbEntity
  8
00_COMPONENTS_3
100
AcDbLine
 62
7
  6
BYLAYER
 10
17.1921327299
 20
14.9235400498
 11
20.7921327299
 21
14.9235400498
  0
LINE
  5
246
100
AcDbEntity
  8
00_COMPONENTS
100
AcDbLine
 62
7
  6
BYLAYER
 10
17.0421327299
 20
15.0235400498
 11
20.9421327299
 21
15.0235400498
  0
LINE
  5
247
100
AcDbEntity
  8
00_COMPONENTS_1
100
AcDbLine
 62
7
  6
BYLAYER
 10
8.8421327299
 20
4.0235400498
 11
8.8421327299
 21
9.8235400498
  0
LINE
  5
248
100
AcDbEntity
  8
00_COMPONENTS_1
100
AcDbLine
 62
7
  6
BYLAYER
 10
9.3421327299
 20
4.0235400498
 11
9.3421327299
 21
9.8235400498
  0
LINE
  5
249
100
AcDbEntity
  8
00_COMPONENTS_1
100
AcDbLine
 62
7
  6
BYLAYER
 10
13.0421327299
 20
4.0235400498
 11
13.1421325763
 21
3.5235408179
  0
LINE
  5
24A
100
AcDbEntity
  8
00_COMPONENTS
100
AcDbLine
 62
7
  6
BYLAYER
 10
11.4921327299
 20
23.3235415729
 11
11.4921327299
 21
25.3235385267
  0
LINE
  5
24B
100
AcDbEntity
  8
00_COMPONENTS
100
AcDbLine
 62
7
  6
BYLAYER
 10
11.4921327299
 20
31.9235284743
 11
11.4921327299
 21
33.9235254282
  0
LINE
  5
24C
100
AcDbEntity
  8
00_COMPONENTS_1
100
AcDbLine
 62
7
  6
BYLAYER
 10
13.0421327299
 20
4.0235400498
 11
13.0421327299
 21
9.8235400498
  0
LINE
  5
24D
100
AcDbEntity
  8
00_COMPONENTS_1
100
AcDbLine
 62
7
  6
BYLAYER
 10
13.5421327299
 20
4.0235400498
 11
13.5421327299
 21
9.8235400498
  0
LINE
  5
24E
100
AcDbEntity
  8
00_COMPONENTS_1
100
AcDbLine
 62
7
  6
BYLAYER
 10
9.2421328836
 20
3.5235408179
 11
9.3421327299
 21
4.0235400498
  0
LINE
  5
24F
100
AcDbEntity
  8
00_COMPONENTS_1
100
AcDbLine
 62
7
  6
BYLAYER
 10
19.2421327299
 20
4.0235400498
 11
19.3421325763
 21
3.5235408179
  0
LINE
  5
250
100
AcDbEntity
  8
00_COMPONENTS_3
100
AcDbLine
 62
7
  6
BYLAYER
 10
16.3421327299
 20
11.3235400498
 11
16.3421327299
 21
10.3235400498
  0
LINE
  5
251
100
AcDbEntity
  8
00_COMPONENTS
100
AcDbLine
 62
7
  6
BYLAYER
 10
17.0421327299
 20
12.8235400498
 11
17.0421327299
 21
15.0235400498
  0
LINE
  5
252
100
AcDbEntity
  8
00_COMPONENTS_3
100
AcDbLine
 62
7
  6
BYLAYER
 10
17.1921327299
 20
12.9235400498
 11
17.1921327299
 21
14.9235400498
  0
LINE
  5
253
100
AcDbEntity
  8
00_COMPONENTS
100
AcDbLine
 62
7
  6
BYLAYER
 10
26.4921327299
 20
23.3235415729
 11
11.4921327299
 21
23.3235415729
  0
LINE
  5
254
100
AcDbEntity
  8
00_COMPONENTS_1
100
AcDbLine
 62
7
  6
BYLAYER
 10
13.4421328836
 20
3.5235408179
 11
13.5421327299
 21
4.0235400498
  0
LINE
  5
255
100
AcDbEntity
  8
00_COMPONENTS
100
AcDbLine
 62
7
  6
BYLAYER
 10
26.4921327299
 20
25.3235385267
 11
11.4921327299
 21
25.3235385267
  0
LINE
  5
256
100
AcDbEntity
  8
00_COMPONENTS_1
100
AcDbLine
 62
7
  6
BYLAYER
 10
19.2421327299
 20
4.0235400498
 11
19.2421327299
 21
9.8235400498
  0
LINE
  5
257
100
AcDbEntity
  8
00_COMPONENTS_1
100
AcDbLine
 62
7
  6
BYLAYER
 10
19.7421327299
 20
4.0235400498
 11
19.7421327299
 21
9.8235400498
  0
LINE
  5
258
100
AcDbEntity
  8
00_COMPONENTS_3
100
AcDbLine
 62
7
  6
BYLAYER
 10
20.7921327299
 20
12.9235400498
 11
20.7921327299
 21
14.9235400498
  0
LINE
  5
259
100
AcDbEntity
  8
00_COMPONENTS
100
AcDbLine
 62
7
  6
BYLAYER
 10
20.9421327299
 20
15.0235400498
 11
20.9421327299
 21
12.8235400498
  0
LINE
  5
25A
100
AcDbEntity
  8
00_COMPONENTS_3
100
AcDbLine
 62
7
  6
BYLAYER
 10
21.4921327299
 20
9.8236156773
 11
21.4921327299
 21
10.3235400498
  0
LINE
  5
25B
100
AcDbEntity
  8
00_COMPONENTS_3
100
AcDbLine
 62
7
  6
BYLAYER
 10
21.6421327299
 20
11.3235400498
 11
21.6421327299
 21
10.3235400498
  0
LINE
  5
25C
100
AcDbEntity
  8
00_COMPONENTS_3
100
AcDbLine
 62
7
  6
BYLAYER
 10
21.8073993613
 20
10.1235400498
 11
21.8073993613
 21
10.3235400498
  0
LINE
  5
25D
100
AcDbEntity
  8
00_COMPONENTS_3
100
AcDbLine
 62
7
  6
BYLAYER
 10
21.8285532075
 20
10.1235400498
 11
21.8285532075
 21
10.3235400498
  0
LINE
  5
25E
100
AcDbEntity
  8
00_COMPONENTS_1
100
AcDbLine
 62
7
  6
BYLAYER
 10
25.6421327299
 20
4.0235400498
 11
25.7421325763
 21
3.5235408179
  0
LINE
  5
25F
100
AcDbEntity
  8
00_COMPONENTS_3
100
AcDbLine
 62
7
  6
BYLAYER
 10
22.8439378229
 20
10.1235400498
 11
22.8439378229
 21
10.3235400498
  0
LINE
  5
260
100
AcDbEntity
  8
00_COMPONENTS_3
100
AcDbLine
 62
7
  6
BYLAYER
 10
23.0554762844
 20
10.1235400498
 11
23.0554762844
 21
10.3235400498
  0
LINE
  5
261
100
AcDbEntity
  8
00_COMPONENTS_3
100
AcDbLine
 62
7
  6
BYLAYER
 10
23.4573993613
 20
10.1235400498
 11
23.4573993613
 21
10.3235400498
  0
LINE
  5
262
100
AcDbEntity
  8
00_COMPONENTS_3
100
AcDbLine
 62
7
  6
BYLAYER
 10
23.4785532075
 20
10.1235400498
 11
23.4785532075
 21
10.3235400498
  0
LINE
  5
263
100
AcDbEntity
  8
00_COMPONENTS_3
100
AcDbLine
 62
7
  6
BYLAYER
 10
23.7421327299
 20
9.8235400498
 11
23.7421327299
 21
10.3235400498
  0
LINE
  5
264
100
AcDbEntity
  8
00_COMPONENTS_1
100
AcDbLine
 62
7
  6
BYLAYER
 10
19.6421328836
 20
3.5235408179
 11
19.7421327299
 21
4.0235400498
  0
LINE
  5
265
100
AcDbEntity
  8
00_COMPONENTS_1
100
AcDbLine
 62
7
  6
BYLAYER
 10
25.6421327299
 20
4.0235400498
 11
25.6421327299
 21
9.8235400498
  0
LINE
  5
266
100
AcDbEntity
  8
00_COMPONENTS_1
100
AcDbLine
 62
7
  6
BYLAYER
 10
26.1421327299
 20
4.0235400498
 11
26.1421327299
 21
9.8235400498
  0
LINE
  5
267
100
AcDbEntity
  8
00_COMPONENTS
100
AcDbLine
 62
7
  6
BYLAYER
 10
26.4921327299
 20
31.9235284743
 11
11.4921327299
 21
31.9235284743
  0
LINE
  5
268
100
AcDbEntity
  8
00_COMPONENTS
100
AcDbLine
 62
7
  6
BYLAYER
 10
26.4921327299
 20
23.3235415729
 11
26.4921327299
 21
25.3235385267
  0
LINE
  5
269
100
AcDbEntity
  8
00_COMPONENTS
100
AcDbLine
 62
7
  6
BYLAYER
 10
26.4921327299
 20
31.9235284743
 11
26.4921327299
 21
33.9235254282
  0
LINE
  5
26A
100
AcDbEntity
  8
00_COMPONENTS
100
AcDbLine
 62
7
  6
BYLAYER
 10
26.4921327299
 20
33.9235254282
 11
11.4921327299
 21
33.9235254282
  0
LINE
  5
26B
100
AcDbEntity
  8
00_COMPONENTS_3
100
AcDbLine
 62
7
  6
BYLAYER
 10
28.0421327299
 20
9.8235400498
 11
28.0421327299
 21
10.3235400498
  0
LINE
  5
26C
100
AcDbEntity
  8
00_COMPONENTS_3
100
AcDbLine
 62
7
  6
BYLAYER
 10
31.4921327299
 20
10.3235400498
 11
31.4921327299
 21
11.3235400498
  0
LINE
  5
26D
100
AcDbEntity
  8
00_COMPONENTS_1
100
AcDbLine
 62
7
  6
BYLAYER
 10
26.0421328836
 20
3.5235408179
 11
26.1421327299
 21
4.0235400498
  0
LINE
  5
26E
100
AcDbEntity
  8
00_COMPONENTS_4
100
AcDbLine
 62
7
  6
BYLAYER
 10
31.8950040477
 20
48.8287752177
 11
31.9422241129
 21
46.1235400498
  0
LINE
  5
26F
100
AcDbEntity
  8
00_COMPONENTS_4
100
AcDbLine
 62
7
  6
BYLAYER
 10
32.5421327299
 20
46.1235400498
 11
32.4949126744
 21
48.8287752177
  0
LINE
  5
270
100
AcDbEntity
  8
00_COMPONENTS
100
AcDbLine
 62
7
  6
BYLAYER
 10
32.5313952103
 20
46.1235400498
 11
32.5921327299
 21
11.3235400498
  0
LINE
  5
271
100
AcDbEntity
  8
00_COMPONENTS
100
AcDbLine
 62
7
  6
BYLAYER
 10
31.8921327299
 20
11.3235400498
 11
31.8921327299
 21
46.1235400498
  0
LINE
  5
272
100
AcDbEntity
  8
00_COMPONENTS_4
100
AcDbLine
 62
7
  6
BYLAYER
 10
31.8950040477
 20
48.8287752177
 11
31.8950040477
 21
49.1235400498
  0
LINE
  5
273
100
AcDbEntity
  8
00_COMPONENTS_3
100
AcDbLine
 62
7
  6
BYLAYER
 10
32.4921327299
 20
11.3235400498
 11
32.4921327299
 21
10.3235400498
  0
LINE
  5
274
100
AcDbEntity
  8
00_COMPONENTS
100
AcDbLine
 62
7
  6
BYLAYER
 10
6.0420489107
 20
46.1235400498
 11
31.9422146738
 21
46.1235400498
  0
LINE
  5
275
100
AcDbEntity
  8
00_COMPONENTS_4
100
AcDbLine
 62
7
  6
BYLAYER
 10
5.4421327299
 20
46.1235400498
 11
32.5421327299
 21
46.1235400498
  0
LINE
  5
276
100
AcDbEntity
  8
00_COMPONENTS_4
100
AcDbLine
 62
7
  6
BYLAYER
 10
31.8950040477
 20
48.8287752177
 11
6.0892614122
 21
48.8287752177
  0
LINE
  5
277
100
AcDbEntity
  8
00_COMPONENTS_4
100
AcDbLine
 62
7
  6
BYLAYER
 10
5.7893071037
 20
49.1235400498
 11
32.1949583562
 21
49.1235400498
  0
ARC
  5
278
100
AcDbEntity
  8
00_COMPONENTS_4
100
AcDbCircle
 62
7
  6
BYLAYER
 10
5.6105425618
 20
-3.3472438764
 40
52.1782147281
100
AcDbArc
 50
89.4743217285
 51
89.9401040479
  0
ARC
  5
279
100
AcDbEntity
  8
00_COMPONENTS
100
AcDbCircle
 62
7
  6
BYLAYER
 10
5.4137312014
 20
23.6985400498
 40
0.1250000035
100
AcDbArc
 50
89.8999999962
 51
269.9000000038
  0
ARC
  5
27A
100
AcDbEntity
  8
00_COMPONENTS
100
AcDbCircle
 62
7
  6
BYLAYER
 10
5.4146038656
 20
24.1985392883
 40
0.1250000035
100
AcDbArc
 50
89.9000000008
 51
269.8999999992
  0
ARC
  5
27B
100
AcDbEntity
  8
00_COMPONENTS
100
AcDbCircle
 62
7
  6
BYLAYER
 10
5.4154765297
 20
24.6985385267
 40
0.1250000035
100
AcDbArc
 50
89.9000000008
 51
269.8999999992
  0
ARC
  5
27C
100
AcDbEntity
  8
00_COMPONENTS
100
AcDbCircle
 62
7
  6
BYLAYER
 10
5.4163491939
 20
25.1985377652
 40
0.1250000035
100
AcDbArc
 50
89.9000000008
 51
269.8999999992
  0
ARC
  5
27D
100
AcDbEntity
  8
00_COMPONENTS
100
AcDbCircle
 62
7
  6
BYLAYER
 10
5.4172218581
 20
25.6985370036
 40
0.1250000035
100
AcDbArc
 50
89.9000000008
 51
269.8999999992
  0
ARC
  5
27E
100
AcDbEntity
  8
00_COMPONENTS
100
AcDbCircle
 62
7
  6
BYLAYER
 10
5.4180945223
 20
26.1985362421
 40
0.1250000035
100
AcDbArc
 50
89.9000000008
 51
269.8999999992
  0
ARC
  5
27F
100
AcDbEntity
  8
00_COMPONENTS
100
AcDbCircle
 62
7
  6
BYLAYER
 10
5.4189671865
 20
26.6985354805
 40
0.1250000035
100
AcDbArc
 50
89.9000000008
 51
269.8999999992
  0
ARC
  5
280
100
AcDbEntity
  8
00_COMPONENTS
100
AcDbCircle
 62
7
  6
BYLAYER
 10
5.4198398506
 20
27.198534719
 40
0.1250000035
100
AcDbArc
 50
89.8999999962
 51
269.9000000038
  0
ARC
  5
281
100
AcDbEntity
  8
00_COMPONENTS
100
AcDbCircle
 62
7
  6
BYLAYER
 10
5.4207125148
 20
27.6985339575
 40
0.1250000035
100
AcDbArc
 50
89.9000000008
 51
269.8999999992
  0
ARC
  5
282
100
AcDbEntity
  8
00_COMPONENTS
100
AcDbCircle
 62
7
  6
BYLAYER
 10
5.421585179
 20
28.1985331959
 40
0.1250000035
100
AcDbArc
 50
89.9000000008
 51
269.8999999992
  0
ARC
  5
283
100
AcDbEntity
  8
00_COMPONENTS
100
AcDbCircle
 62
7
  6
BYLAYER
 10
5.4224578432
 20
28.6985324344
 40
0.1250000035
100
AcDbArc
 50
89.8999999962
 51
269.9000000038
  0
ARC
  5
284
100
AcDbEntity
  8
00_COMPONENTS
100
AcDbCircle
 62
7
  6
BYLAYER
 10
5.4233305074
 20
29.1985316728
 40
0.1250000035
100
AcDbArc
 50
89.9000000008
 51
269.8999999992
  0
ARC
  5
285
100
AcDbEntity
  8
00_COMPONENTS
100
AcDbCircle
 62
7
  6
BYLAYER
 10
5.4242031716
 20
29.6985309113
 40
0.1250000035
100
AcDbArc
 50
89.9000000008
 51
269.8999999992
  0
ARC
  5
286
100
AcDbEntity
  8
00_COMPONENTS
100
AcDbCircle
 62
7
  6
BYLAYER
 10
5.4250758357
 20
30.1985301497
 40
0.1250000035
100
AcDbArc
 50
89.9000000008
 51
269.8999999992
  0
ARC
  5
287
100
AcDbEntity
  8
00_COMPONENTS
100
AcDbCircle
 62
7
  6
BYLAYER
 10
5.4259484999
 20
30.6985293882
 40
0.1250000035
100
AcDbArc
 50
89.9000000008
 51
269.8999999992
  0
ARC
  5
288
100
AcDbEntity
  8
00_COMPONENTS
100
AcDbCircle
 62
7
  6
BYLAYER
 10
5.4268211641
 20
31.1985286267
 40
0.1250000035
100
AcDbArc
 50
89.9000000008
 51
269.8999999992
  0
ARC
  5
289
100
AcDbEntity
  8
00_COMPONENTS
100
AcDbCircle
 62
7
  6
BYLAYER
 10
5.4276938283
 20
31.6985278651
 40
0.1250000035
100
AcDbArc
 50
89.9000000008
 51
269.8999999992
  0
ARC
  5
28A
100
AcDbEntity
  8
00_COMPONENTS
100
AcDbCircle
 62
7
  6
BYLAYER
 10
5.4285664925
 20
32.1985271036
 40
0.1250000035
100
AcDbArc
 50
89.8999999962
 51
269.9000000038
  0
ARC
  5
28B
100
AcDbEntity
  8
00_COMPONENTS
100
AcDbCircle
 62
7
  6
BYLAYER
 10
5.4294391567
 20
32.698526342
 40
0.1250000035
100
AcDbArc
 50
89.9000000008
 51
269.8999999992
  0
ARC
  5
28C
100
AcDbEntity
  8
00_COMPONENTS
100
AcDbCircle
 62
7
  6
BYLAYER
 10
5.4303118208
 20
33.1985255805
 40
0.1250000035
100
AcDbArc
 50
89.9000000008
 51
269.8999999992
  0
ARC
  5
28D
100
AcDbEntity
  8
00_COMPONENTS
100
AcDbCircle
 62
7
  6
BYLAYER
 10
5.431184485
 20
33.6985248189
 40
0.1250000035
100
AcDbArc
 50
89.8999999962
 51
269.9000000038
  0
ARC
  5
28E
100
AcDbEntity
  8
00_COMPONENTS
100
AcDbCircle
 62
7
  6
BYLAYER
 10
5.4320571492
 20
34.1985240574
 40
0.1250000035
100
AcDbArc
 50
89.9000000008
 51
269.8999999992
  0
ARC
  5
28F
100
AcDbEntity
  8
00_COMPONENTS
100
AcDbCircle
 62
7
  6
BYLAYER
 10
5.4329298134
 20
34.6985232959
 40
0.1250000035
100
AcDbArc
 50
89.9000000008
 51
269.8999999992
  0
ARC
  5
290
100
AcDbEntity
  8
00_COMPONENTS
100
AcDbCircle
 62
7
  6
BYLAYER
 10
5.4338024776
 20
35.1985225343
 40
0.1250000035
100
AcDbArc
 50
89.9000000008
 51
269.8999999992
  0
ARC
  5
291
100
AcDbEntity
  8
00_COMPONENTS
100
AcDbCircle
 62
7
  6
BYLAYER
 10
5.4346751418
 20
35.6985217728
 40
0.1250000035
100
AcDbArc
 50
89.9000000008
 51
269.8999999992
  0
ARC
  5
292
100
AcDbEntity
  8
00_COMPONENTS
100
AcDbCircle
 62
7
  6
BYLAYER
 10
5.4355478059
 20
36.1985210112
 40
0.1250000035
100
AcDbArc
 50
89.9000000008
 51
269.8999999992
  0
ARC
  5
293
100
AcDbEntity
  8
00_COMPONENTS
100
AcDbCircle
 62
7
  6
BYLAYER
 10
5.4364204701
 20
36.6985202497
 40
0.1250000035
100
AcDbArc
 50
89.9000000008
 51
269.8999999992
  0
ARC
  5
294
100
AcDbEntity
  8
00_COMPONENTS
100
AcDbCircle
 62
7
  6
BYLAYER
 10
5.4372931343
 20
37.1985194881
 40
0.1250000035
100
AcDbArc
 50
89.8999999962
 51
269.9000000038
  0
ARC
  5
295
100
AcDbEntity
  8
00_COMPONENTS
100
AcDbCircle
 62
7
  6
BYLAYER
 10
5.4381657985
 20
37.6985187266
 40
0.1250000035
100
AcDbArc
 50
89.9000000008
 51
269.8999999992
  0
ARC
  5
296
100
AcDbEntity
  8
00_COMPONENTS
100
AcDbCircle
 62
7
  6
BYLAYER
 10
5.4390384627
 20
38.198517965
 40
0.1250000035
100
AcDbArc
 50
89.9000000008
 51
269.8999999992
  0
ARC
  5
297
100
AcDbEntity
  8
00_COMPONENTS
100
AcDbCircle
 62
7
  6
BYLAYER
 10
5.4399111269
 20
38.6985172035
 40
0.1250000035
100
AcDbArc
 50
89.9000000008
 51
269.8999999992
  0
ARC
  5
298
100
AcDbEntity
  8
00_COMPONENTS
100
AcDbCircle
 62
7
  6
BYLAYER
 10
5.440783791
 20
39.198516442
 40
0.1250000035
100
AcDbArc
 50
89.9000000008
 51
269.8999999992
  0
ARC
  5
299
100
AcDbEntity
  8
00_COMPONENTS
100
AcDbCircle
 62
7
  6
BYLAYER
 10
5.4416564552
 20
39.6985156804
 40
0.1250000035
100
AcDbArc
 50
89.9000000008
 51
269.8999999992
  0
ARC
  5
29A
100
AcDbEntity
  8
00_COMPONENTS
100
AcDbCircle
 62
7
  6
BYLAYER
 10
5.4425291194
 20
40.1985149189
 40
0.1250000035
100
AcDbArc
 50
89.9000000008
 51
269.8999999992
  0
ARC
  5
29B
100
AcDbEntity
  8
00_COMPONENTS_4
100
AcDbCircle
 62
7
  6
BYLAYER
 10
5.7893071037
 20
48.8235400498
 40
0.3
100
AcDbArc
 50
90.0
 51
179.0000529116
  0
ARC
  5
29C
100
AcDbEntity
  8
00_COMPONENTS_4
100
AcDbCircle
 62
7
  6
BYLAYER
 10
32.3737228979
 20
-3.3472438374
 40
52.1782146891
100
AcDbArc
 50
90.059895952
 51
90.5256782718
  0
ARC
  5
29D
100
AcDbEntity
  8
00_COMPONENTS
100
AcDbCircle
 62
7
  6
BYLAYER
 10
30.6703305491
 20
20.2294484902
 40
25.3626154319
100
AcDbArc
 50
174.8104066933
 51
184.9895933067
  0
ARC
  5
29E
100
AcDbEntity
  8
00_COMPONENTS
100
AcDbCircle
 62
7
  6
BYLAYER
 10
30.7096004373
 20
42.7294142208
 40
25.3626154319
100
AcDbArc
 50
174.8104066933
 51
184.9895933067
  0
ARC
  5
29F
100
AcDbEntity
  8
00_COMPONENTS_4
100
AcDbCircle
 62
7
  6
BYLAYER
 10
32.1949583562
 20
48.8235400498
 40
0.3
100
AcDbArc
 50
0.9998941771
 51
90.0
  0
SPLINE
  5
2A0
100
AcDbEntity
  8
00_COMPONENTS_4
100
AcDbSpline
 62
7
  6
BYLAYER
 70
0
 71
3
 72
15
 73
11
 74
0
 42
0.0000001
 43
0.0000001
 44
0.0000000001
 40
0.0
 40
0.0
 40
0.0
 40
0.0
 40
0.1358579997
 40
0.2766121538
 40
0.4177654106
 40
0.5540292908
 40
0.6812563007
 40
0.7977303932
 40
0.9032198051
 40
1.0
 40
1.0
 40
1.0
 40
1.0
 10
5.6650886961
 20
48.8309423409
 30
0.0
 10
5.6654025279
 20
48.8489242091
 30
0.0
 10
5.6683989709
 20
48.8855324672
 30
0.0
 10
5.6801124676
 20
48.939766884
 30
0.0
 10
5.6999122006
 20
48.991696332
 30
0.0
 10
5.7268981921
 20
49.0383082542
 30
0.0
 10
5.7604199153
 20
49.0762752946
 30
0.0
 10
5.7979549926
 20
49.1039731637
 30
0.0
 10
5.8374635572
 20
49.1200071763
 30
0.0
 10
5.8643445794
 20
49.1235400498
 30
0.0
 10
5.8771561453
 20
49.1235400498
 30
0.0
  0
SPLINE
  5
2A1
100
AcDbEntity
  8
00_COMPONENTS_4
100
AcDbSpline
 62
7
  6
BYLAYER
 70
0
 71
3
 72
23
 73
19
 74
0
 42
0.0000001
 43
0.0000001
 44
0.0000000001
 40
0.0
 40
0.0
 40
0.0
 40
0.0
 40
0.0012974544
 40
0.0045654159
 40
0.0098986461
 40
0.0172987572
 40
0.0267551378
 40
0.0382537547
 40
0.0673154429
 40
0.1043553305
 40
0.1492409375
 40
0.2018384404
 40
0.2620133885
 40
0.3296309994
 40
0.4045562984
 40
0.5757894561
 40
0.7746314103
 40
1.0
 40
1.0
 40
1.0
 40
1.0
 10
5.4893527774
 20
48.8287747575
 30
0.0
 10
5.4893541044
 20
48.8288507861
 30
0.0
 10
5.4897020446
 20
48.8289483839
 30
0.0
 10
5.4901903463
 20
48.8290519689
 30
0.0
 10
5.4911669532
 20
48.8291661784
 30
0.0
 10
5.4924429708
 20
48.8292775357
 30
0.0
 10
5.4941087641
 20
48.8293882557
 30
0.0
 10
5.4970324316
 20
48.8295440151
 30
0.0
 10
5.5015794537
 20
48.8297204746
 30
0.0
 10
5.508080431
 20
48.8299081456
 30
0.0
 10
5.5159629493
 20
48.8300820217
 30
0.0
 10
5.525201376
 20
48.830241618
 30
0.0
 10
5.535772615
 20
48.8303860251
 30
0.0
 10
5.5476526534
 20
48.8305148126
 30
0.0
 10
5.5660415526
 20
48.8306720652
 30
0.0
 10
5.5921214396
 20
48.8308190818
 30
0.0
 10
5.6270186365
 20
48.8309219258
 30
0.0
 10
5.6518804618
 20
48.8309423409
 30
0.0
 10
5.6650886961
 20
48.8309423409
 30
0.0
  0
SPLINE
  5
2A2
100
AcDbEntity
  8
00_COMPONENTS_4
100
AcDbSpline
 62
7
  6
BYLAYER
 70
0
 71
3
 72
23
 73
19
 74
0
 42
0.0000001
 43
0.0000001
 44
0.0000000001
 40
0.0
 40
0.0
 40
0.0
 40
0.0
 40
0.2253685897
 40
0.4242105439
 40
0.5954437016
 40
0.6703690006
 40
0.7379866115
 40
0.7981615597
 40
0.8507590626
 40
0.8956446695
 40
0.9326845571
 40
0.9617462453
 40
0.9732448622
 40
0.9827012428
 40
0.9901013539
 40
0.9954345841
 40
0.9987025456
 40
1.0
 40
1.0
 40
1.0
 40
1.0
 10
32.3191767638
 20
48.8309423409
 30
0.0
 10
32.3323849981
 20
48.8309423409
 30
0.0
 10
32.3572468234
 20
48.8309219258
 30
0.0
 10
32.3921440203
 20
48.8308190818
 30
0.0
 10
32.4182239073
 20
48.8306720652
 30
0.0
 10
32.4366128065
 20
48.8305148126
 30
0.0
 10
32.4484928449
 20
48.8303860251
 30
0.0
 10
32.4590640838
 20
48.830241618
 30
0.0
 10
32.4683025106
 20
48.8300820217
 30
0.0
 10
32.4761850288
 20
48.8299081456
 30
0.0
 10
32.4826860062
 20
48.8297204746
 30
0.0
 10
32.4872330283
 20
48.8295440151
 30
0.0
 10
32.4901566958
 20
48.8293882557
 30
0.0
 10
32.491822489
 20
48.8292775357
 30
0.0
 10
32.4930985067
 20
48.8291661784
 30
0.0
 10
32.4940751136
 20
48.8290519689
 30
0.0
 10
32.4945634153
 20
48.8289483839
 30
0.0
 10
32.4949113555
 20
48.8288507861
 30
0.0
 10
32.4949126825
 20
48.8287747575
 30
0.0
  0
SPLINE
  5
2A3
100
AcDbEntity
  8
00_COMPONENTS_4
100
AcDbSpline
 62
7
  6
BYLAYER
 70
0
 71
3
 72
15
 73
11
 74
0
 42
0.0000001
 43
0.0000001
 44
0.0000000001
 40
0.0
 40
0.0
 40
0.0
 40
0.0
 40
0.1358579997
 40
0.2766121538
 40
0.4177654106
 40
0.5540292908
 40
0.6812563007
 40
0.7977303932
 40
0.9032198051
 40
1.0
 40
1.0
 40
1.0
 40
1.0
 10
32.3191767638
 20
48.8309423409
 30
0.0
 10
32.318862932
 20
48.8489242091
 30
0.0
 10
32.315866489
 20
48.8855324672
 30
0.0
 10
32.3041529923
 20
48.939766884
 30
0.0
 10
32.2843532593
 20
48.991696332
 30
0.0
 10
32.2573672678
 20
49.0383082542
 30
0.0
 10
32.2238455446
 20
49.0762752946
 30
0.0
 10
32.1863104673
 20
49.1039731637
 30
0.0
 10
32.1468019027
 20
49.1200071763
 30
0.0
 10
32.1199208805
 20
49.1235400498
 30
0.0
 10
32.1071093146
 20
49.1235400498
 30
0.0
  0
ENDSEC
  0
SECTION
  2
OBJECTS
  0
DICTIONARY
  5
C
100
AcDbDictionary
280
0
281
1
  3
ACAD_GROUP
350
D
  3
ACAD_MLINESTYLE
350
17
  3
ACAD_LAYOUT
350
1A
  3
ACAD_PLOTSETTINGS
350
19
  3
ACAD_PLOTSTYLENAME
350
E
  0
DICTIONARY
  5
D
102
{ACAD_REACTORS
330
C
102
}
100
AcDbDictionary
280
0
281
1
  0
ACDBDICTIONARYWDFLT
  5
E
102
{ACAD_REACTORS
330
C
102
}
100
AcDbDictionary
281
1
  3
Normal
350
F
100
AcDbDictionaryWithDefault
340
F
  0
DICTIONARY
  5
17
102
{ACAD_REACTORS
330
C
102
}
100
AcDbDictionary
280
0
281
1
  3
Standard
350
18
  0
DICTIONARY
  5
19
102
{ACAD_REACTORS
330
C
102
}
100
AcDbDictionary
281
1
  0
DICTIONARY
  5
1A
102
{ACAD_REACTORS
330
C
102
}
100
AcDbDictionary
281
1
  3
Model
350
2A4
  3
Layout1
350
2A5
  0
ACDBPLACEHOLDER
  5
F
102
{ACAD_REACTORS
330
E
102
}
  0
MLINESTYLE
  5
18
102
{ACAD_REACTORS
330
17
102
}
100
AcDbMlineStyle
  2
STANDARD
 70
0
  3

 62
256
 51
90.0
 52
90.0
 71
2
 49
0.5
 62
256
  6
BYLAYER
 49
-0.5
 62
256
  6
BYLAYER
  0
LAYOUT
  5
2A4
102
{ACAD_REACTORS
330
1A
102
}
100
AcDbPlotSettings
  1

  2
none_device
  4

  6

 40
0.0
 41
0.0
 42
0.0
 43
0.0
 44
210.0
 45
297.0
 46
0.0
 47
0.0
 48
0.0
 49
0.0
140
0.0
141
0.0
142
1.0
143
1.0
 70
1024
 72
1
 73
0
 74
0
  7

 75
0
147
1.0
148
0.0
149
0.0
100
AcDbLayout
  1
Model
 70
0
 71
0
 10
0.0
 20
0.0
 11
210.0
 21
297.0
 12
0.0
 22
0.0
 32
0.0
 14
0.0
 24
0.0
 34
0.0
 15
0.0
 25
0.0
 35
0.0
146
0.0
 13
0.0
 23
0.0
 33
0.0
 16
1.0
 26
0.0
 36
0.0
 17
0.0
 27
1.0
 37
0.0
 76
0
330
21C
345
0
346
0
  0
LAYOUT
  5
2A5
102
{ACAD_REACTORS
330
1A
102
}
100
AcDbPlotSettings
  1

  2
none_device
  4

  6

 40
0.0
 41
0.0
 42
0.0
 43
0.0
 44
210.0
 45
297.0
 46
0.0
 47
0.0
 48
0.0
 49
0.0
140
0.0
141
0.0
142
1.0
143
1.0
 70
0
 72
1
 73
0
 74
0
  7

 75
0
147
1.0
148
0.0
149
0.0
100
AcDbLayout
  1
Layout1
 70
0
 71
1
 10
0.0
 20
0.0
 11
210.0
 21
297.0
 12
0.0
 22
0.0
 32
0.0
 14
0.0
 24
0.0
 34
0.0
 15
0.0
 25
0.0
 35
0.0
146
0.0
 13
0.0
 23
0.0
 33
0.0
 16
1.0
 26
0.0
 36
0.0
 17
0.0
 27
1.0
 37
0.0
 76
0
330
21D
345
0
346
0
  0
ENDSEC
  0
EOF
