999
DXF file: C:\Users\sesa63760\Dev\_Creo\CAD\MCADID0005012_3D-CAD\drw0001_4.dxf
999
Pro/ENGINEER 2019471 by Parametric Technology Corporation
  0
SECTION
  2
HEADER
  9
$ACADVER
  1
AC1024
  9
$DWGCODEPAGE
  3
ANSI_1252
  9
$EXTMAX
 10
37.9010369793
 20
53.6028951565
 30
0.0
  9
$EXTMIN
 10
0.0
 20
0.0
 30
0.0
  9
$LIMMIN
 10
0.0
 20
0.0
  9
$LIMMAX
 10
37.9010369793
 20
53.6028951565
  9
$VIEWCTR
 10
18.9505184897
 20
26.8014475782
  9
$VIEWSIZE
 40
53.6028951565
  9
$CLAYER
  8
0
  9
$LTSCALE
 40
3.4941146472
  9
$CELTYPE
  6
BYLAYER
  9
$DIMSCALE
 40
1.0
  9
$DIMASZ
 40
0.4512028212
  9
$DIMEXO
 40
1.0
  9
$DIMDLI
 40
2.4141155745
  9
$DIMEXE
 40
1.0
  9
$DIMCEN
 40
0.571764215
  9
$DIMLFAC
 40
1.0
  9
$DIMBLK
  1
_FILLED
  9
$DIMALT
 70
0
  9
$DIMALTF
 40
0.0393700787
  9
$DIMTXT
 40
0.6316839497
  9
$DIMTOL
 70
1
  9
$DIMLIM
 70
0
  9
$DIMTFAC
 40
1.0
  9
$DIMTP
 40
0.01
  9
$DIMTM
 40
0.01
  9
$DIMGAP
 40
0.625
  9
$DIMDSEP
 70
46
  9
$AUNITS
 70
0
  9
$PDMODE
 70
3
  9
$PDSIZE
 40
0.3125
  9
$HANDSEED
  5
2C0
  9
$TILEMODE
 70
1
  9
$MEASUREMENT
 70
1
  9
$INSUNITS
 70
4
  0
ENDSEC
  0
SECTION
  2
CLASSES
  0
CLASS
  1
ACDBDICTIONARYWDFLT
  2
AcDbDictionaryWithDefault
  3
AutoCAD 2000
 90
0
 91
1
280
0
281
0
  0
CLASS
  1
ACDBPLACEHOLDER
  2
AcDbPlaceHolder
  3
AutoCAD 2000
 90
0
 91
1
280
0
281
0
  0
CLASS
  1
LAYOUT
  2
AcDbLayout
  3
AutoCAD 2000
 90
0
 91
0
280
0
281
0
  0
ENDSEC
  0
SECTION
  2
TABLES
  0
TABLE
  2
VPORT
  5
8
100
AcDbSymbolTable
 70
2
  0
VPORT
  5
1F4
100
AcDbSymbolTableRecord
100
AcDbViewportTableRecord
  2
*ACTIVE
 70
0
 10
0.0
 20
0.0
 11
1.0
 21
1.0
 12
18.9505184897
 22
26.8014475782
 13
0.0
 23
0.0
 14
1.0
 24
1.0
 15
0.0
 25
0.0
 16
0.0
 26
0.0
 36
1.0
 17
0.0
 27
0.0
 37
0.0
 40
53.6028951565
 41
0.7070707071
 42
50.0
 43
0.0
 44
0.0
 50
0.0
 51
0.0
 71
0
 72
100
 73
1
 74
1
 75
0
 76
0
 77
0
 78
0
  0
ENDTAB
  0
TABLE
  2
LTYPE
  5
5
100
AcDbSymbolTable
 70
6
  0
LTYPE
  5
14
100
AcDbSymbolTableRecord
100
AcDbLinetypeTableRecord
  2
BYBLOCK
 70
0
  3

 72
65
 73
0
 40
0.0
  0
LTYPE
  5
15
100
AcDbSymbolTableRecord
100
AcDbLinetypeTableRecord
  2
BYLAYER
 70
0
  3

 72
65
 73
0
 40
0.0
  0
LTYPE
  5
16
100
AcDbSymbolTableRecord
100
AcDbLinetypeTableRecord
  2
CONTINUOUS
 70
64
  3
Solid line
 72
65
 73
0
 40
0.0
  0
LTYPE
  5
1F5
100
AcDbSymbolTableRecord
100
AcDbLinetypeTableRecord
  2
CENTER
 70
64
  3
____ _ ____ _ ____ _ ____ _ ____ _ ____ _ ____
 72
65
 73
4
 40
0.6
 49
0.375
 74
0
 49
-0.075
 74
0
 49
0.075
 74
0
 49
-0.075
 74
0
  0
LTYPE
  5
1F6
100
AcDbSymbolTableRecord
100
AcDbLinetypeTableRecord
  2
HIDDEN
 70
64
  3
- - - - - - - - - - - - - - - - - - - -
 72
65
 73
2
 40
0.2
 49
0.1
 74
0
 49
-0.1
 74
0
  0
LTYPE
  5
1F7
100
AcDbSymbolTableRecord
100
AcDbLinetypeTableRecord
  2
PHANTOM
 70
64
  3
_____ _ _ _____ _ _ _____ _ _ _____
 72
65
 73
6
 40
0.8
 49
0.45
 74
0
 49
-0.05
 74
0
 49
0.1
 74
0
 49
-0.05
 74
0
 49
0.1
 74
0
 49
-0.05
 74
0
  0
LTYPE
  5
1F8
100
AcDbSymbolTableRecord
100
AcDbLinetypeTableRecord
  2
DOT
 70
64
  3
. . . . . . . . . . . . . . . . . . . .
 72
65
 73
2
 40
0.2
 49
0.1
 74
0
 49
-0.1
 74
0
  0
LTYPE
  5
1F9
100
AcDbSymbolTableRecord
100
AcDbLinetypeTableRecord
  2
DASHED
 70
64
  3
- - - - - - - - - - - - - - - - - - - -
 72
65
 73
2
 40
0.2
 49
0.1
 74
0
 49
-0.1
 74
0
  0
ENDTAB
  0
TABLE
  2
LAYER
  5
2
100
AcDbSymbolTable
 70
36
  0
LAYER
  5
10
100
AcDbSymbolTableRecord
100
AcDbLayerTableRecord
  2
0
 70
0
 62
7
  6
CONTINUOUS
370
-3
390
F
  0
LAYER
  5
1FA
100
AcDbSymbolTableRecord
100
AcDbLayerTableRecord
  2
DEFAULT_1
 70
0
 62
7
  6
CENTER
370
-3
390
F
  0
LAYER
  5
1FB
100
AcDbSymbolTableRecord
100
AcDbLayerTableRecord
  2
DEFAULT_2
 70
0
 62
7
  6
HIDDEN
370
-3
390
F
  0
LAYER
  5
1FC
100
AcDbSymbolTableRecord
100
AcDbLayerTableRecord
  2
DEFAULT_3
 70
0
 62
7
  6
PHANTOM
370
-3
390
F
  0
LAYER
  5
1FD
100
AcDbSymbolTableRecord
100
AcDbLayerTableRecord
  2
00_COMPONENTS
 70
0
 62
7
  6
CONTINUOUS
370
-3
390
F
  0
LAYER
  5
1FE
100
AcDbSymbolTableRecord
100
AcDbLayerTableRecord
  2
00_COMPONENTS_1
 70
0
 62
7
  6
CONTINUOUS
370
-3
390
F
  0
LAYER
  5
1FF
100
AcDbSymbolTableRecord
100
AcDbLayerTableRecord
  2
00_COMPONENTS_3
 70
0
 62
7
  6
CONTINUOUS
370
-3
390
F
  0
LAYER
  5
200
100
AcDbSymbolTableRecord
100
AcDbLayerTableRecord
  2
00_COMPONENTS_4
 70
0
 62
7
  6
CONTINUOUS
370
-3
390
F
  0
LAYER
  5
201
100
AcDbSymbolTableRecord
100
AcDbLayerTableRecord
  2
00_COMPONENTS_6
 70
0
 62
7
  6
CONTINUOUS
370
-3
390
F
  0
LAYER
  5
202
100
AcDbSymbolTableRecord
100
AcDbLayerTableRecord
  2
00_COMPONENTS_8
 70
0
 62
7
  6
CONTINUOUS
370
-3
390
F
  0
LAYER
  5
203
100
AcDbSymbolTableRecord
100
AcDbLayerTableRecord
  2
01_1_DEFAULT_DATUMS
 70
0
 62
7
  6
CONTINUOUS
370
-3
390
F
  0
LAYER
  5
204
100
AcDbSymbolTableRecord
100
AcDbLayerTableRecord
  2
01_PLANES
 70
0
 62
7
  6
CONTINUOUS
370
-3
390
F
  0
LAYER
  5
205
100
AcDbSymbolTableRecord
100
AcDbLayerTableRecord
  2
02_COORD_SYS
 70
0
 62
7
  6
CONTINUOUS
370
-3
390
F
  0
LAYER
  5
206
100
AcDbSymbolTableRecord
100
AcDbLayerTableRecord
  2
03_AXES
 70
0
 62
7
  6
CONTINUOUS
370
-3
390
F
  0
LAYER
  5
207
100
AcDbSymbolTableRecord
100
AcDbLayerTableRecord
  2
04_POINTS
 70
0
 62
7
  6
CONTINUOUS
370
-3
390
F
  0
LAYER
  5
208
100
AcDbSymbolTableRecord
100
AcDbLayerTableRecord
  2
05_CURVES
 70
0
 62
7
  6
CONTINUOUS
370
-3
390
F
  0
LAYER
  5
209
100
AcDbSymbolTableRecord
100
AcDbLayerTableRecord
  2
06_SURFS
 70
0
 62
7
  6
CONTINUOUS
370
-3
390
F
  0
LAYER
  5
20A
100
AcDbSymbolTableRecord
100
AcDbLayerTableRecord
  2
07_COSMETICS
 70
0
 62
7
  6
CONTINUOUS
370
-3
390
F
  0
LAYER
  5
20B
100
AcDbSymbolTableRecord
100
AcDbLayerTableRecord
  2
10_NOTES
 70
0
 62
7
  6
CONTINUOUS
370
-3
390
F
  0
LAYER
  5
20C
100
AcDbSymbolTableRecord
100
AcDbLayerTableRecord
  2
11_NOTES_PUB
 70
0
 62
7
  6
CONTINUOUS
370
-3
390
F
  0
LAYER
  5
20D
100
AcDbSymbolTableRecord
100
AcDbLayerTableRecord
  2
13_REF_GTOL
 70
0
 62
7
  6
CONTINUOUS
370
-3
390
F
  0
LAYER
  5
20E
100
AcDbSymbolTableRecord
100
AcDbLayerTableRecord
  2
16_MISC
 70
0
 62
7
  6
CONTINUOUS
370
-3
390
F
  0
LAYER
  5
20F
100
AcDbSymbolTableRecord
100
AcDbLayerTableRecord
  2
17_NO_PRINT
 70
0
 62
7
  6
CONTINUOUS
370
-3
390
F
  0
LAYER
  5
210
100
AcDbSymbolTableRecord
100
AcDbLayerTableRecord
  2
18_DATUM_CAMS_JOINTS
 70
0
 62
7
  6
CONTINUOUS
370
-3
390
F
  0
LAYER
  5
211
100
AcDbSymbolTableRecord
100
AcDbLayerTableRecord
  2
19_DATUM_FUNCTIONAL
 70
0
 62
7
  6
CONTINUOUS
370
-3
390
F
  0
LAYER
  5
212
100
AcDbSymbolTableRecord
100
AcDbLayerTableRecord
  2
20_DATUM_KINEMATIC_SCHEME
 70
0
 62
7
  6
CONTINUOUS
370
-3
390
F
  0
LAYER
  5
213
100
AcDbSymbolTableRecord
100
AcDbLayerTableRecord
  2
INTFCLR_8
 70
0
 62
7
  6
CONTINUOUS
370
-3
390
F
  0
LAYER
  5
214
100
AcDbSymbolTableRecord
100
AcDbLayerTableRecord
  2
NONE
 70
0
 62
7
  6
CONTINUOUS
370
-3
390
F
  0
LAYER
  5
215
100
AcDbSymbolTableRecord
100
AcDbLayerTableRecord
  2
NONE_1
 70
0
 62
7
  6
CONTINUOUS
370
-3
390
F
  0
LAYER
  5
216
100
AcDbSymbolTableRecord
100
AcDbLayerTableRecord
  2
NONE_2
 70
0
 62
7
  6
CONTINUOUS
370
-3
390
F
  0
LAYER
  5
217
100
AcDbSymbolTableRecord
100
AcDbLayerTableRecord
  2
NONE_3
 70
0
 62
7
  6
CONTINUOUS
370
-3
390
F
  0
LAYER
  5
218
100
AcDbSymbolTableRecord
100
AcDbLayerTableRecord
  2
NONE_4
 70
0
 62
7
  6
CONTINUOUS
370
-3
390
F
  0
LAYER
  5
219
100
AcDbSymbolTableRecord
100
AcDbLayerTableRecord
  2
NONE_5
 70
0
 62
7
  6
CONTINUOUS
370
-3
390
F
  0
ENDTAB
  0
TABLE
  2
STYLE
  5
3
100
AcDbSymbolTable
 70
1
  0
STYLE
  5
11
100
AcDbSymbolTableRecord
100
AcDbTextStyleTableRecord
  2
STANDARD
 70
0
 40
0.0
 41
1.0
 50
0.0
 71
0
 42
0.2
  3
ARIAL.TTF
  4

  0
STYLE
  5
21A
100
AcDbSymbolTableRecord
100
AcDbTextStyleTableRecord
  2
TEXTSTYLE_1
 70
0
 40
0.0
 41
0.8
 50
0.0
 71
0
 42
0.2
  3
gdt
  4

  0
ENDTAB
  0
TABLE
  2
VIEW
  5
6
100
AcDbSymbolTable
 70
0
  0
ENDTAB
  0
TABLE
  2
UCS
  5
7
100
AcDbSymbolTable
 70
0
  0
ENDTAB
  0
TABLE
  2
APPID
  5
9
100
AcDbSymbolTable
 70
1
  0
APPID
  5
21B
100
AcDbSymbolTableRecord
100
AcDbRegAppTableRecord
  2
ACAD
 70
0
  0
ENDTAB
  0
TABLE
  2
BLOCK_RECORD
  5
1
100
AcDbSymbolTable
 70
0
  0
BLOCK_RECORD
  5
21C
100
AcDbSymbolTableRecord
100
AcDbBlockTableRecord
  2
*Model_Space
  0
BLOCK_RECORD
  5
21D
100
AcDbSymbolTableRecord
100
AcDbBlockTableRecord
  2
*Paper_Space
  0
BLOCK_RECORD
  5
21E
100
AcDbSymbolTableRecord
100
AcDbBlockTableRecord
  2
_FILLED
  0
ENDTAB
  0
TABLE
  2
DIMSTYLE
  5
A
100
AcDbSymbolTable
 70
1
100
AcDbDimStyleTable
 71
0
  0
DIMSTYLE
105
21F
100
AcDbSymbolTableRecord
100
AcDbDimStyleTableRecord
  2
STANDARD
 70
0
  3

  4

 40
1.0
 41
0.4512028212
 42
1.0
 43
0.38
 44
1.0
 45
0.0
 46
0.0
 47
0.01
 48
0.01
140
0.6316839497
141
0.09
142
0.0
143
25.4
144
1.0
145
0.0
146
1.0
147
0.625
 71
1
 72
0
 73
0
 74
0
 75
0
 76
0
 77
1
 78
8
 79
2
170
0
171
1
172
0
173
0
174
0
175
0
176
0
177
0
178
0
270
2
179
2
271
2
272
2
273
2
274
2
275
0
280
0
281
0
282
0
283
1
284
8
285
0
286
0
287
3
288
0
340
11
278
46
341
21E
342
21E
343
21E
344
21E
  0
ENDTAB
  0
ENDSEC
  0
SECTION
  2
BLOCKS
  0
BLOCK
  5
20
100
AcDbEntity
  8
0
100
AcDbBlockBegin
  2
*Model_Space
 70
0
 10
0.0
 20
0.0
 30
0.0
  3
*Model_Space
  1

  0
ENDBLK
  5
21
100
AcDbEntity
  8
0
100
AcDbBlockEnd
  0
BLOCK
  5
1C
100
AcDbEntity
  8
0
100
AcDbBlockBegin
  2
*Paper_Space
 70
0
 10
0.0
 20
0.0
 30
0.0
  3
*Paper_Space
  1

  0
ENDBLK
  5
1D
100
AcDbEntity
  8
0
100
AcDbBlockEnd
  0
BLOCK
  5
220
100
AcDbEntity
  8
0
100
AcDbBlockBegin
  2
_FILLED
 70
64
 10
0.0
 20
0.0
  3
_FILLED
  1

  0
SOLID
  5
221
100
AcDbEntity
  8
0
  6
BYBLOCK
 62
0
100
AcDbTrace
 10
0.0
 20
0.0
 11
-1.0
 21
0.25
 12
-1.0
 22
-0.25
 13
-1.0
 23
-0.25
  0
ENDBLK
  5
222
100
AcDbEntity
  8
0
  6
BYBLOCK
 62
0
100
AcDbBlockEnd
  0
ENDSEC
  0
SECTION
  2
ENTITIES
  0
LINE
  5
223
100
AcDbEntity
  8
00_COMPONENTS_1
100
AcDbLine
 62
7
  6
BYLAYER
 10
29.4408883646
 20
3.8366970629
 11
29.1408883646
 21
3.8366970629
  0
LINE
  5
224
100
AcDbEntity
  8
00_COMPONENTS_1
100
AcDbLine
 62
7
  6
BYLAYER
 10
25.2408883646
 20
3.8366970629
 11
24.9408883646
 21
3.8366970629
  0
LINE
  5
225
100
AcDbEntity
  8
00_COMPONENTS_1
100
AcDbLine
 62
7
  6
BYLAYER
 10
19.0408883646
 20
3.8366970629
 11
18.7408883646
 21
3.8366970629
  0
LINE
  5
226
100
AcDbEntity
  8
00_COMPONENTS_1
100
AcDbLine
 62
7
  6
BYLAYER
 10
12.6408883646
 20
3.8366970629
 11
12.3408883646
 21
3.8366970629
  0
LINE
  5
227
100
AcDbEntity
  8
00_COMPONENTS_1
100
AcDbLine
 62
7
  6
BYLAYER
 10
12.2408883646
 20
5.0866970629
 11
12.7408883646
 21
5.0866970629
  0
LINE
  5
228
100
AcDbEntity
  8
00_COMPONENTS_1
100
AcDbLine
 62
7
  6
BYLAYER
 10
18.6408883646
 20
5.0866970629
 11
19.1408883646
 21
5.0866970629
  0
LINE
  5
229
100
AcDbEntity
  8
00_COMPONENTS_1
100
AcDbLine
 62
7
  6
BYLAYER
 10
24.8408883646
 20
5.0866970629
 11
25.3408883646
 21
5.0866970629
  0
LINE
  5
22A
100
AcDbEntity
  8
00_COMPONENTS_1
100
AcDbLine
 62
7
  6
BYLAYER
 10
29.0408883646
 20
5.0866970629
 11
29.5408883646
 21
5.0866970629
  0
LINE
  5
22B
100
AcDbEntity
  8
00_COMPONENTS_4
100
AcDbLine
 62
7
  6
BYLAYER
 10
23.5151678473
 20
48.6838887585
 11
23.2607683561
 21
48.5248890765
  0
LINE
  5
22C
100
AcDbEntity
  8
00_COMPONENTS_3
100
AcDbLine
 62
7
  6
BYLAYER
 10
30.8908883646
 20
10.1366970629
 11
16.8908883646
 21
10.1366970629
  0
LINE
  5
22D
100
AcDbEntity
  8
00_COMPONENTS_3
100
AcDbLine
 62
7
  6
BYLAYER
 10
10.340971108
 20
10.1366970629
 11
14.6408056213
 21
10.1366970629
  0
LINE
  5
22E
100
AcDbEntity
  8
00_COMPONENTS_3
100
AcDbLine
 62
7
  6
BYLAYER
 10
16.8908883646
 20
10.3366970629
 11
30.8908883646
 21
10.3366970629
  0
LINE
  5
22F
100
AcDbEntity
  8
00_COMPONENTS_3
100
AcDbLine
 62
7
  6
BYLAYER
 10
14.9044678871
 20
10.4366970629
 11
16.5756217332
 21
10.4366970629
  0
LINE
  5
230
100
AcDbEntity
  8
00_COMPONENTS_3
100
AcDbLine
 62
7
  6
BYLAYER
 10
30.8908883646
 20
10.4366970629
 11
31.926041263
 21
10.4366970629
  0
LINE
  5
231
100
AcDbEntity
  8
00_COMPONENTS_3
100
AcDbLine
 62
7
  6
BYLAYER
 10
5.8908883646
 20
10.6366970629
 11
16.8908883646
 21
10.6366970629
  0
LINE
  5
232
100
AcDbEntity
  8
00_COMPONENTS_3
100
AcDbLine
 62
7
  6
BYLAYER
 10
22.0408883646
 20
10.6366970629
 11
32.8908883646
 21
10.6366970629
  0
LINE
  5
233
100
AcDbEntity
  8
00_COMPONENTS_4
100
AcDbLine
 62
7
  6
BYLAYER
 10
5.8881084201
 20
49.1419322309
 11
5.8408883646
 21
46.4366970629
  0
LINE
  5
234
100
AcDbEntity
  8
00_COMPONENTS
100
AcDbLine
 62
7
  6
BYLAYER
 10
5.7908883646
 20
11.6366970629
 11
6.6161429308
 21
11.6366970629
  0
LINE
  5
235
100
AcDbEntity
  8
00_COMPONENTS_3
100
AcDbLine
 62
7
  6
BYLAYER
 10
6.6161429308
 20
11.6366970629
 11
16.7408883646
 21
11.6366970629
  0
LINE
  5
236
100
AcDbEntity
  8
00_COMPONENTS
100
AcDbLine
 62
7
  6
BYLAYER
 10
16.7408883646
 20
11.6366970629
 11
22.0408883646
 21
11.6366970629
  0
LINE
  5
237
100
AcDbEntity
  8
00_COMPONENTS_3
100
AcDbLine
 62
7
  6
BYLAYER
 10
22.0408883646
 20
11.6366970629
 11
32.1656337984
 21
11.6366970629
  0
LINE
  5
238
100
AcDbEntity
  8
00_COMPONENTS
100
AcDbLine
 62
7
  6
BYLAYER
 10
32.1656337984
 20
11.6366970629
 11
32.9908883646
 21
11.6366970629
  0
LINE
  5
239
100
AcDbEntity
  8
00_COMPONENTS_3
100
AcDbLine
 62
7
  6
BYLAYER
 10
5.8908883646
 20
10.6366970629
 11
5.8908883646
 21
11.6366970629
  0
LINE
  5
23A
100
AcDbEntity
  8
00_COMPONENTS_4
100
AcDbLine
 62
7
  6
BYLAYER
 10
6.4880170469
 20
49.4366970629
 11
6.4880170469
 21
49.1419325079
  0
LINE
  5
23B
100
AcDbEntity
  8
00_COMPONENTS
100
AcDbLine
 62
7
  6
BYLAYER
 10
6.4908883646
 20
46.4366970629
 11
6.4908883646
 21
11.6366970629
  0
LINE
  5
23C
100
AcDbEntity
  8
00_COMPONENTS_3
100
AcDbLine
 62
7
  6
BYLAYER
 10
6.8908883646
 20
11.6366970629
 11
6.8908883646
 21
10.6366970629
  0
LINE
  5
23D
100
AcDbEntity
  8
00_COMPONENTS
100
AcDbLine
 62
7
  6
BYLAYER
 10
5.7908883646
 20
11.6366970629
 11
5.8516258843
 21
46.4366970629
  0
LINE
  5
23E
100
AcDbEntity
  8
00_COMPONENTS_4
100
AcDbLine
 62
7
  6
BYLAYER
 10
6.4407969817
 20
46.4366970629
 11
6.4880170469
 21
49.1419322309
  0
LINE
  5
23F
100
AcDbEntity
  8
00_COMPONENTS
100
AcDbLine
 62
7
  6
BYLAYER
 10
21.3408883646
 20
13.1366970629
 11
17.4408883646
 21
13.1366970629
  0
LINE
  5
240
100
AcDbEntity
  8
00_COMPONENTS_3
100
AcDbLine
 62
7
  6
BYLAYER
 10
21.1908883646
 20
13.2366970629
 11
17.5908883646
 21
13.2366970629
  0
LINE
  5
241
100
AcDbEntity
  8
00_COMPONENTS_3
100
AcDbLine
 62
7
  6
BYLAYER
 10
21.1908883646
 20
14.2366970629
 11
17.5908883646
 21
14.2366970629
  0
LINE
  5
242
100
AcDbEntity
  8
00_COMPONENTS_3
100
AcDbLine
 62
7
  6
BYLAYER
 10
21.1908883646
 20
15.2366970629
 11
17.5908883646
 21
15.2366970629
  0
LINE
  5
243
100
AcDbEntity
  8
00_COMPONENTS
100
AcDbLine
 62
7
  6
BYLAYER
 10
17.4408883646
 20
15.3366970629
 11
21.3408883646
 21
15.3366970629
  0
LINE
  5
244
100
AcDbEntity
  8
00_COMPONENTS_1
100
AcDbLine
 62
7
  6
BYLAYER
 10
12.2408883646
 20
4.3366970629
 11
12.340888211
 21
3.836697831
  0
LINE
  5
245
100
AcDbEntity
  8
00_COMPONENTS_3
100
AcDbLine
 62
7
  6
BYLAYER
 10
10.3408883646
 20
10.1366970629
 11
10.3408883646
 21
10.6366970629
  0
LINE
  5
246
100
AcDbEntity
  8
00_COMPONENTS
100
AcDbLine
 62
7
  6
BYLAYER
 10
11.8908883646
 20
23.636698586
 11
11.8908883646
 21
25.6366955398
  0
LINE
  5
247
100
AcDbEntity
  8
00_COMPONENTS
100
AcDbLine
 62
7
  6
BYLAYER
 10
11.8908883646
 20
32.2366854875
 11
11.8908883646
 21
34.2366824413
  0
LINE
  5
248
100
AcDbEntity
  8
00_COMPONENTS_1
100
AcDbLine
 62
7
  6
BYLAYER
 10
12.2408883646
 20
10.1366970629
 11
12.2408883646
 21
4.3366970629
  0
LINE
  5
249
100
AcDbEntity
  8
00_COMPONENTS_1
100
AcDbLine
 62
7
  6
BYLAYER
 10
12.7408883646
 20
4.3366970629
 11
12.7408883646
 21
10.1366970629
  0
LINE
  5
24A
100
AcDbEntity
  8
00_COMPONENTS_1
100
AcDbLine
 62
7
  6
BYLAYER
 10
18.6408883646
 20
4.3366970629
 11
18.740888211
 21
3.836697831
  0
LINE
  5
24B
100
AcDbEntity
  8
00_COMPONENTS_3
100
AcDbLine
 62
7
  6
BYLAYER
 10
14.6408883646
 20
10.1366970629
 11
14.6408883646
 21
10.6366970629
  0
LINE
  5
24C
100
AcDbEntity
  8
00_COMPONENTS_3
100
AcDbLine
 62
7
  6
BYLAYER
 10
14.9044678871
 20
10.4366970629
 11
14.9044678871
 21
10.6366970629
  0
LINE
  5
24D
100
AcDbEntity
  8
00_COMPONENTS_3
100
AcDbLine
 62
7
  6
BYLAYER
 10
14.9256217332
 20
10.4366970629
 11
14.9256217332
 21
10.6366970629
  0
LINE
  5
24E
100
AcDbEntity
  8
00_COMPONENTS_3
100
AcDbLine
 62
7
  6
BYLAYER
 10
15.968109714
 20
10.6366970629
 11
15.968109714
 21
10.4366970629
  0
LINE
  5
24F
100
AcDbEntity
  8
00_COMPONENTS_3
100
AcDbLine
 62
7
  6
BYLAYER
 10
16.1631217332
 20
10.4366970629
 11
16.1631217332
 21
10.6366970629
  0
LINE
  5
250
100
AcDbEntity
  8
00_COMPONENTS_3
100
AcDbLine
 62
7
  6
BYLAYER
 10
16.5756217332
 20
10.6366970629
 11
16.5756217332
 21
10.4366970629
  0
LINE
  5
251
100
AcDbEntity
  8
00_COMPONENTS_3
100
AcDbLine
 62
7
  6
BYLAYER
 10
16.7408883646
 20
11.6366970629
 11
16.7408883646
 21
10.6366970629
  0
LINE
  5
252
100
AcDbEntity
  8
00_COMPONENTS_3
100
AcDbLine
 62
7
  6
BYLAYER
 10
16.8908883646
 20
10.6366970629
 11
16.8908883646
 21
10.1367726904
  0
LINE
  5
253
100
AcDbEntity
  8
00_COMPONENTS
100
AcDbLine
 62
7
  6
BYLAYER
 10
17.4408883646
 20
13.1366970629
 11
17.4408883646
 21
15.3366970629
  0
LINE
  5
254
100
AcDbEntity
  8
00_COMPONENTS_3
100
AcDbLine
 62
7
  6
BYLAYER
 10
17.5908883646
 20
15.2366970629
 11
17.5908883646
 21
13.2366970629
  0
LINE
  5
255
100
AcDbEntity
  8
00_COMPONENTS_1
100
AcDbLine
 62
7
  6
BYLAYER
 10
12.6408885182
 20
3.836697831
 11
12.7408883646
 21
4.3366970629
  0
LINE
  5
256
100
AcDbEntity
  8
00_COMPONENTS
100
AcDbLine
 62
7
  6
BYLAYER
 10
11.8908883646
 20
23.636698586
 11
26.8908883646
 21
23.636698586
  0
LINE
  5
257
100
AcDbEntity
  8
00_COMPONENTS_1
100
AcDbLine
 62
7
  6
BYLAYER
 10
18.6408883646
 20
10.1366970629
 11
18.6408883646
 21
4.3366970629
  0
LINE
  5
258
100
AcDbEntity
  8
00_COMPONENTS_1
100
AcDbLine
 62
7
  6
BYLAYER
 10
19.1408883646
 20
4.3366970629
 11
19.1408883646
 21
10.1366970629
  0
LINE
  5
259
100
AcDbEntity
  8
00_COMPONENTS
100
AcDbLine
 62
7
  6
BYLAYER
 10
11.8908883646
 20
25.6366955398
 11
26.8908883646
 21
25.6366955398
  0
LINE
  5
25A
100
AcDbEntity
  8
00_COMPONENTS_3
100
AcDbLine
 62
7
  6
BYLAYER
 10
21.1908883646
 20
13.2366970629
 11
21.1908883646
 21
15.2366970629
  0
LINE
  5
25B
100
AcDbEntity
  8
00_COMPONENTS
100
AcDbLine
 62
7
  6
BYLAYER
 10
21.3408883646
 20
15.3366970629
 11
21.3408883646
 21
13.1366970629
  0
LINE
  5
25C
100
AcDbEntity
  8
00_COMPONENTS_1
100
AcDbLine
 62
7
  6
BYLAYER
 10
24.8408883646
 20
4.3366970629
 11
24.940888211
 21
3.836697831
  0
LINE
  5
25D
100
AcDbEntity
  8
00_COMPONENTS_3
100
AcDbLine
 62
7
  6
BYLAYER
 10
22.0408883646
 20
11.6366970629
 11
22.0408883646
 21
10.6366970629
  0
LINE
  5
25E
100
AcDbEntity
  8
00_COMPONENTS_4
100
AcDbLine
 62
7
  6
BYLAYER
 10
22.5246140722
 20
49.1419325079
 11
22.5246140722
 21
49.4366970629
  0
LINE
  5
25F
100
AcDbEntity
  8
00_COMPONENTS_4
100
AcDbLine
 62
7
  6
BYLAYER
 10
22.9077759611
 20
49.4366970629
 11
22.9077759611
 21
49.3962064197
  0
LINE
  5
260
100
AcDbEntity
  8
00_COMPONENTS_1
100
AcDbLine
 62
7
  6
BYLAYER
 10
24.8408883646
 20
10.1366970629
 11
24.8408883646
 21
4.3366970629
  0
LINE
  5
261
100
AcDbEntity
  8
00_COMPONENTS_1
100
AcDbLine
 62
7
  6
BYLAYER
 10
19.0408885182
 20
3.836697831
 11
19.1408883646
 21
4.3366970629
  0
LINE
  5
262
100
AcDbEntity
  8
00_COMPONENTS_1
100
AcDbLine
 62
7
  6
BYLAYER
 10
29.0408883646
 20
4.3366970629
 11
29.140888211
 21
3.836697831
  0
LINE
  5
263
100
AcDbEntity
  8
00_COMPONENTS_1
100
AcDbLine
 62
7
  6
BYLAYER
 10
25.3408883646
 20
4.3366970629
 11
25.3408883646
 21
10.1366970629
  0
LINE
  5
264
100
AcDbEntity
  8
00_COMPONENTS
100
AcDbLine
 62
7
  6
BYLAYER
 10
11.8908883646
 20
32.2366854875
 11
26.8908883646
 21
32.2366854875
  0
LINE
  5
265
100
AcDbEntity
  8
00_COMPONENTS
100
AcDbLine
 62
7
  6
BYLAYER
 10
26.8908883646
 20
23.636698586
 11
26.8908883646
 21
25.6366955398
  0
LINE
  5
266
100
AcDbEntity
  8
00_COMPONENTS
100
AcDbLine
 62
7
  6
BYLAYER
 10
26.8908883646
 20
32.2366854875
 11
26.8908883646
 21
34.2366824413
  0
LINE
  5
267
100
AcDbEntity
  8
00_COMPONENTS
100
AcDbLine
 62
7
  6
BYLAYER
 10
11.8908883646
 20
34.2366824413
 11
26.8908883646
 21
34.2366824413
  0
LINE
  5
268
100
AcDbEntity
  8
00_COMPONENTS_1
100
AcDbLine
 62
7
  6
BYLAYER
 10
29.0408883646
 20
10.1366970629
 11
29.0408883646
 21
4.3366970629
  0
LINE
  5
269
100
AcDbEntity
  8
00_COMPONENTS_1
100
AcDbLine
 62
7
  6
BYLAYER
 10
29.5408883646
 20
4.3366970629
 11
29.5408883646
 21
10.1366970629
  0
LINE
  5
26A
100
AcDbEntity
  8
00_COMPONENTS_1
100
AcDbLine
 62
7
  6
BYLAYER
 10
25.2408885182
 20
3.836697831
 11
25.3408883646
 21
4.3366970629
  0
LINE
  5
26B
100
AcDbEntity
  8
00_COMPONENTS_3
100
AcDbLine
 62
7
  6
BYLAYER
 10
30.8908883646
 20
10.1367726904
 11
30.8908883646
 21
10.6366970629
  0
LINE
  5
26C
100
AcDbEntity
  8
00_COMPONENTS_3
100
AcDbLine
 62
7
  6
BYLAYER
 10
31.3185292438
 20
10.6366970629
 11
31.3185292438
 21
10.4366970629
  0
LINE
  5
26D
100
AcDbEntity
  8
00_COMPONENTS_3
100
AcDbLine
 62
7
  6
BYLAYER
 10
31.513541263
 20
10.4366970629
 11
31.513541263
 21
10.6366970629
  0
LINE
  5
26E
100
AcDbEntity
  8
00_COMPONENTS_3
100
AcDbLine
 62
7
  6
BYLAYER
 10
31.8908883646
 20
10.6366970629
 11
31.8908883646
 21
11.6366970629
  0
LINE
  5
26F
100
AcDbEntity
  8
00_COMPONENTS_3
100
AcDbLine
 62
7
  6
BYLAYER
 10
31.926041263
 20
10.6366970629
 11
31.926041263
 21
10.4366970629
  0
LINE
  5
270
100
AcDbEntity
  8
00_COMPONENTS_4
100
AcDbLine
 62
7
  6
BYLAYER
 10
32.3216877862
 20
47.5419322309
 11
32.3409797475
 21
46.4366970629
  0
LINE
  5
271
100
AcDbEntity
  8
00_COMPONENTS_4
100
AcDbLine
 62
7
  6
BYLAYER
 10
32.6016177893
 20
48.6838887585
 11
32.6164055753
 21
47.8366970629
  0
LINE
  5
272
100
AcDbEntity
  8
00_COMPONENTS_4
100
AcDbLine
 62
7
  6
BYLAYER
 10
32.5937139909
 20
49.3962064197
 11
32.6016177893
 21
48.9433981153
  0
LINE
  5
273
100
AcDbEntity
  8
00_COMPONENTS_4
100
AcDbLine
 62
7
  6
BYLAYER
 10
32.9408883646
 20
46.4366970629
 11
32.8936682994
 21
49.1419327849
  0
LINE
  5
274
100
AcDbEntity
  8
00_COMPONENTS
100
AcDbLine
 62
7
  6
BYLAYER
 10
32.930150845
 20
46.4366970629
 11
32.9908883646
 21
11.6366970629
  0
LINE
  5
275
100
AcDbEntity
  8
00_COMPONENTS
100
AcDbLine
 62
7
  6
BYLAYER
 10
32.2908883646
 20
11.6366970629
 11
32.2908883646
 21
46.4366970629
  0
LINE
  5
276
100
AcDbEntity
  8
00_COMPONENTS_4
100
AcDbLine
 62
7
  6
BYLAYER
 10
32.3216877862
 20
47.5419325079
 11
32.3216877862
 21
47.8366970629
  0
LINE
  5
277
100
AcDbEntity
  8
00_COMPONENTS_4
100
AcDbLine
 62
7
  6
BYLAYER
 10
32.5937139909
 20
49.3962064197
 11
32.5937139909
 21
49.4366970629
  0
LINE
  5
278
100
AcDbEntity
  8
00_COMPONENTS_4
100
AcDbLine
 62
7
  6
BYLAYER
 10
32.6016177893
 20
48.6838887585
 11
32.6016177893
 21
48.9433981153
  0
LINE
  5
279
100
AcDbEntity
  8
00_COMPONENTS_3
100
AcDbLine
 62
7
  6
BYLAYER
 10
32.8908883646
 20
11.6366970629
 11
32.8908883646
 21
10.6366970629
  0
LINE
  5
27A
100
AcDbEntity
  8
00_COMPONENTS_1
100
AcDbLine
 62
7
  6
BYLAYER
 10
29.4408885182
 20
3.836697831
 11
29.5408883646
 21
4.3366970629
  0
LINE
  5
27B
100
AcDbEntity
  8
00_COMPONENTS_4
100
AcDbLine
 62
7
  6
BYLAYER
 10
22.5246140722
 20
49.1419327849
 11
23.5246140722
 21
47.5419327849
  0
LINE
  5
27C
100
AcDbEntity
  8
00_COMPONENTS_4
100
AcDbLine
 62
7
  6
BYLAYER
 10
23.6908620677
 20
47.836739138
 11
22.7790135634
 21
49.2956967449
  0
LINE
  5
27D
100
AcDbEntity
  8
00_COMPONENTS_4
100
AcDbLine
 62
7
  6
BYLAYER
 10
23.1907811513
 20
48.9433981153
 11
22.9077759611
 21
49.3962064197
  0
LINE
  5
27E
100
AcDbEntity
  8
00_COMPONENTS_4
100
AcDbLine
 62
7
  6
BYLAYER
 10
24.0446626571
 20
47.8366970629
 11
23.5151678473
 21
48.6838887585
  0
LINE
  5
27F
100
AcDbEntity
  8
00_COMPONENTS
100
AcDbLine
 62
7
  6
BYLAYER
 10
6.4408064208
 20
46.4366970629
 11
32.3409721838
 21
46.4366970629
  0
LINE
  5
280
100
AcDbEntity
  8
00_COMPONENTS_4
100
AcDbLine
 62
7
  6
BYLAYER
 10
5.8408883646
 20
46.4366970629
 11
32.9408883646
 21
46.4366970629
  0
LINE
  5
281
100
AcDbEntity
  8
00_COMPONENTS_4
100
AcDbLine
 62
7
  6
BYLAYER
 10
32.3216877862
 20
47.5419322309
 11
23.5246140722
 21
47.5419327849
  0
LINE
  5
282
100
AcDbEntity
  8
00_COMPONENTS_4
100
AcDbLine
 62
7
  6
BYLAYER
 10
23.6908599277
 20
47.8366970629
 11
32.6216420948
 21
47.8366970629
  0
LINE
  5
283
100
AcDbEntity
  8
00_COMPONENTS_4
100
AcDbLine
 62
7
  6
BYLAYER
 10
32.9015720978
 20
48.6891244805
 11
32.6016177893
 21
48.6838887585
  0
LINE
  5
284
100
AcDbEntity
  8
00_COMPONENTS_4
100
AcDbLine
 62
7
  6
BYLAYER
 10
32.6016177893
 20
48.6838887585
 11
23.5151678473
 21
48.6838887585
  0
LINE
  5
285
100
AcDbEntity
  8
00_COMPONENTS_4
100
AcDbLine
 62
7
  6
BYLAYER
 10
23.1907811513
 20
48.9433981153
 11
32.6016177893
 21
48.9433981153
  0
LINE
  5
286
100
AcDbEntity
  8
00_COMPONENTS_4
100
AcDbLine
 62
7
  6
BYLAYER
 10
22.5246140722
 20
49.1419327849
 11
6.4880170469
 21
49.1419322309
  0
LINE
  5
287
100
AcDbEntity
  8
00_COMPONENTS_4
100
AcDbLine
 62
7
  6
BYLAYER
 10
32.5937139909
 20
49.3962064197
 11
22.9077759611
 21
49.3962064197
  0
LINE
  5
288
100
AcDbEntity
  8
00_COMPONENTS_4
100
AcDbLine
 62
7
  6
BYLAYER
 10
6.1880627383
 20
49.4366970629
 11
32.5937139909
 21
49.4366970629
  0
ARC
  5
289
100
AcDbEntity
  8
00_COMPONENTS_4
100
AcDbCircle
 62
7
  6
BYLAYER
 10
6.0092981957
 20
-3.0340870744
 40
52.1782149392
100
AcDbArc
 50
89.4743217244
 51
89.9401040473
  0
ARC
  5
28A
100
AcDbEntity
  8
00_COMPONENTS
100
AcDbCircle
 62
7
  6
BYLAYER
 10
7.7126905455
 20
20.5426055034
 40
25.3626154319
100
AcDbArc
 50
355.0104066933
 51
5.1895933067
  0
ARC
  5
28B
100
AcDbEntity
  8
00_COMPONENTS
100
AcDbCircle
 62
7
  6
BYLAYER
 10
7.6734206573
 20
43.0425712339
 40
25.3626154319
100
AcDbArc
 50
355.0104066933
 51
5.1895933067
  0
ARC
  5
28C
100
AcDbEntity
  8
00_COMPONENTS_4
100
AcDbCircle
 62
7
  6
BYLAYER
 10
6.1880627383
 20
49.1366970629
 40
0.3
100
AcDbArc
 50
90.0
 51
179.0001058229
  0
ARC
  5
28D
100
AcDbEntity
  8
00_COMPONENTS_4
100
AcDbCircle
 62
7
  6
BYLAYER
 10
32.8004066373
 20
-4.6340870397
 40
52.1782149046
100
AcDbArc
 50
90.0598959526
 51
90.5256782758
  0
ARC
  5
28E
100
AcDbEntity
  8
00_COMPONENTS_4
100
AcDbCircle
 62
7
  6
BYLAYER
 10
22.5246140722
 20
49.1366970629
 40
0.3
100
AcDbArc
 50
32.005383375
 51
90.0
  0
ARC
  5
28F
100
AcDbEntity
  8
00_COMPONENTS
100
AcDbCircle
 62
7
  6
BYLAYER
 10
32.949218617
 20
35.5116795474
 40
0.1250000035
100
AcDbArc
 50
270.1000000008
 51
90.0999999992
  0
ARC
  5
290
100
AcDbEntity
  8
00_COMPONENTS
100
AcDbCircle
 62
7
  6
BYLAYER
 10
32.9692898932
 20
24.0116970629
 40
0.1250000035
100
AcDbArc
 50
270.0999999962
 51
90.1000000038
  0
ARC
  5
291
100
AcDbEntity
  8
00_COMPONENTS
100
AcDbCircle
 62
7
  6
BYLAYER
 10
32.968417229
 20
24.5116963014
 40
0.1250000035
100
AcDbArc
 50
270.1000000008
 51
90.0999999992
  0
ARC
  5
292
100
AcDbEntity
  8
00_COMPONENTS
100
AcDbCircle
 62
7
  6
BYLAYER
 10
32.9675445648
 20
25.0116955398
 40
0.1250000035
100
AcDbArc
 50
270.1000000008
 51
90.0999999992
  0
ARC
  5
293
100
AcDbEntity
  8
00_COMPONENTS
100
AcDbCircle
 62
7
  6
BYLAYER
 10
32.9666719007
 20
25.5116947783
 40
0.1250000035
100
AcDbArc
 50
270.1000000008
 51
90.0999999992
  0
ARC
  5
294
100
AcDbEntity
  8
00_COMPONENTS
100
AcDbCircle
 62
7
  6
BYLAYER
 10
32.9657992365
 20
26.0116940168
 40
0.1250000035
100
AcDbArc
 50
270.1000000008
 51
90.0999999992
  0
ARC
  5
295
100
AcDbEntity
  8
00_COMPONENTS
100
AcDbCircle
 62
7
  6
BYLAYER
 10
32.9649265723
 20
26.5116932552
 40
0.1250000035
100
AcDbArc
 50
270.1000000008
 51
90.0999999992
  0
ARC
  5
296
100
AcDbEntity
  8
00_COMPONENTS
100
AcDbCircle
 62
7
  6
BYLAYER
 10
32.9640539081
 20
27.0116924937
 40
0.1250000035
100
AcDbArc
 50
270.1000000008
 51
90.0999999992
  0
ARC
  5
297
100
AcDbEntity
  8
00_COMPONENTS
100
AcDbCircle
 62
7
  6
BYLAYER
 10
32.9631812439
 20
27.5116917321
 40
0.1250000035
100
AcDbArc
 50
270.0999999962
 51
90.1000000038
  0
ARC
  5
298
100
AcDbEntity
  8
00_COMPONENTS
100
AcDbCircle
 62
7
  6
BYLAYER
 10
32.9623085797
 20
28.0116909706
 40
0.1250000035
100
AcDbArc
 50
270.1000000008
 51
90.0999999992
  0
ARC
  5
299
100
AcDbEntity
  8
00_COMPONENTS
100
AcDbCircle
 62
7
  6
BYLAYER
 10
32.9614359156
 20
28.511690209
 40
0.1250000035
100
AcDbArc
 50
270.1000000008
 51
90.0999999992
  0
ARC
  5
29A
100
AcDbEntity
  8
00_COMPONENTS
100
AcDbCircle
 62
7
  6
BYLAYER
 10
32.9605632514
 20
29.0116894475
 40
0.1250000035
100
AcDbArc
 50
270.0999999962
 51
90.1000000038
  0
ARC
  5
29B
100
AcDbEntity
  8
00_COMPONENTS
100
AcDbCircle
 62
7
  6
BYLAYER
 10
32.9596905872
 20
29.5116886859
 40
0.1250000035
100
AcDbArc
 50
270.1000000008
 51
90.0999999992
  0
ARC
  5
29C
100
AcDbEntity
  8
00_COMPONENTS
100
AcDbCircle
 62
7
  6
BYLAYER
 10
32.958817923
 20
30.0116879244
 40
0.1250000035
100
AcDbArc
 50
270.1000000008
 51
90.0999999992
  0
ARC
  5
29D
100
AcDbEntity
  8
00_COMPONENTS
100
AcDbCircle
 62
7
  6
BYLAYER
 10
32.9579452588
 20
30.5116871629
 40
0.1250000035
100
AcDbArc
 50
270.1000000008
 51
90.0999999992
  0
ARC
  5
29E
100
AcDbEntity
  8
00_COMPONENTS
100
AcDbCircle
 62
7
  6
BYLAYER
 10
32.9570725946
 20
31.0116864013
 40
0.1250000035
100
AcDbArc
 50
270.1000000008
 51
90.0999999992
  0
ARC
  5
29F
100
AcDbEntity
  8
00_COMPONENTS
100
AcDbCircle
 62
7
  6
BYLAYER
 10
32.9561999305
 20
31.5116856398
 40
0.1250000035
100
AcDbArc
 50
270.1000000008
 51
90.0999999992
  0
ARC
  5
2A0
100
AcDbEntity
  8
00_COMPONENTS
100
AcDbCircle
 62
7
  6
BYLAYER
 10
32.9553272663
 20
32.0116848782
 40
0.1250000035
100
AcDbArc
 50
270.1000000008
 51
90.0999999992
  0
ARC
  5
2A1
100
AcDbEntity
  8
00_COMPONENTS
100
AcDbCircle
 62
7
  6
BYLAYER
 10
32.9544546021
 20
32.5116841167
 40
0.1250000035
100
AcDbArc
 50
270.0999999962
 51
90.1000000038
  0
ARC
  5
2A2
100
AcDbEntity
  8
00_COMPONENTS
100
AcDbCircle
 62
7
  6
BYLAYER
 10
32.9535819379
 20
33.0116833551
 40
0.1250000035
100
AcDbArc
 50
270.1000000008
 51
90.0999999992
  0
ARC
  5
2A3
100
AcDbEntity
  8
00_COMPONENTS
100
AcDbCircle
 62
7
  6
BYLAYER
 10
32.9527092737
 20
33.5116825936
 40
0.1250000035
100
AcDbArc
 50
270.1000000008
 51
90.0999999992
  0
ARC
  5
2A4
100
AcDbEntity
  8
00_COMPONENTS
100
AcDbCircle
 62
7
  6
BYLAYER
 10
32.9518366095
 20
34.0116818321
 40
0.1250000035
100
AcDbArc
 50
270.0999999962
 51
90.1000000038
  0
ARC
  5
2A5
100
AcDbEntity
  8
00_COMPONENTS
100
AcDbCircle
 62
7
  6
BYLAYER
 10
32.9509639454
 20
34.5116810705
 40
0.1250000035
100
AcDbArc
 50
270.1000000008
 51
90.0999999992
  0
ARC
  5
2A6
100
AcDbEntity
  8
00_COMPONENTS
100
AcDbCircle
 62
7
  6
BYLAYER
 10
32.9500912812
 20
35.011680309
 40
0.1250000035
100
AcDbArc
 50
270.1000000008
 51
90.0999999992
  0
ARC
  5
2A7
100
AcDbEntity
  8
00_COMPONENTS
100
AcDbCircle
 62
7
  6
BYLAYER
 10
32.9483459528
 20
36.0116787859
 40
0.1250000035
100
AcDbArc
 50
270.1000000008
 51
90.0999999992
  0
ARC
  5
2A8
100
AcDbEntity
  8
00_COMPONENTS
100
AcDbCircle
 62
7
  6
BYLAYER
 10
32.9474732886
 20
36.5116780243
 40
0.1250000035
100
AcDbArc
 50
270.1000000008
 51
90.0999999992
  0
ARC
  5
2A9
100
AcDbEntity
  8
00_COMPONENTS_4
100
AcDbCircle
 62
7
  6
BYLAYER
 10
32.6216420948
 20
47.5366970629
 40
0.3
100
AcDbArc
 50
0.9999470886
 51
90.0
  0
ARC
  5
2AA
100
AcDbEntity
  8
00_COMPONENTS_4
100
AcDbCircle
 62
7
  6
BYLAYER
 10
32.5937139909
 20
49.1366970629
 40
0.3
100
AcDbArc
 50
0.9999470884
 51
90.0
  0
ARC
  5
2AB
100
AcDbEntity
  8
00_COMPONENTS
100
AcDbCircle
 62
7
  6
BYLAYER
 10
32.9466006244
 20
37.0116772628
 40
0.1250000035
100
AcDbArc
 50
270.1000000008
 51
90.0999999992
  0
ARC
  5
2AC
100
AcDbEntity
  8
00_COMPONENTS
100
AcDbCircle
 62
7
  6
BYLAYER
 10
32.9457279603
 20
37.5116765013
 40
0.1250000035
100
AcDbArc
 50
270.0999999962
 51
90.1000000038
  0
ARC
  5
2AD
100
AcDbEntity
  8
00_COMPONENTS
100
AcDbCircle
 62
7
  6
BYLAYER
 10
32.9448552961
 20
38.0116757397
 40
0.1250000035
100
AcDbArc
 50
270.1000000008
 51
90.0999999992
  0
ARC
  5
2AE
100
AcDbEntity
  8
00_COMPONENTS
100
AcDbCircle
 62
7
  6
BYLAYER
 10
32.9439826319
 20
38.5116749782
 40
0.1250000035
100
AcDbArc
 50
270.1000000008
 51
90.0999999992
  0
ARC
  5
2AF
100
AcDbEntity
  8
00_COMPONENTS
100
AcDbCircle
 62
7
  6
BYLAYER
 10
32.9431099677
 20
39.0116742166
 40
0.1250000035
100
AcDbArc
 50
270.1000000008
 51
90.0999999992
  0
ARC
  5
2B0
100
AcDbEntity
  8
00_COMPONENTS
100
AcDbCircle
 62
7
  6
BYLAYER
 10
32.9422373035
 20
39.5116734551
 40
0.1250000035
100
AcDbArc
 50
270.1000000008
 51
90.0999999992
  0
ARC
  5
2B1
100
AcDbEntity
  8
00_COMPONENTS
100
AcDbCircle
 62
7
  6
BYLAYER
 10
32.9413646393
 20
40.0116726935
 40
0.1250000035
100
AcDbArc
 50
270.1000000008
 51
90.0999999992
  0
ARC
  5
2B2
100
AcDbEntity
  8
00_COMPONENTS
100
AcDbCircle
 62
7
  6
BYLAYER
 10
32.9404919752
 20
40.511671932
 40
0.1250000035
100
AcDbArc
 50
270.1000000008
 51
90.0999999992
  0
SPLINE
  5
2B3
100
AcDbEntity
  8
00_COMPONENTS_4
100
AcDbSpline
 62
7
  6
BYLAYER
 70
0
 71
3
 72
15
 73
11
 74
0
 42
0.0000001
 43
0.0000001
 44
0.0000000001
 40
0.0
 40
0.0
 40
0.0
 40
0.0
 40
0.1358579998
 40
0.2766121539
 40
0.4177654106
 40
0.5540292908
 40
0.6812563007
 40
0.7977303932
 40
0.9032198051
 40
1.0
 40
1.0
 40
1.0
 40
1.0
 10
32.7458605024
 20
47.5440993541
 30
0.0
 10
32.7455466706
 20
47.5620812222
 30
0.0
 10
32.7425502275
 20
47.5986894803
 30
0.0
 10
32.7308367309
 20
47.6529238971
 30
0.0
 10
32.7110369978
 20
47.7048533452
 30
0.0
 10
32.6840510064
 20
47.7514652673
 30
0.0
 10
32.6505292832
 20
47.7894323077
 30
0.0
 10
32.6129942059
 20
47.8171301768
 30
0.0
 10
32.5734856413
 20
47.8331641894
 30
0.0
 10
32.5466046191
 20
47.8366970629
 30
0.0
 10
32.5337930531
 20
47.8366970629
 30
0.0
  0
SPLINE
  5
2B4
100
AcDbEntity
  8
00_COMPONENTS_4
100
AcDbSpline
 62
7
  6
BYLAYER
 70
0
 71
3
 72
29
 73
25
 74
0
 42
0.0000001
 43
0.0000001
 44
0.0000000001
 40
0.0
 40
0.0
 40
0.0
 40
0.0
 40
0.0004016398
 40
0.001470868
 40
0.0032267392
 40
0.0056667672
 40
0.0087858021
 40
0.012577957
 40
0.0221567696
 40
0.034352626
 40
0.0491139375
 40
0.0663706073
 40
0.0860179485
 40
0.1079473876
 40
0.1320503229
 40
0.1863421834
 40
0.2480198573
 40
0.3161957491
 40
0.3899796611
 40
0.4685163121
 40
0.5510841832
 40
0.6369937373
 40
0.8160556529
 40
1.0
 40
1.0
 40
1.0
 40
1.0
 10
23.6908599278
 20
47.8367378006
 30
0.0
 10
23.6908202955
 20
47.8367597743
 30
0.0
 10
23.69067494
 20
47.836575633
 30
0.0
 10
23.690476087
 20
47.8363476901
 30
0.0
 10
23.6901251325
 20
47.8358252972
 30
0.0
 10
23.6896800434
 20
47.8351486103
 30
0.0
 10
23.6891154235
 20
47.8342502499
 30
0.0
 10
23.6881410585
 20
47.8326685377
 30
0.0
 10
23.6866552891
 20
47.8301937281
 30
0.0
 10
23.6845592334
 20
47.8266450185
 30
0.0
 10
23.6820427534
 20
47.8223373434
 30
0.0
 10
23.6791183489
 20
47.8172947712
 30
0.0
 10
23.6758020653
 20
47.8115444095
 30
0.0
 10
23.6721120132
 20
47.8051179665
 30
0.0
 10
23.6664907224
 20
47.7952930052
 30
0.0
 10
23.6586695308
 20
47.7815598632
 30
0.0
 10
23.6484221341
 20
47.7634859689
 30
0.0
 10
23.6371228844
 20
47.7434803416
 30
0.0
 10
23.6249202017
 20
47.7218004113
 30
0.0
 10
23.6119532159
 20
47.6986873366
 30
0.0
 10
23.5983429459
 20
47.6743664695
 30
0.0
 10
23.5792228885
 20
47.6401316923
 30
0.0
 10
23.5545663477
 20
47.5958879347
 30
0.0
 10
23.5346767942
 20
47.5600841971
 30
0.0
 10
23.5246140722
 20
47.5419327849
 30
0.0
  0
SPLINE
  5
2B5
100
AcDbEntity
  8
00_COMPONENTS_4
100
AcDbSpline
 62
7
  6
BYLAYER
 70
0
 71
3
 72
18
 73
14
 74
0
 42
0.0000001
 43
0.0000001
 44
0.0000000001
 40
0.0
 40
0.0
 40
0.0
 40
0.0
 40
0.0829959646
 40
0.1600720239
 40
0.2320282986
 40
0.3022659446
 40
0.3796448698
 40
0.4883095421
 40
0.571306399
 40
0.6875563945
 40
0.7599928766
 40
0.8386305587
 40
1.0
 40
1.0
 40
1.0
 40
1.0
 10
22.7790135622
 20
49.2956967469
 30
0.0
 10
22.7756564585
 20
49.3010681127
 30
0.0
 10
22.7696495466
 20
49.3117379932
 30
0.0
 10
22.7630426165
 20
49.3282446333
 30
0.0
 10
22.7598933894
 20
49.3448273587
 30
0.0
 10
22.7615491105
 20
49.361835554
 30
0.0
 10
22.7715292527
 20
49.3794865175
 30
0.0
 10
22.7898148616
 20
49.3904645324
 30
0.0
 10
22.8123760091
 20
49.397063391
 30
0.0
 10
22.8330652254
 20
49.3996407353
 30
0.0
 10
22.8534594748
 20
49.4002174976
 30
0.0
 10
22.8773105526
 20
49.399603197
 30
0.0
 10
22.8955594165
 20
49.3977649411
 30
0.0
 10
22.9077759611
 20
49.3962064197
 30
0.0
  0
SPLINE
  5
2B6
100
AcDbEntity
  8
00_COMPONENTS_4
100
AcDbSpline
 62
7
  6
BYLAYER
 70
0
 71
3
 72
11
 73
7
 74
0
 42
0.0000001
 43
0.0000001
 44
0.0000000001
 40
0.0
 40
0.0
 40
0.0
 40
0.0
 40
0.230380974
 40
0.4772808661
 40
0.7370062114
 40
1.0
 40
1.0
 40
1.0
 40
1.0
 10
22.9363816598
 20
49.0439077906
 30
0.0
 10
22.9481374246
 20
49.0250985826
 30
0.0
 10
22.979169524
 20
48.9899303024
 30
0.0
 10
23.0416701316
 20
48.9539565493
 30
0.0
 10
23.1148953599
 20
48.9373845974
 30
0.0
 10
23.1657681799
 20
48.9394629449
 30
0.0
 10
23.1907811514
 20
48.9433981153
 30
0.0
  0
SPLINE
  5
2B7
100
AcDbEntity
  8
00_COMPONENTS_4
100
AcDbSpline
 62
7
  6
BYLAYER
 70
0
 71
3
 72
23
 73
19
 74
0
 42
0.0000001
 43
0.0000001
 44
0.0000000001
 40
0.0
 40
0.0
 40
0.0
 40
0.0
 40
0.0012974544
 40
0.0045654159
 40
0.0098986461
 40
0.0172987572
 40
0.0267551378
 40
0.0382537547
 40
0.0673154429
 40
0.1043553305
 40
0.1492409375
 40
0.2018384404
 40
0.2620133885
 40
0.3296309994
 40
0.4045562984
 40
0.5757894561
 40
0.7746314103
 40
1.0
 40
1.0
 40
1.0
 40
1.0
 10
5.8881084121
 20
49.1419317706
 30
0.0
 10
5.8881097391
 20
49.1420077993
 30
0.0
 10
5.8884576793
 20
49.142105397
 30
0.0
 10
5.888945981
 20
49.142208982
 30
0.0
 10
5.8899225879
 20
49.1423231915
 30
0.0
 10
5.8911986055
 20
49.1424345488
 30
0.0
 10
5.8928643987
 20
49.1425452688
 30
0.0
 10
5.8957880663
 20
49.1427010282
 30
0.0
 10
5.9003350884
 20
49.1428774878
 30
0.0
 10
5.9068360657
 20
49.1430651587
 30
0.0
 10
5.914718584
 20
49.1432390348
 30
0.0
 10
5.9239570107
 20
49.1433986311
 30
0.0
 10
5.9345282496
 20
49.1435430382
 30
0.0
 10
5.946408288
 20
49.1436718258
 30
0.0
 10
5.9647971872
 20
49.1438290783
 30
0.0
 10
5.9908770743
 20
49.1439760949
 30
0.0
 10
6.0257742712
 20
49.1440789389
 30
0.0
 10
6.0506360965
 20
49.1440993541
 30
0.0
 10
6.0638443307
 20
49.1440993541
 30
0.0
  0
SPLINE
  5
2B8
100
AcDbEntity
  8
00_COMPONENTS_4
100
AcDbSpline
 62
7
  6
BYLAYER
 70
0
 71
3
 72
15
 73
11
 74
0
 42
0.0000001
 43
0.0000001
 44
0.0000000001
 40
0.0
 40
0.0
 40
0.0
 40
0.0
 40
0.1358579997
 40
0.2766121538
 40
0.4177654106
 40
0.5540292908
 40
0.6812563007
 40
0.7977303932
 40
0.9032198051
 40
1.0
 40
1.0
 40
1.0
 40
1.0
 10
6.0638443307
 20
49.1440993541
 30
0.0
 10
6.0641581625
 20
49.1620812222
 30
0.0
 10
6.0671546056
 20
49.1986894803
 30
0.0
 10
6.0788681022
 20
49.2529238971
 30
0.0
 10
6.0986678353
 20
49.3048533452
 30
0.0
 10
6.1256538268
 20
49.3514652673
 30
0.0
 10
6.1591755499
 20
49.3894323077
 30
0.0
 10
6.1967106273
 20
49.4171301768
 30
0.0
 10
6.2362191919
 20
49.4331641894
 30
0.0
 10
6.263100214
 20
49.4366970629
 30
0.0
 10
6.27591178
 20
49.4366970629
 30
0.0
  0
SPLINE
  5
2B9
100
AcDbEntity
  8
00_COMPONENTS_4
100
AcDbSpline
 62
7
  6
BYLAYER
 70
0
 71
3
 72
12
 73
8
 74
0
 42
0.0000001
 43
0.0000001
 44
0.0000000001
 40
0.0
 40
0.0
 40
0.0
 40
0.0
 40
0.2716285848
 40
0.4054797043
 40
0.5366675208
 40
0.7858613226
 40
1.0
 40
1.0
 40
1.0
 40
1.0
 10
23.5151678473
 20
48.6838887585
 30
0.0
 10
23.485855733
 20
48.7074587994
 30
0.0
 10
23.4419197832
 20
48.7424194644
 30
0.0
 10
23.3838782804
 20
48.788827601
 30
0.0
 10
23.3283590261
 20
48.8334155678
 30
0.0
 10
23.2639252993
 20
48.884657058
 30
0.0
 10
23.2138612256
 20
48.9247816811
 30
0.0
 10
23.1907811513
 20
48.9433981153
 30
0.0
  0
SPLINE
  5
2BA
100
AcDbEntity
  8
00_COMPONENTS_4
100
AcDbSpline
 62
7
  6
BYLAYER
 70
0
 71
3
 72
14
 73
10
 74
0
 42
0.0000001
 43
0.0000001
 44
0.0000000001
 40
0.0
 40
0.0
 40
0.0
 40
0.0
 40
0.2654981753
 40
0.3956167184
 40
0.5225745397
 40
0.6460493642
 40
0.7662090594
 40
0.8839161343
 40
1.0
 40
1.0
 40
1.0
 40
1.0
 10
32.6016177893
 20
48.9433981153
 30
0.0
 10
32.6400580731
 20
48.9435670145
 30
0.0
 10
32.6980474775
 20
48.9341398066
 30
0.0
 10
32.7672901707
 20
48.9029198941
 30
0.0
 10
32.812863819
 20
48.8713498323
 30
0.0
 10
32.8505775278
 20
48.8326998589
 30
0.0
 10
32.8789645954
 20
48.7882837539
 30
0.0
 10
32.8968086079
 20
48.7398258694
 30
0.0
 10
32.9012771125
 20
48.7059339856
 30
0.0
 10
32.9015720162
 20
48.6891291512
 30
0.0
  0
SPLINE
  5
2BB
100
AcDbEntity
  8
00_COMPONENTS_4
100
AcDbSpline
 62
7
  6
BYLAYER
 70
0
 71
3
 72
14
 73
10
 74
0
 42
0.0000001
 43
0.0000001
 44
0.0000000001
 40
0.0
 40
0.0
 40
0.0
 40
0.0
 40
0.1161191788
 40
0.2339435446
 40
0.3541989564
 40
0.4777123382
 40
0.6047153554
 40
0.7348043929
 40
1.0
 40
1.0
 40
1.0
 40
1.0
 10
32.8936682179
 20
49.1419374556
 30
0.0
 10
32.8933746247
 20
49.158747372
 30
0.0
 10
32.8888874411
 20
49.1926588493
 30
0.0
 10
32.8710394951
 20
49.2411538001
 30
0.0
 10
32.8426079584
 20
49.285586448
 30
0.0
 10
32.8048664848
 20
49.3242451078
 30
0.0
 10
32.7592651502
 20
49.3557902063
 30
0.0
 10
32.6900492333
 20
49.3869643415
 30
0.0
 10
32.6321103424
 20
49.3963751259
 30
0.0
 10
32.5937139909
 20
49.3962064197
 30
0.0
  0
SPLINE
  5
2BC
100
AcDbEntity
  8
00_COMPONENTS_4
100
AcDbSpline
 62
7
  6
BYLAYER
 70
0
 71
3
 72
23
 73
19
 74
0
 42
0.0000001
 43
0.0000001
 44
0.0000000001
 40
0.0
 40
0.0
 40
0.0
 40
0.0
 40
0.2253685897
 40
0.4242105439
 40
0.5954437016
 40
0.6703690006
 40
0.7379866115
 40
0.7981615596
 40
0.8507590625
 40
0.8956446695
 40
0.9326845571
 40
0.9617462453
 40
0.9732448622
 40
0.9827012428
 40
0.9901013539
 40
0.9954345841
 40
0.9987025456
 40
1.0
 40
1.0
 40
1.0
 40
1.0
 10
32.7458605024
 20
47.5440993541
 30
0.0
 10
32.7590687366
 20
47.5440993541
 30
0.0
 10
32.7839305619
 20
47.5440789389
 30
0.0
 10
32.8188277588
 20
47.5439760949
 30
0.0
 10
32.8449076459
 20
47.5438290783
 30
0.0
 10
32.8632965451
 20
47.5436718258
 30
0.0
 10
32.8751765835
 20
47.5435430382
 30
0.0
 10
32.8857478224
 20
47.5433986311
 30
0.0
 10
32.8949862491
 20
47.5432390348
 30
0.0
 10
32.9028687674
 20
47.5430651587
 30
0.0
 10
32.9093697448
 20
47.5428774878
 30
0.0
 10
32.9139167668
 20
47.5427010282
 30
0.0
 10
32.9168404344
 20
47.5425452688
 30
0.0
 10
32.9185062276
 20
47.5424345488
 30
0.0
 10
32.9197822452
 20
47.5423231915
 30
0.0
 10
32.9207588521
 20
47.542208982
 30
0.0
 10
32.9212471539
 20
47.542105397
 30
0.0
 10
32.9215950941
 20
47.5420077993
 30
0.0
 10
32.921596421
 20
47.5419317706
 30
0.0
  0
SPLINE
  5
2BD
100
AcDbEntity
  8
00_COMPONENTS_4
100
AcDbSpline
 62
7
  6
BYLAYER
 70
0
 71
3
 72
24
 73
20
 74
0
 42
0.0000001
 43
0.0000001
 44
0.0000000001
 40
0.0
 40
0.0
 40
0.0
 40
0.0
 40
0.0014093467
 40
0.0050930024
 40
0.0111331315
 40
0.0195274749
 40
0.0302631221
 40
0.043324203
 40
0.0586923721
 40
0.076330018
 40
0.1182061651
 40
0.1685347583
 40
0.2268866929
 40
0.2926946478
 40
0.365287298
 40
0.4439893108
 40
0.6167624126
 40
0.8046785493
 40
1.0
 40
1.0
 40
1.0
 40
1.0
 10
22.7790135634
 20
49.2956967449
 30
0.0
 10
22.7789395224
 20
49.2958152105
 30
0.0
 10
22.7782802966
 20
49.2955744626
 30
0.0
 10
22.7774058455
 20
49.2952623481
 30
0.0
 10
22.7757037954
 20
49.294427902
 30
0.0
 10
22.7735217966
 20
49.2933102303
 30
0.0
 10
22.7706980924
 20
49.2917879029
 30
0.0
 10
22.767306506
 20
49.2899112541
 30
0.0
 10
22.7633285665
 20
49.287664762
 30
0.0
 10
22.7568891987
 20
49.2839746121
 30
0.0
 10
22.7474831021
 20
49.2784892596
 30
0.0
 10
22.7346382519
 20
49.2708915689
 30
0.0
 10
22.7197923116
 20
49.2620171834
 30
0.0
 10
22.7030876753
 20
49.2519514193
 30
0.0
 10
22.6846869597
 20
49.2407921048
 30
0.0
 10
22.6572607569
 20
49.2240682237
 30
0.0
 10
22.6201469951
 20
49.201274483
 30
0.0
 10
22.5732790568
 20
49.1722750456
 30
0.0
 10
22.5410336338
 20
49.1521918851
 30
0.0
 10
22.5246140722
 20
49.1419327849
 30
0.0
  0
ENDSEC
  0
SECTION
  2
OBJECTS
  0
DICTIONARY
  5
C
100
AcDbDictionary
280
0
281
1
  3
ACAD_GROUP
350
D
  3
ACAD_MLINESTYLE
350
17
  3
ACAD_LAYOUT
350
1A
  3
ACAD_PLOTSETTINGS
350
19
  3
ACAD_PLOTSTYLENAME
350
E
  0
DICTIONARY
  5
D
102
{ACAD_REACTORS
330
C
102
}
100
AcDbDictionary
280
0
281
1
  0
ACDBDICTIONARYWDFLT
  5
E
102
{ACAD_REACTORS
330
C
102
}
100
AcDbDictionary
281
1
  3
Normal
350
F
100
AcDbDictionaryWithDefault
340
F
  0
DICTIONARY
  5
17
102
{ACAD_REACTORS
330
C
102
}
100
AcDbDictionary
280
0
281
1
  3
Standard
350
18
  0
DICTIONARY
  5
19
102
{ACAD_REACTORS
330
C
102
}
100
AcDbDictionary
281
1
  0
DICTIONARY
  5
1A
102
{ACAD_REACTORS
330
C
102
}
100
AcDbDictionary
281
1
  3
Model
350
2BE
  3
Layout1
350
2BF
  0
ACDBPLACEHOLDER
  5
F
102
{ACAD_REACTORS
330
E
102
}
  0
MLINESTYLE
  5
18
102
{ACAD_REACTORS
330
17
102
}
100
AcDbMlineStyle
  2
STANDARD
 70
0
  3

 62
256
 51
90.0
 52
90.0
 71
2
 49
0.5
 62
256
  6
BYLAYER
 49
-0.5
 62
256
  6
BYLAYER
  0
LAYOUT
  5
2BE
102
{ACAD_REACTORS
330
1A
102
}
100
AcDbPlotSettings
  1

  2
none_device
  4

  6

 40
0.0
 41
0.0
 42
0.0
 43
0.0
 44
210.0
 45
297.0
 46
0.0
 47
0.0
 48
0.0
 49
0.0
140
0.0
141
0.0
142
1.0
143
1.0
 70
1024
 72
1
 73
0
 74
0
  7

 75
0
147
1.0
148
0.0
149
0.0
100
AcDbLayout
  1
Model
 70
0
 71
0
 10
0.0
 20
0.0
 11
210.0
 21
297.0
 12
0.0
 22
0.0
 32
0.0
 14
0.0
 24
0.0
 34
0.0
 15
0.0
 25
0.0
 35
0.0
146
0.0
 13
0.0
 23
0.0
 33
0.0
 16
1.0
 26
0.0
 36
0.0
 17
0.0
 27
1.0
 37
0.0
 76
0
330
21C
345
0
346
0
  0
LAYOUT
  5
2BF
102
{ACAD_REACTORS
330
1A
102
}
100
AcDbPlotSettings
  1

  2
none_device
  4

  6

 40
0.0
 41
0.0
 42
0.0
 43
0.0
 44
210.0
 45
297.0
 46
0.0
 47
0.0
 48
0.0
 49
0.0
140
0.0
141
0.0
142
1.0
143
1.0
 70
0
 72
1
 73
0
 74
0
  7

 75
0
147
1.0
148
0.0
149
0.0
100
AcDbLayout
  1
Layout1
 70
0
 71
1
 10
0.0
 20
0.0
 11
210.0
 21
297.0
 12
0.0
 22
0.0
 32
0.0
 14
0.0
 24
0.0
 34
0.0
 15
0.0
 25
0.0
 35
0.0
146
0.0
 13
0.0
 23
0.0
 33
0.0
 16
1.0
 26
0.0
 36
0.0
 17
0.0
 27
1.0
 37
0.0
 76
0
330
21D
345
0
346
0
  0
ENDSEC
  0
EOF
