999
DXF file: C:\Users\sesa63760\Dev\_Creo\CAD\MCADID0005012_3D-CAD\drw0001_6.dxf
999
Pro/ENGINEER 2019471 by Parametric Technology Corporation
  0
SECTION
  2
HEADER
  9
$ACADVER
  1
AC1024
  9
$DWGCODEPAGE
  3
ANSI_1252
  9
$EXTMAX
 10
38.6234907634
 20
54.6246512225
 30
0.0
  9
$EXTMIN
 10
0.0
 20
0.0
 30
0.0
  9
$LIMMIN
 10
0.0
 20
0.0
  9
$LIMMAX
 10
38.6234907634
 20
54.6246512225
  9
$VIEWCTR
 10
19.3117453817
 20
27.3123256113
  9
$VIEWSIZE
 40
54.6246512225
  9
$CLAYER
  8
0
  9
$LTSCALE
 40
3.5607180056
  9
$CELTYPE
  6
BYLAYER
  9
$DIMSCALE
 40
1.0
  9
$DIMASZ
 40
0.4598034615
  9
$DIMEXO
 40
1.0
  9
$DIMDLI
 40
2.4601324402
  9
$DIMEXE
 40
1.0
  9
$DIMCEN
 40
0.5826629464
  9
$DIMLFAC
 40
1.0
  9
$DIMBLK
  1
_FILLED
  9
$DIMALT
 70
0
  9
$DIMALTF
 40
0.0393700787
  9
$DIMTXT
 40
0.6437248461
  9
$DIMTOL
 70
1
  9
$DIMLIM
 70
0
  9
$DIMTFAC
 40
1.0
  9
$DIMTP
 40
0.01
  9
$DIMTM
 40
0.01
  9
$DIMGAP
 40
0.625
  9
$DIMDSEP
 70
46
  9
$AUNITS
 70
0
  9
$PDMODE
 70
3
  9
$PDSIZE
 40
0.3125
  9
$HANDSEED
  5
350
  9
$TILEMODE
 70
1
  9
$MEASUREMENT
 70
1
  9
$INSUNITS
 70
4
  0
ENDSEC
  0
SECTION
  2
CLASSES
  0
CLASS
  1
ACDBDICTIONARYWDFLT
  2
AcDbDictionaryWithDefault
  3
AutoCAD 2000
 90
0
 91
1
280
0
281
0
  0
CLASS
  1
ACDBPLACEHOLDER
  2
AcDbPlaceHolder
  3
AutoCAD 2000
 90
0
 91
1
280
0
281
0
  0
CLASS
  1
LAYOUT
  2
AcDbLayout
  3
AutoCAD 2000
 90
0
 91
0
280
0
281
0
  0
ENDSEC
  0
SECTION
  2
TABLES
  0
TABLE
  2
VPORT
  5
8
100
AcDbSymbolTable
 70
2
  0
VPORT
  5
1F4
100
AcDbSymbolTableRecord
100
AcDbViewportTableRecord
  2
*ACTIVE
 70
0
 10
0.0
 20
0.0
 11
1.0
 21
1.0
 12
19.3117453817
 22
27.3123256113
 13
0.0
 23
0.0
 14
1.0
 24
1.0
 15
0.0
 25
0.0
 16
0.0
 26
0.0
 36
1.0
 17
0.0
 27
0.0
 37
0.0
 40
54.6246512225
 41
0.7070707071
 42
50.0
 43
0.0
 44
0.0
 50
0.0
 51
0.0
 71
0
 72
100
 73
1
 74
1
 75
0
 76
0
 77
0
 78
0
  0
ENDTAB
  0
TABLE
  2
LTYPE
  5
5
100
AcDbSymbolTable
 70
6
  0
LTYPE
  5
14
100
AcDbSymbolTableRecord
100
AcDbLinetypeTableRecord
  2
BYBLOCK
 70
0
  3

 72
65
 73
0
 40
0.0
  0
LTYPE
  5
15
100
AcDbSymbolTableRecord
100
AcDbLinetypeTableRecord
  2
BYLAYER
 70
0
  3

 72
65
 73
0
 40
0.0
  0
LTYPE
  5
16
100
AcDbSymbolTableRecord
100
AcDbLinetypeTableRecord
  2
CONTINUOUS
 70
64
  3
Solid line
 72
65
 73
0
 40
0.0
  0
LTYPE
  5
1F5
100
AcDbSymbolTableRecord
100
AcDbLinetypeTableRecord
  2
CENTER
 70
64
  3
____ _ ____ _ ____ _ ____ _ ____ _ ____ _ ____
 72
65
 73
4
 40
0.6
 49
0.375
 74
0
 49
-0.075
 74
0
 49
0.075
 74
0
 49
-0.075
 74
0
  0
LTYPE
  5
1F6
100
AcDbSymbolTableRecord
100
AcDbLinetypeTableRecord
  2
HIDDEN
 70
64
  3
- - - - - - - - - - - - - - - - - - - -
 72
65
 73
2
 40
0.2
 49
0.1
 74
0
 49
-0.1
 74
0
  0
LTYPE
  5
1F7
100
AcDbSymbolTableRecord
100
AcDbLinetypeTableRecord
  2
PHANTOM
 70
64
  3
_____ _ _ _____ _ _ _____ _ _ _____
 72
65
 73
6
 40
0.8
 49
0.45
 74
0
 49
-0.05
 74
0
 49
0.1
 74
0
 49
-0.05
 74
0
 49
0.1
 74
0
 49
-0.05
 74
0
  0
LTYPE
  5
1F8
100
AcDbSymbolTableRecord
100
AcDbLinetypeTableRecord
  2
DOT
 70
64
  3
. . . . . . . . . . . . . . . . . . . .
 72
65
 73
2
 40
0.2
 49
0.1
 74
0
 49
-0.1
 74
0
  0
LTYPE
  5
1F9
100
AcDbSymbolTableRecord
100
AcDbLinetypeTableRecord
  2
DASHED
 70
64
  3
- - - - - - - - - - - - - - - - - - - -
 72
65
 73
2
 40
0.2
 49
0.1
 74
0
 49
-0.1
 74
0
  0
ENDTAB
  0
TABLE
  2
LAYER
  5
2
100
AcDbSymbolTable
 70
36
  0
LAYER
  5
10
100
AcDbSymbolTableRecord
100
AcDbLayerTableRecord
  2
0
 70
0
 62
7
  6
CONTINUOUS
370
-3
390
F
  0
LAYER
  5
1FA
100
AcDbSymbolTableRecord
100
AcDbLayerTableRecord
  2
DEFAULT_1
 70
0
 62
7
  6
CENTER
370
-3
390
F
  0
LAYER
  5
1FB
100
AcDbSymbolTableRecord
100
AcDbLayerTableRecord
  2
DEFAULT_2
 70
0
 62
7
  6
HIDDEN
370
-3
390
F
  0
LAYER
  5
1FC
100
AcDbSymbolTableRecord
100
AcDbLayerTableRecord
  2
DEFAULT_3
 70
0
 62
7
  6
PHANTOM
370
-3
390
F
  0
LAYER
  5
1FD
100
AcDbSymbolTableRecord
100
AcDbLayerTableRecord
  2
00_COMPONENTS
 70
0
 62
7
  6
CONTINUOUS
370
-3
390
F
  0
LAYER
  5
1FE
100
AcDbSymbolTableRecord
100
AcDbLayerTableRecord
  2
00_COMPONENTS_1
 70
0
 62
7
  6
CONTINUOUS
370
-3
390
F
  0
LAYER
  5
1FF
100
AcDbSymbolTableRecord
100
AcDbLayerTableRecord
  2
00_COMPONENTS_3
 70
0
 62
7
  6
CONTINUOUS
370
-3
390
F
  0
LAYER
  5
200
100
AcDbSymbolTableRecord
100
AcDbLayerTableRecord
  2
00_COMPONENTS_4
 70
0
 62
7
  6
CONTINUOUS
370
-3
390
F
  0
LAYER
  5
201
100
AcDbSymbolTableRecord
100
AcDbLayerTableRecord
  2
00_COMPONENTS_6
 70
0
 62
7
  6
CONTINUOUS
370
-3
390
F
  0
LAYER
  5
202
100
AcDbSymbolTableRecord
100
AcDbLayerTableRecord
  2
00_COMPONENTS_8
 70
0
 62
7
  6
CONTINUOUS
370
-3
390
F
  0
LAYER
  5
203
100
AcDbSymbolTableRecord
100
AcDbLayerTableRecord
  2
01_1_DEFAULT_DATUMS
 70
0
 62
7
  6
CONTINUOUS
370
-3
390
F
  0
LAYER
  5
204
100
AcDbSymbolTableRecord
100
AcDbLayerTableRecord
  2
01_PLANES
 70
0
 62
7
  6
CONTINUOUS
370
-3
390
F
  0
LAYER
  5
205
100
AcDbSymbolTableRecord
100
AcDbLayerTableRecord
  2
02_COORD_SYS
 70
0
 62
7
  6
CONTINUOUS
370
-3
390
F
  0
LAYER
  5
206
100
AcDbSymbolTableRecord
100
AcDbLayerTableRecord
  2
03_AXES
 70
0
 62
7
  6
CONTINUOUS
370
-3
390
F
  0
LAYER
  5
207
100
AcDbSymbolTableRecord
100
AcDbLayerTableRecord
  2
04_POINTS
 70
0
 62
7
  6
CONTINUOUS
370
-3
390
F
  0
LAYER
  5
208
100
AcDbSymbolTableRecord
100
AcDbLayerTableRecord
  2
05_CURVES
 70
0
 62
7
  6
CONTINUOUS
370
-3
390
F
  0
LAYER
  5
209
100
AcDbSymbolTableRecord
100
AcDbLayerTableRecord
  2
06_SURFS
 70
0
 62
7
  6
CONTINUOUS
370
-3
390
F
  0
LAYER
  5
20A
100
AcDbSymbolTableRecord
100
AcDbLayerTableRecord
  2
07_COSMETICS
 70
0
 62
7
  6
CONTINUOUS
370
-3
390
F
  0
LAYER
  5
20B
100
AcDbSymbolTableRecord
100
AcDbLayerTableRecord
  2
10_NOTES
 70
0
 62
7
  6
CONTINUOUS
370
-3
390
F
  0
LAYER
  5
20C
100
AcDbSymbolTableRecord
100
AcDbLayerTableRecord
  2
11_NOTES_PUB
 70
0
 62
7
  6
CONTINUOUS
370
-3
390
F
  0
LAYER
  5
20D
100
AcDbSymbolTableRecord
100
AcDbLayerTableRecord
  2
13_REF_GTOL
 70
0
 62
7
  6
CONTINUOUS
370
-3
390
F
  0
LAYER
  5
20E
100
AcDbSymbolTableRecord
100
AcDbLayerTableRecord
  2
16_MISC
 70
0
 62
7
  6
CONTINUOUS
370
-3
390
F
  0
LAYER
  5
20F
100
AcDbSymbolTableRecord
100
AcDbLayerTableRecord
  2
17_NO_PRINT
 70
0
 62
7
  6
CONTINUOUS
370
-3
390
F
  0
LAYER
  5
210
100
AcDbSymbolTableRecord
100
AcDbLayerTableRecord
  2
18_DATUM_CAMS_JOINTS
 70
0
 62
7
  6
CONTINUOUS
370
-3
390
F
  0
LAYER
  5
211
100
AcDbSymbolTableRecord
100
AcDbLayerTableRecord
  2
19_DATUM_FUNCTIONAL
 70
0
 62
7
  6
CONTINUOUS
370
-3
390
F
  0
LAYER
  5
212
100
AcDbSymbolTableRecord
100
AcDbLayerTableRecord
  2
20_DATUM_KINEMATIC_SCHEME
 70
0
 62
7
  6
CONTINUOUS
370
-3
390
F
  0
LAYER
  5
213
100
AcDbSymbolTableRecord
100
AcDbLayerTableRecord
  2
INTFCLR_8
 70
0
 62
7
  6
CONTINUOUS
370
-3
390
F
  0
LAYER
  5
214
100
AcDbSymbolTableRecord
100
AcDbLayerTableRecord
  2
NONE
 70
0
 62
7
  6
CONTINUOUS
370
-3
390
F
  0
LAYER
  5
215
100
AcDbSymbolTableRecord
100
AcDbLayerTableRecord
  2
NONE_1
 70
0
 62
7
  6
CONTINUOUS
370
-3
390
F
  0
LAYER
  5
216
100
AcDbSymbolTableRecord
100
AcDbLayerTableRecord
  2
NONE_2
 70
0
 62
7
  6
CONTINUOUS
370
-3
390
F
  0
LAYER
  5
217
100
AcDbSymbolTableRecord
100
AcDbLayerTableRecord
  2
NONE_3
 70
0
 62
7
  6
CONTINUOUS
370
-3
390
F
  0
LAYER
  5
218
100
AcDbSymbolTableRecord
100
AcDbLayerTableRecord
  2
NONE_4
 70
0
 62
7
  6
CONTINUOUS
370
-3
390
F
  0
LAYER
  5
219
100
AcDbSymbolTableRecord
100
AcDbLayerTableRecord
  2
NONE_5
 70
0
 62
7
  6
CONTINUOUS
370
-3
390
F
  0
ENDTAB
  0
TABLE
  2
STYLE
  5
3
100
AcDbSymbolTable
 70
1
  0
STYLE
  5
11
100
AcDbSymbolTableRecord
100
AcDbTextStyleTableRecord
  2
STANDARD
 70
0
 40
0.0
 41
1.0
 50
0.0
 71
0
 42
0.2
  3
ARIAL.TTF
  4

  0
STYLE
  5
21A
100
AcDbSymbolTableRecord
100
AcDbTextStyleTableRecord
  2
TEXTSTYLE_1
 70
0
 40
0.0
 41
0.8
 50
0.0
 71
0
 42
0.2
  3
gdt
  4

  0
ENDTAB
  0
TABLE
  2
VIEW
  5
6
100
AcDbSymbolTable
 70
0
  0
ENDTAB
  0
TABLE
  2
UCS
  5
7
100
AcDbSymbolTable
 70
0
  0
ENDTAB
  0
TABLE
  2
APPID
  5
9
100
AcDbSymbolTable
 70
1
  0
APPID
  5
21B
100
AcDbSymbolTableRecord
100
AcDbRegAppTableRecord
  2
ACAD
 70
0
  0
ENDTAB
  0
TABLE
  2
BLOCK_RECORD
  5
1
100
AcDbSymbolTable
 70
0
  0
BLOCK_RECORD
  5
21C
100
AcDbSymbolTableRecord
100
AcDbBlockTableRecord
  2
*Model_Space
  0
BLOCK_RECORD
  5
21D
100
AcDbSymbolTableRecord
100
AcDbBlockTableRecord
  2
*Paper_Space
  0
BLOCK_RECORD
  5
21E
100
AcDbSymbolTableRecord
100
AcDbBlockTableRecord
  2
_FILLED
  0
ENDTAB
  0
TABLE
  2
DIMSTYLE
  5
A
100
AcDbSymbolTable
 70
1
100
AcDbDimStyleTable
 71
0
  0
DIMSTYLE
105
21F
100
AcDbSymbolTableRecord
100
AcDbDimStyleTableRecord
  2
STANDARD
 70
0
  3

  4

 40
1.0
 41
0.4598034615
 42
1.0
 43
0.38
 44
1.0
 45
0.0
 46
0.0
 47
0.01
 48
0.01
140
0.6437248461
141
0.09
142
0.0
143
25.4
144
1.0
145
0.0
146
1.0
147
0.625
 71
1
 72
0
 73
0
 74
0
 75
0
 76
0
 77
1
 78
8
 79
2
170
0
171
1
172
0
173
0
174
0
175
0
176
0
177
0
178
0
270
2
179
2
271
2
272
2
273
2
274
2
275
0
280
0
281
0
282
0
283
1
284
8
285
0
286
0
287
3
288
0
340
11
278
46
341
21E
342
21E
343
21E
344
21E
  0
ENDTAB
  0
ENDSEC
  0
SECTION
  2
BLOCKS
  0
BLOCK
  5
20
100
AcDbEntity
  8
0
100
AcDbBlockBegin
  2
*Model_Space
 70
0
 10
0.0
 20
0.0
 30
0.0
  3
*Model_Space
  1

  0
ENDBLK
  5
21
100
AcDbEntity
  8
0
100
AcDbBlockEnd
  0
BLOCK
  5
1C
100
AcDbEntity
  8
0
100
AcDbBlockBegin
  2
*Paper_Space
 70
0
 10
0.0
 20
0.0
 30
0.0
  3
*Paper_Space
  1

  0
ENDBLK
  5
1D
100
AcDbEntity
  8
0
100
AcDbBlockEnd
  0
BLOCK
  5
220
100
AcDbEntity
  8
0
100
AcDbBlockBegin
  2
_FILLED
 70
64
 10
0.0
 20
0.0
  3
_FILLED
  1

  0
SOLID
  5
221
100
AcDbEntity
  8
0
  6
BYBLOCK
 62
0
100
AcDbTrace
 10
0.0
 20
0.0
 11
-1.0
 21
0.25
 12
-1.0
 22
-0.25
 13
-1.0
 23
-0.25
  0
ENDBLK
  5
222
100
AcDbEntity
  8
0
  6
BYBLOCK
 62
0
100
AcDbBlockEnd
  0
ENDSEC
  0
SECTION
  2
ENTITIES
  0
LINE
  5
223
100
AcDbEntity
  8
00_COMPONENTS_1
100
AcDbLine
 62
7
  6
BYLAYER
 10
27.2460455728
 20
5.0115986429
 11
25.2460455728
 21
5.0115986429
  0
LINE
  5
224
100
AcDbEntity
  8
00_COMPONENTS_1
100
AcDbLine
 62
7
  6
BYLAYER
 10
22.8460455728
 20
5.0115986429
 11
20.8460455728
 21
5.0115986429
  0
LINE
  5
225
100
AcDbEntity
  8
00_COMPONENTS_1
100
AcDbLine
 62
7
  6
BYLAYER
 10
18.4460455728
 20
5.0115986429
 11
16.4460455728
 21
5.0115986429
  0
LINE
  5
226
100
AcDbEntity
  8
00_COMPONENTS_1
100
AcDbLine
 62
7
  6
BYLAYER
 10
14.0460455728
 20
5.0115986429
 11
12.0460455728
 21
5.0115986429
  0
LINE
  5
227
100
AcDbEntity
  8
00_COMPONENTS_4
100
AcDbLine
 62
7
  6
BYLAYER
 10
18.6291336066
 20
49.9705983264
 11
18.1950147189
 21
49.7188093701
  0
LINE
  5
228
100
AcDbEntity
  8
00_COMPONENTS_4
100
AcDbLine
 62
7
  6
BYLAYER
 10
19.1262341189
 20
50.0711079997
 11
18.3455301458
 21
49.6182996953
  0
LINE
  5
229
100
AcDbEntity
  8
00_COMPONENTS_4
100
AcDbLine
 62
7
  6
BYLAYER
 10
18.496040153
 20
49.364035402
 11
19.2767495459
 21
49.8168343649
  0
LINE
  5
22A
100
AcDbEntity
  8
00_COMPONENTS_6
100
AcDbLine
 62
7
  6
BYLAYER
 10
20.5908338069
 20
11.1860776707
 11
20.5960455728
 21
11.1869714431
  0
LINE
  5
22B
100
AcDbEntity
  8
00_COMPONENTS_6
100
AcDbLine
 62
7
  6
BYLAYER
 10
20.5908338069
 20
11.1860776707
 11
20.5960604821
 21
11.1868730228
  0
LINE
  5
22C
100
AcDbEntity
  8
00_COMPONENTS_3
100
AcDbLine
 62
7
  6
BYLAYER
 10
10.8960455728
 20
10.8115986429
 11
11.7960455728
 21
10.8115986429
  0
LINE
  5
22D
100
AcDbEntity
  8
00_COMPONENTS_3
100
AcDbLine
 62
7
  6
BYLAYER
 10
14.2960455728
 20
10.8115986429
 11
15.1960455728
 21
10.8115986429
  0
LINE
  5
22E
100
AcDbEntity
  8
00_COMPONENTS_3
100
AcDbLine
 62
7
  6
BYLAYER
 10
24.0960455728
 20
10.8115986429
 11
24.9960455728
 21
10.8115986429
  0
LINE
  5
22F
100
AcDbEntity
  8
00_COMPONENTS_3
100
AcDbLine
 62
7
  6
BYLAYER
 10
27.4960455728
 20
10.8115986429
 11
28.3960455728
 21
10.8115986429
  0
LINE
  5
230
100
AcDbEntity
  8
00_COMPONENTS_3
100
AcDbLine
 62
7
  6
BYLAYER
 10
12.629742856
 20
11.1115986429
 11
13.2220505483
 21
11.1115986429
  0
LINE
  5
231
100
AcDbEntity
  8
00_COMPONENTS_3
100
AcDbLine
 62
7
  6
BYLAYER
 10
16.8815432001
 20
11.1115986429
 11
17.9605120867
 21
11.1115986429
  0
LINE
  5
232
100
AcDbEntity
  8
00_COMPONENTS_3
100
AcDbLine
 62
7
  6
BYLAYER
 10
21.3662813175
 20
11.1115986429
 11
22.4239736252
 21
11.1115986429
  0
LINE
  5
233
100
AcDbEntity
  8
00_COMPONENTS_3
100
AcDbLine
 62
7
  6
BYLAYER
 10
25.7239736252
 20
11.1115986429
 11
26.8662813175
 21
11.1115986429
  0
LINE
  5
234
100
AcDbEntity
  8
00_COMPONENTS_6
100
AcDbLine
 62
7
  6
BYLAYER
 10
18.7012629944
 20
11.1860774304
 11
19.3363178676
 21
11.1860774302
  0
LINE
  5
235
100
AcDbEntity
  8
00_COMPONENTS_6
100
AcDbLine
 62
7
  6
BYLAYER
 10
19.955773083
 20
11.1860776707
 11
20.59083044
 21
11.1860776707
  0
LINE
  5
236
100
AcDbEntity
  8
00_COMPONENTS_1
100
AcDbLine
 62
7
  6
BYLAYER
 10
12.5960455728
 20
11.2115986429
 11
12.629742856
 21
11.2115986429
  0
LINE
  5
237
100
AcDbEntity
  8
00_COMPONENTS_1
100
AcDbLine
 62
7
  6
BYLAYER
 10
13.2220505483
 20
11.2115986429
 11
13.4960455728
 21
11.2115986429
  0
LINE
  5
238
100
AcDbEntity
  8
00_COMPONENTS_6
100
AcDbLine
 62
7
  6
BYLAYER
 10
20.1325484229
 20
11.2222759733
 11
19.955763836
 21
11.2222759733
  0
LINE
  5
239
100
AcDbEntity
  8
00_COMPONENTS_3
100
AcDbLine
 62
7
  6
BYLAYER
 10
9.1460455728
 20
11.3115986429
 11
30.1460455728
 21
11.3115986429
  0
LINE
  5
23A
100
AcDbEntity
  8
00_COMPONENTS_3
100
AcDbLine
 62
7
  6
BYLAYER
 10
30.1460455728
 20
12.3115986429
 11
30.0960455728
 21
12.3115986429
  0
LINE
  5
23B
100
AcDbEntity
  8
00_COMPONENTS_3
100
AcDbLine
 62
7
  6
BYLAYER
 10
9.1960455728
 20
12.3115986429
 11
9.1460455728
 21
12.3115986429
  0
LINE
  5
23C
100
AcDbEntity
  8
00_COMPONENTS
100
AcDbLine
 62
7
  6
BYLAYER
 10
9.1960455728
 20
12.3115986429
 11
30.0960455728
 21
12.3115986429
  0
LINE
  5
23D
100
AcDbEntity
  8
00_COMPONENTS_6
100
AcDbLine
 62
7
  6
BYLAYER
 10
18.7012615835
 20
11.1860772392
 11
18.6960303325
 21
11.1868732919
  0
LINE
  5
23E
100
AcDbEntity
  8
00_COMPONENTS_6
100
AcDbLine
 62
7
  6
BYLAYER
 10
18.7012615835
 20
11.1860772392
 11
18.6960455728
 21
11.1869738954
  0
LINE
  5
23F
100
AcDbEntity
  8
00_COMPONENTS_3
100
AcDbLine
 62
7
  6
BYLAYER
 10
9.1460455728
 20
11.3115986429
 11
9.1460455728
 21
12.3115986429
  0
LINE
  5
240
100
AcDbEntity
  8
00_COMPONENTS_4
100
AcDbLine
 62
7
  6
BYLAYER
 10
9.5932199465
 20
50.1115986429
 11
9.5932199465
 21
49.9705983257
  0
LINE
  5
241
100
AcDbEntity
  8
00_COMPONENTS
100
AcDbLine
 62
7
  6
BYLAYER
 10
9.1960455728
 20
12.3115986429
 11
9.2567830924
 21
47.1115986429
  0
LINE
  5
242
100
AcDbEntity
  8
00_COMPONENTS_4
100
AcDbLine
 62
7
  6
BYLAYER
 10
9.293265638
 20
49.8168343649
 11
9.2460455728
 21
47.1115986429
  0
LINE
  5
243
100
AcDbEntity
  8
00_COMPONENTS_4
100
AcDbLine
 62
7
  6
BYLAYER
 10
9.8459541899
 20
47.1115986429
 11
9.8652461512
 21
48.2168338109
  0
LINE
  5
244
100
AcDbEntity
  8
00_COMPONENTS_4
100
AcDbLine
 62
7
  6
BYLAYER
 10
9.5665231385
 20
48.5116407181
 11
9.5932199465
 21
49.9705983249
  0
LINE
  5
245
100
AcDbEntity
  8
00_COMPONENTS_4
100
AcDbLine
 62
7
  6
BYLAYER
 10
9.8652461512
 20
48.5115986429
 11
9.8652461512
 21
48.2168340879
  0
LINE
  5
246
100
AcDbEntity
  8
00_COMPONENTS
100
AcDbLine
 62
7
  6
BYLAYER
 10
9.8960455728
 20
47.1115986429
 11
9.8960455728
 21
12.3115986429
  0
LINE
  5
247
100
AcDbEntity
  8
00_COMPONENTS
100
AcDbLine
 62
7
  6
BYLAYER
 10
10.1460455728
 20
46.0115643735
 11
10.1460455728
 21
41.5115643735
  0
LINE
  5
248
100
AcDbEntity
  8
00_COMPONENTS
100
AcDbLine
 62
7
  6
BYLAYER
 10
10.1460455728
 20
23.5115986429
 11
10.1460455728
 21
19.011598643
  0
LINE
  5
249
100
AcDbEntity
  8
00_COMPONENTS_3
100
AcDbLine
 62
7
  6
BYLAYER
 10
10.1460455728
 20
12.3115986429
 11
10.1460455728
 21
11.3115986429
  0
LINE
  5
24A
100
AcDbEntity
  8
00_COMPONENTS_3
100
AcDbLine
 62
7
  6
BYLAYER
 10
10.2460455728
 20
11.3115986429
 11
10.2460455728
 21
11.0115986429
  0
LINE
  5
24B
100
AcDbEntity
  8
00_COMPONENTS_3
100
AcDbLine
 62
7
  6
BYLAYER
 10
10.6460455728
 20
11.0115986429
 11
10.6460455728
 21
11.3115986429
  0
LINE
  5
24C
100
AcDbEntity
  8
00_COMPONENTS_3
100
AcDbLine
 62
7
  6
BYLAYER
 10
10.8960455728
 20
10.8115986429
 11
10.8960455728
 21
11.3115986429
  0
LINE
  5
24D
100
AcDbEntity
  8
00_COMPONENTS
100
AcDbLine
 62
7
  6
BYLAYER
 10
11.0460455728
 20
41.3115733251
 11
11.0460455728
 21
41.0615736989
  0
LINE
  5
24E
100
AcDbEntity
  8
00_COMPONENTS
100
AcDbLine
 62
7
  6
BYLAYER
 10
11.0460455728
 20
40.8115740866
 11
11.0460455728
 21
40.5615744605
  0
LINE
  5
24F
100
AcDbEntity
  8
00_COMPONENTS
100
AcDbLine
 62
7
  6
BYLAYER
 10
11.0460455728
 20
40.3115748482
 11
11.0460455728
 21
40.061575222
  0
LINE
  5
250
100
AcDbEntity
  8
00_COMPONENTS
100
AcDbLine
 62
7
  6
BYLAYER
 10
11.0460455728
 20
39.8115756097
 11
11.0460455728
 21
39.5615759836
  0
LINE
  5
251
100
AcDbEntity
  8
00_COMPONENTS
100
AcDbLine
 62
7
  6
BYLAYER
 10
11.0460455728
 20
39.3115763712
 11
11.0460455728
 21
39.0615767451
  0
LINE
  5
252
100
AcDbEntity
  8
00_COMPONENTS
100
AcDbLine
 62
7
  6
BYLAYER
 10
11.0460455728
 20
38.8115771328
 11
11.0460455728
 21
38.5615775067
  0
LINE
  5
253
100
AcDbEntity
  8
00_COMPONENTS
100
AcDbLine
 62
7
  6
BYLAYER
 10
11.0460455728
 20
38.3115778943
 11
11.0460455728
 21
38.0615782682
  0
LINE
  5
254
100
AcDbEntity
  8
00_COMPONENTS
100
AcDbLine
 62
7
  6
BYLAYER
 10
11.0460455728
 20
37.8115786559
 11
11.0460455728
 21
37.5615790297
  0
LINE
  5
255
100
AcDbEntity
  8
00_COMPONENTS
100
AcDbLine
 62
7
  6
BYLAYER
 10
11.0460455728
 20
37.3115794174
 11
11.0460455728
 21
37.0615797913
  0
LINE
  5
256
100
AcDbEntity
  8
00_COMPONENTS
100
AcDbLine
 62
7
  6
BYLAYER
 10
11.0460455728
 20
36.811580179
 11
11.0460455728
 21
36.5615805528
  0
LINE
  5
257
100
AcDbEntity
  8
00_COMPONENTS
100
AcDbLine
 62
7
  6
BYLAYER
 10
11.0460455728
 20
36.3115809405
 11
11.0460455728
 21
36.0615813144
  0
LINE
  5
258
100
AcDbEntity
  8
00_COMPONENTS
100
AcDbLine
 62
7
  6
BYLAYER
 10
11.0460455728
 20
35.811581702
 11
11.0460455728
 21
35.5615820759
  0
LINE
  5
259
100
AcDbEntity
  8
00_COMPONENTS
100
AcDbLine
 62
7
  6
BYLAYER
 10
11.0460455728
 20
35.3115824636
 11
11.0460455728
 21
35.0615828375
  0
LINE
  5
25A
100
AcDbEntity
  8
00_COMPONENTS
100
AcDbLine
 62
7
  6
BYLAYER
 10
11.0460455728
 20
34.8115832251
 11
11.0460455728
 21
34.561583599
  0
LINE
  5
25B
100
AcDbEntity
  8
00_COMPONENTS
100
AcDbLine
 62
7
  6
BYLAYER
 10
11.0460455728
 20
34.3115839867
 11
11.0460455728
 21
34.0615843605
  0
LINE
  5
25C
100
AcDbEntity
  8
00_COMPONENTS
100
AcDbLine
 62
7
  6
BYLAYER
 10
11.0460455728
 20
33.8115847482
 11
11.0460455728
 21
33.5615851221
  0
LINE
  5
25D
100
AcDbEntity
  8
00_COMPONENTS
100
AcDbLine
 62
7
  6
BYLAYER
 10
11.0460455728
 20
33.3115855098
 11
11.0460455728
 21
33.0615858836
  0
LINE
  5
25E
100
AcDbEntity
  8
00_COMPONENTS
100
AcDbLine
 62
7
  6
BYLAYER
 10
11.0460455728
 20
32.8115862713
 11
11.0460455728
 21
32.5615866452
  0
LINE
  5
25F
100
AcDbEntity
  8
00_COMPONENTS
100
AcDbLine
 62
7
  6
BYLAYER
 10
11.0460455728
 20
32.3115870328
 11
11.0460455728
 21
32.0615874067
  0
LINE
  5
260
100
AcDbEntity
  8
00_COMPONENTS
100
AcDbLine
 62
7
  6
BYLAYER
 10
11.0460455728
 20
31.8115877944
 11
11.0460455728
 21
31.5615881683
  0
LINE
  5
261
100
AcDbEntity
  8
00_COMPONENTS
100
AcDbLine
 62
7
  6
BYLAYER
 10
11.0460455728
 20
31.3115885559
 11
11.0460455728
 21
31.0615889298
  0
LINE
  5
262
100
AcDbEntity
  8
00_COMPONENTS
100
AcDbLine
 62
7
  6
BYLAYER
 10
11.0460455728
 20
30.8115893175
 11
11.0460455728
 21
30.5615896913
  0
LINE
  5
263
100
AcDbEntity
  8
00_COMPONENTS
100
AcDbLine
 62
7
  6
BYLAYER
 10
11.0460455728
 20
30.311590079
 11
11.0460455728
 21
30.0615904529
  0
LINE
  5
264
100
AcDbEntity
  8
00_COMPONENTS
100
AcDbLine
 62
7
  6
BYLAYER
 10
11.0460455728
 20
29.8115908406
 11
11.0460455728
 21
29.5615912144
  0
LINE
  5
265
100
AcDbEntity
  8
00_COMPONENTS
100
AcDbLine
 62
7
  6
BYLAYER
 10
11.0460455728
 20
29.3115916021
 11
11.0460455728
 21
29.061591976
  0
LINE
  5
266
100
AcDbEntity
  8
00_COMPONENTS
100
AcDbLine
 62
7
  6
BYLAYER
 10
11.0460455728
 20
28.8115923636
 11
11.0460455728
 21
28.5615927375
  0
LINE
  5
267
100
AcDbEntity
  8
00_COMPONENTS
100
AcDbLine
 62
7
  6
BYLAYER
 10
11.0460455728
 20
28.3115931252
 11
11.0460455728
 21
28.0615934991
  0
LINE
  5
268
100
AcDbEntity
  8
00_COMPONENTS
100
AcDbLine
 62
7
  6
BYLAYER
 10
11.0460455728
 20
27.8115938867
 11
11.0460455728
 21
27.5615942606
  0
LINE
  5
269
100
AcDbEntity
  8
00_COMPONENTS
100
AcDbLine
 62
7
  6
BYLAYER
 10
11.0460455728
 20
27.3115946483
 11
11.0460455728
 21
27.0615950221
  0
LINE
  5
26A
100
AcDbEntity
  8
00_COMPONENTS
100
AcDbLine
 62
7
  6
BYLAYER
 10
11.0460455728
 20
26.8115954098
 11
11.0460455728
 21
26.5615957837
  0
LINE
  5
26B
100
AcDbEntity
  8
00_COMPONENTS
100
AcDbLine
 62
7
  6
BYLAYER
 10
11.0460455728
 20
26.3115961714
 11
11.0460455728
 21
26.0615965452
  0
LINE
  5
26C
100
AcDbEntity
  8
00_COMPONENTS
100
AcDbLine
 62
7
  6
BYLAYER
 10
11.0460455728
 20
25.8115969329
 11
11.0460455728
 21
25.5615973068
  0
LINE
  5
26D
100
AcDbEntity
  8
00_COMPONENTS
100
AcDbLine
 62
7
  6
BYLAYER
 10
11.0460455728
 20
25.3115976945
 11
11.0460455728
 21
25.0615980683
  0
LINE
  5
26E
100
AcDbEntity
  8
00_COMPONENTS
100
AcDbLine
 62
7
  6
BYLAYER
 10
11.0460455728
 20
24.811598456
 11
11.0460455728
 21
24.5615988299
  0
LINE
  5
26F
100
AcDbEntity
  8
00_COMPONENTS
100
AcDbLine
 62
7
  6
BYLAYER
 10
29.1460455728
 20
19.0115986429
 11
10.1460455728
 21
19.0115986429
  0
LINE
  5
270
100
AcDbEntity
  8
00_COMPONENTS_1
100
AcDbLine
 62
7
  6
BYLAYER
 10
11.7960455728
 20
11.3115986429
 11
11.7960455728
 21
5.7615986429
  0
LINE
  5
271
100
AcDbEntity
  8
00_COMPONENTS_1
100
AcDbLine
 62
7
  6
BYLAYER
 10
12.5460455728
 20
7.0115986429
 11
12.5460455728
 21
6.0115986429
  0
LINE
  5
272
100
AcDbEntity
  8
00_COMPONENTS_1
100
AcDbLine
 62
7
  6
BYLAYER
 10
12.5960455728
 20
11.3115986429
 11
12.5960455728
 21
11.2115986429
  0
LINE
  5
273
100
AcDbEntity
  8
00_COMPONENTS_3
100
AcDbLine
 62
7
  6
BYLAYER
 10
12.629742856
 20
11.1115986429
 11
12.629742856
 21
11.3115986429
  0
LINE
  5
274
100
AcDbEntity
  8
00_COMPONENTS_3
100
AcDbLine
 62
7
  6
BYLAYER
 10
13.0858726636
 20
11.3115986429
 11
13.0858726636
 21
11.1115986429
  0
LINE
  5
275
100
AcDbEntity
  8
00_COMPONENTS_3
100
AcDbLine
 62
7
  6
BYLAYER
 10
13.2220505483
 20
11.1115986429
 11
13.2220505483
 21
11.3115986429
  0
LINE
  5
276
100
AcDbEntity
  8
00_COMPONENTS_1
100
AcDbLine
 62
7
  6
BYLAYER
 10
13.4960455728
 20
11.2115986429
 11
13.4960455728
 21
11.3115986429
  0
LINE
  5
277
100
AcDbEntity
  8
00_COMPONENTS_1
100
AcDbLine
 62
7
  6
BYLAYER
 10
13.5460455728
 20
6.0115986429
 11
13.5460455728
 21
7.0115986429
  0
LINE
  5
278
100
AcDbEntity
  8
00_COMPONENTS_1
100
AcDbLine
 62
7
  6
BYLAYER
 10
14.2960455728
 20
5.7615986429
 11
14.2960455728
 21
11.3115986429
  0
LINE
  5
279
100
AcDbEntity
  8
00_COMPONENTS_3
100
AcDbLine
 62
7
  6
BYLAYER
 10
15.0460455728
 20
11.3115986429
 11
15.0460455728
 21
11.0115986429
  0
LINE
  5
27A
100
AcDbEntity
  8
00_COMPONENTS_3
100
AcDbLine
 62
7
  6
BYLAYER
 10
15.4460455728
 20
11.0115986429
 11
15.4460455728
 21
11.3115986429
  0
LINE
  5
27B
100
AcDbEntity
  8
00_COMPONENTS_1
100
AcDbLine
 62
7
  6
BYLAYER
 10
16.1960455728
 20
11.3115986429
 11
16.1960455728
 21
5.7615986429
  0
LINE
  5
27C
100
AcDbEntity
  8
00_COMPONENTS
100
AcDbLine
 62
7
  6
BYLAYER
 10
10.1460455728
 20
23.5115986429
 11
29.1460455728
 21
23.5115986429
  0
LINE
  5
27D
100
AcDbEntity
  8
00_COMPONENTS_3
100
AcDbLine
 62
7
  6
BYLAYER
 10
16.8816582351
 20
11.3115986429
 11
16.8816582351
 21
11.1115986429
  0
LINE
  5
27E
100
AcDbEntity
  8
00_COMPONENTS_3
100
AcDbLine
 62
7
  6
BYLAYER
 10
16.902819779
 20
11.1115986429
 11
16.902819779
 21
11.3115986429
  0
LINE
  5
27F
100
AcDbEntity
  8
00_COMPONENTS_1
100
AcDbLine
 62
7
  6
BYLAYER
 10
16.9460455728
 20
7.0115986429
 11
16.9460455728
 21
6.0115986429
  0
LINE
  5
280
100
AcDbEntity
  8
00_COMPONENTS_3
100
AcDbLine
 62
7
  6
BYLAYER
 10
17.4316659329
 20
11.1115986429
 11
17.4316659329
 21
11.3115986429
  0
LINE
  5
281
100
AcDbEntity
  8
00_COMPONENTS_4
100
AcDbLine
 62
7
  6
BYLAYER
 10
17.8960455728
 20
48.5115986429
 11
17.8960455728
 21
49.1997906565
  0
LINE
  5
282
100
AcDbEntity
  8
00_COMPONENTS_3
100
AcDbLine
 62
7
  6
BYLAYER
 10
17.9393582406
 20
11.1115986429
 11
17.9393582406
 21
11.3115986429
  0
LINE
  5
283
100
AcDbEntity
  8
00_COMPONENTS_1
100
AcDbLine
 62
7
  6
BYLAYER
 10
17.9460455728
 20
6.0115986429
 11
17.9460455728
 21
7.0115986429
  0
LINE
  5
284
100
AcDbEntity
  8
00_COMPONENTS_3
100
AcDbLine
 62
7
  6
BYLAYER
 10
17.9605120867
 20
11.1115986429
 11
17.9605120867
 21
11.3115986429
  0
LINE
  5
285
100
AcDbEntity
  8
00_COMPONENTS_4
100
AcDbLine
 62
7
  6
BYLAYER
 10
18.1960455728
 20
49.3587903385
 11
18.1960455728
 21
48.5115986429
  0
LINE
  5
286
100
AcDbEntity
  8
00_COMPONENTS
100
AcDbLine
 62
7
  6
BYLAYER
 10
28.2460455728
 20
24.5615988299
 11
11.0460455728
 21
24.5615988299
  0
LINE
  5
287
100
AcDbEntity
  8
00_COMPONENTS
100
AcDbLine
 62
7
  6
BYLAYER
 10
11.0460455728
 20
24.811598456
 11
28.2460455728
 21
24.811598456
  0
LINE
  5
288
100
AcDbEntity
  8
00_COMPONENTS
100
AcDbLine
 62
7
  6
BYLAYER
 10
28.2460455728
 20
25.0615980683
 11
11.0460455728
 21
25.0615980683
  0
LINE
  5
289
100
AcDbEntity
  8
00_COMPONENTS
100
AcDbLine
 62
7
  6
BYLAYER
 10
11.0460455728
 20
25.3115976945
 11
28.2460455728
 21
25.3115976945
  0
LINE
  5
28A
100
AcDbEntity
  8
00_COMPONENTS
100
AcDbLine
 62
7
  6
BYLAYER
 10
28.2460455728
 20
25.5615973068
 11
11.0460455728
 21
25.5615973068
  0
LINE
  5
28B
100
AcDbEntity
  8
00_COMPONENTS
100
AcDbLine
 62
7
  6
BYLAYER
 10
11.0460455728
 20
25.8115969329
 11
28.2460455728
 21
25.8115969329
  0
LINE
  5
28C
100
AcDbEntity
  8
00_COMPONENTS_4
100
AcDbLine
 62
7
  6
BYLAYER
 10
18.496040153
 20
49.364035402
 11
18.4960455728
 21
48.2168343649
  0
LINE
  5
28D
100
AcDbEntity
  8
00_COMPONENTS_4
100
AcDbLine
 62
7
  6
BYLAYER
 10
18.6291336066
 20
49.9705983257
 11
18.6291336066
 21
50.1115986429
  0
LINE
  5
28E
100
AcDbEntity
  8
00_COMPONENTS_1
100
AcDbLine
 62
7
  6
BYLAYER
 10
18.6960455728
 20
5.7615986429
 11
18.6960455728
 21
11.3115986429
  0
LINE
  5
28F
100
AcDbEntity
  8
00_COMPONENTS_4
100
AcDbLine
 62
7
  6
BYLAYER
 10
19.2767495459
 20
50.1115986429
 11
19.2767495459
 21
49.8168340879
  0
LINE
  5
290
100
AcDbEntity
  8
00_COMPONENTS_3
100
AcDbLine
 62
7
  6
BYLAYER
 10
19.4460455728
 20
11.3115986429
 11
19.4460455728
 21
11.0115986429
  0
LINE
  5
291
100
AcDbEntity
  8
00_COMPONENTS_3
100
AcDbLine
 62
7
  6
BYLAYER
 10
19.8460455728
 20
11.0115986429
 11
19.8460455728
 21
11.3115986429
  0
LINE
  5
292
100
AcDbEntity
  8
00_COMPONENTS_6
100
AcDbLine
 62
7
  6
BYLAYER
 10
18.7012615835
 20
11.1860772392
 11
18.7012648305
 21
11.1994211241
  0
LINE
  5
293
100
AcDbEntity
  8
00_COMPONENTS
100
AcDbLine
 62
7
  6
BYLAYER
 10
28.2460455728
 20
26.0615965452
 11
11.0460455728
 21
26.0615965452
  0
LINE
  5
294
100
AcDbEntity
  8
00_COMPONENTS
100
AcDbLine
 62
7
  6
BYLAYER
 10
11.0460455728
 20
26.3115961714
 11
28.2460455728
 21
26.3115961714
  0
LINE
  5
295
100
AcDbEntity
  8
00_COMPONENTS
100
AcDbLine
 62
7
  6
BYLAYER
 10
28.2460455728
 20
26.5615957837
 11
11.0460455728
 21
26.5615957837
  0
LINE
  5
296
100
AcDbEntity
  8
00_COMPONENTS
100
AcDbLine
 62
7
  6
BYLAYER
 10
11.0460455728
 20
26.8115954098
 11
28.2460455728
 21
26.8115954098
  0
LINE
  5
297
100
AcDbEntity
  8
00_COMPONENTS
100
AcDbLine
 62
7
  6
BYLAYER
 10
28.2460455728
 20
27.0615950222
 11
11.0460455728
 21
27.0615950222
  0
LINE
  5
298
100
AcDbEntity
  8
00_COMPONENTS
100
AcDbLine
 62
7
  6
BYLAYER
 10
11.0460455728
 20
27.3115946483
 11
28.2460455728
 21
27.3115946483
  0
LINE
  5
299
100
AcDbEntity
  8
00_COMPONENTS_6
100
AcDbLine
 62
7
  6
BYLAYER
 10
19.917568077
 20
11.3115986429
 11
19.917568077
 21
11.2717416827
  0
LINE
  5
29A
100
AcDbEntity
  8
00_COMPONENTS_6
100
AcDbLine
 62
7
  6
BYLAYER
 10
19.9557628126
 20
11.1860776707
 11
19.955763836
 21
11.2222759733
  0
LINE
  5
29B
100
AcDbEntity
  8
00_COMPONENTS_6
100
AcDbLine
 62
7
  6
BYLAYER
 10
20.0053100385
 20
11.3115986429
 11
20.0053096268
 21
11.2222759733
  0
LINE
  5
29C
100
AcDbEntity
  8
00_COMPONENTS_6
100
AcDbLine
 62
7
  6
BYLAYER
 10
20.0830126869
 20
11.3115986429
 11
20.0830169068
 21
11.2222759733
  0
LINE
  5
29D
100
AcDbEntity
  8
00_COMPONENTS_6
100
AcDbLine
 62
7
  6
BYLAYER
 10
20.1325484229
 20
11.2222759733
 11
20.1325473992
 21
11.1860776707
  0
LINE
  5
29E
100
AcDbEntity
  8
00_COMPONENTS_1
100
AcDbLine
 62
7
  6
BYLAYER
 10
20.5960455728
 20
11.3115986429
 11
20.5960455728
 21
5.7615986429
  0
LINE
  5
29F
100
AcDbEntity
  8
00_COMPONENTS_1
100
AcDbLine
 62
7
  6
BYLAYER
 10
21.3460455728
 20
7.0115986429
 11
21.3460455728
 21
6.0115986429
  0
LINE
  5
2A0
100
AcDbEntity
  8
00_COMPONENTS_3
100
AcDbLine
 62
7
  6
BYLAYER
 10
21.3662813175
 20
11.3115986429
 11
21.3662813175
 21
11.1115986429
  0
LINE
  5
2A1
100
AcDbEntity
  8
00_COMPONENTS_3
100
AcDbLine
 62
7
  6
BYLAYER
 10
21.3874351636
 20
11.1115986429
 11
21.3874351636
 21
11.3115986429
  0
LINE
  5
2A2
100
AcDbEntity
  8
00_COMPONENTS
100
AcDbLine
 62
7
  6
BYLAYER
 10
28.2460455728
 20
27.5615942606
 11
11.0460455728
 21
27.5615942606
  0
LINE
  5
2A3
100
AcDbEntity
  8
00_COMPONENTS
100
AcDbLine
 62
7
  6
BYLAYER
 10
11.0460455728
 20
27.8115938867
 11
28.2460455728
 21
27.8115938867
  0
LINE
  5
2A4
100
AcDbEntity
  8
00_COMPONENTS
100
AcDbLine
 62
7
  6
BYLAYER
 10
28.2460455728
 20
28.0615934991
 11
11.0460455728
 21
28.0615934991
  0
LINE
  5
2A5
100
AcDbEntity
  8
00_COMPONENTS
100
AcDbLine
 62
7
  6
BYLAYER
 10
11.0460455728
 20
28.3115931252
 11
28.2460455728
 21
28.3115931252
  0
LINE
  5
2A6
100
AcDbEntity
  8
00_COMPONENTS
100
AcDbLine
 62
7
  6
BYLAYER
 10
28.2460455728
 20
28.5615927375
 11
11.0460455728
 21
28.5615927375
  0
LINE
  5
2A7
100
AcDbEntity
  8
00_COMPONENTS
100
AcDbLine
 62
7
  6
BYLAYER
 10
11.0460455728
 20
28.8115923637
 11
28.2460455728
 21
28.8115923637
  0
LINE
  5
2A8
100
AcDbEntity
  8
00_COMPONENTS
100
AcDbLine
 62
7
  6
BYLAYER
 10
28.2460455728
 20
29.061591976
 11
11.0460455728
 21
29.061591976
  0
LINE
  5
2A9
100
AcDbEntity
  8
00_COMPONENTS_3
100
AcDbLine
 62
7
  6
BYLAYER
 10
21.870007279
 20
11.1115986429
 11
21.870007279
 21
11.3115986429
  0
LINE
  5
2AA
100
AcDbEntity
  8
00_COMPONENTS_3
100
AcDbLine
 62
7
  6
BYLAYER
 10
22.3393582406
 20
11.1115986429
 11
22.3393582406
 21
11.3115986429
  0
LINE
  5
2AB
100
AcDbEntity
  8
00_COMPONENTS_1
100
AcDbLine
 62
7
  6
BYLAYER
 10
22.3460455728
 20
6.0115986429
 11
22.3460455728
 21
7.0115986429
  0
LINE
  5
2AC
100
AcDbEntity
  8
00_COMPONENTS_3
100
AcDbLine
 62
7
  6
BYLAYER
 10
22.4239736252
 20
11.1115986429
 11
22.4239736252
 21
11.3115986429
  0
LINE
  5
2AD
100
AcDbEntity
  8
00_COMPONENTS_1
100
AcDbLine
 62
7
  6
BYLAYER
 10
23.0960455728
 20
5.7615986429
 11
23.0960455728
 21
11.3115986429
  0
LINE
  5
2AE
100
AcDbEntity
  8
00_COMPONENTS_6
100
AcDbLine
 62
7
  6
BYLAYER
 10
20.1709945612
 20
11.2754073455
 11
20.1700493288
 21
11.2696357237
  0
LINE
  5
2AF
100
AcDbEntity
  8
00_COMPONENTS
100
AcDbLine
 62
7
  6
BYLAYER
 10
11.0460455728
 20
29.3115916021
 11
28.2460455728
 21
29.3115916021
  0
LINE
  5
2B0
100
AcDbEntity
  8
00_COMPONENTS
100
AcDbLine
 62
7
  6
BYLAYER
 10
28.2460455728
 20
29.5615912144
 11
11.0460455728
 21
29.5615912144
  0
LINE
  5
2B1
100
AcDbEntity
  8
00_COMPONENTS
100
AcDbLine
 62
7
  6
BYLAYER
 10
11.0460455728
 20
29.8115908406
 11
28.2460455728
 21
29.8115908406
  0
LINE
  5
2B2
100
AcDbEntity
  8
00_COMPONENTS
100
AcDbLine
 62
7
  6
BYLAYER
 10
28.2460455728
 20
30.0615904529
 11
11.0460455728
 21
30.0615904529
  0
LINE
  5
2B3
100
AcDbEntity
  8
00_COMPONENTS
100
AcDbLine
 62
7
  6
BYLAYER
 10
11.0460455728
 20
30.311590079
 11
28.2460455728
 21
30.311590079
  0
LINE
  5
2B4
100
AcDbEntity
  8
00_COMPONENTS
100
AcDbLine
 62
7
  6
BYLAYER
 10
28.2460455728
 20
30.5615896913
 11
11.0460455728
 21
30.5615896913
  0
LINE
  5
2B5
100
AcDbEntity
  8
00_COMPONENTS
100
AcDbLine
 62
7
  6
BYLAYER
 10
11.0460455728
 20
30.8115893175
 11
28.2460455728
 21
30.8115893175
  0
LINE
  5
2B6
100
AcDbEntity
  8
00_COMPONENTS_3
100
AcDbLine
 62
7
  6
BYLAYER
 10
23.8460455728
 20
11.3115986429
 11
23.8460455728
 21
11.0115986429
  0
LINE
  5
2B7
100
AcDbEntity
  8
00_COMPONENTS_3
100
AcDbLine
 62
7
  6
BYLAYER
 10
24.2460455728
 20
11.0115986429
 11
24.2460455728
 21
11.3115986429
  0
LINE
  5
2B8
100
AcDbEntity
  8
00_COMPONENTS
100
AcDbLine
 62
7
  6
BYLAYER
 10
28.2460455728
 20
31.0615889298
 11
11.0460455728
 21
31.0615889298
  0
LINE
  5
2B9
100
AcDbEntity
  8
00_COMPONENTS
100
AcDbLine
 62
7
  6
BYLAYER
 10
11.0460455728
 20
31.3115885559
 11
28.2460455728
 21
31.3115885559
  0
LINE
  5
2BA
100
AcDbEntity
  8
00_COMPONENTS
100
AcDbLine
 62
7
  6
BYLAYER
 10
28.2460455728
 20
31.5615881683
 11
11.0460455728
 21
31.5615881683
  0
LINE
  5
2BB
100
AcDbEntity
  8
00_COMPONENTS
100
AcDbLine
 62
7
  6
BYLAYER
 10
11.0460455728
 20
31.8115877944
 11
28.2460455728
 21
31.8115877944
  0
LINE
  5
2BC
100
AcDbEntity
  8
00_COMPONENTS
100
AcDbLine
 62
7
  6
BYLAYER
 10
28.2460455728
 20
32.0615874067
 11
11.0460455728
 21
32.0615874067
  0
LINE
  5
2BD
100
AcDbEntity
  8
00_COMPONENTS
100
AcDbLine
 62
7
  6
BYLAYER
 10
11.0460455728
 20
32.3115870329
 11
28.2460455728
 21
32.3115870329
  0
LINE
  5
2BE
100
AcDbEntity
  8
00_COMPONENTS_1
100
AcDbLine
 62
7
  6
BYLAYER
 10
24.9960455728
 20
11.3115986429
 11
24.9960455728
 21
5.7615986429
  0
LINE
  5
2BF
100
AcDbEntity
  8
00_COMPONENTS_3
100
AcDbLine
 62
7
  6
BYLAYER
 10
25.7239736252
 20
11.1115986429
 11
25.7239736252
 21
11.3115986429
  0
LINE
  5
2C0
100
AcDbEntity
  8
00_COMPONENTS_1
100
AcDbLine
 62
7
  6
BYLAYER
 10
25.7460455728
 20
7.0115986429
 11
25.7460455728
 21
6.0115986429
  0
LINE
  5
2C1
100
AcDbEntity
  8
00_COMPONENTS_3
100
AcDbLine
 62
7
  6
BYLAYER
 10
26.5066659329
 20
11.1115986429
 11
26.5066659329
 21
11.3115986429
  0
LINE
  5
2C2
100
AcDbEntity
  8
00_COMPONENTS
100
AcDbLine
 62
7
  6
BYLAYER
 10
28.2460455728
 20
32.5615866452
 11
11.0460455728
 21
32.5615866452
  0
LINE
  5
2C3
100
AcDbEntity
  8
00_COMPONENTS
100
AcDbLine
 62
7
  6
BYLAYER
 10
11.0460455728
 20
32.8115862713
 11
28.2460455728
 21
32.8115862713
  0
LINE
  5
2C4
100
AcDbEntity
  8
00_COMPONENTS
100
AcDbLine
 62
7
  6
BYLAYER
 10
28.2460455728
 20
33.0615858836
 11
11.0460455728
 21
33.0615858836
  0
LINE
  5
2C5
100
AcDbEntity
  8
00_COMPONENTS
100
AcDbLine
 62
7
  6
BYLAYER
 10
11.0460455728
 20
33.3115855098
 11
28.2460455728
 21
33.3115855098
  0
LINE
  5
2C6
100
AcDbEntity
  8
00_COMPONENTS
100
AcDbLine
 62
7
  6
BYLAYER
 10
28.2460455728
 20
33.5615851221
 11
11.0460455728
 21
33.5615851221
  0
LINE
  5
2C7
100
AcDbEntity
  8
00_COMPONENTS
100
AcDbLine
 62
7
  6
BYLAYER
 10
11.0460455728
 20
33.8115847482
 11
28.2460455728
 21
33.8115847482
  0
LINE
  5
2C8
100
AcDbEntity
  8
00_COMPONENTS
100
AcDbLine
 62
7
  6
BYLAYER
 10
28.2460455728
 20
34.0615843605
 11
11.0460455728
 21
34.0615843605
  0
LINE
  5
2C9
100
AcDbEntity
  8
00_COMPONENTS_3
100
AcDbLine
 62
7
  6
BYLAYER
 10
26.654742856
 20
11.1115986429
 11
26.654742856
 21
11.3115986429
  0
LINE
  5
2CA
100
AcDbEntity
  8
00_COMPONENTS_1
100
AcDbLine
 62
7
  6
BYLAYER
 10
26.7460455728
 20
6.0115986429
 11
26.7460455728
 21
7.0115986429
  0
LINE
  5
2CB
100
AcDbEntity
  8
00_COMPONENTS_3
100
AcDbLine
 62
7
  6
BYLAYER
 10
26.8662813175
 20
11.1115986429
 11
26.8662813175
 21
11.3115986429
  0
LINE
  5
2CC
100
AcDbEntity
  8
00_COMPONENTS_1
100
AcDbLine
 62
7
  6
BYLAYER
 10
27.4960455728
 20
5.7615986429
 11
27.4960455728
 21
11.3115986429
  0
LINE
  5
2CD
100
AcDbEntity
  8
00_COMPONENTS
100
AcDbLine
 62
7
  6
BYLAYER
 10
11.0460455728
 20
34.3115839867
 11
28.2460455728
 21
34.3115839867
  0
LINE
  5
2CE
100
AcDbEntity
  8
00_COMPONENTS
100
AcDbLine
 62
7
  6
BYLAYER
 10
28.2460455728
 20
34.561583599
 11
11.0460455728
 21
34.561583599
  0
LINE
  5
2CF
100
AcDbEntity
  8
00_COMPONENTS
100
AcDbLine
 62
7
  6
BYLAYER
 10
11.0460455728
 20
34.8115832251
 11
28.2460455728
 21
34.8115832251
  0
LINE
  5
2D0
100
AcDbEntity
  8
00_COMPONENTS
100
AcDbLine
 62
7
  6
BYLAYER
 10
28.2460455728
 20
35.0615828375
 11
11.0460455728
 21
35.0615828375
  0
LINE
  5
2D1
100
AcDbEntity
  8
00_COMPONENTS
100
AcDbLine
 62
7
  6
BYLAYER
 10
11.0460455728
 20
35.3115824636
 11
28.2460455728
 21
35.3115824636
  0
LINE
  5
2D2
100
AcDbEntity
  8
00_COMPONENTS
100
AcDbLine
 62
7
  6
BYLAYER
 10
28.2460455728
 20
35.5615820759
 11
11.0460455728
 21
35.5615820759
  0
LINE
  5
2D3
100
AcDbEntity
  8
00_COMPONENTS
100
AcDbLine
 62
7
  6
BYLAYER
 10
11.0460455728
 20
35.811581702
 11
28.2460455728
 21
35.811581702
  0
LINE
  5
2D4
100
AcDbEntity
  8
00_COMPONENTS_4
100
AcDbLine
 62
7
  6
BYLAYER
 10
29.3989168905
 20
49.8168338109
 11
29.4461369557
 21
47.1115986429
  0
LINE
  5
2D5
100
AcDbEntity
  8
00_COMPONENTS
100
AcDbLine
 62
7
  6
BYLAYER
 10
28.2460455728
 20
24.5615988299
 11
28.2460455728
 21
24.811598456
  0
LINE
  5
2D6
100
AcDbEntity
  8
00_COMPONENTS
100
AcDbLine
 62
7
  6
BYLAYER
 10
28.2460455728
 20
25.0615980683
 11
28.2460455728
 21
25.3115976945
  0
LINE
  5
2D7
100
AcDbEntity
  8
00_COMPONENTS
100
AcDbLine
 62
7
  6
BYLAYER
 10
28.2460455728
 20
25.5615973068
 11
28.2460455728
 21
25.8115969329
  0
LINE
  5
2D8
100
AcDbEntity
  8
00_COMPONENTS
100
AcDbLine
 62
7
  6
BYLAYER
 10
28.2460455728
 20
26.0615965452
 11
28.2460455728
 21
26.3115961714
  0
LINE
  5
2D9
100
AcDbEntity
  8
00_COMPONENTS
100
AcDbLine
 62
7
  6
BYLAYER
 10
28.2460455728
 20
26.5615957837
 11
28.2460455728
 21
26.8115954098
  0
LINE
  5
2DA
100
AcDbEntity
  8
00_COMPONENTS
100
AcDbLine
 62
7
  6
BYLAYER
 10
28.2460455728
 20
27.0615950221
 11
28.2460455728
 21
27.3115946483
  0
LINE
  5
2DB
100
AcDbEntity
  8
00_COMPONENTS
100
AcDbLine
 62
7
  6
BYLAYER
 10
28.2460455728
 20
27.5615942606
 11
28.2460455728
 21
27.8115938867
  0
LINE
  5
2DC
100
AcDbEntity
  8
00_COMPONENTS
100
AcDbLine
 62
7
  6
BYLAYER
 10
28.2460455728
 20
28.0615934991
 11
28.2460455728
 21
28.3115931252
  0
LINE
  5
2DD
100
AcDbEntity
  8
00_COMPONENTS
100
AcDbLine
 62
7
  6
BYLAYER
 10
28.2460455728
 20
28.5615927375
 11
28.2460455728
 21
28.8115923636
  0
LINE
  5
2DE
100
AcDbEntity
  8
00_COMPONENTS
100
AcDbLine
 62
7
  6
BYLAYER
 10
28.2460455728
 20
29.061591976
 11
28.2460455728
 21
29.3115916021
  0
LINE
  5
2DF
100
AcDbEntity
  8
00_COMPONENTS
100
AcDbLine
 62
7
  6
BYLAYER
 10
28.2460455728
 20
29.5615912144
 11
28.2460455728
 21
29.8115908406
  0
LINE
  5
2E0
100
AcDbEntity
  8
00_COMPONENTS
100
AcDbLine
 62
7
  6
BYLAYER
 10
28.2460455728
 20
30.0615904529
 11
28.2460455728
 21
30.311590079
  0
LINE
  5
2E1
100
AcDbEntity
  8
00_COMPONENTS
100
AcDbLine
 62
7
  6
BYLAYER
 10
28.2460455728
 20
30.5615896913
 11
28.2460455728
 21
30.8115893175
  0
LINE
  5
2E2
100
AcDbEntity
  8
00_COMPONENTS
100
AcDbLine
 62
7
  6
BYLAYER
 10
28.2460455728
 20
31.0615889298
 11
28.2460455728
 21
31.3115885559
  0
LINE
  5
2E3
100
AcDbEntity
  8
00_COMPONENTS
100
AcDbLine
 62
7
  6
BYLAYER
 10
28.2460455728
 20
31.5615881683
 11
28.2460455728
 21
31.8115877944
  0
LINE
  5
2E4
100
AcDbEntity
  8
00_COMPONENTS
100
AcDbLine
 62
7
  6
BYLAYER
 10
28.2460455728
 20
32.0615874067
 11
28.2460455728
 21
32.3115870328
  0
LINE
  5
2E5
100
AcDbEntity
  8
00_COMPONENTS
100
AcDbLine
 62
7
  6
BYLAYER
 10
28.2460455728
 20
32.5615866452
 11
28.2460455728
 21
32.8115862713
  0
LINE
  5
2E6
100
AcDbEntity
  8
00_COMPONENTS
100
AcDbLine
 62
7
  6
BYLAYER
 10
28.2460455728
 20
33.0615858836
 11
28.2460455728
 21
33.3115855098
  0
LINE
  5
2E7
100
AcDbEntity
  8
00_COMPONENTS
100
AcDbLine
 62
7
  6
BYLAYER
 10
28.2460455728
 20
33.5615851221
 11
28.2460455728
 21
33.8115847482
  0
LINE
  5
2E8
100
AcDbEntity
  8
00_COMPONENTS
100
AcDbLine
 62
7
  6
BYLAYER
 10
28.2460455728
 20
34.0615843605
 11
28.2460455728
 21
34.3115839867
  0
LINE
  5
2E9
100
AcDbEntity
  8
00_COMPONENTS
100
AcDbLine
 62
7
  6
BYLAYER
 10
28.2460455728
 20
34.561583599
 11
28.2460455728
 21
34.8115832251
  0
LINE
  5
2EA
100
AcDbEntity
  8
00_COMPONENTS
100
AcDbLine
 62
7
  6
BYLAYER
 10
28.2460455728
 20
35.0615828375
 11
28.2460455728
 21
35.3115824636
  0
LINE
  5
2EB
100
AcDbEntity
  8
00_COMPONENTS
100
AcDbLine
 62
7
  6
BYLAYER
 10
28.2460455728
 20
35.5615820759
 11
28.2460455728
 21
35.811581702
  0
LINE
  5
2EC
100
AcDbEntity
  8
00_COMPONENTS
100
AcDbLine
 62
7
  6
BYLAYER
 10
28.2460455728
 20
36.0615813144
 11
28.2460455728
 21
36.3115809405
  0
LINE
  5
2ED
100
AcDbEntity
  8
00_COMPONENTS
100
AcDbLine
 62
7
  6
BYLAYER
 10
28.2460455728
 20
36.5615805528
 11
28.2460455728
 21
36.811580179
  0
LINE
  5
2EE
100
AcDbEntity
  8
00_COMPONENTS
100
AcDbLine
 62
7
  6
BYLAYER
 10
28.2460455728
 20
37.0615797913
 11
28.2460455728
 21
37.3115794174
  0
LINE
  5
2EF
100
AcDbEntity
  8
00_COMPONENTS
100
AcDbLine
 62
7
  6
BYLAYER
 10
28.2460455728
 20
37.5615790297
 11
28.2460455728
 21
37.8115786559
  0
LINE
  5
2F0
100
AcDbEntity
  8
00_COMPONENTS
100
AcDbLine
 62
7
  6
BYLAYER
 10
28.2460455728
 20
38.0615782682
 11
28.2460455728
 21
38.3115778943
  0
LINE
  5
2F1
100
AcDbEntity
  8
00_COMPONENTS
100
AcDbLine
 62
7
  6
BYLAYER
 10
28.2460455728
 20
38.5615775067
 11
28.2460455728
 21
38.8115771328
  0
LINE
  5
2F2
100
AcDbEntity
  8
00_COMPONENTS
100
AcDbLine
 62
7
  6
BYLAYER
 10
28.2460455728
 20
39.0615767451
 11
28.2460455728
 21
39.3115763712
  0
LINE
  5
2F3
100
AcDbEntity
  8
00_COMPONENTS
100
AcDbLine
 62
7
  6
BYLAYER
 10
28.2460455728
 20
39.5615759836
 11
28.2460455728
 21
39.8115756097
  0
LINE
  5
2F4
100
AcDbEntity
  8
00_COMPONENTS
100
AcDbLine
 62
7
  6
BYLAYER
 10
28.2460455728
 20
40.061575222
 11
28.2460455728
 21
40.3115748482
  0
LINE
  5
2F5
100
AcDbEntity
  8
00_COMPONENTS
100
AcDbLine
 62
7
  6
BYLAYER
 10
28.2460455728
 20
40.5615744605
 11
28.2460455728
 21
40.8115740866
  0
LINE
  5
2F6
100
AcDbEntity
  8
00_COMPONENTS
100
AcDbLine
 62
7
  6
BYLAYER
 10
28.2460455728
 20
41.0615736989
 11
28.2460455728
 21
41.3115733251
  0
LINE
  5
2F7
100
AcDbEntity
  8
00_COMPONENTS_3
100
AcDbLine
 62
7
  6
BYLAYER
 10
28.3960455728
 20
10.8115986429
 11
28.3960455728
 21
11.3115986429
  0
LINE
  5
2F8
100
AcDbEntity
  8
00_COMPONENTS_3
100
AcDbLine
 62
7
  6
BYLAYER
 10
28.6460455728
 20
11.3115986429
 11
28.6460455728
 21
11.0115986429
  0
LINE
  5
2F9
100
AcDbEntity
  8
00_COMPONENTS_3
100
AcDbLine
 62
7
  6
BYLAYER
 10
29.0460455728
 20
11.0115986429
 11
29.0460455728
 21
11.3115986429
  0
LINE
  5
2FA
100
AcDbEntity
  8
00_COMPONENTS_3
100
AcDbLine
 62
7
  6
BYLAYER
 10
29.1460455728
 20
11.3115986429
 11
29.1460455728
 21
12.3115986429
  0
LINE
  5
2FB
100
AcDbEntity
  8
00_COMPONENTS
100
AcDbLine
 62
7
  6
BYLAYER
 10
29.1460455728
 20
19.011598643
 11
29.1460455728
 21
23.5115986429
  0
LINE
  5
2FC
100
AcDbEntity
  8
00_COMPONENTS
100
AcDbLine
 62
7
  6
BYLAYER
 10
29.1460455728
 20
41.5115643735
 11
29.1460455728
 21
46.0115643735
  0
LINE
  5
2FD
100
AcDbEntity
  8
00_COMPONENTS
100
AcDbLine
 62
7
  6
BYLAYER
 10
29.3960455728
 20
12.3115986429
 11
29.3960455728
 21
47.1115986429
  0
LINE
  5
2FE
100
AcDbEntity
  8
00_COMPONENTS_4
100
AcDbLine
 62
7
  6
BYLAYER
 10
29.3989168905
 20
49.8168340879
 11
29.3989168905
 21
50.1115986429
  0
LINE
  5
2FF
100
AcDbEntity
  8
00_COMPONENTS
100
AcDbLine
 62
7
  6
BYLAYER
 10
28.2460455728
 20
36.0615813144
 11
11.0460455728
 21
36.0615813144
  0
LINE
  5
300
100
AcDbEntity
  8
00_COMPONENTS
100
AcDbLine
 62
7
  6
BYLAYER
 10
11.0460455728
 20
36.3115809405
 11
28.2460455728
 21
36.3115809405
  0
LINE
  5
301
100
AcDbEntity
  8
00_COMPONENTS
100
AcDbLine
 62
7
  6
BYLAYER
 10
28.2460455728
 20
36.5615805528
 11
11.0460455728
 21
36.5615805528
  0
LINE
  5
302
100
AcDbEntity
  8
00_COMPONENTS
100
AcDbLine
 62
7
  6
BYLAYER
 10
11.0460455728
 20
36.811580179
 11
28.2460455728
 21
36.811580179
  0
LINE
  5
303
100
AcDbEntity
  8
00_COMPONENTS
100
AcDbLine
 62
7
  6
BYLAYER
 10
28.2460455728
 20
37.0615797913
 11
11.0460455728
 21
37.0615797913
  0
LINE
  5
304
100
AcDbEntity
  8
00_COMPONENTS
100
AcDbLine
 62
7
  6
BYLAYER
 10
11.0460455728
 20
37.3115794174
 11
28.2460455728
 21
37.3115794174
  0
LINE
  5
305
100
AcDbEntity
  8
00_COMPONENTS
100
AcDbLine
 62
7
  6
BYLAYER
 10
28.2460455728
 20
37.5615790297
 11
11.0460455728
 21
37.5615790297
  0
LINE
  5
306
100
AcDbEntity
  8
00_COMPONENTS_4
100
AcDbLine
 62
7
  6
BYLAYER
 10
30.0460455728
 20
47.1115986429
 11
29.9988255173
 21
49.8168338109
  0
LINE
  5
307
100
AcDbEntity
  8
00_COMPONENTS
100
AcDbLine
 62
7
  6
BYLAYER
 10
30.0353080531
 20
47.1115986429
 11
30.0960455728
 21
12.3115986429
  0
LINE
  5
308
100
AcDbEntity
  8
00_COMPONENTS_3
100
AcDbLine
 62
7
  6
BYLAYER
 10
30.1460455728
 20
12.3115986429
 11
30.1460455728
 21
11.3115986429
  0
LINE
  5
309
100
AcDbEntity
  8
00_COMPONENTS
100
AcDbLine
 62
7
  6
BYLAYER
 10
11.0460455728
 20
37.8115786559
 11
28.2460455728
 21
37.8115786559
  0
LINE
  5
30A
100
AcDbEntity
  8
00_COMPONENTS
100
AcDbLine
 62
7
  6
BYLAYER
 10
28.2460455728
 20
38.0615782682
 11
11.0460455728
 21
38.0615782682
  0
LINE
  5
30B
100
AcDbEntity
  8
00_COMPONENTS
100
AcDbLine
 62
7
  6
BYLAYER
 10
11.0460455728
 20
38.3115778943
 11
28.2460455728
 21
38.3115778943
  0
LINE
  5
30C
100
AcDbEntity
  8
00_COMPONENTS
100
AcDbLine
 62
7
  6
BYLAYER
 10
28.2460455728
 20
38.5615775067
 11
11.0460455728
 21
38.5615775067
  0
LINE
  5
30D
100
AcDbEntity
  8
00_COMPONENTS
100
AcDbLine
 62
7
  6
BYLAYER
 10
11.0460455728
 20
38.8115771328
 11
28.2460455728
 21
38.8115771328
  0
LINE
  5
30E
100
AcDbEntity
  8
00_COMPONENTS
100
AcDbLine
 62
7
  6
BYLAYER
 10
28.2460455728
 20
39.0615767451
 11
11.0460455728
 21
39.0615767451
  0
LINE
  5
30F
100
AcDbEntity
  8
00_COMPONENTS
100
AcDbLine
 62
7
  6
BYLAYER
 10
11.0460455728
 20
39.3115763712
 11
28.2460455728
 21
39.3115763712
  0
LINE
  5
310
100
AcDbEntity
  8
00_COMPONENTS
100
AcDbLine
 62
7
  6
BYLAYER
 10
28.2460455728
 20
39.5615759836
 11
11.0460455728
 21
39.5615759836
  0
LINE
  5
311
100
AcDbEntity
  8
00_COMPONENTS
100
AcDbLine
 62
7
  6
BYLAYER
 10
11.0460455728
 20
39.8115756097
 11
28.2460455728
 21
39.8115756097
  0
LINE
  5
312
100
AcDbEntity
  8
00_COMPONENTS
100
AcDbLine
 62
7
  6
BYLAYER
 10
28.2460455728
 20
40.061575222
 11
11.0460455728
 21
40.061575222
  0
LINE
  5
313
100
AcDbEntity
  8
00_COMPONENTS
100
AcDbLine
 62
7
  6
BYLAYER
 10
11.0460455728
 20
40.3115748482
 11
28.2460455728
 21
40.3115748482
  0
LINE
  5
314
100
AcDbEntity
  8
00_COMPONENTS
100
AcDbLine
 62
7
  6
BYLAYER
 10
28.2460455728
 20
40.5615744605
 11
11.0460455728
 21
40.5615744605
  0
LINE
  5
315
100
AcDbEntity
  8
00_COMPONENTS
100
AcDbLine
 62
7
  6
BYLAYER
 10
11.0460455728
 20
40.8115740866
 11
28.2460455728
 21
40.8115740866
  0
LINE
  5
316
100
AcDbEntity
  8
00_COMPONENTS
100
AcDbLine
 62
7
  6
BYLAYER
 10
28.2460455728
 20
41.0615736989
 11
11.0460455728
 21
41.0615736989
  0
LINE
  5
317
100
AcDbEntity
  8
00_COMPONENTS
100
AcDbLine
 62
7
  6
BYLAYER
 10
11.0460455728
 20
41.3115733251
 11
28.2460455728
 21
41.3115733251
  0
LINE
  5
318
100
AcDbEntity
  8
00_COMPONENTS
100
AcDbLine
 62
7
  6
BYLAYER
 10
29.1460455728
 20
41.5115643735
 11
10.1460455728
 21
41.5115643735
  0
LINE
  5
319
100
AcDbEntity
  8
00_COMPONENTS
100
AcDbLine
 62
7
  6
BYLAYER
 10
10.1460455728
 20
46.0115643735
 11
29.1460455728
 21
46.0115643735
  0
LINE
  5
31A
100
AcDbEntity
  8
00_COMPONENTS
100
AcDbLine
 62
7
  6
BYLAYER
 10
9.8459617536
 20
47.1115986429
 11
29.446129392
 21
47.1115986429
  0
LINE
  5
31B
100
AcDbEntity
  8
00_COMPONENTS_4
100
AcDbLine
 62
7
  6
BYLAYER
 10
9.2460455728
 20
47.1115986429
 11
30.0460455728
 21
47.1115986429
  0
LINE
  5
31C
100
AcDbEntity
  8
00_COMPONENTS_4
100
AcDbLine
 62
7
  6
BYLAYER
 10
18.4960455728
 20
48.2168343649
 11
9.8652461512
 21
48.2168338109
  0
LINE
  5
31D
100
AcDbEntity
  8
00_COMPONENTS_4
100
AcDbLine
 62
7
  6
BYLAYER
 10
9.5652918426
 20
48.5115986429
 11
18.1960912642
 21
48.5115986429
  0
LINE
  5
31E
100
AcDbEntity
  8
00_COMPONENTS_4
100
AcDbLine
 62
7
  6
BYLAYER
 10
29.3989168905
 20
49.8168338109
 11
19.2767495459
 21
49.8168343649
  0
LINE
  5
31F
100
AcDbEntity
  8
00_COMPONENTS_4
100
AcDbLine
 62
7
  6
BYLAYER
 10
18.6291336066
 20
49.9705983264
 11
9.5932199465
 21
49.9705983249
  0
LINE
  5
320
100
AcDbEntity
  8
00_COMPONENTS_4
100
AcDbLine
 62
7
  6
BYLAYER
 10
9.5932199465
 20
50.1115986429
 11
29.6988711991
 21
50.1115986429
  0
ARC
  5
321
100
AcDbEntity
  8
00_COMPONENTS_4
100
AcDbCircle
 62
7
  6
BYLAYER
 10
9.3865272999
 20
-3.9591854964
 40
52.1782149413
100
AcDbArc
 50
89.4743217244
 51
89.9401040473
  0
ARC
  5
322
100
AcDbEntity
  8
00_COMPONENTS_6
100
AcDbCircle
 62
7
  6
BYLAYER
 10
19.2898469186
 20
14.5649642809
 40
3.4172940457
100
AcDbArc
 50
259.991371981
 51
261.4017665521
  0
ARC
  5
323
100
AcDbEntity
  8
00_COMPONENTS_1
100
AcDbCircle
 62
7
  6
BYLAYER
 10
13.0460455728
 20
5.7615986429
 40
1.25
100
AcDbArc
 50
180.0
 51
360.0
  0
ARC
  5
324
100
AcDbEntity
  8
00_COMPONENTS_1
100
AcDbCircle
 62
7
  6
BYLAYER
 10
17.4460455728
 20
5.7615986429
 40
1.25
100
AcDbArc
 50
180.0
 51
360.0
  0
ARC
  5
325
100
AcDbEntity
  8
00_COMPONENTS_1
100
AcDbCircle
 62
7
  6
BYLAYER
 10
13.0460455728
 20
7.0115986429
 40
0.5
100
AcDbArc
 50
0.0
 51
180.0
  0
ARC
  5
326
100
AcDbEntity
  8
00_COMPONENTS_1
100
AcDbCircle
 62
7
  6
BYLAYER
 10
13.0460455728
 20
6.0115986429
 40
0.5
100
AcDbArc
 50
180.0
 51
360.0
  0
ARC
  5
327
100
AcDbEntity
  8
00_COMPONENTS_1
100
AcDbCircle
 62
7
  6
BYLAYER
 10
17.4460455728
 20
7.0115986429
 40
0.5
100
AcDbArc
 50
0.0
 51
180.0
  0
ARC
  5
328
100
AcDbEntity
  8
00_COMPONENTS_1
100
AcDbCircle
 62
7
  6
BYLAYER
 10
17.4460455728
 20
6.0115986429
 40
0.5
100
AcDbArc
 50
180.0
 51
360.0
  0
ARC
  5
329
100
AcDbEntity
  8
00_COMPONENTS_3
100
AcDbCircle
 62
7
  6
BYLAYER
 10
15.2460455728
 20
11.0115986429
 40
0.2
100
AcDbArc
 50
180.0
 51
360.0
  0
ARC
  5
32A
100
AcDbEntity
  8
00_COMPONENTS_3
100
AcDbCircle
 62
7
  6
BYLAYER
 10
10.4460455728
 20
11.0115986429
 40
0.2
100
AcDbArc
 50
180.0
 51
360.0
  0
ARC
  5
32B
100
AcDbEntity
  8
00_COMPONENTS_4
100
AcDbCircle
 62
7
  6
BYLAYER
 10
9.5652918426
 20
48.2115986429
 40
0.3
100
AcDbArc
 50
90.0
 51
179.0000529115
  0
ARC
  5
32C
100
AcDbEntity
  8
00_COMPONENTS_4
100
AcDbCircle
 62
7
  6
BYLAYER
 10
9.5932199465
 20
49.8115986429
 40
0.3
100
AcDbArc
 50
90.0
 51
179.0000529114
  0
ARC
  5
32D
100
AcDbEntity
  8
00_COMPONENTS_4
100
AcDbCircle
 62
7
  6
BYLAYER
 10
18.4960455728
 20
49.3587903385
 40
0.3
100
AcDbArc
 50
120.1137331511
 51
180.0000000007
  0
ARC
  5
32E
100
AcDbEntity
  8
00_COMPONENTS_4
100
AcDbCircle
 62
7
  6
BYLAYER
 10
19.2767495459
 20
49.8115986429
 40
0.3
100
AcDbArc
 50
90.0
 51
120.1137331444
  0
ARC
  5
32F
100
AcDbEntity
  8
00_COMPONENTS_4
100
AcDbCircle
 62
7
  6
BYLAYER
 10
29.8776357416
 20
-2.3591854584
 40
52.1782149033
100
AcDbArc
 50
90.0598959526
 51
90.5256782758
  0
ARC
  5
330
100
AcDbEntity
  8
00_COMPONENTS_1
100
AcDbCircle
 62
7
  6
BYLAYER
 10
26.2460455728
 20
5.7615986429
 40
1.25
100
AcDbArc
 50
180.0
 51
360.0
  0
ARC
  5
331
100
AcDbEntity
  8
00_COMPONENTS_1
100
AcDbCircle
 62
7
  6
BYLAYER
 10
21.8460455728
 20
5.7615986429
 40
1.25
100
AcDbArc
 50
180.0
 51
360.0
  0
ARC
  5
332
100
AcDbEntity
  8
00_COMPONENTS_1
100
AcDbCircle
 62
7
  6
BYLAYER
 10
26.2460455728
 20
7.0115986429
 40
0.5
100
AcDbArc
 50
0.0
 51
180.0
  0
ARC
  5
333
100
AcDbEntity
  8
00_COMPONENTS_1
100
AcDbCircle
 62
7
  6
BYLAYER
 10
26.2460455728
 20
6.0115986429
 40
0.5
100
AcDbArc
 50
180.0
 51
360.0
  0
ARC
  5
334
100
AcDbEntity
  8
00_COMPONENTS_1
100
AcDbCircle
 62
7
  6
BYLAYER
 10
21.8460455728
 20
7.0115986429
 40
0.5
100
AcDbArc
 50
0.0
 51
180.0
  0
ARC
  5
335
100
AcDbEntity
  8
00_COMPONENTS_1
100
AcDbCircle
 62
7
  6
BYLAYER
 10
21.8460455728
 20
6.0115986429
 40
0.5
100
AcDbArc
 50
180.0
 51
360.0
  0
ARC
  5
336
100
AcDbEntity
  8
00_COMPONENTS_3
100
AcDbCircle
 62
7
  6
BYLAYER
 10
24.0460455728
 20
11.0115986429
 40
0.2
100
AcDbArc
 50
180.0
 51
360.0
  0
ARC
  5
337
100
AcDbEntity
  8
00_COMPONENTS_3
100
AcDbCircle
 62
7
  6
BYLAYER
 10
19.6460455728
 20
11.0115986429
 40
0.2
100
AcDbArc
 50
180.0
 51
360.0
  0
ARC
  5
338
100
AcDbEntity
  8
00_COMPONENTS_3
100
AcDbCircle
 62
7
  6
BYLAYER
 10
28.8460455728
 20
11.0115986429
 40
0.2
100
AcDbArc
 50
180.0
 51
360.0
  0
ARC
  5
339
100
AcDbEntity
  8
00_COMPONENTS_4
100
AcDbCircle
 62
7
  6
BYLAYER
 10
29.6988711991
 20
49.8115986429
 40
0.3
100
AcDbArc
 50
0.9998941771
 51
90.0
  0
SPLINE
  5
33A
100
AcDbEntity
  8
00_COMPONENTS_6
100
AcDbSpline
 62
7
  6
BYLAYER
 70
0
 71
3
 72
14
 73
10
 74
0
 42
0.0000001
 43
0.0000001
 44
0.0000000001
 40
0.0
 40
0.0
 40
0.0
 40
0.0
 40
0.3517042817
 40
0.4997667885
 40
0.6292575302
 40
0.7411269501
 40
0.8374817414
 40
0.9219250364
 40
1.0
 40
1.0
 40
1.0
 40
1.0
 10
20.1152903006
 20
11.3132284691
 30
0.0
 10
20.1234128756
 20
11.3112252934
 30
0.0
 10
20.1348488927
 20
11.3077743491
 30
0.0
 10
20.1485006894
 20
11.3015892061
 30
0.0
 10
20.1565063002
 20
11.2968850055
 30
0.0
 10
20.1628383188
 20
11.2918900455
 30
0.0
 10
20.1674696978
 20
11.2866232525
 30
0.0
 10
20.1703315699
 20
11.2810857264
 30
0.0
 10
20.1709889794
 20
11.2771961504
 30
0.0
 10
20.1709903441
 20
11.275338993
 30
0.0
  0
SPLINE
  5
33B
100
AcDbEntity
  8
00_COMPONENTS_6
100
AcDbSpline
 62
7
  6
BYLAYER
 70
0
 71
3
 72
11
 73
7
 74
0
 42
0.0000001
 43
0.0000001
 44
0.0000000001
 40
0.0
 40
0.0
 40
0.0
 40
0.0
 40
0.2028100006
 40
0.4343892618
 40
0.6988477666
 40
1.0
 40
1.0
 40
1.0
 40
1.0
 10
19.9557628126
 20
11.1860776707
 30
0.0
 10
19.9523198185
 20
11.1914208227
 30
0.0
 10
19.945465947
 20
11.2032043533
 30
0.0
 10
19.9358745026
 20
11.2229128577
 30
0.0
 10
19.9263681609
 20
11.2460338246
 30
0.0
 10
19.9205029559
 20
11.2627710051
 30
0.0
 10
19.917568077
 20
11.2717416827
 30
0.0
  0
SPLINE
  5
33C
100
AcDbEntity
  8
00_COMPONENTS_6
100
AcDbSpline
 62
7
  6
BYLAYER
 70
0
 71
3
 72
11
 73
7
 74
0
 42
0.0000001
 43
0.0000001
 44
0.0000000001
 40
0.0
 40
0.0
 40
0.0
 40
0.0
 40
0.182747046
 40
0.4056433281
 40
0.677097805
 40
1.0
 40
1.0
 40
1.0
 40
1.0
 10
19.917568077
 20
11.2717416826
 30
0.0
 10
19.9166480153
 20
11.2745539206
 30
0.0
 10
19.9132432658
 20
11.2803478296
 30
0.0
 10
19.9052629624
 20
11.2879725373
 30
0.0
 10
19.8941501017
 20
11.2952537579
 30
0.0
 10
19.885462261
 20
11.2994442475
 30
0.0
 10
19.8806553513
 20
11.3015004254
 30
0.0
  0
SPLINE
  5
33D
100
AcDbEntity
  8
00_COMPONENTS_6
100
AcDbSpline
 62
7
  6
BYLAYER
 70
0
 71
3
 72
9
 73
5
 74
0
 42
0.0000001
 43
0.0000001
 44
0.0000000001
 40
0.0
 40
0.0
 40
0.0
 40
0.0
 40
0.47395689
 40
1.0
 40
1.0
 40
1.0
 40
1.0
 10
19.8806553513
 20
11.3015004254
 30
0.0
 10
19.8760691988
 20
11.3034621733
 30
0.0
 10
19.866209729
 20
11.3071773998
 30
0.0
 10
19.8561236933
 20
11.3102089496
 30
0.0
 10
19.8507785779
 20
11.3116512441
 30
0.0
  0
SPLINE
  5
33E
100
AcDbEntity
  8
00_COMPONENTS_6
100
AcDbSpline
 62
7
  6
BYLAYER
 70
0
 71
3
 72
10
 73
6
 74
0
 42
0.0000001
 43
0.0000001
 44
0.0000000001
 40
0.0
 40
0.0
 40
0.0
 40
0.0
 40
0.4353552417
 40
0.6996516747
 40
1.0
 40
1.0
 40
1.0
 40
1.0
 10
19.3363281574
 20
11.1860773756
 30
0.0
 10
19.343542618
 20
11.1972734017
 30
0.0
 10
19.3534579807
 20
11.2163552224
 30
0.0
 10
19.3651759511
 20
11.2446158434
 30
0.0
 10
19.3709439615
 20
11.2609108576
 30
0.0
 10
19.3738298325
 20
11.2696346934
 30
0.0
  0
SPLINE
  5
33F
100
AcDbEntity
  8
00_COMPONENTS_6
100
AcDbSpline
 62
7
  6
BYLAYER
 70
0
 71
3
 72
13
 73
9
 74
0
 42
0.0000001
 43
0.0000001
 44
0.0000000001
 40
0.0
 40
0.0
 40
0.0
 40
0.0
 40
0.1615576819
 40
0.262389697
 40
0.3784897993
 40
0.5104315856
 40
0.6583325542
 40
1.0
 40
1.0
 40
1.0
 40
1.0
 10
19.3738300475
 20
11.2696353352
 30
0.0
 10
19.3752084334
 20
11.27380261
 30
0.0
 10
19.3796213324
 20
11.2798033121
 30
0.0
 10
19.3874349202
 20
11.2864536916
 30
0.0
 10
19.3953947318
 20
11.2916624519
 30
0.0
 10
19.4049414227
 20
11.296640378
 30
0.0
 10
19.4204976895
 20
11.3032443553
 30
0.0
 10
19.4332439786
 20
11.3071826096
 30
0.0
 10
19.4422263983
 20
11.3095244493
 30
0.0
  0
SPLINE
  5
340
100
AcDbEntity
  8
00_COMPONENTS_6
100
AcDbSpline
 62
7
  6
BYLAYER
 70
0
 71
3
 72
10
 73
6
 74
0
 42
0.0000001
 43
0.0000001
 44
0.0000000001
 40
0.0
 40
0.0
 40
0.0
 40
0.0
 40
0.3003788305
 40
0.5646965139
 40
1.0
 40
1.0
 40
1.0
 40
1.0
 10
20.1700493288
 20
11.2696357237
 30
0.0
 10
20.1671631472
 20
11.260910895
 30
0.0
 10
20.161395468
 20
11.2446139176
 30
0.0
 10
20.1496793253
 20
11.2163520176
 30
0.0
 10
20.1397610718
 20
11.1972725051
 30
0.0
 10
20.1325473992
 20
11.1860776707
 30
0.0
  0
SPLINE
  5
341
100
AcDbEntity
  8
00_COMPONENTS_4
100
AcDbSpline
 62
7
  6
BYLAYER
 70
0
 71
3
 72
15
 73
11
 74
0
 42
0.0000001
 43
0.0000001
 44
0.0000000001
 40
0.0
 40
0.0
 40
0.0
 40
0.0
 40
0.1358579997
 40
0.2766121538
 40
0.4177654106
 40
0.5540292908
 40
0.6812563007
 40
0.7977303932
 40
0.9032198051
 40
1.0
 40
1.0
 40
1.0
 40
1.0
 10
9.441073435
 20
48.2190009341
 30
0.0
 10
9.4413872668
 20
48.2369828022
 30
0.0
 10
9.4443837099
 20
48.2735910603
 30
0.0
 10
9.4560972065
 20
48.3278254771
 30
0.0
 10
9.4758969396
 20
48.3797549252
 30
0.0
 10
9.502882931
 20
48.4263668473
 30
0.0
 10
9.5364046542
 20
48.4643338877
 30
0.0
 10
9.5739397315
 20
48.4920317568
 30
0.0
 10
9.6134482961
 20
48.5080657694
 30
0.0
 10
9.6403293183
 20
48.5115986429
 30
0.0
 10
9.6531408843
 20
48.5115986429
 30
0.0
  0
SPLINE
  5
342
100
AcDbEntity
  8
00_COMPONENTS_4
100
AcDbSpline
 62
7
  6
BYLAYER
 70
0
 71
3
 72
15
 73
11
 74
0
 42
0.0000001
 43
0.0000001
 44
0.0000000001
 40
0.0
 40
0.0
 40
0.0
 40
0.0
 40
0.1358579997
 40
0.2766121538
 40
0.4177654106
 40
0.5540292908
 40
0.6812563007
 40
0.7977303932
 40
0.9032198051
 40
1.0
 40
1.0
 40
1.0
 40
1.0
 10
29.8230896067
 20
49.8190009341
 30
0.0
 10
29.8227757749
 20
49.8369828022
 30
0.0
 10
29.8197793318
 20
49.8735910603
 30
0.0
 10
29.8080658352
 20
49.9278254771
 30
0.0
 10
29.7882661021
 20
49.9797549252
 30
0.0
 10
29.7612801106
 20
50.0263668473
 30
0.0
 10
29.7277583875
 20
50.0643338877
 30
0.0
 10
29.6902233101
 20
50.0920317568
 30
0.0
 10
29.6507147455
 20
50.1080657694
 30
0.0
 10
29.6238337234
 20
50.1115986429
 30
0.0
 10
29.6110221574
 20
50.1115986429
 30
0.0
  0
SPLINE
  5
343
100
AcDbEntity
  8
00_COMPONENTS_4
100
AcDbSpline
 62
7
  6
BYLAYER
 70
0
 71
3
 72
11
 73
7
 74
0
 42
0.0000001
 43
0.0000001
 44
0.0000000001
 40
0.0
 40
0.0
 40
0.0
 40
0.0
 40
0.2500134539
 40
0.4999993059
 40
0.7499659205
 40
1.0
 40
1.0
 40
1.0
 40
1.0
 10
18.195014655
 20
49.7188094493
 30
0.0
 10
18.1499378477
 20
49.6926649035
 30
0.0
 10
18.0663889416
 20
49.628085779
 30
0.0
 10
17.9701084073
 20
49.5027499775
 30
0.0
 10
17.9099858976
 20
49.3565791615
 30
0.0
 10
17.8960454226
 20
49.2519049914
 30
0.0
 10
17.896045419
 20
49.1997906565
 30
0.0
  0
SPLINE
  5
344
100
AcDbEntity
  8
00_COMPONENTS_4
100
AcDbSpline
 62
7
  6
BYLAYER
 70
0
 71
3
 72
33
 73
29
 74
0
 42
0.0000001
 43
0.0000001
 44
0.0000000001
 40
0.0
 40
0.0
 40
0.0
 40
0.0
 40
0.142324412
 40
0.2852305055
 40
0.3568582728
 40
0.42855903
 40
0.5002799748
 40
0.5719297759
 40
0.6433642547
 40
0.7143189032
 40
0.7842521229
 40
0.8184630443
 40
0.8518712017
 40
0.8840582076
 40
0.9144450694
 40
0.9286720038
 40
0.941956229
 40
0.9540576485
 40
0.9647381951
 40
0.9737947301
 40
0.9811009091
 40
0.9865518715
 40
0.9900839374
 40
0.9919470493
 40
0.9935042331
 40
0.9946714891
 40
0.9961482485
 40
1.0
 40
1.0
 40
1.0
 40
1.0
 10
18.6291336086
 20
49.9705983269
 30
0.0
 10
18.6529461222
 20
49.9761459164
 30
0.0
 10
18.7006599119
 20
49.987300668
 30
0.0
 10
18.7604149698
 20
50.0010014038
 30
0.0
 10
18.8083774253
 20
50.0118442886
 30
0.0
 10
18.8444239014
 20
50.0199371501
 30
0.0
 10
18.8804884536
 20
50.0279665367
 30
0.0
 10
18.9165260585
 20
50.0359061387
 30
0.0
 10
18.9524574361
 20
50.043715376
 30
0.0
 10
18.9881273376
 20
50.051338581
 30
0.0
 10
19.0175906493
 20
50.0574034975
 30
0.0
 10
19.0407734424
 20
50.0619814862
 30
0.0
 10
19.0576141021
 20
50.0652029647
 30
0.0
 10
19.0738333308
 20
50.0681742399
 30
0.0
 10
19.0868365073
 20
50.0704110724
 30
0.0
 10
19.0966587883
 20
50.0719788586
 30
0.0
 10
19.1033897132
 20
50.0729807891
 30
0.0
 10
19.1095312882
 20
50.0738063081
 30
0.0
 10
19.114963504
 20
50.0744310539
 30
0.0
 10
19.1195999963
 20
50.0748218784
 30
0.0
 10
19.1233268512
 20
50.0750052136
 30
0.0
 10
19.1261717141
 20
50.0749150501
 30
0.0
 10
19.1279363464
 20
50.0747265792
 30
0.0
 10
19.1292084257
 20
50.074074122
 30
0.0
 10
19.128934755
 20
50.0731596139
 30
0.0
 10
19.1284422933
 20
50.0726507176
 30
0.0
 10
19.1275885975
 20
50.0719195001
 30
0.0
 10
19.12680651
 20
50.0714399865
 30
0.0
 10
19.126234119
 20
50.0711079997
 30
0.0
  0
SPLINE
  5
345
100
AcDbEntity
  8
00_COMPONENTS_4
100
AcDbSpline
 62
7
  6
BYLAYER
 70
0
 71
3
 72
14
 73
10
 74
0
 42
0.0000001
 43
0.0000001
 44
0.0000000001
 40
0.0
 40
0.0
 40
0.0
 40
0.0
 40
0.0797188788
 40
0.171131159
 40
0.2792554751
 40
0.4055761942
 40
0.547369796
 40
0.698658496
 40
1.0
 40
1.0
 40
1.0
 40
1.0
 10
18.1960455728
 20
49.3587903384
 30
0.0
 10
18.1960455552
 20
49.3490028833
 30
0.0
 10
18.1922293329
 20
49.3278515583
 30
0.0
 10
18.1750762492
 20
49.2975583294
 30
0.0
 10
18.1463402986
 20
49.2691518726
 30
0.0
 10
18.1071199171
 20
49.2442456956
 30
0.0
 10
18.059487073
 20
49.2241676873
 30
0.0
 10
17.9888835072
 20
49.2051218535
 30
0.0
 10
17.9330426612
 20
49.1997906677
 30
0.0
 10
17.8960455728
 20
49.1997906563
 30
0.0
  0
SPLINE
  5
346
100
AcDbEntity
  8
00_COMPONENTS_4
100
AcDbSpline
 62
7
  6
BYLAYER
 70
0
 71
3
 72
15
 73
11
 74
0
 42
0.0000001
 43
0.0000001
 44
0.0000000001
 40
0.0
 40
0.0
 40
0.0
 40
0.0
 40
0.1811588755
 40
0.3528483412
 40
0.5100420813
 40
0.6484922593
 40
0.7654510672
 40
0.8604695273
 40
0.9363468872
 40
1.0
 40
1.0
 40
1.0
 40
1.0
 10
18.1950147185
 20
49.7188093706
 30
0.0
 10
18.2022385915
 20
49.7098530017
 30
0.0
 10
18.2167215568
 20
49.6927344535
 30
0.0
 10
18.2390183191
 20
49.6692046108
 30
0.0
 10
18.2608984701
 20
49.6491012434
 30
0.0
 10
18.2817307834
 20
49.6331274296
 30
0.0
 10
18.3009537414
 20
49.6217597847
 30
0.0
 10
18.3181707468
 20
49.6152429485
 30
0.0
 10
18.3332332064
 20
49.613657181
 30
0.0
 10
18.3420328073
 20
49.616271247
 30
0.0
 10
18.3455301458
 20
49.6182996953
 30
0.0
  0
SPLINE
  5
347
100
AcDbEntity
  8
00_COMPONENTS_4
100
AcDbSpline
 62
7
  6
BYLAYER
 70
0
 71
3
 72
15
 73
11
 74
0
 42
0.0000001
 43
0.0000001
 44
0.0000000001
 40
0.0
 40
0.0
 40
0.0
 40
0.0
 40
0.1590927022
 40
0.3139660369
 40
0.460157956
 40
0.5945555726
 40
0.7150011199
 40
0.8209118702
 40
0.9143137443
 40
1.0
 40
1.0
 40
1.0
 40
1.0
 10
9.5932199465
 20
49.9705983249
 30
0.0
 10
9.5738293211
 20
49.9708417152
 30
0.0
 10
9.5355078278
 20
49.9693498713
 30
0.0
 10
9.4798899609
 20
49.9613144577
 30
0.0
 10
9.4284421912
 20
49.9477216112
 30
0.0
 10
9.3830769114
 20
49.9290715011
 30
0.0
 10
9.345355217
 20
49.9060335983
 30
0.0
 10
9.316610351
 20
49.8791896185
 30
0.0
 10
9.2981154517
 20
49.8491813583
 30
0.0
 10
9.2934479193
 20
49.8272772567
 30
0.0
 10
9.293265638
 20
49.8168343649
 30
0.0
  0
SPLINE
  5
348
100
AcDbEntity
  8
00_COMPONENTS_4
100
AcDbSpline
 62
7
  6
BYLAYER
 70
0
 71
3
 72
23
 73
19
 74
0
 42
0.0000001
 43
0.0000001
 44
0.0000000001
 40
0.0
 40
0.0
 40
0.0
 40
0.0
 40
0.2253685876
 40
0.4242105402
 40
0.5954436969
 40
0.6703689957
 40
0.7379866064
 40
0.7981615546
 40
0.8507590577
 40
0.895644665
 40
0.9326845532
 40
0.9617462421
 40
0.9732448595
 40
0.9827012406
 40
0.9901013522
 40
0.995434583
 40
0.998702545
 40
1.0
 40
1.0
 40
1.0
 40
1.0
 10
29.8230896067
 20
49.8190009341
 30
0.0
 10
29.8362978408
 20
49.8190009341
 30
0.0
 10
29.8611596658
 20
49.8189805189
 30
0.0
 10
29.8960568625
 20
49.818877675
 30
0.0
 10
29.9221367494
 20
49.8187306583
 30
0.0
 10
29.9405256485
 20
49.8185734058
 30
0.0
 10
29.9524056869
 20
49.8184446182
 30
0.0
 10
29.9629769258
 20
49.8183002111
 30
0.0
 10
29.9722153525
 20
49.8181406148
 30
0.0
 10
29.9800978709
 20
49.8179667388
 30
0.0
 10
29.9865988483
 20
49.8177790678
 30
0.0
 10
29.9911458705
 20
49.8176026083
 30
0.0
 10
29.9940695382
 20
49.8174468489
 30
0.0
 10
29.9957353315
 20
49.8173361289
 30
0.0
 10
29.9970113492
 20
49.8172247716
 30
0.0
 10
29.9979879562
 20
49.8171105621
 30
0.0
 10
29.998476258
 20
49.817006977
 30
0.0
 10
29.9988241983
 20
49.8169093793
 30
0.0
 10
29.9988255253
 20
49.8168333507
 30
0.0
  0
SPLINE
  5
349
100
AcDbEntity
  8
00_COMPONENTS_4
100
AcDbSpline
 62
7
  6
BYLAYER
 70
0
 71
3
 72
23
 73
19
 74
0
 42
0.0000001
 43
0.0000001
 44
0.0000000001
 40
0.0
 40
0.0
 40
0.0
 40
0.0
 40
0.0012974544
 40
0.0045654159
 40
0.0098986461
 40
0.0172987572
 40
0.0267551378
 40
0.0382537547
 40
0.0673154429
 40
0.1043553305
 40
0.1492409375
 40
0.2018384404
 40
0.2620133885
 40
0.3296309994
 40
0.4045562984
 40
0.5757894561
 40
0.7746314103
 40
1.0
 40
1.0
 40
1.0
 40
1.0
 10
9.2653375164
 20
48.2168333506
 30
0.0
 10
9.2653388433
 20
48.2169093793
 30
0.0
 10
9.2656867835
 20
48.217006977
 30
0.0
 10
9.2661750853
 20
48.217110562
 30
0.0
 10
9.2671516922
 20
48.2172247715
 30
0.0
 10
9.2684277098
 20
48.2173361288
 30
0.0
 10
9.270093503
 20
48.2174468488
 30
0.0
 10
9.2730171706
 20
48.2176026082
 30
0.0
 10
9.2775641926
 20
48.2177790678
 30
0.0
 10
9.28406517
 20
48.2179667387
 30
0.0
 10
9.2919476883
 20
48.2181406148
 30
0.0
 10
9.301186115
 20
48.2183002111
 30
0.0
 10
9.3117573539
 20
48.2184446182
 30
0.0
 10
9.3236373923
 20
48.2185734058
 30
0.0
 10
9.3420262915
 20
48.2187306583
 30
0.0
 10
9.3681061786
 20
48.218877675
 30
0.0
 10
9.4030033755
 20
48.2189805189
 30
0.0
 10
9.4278652008
 20
48.2190009341
 30
0.0
 10
9.441073435
 20
48.2190009341
 30
0.0
  0
SPLINE
  5
34A
100
AcDbEntity
  8
00_COMPONENTS_4
100
AcDbSpline
 62
7
  6
BYLAYER
 70
0
 71
3
 72
27
 73
23
 74
0
 42
0.0000001
 43
0.0000001
 44
0.0000000001
 40
0.0
 40
0.0
 40
0.0
 40
0.0
 40
0.0003708817
 40
0.001300607
 40
0.0028205284
 40
0.0049339709
 40
0.0109387316
 40
0.0193030989
 40
0.0300107268
 40
0.0430442157
 40
0.0583845365
 40
0.0759941673
 40
0.1178140182
 40
0.1680868796
 40
0.2263859663
 40
0.2921489532
 40
0.3647091952
 40
0.443396071
 40
0.5274910158
 40
0.6162131877
 40
0.8043108635
 40
1.0
 40
1.0
 40
1.0
 40
1.0
 10
18.3455301458
 20
49.6182996953
 30
0.0
 10
18.3455617496
 20
49.6183180255
 30
0.0
 10
18.3456887887
 20
49.618201493
 30
0.0
 10
18.3458512076
 20
49.6180249447
 30
0.0
 10
18.3461385863
 20
49.6176521985
 30
0.0
 10
18.3466856942
 20
49.6168916342
 30
0.0
 10
18.3475966128
 20
49.6155359684
 30
0.0
 10
18.3489373487
 20
49.6134665488
 30
0.0
 10
18.3506291733
 20
49.6107923205
 30
0.0
 10
18.3526644008
 20
49.6075251535
 30
0.0
 10
18.3550401271
 20
49.603668138
 30
0.0
 10
18.3588791867
 20
49.5973824363
 30
0.0
 10
18.3644704756
 20
49.5881346439
 30
0.0
 10
18.372088845
 20
49.5754287798
 30
0.0
 10
18.3808796117
 20
49.5606758435
 30
0.0
 10
18.3907592811
 20
49.5440161184
 30
0.0
 10
18.4016322887
 20
49.5256105448
 30
0.0
 10
18.4133952358
 20
49.5056333184
 30
0.0
 10
18.4259394829
 20
49.4842685852
 30
0.0
 10
18.4439071911
 20
49.4535899267
 30
0.0
 10
18.4673690699
 20
49.4133895542
 30
0.0
 10
18.4863690434
 20
49.3807046229
 30
0.0
 10
18.4960428629
 20
49.3640307312
 30
0.0
  0
SPLINE
  5
34B
100
AcDbEntity
  8
00_COMPONENTS_4
100
AcDbSpline
 62
7
  6
BYLAYER
 70
0
 71
3
 72
24
 73
20
 74
0
 42
0.0000001
 43
0.0000001
 44
0.0000000001
 40
0.0
 40
0.0
 40
0.0
 40
0.0
 40
0.1948215409
 40
0.3825403242
 40
0.5552703226
 40
0.6340035055
 40
0.7066548373
 40
0.7725411489
 40
0.8309831885
 40
0.8814009674
 40
0.9233610269
 40
0.9410381171
 40
0.9564437667
 40
0.9695394377
 40
0.980306841
 40
0.9887308628
 40
0.9948004393
 40
0.9985189827
 40
1.0
 40
1.0
 40
1.0
 40
1.0
 10
18.4960455728
 20
49.3640260605
 30
0.0
 10
18.4765502752
 20
49.3640260574
 30
0.0
 10
18.4382703999
 20
49.3639609232
 30
0.0
 10
18.3827065425
 20
49.3636735143
 30
0.0
 10
18.3387603728
 20
49.3632736006
 30
0.0
 10
18.3063297007
 20
49.3628568723
 30
0.0
 10
18.2845905974
 20
49.3625155904
 30
0.0
 10
18.2648828923
 20
49.3621402403
 30
0.0
 10
18.2474010595
 20
49.3617347153
 30
0.0
 10
18.2323151907
 20
49.3613027314
 30
0.0
 10
18.2213087257
 20
49.3609074109
 30
0.0
 10
18.2138076106
 20
49.3605714445
 30
0.0
 10
18.2091911104
 20
49.3603301814
 30
0.0
 10
18.2052743344
 20
49.3600866702
 30
0.0
 10
18.2020379866
 20
49.3598403122
 30
0.0
 10
18.1995595631
 20
49.3595992349
 30
0.0
 10
18.1976655295
 20
49.3593535516
 30
0.0
 10
18.1967167879
 20
49.3591433105
 30
0.0
 10
18.1960455728
 20
49.3589385402
 30
0.0
 10
18.1960455728
 20
49.3587903385
 30
0.0
  0
SPLINE
  5
34C
100
AcDbEntity
  8
00_COMPONENTS_4
100
AcDbSpline
 62
7
  6
BYLAYER
 70
0
 71
3
 72
27
 73
23
 74
0
 42
0.0000001
 43
0.0000001
 44
0.0000000001
 40
0.0
 40
0.0
 40
0.0
 40
0.0
 40
0.1957437865
 40
0.3840255554
 40
0.4728095458
 40
0.5569374819
 40
0.6356404132
 40
0.7081766969
 40
0.7738999152
 40
0.8321844582
 40
0.8824220804
 40
0.9241670756
 40
0.9417434486
 40
0.957063256
 40
0.9700824761
 40
0.9807689902
 40
0.9891086923
 40
0.9950899901
 40
0.9971936438
 40
0.9987058745
 40
0.9996306324
 40
1.0
 40
1.0
 40
1.0
 40
1.0
 10
19.276746836
 20
49.8168390356
 30
0.0
 10
19.2670703197
 20
49.8335175991
 30
0.0
 10
19.2480583911
 20
49.8662228083
 30
0.0
 10
19.2245816472
 20
49.9064488167
 30
0.0
 10
19.2065999273
 20
49.9371511316
 30
0.0
 10
19.1940500103
 20
49.9585252163
 30
0.0
 10
19.1822858139
 20
49.9785045901
 30
0.0
 10
19.1714150214
 20
49.9969060322
 30
0.0
 10
19.161538968
 20
50.0135589502
 30
0.0
 10
19.1527525991
 20
50.028304249
 30
0.0
 10
19.1451404352
 20
50.0409995282
 30
0.0
 10
19.1395561379
 20
50.0502350528
 30
0.0
 10
19.1357235003
 20
50.0565098351
 30
0.0
 10
19.1333512841
 20
50.0603611416
 30
0.0
 10
19.1313190703
 20
50.063623706
 30
0.0
 10
19.1296303783
 20
50.0662929041
 30
0.0
 10
19.1282932073
 20
50.0683565542
 30
0.0
 10
19.127385251
 20
50.0697072306
 30
0.0
 10
19.1268402064
 20
50.0704644751
 30
0.0
 10
19.126554006
 20
50.0708350456
 30
0.0
 10
19.1263922496
 20
50.0710108723
 30
0.0
 10
19.1262655937
 20
50.0711262551
 30
0.0
 10
19.1262341189
 20
50.0711079997
 30
0.0
  0
SPLINE
  5
34D
100
AcDbEntity
  8
00_COMPONENTS_4
100
AcDbSpline
 62
7
  6
BYLAYER
 70
0
 71
3
 72
27
 73
23
 74
0
 42
0.0000001
 43
0.0000001
 44
0.0000000001
 40
0.0
 40
0.0
 40
0.0
 40
0.0
 40
0.0007566116
 40
0.0023787812
 40
0.0048667552
 40
0.0082069481
 40
0.0123833785
 40
0.0173793164
 40
0.0297613615
 40
0.045206128
 40
0.0635041219
 40
0.0844204529
 40
0.1077199656
 40
0.160553105
 40
0.2204462887
 40
0.2860402419
 40
0.3561872536
 40
0.4300304568
 40
0.5067443086
 40
0.6665094819
 40
0.8319749027
 40
1.0
 40
1.0
 40
1.0
 40
1.0
 10
18.1960912642
 20
48.5115986429
 30
0.0
 10
18.1961973402
 20
48.5115986429
 30
0.0
 10
18.1964882101
 20
48.5113824921
 30
0.0
 10
18.1970318962
 20
48.5110078537
 30
0.0
 10
18.1978411564
 20
48.5103280284
 30
0.0
 10
18.198903712
 20
48.5094202345
 30
0.0
 10
18.200216606
 20
48.5082537475
 30
0.0
 10
18.2024574425
 20
48.506227595
 30
0.0
 10
18.2058352562
 20
48.5031014966
 30
0.0
 10
18.2105459391
 20
48.4986715867
 30
0.0
 10
18.216099316
 20
48.4933909173
 30
0.0
 10
18.2224274285
 20
48.4873271891
 30
0.0
 10
18.232223982
 20
48.4778849701
 30
0.0
 10
18.245909079
 20
48.4646030409
 30
0.0
 10
18.2637977944
 20
48.4471385296
 30
0.0
 10
18.2833812978
 20
48.4279352957
 30
0.0
 10
18.3043259929
 20
48.4073268746
 30
0.0
 10
18.3263515811
 20
48.385594217
 30
0.0
 10
18.3572852692
 20
48.3550009401
 30
0.0
 10
18.3972909446
 20
48.3153132731
 30
0.0
 10
18.44630121
 20
48.2665254585
 30
0.0
 10
18.4793873257
 20
48.2334900707
 30
0.0
 10
18.4960458456
 20
48.2168340879
 30
0.0
  0
ENDSEC
  0
SECTION
  2
OBJECTS
  0
DICTIONARY
  5
C
100
AcDbDictionary
280
0
281
1
  3
ACAD_GROUP
350
D
  3
ACAD_MLINESTYLE
350
17
  3
ACAD_LAYOUT
350
1A
  3
ACAD_PLOTSETTINGS
350
19
  3
ACAD_PLOTSTYLENAME
350
E
  0
DICTIONARY
  5
D
102
{ACAD_REACTORS
330
C
102
}
100
AcDbDictionary
280
0
281
1
  0
ACDBDICTIONARYWDFLT
  5
E
102
{ACAD_REACTORS
330
C
102
}
100
AcDbDictionary
281
1
  3
Normal
350
F
100
AcDbDictionaryWithDefault
340
F
  0
DICTIONARY
  5
17
102
{ACAD_REACTORS
330
C
102
}
100
AcDbDictionary
280
0
281
1
  3
Standard
350
18
  0
DICTIONARY
  5
19
102
{ACAD_REACTORS
330
C
102
}
100
AcDbDictionary
281
1
  0
DICTIONARY
  5
1A
102
{ACAD_REACTORS
330
C
102
}
100
AcDbDictionary
281
1
  3
Model
350
34E
  3
Layout1
350
34F
  0
ACDBPLACEHOLDER
  5
F
102
{ACAD_REACTORS
330
E
102
}
  0
MLINESTYLE
  5
18
102
{ACAD_REACTORS
330
17
102
}
100
AcDbMlineStyle
  2
STANDARD
 70
0
  3

 62
256
 51
90.0
 52
90.0
 71
2
 49
0.5
 62
256
  6
BYLAYER
 49
-0.5
 62
256
  6
BYLAYER
  0
LAYOUT
  5
34E
102
{ACAD_REACTORS
330
1A
102
}
100
AcDbPlotSettings
  1

  2
none_device
  4

  6

 40
0.0
 41
0.0
 42
0.0
 43
0.0
 44
210.0
 45
297.0
 46
0.0
 47
0.0
 48
0.0
 49
0.0
140
0.0
141
0.0
142
1.0
143
1.0
 70
1024
 72
1
 73
0
 74
0
  7

 75
0
147
1.0
148
0.0
149
0.0
100
AcDbLayout
  1
Model
 70
0
 71
0
 10
0.0
 20
0.0
 11
210.0
 21
297.0
 12
0.0
 22
0.0
 32
0.0
 14
0.0
 24
0.0
 34
0.0
 15
0.0
 25
0.0
 35
0.0
146
0.0
 13
0.0
 23
0.0
 33
0.0
 16
1.0
 26
0.0
 36
0.0
 17
0.0
 27
1.0
 37
0.0
 76
0
330
21C
345
0
346
0
  0
LAYOUT
  5
34F
102
{ACAD_REACTORS
330
1A
102
}
100
AcDbPlotSettings
  1

  2
none_device
  4

  6

 40
0.0
 41
0.0
 42
0.0
 43
0.0
 44
210.0
 45
297.0
 46
0.0
 47
0.0
 48
0.0
 49
0.0
140
0.0
141
0.0
142
1.0
143
1.0
 70
0
 72
1
 73
0
 74
0
  7

 75
0
147
1.0
148
0.0
149
0.0
100
AcDbLayout
  1
Layout1
 70
0
 71
1
 10
0.0
 20
0.0
 11
210.0
 21
297.0
 12
0.0
 22
0.0
 32
0.0
 14
0.0
 24
0.0
 34
0.0
 15
0.0
 25
0.0
 35
0.0
146
0.0
 13
0.0
 23
0.0
 33
0.0
 16
1.0
 26
0.0
 36
0.0
 17
0.0
 27
1.0
 37
0.0
 76
0
330
21D
345
0
346
0
  0
ENDSEC
  0
EOF
