999
DXF file: C:\Users\sesa63760\Dev\_Creo\CAD\MCADID0005012_3D-CAD\drw0001_7.dxf
999
Pro/ENGINEER 2019471 by Parametric Technology Corporation
  0
SECTION
  2
HEADER
  9
$ACADVER
  1
AC1024
  9
$DWGCODEPAGE
  3
ANSI_1252
  9
$EXTMAX
 10
34.5132182573
 20
48.8115515354
 30
0.0
  9
$EXTMIN
 10
0.0
 20
0.0
 30
0.0
  9
$LIMMIN
 10
0.0
 20
0.0
  9
$LIMMAX
 10
34.5132182573
 20
48.8115515354
  9
$VIEWCTR
 10
17.2566091287
 20
24.4057757677
  9
$VIEWSIZE
 40
48.8115515354
  9
$CLAYER
  8
0
  9
$LTSCALE
 40
3.181790026
  9
$CELTYPE
  6
BYLAYER
  9
$DIMSCALE
 40
1.0
  9
$DIMASZ
 40
0.4108716459
  9
$DIMEXO
 40
1.0
  9
$DIMDLI
 40
2.1983276543
  9
$DIMEXE
 40
1.0
  9
$DIMCEN
 40
0.5206565497
  9
$DIMLFAC
 40
1.0
  9
$DIMBLK
  1
_FILLED
  9
$DIMALT
 70
0
  9
$DIMALTF
 40
0.0393700787
  9
$DIMTXT
 40
0.5752203043
  9
$DIMTOL
 70
1
  9
$DIMLIM
 70
0
  9
$DIMTFAC
 40
1.0
  9
$DIMTP
 40
0.01
  9
$DIMTM
 40
0.01
  9
$DIMGAP
 40
0.625
  9
$DIMDSEP
 70
46
  9
$AUNITS
 70
0
  9
$PDMODE
 70
3
  9
$PDSIZE
 40
0.3125
  9
$HANDSEED
  5
2F8
  9
$TILEMODE
 70
1
  9
$MEASUREMENT
 70
1
  9
$INSUNITS
 70
4
  0
ENDSEC
  0
SECTION
  2
CLASSES
  0
CLASS
  1
ACDBDICTIONARYWDFLT
  2
AcDbDictionaryWithDefault
  3
AutoCAD 2000
 90
0
 91
1
280
0
281
0
  0
CLASS
  1
ACDBPLACEHOLDER
  2
AcDbPlaceHolder
  3
AutoCAD 2000
 90
0
 91
1
280
0
281
0
  0
CLASS
  1
LAYOUT
  2
AcDbLayout
  3
AutoCAD 2000
 90
0
 91
0
280
0
281
0
  0
ENDSEC
  0
SECTION
  2
TABLES
  0
TABLE
  2
VPORT
  5
8
100
AcDbSymbolTable
 70
2
  0
VPORT
  5
1F4
100
AcDbSymbolTableRecord
100
AcDbViewportTableRecord
  2
*ACTIVE
 70
0
 10
0.0
 20
0.0
 11
1.0
 21
1.0
 12
17.2566091287
 22
24.4057757677
 13
0.0
 23
0.0
 14
1.0
 24
1.0
 15
0.0
 25
0.0
 16
0.0
 26
0.0
 36
1.0
 17
0.0
 27
0.0
 37
0.0
 40
48.8115515354
 41
0.7070707071
 42
50.0
 43
0.0
 44
0.0
 50
0.0
 51
0.0
 71
0
 72
100
 73
1
 74
1
 75
0
 76
0
 77
0
 78
0
  0
ENDTAB
  0
TABLE
  2
LTYPE
  5
5
100
AcDbSymbolTable
 70
6
  0
LTYPE
  5
14
100
AcDbSymbolTableRecord
100
AcDbLinetypeTableRecord
  2
BYBLOCK
 70
0
  3

 72
65
 73
0
 40
0.0
  0
LTYPE
  5
15
100
AcDbSymbolTableRecord
100
AcDbLinetypeTableRecord
  2
BYLAYER
 70
0
  3

 72
65
 73
0
 40
0.0
  0
LTYPE
  5
16
100
AcDbSymbolTableRecord
100
AcDbLinetypeTableRecord
  2
CONTINUOUS
 70
64
  3
Solid line
 72
65
 73
0
 40
0.0
  0
LTYPE
  5
1F5
100
AcDbSymbolTableRecord
100
AcDbLinetypeTableRecord
  2
CENTER
 70
64
  3
____ _ ____ _ ____ _ ____ _ ____ _ ____ _ ____
 72
65
 73
4
 40
0.6
 49
0.375
 74
0
 49
-0.075
 74
0
 49
0.075
 74
0
 49
-0.075
 74
0
  0
LTYPE
  5
1F6
100
AcDbSymbolTableRecord
100
AcDbLinetypeTableRecord
  2
HIDDEN
 70
64
  3
- - - - - - - - - - - - - - - - - - - -
 72
65
 73
2
 40
0.2
 49
0.1
 74
0
 49
-0.1
 74
0
  0
LTYPE
  5
1F7
100
AcDbSymbolTableRecord
100
AcDbLinetypeTableRecord
  2
PHANTOM
 70
64
  3
_____ _ _ _____ _ _ _____ _ _ _____
 72
65
 73
6
 40
0.8
 49
0.45
 74
0
 49
-0.05
 74
0
 49
0.1
 74
0
 49
-0.05
 74
0
 49
0.1
 74
0
 49
-0.05
 74
0
  0
LTYPE
  5
1F8
100
AcDbSymbolTableRecord
100
AcDbLinetypeTableRecord
  2
DOT
 70
64
  3
. . . . . . . . . . . . . . . . . . . .
 72
65
 73
2
 40
0.2
 49
0.1
 74
0
 49
-0.1
 74
0
  0
LTYPE
  5
1F9
100
AcDbSymbolTableRecord
100
AcDbLinetypeTableRecord
  2
DASHED
 70
64
  3
- - - - - - - - - - - - - - - - - - - -
 72
65
 73
2
 40
0.2
 49
0.1
 74
0
 49
-0.1
 74
0
  0
ENDTAB
  0
TABLE
  2
LAYER
  5
2
100
AcDbSymbolTable
 70
36
  0
LAYER
  5
10
100
AcDbSymbolTableRecord
100
AcDbLayerTableRecord
  2
0
 70
0
 62
7
  6
CONTINUOUS
370
-3
390
F
  0
LAYER
  5
1FA
100
AcDbSymbolTableRecord
100
AcDbLayerTableRecord
  2
DEFAULT_1
 70
0
 62
7
  6
CENTER
370
-3
390
F
  0
LAYER
  5
1FB
100
AcDbSymbolTableRecord
100
AcDbLayerTableRecord
  2
DEFAULT_2
 70
0
 62
7
  6
HIDDEN
370
-3
390
F
  0
LAYER
  5
1FC
100
AcDbSymbolTableRecord
100
AcDbLayerTableRecord
  2
DEFAULT_3
 70
0
 62
7
  6
PHANTOM
370
-3
390
F
  0
LAYER
  5
1FD
100
AcDbSymbolTableRecord
100
AcDbLayerTableRecord
  2
00_COMPONENTS
 70
0
 62
7
  6
CONTINUOUS
370
-3
390
F
  0
LAYER
  5
1FE
100
AcDbSymbolTableRecord
100
AcDbLayerTableRecord
  2
00_COMPONENTS_1
 70
0
 62
7
  6
CONTINUOUS
370
-3
390
F
  0
LAYER
  5
1FF
100
AcDbSymbolTableRecord
100
AcDbLayerTableRecord
  2
00_COMPONENTS_3
 70
0
 62
7
  6
CONTINUOUS
370
-3
390
F
  0
LAYER
  5
200
100
AcDbSymbolTableRecord
100
AcDbLayerTableRecord
  2
00_COMPONENTS_4
 70
0
 62
7
  6
CONTINUOUS
370
-3
390
F
  0
LAYER
  5
201
100
AcDbSymbolTableRecord
100
AcDbLayerTableRecord
  2
00_COMPONENTS_6
 70
0
 62
7
  6
CONTINUOUS
370
-3
390
F
  0
LAYER
  5
202
100
AcDbSymbolTableRecord
100
AcDbLayerTableRecord
  2
00_COMPONENTS_8
 70
0
 62
7
  6
CONTINUOUS
370
-3
390
F
  0
LAYER
  5
203
100
AcDbSymbolTableRecord
100
AcDbLayerTableRecord
  2
01_1_DEFAULT_DATUMS
 70
0
 62
7
  6
CONTINUOUS
370
-3
390
F
  0
LAYER
  5
204
100
AcDbSymbolTableRecord
100
AcDbLayerTableRecord
  2
01_PLANES
 70
0
 62
7
  6
CONTINUOUS
370
-3
390
F
  0
LAYER
  5
205
100
AcDbSymbolTableRecord
100
AcDbLayerTableRecord
  2
02_COORD_SYS
 70
0
 62
7
  6
CONTINUOUS
370
-3
390
F
  0
LAYER
  5
206
100
AcDbSymbolTableRecord
100
AcDbLayerTableRecord
  2
03_AXES
 70
0
 62
7
  6
CONTINUOUS
370
-3
390
F
  0
LAYER
  5
207
100
AcDbSymbolTableRecord
100
AcDbLayerTableRecord
  2
04_POINTS
 70
0
 62
7
  6
CONTINUOUS
370
-3
390
F
  0
LAYER
  5
208
100
AcDbSymbolTableRecord
100
AcDbLayerTableRecord
  2
05_CURVES
 70
0
 62
7
  6
CONTINUOUS
370
-3
390
F
  0
LAYER
  5
209
100
AcDbSymbolTableRecord
100
AcDbLayerTableRecord
  2
06_SURFS
 70
0
 62
7
  6
CONTINUOUS
370
-3
390
F
  0
LAYER
  5
20A
100
AcDbSymbolTableRecord
100
AcDbLayerTableRecord
  2
07_COSMETICS
 70
0
 62
7
  6
CONTINUOUS
370
-3
390
F
  0
LAYER
  5
20B
100
AcDbSymbolTableRecord
100
AcDbLayerTableRecord
  2
10_NOTES
 70
0
 62
7
  6
CONTINUOUS
370
-3
390
F
  0
LAYER
  5
20C
100
AcDbSymbolTableRecord
100
AcDbLayerTableRecord
  2
11_NOTES_PUB
 70
0
 62
7
  6
CONTINUOUS
370
-3
390
F
  0
LAYER
  5
20D
100
AcDbSymbolTableRecord
100
AcDbLayerTableRecord
  2
13_REF_GTOL
 70
0
 62
7
  6
CONTINUOUS
370
-3
390
F
  0
LAYER
  5
20E
100
AcDbSymbolTableRecord
100
AcDbLayerTableRecord
  2
16_MISC
 70
0
 62
7
  6
CONTINUOUS
370
-3
390
F
  0
LAYER
  5
20F
100
AcDbSymbolTableRecord
100
AcDbLayerTableRecord
  2
17_NO_PRINT
 70
0
 62
7
  6
CONTINUOUS
370
-3
390
F
  0
LAYER
  5
210
100
AcDbSymbolTableRecord
100
AcDbLayerTableRecord
  2
18_DATUM_CAMS_JOINTS
 70
0
 62
7
  6
CONTINUOUS
370
-3
390
F
  0
LAYER
  5
211
100
AcDbSymbolTableRecord
100
AcDbLayerTableRecord
  2
19_DATUM_FUNCTIONAL
 70
0
 62
7
  6
CONTINUOUS
370
-3
390
F
  0
LAYER
  5
212
100
AcDbSymbolTableRecord
100
AcDbLayerTableRecord
  2
20_DATUM_KINEMATIC_SCHEME
 70
0
 62
7
  6
CONTINUOUS
370
-3
390
F
  0
LAYER
  5
213
100
AcDbSymbolTableRecord
100
AcDbLayerTableRecord
  2
INTFCLR_8
 70
0
 62
7
  6
CONTINUOUS
370
-3
390
F
  0
LAYER
  5
214
100
AcDbSymbolTableRecord
100
AcDbLayerTableRecord
  2
NONE
 70
0
 62
7
  6
CONTINUOUS
370
-3
390
F
  0
LAYER
  5
215
100
AcDbSymbolTableRecord
100
AcDbLayerTableRecord
  2
NONE_1
 70
0
 62
7
  6
CONTINUOUS
370
-3
390
F
  0
LAYER
  5
216
100
AcDbSymbolTableRecord
100
AcDbLayerTableRecord
  2
NONE_2
 70
0
 62
7
  6
CONTINUOUS
370
-3
390
F
  0
LAYER
  5
217
100
AcDbSymbolTableRecord
100
AcDbLayerTableRecord
  2
NONE_3
 70
0
 62
7
  6
CONTINUOUS
370
-3
390
F
  0
LAYER
  5
218
100
AcDbSymbolTableRecord
100
AcDbLayerTableRecord
  2
NONE_4
 70
0
 62
7
  6
CONTINUOUS
370
-3
390
F
  0
LAYER
  5
219
100
AcDbSymbolTableRecord
100
AcDbLayerTableRecord
  2
NONE_5
 70
0
 62
7
  6
CONTINUOUS
370
-3
390
F
  0
ENDTAB
  0
TABLE
  2
STYLE
  5
3
100
AcDbSymbolTable
 70
1
  0
STYLE
  5
11
100
AcDbSymbolTableRecord
100
AcDbTextStyleTableRecord
  2
STANDARD
 70
0
 40
0.0
 41
1.0
 50
0.0
 71
0
 42
0.2
  3
ARIAL.TTF
  4

  0
STYLE
  5
21A
100
AcDbSymbolTableRecord
100
AcDbTextStyleTableRecord
  2
TEXTSTYLE_1
 70
0
 40
0.0
 41
0.8
 50
0.0
 71
0
 42
0.2
  3
gdt
  4

  0
ENDTAB
  0
TABLE
  2
VIEW
  5
6
100
AcDbSymbolTable
 70
0
  0
ENDTAB
  0
TABLE
  2
UCS
  5
7
100
AcDbSymbolTable
 70
0
  0
ENDTAB
  0
TABLE
  2
APPID
  5
9
100
AcDbSymbolTable
 70
1
  0
APPID
  5
21B
100
AcDbSymbolTableRecord
100
AcDbRegAppTableRecord
  2
ACAD
 70
0
  0
ENDTAB
  0
TABLE
  2
BLOCK_RECORD
  5
1
100
AcDbSymbolTable
 70
0
  0
BLOCK_RECORD
  5
21C
100
AcDbSymbolTableRecord
100
AcDbBlockTableRecord
  2
*Model_Space
  0
BLOCK_RECORD
  5
21D
100
AcDbSymbolTableRecord
100
AcDbBlockTableRecord
  2
*Paper_Space
  0
BLOCK_RECORD
  5
21E
100
AcDbSymbolTableRecord
100
AcDbBlockTableRecord
  2
_FILLED
  0
ENDTAB
  0
TABLE
  2
DIMSTYLE
  5
A
100
AcDbSymbolTable
 70
1
100
AcDbDimStyleTable
 71
0
  0
DIMSTYLE
105
21F
100
AcDbSymbolTableRecord
100
AcDbDimStyleTableRecord
  2
STANDARD
 70
0
  3

  4

 40
1.0
 41
0.4108716459
 42
1.0
 43
0.38
 44
1.0
 45
0.0
 46
0.0
 47
0.01
 48
0.01
140
0.5752203043
141
0.09
142
0.0
143
25.4
144
1.0
145
0.0
146
1.0
147
0.625
 71
1
 72
0
 73
0
 74
0
 75
0
 76
0
 77
1
 78
8
 79
2
170
0
171
1
172
0
173
0
174
0
175
0
176
0
177
0
178
0
270
2
179
2
271
2
272
2
273
2
274
2
275
0
280
0
281
0
282
0
283
1
284
8
285
0
286
0
287
3
288
0
340
11
278
46
341
21E
342
21E
343
21E
344
21E
  0
ENDTAB
  0
ENDSEC
  0
SECTION
  2
BLOCKS
  0
BLOCK
  5
20
100
AcDbEntity
  8
0
100
AcDbBlockBegin
  2
*Model_Space
 70
0
 10
0.0
 20
0.0
 30
0.0
  3
*Model_Space
  1

  0
ENDBLK
  5
21
100
AcDbEntity
  8
0
100
AcDbBlockEnd
  0
BLOCK
  5
1C
100
AcDbEntity
  8
0
100
AcDbBlockBegin
  2
*Paper_Space
 70
0
 10
0.0
 20
0.0
 30
0.0
  3
*Paper_Space
  1

  0
ENDBLK
  5
1D
100
AcDbEntity
  8
0
100
AcDbBlockEnd
  0
BLOCK
  5
220
100
AcDbEntity
  8
0
100
AcDbBlockBegin
  2
_FILLED
 70
64
 10
0.0
 20
0.0
  3
_FILLED
  1

  0
SOLID
  5
221
100
AcDbEntity
  8
0
  6
BYBLOCK
 62
0
100
AcDbTrace
 10
0.0
 20
0.0
 11
-1.0
 21
0.25
 12
-1.0
 22
-0.25
 13
-1.0
 23
-0.25
  0
ENDBLK
  5
222
100
AcDbEntity
  8
0
  6
BYBLOCK
 62
0
100
AcDbBlockEnd
  0
ENDSEC
  0
SECTION
  2
ENTITIES
  0
LINE
  5
223
100
AcDbEntity
  8
00_COMPONENTS
100
AcDbLine
 62
7
  6
BYLAYER
 10
3.6646532238
 20
34.2752654899
 11
3.6646532238
 21
14.7752654899
  0
LINE
  5
224
100
AcDbEntity
  8
00_COMPONENTS_4
100
AcDbLine
 62
7
  6
BYLAYER
 10
3.7146532238
 20
34.3253474337
 11
3.7146532238
 21
14.7251835461
  0
LINE
  5
225
100
AcDbEntity
  8
00_COMPONENTS_4
100
AcDbLine
 62
7
  6
BYLAYER
 10
3.7618732793
 20
14.7723941722
 11
3.7618732793
 21
34.2781368077
  0
LINE
  5
226
100
AcDbEntity
  8
00_COMPONENTS_4
100
AcDbLine
 62
7
  6
BYLAYER
 10
4.0618275975
 20
34.2781368077
 11
4.0618275975
 21
14.7723941722
  0
LINE
  5
227
100
AcDbEntity
  8
00_COMPONENTS_4
100
AcDbLine
 62
7
  6
BYLAYER
 10
4.361781906
 20
34.8780454344
 11
4.361781906
 21
34.5780911162
  0
LINE
  5
228
100
AcDbEntity
  8
00_COMPONENTS_4
100
AcDbLine
 62
7
  6
BYLAYER
 10
4.361781906
 20
14.4724398637
 11
4.361781906
 21
14.1724855503
  0
LINE
  5
229
100
AcDbEntity
  8
00_COMPONENTS
100
AcDbLine
 62
7
  6
BYLAYER
 10
4.3646532238
 20
34.9752654899
 11
4.3646532238
 21
34.9252654899
  0
LINE
  5
22A
100
AcDbEntity
  8
00_COMPONENTS
100
AcDbLine
 62
7
  6
BYLAYER
 10
4.3646532238
 20
14.1252654899
 11
4.3646532238
 21
14.0752654899
  0
LINE
  5
22B
100
AcDbEntity
  8
00_COMPONENTS
100
AcDbLine
 62
7
  6
BYLAYER
 10
7.2478390512
 20
16.4468045208
 11
7.2193780821
 21
16.4752654899
  0
LINE
  5
22C
100
AcDbEntity
  8
00_COMPONENTS
100
AcDbLine
 62
7
  6
BYLAYER
 10
7.0646532238
 20
16.6299903483
 11
7.0361922547
 21
16.6584513174
  0
LINE
  5
22D
100
AcDbEntity
  8
00_COMPONENTS_4
100
AcDbLine
 62
7
  6
BYLAYER
 10
6.9646532238
 20
20.1752654899
 11
6.9646532238
 21
16.5752654899
  0
LINE
  5
22E
100
AcDbEntity
  8
00_COMPONENTS
100
AcDbLine
 62
7
  6
BYLAYER
 10
7.0361922547
 20
20.0920796625
 11
7.0361922547
 21
16.6584513174
  0
LINE
  5
22F
100
AcDbEntity
  8
00_COMPONENTS
100
AcDbLine
 62
7
  6
BYLAYER
 10
7.0646532238
 20
20.1752654899
 11
7.0646532238
 21
16.5752654899
  0
LINE
  5
230
100
AcDbEntity
  8
00_COMPONENTS_3
100
AcDbLine
 62
7
  6
BYLAYER
 10
4.7646532238
 20
14.0252654899
 11
14.6146532238
 21
14.0252654899
  0
LINE
  5
231
100
AcDbEntity
  8
00_COMPONENTS_3
100
AcDbLine
 62
7
  6
BYLAYER
 10
19.9146532238
 20
14.0252654899
 11
29.7646532238
 21
14.0252654899
  0
LINE
  5
232
100
AcDbEntity
  8
00_COMPONENTS
100
AcDbLine
 62
7
  6
BYLAYER
 10
4.3646532238
 20
14.0752654899
 11
30.1646532238
 21
14.0752654899
  0
LINE
  5
233
100
AcDbEntity
  8
00_COMPONENTS
100
AcDbLine
 62
7
  6
BYLAYER
 10
19.2146532238
 20
14.0778834865
 11
15.3146532238
 21
14.0778834865
  0
LINE
  5
234
100
AcDbEntity
  8
00_COMPONENTS
100
AcDbLine
 62
7
  6
BYLAYER
 10
15.3146532238
 20
14.0817232147
 11
19.2146532238
 21
14.0817232147
  0
LINE
  5
235
100
AcDbEntity
  8
00_COMPONENTS
100
AcDbLine
 62
7
  6
BYLAYER
 10
9.7646532238
 20
14.0962094649
 11
24.7646532238
 21
14.0962094649
  0
LINE
  5
236
100
AcDbEntity
  8
00_COMPONENTS
100
AcDbLine
 62
7
  6
BYLAYER
 10
9.7646532238
 20
14.0997001216
 11
24.7646532238
 21
14.0997001216
  0
LINE
  5
237
100
AcDbEntity
  8
00_COMPONENTS
100
AcDbLine
 62
7
  6
BYLAYER
 10
9.7646532238
 20
14.1112192888
 11
24.7646532238
 21
14.1112192888
  0
LINE
  5
238
100
AcDbEntity
  8
00_COMPONENTS
100
AcDbLine
 62
7
  6
BYLAYER
 10
9.7646532238
 20
14.1147099456
 11
24.7646532238
 21
14.1147099456
  0
LINE
  5
239
100
AcDbEntity
  8
00_COMPONENTS_4
100
AcDbLine
 62
7
  6
BYLAYER
 10
4.31457128
 20
14.1252654899
 11
30.214737043
 21
14.1252654899
  0
LINE
  5
23A
100
AcDbEntity
  8
00_COMPONENTS_4
100
AcDbLine
 62
7
  6
BYLAYER
 10
30.1954526454
 20
14.1445574415
 11
21.3983789313
 21
14.1445574512
  0
LINE
  5
23B
100
AcDbEntity
  8
00_COMPONENTS_4
100
AcDbLine
 62
7
  6
BYLAYER
 10
20.3983789313
 20
14.1724855551
 11
4.361781906
 21
14.1724855454
  0
LINE
  5
23C
100
AcDbEntity
  8
00_COMPONENTS_4
100
AcDbLine
 62
7
  6
BYLAYER
 10
20.3983789313
 20
14.1724855551
 11
21.3983789313
 21
14.1445574512
  0
LINE
  5
23D
100
AcDbEntity
  8
00_COMPONENTS
100
AcDbLine
 62
7
  6
BYLAYER
 10
7.2478390512
 20
20.303726459
 11
7.2182066144
 21
20.3752654899
  0
LINE
  5
23E
100
AcDbEntity
  8
00_COMPONENTS_4
100
AcDbLine
 62
7
  6
BYLAYER
 10
4.361781906
 20
14.4724398637
 11
20.6527784221
 21
14.4724398637
  0
LINE
  5
23F
100
AcDbEntity
  8
00_COMPONENTS_4
100
AcDbLine
 62
7
  6
BYLAYER
 10
30.4954069539
 20
14.7444660683
 11
30.7953612673
 21
14.7444660683
  0
LINE
  5
240
100
AcDbEntity
  8
00_COMPONENTS_4
100
AcDbLine
 62
7
  6
BYLAYER
 10
3.7618732793
 20
14.7723941722
 11
4.0618275975
 21
14.7723941722
  0
LINE
  5
241
100
AcDbEntity
  8
00_COMPONENTS
100
AcDbLine
 62
7
  6
BYLAYER
 10
3.6646532238
 20
14.7752654899
 11
3.7146532238
 21
14.7752654899
  0
LINE
  5
242
100
AcDbEntity
  8
00_COMPONENTS
100
AcDbLine
 62
7
  6
BYLAYER
 10
30.8146532238
 20
14.7752654899
 11
30.8646532238
 21
14.7752654899
  0
LINE
  5
243
100
AcDbEntity
  8
00_COMPONENTS_4
100
AcDbLine
 62
7
  6
BYLAYER
 10
29.9646532238
 20
15.0252654899
 11
28.4646532238
 21
15.0252654899
  0
LINE
  5
244
100
AcDbEntity
  8
00_COMPONENTS_4
100
AcDbLine
 62
7
  6
BYLAYER
 10
27.4646532238
 20
15.0252654899
 11
22.6646532238
 21
15.0252654899
  0
LINE
  5
245
100
AcDbEntity
  8
00_COMPONENTS
100
AcDbLine
 62
7
  6
BYLAYER
 10
30.8146532238
 20
15.0252654899
 11
30.9490708366
 21
15.0252654899
  0
LINE
  5
246
100
AcDbEntity
  8
00_COMPONENTS_4
100
AcDbLine
 62
7
  6
BYLAYER
 10
21.5646247868
 20
14.4457430557
 11
30.1954526454
 21
14.4445117598
  0
LINE
  5
247
100
AcDbEntity
  8
00_COMPONENTS_4
100
AcDbLine
 62
7
  6
BYLAYER
 10
21.5646269268
 20
14.4457430557
 11
20.6527784225
 21
14.4724398637
  0
LINE
  5
248
100
AcDbEntity
  8
00_COMPONENTS
100
AcDbLine
 62
7
  6
BYLAYER
 10
10.8931141929
 20
16.6584513174
 11
10.9646532238
 21
16.6288188805
  0
LINE
  5
249
100
AcDbEntity
  8
00_COMPONENTS
100
AcDbLine
 62
7
  6
BYLAYER
 10
10.6814673963
 20
16.4468045208
 11
10.7110998332
 21
16.3752654899
  0
LINE
  5
24A
100
AcDbEntity
  8
00_COMPONENTS_4
100
AcDbLine
 62
7
  6
BYLAYER
 10
23.3646532238
 20
15.7252654899
 11
26.7646532238
 21
15.7252654899
  0
LINE
  5
24B
100
AcDbEntity
  8
00_COMPONENTS
100
AcDbLine
 62
7
  6
BYLAYER
 10
23.6146532238
 20
15.8752654899
 11
26.5146532238
 21
15.8752654899
  0
LINE
  5
24C
100
AcDbEntity
  8
00_COMPONENTS
100
AcDbLine
 62
7
  6
BYLAYER
 10
30.9098009483
 20
15.9252654899
 11
30.9392568378
 21
15.9252654899
  0
LINE
  5
24D
100
AcDbEntity
  8
00_COMPONENTS_4
100
AcDbLine
 62
7
  6
BYLAYER
 10
7.1646532238
 20
16.3752654899
 11
10.7646532238
 21
16.3752654899
  0
LINE
  5
24E
100
AcDbEntity
  8
00_COMPONENTS
100
AcDbLine
 62
7
  6
BYLAYER
 10
7.2478390512
 20
16.4468045208
 11
10.6814673963
 21
16.4468045208
  0
LINE
  5
24F
100
AcDbEntity
  8
00_COMPONENTS
100
AcDbLine
 62
7
  6
BYLAYER
 10
7.1646532238
 20
16.4752654899
 11
10.7646532238
 21
16.4752654899
  0
LINE
  5
250
100
AcDbEntity
  8
00_COMPONENTS
100
AcDbLine
 62
7
  6
BYLAYER
 10
7.0361922547
 20
20.0920796625
 11
6.9646532238
 21
20.1217120993
  0
LINE
  5
251
100
AcDbEntity
  8
00_COMPONENTS
100
AcDbLine
 62
7
  6
BYLAYER
 10
9.7646532238
 20
34.954321515
 11
9.7646532238
 21
34.9508308583
  0
LINE
  5
252
100
AcDbEntity
  8
00_COMPONENTS
100
AcDbLine
 62
7
  6
BYLAYER
 10
9.7646532238
 20
34.939311691
 11
9.7646532238
 21
34.9358210343
  0
LINE
  5
253
100
AcDbEntity
  8
00_COMPONENTS
100
AcDbLine
 62
7
  6
BYLAYER
 10
9.7646532238
 20
14.0962094649
 11
9.7646532238
 21
14.0997001216
  0
LINE
  5
254
100
AcDbEntity
  8
00_COMPONENTS
100
AcDbLine
 62
7
  6
BYLAYER
 10
9.7646532238
 20
14.1112192888
 11
9.7646532238
 21
14.1147099456
  0
LINE
  5
255
100
AcDbEntity
  8
00_COMPONENTS
100
AcDbLine
 62
7
  6
BYLAYER
 10
10.6814673963
 20
20.303726459
 11
10.7099283654
 21
20.2752654899
  0
LINE
  5
256
100
AcDbEntity
  8
00_COMPONENTS
100
AcDbLine
 62
7
  6
BYLAYER
 10
10.8646532238
 20
20.1205406316
 11
10.8931141929
 21
20.0920796625
  0
LINE
  5
257
100
AcDbEntity
  8
00_COMPONENTS
100
AcDbLine
 62
7
  6
BYLAYER
 10
10.8646532238
 20
16.5752654899
 11
10.8646532238
 21
20.1752654899
  0
LINE
  5
258
100
AcDbEntity
  8
00_COMPONENTS
100
AcDbLine
 62
7
  6
BYLAYER
 10
10.8931141929
 20
16.6584513174
 11
10.8931141929
 21
20.0920796625
  0
LINE
  5
259
100
AcDbEntity
  8
00_COMPONENTS_4
100
AcDbLine
 62
7
  6
BYLAYER
 10
10.9646532238
 20
16.5752654899
 11
10.9646532238
 21
20.1752654899
  0
LINE
  5
25A
100
AcDbEntity
  8
00_COMPONENTS
100
AcDbLine
 62
7
  6
BYLAYER
 10
7.2478390512
 20
16.4468045208
 11
7.2182066144
 21
16.3752654899
  0
LINE
  5
25B
100
AcDbEntity
  8
00_COMPONENTS
100
AcDbLine
 62
7
  6
BYLAYER
 10
10.6814673963
 20
20.303726459
 11
10.7110998332
 21
20.3752654899
  0
LINE
  5
25C
100
AcDbEntity
  8
00_COMPONENTS
100
AcDbLine
 62
7
  6
BYLAYER
 10
7.0361922547
 20
20.0920796625
 11
7.0646532238
 21
20.1205406316
  0
LINE
  5
25D
100
AcDbEntity
  8
00_COMPONENTS
100
AcDbLine
 62
7
  6
BYLAYER
 10
7.2193780821
 20
20.2752654899
 11
7.2478390512
 21
20.303726459
  0
LINE
  5
25E
100
AcDbEntity
  8
00_COMPONENTS
100
AcDbLine
 62
7
  6
BYLAYER
 10
10.7646532238
 20
20.2752654899
 11
7.1646532238
 21
20.2752654899
  0
LINE
  5
25F
100
AcDbEntity
  8
00_COMPONENTS
100
AcDbLine
 62
7
  6
BYLAYER
 10
10.6814673963
 20
20.303726459
 11
7.2478390512
 21
20.303726459
  0
LINE
  5
260
100
AcDbEntity
  8
00_COMPONENTS_4
100
AcDbLine
 62
7
  6
BYLAYER
 10
10.7646532238
 20
20.3752654899
 11
7.1646532238
 21
20.3752654899
  0
LINE
  5
261
100
AcDbEntity
  8
00_COMPONENTS_3
100
AcDbLine
 62
7
  6
BYLAYER
 10
14.6146532238
 20
14.0252654899
 11
14.6146532238
 21
14.0752654899
  0
LINE
  5
262
100
AcDbEntity
  8
00_COMPONENTS_3
100
AcDbLine
 62
7
  6
BYLAYER
 10
14.6146532238
 20
34.9752654899
 11
14.6146532238
 21
35.0252654899
  0
LINE
  5
263
100
AcDbEntity
  8
00_COMPONENTS_4
100
AcDbLine
 62
7
  6
BYLAYER
 10
3.7618732793
 20
14.7723941722
 11
3.7146532238
 21
14.725174107
  0
LINE
  5
264
100
AcDbEntity
  8
00_COMPONENTS_4
100
AcDbLine
 62
7
  6
BYLAYER
 10
3.9376091899
 20
14.348221456
 11
4.1496766392
 21
14.5602889053
  0
LINE
  5
265
100
AcDbEntity
  8
00_COMPONENTS
100
AcDbLine
 62
7
  6
BYLAYER
 10
26.5146532238
 20
21.5752654899
 11
23.6146532238
 21
21.5752654899
  0
LINE
  5
266
100
AcDbEntity
  8
00_COMPONENTS_4
100
AcDbLine
 62
7
  6
BYLAYER
 10
26.7646532238
 20
21.7252654899
 11
23.3646532238
 21
21.7252654899
  0
LINE
  5
267
100
AcDbEntity
  8
00_COMPONENTS_4
100
AcDbLine
 62
7
  6
BYLAYER
 10
3.7146532238
 20
34.3253568728
 11
3.7618732793
 21
34.2781368077
  0
LINE
  5
268
100
AcDbEntity
  8
00_COMPONENTS_4
100
AcDbLine
 62
7
  6
BYLAYER
 10
3.9376091899
 20
34.7023095238
 11
4.1496766392
 21
34.4902420746
  0
LINE
  5
269
100
AcDbEntity
  8
00_COMPONENTS
100
AcDbLine
 62
7
  6
BYLAYER
 10
15.3146532238
 20
14.0778834865
 11
15.3146532238
 21
14.0817232147
  0
LINE
  5
26A
100
AcDbEntity
  8
00_COMPONENTS
100
AcDbLine
 62
7
  6
BYLAYER
 10
15.3146532238
 20
34.9688077651
 11
15.3146532238
 21
34.9726474934
  0
LINE
  5
26B
100
AcDbEntity
  8
00_COMPONENTS_4
100
AcDbLine
 62
7
  6
BYLAYER
 10
4.3145618409
 20
14.1252654899
 11
4.361781906
 21
14.1724855454
  0
LINE
  5
26C
100
AcDbEntity
  8
00_COMPONENTS_4
100
AcDbLine
 62
7
  6
BYLAYER
 10
30.7753367939
 20
23.3752600702
 11
30.7953612625
 21
23.3752654899
  0
LINE
  5
26D
100
AcDbEntity
  8
00_COMPONENTS_4
100
AcDbLine
 62
7
  6
BYLAYER
 10
29.9646532238
 20
22.4252654899
 11
28.4646532238
 21
22.4252654899
  0
LINE
  5
26E
100
AcDbEntity
  8
00_COMPONENTS_4
100
AcDbLine
 62
7
  6
BYLAYER
 10
22.6646532238
 20
22.4252654899
 11
27.4646532238
 21
22.4252654899
  0
LINE
  5
26F
100
AcDbEntity
  8
00_COMPONENTS_4
100
AcDbLine
 62
7
  6
BYLAYER
 10
21.5646532238
 20
22.7752654899
 11
21.1345332153
 21
22.7752654899
  0
LINE
  5
270
100
AcDbEntity
  8
00_COMPONENTS_4
100
AcDbLine
 62
7
  6
BYLAYER
 10
21.3889327065
 20
23.0752654899
 11
30.4901704345
 21
23.0752654899
  0
LINE
  5
271
100
AcDbEntity
  8
00_COMPONENTS_4
100
AcDbLine
 62
7
  6
BYLAYER
 10
21.0645460105
 20
23.224750063
 11
30.4753826484
 21
23.224750063
  0
LINE
  5
272
100
AcDbEntity
  8
00_COMPONENTS_4
100
AcDbLine
 62
7
  6
BYLAYER
 10
20.6527784221
 20
23.5083535237
 11
20.3983789313
 21
23.5083535237
  0
LINE
  5
273
100
AcDbEntity
  8
00_COMPONENTS_4
100
AcDbLine
 62
7
  6
BYLAYER
 10
4.361781906
 20
34.8780454344
 11
4.3145618409
 21
34.9252654899
  0
LINE
  5
274
100
AcDbEntity
  8
00_COMPONENTS_4
100
AcDbLine
 62
7
  6
BYLAYER
 10
30.4674788501
 20
24.0054540361
 11
20.7815408203
 21
24.0054540362
  0
LINE
  5
275
100
AcDbEntity
  8
00_COMPONENTS_4
100
AcDbLine
 62
7
  6
BYLAYER
 10
20.7815408203
 20
24.155969463
 11
30.7674331634
 21
24.155969463
  0
LINE
  5
276
100
AcDbEntity
  8
00_COMPONENTS
100
AcDbLine
 62
7
  6
BYLAYER
 10
10.8931141929
 20
16.6584513174
 11
10.8646532238
 21
16.6299903483
  0
LINE
  5
277
100
AcDbEntity
  8
00_COMPONENTS
100
AcDbLine
 62
7
  6
BYLAYER
 10
10.7099283654
 20
16.4752654899
 11
10.6814673963
 21
16.4468045208
  0
LINE
  5
278
100
AcDbEntity
  8
00_COMPONENTS_4
100
AcDbLine
 62
7
  6
BYLAYER
 10
26.7646532238
 20
15.7252654899
 11
27.4646532238
 21
15.0252654899
  0
LINE
  5
279
100
AcDbEntity
  8
00_COMPONENTS
100
AcDbLine
 62
7
  6
BYLAYER
 10
19.2146532238
 20
34.9726474934
 11
19.2146532238
 21
34.9688077651
  0
LINE
  5
27A
100
AcDbEntity
  8
00_COMPONENTS
100
AcDbLine
 62
7
  6
BYLAYER
 10
19.2146532238
 20
14.0817232147
 11
19.2146532238
 21
14.0778834865
  0
LINE
  5
27B
100
AcDbEntity
  8
00_COMPONENTS_4
100
AcDbLine
 62
7
  6
BYLAYER
 10
30.2147446067
 20
34.9252654899
 11
30.1675245415
 21
34.8780454344
  0
LINE
  5
27C
100
AcDbEntity
  8
00_COMPONENTS_4
100
AcDbLine
 62
7
  6
BYLAYER
 10
30.5916972577
 20
34.7023095238
 11
30.3796298084
 21
34.4902420746
  0
LINE
  5
27D
100
AcDbEntity
  8
00_COMPONENTS
100
AcDbLine
 62
7
  6
BYLAYER
 10
10.8931141929
 20
20.0920796625
 11
10.9646532238
 21
20.1217120993
  0
LINE
  5
27E
100
AcDbEntity
  8
00_COMPONENTS_4
100
AcDbLine
 62
7
  6
BYLAYER
 10
30.1954526454
 20
14.1445574415
 11
30.2147446067
 21
14.1252654899
  0
LINE
  5
27F
100
AcDbEntity
  8
00_COMPONENTS_4
100
AcDbLine
 62
7
  6
BYLAYER
 10
30.6196253616
 20
14.3202933522
 11
30.4075579123
 21
14.5323608014
  0
LINE
  5
280
100
AcDbEntity
  8
00_COMPONENTS_4
100
AcDbLine
 62
7
  6
BYLAYER
 10
22.6646532238
 20
22.4252654899
 11
23.3646532238
 21
21.7252654899
  0
LINE
  5
281
100
AcDbEntity
  8
00_COMPONENTS_3
100
AcDbLine
 62
7
  6
BYLAYER
 10
19.9146532238
 20
35.0252654899
 11
19.9146532238
 21
34.9752654899
  0
LINE
  5
282
100
AcDbEntity
  8
00_COMPONENTS_3
100
AcDbLine
 62
7
  6
BYLAYER
 10
19.9146532238
 20
14.0752654899
 11
19.9146532238
 21
14.0252654899
  0
LINE
  5
283
100
AcDbEntity
  8
00_COMPONENTS_4
100
AcDbLine
 62
7
  6
BYLAYER
 10
20.3983789313
 20
14.1724855503
 11
20.3983789313
 21
23.5083535237
  0
LINE
  5
284
100
AcDbEntity
  8
00_COMPONENTS_4
100
AcDbLine
 62
7
  6
BYLAYER
 10
20.6527784216
 20
23.5083535237
 11
20.6527784225
 21
14.4724398637
  0
LINE
  5
285
100
AcDbEntity
  8
00_COMPONENTS_4
100
AcDbLine
 62
7
  6
BYLAYER
 10
20.7815408203
 20
24.155969463
 11
20.7815408203
 21
24.0054540361
  0
LINE
  5
286
100
AcDbEntity
  8
00_COMPONENTS_4
100
AcDbLine
 62
7
  6
BYLAYER
 10
30.7674331683
 20
34.2781368077
 11
30.8146532238
 21
34.3253568728
  0
LINE
  5
287
100
AcDbEntity
  8
00_COMPONENTS
100
AcDbLine
 62
7
  6
BYLAYER
 10
7.0361922547
 20
16.6584513174
 11
6.9646532238
 21
16.6288188805
  0
LINE
  5
288
100
AcDbEntity
  8
00_COMPONENTS_4
100
AcDbLine
 62
7
  6
BYLAYER
 10
30.8146532238
 20
14.725174107
 11
30.7953612722
 21
14.7444660683
  0
LINE
  5
289
100
AcDbEntity
  8
00_COMPONENTS_4
100
AcDbLine
 62
7
  6
BYLAYER
 10
20.6527784216
 20
23.5083535237
 11
20.8101465193
 21
23.0742346361
  0
LINE
  5
28A
100
AcDbEntity
  8
00_COMPONENTS_4
100
AcDbLine
 62
7
  6
BYLAYER
 10
21.0645460105
 20
23.224750063
 11
20.7815408203
 21
24.0054540362
  0
LINE
  5
28B
100
AcDbEntity
  8
00_COMPONENTS_4
100
AcDbLine
 62
7
  6
BYLAYER
 10
21.5646247868
 20
14.4457430557
 11
21.5646532238
 21
22.7752654899
  0
LINE
  5
28C
100
AcDbEntity
  8
00_COMPONENTS_4
100
AcDbLine
 62
7
  6
BYLAYER
 10
22.6646532238
 20
15.0252654899
 11
22.6646532238
 21
22.4252654899
  0
LINE
  5
28D
100
AcDbEntity
  8
00_COMPONENTS_4
100
AcDbLine
 62
7
  6
BYLAYER
 10
23.3646532238
 20
21.7252654899
 11
23.3646532238
 21
15.7252654899
  0
LINE
  5
28E
100
AcDbEntity
  8
00_COMPONENTS
100
AcDbLine
 62
7
  6
BYLAYER
 10
23.5146532238
 20
21.4752654899
 11
23.5146532238
 21
15.9752654899
  0
LINE
  5
28F
100
AcDbEntity
  8
00_COMPONENTS
100
AcDbLine
 62
7
  6
BYLAYER
 10
24.7646532238
 20
34.954321515
 11
24.7646532238
 21
34.9508308583
  0
LINE
  5
290
100
AcDbEntity
  8
00_COMPONENTS
100
AcDbLine
 62
7
  6
BYLAYER
 10
24.7646532238
 20
34.939311691
 11
24.7646532238
 21
34.9358210343
  0
LINE
  5
291
100
AcDbEntity
  8
00_COMPONENTS
100
AcDbLine
 62
7
  6
BYLAYER
 10
24.7646532238
 20
14.1112192888
 11
24.7646532238
 21
14.1147099456
  0
LINE
  5
292
100
AcDbEntity
  8
00_COMPONENTS
100
AcDbLine
 62
7
  6
BYLAYER
 10
24.7646532238
 20
14.0962094649
 11
24.7646532238
 21
14.0997001216
  0
LINE
  5
293
100
AcDbEntity
  8
00_COMPONENTS
100
AcDbLine
 62
7
  6
BYLAYER
 10
26.6146532238
 20
15.9752654899
 11
26.6146532238
 21
21.4752654899
  0
LINE
  5
294
100
AcDbEntity
  8
00_COMPONENTS_4
100
AcDbLine
 62
7
  6
BYLAYER
 10
27.4646532238
 20
22.4252654899
 11
26.7646532238
 21
21.7252654899
  0
LINE
  5
295
100
AcDbEntity
  8
00_COMPONENTS
100
AcDbLine
 62
7
  6
BYLAYER
 10
30.9392568378
 20
33.1252654899
 11
30.9098009483
 21
33.1252654899
  0
LINE
  5
296
100
AcDbEntity
  8
00_COMPONENTS_4
100
AcDbLine
 62
7
  6
BYLAYER
 10
26.7646532238
 20
15.7252654899
 11
26.7646532238
 21
21.7252654899
  0
LINE
  5
297
100
AcDbEntity
  8
00_COMPONENTS_4
100
AcDbLine
 62
7
  6
BYLAYER
 10
27.4646532238
 20
22.4252654899
 11
27.4646532238
 21
15.0252654899
  0
LINE
  5
298
100
AcDbEntity
  8
00_COMPONENTS
100
AcDbLine
 62
7
  6
BYLAYER
 10
30.9490708366
 20
34.0252654899
 11
30.8146532238
 21
34.0252654899
  0
LINE
  5
299
100
AcDbEntity
  8
00_COMPONENTS
100
AcDbLine
 62
7
  6
BYLAYER
 10
30.8646532238
 20
34.2752654899
 11
30.8146532238
 21
34.2752654899
  0
LINE
  5
29A
100
AcDbEntity
  8
00_COMPONENTS
100
AcDbLine
 62
7
  6
BYLAYER
 10
3.7146532238
 20
34.2752654899
 11
3.6646532238
 21
34.2752654899
  0
LINE
  5
29B
100
AcDbEntity
  8
00_COMPONENTS_4
100
AcDbLine
 62
7
  6
BYLAYER
 10
30.7674331634
 20
34.2781368077
 11
30.4674788501
 21
34.2781368077
  0
LINE
  5
29C
100
AcDbEntity
  8
00_COMPONENTS_4
100
AcDbLine
 62
7
  6
BYLAYER
 10
4.0618275975
 20
34.2781368077
 11
3.7618732793
 21
34.2781368077
  0
LINE
  5
29D
100
AcDbEntity
  8
00_COMPONENTS_4
100
AcDbLine
 62
7
  6
BYLAYER
 10
30.1675245415
 20
34.5780911162
 11
4.361781906
 21
34.5780911162
  0
LINE
  5
29E
100
AcDbEntity
  8
00_COMPONENTS_4
100
AcDbLine
 62
7
  6
BYLAYER
 10
4.361781906
 20
34.8780454344
 11
30.1675245415
 21
34.8780454344
  0
LINE
  5
29F
100
AcDbEntity
  8
00_COMPONENTS_4
100
AcDbLine
 62
7
  6
BYLAYER
 10
30.214737043
 20
34.9252654899
 11
4.31457128
 21
34.9252654899
  0
LINE
  5
2A0
100
AcDbEntity
  8
00_COMPONENTS
100
AcDbLine
 62
7
  6
BYLAYER
 10
9.7646532238
 20
34.9358210343
 11
24.7646532238
 21
34.9358210343
  0
LINE
  5
2A1
100
AcDbEntity
  8
00_COMPONENTS
100
AcDbLine
 62
7
  6
BYLAYER
 10
9.7646532238
 20
34.939311691
 11
24.7646532238
 21
34.939311691
  0
LINE
  5
2A2
100
AcDbEntity
  8
00_COMPONENTS
100
AcDbLine
 62
7
  6
BYLAYER
 10
9.7646532238
 20
34.9508308583
 11
24.7646532238
 21
34.9508308583
  0
LINE
  5
2A3
100
AcDbEntity
  8
00_COMPONENTS
100
AcDbLine
 62
7
  6
BYLAYER
 10
9.7646532238
 20
34.954321515
 11
24.7646532238
 21
34.954321515
  0
LINE
  5
2A4
100
AcDbEntity
  8
00_COMPONENTS
100
AcDbLine
 62
7
  6
BYLAYER
 10
19.2146532238
 20
34.9688077651
 11
15.3146532238
 21
34.9688077651
  0
LINE
  5
2A5
100
AcDbEntity
  8
00_COMPONENTS
100
AcDbLine
 62
7
  6
BYLAYER
 10
15.3146532238
 20
34.9726474934
 11
19.2146532238
 21
34.9726474934
  0
LINE
  5
2A6
100
AcDbEntity
  8
00_COMPONENTS
100
AcDbLine
 62
7
  6
BYLAYER
 10
30.1646532238
 20
34.9752654899
 11
4.3646532238
 21
34.9752654899
  0
LINE
  5
2A7
100
AcDbEntity
  8
00_COMPONENTS_4
100
AcDbLine
 62
7
  6
BYLAYER
 10
28.4646532238
 20
22.4252654899
 11
28.4646532238
 21
15.0252654899
  0
LINE
  5
2A8
100
AcDbEntity
  8
00_COMPONENTS_4
100
AcDbLine
 62
7
  6
BYLAYER
 10
23.3646532238
 20
15.7252654899
 11
22.6646532238
 21
15.0252654899
  0
LINE
  5
2A9
100
AcDbEntity
  8
00_COMPONENTS_3
100
AcDbLine
 62
7
  6
BYLAYER
 10
29.7646532238
 20
35.0252654899
 11
19.9146532238
 21
35.0252654899
  0
LINE
  5
2AA
100
AcDbEntity
  8
00_COMPONENTS_3
100
AcDbLine
 62
7
  6
BYLAYER
 10
14.6146532238
 20
35.0252654899
 11
4.7646532238
 21
35.0252654899
  0
LINE
  5
2AB
100
AcDbEntity
  8
00_COMPONENTS_4
100
AcDbLine
 62
7
  6
BYLAYER
 10
29.7105774646
 20
15.0252654899
 11
29.7105774646
 21
22.4252654899
  0
LINE
  5
2AC
100
AcDbEntity
  8
00_COMPONENTS_4
100
AcDbLine
 62
7
  6
BYLAYER
 10
29.8646532238
 20
15.0252654899
 11
29.8646532238
 21
22.4252654899
  0
LINE
  5
2AD
100
AcDbEntity
  8
00_COMPONENTS_4
100
AcDbLine
 62
7
  6
BYLAYER
 10
29.9646532238
 20
22.4252654899
 11
29.9646532238
 21
15.0252654899
  0
LINE
  5
2AE
100
AcDbEntity
  8
00_COMPONENTS_4
100
AcDbLine
 62
7
  6
BYLAYER
 10
30.4674788501
 20
24.0054540361
 11
30.4753826484
 21
23.224750063
  0
LINE
  5
2AF
100
AcDbEntity
  8
00_COMPONENTS_4
100
AcDbLine
 62
7
  6
BYLAYER
 10
30.7753367939
 20
23.3752600702
 11
30.7674331586
 21
24.155969463
  0
LINE
  5
2B0
100
AcDbEntity
  8
00_COMPONENTS
100
AcDbLine
 62
7
  6
BYLAYER
 10
30.1646532238
 20
14.0752654899
 11
30.1646532238
 21
14.1252654899
  0
LINE
  5
2B1
100
AcDbEntity
  8
00_COMPONENTS
100
AcDbLine
 62
7
  6
BYLAYER
 10
30.1646532238
 20
34.9252654899
 11
30.1646532238
 21
34.9752654899
  0
LINE
  5
2B2
100
AcDbEntity
  8
00_COMPONENTS_4
100
AcDbLine
 62
7
  6
BYLAYER
 10
30.1675245415
 20
34.5780911162
 11
30.1675245415
 21
34.8780454344
  0
LINE
  5
2B3
100
AcDbEntity
  8
00_COMPONENTS_4
100
AcDbLine
 62
7
  6
BYLAYER
 10
30.1954526454
 20
14.1445574464
 11
30.1954526454
 21
14.4445117598
  0
LINE
  5
2B4
100
AcDbEntity
  8
00_COMPONENTS_4
100
AcDbLine
 62
7
  6
BYLAYER
 10
30.4674788501
 20
24.0054540361
 11
30.4674788501
 21
34.2781368077
  0
LINE
  5
2B5
100
AcDbEntity
  8
00_COMPONENTS_4
100
AcDbLine
 62
7
  6
BYLAYER
 10
30.4753826484
 20
23.0752654899
 11
30.4753826484
 21
23.224750063
  0
LINE
  5
2B6
100
AcDbEntity
  8
00_COMPONENTS_4
100
AcDbLine
 62
7
  6
BYLAYER
 10
30.4954069539
 20
14.7444660683
 11
30.4954069539
 21
23.0753111814
  0
LINE
  5
2B7
100
AcDbEntity
  8
00_COMPONENTS_4
100
AcDbLine
 62
7
  6
BYLAYER
 10
30.7674331683
 20
34.2781368077
 11
30.7674331586
 21
24.155969463
  0
LINE
  5
2B8
100
AcDbEntity
  8
00_COMPONENTS_4
100
AcDbLine
 62
7
  6
BYLAYER
 10
30.7953612625
 20
23.3752654899
 11
30.7953612722
 21
14.7444660683
  0
LINE
  5
2B9
100
AcDbEntity
  8
00_COMPONENTS_4
100
AcDbLine
 62
7
  6
BYLAYER
 10
30.8146532238
 20
14.7251816707
 11
30.8146532238
 21
34.3253493091
  0
LINE
  5
2BA
100
AcDbEntity
  8
00_COMPONENTS
100
AcDbLine
 62
7
  6
BYLAYER
 10
30.8646532238
 20
14.7752654899
 11
30.8646532238
 21
15.0252654899
  0
LINE
  5
2BB
100
AcDbEntity
  8
00_COMPONENTS
100
AcDbLine
 62
7
  6
BYLAYER
 10
30.8646532238
 20
34.0252654899
 11
30.8646532238
 21
34.2752654899
  0
LINE
  5
2BC
100
AcDbEntity
  8
00_COMPONENTS
100
AcDbLine
 62
7
  6
BYLAYER
 10
30.9098009483
 20
15.0252654899
 11
30.9098009483
 21
34.0252654899
  0
LINE
  5
2BD
100
AcDbEntity
  8
00_COMPONENTS
100
AcDbLine
 62
7
  6
BYLAYER
 10
30.9392568378
 20
15.9252654899
 11
30.9392568378
 21
33.1252654899
  0
LINE
  5
2BE
100
AcDbEntity
  8
00_COMPONENTS
100
AcDbLine
 62
7
  6
BYLAYER
 10
30.9490708366
 20
15.0252654899
 11
30.9490708366
 21
15.9252654899
  0
LINE
  5
2BF
100
AcDbEntity
  8
00_COMPONENTS
100
AcDbLine
 62
7
  6
BYLAYER
 10
30.9490708366
 20
33.1252654899
 11
30.9490708366
 21
34.0252654899
  0
ARC
  5
2C0
100
AcDbEntity
  8
00_COMPONENTS_3
100
AcDbCircle
 62
7
  6
BYLAYER
 10
29.7646532238
 20
15.0252654899
 40
1.0
100
AcDbArc
 50
270.0
 51
290.3733570612
  0
ARC
  5
2C1
100
AcDbEntity
  8
00_COMPONENTS_3
100
AcDbCircle
 62
7
  6
BYLAYER
 10
29.7646532238
 20
34.0252654899
 40
1.0
100
AcDbArc
 50
69.6266429388
 51
90.0
  0
ARC
  5
2C2
100
AcDbEntity
  8
00_COMPONENTS_3
100
AcDbCircle
 62
7
  6
BYLAYER
 10
4.7646532238
 20
15.0252654899
 40
1.0
100
AcDbArc
 50
249.6266429388
 51
270.0
  0
ARC
  5
2C3
100
AcDbEntity
  8
00_COMPONENTS_3
100
AcDbCircle
 62
7
  6
BYLAYER
 10
4.7646532238
 20
34.0252654899
 40
1.0
100
AcDbArc
 50
90.0
 51
110.3733570612
  0
ARC
  5
2C4
100
AcDbEntity
  8
00_COMPONENTS
100
AcDbCircle
 62
7
  6
BYLAYER
 10
30.1646532238
 20
14.7752654899
 40
0.7
100
AcDbArc
 50
270.0
 51
360.0
  0
ARC
  5
2C5
100
AcDbEntity
  8
00_COMPONENTS
100
AcDbCircle
 62
7
  6
BYLAYER
 10
30.1646532238
 20
34.2752654899
 40
0.7
100
AcDbArc
 50
0.0
 51
90.0
  0
ARC
  5
2C6
100
AcDbEntity
  8
00_COMPONENTS
100
AcDbCircle
 62
7
  6
BYLAYER
 10
4.3646532238
 20
34.2752654899
 40
0.7
100
AcDbArc
 50
90.0
 51
180.0
  0
ARC
  5
2C7
100
AcDbEntity
  8
00_COMPONENTS
100
AcDbCircle
 62
7
  6
BYLAYER
 10
4.3646532238
 20
14.7752654899
 40
0.7
100
AcDbArc
 50
180.0
 51
270.0
  0
ARC
  5
2C8
100
AcDbEntity
  8
00_COMPONENTS_4
100
AcDbCircle
 62
7
  6
BYLAYER
 10
30.4753598024
 20
23.3752362455
 40
0.299968617
100
AcDbArc
 50
270.0043636885
 51
0.0055856945
  0
ARC
  5
2C9
100
AcDbEntity
  8
00_COMPONENTS_4
100
AcDbCircle
 62
7
  6
BYLAYER
 10
10.7646532238
 20
16.5752654899
 40
0.2
100
AcDbArc
 50
270.0
 51
360.0
  0
ARC
  5
2CA
100
AcDbEntity
  8
00_COMPONENTS_4
100
AcDbCircle
 62
7
  6
BYLAYER
 10
10.7646532238
 20
20.1752654899
 40
0.2
100
AcDbArc
 50
0.0
 51
90.0
  0
ARC
  5
2CB
100
AcDbEntity
  8
00_COMPONENTS_4
100
AcDbCircle
 62
7
  6
BYLAYER
 10
7.1646532238
 20
20.1752654899
 40
0.2
100
AcDbArc
 50
90.0
 51
180.0
  0
ARC
  5
2CC
100
AcDbEntity
  8
00_COMPONENTS_4
100
AcDbCircle
 62
7
  6
BYLAYER
 10
7.1646532238
 20
16.5752654899
 40
0.2
100
AcDbArc
 50
180.0
 51
270.0
  0
ARC
  5
2CD
100
AcDbEntity
  8
00_COMPONENTS
100
AcDbCircle
 62
7
  6
BYLAYER
 10
7.1646532238
 20
20.1752654899
 40
0.1
100
AcDbArc
 50
90.0
 51
180.0
  0
ARC
  5
2CE
100
AcDbEntity
  8
00_COMPONENTS
100
AcDbCircle
 62
7
  6
BYLAYER
 10
7.1646532238
 20
16.5752654899
 40
0.1
100
AcDbArc
 50
180.0
 51
270.0
  0
ARC
  5
2CF
100
AcDbEntity
  8
00_COMPONENTS
100
AcDbCircle
 62
7
  6
BYLAYER
 10
10.7646532238
 20
16.5752654899
 40
0.1
100
AcDbArc
 50
270.0
 51
360.0
  0
ARC
  5
2D0
100
AcDbEntity
  8
00_COMPONENTS
100
AcDbCircle
 62
7
  6
BYLAYER
 10
10.7646532238
 20
20.1752654899
 40
0.1
100
AcDbArc
 50
0.0
 51
90.0
  0
ARC
  5
2D1
100
AcDbEntity
  8
00_COMPONENTS
100
AcDbCircle
 62
7
  6
BYLAYER
 10
23.6146532238
 20
21.4752654899
 40
0.1
100
AcDbArc
 50
90.0
 51
180.0
  0
ARC
  5
2D2
100
AcDbEntity
  8
00_COMPONENTS
100
AcDbCircle
 62
7
  6
BYLAYER
 10
23.6146532238
 20
15.9752654899
 40
0.1
100
AcDbArc
 50
180.0
 51
270.0
  0
ARC
  5
2D3
100
AcDbEntity
  8
00_COMPONENTS
100
AcDbCircle
 62
7
  6
BYLAYER
 10
26.5146532238
 20
15.9752654899
 40
0.1
100
AcDbArc
 50
270.0
 51
360.0
  0
ARC
  5
2D4
100
AcDbEntity
  8
00_COMPONENTS
100
AcDbCircle
 62
7
  6
BYLAYER
 10
26.5146532238
 20
21.4752654899
 40
0.1
100
AcDbArc
 50
0.0
 51
90.0
  0
SPLINE
  5
2D5
100
AcDbEntity
  8
00_COMPONENTS_4
100
AcDbSpline
 62
7
  6
BYLAYER
 70
0
 71
3
 72
11
 73
7
 74
0
 42
0.0000001
 43
0.0000001
 44
0.0000000001
 40
0.0
 40
0.0
 40
0.0
 40
0.0
 40
0.2499415778
 40
0.4999998822
 40
0.7500587343
 40
1.0
 40
1.0
 40
1.0
 40
1.0
 10
30.4674788501
 20
34.2781368077
 30
0.0
 10
30.4673896263
 20
34.2977318462
 30
0.0
 10
30.4635660891
 20
34.3370237976
 30
0.0
 10
30.4464968868
 20
34.3936917715
 30
0.0
 10
30.4184997854
 20
34.4458335409
 30
0.0
 10
30.3934221143
 20
34.4763228491
 30
0.0
 10
30.3796298084
 20
34.4902420746
 30
0.0
  0
SPLINE
  5
2D6
100
AcDbEntity
  8
00_COMPONENTS_4
100
AcDbSpline
 62
7
  6
BYLAYER
 70
0
 71
3
 72
11
 73
7
 74
0
 42
0.0000001
 43
0.0000001
 44
0.0000000001
 40
0.0
 40
0.0
 40
0.0
 40
0.0
 40
0.2505144506
 40
0.4999999769
 40
0.7494855142
 40
1.0
 40
1.0
 40
1.0
 40
1.0
 10
30.5916972577
 20
34.7023095238
 30
0.0
 10
30.56392986
 20
34.7300769215
 30
0.0
 10
30.5027484907
 20
34.7800356383
 30
0.0
 10
30.3984103204
 20
34.8355534885
 30
0.0
 10
30.2853802973
 20
34.8700918825
 30
0.0
 10
30.2067935907
 20
34.8780394632
 30
0.0
 10
30.1675245552
 20
34.8780454425
 30
0.0
  0
SPLINE
  5
2D7
100
AcDbEntity
  8
00_COMPONENTS_4
100
AcDbSpline
 62
7
  6
BYLAYER
 70
0
 71
3
 72
11
 73
7
 74
0
 42
0.0000001
 43
0.0000001
 44
0.0000000001
 40
0.0
 40
0.0
 40
0.0
 40
0.0
 40
0.2505144858
 40
0.5000000231
 40
0.7494855494
 40
1.0
 40
1.0
 40
1.0
 40
1.0
 10
30.7674331763
 20
34.2781368165
 30
0.0
 10
30.7674271974
 20
34.3174058524
 30
0.0
 10
30.7594796171
 20
34.3959925599
 30
0.0
 10
30.7249412234
 20
34.5090225844
 30
0.0
 10
30.6694233729
 20
34.6133607559
 30
0.0
 10
30.6194646556
 20
34.6745421259
 30
0.0
 10
30.5916972577
 20
34.7023095238
 30
0.0
  0
SPLINE
  5
2D8
100
AcDbEntity
  8
00_COMPONENTS_4
100
AcDbSpline
 62
7
  6
BYLAYER
 70
0
 71
3
 72
11
 73
7
 74
0
 42
0.0000001
 43
0.0000001
 44
0.0000000001
 40
0.0
 40
0.0
 40
0.0
 40
0.0
 40
0.2505144506
 40
0.4999999769
 40
0.7494855142
 40
1.0
 40
1.0
 40
1.0
 40
1.0
 10
3.9376091899
 20
34.7023095238
 30
0.0
 10
3.9098417919
 20
34.6745421259
 30
0.0
 10
3.8598830746
 20
34.6133607559
 30
0.0
 10
3.8043652242
 20
34.5090225844
 30
0.0
 10
3.7698268305
 20
34.3959925599
 30
0.0
 10
3.7618792502
 20
34.3174058524
 30
0.0
 10
3.7618732712
 20
34.2781368165
 30
0.0
  0
SPLINE
  5
2D9
100
AcDbEntity
  8
00_COMPONENTS_4
100
AcDbSpline
 62
7
  6
BYLAYER
 70
0
 71
3
 72
11
 73
7
 74
0
 42
0.0000001
 43
0.0000001
 44
0.0000000001
 40
0.0
 40
0.0
 40
0.0
 40
0.0
 40
0.2505144858
 40
0.5000000231
 40
0.7494855494
 40
1.0
 40
1.0
 40
1.0
 40
1.0
 10
4.3617818924
 20
34.8780454425
 30
0.0
 10
4.3225128569
 20
34.8780394632
 30
0.0
 10
4.2439261502
 20
34.8700918825
 30
0.0
 10
4.1308961271
 20
34.8355534885
 30
0.0
 10
4.0265579569
 20
34.7800356383
 30
0.0
 10
3.9653765876
 20
34.7300769215
 30
0.0
 10
3.9376091899
 20
34.7023095238
 30
0.0
  0
SPLINE
  5
2DA
100
AcDbEntity
  8
00_COMPONENTS_4
100
AcDbSpline
 62
7
  6
BYLAYER
 70
0
 71
3
 72
11
 73
7
 74
0
 42
0.0000001
 43
0.0000001
 44
0.0000000001
 40
0.0
 40
0.0
 40
0.0
 40
0.0
 40
0.2499415778
 40
0.4999998822
 40
0.7500587343
 40
1.0
 40
1.0
 40
1.0
 40
1.0
 10
4.361781906
 20
34.5780911162
 30
0.0
 10
4.3421868675
 20
34.5780018924
 30
0.0
 10
4.3028949161
 20
34.5741783552
 30
0.0
 10
4.2462269422
 20
34.5571091529
 30
0.0
 10
4.1940851728
 20
34.5291120515
 30
0.0
 10
4.1635958646
 20
34.5040343805
 30
0.0
 10
4.1496766392
 20
34.4902420746
 30
0.0
  0
SPLINE
  5
2DB
100
AcDbEntity
  8
00_COMPONENTS_4
100
AcDbSpline
 62
7
  6
BYLAYER
 70
0
 71
3
 72
11
 73
7
 74
0
 42
0.0000001
 43
0.0000001
 44
0.0000000001
 40
0.0
 40
0.0
 40
0.0
 40
0.0
 40
0.2499412657
 40
0.5000001178
 40
0.7500584222
 40
1.0
 40
1.0
 40
1.0
 40
1.0
 10
4.1496766392
 20
34.4902420746
 30
0.0
 10
4.1358843333
 20
34.4763228491
 30
0.0
 10
4.1108066622
 20
34.4458335409
 30
0.0
 10
4.0828095608
 20
34.3936917715
 30
0.0
 10
4.0657403585
 20
34.3370237976
 30
0.0
 10
4.0619168213
 20
34.2977318462
 30
0.0
 10
4.0618275975
 20
34.2781368077
 30
0.0
  0
SPLINE
  5
2DC
100
AcDbEntity
  8
00_COMPONENTS_4
100
AcDbSpline
 62
7
  6
BYLAYER
 70
0
 71
3
 72
11
 73
7
 74
0
 42
0.0000001
 43
0.0000001
 44
0.0000000001
 40
0.0
 40
0.0
 40
0.0
 40
0.0
 40
0.2505144858
 40
0.5000000231
 40
0.7494855494
 40
1.0
 40
1.0
 40
1.0
 40
1.0
 10
3.7618732712
 20
14.7723941633
 30
0.0
 10
3.7618792502
 20
14.7331251275
 30
0.0
 10
3.7698268305
 20
14.6545384199
 30
0.0
 10
3.8043652242
 20
14.5415083955
 30
0.0
 10
3.8598830746
 20
14.437170224
 30
0.0
 10
3.9098417919
 20
14.375988854
 30
0.0
 10
3.9376091899
 20
14.348221456
 30
0.0
  0
SPLINE
  5
2DD
100
AcDbEntity
  8
00_COMPONENTS_4
100
AcDbSpline
 62
7
  6
BYLAYER
 70
0
 71
3
 72
11
 73
7
 74
0
 42
0.0000001
 43
0.0000001
 44
0.0000000001
 40
0.0
 40
0.0
 40
0.0
 40
0.0
 40
0.2505144506
 40
0.4999999769
 40
0.7494855142
 40
1.0
 40
1.0
 40
1.0
 40
1.0
 10
3.9376091899
 20
14.348221456
 30
0.0
 10
3.9653765878
 20
14.3204540581
 30
0.0
 10
4.0265579578
 20
14.2704953408
 30
0.0
 10
4.1308961293
 20
14.2149774904
 30
0.0
 10
4.2439261538
 20
14.1804390966
 30
0.0
 10
4.3225128613
 20
14.1724915163
 30
0.0
 10
4.3617818972
 20
14.1724855374
 30
0.0
  0
SPLINE
  5
2DE
100
AcDbEntity
  8
00_COMPONENTS_4
100
AcDbSpline
 62
7
  6
BYLAYER
 70
0
 71
3
 72
11
 73
7
 74
0
 42
0.0000001
 43
0.0000001
 44
0.0000000001
 40
0.0
 40
0.0
 40
0.0
 40
0.0
 40
0.2505144858
 40
0.5000000231
 40
0.7494855494
 40
1.0
 40
1.0
 40
1.0
 40
1.0
 10
30.1954526542
 20
14.1445574335
 30
0.0
 10
30.2347216901
 20
14.1445634125
 30
0.0
 10
30.3133083977
 20
14.1525109927
 30
0.0
 10
30.4263384221
 20
14.1870493865
 30
0.0
 10
30.5306765936
 20
14.2425672369
 30
0.0
 10
30.5918579636
 20
14.2925259542
 30
0.0
 10
30.6196253616
 20
14.3202933522
 30
0.0
  0
SPLINE
  5
2DF
100
AcDbEntity
  8
00_COMPONENTS_4
100
AcDbSpline
 62
7
  6
BYLAYER
 70
0
 71
3
 72
11
 73
7
 74
0
 42
0.0000001
 43
0.0000001
 44
0.0000000001
 40
0.0
 40
0.0
 40
0.0
 40
0.0
 40
0.2505144506
 40
0.4999999769
 40
0.7494855142
 40
1.0
 40
1.0
 40
1.0
 40
1.0
 10
30.6196253616
 20
14.3202933522
 30
0.0
 10
30.6473927595
 20
14.3480607501
 30
0.0
 10
30.6973514768
 20
14.4092421201
 30
0.0
 10
30.7528693272
 20
14.5135802916
 30
0.0
 10
30.787407721
 20
14.626610316
 30
0.0
 10
30.7953553012
 20
14.7051970236
 30
0.0
 10
30.7953612802
 20
14.7444660595
 30
0.0
  0
SPLINE
  5
2E0
100
AcDbEntity
  8
00_COMPONENTS_4
100
AcDbSpline
 62
7
  6
BYLAYER
 70
0
 71
3
 72
15
 73
11
 74
0
 42
0.0000001
 43
0.0000001
 44
0.0000000001
 40
0.0
 40
0.0
 40
0.0
 40
0.0
 40
0.1503166778
 40
0.2937970083
 40
0.4276552772
 40
0.5526395212
 40
0.6705475461
 40
0.7832087317
 40
0.8925591611
 40
1.0
 40
1.0
 40
1.0
 40
1.0
 10
30.4954069539
 20
23.0753111814
 30
0.0
 10
30.5188458319
 20
23.0757202462
 30
0.0
 10
30.5647419305
 20
23.0819425313
 30
0.0
 10
30.6276012683
 20
23.1057264416
 30
0.0
 10
30.6806727815
 20
23.1400182932
 30
0.0
 10
30.7230825805
 20
23.1811922872
 30
0.0
 10
30.7552580649
 20
23.2267182209
 30
0.0
 10
30.7779180301
 20
23.2749361937
 30
0.0
 10
30.7916368546
 20
23.3246911638
 30
0.0
 10
30.7950688906
 20
23.3585125137
 30
0.0
 10
30.7953612673
 20
23.3752657627
 30
0.0
  0
SPLINE
  5
2E1
100
AcDbEntity
  8
00_COMPONENTS_4
100
AcDbSpline
 62
7
  6
BYLAYER
 70
0
 71
3
 72
11
 73
7
 74
0
 42
0.0000001
 43
0.0000001
 44
0.0000000001
 40
0.0
 40
0.0
 40
0.0
 40
0.0
 40
0.2499412657
 40
0.5000001178
 40
0.7500584222
 40
1.0
 40
1.0
 40
1.0
 40
1.0
 10
30.4075579123
 20
14.5323608014
 30
0.0
 10
30.4213502182
 20
14.5462800269
 30
0.0
 10
30.4464278892
 20
14.5767693351
 30
0.0
 10
30.4744249906
 20
14.6289111045
 30
0.0
 10
30.4914941929
 20
14.6855790784
 30
0.0
 10
30.4953177302
 20
14.7248710297
 30
0.0
 10
30.4954069539
 20
14.7444660683
 30
0.0
  0
SPLINE
  5
2E2
100
AcDbEntity
  8
00_COMPONENTS_4
100
AcDbSpline
 62
7
  6
BYLAYER
 70
0
 71
3
 72
11
 73
7
 74
0
 42
0.0000001
 43
0.0000001
 44
0.0000000001
 40
0.0
 40
0.0
 40
0.0
 40
0.0
 40
0.2499415778
 40
0.4999998822
 40
0.7500587343
 40
1.0
 40
1.0
 40
1.0
 40
1.0
 10
30.1954526454
 20
14.4445117598
 30
0.0
 10
30.215047684
 20
14.4446009835
 30
0.0
 10
30.2543396353
 20
14.4484245208
 30
0.0
 10
30.3110076092
 20
14.4654937231
 30
0.0
 10
30.3631493786
 20
14.4934908245
 30
0.0
 10
30.3936386868
 20
14.5185684955
 30
0.0
 10
30.4075579123
 20
14.5323608014
 30
0.0
  0
SPLINE
  5
2E3
100
AcDbEntity
  8
00_COMPONENTS_4
100
AcDbSpline
 62
7
  6
BYLAYER
 70
0
 71
3
 72
18
 73
14
 74
0
 42
0.0000001
 43
0.0000001
 44
0.0000000001
 40
0.0
 40
0.0
 40
0.0
 40
0.0
 40
0.0838102105
 40
0.1670274235
 40
0.2485735887
 40
0.3275343983
 40
0.5438746349
 40
0.6390554734
 40
0.7251855125
 40
0.8028749185
 40
0.8733662832
 40
0.9383576987
 40
1.0
 40
1.0
 40
1.0
 40
1.0
 10
21.5646247869
 20
14.4457430557
 30
0.0
 10
21.5645477105
 20
14.4353296714
 30
0.0
 10
21.5637868404
 20
14.4145759739
 30
0.0
 10
21.560896493
 20
14.3838110218
 30
0.0
 10
21.556313077
 20
14.3538523498
 30
0.0
 10
21.5463819715
 20
14.3080924497
 30
0.0
 10
21.5304493521
 20
14.2618057647
 30
0.0
 10
21.5064098627
 20
14.2185180614
 30
0.0
 10
21.4872215602
 20
14.1925500483
 30
0.0
 10
21.4664910485
 20
14.1719242728
 30
0.0
 10
21.4445454355
 20
14.156793329
 30
0.0
 10
21.4217553141
 20
14.1473062593
 30
0.0
 10
21.4060343782
 20
14.1447984836
 30
0.0
 10
21.3983789313
 20
14.1445574512
 30
0.0
  0
SPLINE
  5
2E4
100
AcDbEntity
  8
00_COMPONENTS_4
100
AcDbSpline
 62
7
  6
BYLAYER
 70
0
 71
3
 72
14
 73
10
 74
0
 42
0.0000001
 43
0.0000001
 44
0.0000000001
 40
0.0
 40
0.0
 40
0.0
 40
0.0
 40
0.2933154744
 40
0.4286427579
 40
0.555778889
 40
0.6750265007
 40
0.7875694811
 40
0.8951286608
 40
1.0
 40
1.0
 40
1.0
 40
1.0
 10
20.8101464698
 20
23.0742345722
 30
0.0
 10
20.8257574788
 20
23.0311697157
 30
0.0
 10
20.8545382368
 20
22.9699803833
 30
0.0
 10
20.9047896466
 20
22.898996882
 30
0.0
 10
20.9454398281
 20
22.8551105029
 30
0.0
 10
20.9895488838
 20
22.8201305851
 30
0.0
 10
21.0362983845
 20
22.7945662926
 30
0.0
 10
21.0848839622
 20
22.778861401
 30
0.0
 10
21.1181554695
 20
22.7752653379
 30
0.0
 10
21.1345332153
 20
22.7752653361
 30
0.0
  0
SPLINE
  5
2E5
100
AcDbEntity
  8
00_COMPONENTS_4
100
AcDbSpline
 62
7
  6
BYLAYER
 70
0
 71
3
 72
19
 73
15
 74
0
 42
0.0000001
 43
0.0000001
 44
0.0000000001
 40
0.0
 40
0.0
 40
0.0
 40
0.0
 40
0.1240874885
 40
0.2482398131
 40
0.3724743103
 40
0.4967980761
 40
0.5590341468
 40
0.6213493507
 40
0.6838329372
 40
0.7464790259
 40
0.8094915706
 40
0.8728875261
 40
0.9365281048
 40
1.0
 40
1.0
 40
1.0
 40
1.0
 10
20.6527784213
 20
23.5083535258
 30
0.0
 10
20.6493188882
 20
23.5321130853
 30
0.0
 10
20.6431040856
 20
23.5797529895
 30
0.0
 10
20.6366377506
 20
23.6515577386
 30
0.0
 10
20.6336812262
 20
23.723644681
 30
0.0
 10
20.6349656255
 20
23.7838333986
 30
0.0
 10
20.6392604469
 20
23.8318159411
 30
0.0
 10
20.6445431412
 20
23.8676456374
 30
0.0
 10
20.6526776621
 20
23.9030421219
 30
0.0
 10
20.6647556545
 20
23.9375014473
 30
0.0
 10
20.6824551673
 20
23.9697668652
 30
0.0
 10
20.7086256797
 20
23.9967446504
 30
0.0
 10
20.7444007603
 20
24.0102711606
 30
0.0
 10
20.7695461595
 20
24.0080923372
 30
0.0
 10
20.7815408202
 20
24.0054540362
 30
0.0
  0
SPLINE
  5
2E6
100
AcDbEntity
  8
00_COMPONENTS_4
100
AcDbSpline
 62
7
  6
BYLAYER
 70
0
 71
3
 72
14
 73
10
 74
0
 42
0.0000001
 43
0.0000001
 44
0.0000000001
 40
0.0
 40
0.0
 40
0.0
 40
0.0
 40
0.1070151701
 40
0.2219324399
 40
0.3446589686
 40
0.4741259268
 40
0.6080027529
 40
0.7428965898
 40
1.0
 40
1.0
 40
1.0
 40
1.0
 10
21.3889327066
 20
23.0752654899
 30
0.0
 10
21.3734122217
 20
23.0752654725
 30
0.0
 10
21.3411227562
 20
23.0717544415
 30
0.0
 10
21.2934417803
 20
23.055465909
 30
0.0
 10
21.2477248398
 20
23.0273283892
 30
0.0
 10
21.2071363275
 20
22.9881648582
 30
0.0
 10
21.1743105775
 20
22.9401671539
 30
0.0
 10
21.1436372843
 20
22.869993773
 30
0.0
 10
21.1345332338
 20
22.8125533772
 30
0.0
 10
21.1345332155
 20
22.7752654899
 30
0.0
  0
SPLINE
  5
2E7
100
AcDbEntity
  8
00_COMPONENTS_4
100
AcDbSpline
 62
7
  6
BYLAYER
 70
0
 71
3
 72
11
 73
7
 74
0
 42
0.0000001
 43
0.0000001
 44
0.0000000001
 40
0.0
 40
0.0
 40
0.0
 40
0.0
 40
0.2094891216
 40
0.4602442965
 40
0.7324067481
 40
1.0
 40
1.0
 40
1.0
 40
1.0
 10
20.810146519
 20
23.0742346357
 30
0.0
 10
20.8229718332
 20
23.0907856937
 30
0.0
 10
20.8559823715
 20
23.1234083899
 30
0.0
 10
20.9164854879
 20
23.1650811995
 30
0.0
 10
20.9875383754
 20
23.2002006878
 30
0.0
 10
21.0387326069
 20
23.2177481414
 30
0.0
 10
21.0645460105
 20
23.224750063
 30
0.0
  0
SPLINE
  5
2E8
100
AcDbEntity
  8
00_COMPONENTS_4
100
AcDbSpline
 62
7
  6
BYLAYER
 70
0
 71
3
 72
13
 73
9
 74
0
 42
0.0000001
 43
0.0000001
 44
0.0000000001
 40
0.0
 40
0.0
 40
0.0
 40
0.0
 40
0.2393399339
 40
0.4820102361
 40
0.6063121719
 40
0.7334915178
 40
0.8644603678
 40
1.0
 40
1.0
 40
1.0
 40
1.0
 10
21.3889327065
 20
23.0752654899
 30
0.0
 10
21.3594202557
 20
23.07526549
 30
0.0
 10
21.2998328909
 20
23.0808184666
 30
0.0
 10
21.2276756951
 20
23.1024195477
 30
0.0
 10
21.1727375184
 20
23.1290292841
 30
0.0
 10
21.1329148644
 20
23.1545368774
 30
0.0
 10
21.09585111
 20
23.1861298823
 30
0.0
 10
21.0743031908
 20
23.2111808194
 30
0.0
 10
21.0645460105
 20
23.224750063
 30
0.0
  0
SPLINE
  5
2E9
100
AcDbEntity
  8
00_COMPONENTS_4
100
AcDbSpline
 62
7
  6
BYLAYER
 70
0
 71
3
 72
15
 73
11
 74
0
 42
0.0000001
 43
0.0000001
 44
0.0000000001
 40
0.0
 40
0.0
 40
0.0
 40
0.0
 40
0.1604530077
 40
0.3168236701
 40
0.4644251196
 40
0.599890013
 40
0.7207611277
 40
0.8261037645
 40
0.9176065919
 40
1.0
 40
1.0
 40
1.0
 40
1.0
 10
30.4753826484
 20
23.224750063
 30
0.0
 10
30.4947199622
 20
23.2248965534
 30
0.0
 10
30.5329146305
 20
23.2270433438
 30
0.0
 10
30.5883131746
 20
23.2356664
 30
0.0
 10
30.6395778862
 20
23.2494240572
 30
0.0
 10
30.6848152553
 20
23.2678054328
 30
0.0
 10
30.7224818829
 20
23.2901427626
 30
0.0
 10
30.7512829212
 20
23.3158603048
 30
0.0
 10
30.7700386356
 20
23.3443851948
 30
0.0
 10
30.7750366553
 20
23.3653372288
 30
0.0
 10
30.7753368754
 20
23.3752627801
 30
0.0
  0
SPLINE
  5
2EA
100
AcDbEntity
  8
00_COMPONENTS_4
100
AcDbSpline
 62
7
  6
BYLAYER
 70
0
 71
3
 72
15
 73
11
 74
0
 42
0.0000001
 43
0.0000001
 44
0.0000000001
 40
0.0
 40
0.0
 40
0.0
 40
0.0
 40
0.0824223309
 40
0.1740184751
 40
0.2794686129
 40
0.400400524
 40
0.5359435525
 40
0.683529968
 40
0.8396877361
 40
1.0
 40
1.0
 40
1.0
 40
1.0
 10
30.767433077
 20
24.1559667532
 30
0.0
 10
30.7671341769
 20
24.1460377389
 30
0.0
 10
30.7621174968
 20
24.125074614
 30
0.0
 10
30.7433532625
 20
24.0965234346
 30
0.0
 10
30.7145111545
 20
24.070801523
 30
0.0
 10
30.6768156049
 20
24.0484575471
 30
0.0
 10
30.6315550825
 20
24.0300917549
 30
0.0
 10
30.5803050109
 20
24.0163552367
 30
0.0
 10
30.5249517306
 20
24.0077319015
 30
0.0
 10
30.486799077
 20
24.0056003971
 30
0.0
 10
30.4674788501
 20
24.0054540361
 30
0.0
  0
SPLINE
  5
2EB
100
AcDbEntity
  8
00_COMPONENTS_4
100
AcDbSpline
 62
7
  6
BYLAYER
 70
0
 71
3
 72
18
 73
14
 74
0
 42
0.0000001
 43
0.0000001
 44
0.0000000001
 40
0.0
 40
0.0
 40
0.0
 40
0.0
 40
0.044152615
 40
0.0844886304
 40
0.1616257472
 40
0.2022683175
 40
0.2458008433
 40
0.2928735952
 40
0.3442566569
 40
0.4635177996
 40
0.6092467161
 40
0.7862796931
 40
1.0
 40
1.0
 40
1.0
 40
1.0
 10
20.7815408203
 20
24.155969463
 30
0.0
 10
20.7692491884
 20
24.1559694157
 30
0.0
 10
20.7456981285
 20
24.1548802564
 30
0.0
 10
20.7012081175
 20
24.1475015027
 30
0.0
 10
20.6595147951
 20
24.1320422455
 30
0.0
 10
20.6202442356
 20
24.1101428225
 30
0.0
 10
20.5905853174
 20
24.0886410162
 30
0.0
 10
20.5614264143
 20
24.061828697
 30
0.0
 10
20.5216473876
 20
24.0159400923
 30
0.0
 10
20.4758054868
 20
23.93992564
 30
0.0
 10
20.4329346985
 20
23.8239514988
 30
0.0
 10
20.4042438815
 20
23.67682156
 30
0.0
 10
20.3983789422
 20
23.5678510491
 30
0.0
 10
20.3983789313
 20
23.5083535237
 30
0.0
  0
SPLINE
  5
2EC
100
AcDbEntity
  8
00_COMPONENTS_4
100
AcDbSpline
 62
7
  6
BYLAYER
 70
0
 71
3
 72
11
 73
7
 74
0
 42
0.0000001
 43
0.0000001
 44
0.0000000001
 40
0.0
 40
0.0
 40
0.0
 40
0.0
 40
0.2499412657
 40
0.5000001178
 40
0.7500584222
 40
1.0
 40
1.0
 40
1.0
 40
1.0
 10
30.3796298084
 20
34.4902420746
 30
0.0
 10
30.3657105829
 20
34.5040343804
 30
0.0
 10
30.3352212748
 20
34.5291120515
 30
0.0
 10
30.2830795053
 20
34.5571091529
 30
0.0
 10
30.2264115314
 20
34.5741783552
 30
0.0
 10
30.1871195801
 20
34.5780018925
 30
0.0
 10
30.1675245415
 20
34.5780911162
 30
0.0
  0
SPLINE
  5
2ED
100
AcDbEntity
  8
00_COMPONENTS_4
100
AcDbSpline
 62
7
  6
BYLAYER
 70
0
 71
3
 72
14
 73
10
 74
0
 42
0.0000001
 43
0.0000001
 44
0.0000000001
 40
0.0
 40
0.0
 40
0.0
 40
0.0
 40
0.2672068136
 40
0.3981137311
 40
0.5255728014
 40
0.6491034644
 40
0.7687733868
 40
0.8854319537
 40
1.0
 40
1.0
 40
1.0
 40
1.0
 10
20.6527784225
 20
14.4724398637
 30
0.0
 10
20.6524753343
 20
14.4338051641
 30
0.0
 10
20.6424551397
 20
14.3756749027
 30
0.0
 10
20.6108106733
 20
14.3062725723
 30
0.0
 10
20.579122493
 20
14.2606453781
 30
0.0
 10
20.5405592066
 20
14.2229406675
 30
0.0
 10
20.4964293587
 20
14.194635988
 30
0.0
 10
20.4484486764
 20
14.1769594897
 30
0.0
 10
20.4149435352
 20
14.1726662102
 30
0.0
 10
20.3983789313
 20
14.1724855551
 30
0.0
  0
SPLINE
  5
2EE
100
AcDbEntity
  8
00_COMPONENTS_4
100
AcDbSpline
 62
7
  6
BYLAYER
 70
0
 71
3
 72
11
 73
7
 74
0
 42
0.0000001
 43
0.0000001
 44
0.0000000001
 40
0.0
 40
0.0
 40
0.0
 40
0.0
 40
0.2499412657
 40
0.5000001178
 40
0.7500584222
 40
1.0
 40
1.0
 40
1.0
 40
1.0
 10
4.1496766392
 20
14.5602889053
 30
0.0
 10
4.1635958646
 20
14.5464965994
 30
0.0
 10
4.1940851728
 20
14.5214189283
 30
0.0
 10
4.2462269422
 20
14.4934218269
 30
0.0
 10
4.3028949161
 20
14.4763526246
 30
0.0
 10
4.3421868675
 20
14.4725290874
 30
0.0
 10
4.361781906
 20
14.4724398637
 30
0.0
  0
SPLINE
  5
2EF
100
AcDbEntity
  8
00_COMPONENTS_4
100
AcDbSpline
 62
7
  6
BYLAYER
 70
0
 71
3
 72
11
 73
7
 74
0
 42
0.0000001
 43
0.0000001
 44
0.0000000001
 40
0.0
 40
0.0
 40
0.0
 40
0.0
 40
0.2499415778
 40
0.4999998822
 40
0.7500587343
 40
1.0
 40
1.0
 40
1.0
 40
1.0
 10
4.0618275975
 20
14.7723941722
 30
0.0
 10
4.0619168213
 20
14.7527991336
 30
0.0
 10
4.0657403585
 20
14.7135071823
 30
0.0
 10
4.0828095608
 20
14.6568392084
 30
0.0
 10
4.1108066622
 20
14.6046974389
 30
0.0
 10
4.1358843333
 20
14.5742081308
 30
0.0
 10
4.1496766392
 20
14.5602889053
 30
0.0
  0
ELLIPSE
  5
2F0
100
AcDbEntity
  8
00_COMPONENTS_4
100
AcDbEllipse
 62
7
  6
BYLAYER
 10
30.214561827
 20
34.3251740931
 30
0.0
 11
0.4243933135
 21
0.4243933135
 31
0.0
 40
0.9996954599
 41
-0.7852584744
 42
0.7852584744
  0
ELLIPSE
  5
2F1
100
AcDbEntity
  8
00_COMPONENTS_4
100
AcDbEllipse
 62
7
  6
BYLAYER
 10
4.3147446206
 20
34.3251740931
 30
0.0
 11
0.4243933135
 21
-0.4243933135
 31
0.0
 40
0.9996954599
 41
2.356331054
 42
3.9268542532
  0
ELLIPSE
  5
2F2
100
AcDbEntity
  8
00_COMPONENTS_4
100
AcDbEllipse
 62
7
  6
BYLAYER
 10
4.3147446206
 20
14.7253568868
 30
0.0
 11
0.4243933135
 21
0.4243933135
 31
0.0
 40
0.9996954599
 41
-3.9268542532
 42
-2.356331054
  0
ELLIPSE
  5
2F3
100
AcDbEntity
  8
00_COMPONENTS_4
100
AcDbEllipse
 62
7
  6
BYLAYER
 10
30.214561827
 20
14.7253568868
 30
0.0
 11
-0.4243933135
 21
0.4243933135
 31
0.0
 40
0.9996954599
 41
-3.926851128
 42
-2.3563341792
  0
ELLIPSE
  5
2F4
100
AcDbEntity
  8
00_COMPONENTS_4
100
AcDbEllipse
 62
7
  6
BYLAYER
 10
30.4901704345
 20
23.3752654899
 30
0.0
 11
0.3000456984
 21
0.0
 31
0.0
 40
0.9998476952
 41
-1.5707963268
 42
-1.5533430343
  0
ELLIPSE
  5
2F5
100
AcDbEntity
  8
00_COMPONENTS_4
100
AcDbEllipse
 62
7
  6
BYLAYER
 10
21.9184275162
 20
22.7752654899
 30
0.0
 11
0.3537742925
 21
0.0
 31
0.0
 40
0.847998304
 41
1.5707963268
 42
3.1415926536
  0
ENDSEC
  0
SECTION
  2
OBJECTS
  0
DICTIONARY
  5
C
100
AcDbDictionary
280
0
281
1
  3
ACAD_GROUP
350
D
  3
ACAD_MLINESTYLE
350
17
  3
ACAD_LAYOUT
350
1A
  3
ACAD_PLOTSETTINGS
350
19
  3
ACAD_PLOTSTYLENAME
350
E
  0
DICTIONARY
  5
D
102
{ACAD_REACTORS
330
C
102
}
100
AcDbDictionary
280
0
281
1
  0
ACDBDICTIONARYWDFLT
  5
E
102
{ACAD_REACTORS
330
C
102
}
100
AcDbDictionary
281
1
  3
Normal
350
F
100
AcDbDictionaryWithDefault
340
F
  0
DICTIONARY
  5
17
102
{ACAD_REACTORS
330
C
102
}
100
AcDbDictionary
280
0
281
1
  3
Standard
350
18
  0
DICTIONARY
  5
19
102
{ACAD_REACTORS
330
C
102
}
100
AcDbDictionary
281
1
  0
DICTIONARY
  5
1A
102
{ACAD_REACTORS
330
C
102
}
100
AcDbDictionary
281
1
  3
Model
350
2F6
  3
Layout1
350
2F7
  0
ACDBPLACEHOLDER
  5
F
102
{ACAD_REACTORS
330
E
102
}
  0
MLINESTYLE
  5
18
102
{ACAD_REACTORS
330
17
102
}
100
AcDbMlineStyle
  2
STANDARD
 70
0
  3

 62
256
 51
90.0
 52
90.0
 71
2
 49
0.5
 62
256
  6
BYLAYER
 49
-0.5
 62
256
  6
BYLAYER
  0
LAYOUT
  5
2F6
102
{ACAD_REACTORS
330
1A
102
}
100
AcDbPlotSettings
  1

  2
none_device
  4

  6

 40
0.0
 41
0.0
 42
0.0
 43
0.0
 44
210.0
 45
297.0
 46
0.0
 47
0.0
 48
0.0
 49
0.0
140
0.0
141
0.0
142
1.0
143
1.0
 70
1024
 72
1
 73
0
 74
0
  7

 75
0
147
1.0
148
0.0
149
0.0
100
AcDbLayout
  1
Model
 70
0
 71
0
 10
0.0
 20
0.0
 11
210.0
 21
297.0
 12
0.0
 22
0.0
 32
0.0
 14
0.0
 24
0.0
 34
0.0
 15
0.0
 25
0.0
 35
0.0
146
0.0
 13
0.0
 23
0.0
 33
0.0
 16
1.0
 26
0.0
 36
0.0
 17
0.0
 27
1.0
 37
0.0
 76
0
330
21C
345
0
346
0
  0
LAYOUT
  5
2F7
102
{ACAD_REACTORS
330
1A
102
}
100
AcDbPlotSettings
  1

  2
none_device
  4

  6

 40
0.0
 41
0.0
 42
0.0
 43
0.0
 44
210.0
 45
297.0
 46
0.0
 47
0.0
 48
0.0
 49
0.0
140
0.0
141
0.0
142
1.0
143
1.0
 70
0
 72
1
 73
0
 74
0
  7

 75
0
147
1.0
148
0.0
149
0.0
100
AcDbLayout
  1
Layout1
 70
0
 71
1
 10
0.0
 20
0.0
 11
210.0
 21
297.0
 12
0.0
 22
0.0
 32
0.0
 14
0.0
 24
0.0
 34
0.0
 15
0.0
 25
0.0
 35
0.0
146
0.0
 13
0.0
 23
0.0
 33
0.0
 16
1.0
 26
0.0
 36
0.0
 17
0.0
 27
1.0
 37
0.0
 76
0
330
21D
345
0
346
0
  0
ENDSEC
  0
EOF
