999
DXF file: C:\Users\sesa63760\Dev\_Creo\CAD\MCADID0002338_3D-CAD\drw0001_1.dxf
999
Pro/ENGINEER 2019471 by Parametric Technology Corporation
  0
SECTION
  2
HEADER
  9
$ACADVER
  1
AC1024
  9
$DWGCODEPAGE
  3
ANSI_1252
  9
$EXTMAX
 10
132.8584586012
 20
187.8998200217
 30
0.0
  9
$EXTMIN
 10
0.0
 20
0.0
 30
0.0
  9
$LIMMIN
 10
0.0
 20
0.0
  9
$LIMMAX
 10
132.8584586012
 20
187.8998200217
  9
$VIEWCTR
 10
66.4292293006
 20
93.9499100108
  9
$VIEWSIZE
 40
187.8998200217
  9
$CLAYER
  8
0
  9
$LTSCALE
 40
12.2482845644
  9
$CELTYPE
  6
BYLAYER
  9
$DIMSCALE
 40
1.0
  9
$DIMASZ
 40
1.5816483167
  9
$DIMEXO
 40
1.0
  9
$DIMDLI
 40
8.4624511536
  9
$DIMEXE
 40
1.0
  9
$DIMCEN
 40
2.0042647469
  9
$DIMLFAC
 40
1.0
  9
$DIMBLK
  1
_FILLED
  9
$DIMALT
 70
0
  9
$DIMALTF
 40
0.0393700787
  9
$DIMTXT
 40
2.2143076434
  9
$DIMTOL
 70
1
  9
$DIMLIM
 70
0
  9
$DIMTFAC
 40
1.0
  9
$DIMTP
 40
0.01
  9
$DIMTM
 40
0.01
  9
$DIMGAP
 40
0.625
  9
$DIMDSEP
 70
46
  9
$AUNITS
 70
0
  9
$PDMODE
 70
3
  9
$PDSIZE
 40
0.3125
  9
$HANDSEED
  5
256
  9
$TILEMODE
 70
1
  9
$MEASUREMENT
 70
1
  9
$INSUNITS
 70
4
  0
ENDSEC
  0
SECTION
  2
CLASSES
  0
CLASS
  1
ACDBDICTIONARYWDFLT
  2
AcDbDictionaryWithDefault
  3
AutoCAD 2000
 90
0
 91
1
280
0
281
0
  0
CLASS
  1
ACDBPLACEHOLDER
  2
AcDbPlaceHolder
  3
AutoCAD 2000
 90
0
 91
1
280
0
281
0
  0
CLASS
  1
LAYOUT
  2
AcDbLayout
  3
AutoCAD 2000
 90
0
 91
0
280
0
281
0
  0
ENDSEC
  0
SECTION
  2
TABLES
  0
TABLE
  2
VPORT
  5
8
100
AcDbSymbolTable
 70
2
  0
VPORT
  5
1F4
100
AcDbSymbolTableRecord
100
AcDbViewportTableRecord
  2
*ACTIVE
 70
0
 10
0.0
 20
0.0
 11
1.0
 21
1.0
 12
66.4292293006
 22
93.9499100108
 13
0.0
 23
0.0
 14
1.0
 24
1.0
 15
0.0
 25
0.0
 16
0.0
 26
0.0
 36
1.0
 17
0.0
 27
0.0
 37
0.0
 40
187.8998200217
 41
0.7070707071
 42
50.0
 43
0.0
 44
0.0
 50
0.0
 51
0.0
 71
0
 72
100
 73
1
 74
1
 75
0
 76
0
 77
0
 78
0
  0
ENDTAB
  0
TABLE
  2
LTYPE
  5
5
100
AcDbSymbolTable
 70
6
  0
LTYPE
  5
14
100
AcDbSymbolTableRecord
100
AcDbLinetypeTableRecord
  2
BYBLOCK
 70
0
  3

 72
65
 73
0
 40
0.0
  0
LTYPE
  5
15
100
AcDbSymbolTableRecord
100
AcDbLinetypeTableRecord
  2
BYLAYER
 70
0
  3

 72
65
 73
0
 40
0.0
  0
LTYPE
  5
16
100
AcDbSymbolTableRecord
100
AcDbLinetypeTableRecord
  2
CONTINUOUS
 70
64
  3
Solid line
 72
65
 73
0
 40
0.0
  0
LTYPE
  5
1F5
100
AcDbSymbolTableRecord
100
AcDbLinetypeTableRecord
  2
CENTER
 70
64
  3
____ _ ____ _ ____ _ ____ _ ____ _ ____ _ ____
 72
65
 73
4
 40
0.6
 49
0.375
 74
0
 49
-0.075
 74
0
 49
0.075
 74
0
 49
-0.075
 74
0
  0
LTYPE
  5
1F6
100
AcDbSymbolTableRecord
100
AcDbLinetypeTableRecord
  2
HIDDEN
 70
64
  3
- - - - - - - - - - - - - - - - - - - -
 72
65
 73
2
 40
0.2
 49
0.1
 74
0
 49
-0.1
 74
0
  0
LTYPE
  5
1F7
100
AcDbSymbolTableRecord
100
AcDbLinetypeTableRecord
  2
PHANTOM
 70
64
  3
_____ _ _ _____ _ _ _____ _ _ _____
 72
65
 73
6
 40
0.8
 49
0.45
 74
0
 49
-0.05
 74
0
 49
0.1
 74
0
 49
-0.05
 74
0
 49
0.1
 74
0
 49
-0.05
 74
0
  0
LTYPE
  5
1F8
100
AcDbSymbolTableRecord
100
AcDbLinetypeTableRecord
  2
DOT
 70
64
  3
. . . . . . . . . . . . . . . . . . . .
 72
65
 73
2
 40
0.2
 49
0.1
 74
0
 49
-0.1
 74
0
  0
LTYPE
  5
1F9
100
AcDbSymbolTableRecord
100
AcDbLinetypeTableRecord
  2
DASHED
 70
64
  3
- - - - - - - - - - - - - - - - - - - -
 72
65
 73
2
 40
0.2
 49
0.1
 74
0
 49
-0.1
 74
0
  0
ENDTAB
  0
TABLE
  2
LAYER
  5
2
100
AcDbSymbolTable
 70
36
  0
LAYER
  5
10
100
AcDbSymbolTableRecord
100
AcDbLayerTableRecord
  2
0
 70
0
 62
7
  6
CONTINUOUS
370
-3
390
F
  0
LAYER
  5
1FA
100
AcDbSymbolTableRecord
100
AcDbLayerTableRecord
  2
DEFAULT_1
 70
0
 62
7
  6
CENTER
370
-3
390
F
  0
LAYER
  5
1FB
100
AcDbSymbolTableRecord
100
AcDbLayerTableRecord
  2
DEFAULT_2
 70
0
 62
8
  6
HIDDEN
370
-3
390
F
  0
LAYER
  5
1FC
100
AcDbSymbolTableRecord
100
AcDbLayerTableRecord
  2
DEFAULT_3
 70
0
 62
7
  6
PHANTOM
370
-3
390
F
  0
LAYER
  5
1FD
100
AcDbSymbolTableRecord
100
AcDbLayerTableRecord
  2
00_COMPONENTS
 70
0
 62
7
  6
CONTINUOUS
370
-3
390
F
  0
LAYER
  5
1FE
100
AcDbSymbolTableRecord
100
AcDbLayerTableRecord
  2
01_1_DEFAULT_DATUMS
 70
0
 62
7
  6
CONTINUOUS
370
-3
390
F
  0
LAYER
  5
1FF
100
AcDbSymbolTableRecord
100
AcDbLayerTableRecord
  2
01_PLANES
 70
0
 62
7
  6
CONTINUOUS
370
-3
390
F
  0
LAYER
  5
200
100
AcDbSymbolTableRecord
100
AcDbLayerTableRecord
  2
02_COORD_SYS
 70
0
 62
7
  6
CONTINUOUS
370
-3
390
F
  0
LAYER
  5
201
100
AcDbSymbolTableRecord
100
AcDbLayerTableRecord
  2
03_AXES
 70
0
 62
7
  6
CONTINUOUS
370
-3
390
F
  0
LAYER
  5
202
100
AcDbSymbolTableRecord
100
AcDbLayerTableRecord
  2
04_POINTS
 70
0
 62
7
  6
CONTINUOUS
370
-3
390
F
  0
LAYER
  5
203
100
AcDbSymbolTableRecord
100
AcDbLayerTableRecord
  2
05_CURVES
 70
0
 62
7
  6
CONTINUOUS
370
-3
390
F
  0
LAYER
  5
204
100
AcDbSymbolTableRecord
100
AcDbLayerTableRecord
  2
06_SURFS
 70
0
 62
7
  6
CONTINUOUS
370
-3
390
F
  0
LAYER
  5
205
100
AcDbSymbolTableRecord
100
AcDbLayerTableRecord
  2
07_COSMETICS
 70
0
 62
7
  6
CONTINUOUS
370
-3
390
F
  0
LAYER
  5
206
100
AcDbSymbolTableRecord
100
AcDbLayerTableRecord
  2
10_NOTES
 70
0
 62
7
  6
CONTINUOUS
370
-3
390
F
  0
LAYER
  5
207
100
AcDbSymbolTableRecord
100
AcDbLayerTableRecord
  2
11_NOTES_PUB
 70
0
 62
7
  6
CONTINUOUS
370
-3
390
F
  0
LAYER
  5
208
100
AcDbSymbolTableRecord
100
AcDbLayerTableRecord
  2
13_REF_GTOL
 70
0
 62
7
  6
CONTINUOUS
370
-3
390
F
  0
LAYER
  5
209
100
AcDbSymbolTableRecord
100
AcDbLayerTableRecord
  2
16_MISC
 70
0
 62
7
  6
CONTINUOUS
370
-3
390
F
  0
LAYER
  5
20A
100
AcDbSymbolTableRecord
100
AcDbLayerTableRecord
  2
17_NO_PRINT
 70
0
 62
7
  6
CONTINUOUS
370
-3
390
F
  0
LAYER
  5
20B
100
AcDbSymbolTableRecord
100
AcDbLayerTableRecord
  2
18_DATUM_CAMS_JOINTS
 70
0
 62
7
  6
CONTINUOUS
370
-3
390
F
  0
LAYER
  5
20C
100
AcDbSymbolTableRecord
100
AcDbLayerTableRecord
  2
19_DATUM_FUNCTIONAL
 70
0
 62
7
  6
CONTINUOUS
370
-3
390
F
  0
LAYER
  5
20D
100
AcDbSymbolTableRecord
100
AcDbLayerTableRecord
  2
20_DATUM_KINEMATIC_SCHEME
 70
0
 62
7
  6
CONTINUOUS
370
-3
390
F
  0
ENDTAB
  0
TABLE
  2
STYLE
  5
3
100
AcDbSymbolTable
 70
1
  0
STYLE
  5
11
100
AcDbSymbolTableRecord
100
AcDbTextStyleTableRecord
  2
STANDARD
 70
0
 40
0.0
 41
0.8
 50
0.0
 71
0
 42
0.2
  3
txt
  4

  0
STYLE
  5
20E
100
AcDbSymbolTableRecord
100
AcDbTextStyleTableRecord
  2
TEXTSTYLE_1
 70
0
 40
0.0
 41
0.8
 50
0.0
 71
0
 42
0.2
  3
gdt
  4

  0
ENDTAB
  0
TABLE
  2
VIEW
  5
6
100
AcDbSymbolTable
 70
0
  0
ENDTAB
  0
TABLE
  2
UCS
  5
7
100
AcDbSymbolTable
 70
0
  0
ENDTAB
  0
TABLE
  2
APPID
  5
9
100
AcDbSymbolTable
 70
1
  0
APPID
  5
20F
100
AcDbSymbolTableRecord
100
AcDbRegAppTableRecord
  2
ACAD
 70
0
  0
ENDTAB
  0
TABLE
  2
BLOCK_RECORD
  5
1
100
AcDbSymbolTable
 70
0
  0
BLOCK_RECORD
  5
210
100
AcDbSymbolTableRecord
100
AcDbBlockTableRecord
  2
*Model_Space
  0
BLOCK_RECORD
  5
211
100
AcDbSymbolTableRecord
100
AcDbBlockTableRecord
  2
*Paper_Space
  0
BLOCK_RECORD
  5
212
100
AcDbSymbolTableRecord
100
AcDbBlockTableRecord
  2
_FILLED
  0
ENDTAB
  0
TABLE
  2
DIMSTYLE
  5
A
100
AcDbSymbolTable
 70
1
100
AcDbDimStyleTable
 71
0
  0
DIMSTYLE
105
213
100
AcDbSymbolTableRecord
100
AcDbDimStyleTableRecord
  2
STANDARD
 70
0
  3

  4

 40
1.0
 41
1.5816483167
 42
1.0
 43
0.38
 44
1.0
 45
0.0
 46
0.0
 47
0.01
 48
0.01
140
2.2143076434
141
0.09
142
0.0
143
25.4
144
1.0
145
0.0
146
1.0
147
0.625
 71
1
 72
0
 73
0
 74
0
 75
0
 76
0
 77
1
 78
8
 79
2
170
0
171
1
172
0
173
0
174
0
175
0
176
0
177
0
178
0
270
2
179
2
271
2
272
2
273
2
274
2
275
0
280
0
281
0
282
0
283
1
284
8
285
0
286
0
287
3
288
0
340
11
278
46
341
212
342
212
343
212
344
212
  0
ENDTAB
  0
ENDSEC
  0
SECTION
  2
BLOCKS
  0
BLOCK
  5
20
100
AcDbEntity
  8
0
100
AcDbBlockBegin
  2
*Model_Space
 70
0
 10
0.0
 20
0.0
 30
0.0
  3
*Model_Space
  1

  0
ENDBLK
  5
21
100
AcDbEntity
  8
0
100
AcDbBlockEnd
  0
BLOCK
  5
1C
100
AcDbEntity
  8
0
100
AcDbBlockBegin
  2
*Paper_Space
 70
0
 10
0.0
 20
0.0
 30
0.0
  3
*Paper_Space
  1

  0
ENDBLK
  5
1D
100
AcDbEntity
  8
0
100
AcDbBlockEnd
  0
BLOCK
  5
214
100
AcDbEntity
  8
0
100
AcDbBlockBegin
  2
_FILLED
 70
64
 10
0.0
 20
0.0
  3
_FILLED
  1

  0
SOLID
  5
215
100
AcDbEntity
  8
0
  6
BYBLOCK
 62
0
100
AcDbTrace
 10
0.0
 20
0.0
 11
-1.0
 21
0.25
 12
-1.0
 22
-0.25
 13
-1.0
 23
-0.25
  0
ENDBLK
  5
216
100
AcDbEntity
  8
0
  6
BYBLOCK
 62
0
100
AcDbBlockEnd
  0
ENDSEC
  0
SECTION
  2
ENTITIES
  0
LINE
  5
217
100
AcDbEntity
  8
0
100
AcDbLine
 62
7
  6
CONTINUOUS
 10
16.4057825171
 20
150.3616303369
 11
23.4768208892
 21
154.4440718756
  0
LINE
  5
218
100
AcDbEntity
  8
0
100
AcDbLine
 62
7
  6
CONTINUOUS
 10
18.8025852883
 20
150.1240624195
 11
25.8736236604
 21
154.2065039582
  0
LINE
  5
219
100
AcDbEntity
  8
0
100
AcDbLine
 62
7
  6
CONTINUOUS
 10
29.1006107189
 20
152.3434442145
 11
29.3986224276
 21
152.5155003276
  0
LINE
  5
21A
100
AcDbEntity
  8
0
100
AcDbLine
 62
7
  6
CONTINUOUS
 10
56.8549813141
 20
162.1141092286
 11
34.8141581955
 21
149.3889100271
  0
LINE
  5
21B
100
AcDbEntity
  8
0
100
AcDbLine
 62
7
  6
CONTINUOUS
 10
36.2783361782
 20
148.5435855984
 11
59.3545623457
 21
161.8665714606
  0
LINE
  5
21C
100
AcDbEntity
  8
0
100
AcDbLine
 62
7
  6
CONTINUOUS
 10
15.4131097706
 20
70.9503053715
 11
15.4131097706
 21
148.1670918995
  0
LINE
  5
21D
100
AcDbEntity
  8
0
100
AcDbLine
 62
7
  6
CONTINUOUS
 10
85.674084416
 20
26.4721895526
 11
18.8025852547
 21
65.0795941783
  0
LINE
  5
21E
100
AcDbEntity
  8
0
100
AcDbLine
 62
7
  6
CONTINUOUS
 10
33.6602521096
 20
120.4765012785
 11
36.4023854664
 21
122.05966326
  0
LINE
  5
21F
100
AcDbEntity
  8
0
100
AcDbLine
 62
7
  6
CONTINUOUS
 10
91.4828562955
 20
116.6719620807
 11
91.1848445881
 21
116.4999059683
  0
LINE
  5
220
100
AcDbEntity
  8
0
100
AcDbLine
 62
7
  6
CONTINUOUS
 10
115.9738471393
 20
129.1781516546
 11
92.7128337971
 21
115.7484795043
  0
LINE
  5
221
100
AcDbEntity
  8
0
100
AcDbLine
 62
7
  6
CONTINUOUS
 10
92.6038946121
 20
115.6806356328
 11
85.53285624
 21
111.5981940941
  0
LINE
  5
222
100
AcDbEntity
  8
0
100
AcDbLine
 62
7
  6
CONTINUOUS
 10
89.0635599291
 20
105.4828698258
 11
96.1345983012
 21
109.5653113645
  0
LINE
  5
223
100
AcDbEntity
  8
0
100
AcDbLine
 62
7
  6
CONTINUOUS
 10
96.2478639018
 20
109.6256326313
 11
119.5089222048
 21
123.0553307397
  0
LINE
  5
224
100
AcDbEntity
  8
0
100
AcDbLine
 62
7
  6
CONTINUOUS
 10
96.1345982601
 20
107.9266954506
 11
96.4326243715
 21
108.0987598792
  0
LINE
  5
225
100
AcDbEntity
  8
0
100
AcDbLine
 62
7
  6
CONTINUOUS
 10
89.0635599291
 20
105.4828698258
 11
89.0635599291
 21
28.4291600699
  0
LINE
  5
226
100
AcDbEntity
  8
0
100
AcDbLine
 62
7
  6
CONTINUOUS
 10
96.13459826
 20
109.5647933277
 11
96.1345982662
 21
32.5120937936
  0
LINE
  5
227
100
AcDbEntity
  8
0
100
AcDbLine
 62
7
  6
CONTINUOUS
 10
96.4326243715
 20
36.4098476552
 11
96.4326243715
 21
108.0987598792
  0
LINE
  5
228
100
AcDbEntity
  8
0
100
AcDbLine
 62
7
  6
CONTINUOUS
 10
18.8025852883
 20
150.1240624195
 11
85.53285624
 21
111.5981940941
  0
LINE
  5
229
100
AcDbEntity
  8
0
100
AcDbLine
 62
7
  6
CONTINUOUS
 10
70.8164175901
 20
56.1197506962
 11
73.5586009806
 21
57.7029415645
  0
LINE
  5
22A
100
AcDbEntity
  8
0
100
AcDbLine
 62
7
  6
CONTINUOUS
 10
25.8740446942
 20
154.2062608348
 11
92.603445938
 21
115.6808946256
  0
LINE
  5
22B
100
AcDbEntity
  8
0
100
AcDbLine
 62
7
  6
CONTINUOUS
 10
91.4828562955
 20
116.6719620807
 11
29.3986224276
 21
152.5155003276
  0
LINE
  5
22C
100
AcDbEntity
  8
0
100
AcDbLine
 62
7
  6
CONTINUOUS
 10
119.5089222048
 20
57.6768169829
 11
119.5089222048
 21
123.0553307397
  0
LINE
  5
22D
100
AcDbEntity
  8
0
100
AcDbLine
 62
7
  6
CONTINUOUS
 10
119.5089222048
 20
57.6768169829
 11
96.4326243715
 21
44.3537897448
  0
LINE
  5
22E
100
AcDbEntity
  8
0
100
AcDbLine
 62
7
  6
CONTINUOUS
 10
115.9738471393
 20
129.1781516546
 11
59.3545623457
 21
161.8665714606
  0
LINE
  5
22F
100
AcDbEntity
  8
0
100
AcDbLine
 62
7
  6
CONTINUOUS
 10
118.473492875
 20
55.388206963
 11
96.4326243715
 21
42.6629815587
  0
LINE
  5
230
100
AcDbEntity
  8
0
100
AcDbLine
 62
7
  6
CONTINUOUS
 10
96.4326243715
 20
36.4098476552
 11
96.1345982659
 21
36.23778323
  0
LINE
  5
231
100
AcDbEntity
  8
0
100
AcDbLine
 62
7
  6
CONTINUOUS
 10
96.1345983012
 20
32.5116016086
 11
89.0635599291
 21
28.4291600699
  0
LINE
  5
232
100
AcDbEntity
  8
0
100
AcDbLine
 62
7
  6
CONTINUOUS
 10
88.0708871915
 20
26.2346216782
 11
95.1419255636
 21
30.3170632169
  0
ARC
  5
233
100
AcDbEntity
  8
0
100
AcDbCircle
 62
7
  6
CONTINUOUS
 10
70.1675072247
 20
88.4409196303
 40
35.8582384515
100
AcDbArc
 50
239.5122607601
 51
239.9998667744
  0
ARC
  5
234
100
AcDbEntity
  8
0
100
AcDbCircle
 62
7
  6
CONTINUOUS
 10
34.3104212672
 20
88.1574956435
 40
35.8557407926
100
AcDbArc
 50
59.5122417802
 51
59.9999554793
  0
ARC
  5
235
100
AcDbEntity
  8
0
100
AcDbCircle
 62
7
  6
CONTINUOUS
 10
86.9191589778
 20
107.7611204813
 40
9.5388397401
100
AcDbArc
 50
11.1042189612
 51
14.179217902
  0
ARC
  5
236
100
AcDbEntity
  8
0
100
AcDbCircle
 62
7
  6
CONTINUOUS
 10
86.5217561806
 20
108.6974088612
 40
9.4089903268
100
AcDbArc
 50
45.8003643071
 51
48.9175731745
  0
ARC
  5
237
100
AcDbEntity
  8
0
100
AcDbCircle
 62
7
  6
CONTINUOUS
 10
86.8237638326
 20
109.0417141096
 40
8.9510026517
100
AcDbArc
 50
48.9264362732
 51
49.8975664031
  0
SPLINE
  5
238
100
AcDbEntity
  8
0
100
AcDbSpline
 62
7
  6
CONTINUOUS
 70
0
 71
3
 72
15
 73
11
 74
0
 42
0.0000001
 43
0.0000001
 44
0.0000000001
 40
0.0
 40
0.0
 40
0.0
 40
0.0
 40
0.1485843256
 40
0.289506453
 40
0.4227207605
 40
0.5486398728
 40
0.6679992722
 40
0.7819372116
 40
0.8919868227
 40
1.0
 40
1.0
 40
1.0
 40
1.0
 10
52.2383348498
 20
57.9598912407
 30
0.0
 10
53.0763417132
 20
57.4760786978
 30
0.0
 10
54.7492818553
 20
56.6003325852
 30
0.0
 10
57.301071972
 20
55.5558876108
 30
0.0
 10
59.8074431535
 20
54.8252507595
 30
0.0
 10
62.2446245901
 20
54.4164222605
 30
0.0
 10
64.5900227434
 20
54.3348517478
 30
0.0
 10
66.8210046687
 20
54.5836618289
 30
0.0
 10
68.9138063126
 20
55.1623809544
 30
0.0
 10
70.207203237
 20
55.7680895085
 30
0.0
 10
70.8163886661
 20
56.1198007943
 30
0.0
  0
SPLINE
  5
239
100
AcDbEntity
  8
0
100
AcDbSpline
 62
7
  6
CONTINUOUS
 70
0
 71
3
 72
15
 73
11
 74
0
 42
0.0000001
 43
0.0000001
 44
0.0000000001
 40
0.0
 40
0.0
 40
0.0
 40
0.0
 40
0.1141583531
 40
0.2373267159
 40
0.366976842
 40
0.5000010857
 40
0.6330251785
 40
0.7626748634
 40
0.8858425314
 40
1.0
 40
1.0
 40
1.0
 40
1.0
 10
25.9647312657
 20
103.4668549268
 30
0.0
 10
25.9647312657
 20
101.3899106263
 30
0.0
 10
26.3451295467
 20
97.0680615273
 30
0.0
 10
27.8616822382
 20
90.5480842706
 30
0.0
 10
30.2909627588
 20
83.9438737514
 30
0.0
 10
33.5424337265
 20
77.5037383383
 30
0.0
 10
37.4940434062
 20
71.4678396213
 30
0.0
 10
41.998830769
 20
66.0619572504
 30
0.0
 10
46.887022765
 20
61.4886514598
 30
0.0
 10
50.4396520869
 20
58.9983377253
 30
0.0
 10
52.2383348498
 20
57.9598912407
 30
0.0
  0
SPLINE
  5
23A
100
AcDbEntity
  8
0
100
AcDbSpline
 62
7
  6
CONTINUOUS
 70
0
 71
3
 72
11
 73
7
 74
0
 42
0.0000001
 43
0.0000001
 44
0.0000000001
 40
0.0
 40
0.0
 40
0.0
 40
0.0
 40
0.2177758994
 40
0.4509327308
 40
0.7102262024
 40
1.0
 40
1.0
 40
1.0
 40
1.0
 10
56.855002166
 20
162.1140731118
 30
0.0
 10
57.0199013908
 20
162.2092770945
 30
0.0
 10
57.3987989979
 20
162.3468401935
 30
0.0
 10
58.0280785656
 20
162.3627159672
 30
0.0
 10
58.6988441061
 20
162.2008910144
 30
0.0
 10
59.1351829526
 20
161.9932221679
 30
0.0
 10
59.3546018789
 20
161.8665486342
 30
0.0
  0
SPLINE
  5
23B
100
AcDbEntity
  8
0
100
AcDbSpline
 62
7
  6
CONTINUOUS
 70
0
 71
3
 72
11
 73
7
 74
0
 42
0.0000001
 43
0.0000001
 44
0.0000000001
 40
0.0
 40
0.0
 40
0.0
 40
0.0
 40
0.289783055
 40
0.5490847163
 40
0.7822374528
 40
1.0
 40
1.0
 40
1.0
 40
1.0
 10
85.673658211
 20
26.472435661
 30
0.0
 10
85.8840873874
 20
26.3509176016
 30
0.0
 10
86.3025378889
 20
26.1516646882
 30
0.0
 10
86.9458241185
 20
25.9963178246
 30
0.0
 10
87.5493444737
 20
26.0114406478
 30
0.0
 10
87.9127322999
 20
26.1433467288
 30
0.0
 10
88.070871909
 20
26.2346481483
 30
0.0
  0
SPLINE
  5
23C
100
AcDbEntity
  8
0
100
AcDbSpline
 62
7
  6
CONTINUOUS
 70
0
 71
3
 72
15
 73
11
 74
0
 42
0.0000001
 43
0.0000001
 44
0.0000000001
 40
0.0
 40
0.0
 40
0.0
 40
0.0
 40
0.114143379
 40
0.237330543
 40
0.36697329
 40
0.500001082
 40
0.6330287234
 40
0.762671031
 40
0.885857502
 40
1.0
 40
1.0
 40
1.0
 40
1.0
 10
15.4131098091
 20
70.950791518
 30
0.0
 10
15.4130816384
 20
70.6828475112
 30
0.0
 10
15.4621126939
 20
70.1252075082
 30
0.0
 10
15.657635846
 20
69.2839323723
 30
0.0
 10
15.9711082742
 20
68.4317922454
 30
0.0
 10
16.3905722265
 20
67.6008194573
 30
0.0
 10
16.9004869249
 20
66.8220699004
 30
0.0
 10
17.4817274575
 20
66.1245300991
 30
0.0
 10
18.1125318378
 20
65.5345717214
 30
0.0
 10
18.5709463909
 20
65.2132954376
 30
0.0
 10
18.8030063085
 20
65.0793511286
 30
0.0
  0
SPLINE
  5
23D
100
AcDbEntity
  8
0
100
AcDbSpline
 62
7
  6
CONTINUOUS
 70
0
 71
3
 72
15
 73
11
 74
0
 42
0.0000001
 43
0.0000001
 44
0.0000000001
 40
0.0
 40
0.0
 40
0.0
 40
0.0
 40
0.1485848719
 40
0.2895074274
 40
0.4227220068
 40
0.5486412074
 40
0.6680004988
 40
0.7819381495
 40
0.8919873308
 40
1.0
 40
1.0
 40
1.0
 40
1.0
 10
79.0082455377
 20
72.8428604904
 30
0.0
 10
79.0082455377
 20
71.8569102438
 30
0.0
 10
78.928735543
 20
69.934530428
 30
0.0
 10
78.5503551243
 20
67.1506966316
 30
0.0
 10
77.9182030587
 20
64.5668143689
 30
0.0
 10
77.0373301728
 20
62.2079360851
 30
0.0
 10
75.9144381614
 20
60.0967759289
 30
0.0
 10
74.5583023889
 20
58.2548971966
 30
0.0
 10
72.9814461688
 20
56.7030301208
 30
0.0
 10
71.7880338333
 20
55.8703167893
 30
0.0
 10
71.1673272063
 20
55.511953784
 30
0.0
  0
SPLINE
  5
23E
100
AcDbEntity
  8
0
100
AcDbSpline
 62
7
  6
CONTINUOUS
 70
0
 71
3
 72
15
 73
11
 74
0
 42
0.0000001
 43
0.0000001
 44
0.0000000001
 40
0.0
 40
0.0
 40
0.0
 40
0.0
 40
0.114540915
 40
0.237930288
 40
0.3676483299
 40
0.5006146833
 40
0.6334959729
 40
0.7629654812
 40
0.8859628238
 40
1.0
 40
1.0
 40
1.0
 40
1.0
 10
52.5019839687
 20
119.0557349826
 30
0.0
 10
54.3216839625
 20
117.9844011258
 30
0.0
 10
57.9124206022
 20
115.4295454406
 30
0.0
 10
62.8499692796
 20
110.7609905804
 30
0.0
 10
67.3950144595
 20
105.2615896146
 30
0.0
 10
71.3783867862
 20
99.134893184
 30
0.0
 10
74.6536945846
 20
92.6073018917
 30
0.0
 10
77.0994824768
 20
85.9192732605
 30
0.0
 10
78.6257280444
 20
79.319197122
 30
0.0
 10
79.0082455377
 20
74.9452233421
 30
0.0
 10
79.0082455377
 20
72.8428604904
 30
0.0
  0
SPLINE
  5
23F
100
AcDbEntity
  8
0
100
AcDbSpline
 62
7
  6
CONTINUOUS
 70
0
 71
3
 72
15
 73
11
 74
0
 42
0.0000001
 43
0.0000001
 44
0.0000000001
 40
0.0
 40
0.0
 40
0.0
 40
0.0
 40
0.114142075
 40
0.2373284319
 40
0.3669709231
 40
0.4999989181
 40
0.6330270636
 40
0.7626699943
 40
0.885857044
 40
1.0
 40
1.0
 40
1.0
 40
1.0
 10
92.603445938
 20
115.6808946256
 30
0.0
 10
92.8451771447
 20
115.5413723943
 30
0.0
 10
93.3226974678
 20
115.206714196
 30
0.0
 10
93.9797926701
 20
114.5921768111
 30
0.0
 10
94.5852581752
 20
113.8655709879
 30
0.0
 10
95.1164241278
 20
113.0543684339
 30
0.0
 10
95.5533677558
 20
112.1887650659
 30
0.0
 10
95.8798998398
 20
111.3011124378
 30
0.0
 10
96.0835638912
 20
110.42477914
 30
0.0
 10
96.1346313459
 20
109.8439019637
 30
0.0
 10
96.13459826
 20
109.5647933277
 30
0.0
  0
SPLINE
  5
240
100
AcDbEntity
  8
0
100
AcDbSpline
 62
7
  6
CONTINUOUS
 70
0
 71
3
 72
9
 73
5
 74
0
 42
0.0000001
 43
0.0000001
 44
0.0000000001
 40
0.0
 40
0.0
 40
0.0
 40
0.0
 40
0.2345024116
 40
1.0
 40
1.0
 40
1.0
 40
1.0
 10
27.9121114599
 20
153.1098814827
 30
0.0
 10
28.0347795505
 20
153.0836643401
 30
0.0
 10
28.5525612969
 20
152.9470565785
 30
0.0
 10
29.0440048969
 20
152.7202342227
 30
0.0
 10
29.3986224276
 20
152.5155003276
 30
0.0
  0
SPLINE
  5
241
100
AcDbEntity
  8
0
100
AcDbSpline
 62
7
  6
CONTINUOUS
 70
0
 71
3
 72
11
 73
7
 74
0
 42
0.0000001
 43
0.0000001
 44
0.0000000001
 40
0.0
 40
0.0
 40
0.0
 40
0.0
 40
0.289784047
 40
0.5490860684
 40
0.7822384094
 40
1.0
 40
1.0
 40
1.0
 40
1.0
 10
96.1345982662
 20
32.5120937936
 30
0.0
 10
96.1346237726
 20
32.2690904454
 30
0.0
 10
96.0979599496
 20
31.8070613977
 30
0.0
 10
95.9108511455
 20
31.1722664324
 30
0.0
 10
95.5959888659
 20
30.6571489929
 30
0.0
 10
95.3000534091
 20
30.4083931381
 30
0.0
 10
95.1419102812
 20
30.317089687
 30
0.0
  0
SPLINE
  5
242
100
AcDbEntity
  8
0
100
AcDbSpline
 62
7
  6
CONTINUOUS
 70
0
 71
3
 72
11
 73
7
 74
0
 42
0.0000001
 43
0.0000001
 44
0.0000000001
 40
0.0
 40
0.0
 40
0.0
 40
0.0
 40
0.2177625939
 40
0.4509153301
 40
0.7102169351
 40
1.0
 40
1.0
 40
1.0
 40
1.0
 10
23.4768356023
 20
154.4440463916
 30
0.0
 10
23.634974932
 20
154.5353476461
 30
0.0
 10
23.9983620125
 20
154.6672535551
 30
0.0
 10
24.6018811136
 20
154.6823768826
 30
0.0
 10
25.2451662088
 20
154.5270310462
 30
0.0
 10
25.663615938
 20
154.327778671
 30
0.0
 10
25.8740446942
 20
154.2062608348
 30
0.0
  0
SPLINE
  5
243
100
AcDbEntity
  8
0
100
AcDbSpline
 62
7
  6
CONTINUOUS
 70
0
 71
3
 72
11
 73
7
 74
0
 42
0.0000001
 43
0.0000001
 44
0.0000000001
 40
0.0
 40
0.0
 40
0.0
 40
0.0
 40
0.2177616374
 40
0.4509139776
 40
0.7102159425
 40
1.0
 40
1.0
 40
1.0
 40
1.0
 10
16.4057972302
 20
150.3616048529
 30
0.0
 10
16.2476543782
 20
150.2703015648
 30
0.0
 10
15.9517194288
 20
150.0215462736
 30
0.0
 10
15.6368573239
 20
149.5064301663
 30
0.0
 10
15.4497481877
 20
148.8716366849
 30
0.0
 10
15.4130842804
 20
148.4096085644
 30
0.0
 10
15.413109806
 20
148.1666056859
 30
0.0
  0
SPLINE
  5
244
100
AcDbEntity
  8
0
100
AcDbSpline
 62
7
  6
CONTINUOUS
 70
0
 71
3
 72
15
 73
11
 74
0
 42
0.0000001
 43
0.0000001
 44
0.0000000001
 40
0.0
 40
0.0
 40
0.0
 40
0.0
 40
0.1080132033
 40
0.2180628371
 40
0.332000793
 40
0.451360201
 40
0.5772793148
 40
0.7104936183
 40
0.8514157177
 40
1.0
 40
1.0
 40
1.0
 40
1.0
 10
33.3093405639
 20
121.0843015328
 30
0.0
 10
33.9300329872
 20
121.4426563388
 30
0.0
 10
35.2478609779
 20
122.0598063145
 30
0.0
 10
37.3801936182
 20
122.6494573828
 30
0.0
 10
39.6533165508
 20
122.9029680125
 30
0.0
 10
42.0430168921
 20
122.8198578255
 30
0.0
 10
44.5262342717
 20
122.4033083128
 30
0.0
 10
47.0799481373
 20
121.6588716198
 30
0.0
 10
49.6799391148
 20
120.5947005449
 30
0.0
 10
51.3844797667
 20
119.7024145305
 30
0.0
 10
52.2383157919
 20
119.2094641108
 30
0.0
  0
SPLINE
  5
245
100
AcDbEntity
  8
0
100
AcDbSpline
 62
7
  6
CONTINUOUS
 70
0
 71
3
 72
15
 73
11
 74
0
 42
0.0000001
 43
0.0000001
 44
0.0000000001
 40
0.0
 40
0.0
 40
0.0
 40
0.0
 40
0.1080126705
 40
0.2180618529
 40
0.3319995042
 40
0.4513587958
 40
0.5772779969
 40
0.7104925759
 40
0.8514151281
 40
1.0
 40
1.0
 40
1.0
 40
1.0
 10
33.6602810336
 20
120.4764511804
 30
0.0
 10
33.0510821401
 20
120.1247321209
 30
0.0
 10
31.8797953275
 20
119.3074570871
 30
0.0
 10
30.3321736152
 20
117.7843611782
 30
0.0
 10
29.0011802351
 20
115.9766303871
 30
0.0
 10
27.8991063374
 20
113.904610578
 30
0.0
 10
27.0345646293
 20
111.5894652656
 30
0.0
 10
26.4141325049
 20
109.0534875203
 30
0.0
 10
26.0427671548
 20
106.3212652946
 30
0.0
 10
25.9647312657
 20
104.4345259152
 30
0.0
 10
25.9647312657
 20
103.4668549268
 30
0.0
  0
SPLINE
  5
246
100
AcDbEntity
  8
0
100
AcDbSpline
 62
7
  6
CONTINUOUS
 70
0
 71
3
 72
11
 73
7
 74
0
 42
0.0000001
 43
0.0000001
 44
0.0000000001
 40
0.0
 40
0.0
 40
0.0
 40
0.0
 40
0.289775859
 40
0.5490700797
 40
0.7822260816
 40
1.0
 40
1.0
 40
1.0
 40
1.0
 10
119.5089221888
 20
57.6768642948
 30
0.0
 10
119.5089217829
 20
57.423489172
 30
0.0
 10
119.4706085556
 20
56.9417437507
 30
0.0
 10
119.2753737034
 20
56.2798879632
 30
0.0
 10
118.9469760549
 20
55.7428194274
 30
0.0
 10
118.6383788206
 20
55.4834518091
 30
0.0
 10
118.4734718608
 20
55.3882433608
 30
0.0
  0
SPLINE
  5
247
100
AcDbEntity
  8
0
100
AcDbSpline
 62
7
  6
CONTINUOUS
 70
0
 71
3
 72
15
 73
11
 74
0
 42
0.0000001
 43
0.0000001
 44
0.0000000001
 40
0.0
 40
0.0
 40
0.0
 40
0.0
 40
0.1141464897
 40
0.2373347555
 40
0.3669747552
 40
0.4999977718
 40
0.6330210979
 40
0.7626620036
 40
0.8858516944
 40
1.0
 40
1.0
 40
1.0
 40
1.0
 10
115.9738061734
 20
129.1781752872
 30
0.0
 10
116.2157927024
 20
129.0384669428
 30
0.0
 10
116.6937913074
 20
128.7033586912
 30
0.0
 10
117.3515349759
 20
128.088073555
 30
0.0
 10
117.9576061648
 20
127.3606543642
 30
0.0
 10
118.4893207344
 20
126.5485891271
 30
0.0
 10
118.9267467769
 20
125.6820828815
 30
0.0
 10
119.2536913804
 20
124.7934995526
 30
0.0
 10
119.4576906776
 20
123.9162282199
 30
0.0
 10
119.5089172584
 20
123.3347085465
 30
0.0
 10
119.5089222027
 20
123.0552834477
 30
0.0
  0
SPLINE
  5
248
100
AcDbEntity
  8
0
100
AcDbSpline
 62
7
  6
CONTINUOUS
 70
0
 71
3
 72
9
 73
5
 74
0
 42
0.0000001
 43
0.0000001
 44
0.0000000001
 40
0.0
 40
0.0
 40
0.0
 40
0.0
 40
0.2660519818
 40
1.0
 40
1.0
 40
1.0
 40
1.0
 10
96.4326243715
 20
36.4098476552
 30
0.0
 10
96.4326243715
 20
36.2675564083
 30
0.0
 10
96.4152285608
 20
35.7332110007
 30
0.0
 10
96.3250027774
 20
35.1986982776
 30
0.0
 10
96.2041219952
 20
34.8252406879
 30
0.0
  0
SPLINE
  5
249
100
AcDbEntity
  8
0
100
AcDbSpline
 62
7
  6
CONTINUOUS
 70
0
 71
3
 72
9
 73
5
 74
0
 42
0.0000001
 43
0.0000001
 44
0.0000000001
 40
0.0
 40
0.0
 40
0.0
 40
0.0
 40
0.2404141622
 40
1.0
 40
1.0
 40
1.0
 40
1.0
 10
91.4828562955
 20
116.6719620807
 30
0.0
 10
91.5770430855
 20
116.6175845424
 30
0.0
 10
91.963145403
 20
116.3816395143
 30
0.0
 10
92.3267680694
 20
116.1096147152
 30
0.0
 10
92.5896069588
 20
115.8882827037
 30
0.0
  0
SPLINE
  5
24A
100
AcDbEntity
  8
0
100
AcDbSpline
 62
7
  6
CONTINUOUS
 70
0
 71
3
 72
9
 73
5
 74
0
 42
0.0000001
 43
0.0000001
 44
0.0000000001
 40
0.0
 40
0.0
 40
0.0
 40
0.0
 40
0.2601370385
 40
1.0
 40
1.0
 40
1.0
 40
1.0
 10
96.2794171869
 20
109.5982459119
 30
0.0
 10
96.3045382536
 20
109.4698694925
 30
0.0
 10
96.3903552506
 20
108.9744095865
 30
0.0
 10
96.4326243715
 20
108.4708036714
 30
0.0
 10
96.4326243715
 20
108.0987598792
 30
0.0
  0
SPLINE
  5
24B
100
AcDbEntity
  8
0
100
AcDbSpline
 62
7
  6
CONTINUOUS
 70
0
 71
3
 72
15
 73
11
 74
0
 42
0.0000001
 43
0.0000001
 44
0.0000000001
 40
0.0
 40
0.0
 40
0.0
 40
0.0
 40
0.1485848721
 40
0.2895074273
 40
0.4227220068
 40
0.5486412074
 40
0.6680004989
 40
0.7819381495
 40
0.8919873308
 40
1.0
 40
1.0
 40
1.0
 40
1.0
 10
25.4684214325
 20
103.7533930602
 30
0.0
 10
25.4684214325
 20
104.7393434086
 30
0.0
 10
25.5479314344
 20
106.6617234202
 30
0.0
 10
25.926311893
 20
109.4455575002
 30
0.0
 10
26.5584640235
 20
112.0294400252
 30
0.0
 10
27.4393369969
 20
114.3883185507
 30
0.0
 10
28.5622291245
 20
116.4994789219
 30
0.0
 10
29.9183650367
 20
118.3413578403
 30
0.0
 10
31.4952214137
 20
119.8932250789
 30
0.0
 10
32.6886338743
 20
120.7259384902
 30
0.0
 10
33.3093405639
 20
121.0843015328
 30
0.0
  0
SPLINE
  5
24C
100
AcDbEntity
  8
0
100
AcDbSpline
 62
7
  6
CONTINUOUS
 70
0
 71
3
 72
15
 73
11
 74
0
 42
0.0000001
 43
0.0000001
 44
0.0000000001
 40
0.0
 40
0.0
 40
0.0
 40
0.0
 40
0.1145408222
 40
0.2379302212
 40
0.3676482722
 40
0.500614637
 40
0.6334959388
 40
0.7629654592
 40
0.8859628133
 40
1.0
 40
1.0
 40
1.0
 40
1.0
 10
51.9746875615
 20
57.540521938
 30
0.0
 10
50.1549886114
 20
58.6118543942
 30
0.0
 10
46.5642455035
 20
61.1666992862
 30
0.0
 10
41.6267015888
 20
65.8352591761
 30
0.0
 10
37.0816541515
 20
71.3346592314
 30
0.0
 10
33.0982815533
 20
77.4613568626
 30
0.0
 10
29.8229731149
 20
83.9889488878
 30
0.0
 10
27.3771848312
 20
90.6769784695
 30
0.0
 10
25.8509389919
 20
97.2770555186
 30
0.0
 10
25.4684214325
 20
101.6510299148
 30
0.0
 10
25.4684214325
 20
103.7533930602
 30
0.0
  0
SPLINE
  5
24D
100
AcDbEntity
  8
0
100
AcDbSpline
 62
7
  6
CONTINUOUS
 70
0
 71
3
 72
15
 73
11
 74
0
 42
0.0000001
 43
0.0000001
 44
0.0000000001
 40
0.0
 40
0.0
 40
0.0
 40
0.0
 40
0.1080131539
 40
0.2180627445
 40
0.3320006687
 40
0.4513600596
 40
0.5772791717
 40
0.7104934822
 40
0.8514156312
 40
1.0
 40
1.0
 40
1.0
 40
1.0
 10
71.1673272063
 20
55.511953784
 30
0.0
 10
70.5466337198
 20
55.1535983654
 30
0.0
 10
69.2288033055
 20
54.5364475037
 30
0.0
 10
67.0964665352
 20
53.9467963581
 30
0.0
 10
64.8233390837
 20
53.693286773
 30
0.0
 10
62.4336339381
 20
53.7763993391
 30
0.0
 10
59.9504117179
 20
54.1929524237
 30
0.0
 10
57.3966925412
 20
54.9373928941
 30
0.0
 10
54.7966966742
 20
56.0015708749
 30
0.0
 10
53.0921533974
 20
56.8938627787
 30
0.0
 10
52.2383157912
 20
57.3868158857
 30
0.0
  0
SPLINE
  5
24E
100
AcDbEntity
  8
0
100
AcDbSpline
 62
7
  6
CONTINUOUS
 70
0
 71
3
 72
15
 73
11
 74
0
 42
0.0000001
 43
0.0000001
 44
0.0000000001
 40
0.0
 40
0.0
 40
0.0
 40
0.0
 40
0.1080126705
 40
0.2180618529
 40
0.3319995042
 40
0.4513587958
 40
0.5772779969
 40
0.7104925759
 40
0.8514151281
 40
1.0
 40
1.0
 40
1.0
 40
1.0
 10
70.8163886661
 20
56.1198007943
 30
0.0
 10
71.4255875596
 20
56.4715198538
 30
0.0
 10
72.5968743722
 20
57.2887948876
 30
0.0
 10
74.1444960845
 20
58.8118907965
 30
0.0
 10
75.4754894646
 20
60.6196215876
 30
0.0
 10
76.5775633623
 20
62.6916413967
 30
0.0
 10
77.4421050704
 20
65.0067867091
 30
0.0
 10
78.0625371948
 20
67.5427644544
 30
0.0
 10
78.4339025449
 20
70.2749866801
 30
0.0
 10
78.511938434
 20
72.1617260595
 30
0.0
 10
78.511938434
 20
73.129397048
 30
0.0
  0
SPLINE
  5
24F
100
AcDbEntity
  8
0
100
AcDbSpline
 62
7
  6
CONTINUOUS
 70
0
 71
3
 72
15
 73
11
 74
0
 42
0.0000001
 43
0.0000001
 44
0.0000000001
 40
0.0
 40
0.0
 40
0.0
 40
0.0
 40
0.1485843256
 40
0.289506453
 40
0.4227207605
 40
0.5486398728
 40
0.6679992722
 40
0.7819372116
 40
0.8919868227
 40
1.0
 40
1.0
 40
1.0
 40
1.0
 10
52.2383348498
 20
118.6363607341
 30
0.0
 10
51.4003279865
 20
119.1201732769
 30
0.0
 10
49.7273878443
 20
119.9959193896
 30
0.0
 10
47.1755977277
 20
121.040364364
 30
0.0
 10
44.6692265462
 20
121.7710012152
 30
0.0
 10
42.2320451096
 20
122.1798297142
 30
0.0
 10
39.8866469563
 20
122.2614002269
 30
0.0
 10
37.655665031
 20
122.0125901459
 30
0.0
 10
35.5628633871
 20
121.4338710203
 30
0.0
 10
34.2694664627
 20
120.8281624662
 30
0.0
 10
33.6602810336
 20
120.4764511804
 30
0.0
  0
SPLINE
  5
250
100
AcDbEntity
  8
0
100
AcDbSpline
 62
7
  6
CONTINUOUS
 70
0
 71
3
 72
15
 73
11
 74
0
 42
0.0000001
 43
0.0000001
 44
0.0000000001
 40
0.0
 40
0.0
 40
0.0
 40
0.0
 40
0.1141583531
 40
0.2373267159
 40
0.366976842
 40
0.5000010857
 40
0.6330251785
 40
0.7626748634
 40
0.8858425314
 40
1.0
 40
1.0
 40
1.0
 40
1.0
 10
78.511938434
 20
73.129397048
 30
0.0
 10
78.511938434
 20
75.2063413485
 30
0.0
 10
78.131540153
 20
79.5281904475
 30
0.0
 10
76.6149874614
 20
86.0481677042
 30
0.0
 10
74.1857069408
 20
92.6523782233
 30
0.0
 10
70.9342359731
 20
99.0925136364
 30
0.0
 10
66.9826262935
 20
105.1284123534
 30
0.0
 10
62.4778389307
 20
110.5342947243
 30
0.0
 10
57.5896469347
 20
115.1076005149
 30
0.0
 10
54.0370176128
 20
117.5979142495
 30
0.0
 10
52.2383348498
 20
118.6363607341
 30
0.0
  0
SPLINE
  5
251
100
AcDbEntity
  8
0
100
AcDbSpline
 62
7
  6
CONTINUOUS
 70
0
 71
3
 72
11
 73
7
 74
0
 42
0.0000001
 43
0.0000001
 44
0.0000000001
 40
0.0
 40
0.0
 40
0.0
 40
0.0
 40
0.2897830649
 40
0.5490846699
 40
0.7822374061
 40
1.0
 40
1.0
 40
1.0
 40
1.0
 10
18.803006322
 20
150.1238192961
 30
0.0
 10
18.5925775659
 20
150.2453371322
 30
0.0
 10
18.1741278367
 20
150.4445895075
 30
0.0
 10
17.5308427415
 20
150.5999353439
 30
0.0
 10
16.9273236404
 20
150.5848120164
 30
0.0
 10
16.5639365599
 20
150.4529061074
 30
0.0
 10
16.4057972302
 20
150.3616048529
 30
0.0
  0
SPLINE
  5
252
100
AcDbEntity
  8
0
100
AcDbSpline
 62
7
  6
CONTINUOUS
 70
0
 71
3
 72
11
 73
7
 74
0
 42
0.0000001
 43
0.0000001
 44
0.0000000001
 40
0.0
 40
0.0
 40
0.0
 40
0.0
 40
0.2177615906
 40
0.4509139316
 40
0.710215953
 40
1.0
 40
1.0
 40
1.0
 40
1.0
 10
88.070871909
 20
26.2346481483
 30
0.0
 10
88.229015037
 20
26.3259515993
 30
0.0
 10
88.5249504937
 20
26.5747074542
 30
0.0
 10
88.8398127734
 20
27.0898248936
 30
0.0
 10
89.0269215775
 20
27.724619859
 30
0.0
 10
89.0635853999
 20
28.1866489067
 30
0.0
 10
89.0635598941
 20
28.4296522549
 30
0.0
  0
SPLINE
  5
253
100
AcDbEntity
  8
0
100
AcDbSpline
 62
7
  6
CONTINUOUS
 70
0
 71
3
 72
15
 73
11
 74
0
 42
0.0000001
 43
0.0000001
 44
0.0000000001
 40
0.0
 40
0.0
 40
0.0
 40
0.0
 40
0.114142956
 40
0.2373300057
 40
0.3669729364
 40
0.5000010819
 40
0.6330290769
 40
0.7626715681
 40
0.8858579249
 40
1.0
 40
1.0
 40
1.0
 40
1.0
 10
89.0635598878
 20
105.482351789
 30
0.0
 10
89.0635929738
 20
105.761460425
 30
0.0
 10
89.0125255191
 20
106.3423376013
 30
0.0
 10
88.8088614677
 20
107.2186708991
 30
0.0
 10
88.4823293836
 20
108.1063235272
 30
0.0
 10
88.0453857557
 20
108.9719268952
 30
0.0
 10
87.514219803
 20
109.7831294491
 30
0.0
 10
86.908754298
 20
110.5097352724
 30
0.0
 10
86.2516590957
 20
111.1242726574
 30
0.0
 10
85.7741387723
 20
111.458930855
 30
0.0
 10
85.5324075659
 20
111.5984530868
 30
0.0
  0
ENDSEC
  0
SECTION
  2
OBJECTS
  0
DICTIONARY
  5
C
100
AcDbDictionary
280
0
281
1
  3
ACAD_GROUP
350
D
  3
ACAD_MLINESTYLE
350
17
  3
ACAD_LAYOUT
350
1A
  3
ACAD_PLOTSETTINGS
350
19
  3
ACAD_PLOTSTYLENAME
350
E
  0
DICTIONARY
  5
D
102
{ACAD_REACTORS
330
C
102
}
100
AcDbDictionary
280
0
281
1
  0
ACDBDICTIONARYWDFLT
  5
E
102
{ACAD_REACTORS
330
C
102
}
100
AcDbDictionary
281
1
  3
Normal
350
F
100
AcDbDictionaryWithDefault
340
F
  0
DICTIONARY
  5
17
102
{ACAD_REACTORS
330
C
102
}
100
AcDbDictionary
280
0
281
1
  3
Standard
350
18
  0
DICTIONARY
  5
19
102
{ACAD_REACTORS
330
C
102
}
100
AcDbDictionary
281
1
  0
DICTIONARY
  5
1A
102
{ACAD_REACTORS
330
C
102
}
100
AcDbDictionary
281
1
  3
Model
350
254
  3
Layout1
350
255
  0
ACDBPLACEHOLDER
  5
F
102
{ACAD_REACTORS
330
E
102
}
  0
MLINESTYLE
  5
18
102
{ACAD_REACTORS
330
17
102
}
100
AcDbMlineStyle
  2
STANDARD
 70
0
  3

 62
256
 51
90.0
 52
90.0
 71
2
 49
0.5
 62
256
  6
BYLAYER
 49
-0.5
 62
256
  6
BYLAYER
  0
LAYOUT
  5
254
102
{ACAD_REACTORS
330
1A
102
}
100
AcDbPlotSettings
  1

  2
none_device
  4

  6

 40
0.0
 41
0.0
 42
0.0
 43
0.0
 44
210.0
 45
297.0
 46
0.0
 47
0.0
 48
0.0
 49
0.0
140
0.0
141
0.0
142
1.0
143
1.0
 70
1024
 72
1
 73
0
 74
0
  7

 75
0
147
1.0
148
0.0
149
0.0
100
AcDbLayout
  1
Model
 70
0
 71
0
 10
0.0
 20
0.0
 11
210.0
 21
297.0
 12
0.0
 22
0.0
 32
0.0
 14
0.0
 24
0.0
 34
0.0
 15
0.0
 25
0.0
 35
0.0
146
0.0
 13
0.0
 23
0.0
 33
0.0
 16
1.0
 26
0.0
 36
0.0
 17
0.0
 27
1.0
 37
0.0
 76
0
330
210
345
0
346
0
  0
LAYOUT
  5
255
102
{ACAD_REACTORS
330
1A
102
}
100
AcDbPlotSettings
  1

  2
none_device
  4

  6

 40
0.0
 41
0.0
 42
0.0
 43
0.0
 44
210.0
 45
297.0
 46
0.0
 47
0.0
 48
0.0
 49
0.0
140
0.0
141
0.0
142
1.0
143
1.0
 70
0
 72
1
 73
0
 74
0
  7

 75
0
147
1.0
148
0.0
149
0.0
100
AcDbLayout
  1
Layout1
 70
0
 71
1
 10
0.0
 20
0.0
 11
210.0
 21
297.0
 12
0.0
 22
0.0
 32
0.0
 14
0.0
 24
0.0
 34
0.0
 15
0.0
 25
0.0
 35
0.0
146
0.0
 13
0.0
 23
0.0
 33
0.0
 16
1.0
 26
0.0
 36
0.0
 17
0.0
 27
1.0
 37
0.0
 76
0
330
211
345
0
346
0
  0
ENDSEC
  0
EOF
