999
DXF file: C:\Vinayak\New 2D genarating\updateCreo8 with 3dPdf\CAD\NSYCRN106300_3D-CAD\drw0001_4.dxf
999
Pro/ENGINEER 2021284 by Parametric Technology Corporation
  0
SECTION
  2
HEADER
  9
$ACADVER
  1
AC1024
  9
$DWGCODEPAGE
  3
ANSI_1252
  9
$EXTMAX
 10
831.1895937795
 20
1175.5395683453
 30
0.0
  9
$EXTMIN
 10
0.0
 20
0.0
 30
0.0
  9
$LIMMIN
 10
0.0
 20
0.0
  9
$LIMMAX
 10
831.1895937795
 20
1175.5395683453
  9
$VIEWCTR
 10
415.5947968898
 20
587.7697841727
  9
$VIEWSIZE
 40
1175.5395683453
  9
$CLAYER
  8
0
  9
$LTSCALE
 40
76.6277644551
  9
$CELTYPE
  6
BYLAYER
  9
$DIMSCALE
 40
1.0
  9
$DIMASZ
 40
9.8951142117
  9
$DIMEXO
 40
1.0
  9
$DIMDLI
 40
52.9428190781
  9
$DIMEXE
 40
1.0
  9
$DIMCEN
 40
12.539088729
  9
$DIMLFAC
 40
1.0
  9
$DIMBLK
  1
_FILLED
  9
$DIMALT
 70
0
  9
$DIMALTF
 40
0.0393700787
  9
$DIMTXT
 40
13.8531598963
  9
$DIMTOL
 70
1
  9
$DIMLIM
 70
0
  9
$DIMTFAC
 40
1.0
  9
$DIMTP
 40
0.01
  9
$DIMTM
 40
0.01
  9
$DIMGAP
 40
0.625
  9
$DIMDSEP
 70
46
  9
$AUNITS
 70
0
  9
$PDMODE
 70
3
  9
$PDSIZE
 40
0.3125
  9
$HANDSEED
  5
28B
  9
$TILEMODE
 70
1
  9
$MEASUREMENT
 70
1
  9
$INSUNITS
 70
4
  0
ENDSEC
  0
SECTION
  2
CLASSES
  0
CLASS
  1
ACDBDICTIONARYWDFLT
  2
AcDbDictionaryWithDefault
  3
AutoCAD 2000
 90
0
 91
1
280
0
281
0
  0
CLASS
  1
ACDBPLACEHOLDER
  2
AcDbPlaceHolder
  3
AutoCAD 2000
 90
0
 91
1
280
0
281
0
  0
CLASS
  1
LAYOUT
  2
AcDbLayout
  3
AutoCAD 2000
 90
0
 91
0
280
0
281
0
  0
ENDSEC
  0
SECTION
  2
TABLES
  0
TABLE
  2
VPORT
  5
8
100
AcDbSymbolTable
 70
2
  0
VPORT
  5
1F4
100
AcDbSymbolTableRecord
100
AcDbViewportTableRecord
  2
*ACTIVE
 70
0
 10
0.0
 20
0.0
 11
1.0
 21
1.0
 12
415.5947968898
 22
587.7697841727
 13
0.0
 23
0.0
 14
1.0
 24
1.0
 15
0.0
 25
0.0
 16
0.0
 26
0.0
 36
1.0
 17
0.0
 27
0.0
 37
0.0
 40
1175.5395683453
 41
0.7070707071
 42
50.0
 43
0.0
 44
0.0
 50
0.0
 51
0.0
 71
0
 72
100
 73
1
 74
1
 75
0
 76
0
 77
0
 78
0
  0
ENDTAB
  0
TABLE
  2
LTYPE
  5
5
100
AcDbSymbolTable
 70
6
  0
LTYPE
  5
14
100
AcDbSymbolTableRecord
100
AcDbLinetypeTableRecord
  2
BYBLOCK
 70
0
  3

 72
65
 73
0
 40
0.0
  0
LTYPE
  5
15
100
AcDbSymbolTableRecord
100
AcDbLinetypeTableRecord
  2
BYLAYER
 70
0
  3

 72
65
 73
0
 40
0.0
  0
LTYPE
  5
16
100
AcDbSymbolTableRecord
100
AcDbLinetypeTableRecord
  2
CONTINUOUS
 70
64
  3
Solid line
 72
65
 73
0
 40
0.0
  0
LTYPE
  5
1F5
100
AcDbSymbolTableRecord
100
AcDbLinetypeTableRecord
  2
CENTER
 70
64
  3
____ _ ____ _ ____ _ ____ _ ____ _ ____ _ ____
 72
65
 73
4
 40
0.6
 49
0.375
 74
0
 49
-0.075
 74
0
 49
0.075
 74
0
 49
-0.075
 74
0
  0
LTYPE
  5
1F6
100
AcDbSymbolTableRecord
100
AcDbLinetypeTableRecord
  2
HIDDEN
 70
64
  3
- - - - - - - - - - - - - - - - - - - -
 72
65
 73
2
 40
0.2
 49
0.1
 74
0
 49
-0.1
 74
0
  0
LTYPE
  5
1F7
100
AcDbSymbolTableRecord
100
AcDbLinetypeTableRecord
  2
PHANTOM
 70
64
  3
_____ _ _ _____ _ _ _____ _ _ _____
 72
65
 73
6
 40
0.8
 49
0.45
 74
0
 49
-0.05
 74
0
 49
0.1
 74
0
 49
-0.05
 74
0
 49
0.1
 74
0
 49
-0.05
 74
0
  0
LTYPE
  5
1F8
100
AcDbSymbolTableRecord
100
AcDbLinetypeTableRecord
  2
DOT
 70
64
  3
. . . . . . . . . . . . . . . . . . . .
 72
65
 73
2
 40
0.2
 49
0.1
 74
0
 49
-0.1
 74
0
  0
LTYPE
  5
1F9
100
AcDbSymbolTableRecord
100
AcDbLinetypeTableRecord
  2
DASHED
 70
64
  3
- - - - - - - - - - - - - - - - - - - -
 72
65
 73
2
 40
0.2
 49
0.1
 74
0
 49
-0.1
 74
0
  0
ENDTAB
  0
TABLE
  2
LAYER
  5
2
100
AcDbSymbolTable
 70
36
  0
LAYER
  5
10
100
AcDbSymbolTableRecord
100
AcDbLayerTableRecord
  2
0
 70
0
 62
7
  6
CONTINUOUS
370
-3
390
F
  0
LAYER
  5
1FA
100
AcDbSymbolTableRecord
100
AcDbLayerTableRecord
  2
DEFAULT_1
 70
0
 62
7
  6
CENTER
370
-3
390
F
  0
LAYER
  5
1FB
100
AcDbSymbolTableRecord
100
AcDbLayerTableRecord
  2
DEFAULT_2
 70
0
 62
8
  6
HIDDEN
370
-3
390
F
  0
LAYER
  5
1FC
100
AcDbSymbolTableRecord
100
AcDbLayerTableRecord
  2
DEFAULT_3
 70
0
 62
7
  6
PHANTOM
370
-3
390
F
  0
LAYER
  5
1FD
100
AcDbSymbolTableRecord
100
AcDbLayerTableRecord
  2
00_COMPONENTS
 70
0
 62
7
  6
CONTINUOUS
370
-3
390
F
  0
LAYER
  5
1FE
100
AcDbSymbolTableRecord
100
AcDbLayerTableRecord
  2
01_1_DEFAULT_DATUMS
 70
0
 62
7
  6
CONTINUOUS
370
-3
390
F
  0
LAYER
  5
1FF
100
AcDbSymbolTableRecord
100
AcDbLayerTableRecord
  2
01_PLANES
 70
0
 62
7
  6
CONTINUOUS
370
-3
390
F
  0
LAYER
  5
200
100
AcDbSymbolTableRecord
100
AcDbLayerTableRecord
  2
02_COORD_SYS
 70
0
 62
7
  6
CONTINUOUS
370
-3
390
F
  0
LAYER
  5
201
100
AcDbSymbolTableRecord
100
AcDbLayerTableRecord
  2
03_AXES
 70
0
 62
7
  6
CONTINUOUS
370
-3
390
F
  0
LAYER
  5
202
100
AcDbSymbolTableRecord
100
AcDbLayerTableRecord
  2
04_POINTS
 70
0
 62
7
  6
CONTINUOUS
370
-3
390
F
  0
LAYER
  5
203
100
AcDbSymbolTableRecord
100
AcDbLayerTableRecord
  2
05_CURVES
 70
0
 62
7
  6
CONTINUOUS
370
-3
390
F
  0
LAYER
  5
204
100
AcDbSymbolTableRecord
100
AcDbLayerTableRecord
  2
06_SURFS
 70
0
 62
7
  6
CONTINUOUS
370
-3
390
F
  0
LAYER
  5
205
100
AcDbSymbolTableRecord
100
AcDbLayerTableRecord
  2
07_COSMETICS
 70
0
 62
7
  6
CONTINUOUS
370
-3
390
F
  0
LAYER
  5
206
100
AcDbSymbolTableRecord
100
AcDbLayerTableRecord
  2
10_NOTES
 70
0
 62
7
  6
CONTINUOUS
370
-3
390
F
  0
LAYER
  5
207
100
AcDbSymbolTableRecord
100
AcDbLayerTableRecord
  2
11_NOTES_PUB
 70
0
 62
7
  6
CONTINUOUS
370
-3
390
F
  0
LAYER
  5
208
100
AcDbSymbolTableRecord
100
AcDbLayerTableRecord
  2
13_REF_GTOL
 70
0
 62
7
  6
CONTINUOUS
370
-3
390
F
  0
LAYER
  5
209
100
AcDbSymbolTableRecord
100
AcDbLayerTableRecord
  2
16_MISC
 70
0
 62
7
  6
CONTINUOUS
370
-3
390
F
  0
LAYER
  5
20A
100
AcDbSymbolTableRecord
100
AcDbLayerTableRecord
  2
17_NO_PRINT
 70
0
 62
7
  6
CONTINUOUS
370
-3
390
F
  0
LAYER
  5
20B
100
AcDbSymbolTableRecord
100
AcDbLayerTableRecord
  2
18_DATUM_CAMS_JOINTS
 70
0
 62
7
  6
CONTINUOUS
370
-3
390
F
  0
LAYER
  5
20C
100
AcDbSymbolTableRecord
100
AcDbLayerTableRecord
  2
19_DATUM_FUNCTIONAL
 70
0
 62
7
  6
CONTINUOUS
370
-3
390
F
  0
LAYER
  5
20D
100
AcDbSymbolTableRecord
100
AcDbLayerTableRecord
  2
20_DATUM_KINEMATIC_SCHEME
 70
0
 62
7
  6
CONTINUOUS
370
-3
390
F
  0
LAYER
  5
20E
100
AcDbSymbolTableRecord
100
AcDbLayerTableRecord
  2
PART
 70
0
 62
7
  6
CONTINUOUS
370
-3
390
F
  0
ENDTAB
  0
TABLE
  2
STYLE
  5
3
100
AcDbSymbolTable
 70
1
  0
STYLE
  5
11
100
AcDbSymbolTableRecord
100
AcDbTextStyleTableRecord
  2
STANDARD
 70
0
 40
0.0
 41
0.8
 50
0.0
 71
0
 42
0.2
  3
txt
  4

  0
STYLE
  5
20F
100
AcDbSymbolTableRecord
100
AcDbTextStyleTableRecord
  2
TEXTSTYLE_1
 70
0
 40
0.0
 41
0.8
 50
0.0
 71
0
 42
0.2
  3
gdt
  4

  0
ENDTAB
  0
TABLE
  2
VIEW
  5
6
100
AcDbSymbolTable
 70
0
  0
ENDTAB
  0
TABLE
  2
UCS
  5
7
100
AcDbSymbolTable
 70
0
  0
ENDTAB
  0
TABLE
  2
APPID
  5
9
100
AcDbSymbolTable
 70
1
  0
APPID
  5
210
100
AcDbSymbolTableRecord
100
AcDbRegAppTableRecord
  2
ACAD
 70
0
  0
ENDTAB
  0
TABLE
  2
BLOCK_RECORD
  5
1
100
AcDbSymbolTable
 70
0
  0
BLOCK_RECORD
  5
211
100
AcDbSymbolTableRecord
100
AcDbBlockTableRecord
  2
*Model_Space
  0
BLOCK_RECORD
  5
212
100
AcDbSymbolTableRecord
100
AcDbBlockTableRecord
  2
*Paper_Space
  0
BLOCK_RECORD
  5
213
100
AcDbSymbolTableRecord
100
AcDbBlockTableRecord
  2
_FILLED
  0
ENDTAB
  0
TABLE
  2
DIMSTYLE
  5
A
100
AcDbSymbolTable
 70
1
100
AcDbDimStyleTable
 71
0
  0
DIMSTYLE
105
214
100
AcDbSymbolTableRecord
100
AcDbDimStyleTableRecord
  2
STANDARD
 70
0
  3

  4

 40
1.0
 41
9.8951142117
 42
1.0
 43
0.38
 44
1.0
 45
0.0
 46
0.0
 47
0.01
 48
0.01
140
13.8531598963
141
0.09
142
0.0
143
25.4
144
1.0
145
0.0
146
1.0
147
0.625
 71
1
 72
0
 73
0
 74
0
 75
0
 76
0
 77
1
 78
8
 79
2
170
0
171
1
172
0
173
0
174
0
175
0
176
0
177
0
178
0
270
2
179
2
271
2
272
2
273
2
274
2
275
0
280
0
281
0
282
0
283
1
284
8
285
0
286
0
287
3
288
0
340
11
278
46
341
213
342
213
343
213
344
213
  0
ENDTAB
  0
ENDSEC
  0
SECTION
  2
BLOCKS
  0
BLOCK
  5
20
100
AcDbEntity
  8
0
100
AcDbBlockBegin
  2
*Model_Space
 70
0
 10
0.0
 20
0.0
 30
0.0
  3
*Model_Space
  1

  0
ENDBLK
  5
21
100
AcDbEntity
  8
0
100
AcDbBlockEnd
  0
BLOCK
  5
1C
100
AcDbEntity
  8
0
100
AcDbBlockBegin
  2
*Paper_Space
 70
0
 10
0.0
 20
0.0
 30
0.0
  3
*Paper_Space
  1

  0
ENDBLK
  5
1D
100
AcDbEntity
  8
0
100
AcDbBlockEnd
  0
BLOCK
  5
215
100
AcDbEntity
  8
0
100
AcDbBlockBegin
  2
_FILLED
 70
64
 10
0.0
 20
0.0
  3
_FILLED
  1

  0
SOLID
  5
216
100
AcDbEntity
  8
0
  6
BYBLOCK
 62
0
100
AcDbTrace
 10
0.0
 20
0.0
 11
-1.0
 21
0.25
 12
-1.0
 22
-0.25
 13
-1.0
 23
-0.25
  0
ENDBLK
  5
217
100
AcDbEntity
  8
0
  6
BYBLOCK
 62
0
100
AcDbBlockEnd
  0
ENDSEC
  0
SECTION
  2
ENTITIES
  0
LINE
  5
218
100
AcDbEntity
  8
PART
100
AcDbLine
 62
7
  6
CONTINUOUS
 10
724.1861637962
 20
84.1726618705
 11
127.5861637962
 21
84.1726618706
  0
LINE
  5
219
100
AcDbEntity
  8
PART
100
AcDbLine
 62
7
  6
CONTINUOUS
 10
127.5861637962
 20
85.3726618705
 11
126.3861637962
 21
85.3726618705
  0
LINE
  5
21A
100
AcDbEntity
  8
PART
100
AcDbLine
 62
7
  6
CONTINUOUS
 10
128.5861637962
 20
86.3726618706
 11
726.3861637962
 21
86.3726618705
  0
LINE
  5
21B
100
AcDbEntity
  8
PART
100
AcDbLine
 62
7
  6
CONTINUOUS
 10
706.062116623
 20
99.5726618705
 11
146.7102109693
 21
99.5726618705
  0
LINE
  5
21C
100
AcDbEntity
  8
PART
100
AcDbLine
 62
7
  6
CONTINUOUS
 10
706.0621166231
 20
100.1728183202
 11
146.7102109693
 21
100.1728183202
  0
LINE
  5
21D
100
AcDbEntity
  8
PART
100
AcDbLine
 62
7
  6
CONTINUOUS
 10
709.0369918381
 20
102.1219902783
 11
708.4368353884
 21
102.1219902784
  0
LINE
  5
21E
100
AcDbEntity
  8
PART
100
AcDbLine
 62
7
  6
CONTINUOUS
 10
144.335492204
 20
102.1219902784
 11
143.7353357543
 21
102.1219902783
  0
LINE
  5
21F
100
AcDbEntity
  8
PART
100
AcDbLine
 62
7
  6
CONTINUOUS
 10
141.7861637962
 20
104.4967090437
 11
142.3863202459
 21
104.4967090437
  0
LINE
  5
220
100
AcDbEntity
  8
PART
100
AcDbLine
 62
7
  6
CONTINUOUS
 10
710.3860073466
 20
104.4967090437
 11
710.9861637963
 21
104.4967090437
  0
LINE
  5
221
100
AcDbEntity
  8
PART
100
AcDbLine
 62
7
  6
CONTINUOUS
 10
705.9858769718
 20
104.5729486949
 11
146.7864506206
 21
104.572948695
  0
LINE
  5
222
100
AcDbEntity
  8
PART
100
AcDbLine
 62
7
  6
CONTINUOUS
 10
147.8861637962
 20
105.6726618706
 11
704.8861637962
 21
105.6726618705
  0
LINE
  5
223
100
AcDbEntity
  8
PART
100
AcDbLine
 62
7
  6
CONTINUOUS
 10
126.3861637962
 20
85.3726618705
 11
126.3861637962
 21
1081.9726618705
  0
LINE
  5
224
100
AcDbEntity
  8
PART
100
AcDbLine
 62
7
  6
CONTINUOUS
 10
127.5861637962
 20
84.1726618706
 11
127.5861637962
 21
85.3726618706
  0
LINE
  5
225
100
AcDbEntity
  8
PART
100
AcDbLine
 62
7
  6
CONTINUOUS
 10
128.5861637962
 20
1084.1726618705
 11
128.5861637962
 21
86.3726618705
  0
LINE
  5
226
100
AcDbEntity
  8
PART
100
AcDbLine
 62
7
  6
CONTINUOUS
 10
141.7861637962
 20
104.4967090437
 11
141.7861637962
 21
1063.8486146973
  0
LINE
  5
227
100
AcDbEntity
  8
PART
100
AcDbLine
 62
7
  6
CONTINUOUS
 10
142.3863202459
 20
104.4967090437
 11
142.3863202459
 21
1063.8486146973
  0
LINE
  5
228
100
AcDbEntity
  8
PART
100
AcDbLine
 62
7
  6
CONTINUOUS
 10
144.3354922041
 20
101.5218338286
 11
144.3354922041
 21
102.1219902783
  0
LINE
  5
229
100
AcDbEntity
  8
PART
100
AcDbLine
 62
7
  6
CONTINUOUS
 10
144.3354922041
 20
1066.2233334627
 11
144.3354922041
 21
1066.8234899124
  0
LINE
  5
22A
100
AcDbEntity
  8
PART
100
AcDbLine
 62
7
  6
CONTINUOUS
 10
146.7102109694
 20
1068.7726618705
 11
146.7102109694
 21
1068.1725054208
  0
LINE
  5
22B
100
AcDbEntity
  8
PART
100
AcDbLine
 62
7
  6
CONTINUOUS
 10
146.7102109693
 20
100.1728183202
 11
146.7102109693
 21
99.5726618705
  0
LINE
  5
22C
100
AcDbEntity
  8
PART
100
AcDbLine
 62
7
  6
CONTINUOUS
 10
146.7864506207
 20
104.5729486949
 11
146.7864506207
 21
1063.7723750461
  0
LINE
  5
22D
100
AcDbEntity
  8
PART
100
AcDbLine
 62
7
  6
CONTINUOUS
 10
147.8861637962
 20
1062.6726618705
 11
147.8861637962
 21
105.6726618705
  0
LINE
  5
22E
100
AcDbEntity
  8
PART
100
AcDbLine
 62
7
  6
CONTINUOUS
 10
724.1861637962
 20
1081.9726618705
 11
705.9858769718
 21
1063.772375046
  0
LINE
  5
22F
100
AcDbEntity
  8
PART
100
AcDbLine
 62
7
  6
CONTINUOUS
 10
724.1861637962
 20
86.3726618705
 11
705.9858769718
 21
104.5729486949
  0
LINE
  5
230
100
AcDbEntity
  8
PART
100
AcDbLine
 62
7
  6
CONTINUOUS
 10
146.7864506207
 20
104.5729486949
 11
128.5861637962
 21
86.3726618705
  0
LINE
  5
231
100
AcDbEntity
  8
PART
100
AcDbLine
 62
7
  6
CONTINUOUS
 10
128.5861637962
 20
1081.9726618705
 11
146.7864506207
 21
1063.7723750461
  0
LINE
  5
232
100
AcDbEntity
  8
PART
100
AcDbLine
 62
7
  6
CONTINUOUS
 10
704.8861637962
 20
105.6726618705
 11
704.8861637962
 21
1062.6726618705
  0
LINE
  5
233
100
AcDbEntity
  8
PART
100
AcDbLine
 62
7
  6
CONTINUOUS
 10
705.9858769718
 20
1063.7723750461
 11
705.9858769718
 21
104.5729486949
  0
LINE
  5
234
100
AcDbEntity
  8
PART
100
AcDbLine
 62
7
  6
CONTINUOUS
 10
706.062116623
 20
99.5726618705
 11
706.062116623
 21
100.1728183202
  0
LINE
  5
235
100
AcDbEntity
  8
PART
100
AcDbLine
 62
7
  6
CONTINUOUS
 10
706.062116623
 20
1068.1725054208
 11
706.062116623
 21
1068.7726618705
  0
LINE
  5
236
100
AcDbEntity
  8
PART
100
AcDbLine
 62
7
  6
CONTINUOUS
 10
708.4368353883
 20
1066.8234899123
 11
708.4368353883
 21
1066.2233334626
  0
LINE
  5
237
100
AcDbEntity
  8
PART
100
AcDbLine
 62
7
  6
CONTINUOUS
 10
708.4368353884
 20
102.1219902783
 11
708.4368353884
 21
101.5218338286
  0
LINE
  5
238
100
AcDbEntity
  8
PART
100
AcDbLine
 62
7
  6
CONTINUOUS
 10
710.3860073465
 20
1063.8486146973
 11
710.3860073465
 21
104.4967090437
  0
LINE
  5
239
100
AcDbEntity
  8
PART
100
AcDbLine
 62
7
  6
CONTINUOUS
 10
710.9861637963
 20
1063.8486146973
 11
710.9861637963
 21
104.4967090437
  0
LINE
  5
23A
100
AcDbEntity
  8
PART
100
AcDbLine
 62
7
  6
CONTINUOUS
 10
724.1861637962
 20
84.1726618705
 11
724.1861637962
 21
1084.1726618705
  0
LINE
  5
23B
100
AcDbEntity
  8
PART
100
AcDbLine
 62
7
  6
CONTINUOUS
 10
726.3861637962
 20
1081.9726618705
 11
726.3861637962
 21
86.3726618705
  0
LINE
  5
23C
100
AcDbEntity
  8
PART
100
AcDbLine
 62
7
  6
CONTINUOUS
 10
704.8861637962
 20
1062.6726618705
 11
147.8861637962
 21
1062.6726618705
  0
LINE
  5
23D
100
AcDbEntity
  8
PART
100
AcDbLine
 62
7
  6
CONTINUOUS
 10
146.7864506206
 20
1063.772375046
 11
705.9858769718
 21
1063.772375046
  0
LINE
  5
23E
100
AcDbEntity
  8
PART
100
AcDbLine
 62
7
  6
CONTINUOUS
 10
710.9861637963
 20
1063.8486146973
 11
710.3860073466
 21
1063.8486146973
  0
LINE
  5
23F
100
AcDbEntity
  8
PART
100
AcDbLine
 62
7
  6
CONTINUOUS
 10
142.3863202459
 20
1063.8486146973
 11
141.7861637962
 21
1063.8486146973
  0
LINE
  5
240
100
AcDbEntity
  8
PART
100
AcDbLine
 62
7
  6
CONTINUOUS
 10
143.7353357543
 20
1066.2233334626
 11
144.335492204
 21
1066.2233334626
  0
LINE
  5
241
100
AcDbEntity
  8
PART
100
AcDbLine
 62
7
  6
CONTINUOUS
 10
708.4368353884
 20
1066.2233334626
 11
709.0369918381
 21
1066.2233334626
  0
LINE
  5
242
100
AcDbEntity
  8
PART
100
AcDbLine
 62
7
  6
CONTINUOUS
 10
146.7102109694
 20
1068.1725054208
 11
706.062116623
 21
1068.1725054208
  0
LINE
  5
243
100
AcDbEntity
  8
PART
100
AcDbLine
 62
7
  6
CONTINUOUS
 10
146.7102109694
 20
1068.7726618705
 11
706.062116623
 21
1068.7726618705
  0
LINE
  5
244
100
AcDbEntity
  8
PART
100
AcDbLine
 62
7
  6
CONTINUOUS
 10
726.3861637962
 20
1081.9726618705
 11
126.3861637962
 21
1081.9726618705
  0
LINE
  5
245
100
AcDbEntity
  8
PART
100
AcDbLine
 62
7
  6
CONTINUOUS
 10
128.5861637962
 20
1084.1726618705
 11
724.1861637962
 21
1084.1726618705
  0
ARC
  5
246
100
AcDbEntity
  8
PART
100
AcDbCircle
 62
7
  6
CONTINUOUS
 10
-187.9969584831
 20
402.466644439
 40
447.3709525893
100
AcDbArc
 50
314.9204965726
 51
315.0460867241
  0
ARC
  5
247
100
AcDbEntity
  8
PART
100
AcDbCircle
 62
7
  6
CONTINUOUS
 10
159.1784924165
 20
116.2619564971
 40
20.5036117269
100
AcDbArc
 50
215.0165771671
 51
217.9022113251
  0
ARC
  5
248
100
AcDbEntity
  8
PART
100
AcDbCircle
 62
7
  6
CONTINUOUS
 10
158.3088776224
 20
116.7381560717
 40
20.222252173
100
AcDbArc
 50
229.1709081266
 51
235.0011783555
  0
ARC
  5
249
100
AcDbEntity
  8
PART
100
AcDbCircle
 62
7
  6
CONTINUOUS
 10
158.203097135
 20
115.9844465528
 40
20.0370609953
100
AcDbArc
 50
214.9823785188
 51
223.7760012185
  0
ARC
  5
24A
100
AcDbEntity
  8
PART
100
AcDbCircle
 62
7
  6
CONTINUOUS
 10
158.1979484677
 20
115.9895951961
 40
20.0370609783
100
AcDbArc
 50
226.2239987777
 51
235.0176214846
  0
ARC
  5
24B
100
AcDbEntity
  8
PART
100
AcDbCircle
 62
7
  6
CONTINUOUS
 10
158.7231346606
 20
115.9088717294
 40
19.9274014966
100
AcDbArc
 50
217.9054551495
 51
220.8529245857
  0
ARC
  5
24C
100
AcDbEntity
  8
PART
100
AcDbCircle
 62
7
  6
CONTINUOUS
 10
157.9434257391
 20
116.3000987879
 40
19.6518586114
100
AcDbArc
 50
227.3515493452
 51
229.1421025745
  0
ARC
  5
24D
100
AcDbEntity
  8
PART
100
AcDbCircle
 62
7
  6
CONTINUOUS
 10
158.4863396976
 20
115.7057001573
 40
19.6153934159
100
AcDbArc
 50
220.8564736607
 51
223.8285349867
  0
ARC
  5
24E
100
AcDbEntity
  8
PART
100
AcDbCircle
 62
7
  6
CONTINUOUS
 10
157.8773602891
 20
116.2281596582
 40
19.554186401
100
AcDbArc
 50
226.1692545682
 51
227.3511219111
  0
CIRCLE
  5
24F
100
AcDbEntity
  8
PART
100
AcDbCircle
 62
7
  6
CONTINUOUS
 10
137.6861637963
 20
153.1726618705
 40
3.85
  0
ARC
  5
250
100
AcDbEntity
  8
PART
100
AcDbCircle
 62
7
  6
CONTINUOUS
 10
145.239341867
 20
107.8193700886
 40
3.5833054406
100
AcDbArc
 50
303.7022792048
 51
306.5165107297
  0
ARC
  5
251
100
AcDbEntity
  8
PART
100
AcDbCircle
 62
7
  6
CONTINUOUS
 10
158.4754584223
 20
1051.380333251
 40
20.5036117259
100
AcDbArc
 50
125.0165771671
 51
127.9022113251
  0
ARC
  5
252
100
AcDbEntity
  8
PART
100
AcDbCircle
 62
7
  6
CONTINUOUS
 10
158.9516580074
 20
1052.2499480367
 40
20.2222521855
100
AcDbArc
 50
139.170908129
 51
145.0011783544
  0
ARC
  5
253
100
AcDbEntity
  8
PART
100
AcDbCircle
 62
7
  6
CONTINUOUS
 10
158.1979484757
 20
1052.3557285352
 40
20.0370609908
100
AcDbArc
 50
124.9823785179
 51
133.7760012195
  0
ARC
  5
254
100
AcDbEntity
  8
PART
100
AcDbCircle
 62
7
  6
CONTINUOUS
 10
158.2030971316
 20
1052.360877191
 40
20.0370609908
100
AcDbArc
 50
136.2239987805
 51
145.0176214821
  0
ARC
  5
255
100
AcDbEntity
  8
PART
100
AcDbCircle
 62
7
  6
CONTINUOUS
 10
158.1223736558
 20
1051.8356910053
 40
19.9274014977
100
AcDbArc
 50
127.9054551496
 51
130.8529245857
  0
ARC
  5
256
100
AcDbEntity
  8
PART
100
AcDbCircle
 62
7
  6
CONTINUOUS
 10
158.5136007202
 20
1052.6153999228
 40
19.6518586195
100
AcDbArc
 50
137.3515493478
 51
139.1421025765
  0
ARC
  5
257
100
AcDbEntity
  8
PART
100
AcDbCircle
 62
7
  6
CONTINUOUS
 10
157.9192020808
 20
1052.0724859716
 40
19.6153934126
100
AcDbArc
 50
130.8564736604
 51
133.8285349869
  0
ARC
  5
258
100
AcDbEntity
  8
PART
100
AcDbCircle
 62
7
  6
CONTINUOUS
 10
158.4416615796
 20
1052.6814653828
 40
19.5541863944
100
AcDbArc
 50
136.1692545703
 51
137.3511219136
  0
CIRCLE
  5
259
100
AcDbEntity
  8
PART
100
AcDbCircle
 62
7
  6
CONTINUOUS
 10
137.6861637963
 20
1015.1726618705
 40
3.85
  0
CIRCLE
  5
25A
100
AcDbEntity
  8
PART
100
AcDbCircle
 62
7
  6
CONTINUOUS
 10
137.6861637963
 20
584.1726618705
 40
3.85
  0
ARC
  5
25B
100
AcDbEntity
  8
PART
100
AcDbCircle
 62
7
  6
CONTINUOUS
 10
150.0328720147
 20
1065.3194837999
 40
3.583305441
100
AcDbArc
 50
213.7022792046
 51
216.5165107274
  0
ARC
  5
25C
100
AcDbEntity
  8
PART
100
AcDbCircle
 62
7
  6
CONTINUOUS
 10
128.5861637962
 20
1081.9726618705
 40
2.2
100
AcDbArc
 50
90.0
 51
180.0
  0
ARC
  5
25D
100
AcDbEntity
  8
PART
100
AcDbCircle
 62
7
  6
CONTINUOUS
 10
128.5861637962
 20
1081.9726618705
 40
1.0
100
AcDbArc
 50
90.0
 51
180.0
  0
ARC
  5
25E
100
AcDbEntity
  8
PART
100
AcDbCircle
 62
7
  6
CONTINUOUS
 10
694.2968691548
 20
116.9649905114
 40
20.5036117523
100
AcDbArc
 50
305.0165771679
 51
307.9022113221
  0
ARC
  5
25F
100
AcDbEntity
  8
PART
100
AcDbCircle
 62
7
  6
CONTINUOUS
 10
693.8206695935
 20
116.0953756979
 40
20.222252175
100
AcDbArc
 50
319.1709081269
 51
325.0011783552
  0
ARC
  5
260
100
AcDbEntity
  8
PART
100
AcDbCircle
 62
7
  6
CONTINUOUS
 10
694.5743791131
 20
115.9895952102
 40
20.0370609966
100
AcDbArc
 50
304.9823785192
 51
313.7760012182
  0
ARC
  5
261
100
AcDbEntity
  8
PART
100
AcDbCircle
 62
7
  6
CONTINUOUS
 10
694.5692304608
 20
115.9844465501
 40
20.037060991
100
AcDbArc
 50
316.2239987803
 51
325.0176214819
  0
ARC
  5
262
100
AcDbEntity
  8
PART
100
AcDbCircle
 62
7
  6
CONTINUOUS
 10
694.649953959
 20
116.5096327078
 40
19.9274014621
100
AcDbArc
 50
307.905455148
 51
310.8529245894
  0
ARC
  5
263
100
AcDbEntity
  8
PART
100
AcDbCircle
 62
7
  6
CONTINUOUS
 10
694.2587268727
 20
115.7299238192
 40
19.6518586199
100
AcDbArc
 50
317.3515493446
 51
319.1421025734
  0
ARC
  5
264
100
AcDbEntity
  8
PART
100
AcDbCircle
 62
7
  6
CONTINUOUS
 10
694.853125493
 20
116.2728377881
 40
19.615393439
100
AcDbArc
 50
310.8564736658
 51
313.8285349882
  0
ARC
  5
265
100
AcDbEntity
  8
PART
100
AcDbCircle
 62
7
  6
CONTINUOUS
 10
694.3306659765
 20
115.663858393
 40
19.5541864446
100
AcDbArc
 50
316.1692545704
 51
317.3511219107
  0
CIRCLE
  5
266
100
AcDbEntity
  8
PART
100
AcDbCircle
 62
7
  6
CONTINUOUS
 10
715.0861637961
 20
153.1726618705
 40
3.85
  0
ARC
  5
267
100
AcDbEntity
  8
PART
100
AcDbCircle
 62
7
  6
CONTINUOUS
 10
702.739455582
 20
103.0258399441
 40
3.5833054358
100
AcDbArc
 50
33.7022792
 51
36.5165107277
  0
ARC
  5
268
100
AcDbEntity
  8
PART
100
AcDbCircle
 62
7
  6
CONTINUOUS
 10
724.1861637962
 20
86.3726618705
 40
2.2
100
AcDbArc
 50
270.0
 51
360.0
  0
ARC
  5
269
100
AcDbEntity
  8
PART
100
AcDbCircle
 62
7
  6
CONTINUOUS
 10
724.1861637962
 20
86.3726618705
 40
1.0
100
AcDbArc
 50
270.0
 51
360.0
  0
ARC
  5
26A
100
AcDbEntity
  8
PART
100
AcDbCircle
 62
7
  6
CONTINUOUS
 10
693.5938351795
 20
1052.0833672463
 40
20.5036117226
100
AcDbArc
 50
35.0165771669
 51
37.9022113254
  0
ARC
  5
26B
100
AcDbEntity
  8
PART
100
AcDbCircle
 62
7
  6
CONTINUOUS
 10
694.4634499682
 20
1051.6071676671
 40
20.2222521759
100
AcDbArc
 50
49.1709081271
 51
55.0011783551
  0
ARC
  5
26C
100
AcDbEntity
  8
PART
100
AcDbCircle
 62
7
  6
CONTINUOUS
 10
694.5743791137
 20
1052.3557285321
 40
20.037060995
100
AcDbArc
 50
46.2239987802
 51
55.01762148
  0
ARC
  5
26D
100
AcDbEntity
  8
PART
100
AcDbCircle
 62
7
  6
CONTINUOUS
 10
694.5692304612
 20
1052.3608771912
 40
20.0370609905
100
AcDbArc
 50
34.9823785178
 51
43.7760012196
  0
ARC
  5
26E
100
AcDbEntity
  8
PART
100
AcDbCircle
 62
7
  6
CONTINUOUS
 10
694.04919294
 20
1052.4364520177
 40
19.9274014865
100
AcDbArc
 50
37.9054551498
 51
40.8529245876
  0
ARC
  5
26F
100
AcDbEntity
  8
PART
100
AcDbCircle
 62
7
  6
CONTINUOUS
 10
694.828901849
 20
1052.0452249485
 40
19.6518586176
100
AcDbArc
 50
47.3515493448
 51
49.1421025737
  0
ARC
  5
270
100
AcDbEntity
  8
PART
100
AcDbCircle
 62
7
  6
CONTINUOUS
 10
694.2859878939
 20
1052.6396235818
 40
19.6153934179
100
AcDbArc
 50
40.856473663
 51
43.8285349886
  0
ARC
  5
271
100
AcDbEntity
  8
PART
100
AcDbCircle
 62
7
  6
CONTINUOUS
 10
694.8949672811
 20
1052.1171640588
 40
19.5541864337
100
AcDbArc
 50
46.1692545697
 51
47.3511219106
  0
CIRCLE
  5
272
100
AcDbEntity
  8
PART
100
AcDbCircle
 62
7
  6
CONTINUOUS
 10
715.0861637961
 20
1015.1726618705
 40
3.85
  0
CIRCLE
  5
273
100
AcDbEntity
  8
PART
100
AcDbCircle
 62
7
  6
CONTINUOUS
 10
715.0861637961
 20
584.1726618705
 40
3.85
  0
ARC
  5
274
100
AcDbEntity
  8
PART
100
AcDbCircle
 62
7
  6
CONTINUOUS
 10
707.5329857229
 20
1060.5259536559
 40
3.5833054362
100
AcDbArc
 50
123.7022792014
 51
126.5165107288
  0
ARC
  5
275
100
AcDbEntity
  8
PART
100
AcDbCircle
 62
7
  6
CONTINUOUS
 10
724.1861637962
 20
1081.9726618705
 40
2.2
100
AcDbArc
 50
0.0
 51
90.0
  0
ARC
  5
276
100
AcDbEntity
  8
PART
100
AcDbCircle
 62
7
  6
CONTINUOUS
 10
724.1861637962
 20
1081.9726618705
 40
1.0
100
AcDbArc
 50
0.0
 51
90.0
  0
LINE
  5
277
100
AcDbEntity
  8
PART
100
AcDbLine
 62
7
  6
CONTINUOUS
 10
127.9774329138
 20
85.7645389689
 11
127.9024606263
 21
85.68930345
  0
LINE
  5
278
100
AcDbEntity
  8
PART
100
AcDbLine
 62
7
  6
CONTINUOUS
 10
127.9024606263
 20
85.68930345
 11
127.7384343749
 21
85.5246876371
  0
SPLINE
  5
279
100
AcDbEntity
  8
PART
100
AcDbSpline
 62
7
  6
CONTINUOUS
 70
0
 71
3
 72
9
 73
5
 74
0
 42
0.0000001
 43
0.0000001
 44
0.0000000001
 40
0.0
 40
0.0
 40
0.0
 40
0.0
 40
0.5991280442
 40
1.0
 40
1.0
 40
1.0
 40
1.0
 10
128.5861637962
 20
86.3726618706
 30
0.0
 10
128.4311340328
 20
86.1291416876
 30
0.0
 10
128.2000557229
 20
85.7292981392
 30
0.0
 10
127.7793175497
 20
85.3726618706
 30
0.0
 10
127.5861637962
 20
85.3726618706
 30
0.0
  0
SPLINE
  5
27A
100
AcDbEntity
  8
PART
100
AcDbSpline
 62
7
  6
CONTINUOUS
 70
0
 71
3
 72
8
 73
4
 74
0
 42
0.0000001
 43
0.0000001
 44
0.0000000001
 40
0.0
 40
0.0
 40
0.0
 40
0.0
 40
1.0
 40
1.0
 40
1.0
 40
1.0
 10
705.7205222191
 20
105.0141355841
 30
0.0
 10
705.8159290587
 20
104.8714872867
 30
0.0
 10
705.9030221002
 20
104.7232353278
 30
0.0
 10
705.9858769718
 20
104.5729486949
 30
0.0
  0
SPLINE
  5
27B
100
AcDbEntity
  8
PART
100
AcDbSpline
 62
7
  6
CONTINUOUS
 70
0
 71
3
 72
9
 73
5
 74
0
 42
0.0000001
 43
0.0000001
 44
0.0000000001
 40
0.0
 40
0.0
 40
0.0
 40
0.0
 40
0.2982825491
 40
1.0
 40
1.0
 40
1.0
 40
1.0
 10
146.7864506206
 20
104.572948695
 30
0.0
 10
146.8448852767
 20
104.6789406244
 30
0.0
 10
147.0484100655
 20
105.0270072982
 30
0.0
 10
147.2879935315
 20
105.3743901635
 30
0.0
 10
147.5195927377
 20
105.5400233591
 30
0.0
  0
LINE
  5
27C
100
AcDbEntity
  8
PART
100
AcDbLine
 62
7
  6
CONTINUOUS
 10
127.7361537903
 20
85.5228916053
 11
127.9028204356
 21
85.6889638808
  0
SPLINE
  5
27D
100
AcDbEntity
  8
PART
100
AcDbSpline
 62
7
  6
CONTINUOUS
 70
0
 71
3
 72
9
 73
5
 74
0
 42
0.0000001
 43
0.0000001
 44
0.0000000001
 40
0.0
 40
0.0
 40
0.0
 40
0.0
 40
0.2982825491
 40
1.0
 40
1.0
 40
1.0
 40
1.0
 10
705.9858769718
 20
104.5729486949
 30
0.0
 10
705.8798850424
 20
104.6313833509
 30
0.0
 10
705.5318183686
 20
104.8349081397
 30
0.0
 10
705.1844355033
 20
105.0744916057
 30
0.0
 10
705.0188023077
 20
105.3060908119
 30
0.0
  0
SPLINE
  5
27E
100
AcDbEntity
  8
PART
100
AcDbSpline
 62
7
  6
CONTINUOUS
 70
0
 71
3
 72
8
 73
4
 74
0
 42
0.0000001
 43
0.0000001
 44
0.0000000001
 40
0.0
 40
0.0
 40
0.0
 40
0.0
 40
1.0
 40
1.0
 40
1.0
 40
1.0
 10
705.5446900827
 20
1063.5070202933
 30
0.0
 10
705.68733838
 20
1063.6024271329
 30
0.0
 10
705.8355903389
 20
1063.6895201745
 30
0.0
 10
705.9858769718
 20
1063.7723750461
 30
0.0
  0
SPLINE
  5
27F
100
AcDbEntity
  8
PART
100
AcDbSpline
 62
7
  6
CONTINUOUS
 70
0
 71
3
 72
8
 73
4
 74
0
 42
0.0000001
 43
0.0000001
 44
0.0000000001
 40
0.0
 40
0.0
 40
0.0
 40
0.0
 40
1.0
 40
1.0
 40
1.0
 40
1.0
 10
147.0518053735
 20
1063.3311881568
 30
0.0
 10
146.9563985339
 20
1063.4738364542
 30
0.0
 10
146.8693054923
 20
1063.6220884131
 30
0.0
 10
146.7864506206
 20
1063.7723750461
 30
0.0
  0
SPLINE
  5
280
100
AcDbEntity
  8
PART
100
AcDbSpline
 62
7
  6
CONTINUOUS
 70
0
 71
3
 72
9
 73
5
 74
0
 42
0.0000001
 43
0.0000001
 44
0.0000000001
 40
0.0
 40
0.0
 40
0.0
 40
0.0
 40
0.2982825491
 40
1.0
 40
1.0
 40
1.0
 40
1.0
 10
705.9858769718
 20
1063.7723750461
 30
0.0
 10
705.9274423158
 20
1063.6663831167
 30
0.0
 10
705.723917527
 20
1063.3183164428
 30
0.0
 10
705.484334061
 20
1062.9709335775
 30
0.0
 10
705.2527348548
 20
1062.8053003819
 30
0.0
  0
SPLINE
  5
281
100
AcDbEntity
  8
PART
100
AcDbSpline
 62
7
  6
CONTINUOUS
 70
0
 71
3
 72
9
 73
5
 74
0
 42
0.0000001
 43
0.0000001
 44
0.0000000001
 40
0.0
 40
0.0
 40
0.0
 40
0.0
 40
0.1989427598
 40
1.0
 40
1.0
 40
1.0
 40
1.0
 10
127.5861637962
 20
85.3726618705
 30
0.0
 10
127.5861637962
 20
85.4292503612
 30
0.0
 10
127.6545220105
 20
85.7143461517
 30
0.0
 10
127.9025536733
 20
85.9043973583
 30
0.0
 10
128.0861637655
 20
86.0393285292
 30
0.0
  0
SPLINE
  5
282
100
AcDbEntity
  8
PART
100
AcDbSpline
 62
7
  6
CONTINUOUS
 70
0
 71
3
 72
8
 73
4
 74
0
 42
0.0000001
 43
0.0000001
 44
0.0000000001
 40
0.0
 40
0.0
 40
0.0
 40
0.0
 40
1.0
 40
1.0
 40
1.0
 40
1.0
 10
147.2276375099
 20
104.8383034477
 30
0.0
 10
147.0849892125
 20
104.7428966081
 30
0.0
 10
146.9367372536
 20
104.6558035665
 30
0.0
 10
146.7864506206
 20
104.5729486949
 30
0.0
  0
SPLINE
  5
283
100
AcDbEntity
  8
PART
100
AcDbSpline
 62
7
  6
CONTINUOUS
 70
0
 71
3
 72
9
 73
5
 74
0
 42
0.0000001
 43
0.0000001
 44
0.0000000001
 40
0.0
 40
0.0
 40
0.0
 40
0.0
 40
0.2982825491
 40
1.0
 40
1.0
 40
1.0
 40
1.0
 10
146.7864506206
 20
1063.7723750461
 30
0.0
 10
146.8924425501
 20
1063.71394039
 30
0.0
 10
147.2405092239
 20
1063.5104156012
 30
0.0
 10
147.5878920893
 20
1063.2708321352
 30
0.0
 10
147.7535252848
 20
1063.0392329289
 30
0.0
  0
SPLINE
  5
284
100
AcDbEntity
  8
PART
100
AcDbSpline
 62
7
  6
CONTINUOUS
 70
0
 71
3
 72
9
 73
5
 74
0
 42
0.0000001
 43
0.0000001
 44
0.0000000001
 40
0.0
 40
0.0
 40
0.0
 40
0.0
 40
0.3379896915
 40
1.0
 40
1.0
 40
1.0
 40
1.0
 10
127.5861637962
 20
84.1726618706
 30
0.0
 10
127.7344822164
 20
84.1726618706
 30
0.0
 10
128.0390871097
 20
84.6208379175
 30
0.0
 10
128.160811422
 20
84.9971137684
 30
0.0
 10
128.2528304618
 20
85.2726618231
 30
0.0
  0
SPLINE
  5
285
100
AcDbEntity
  8
PART
100
AcDbSpline
 62
7
  6
CONTINUOUS
 70
0
 71
3
 72
8
 73
4
 74
0
 42
0.0000001
 43
0.0000001
 44
0.0000000001
 40
0.0
 40
0.0
 40
0.0
 40
0.0
 40
1.0
 40
1.0
 40
1.0
 40
1.0
 10
128.2528304618
 20
85.2726618231
 30
0.0
 10
128.3741888344
 20
85.6360655663
 30
0.0
 10
128.4796651655
 20
86.0046290231
 30
0.0
 10
128.5861637962
 20
86.3726618706
 30
0.0
  0
SPLINE
  5
286
100
AcDbEntity
  8
PART
100
AcDbSpline
 62
7
  6
CONTINUOUS
 70
0
 71
3
 72
8
 73
4
 74
0
 42
0.0000001
 43
0.0000001
 44
0.0000000001
 40
0.0
 40
0.0
 40
0.0
 40
0.0
 40
1.0
 40
1.0
 40
1.0
 40
1.0
 10
128.5861637962
 20
86.3726618705
 30
0.0
 10
128.2481765682
 20
86.2748576195
 30
0.0
 10
127.9098791723
 20
86.1776389111
 30
0.0
 10
127.5753100246
 20
86.068714519
 30
0.0
  0
SPLINE
  5
287
100
AcDbEntity
  8
PART
100
AcDbSpline
 62
7
  6
CONTINUOUS
 70
0
 71
3
 72
9
 73
5
 74
0
 42
0.0000001
 43
0.0000001
 44
0.0000000001
 40
0.0
 40
0.0
 40
0.0
 40
0.0
 40
0.2925997023
 40
1.0
 40
1.0
 40
1.0
 40
1.0
 10
127.5753100246
 20
86.068714519
 30
0.0
 10
127.4857371834
 20
86.0395526332
 30
0.0
 10
127.1813748744
 20
85.9359728798
 30
0.0
 10
126.8778274813
 20
85.8204037245
 30
0.0
 10
126.6809079353
 20
85.7059952049
 30
0.0
  0
SPLINE
  5
288
100
AcDbEntity
  8
PART
100
AcDbSpline
 62
7
  6
CONTINUOUS
 70
0
 71
3
 72
9
 73
5
 74
0
 42
0.0000001
 43
0.0000001
 44
0.0000000001
 40
0.0
 40
0.0
 40
0.0
 40
0.0
 40
0.3355638364
 40
1.0
 40
1.0
 40
1.0
 40
1.0
 10
126.6809079353
 20
85.7059952049
 30
0.0
 10
126.6371090124
 20
85.680548417
 30
0.0
 10
126.5141094212
 20
85.6025659779
 30
0.0
 10
126.3861637962
 20
85.4729608875
 30
0.0
 10
126.3861637962
 20
85.3726618705
 30
0.0
  0
ENDSEC
  0
SECTION
  2
OBJECTS
  0
DICTIONARY
  5
C
100
AcDbDictionary
280
0
281
1
  3
ACAD_GROUP
350
D
  3
ACAD_MLINESTYLE
350
17
  3
ACAD_LAYOUT
350
1A
  3
ACAD_PLOTSETTINGS
350
19
  3
ACAD_PLOTSTYLENAME
350
E
  0
DICTIONARY
  5
D
102
{ACAD_REACTORS
330
C
102
}
100
AcDbDictionary
280
0
281
1
  0
ACDBDICTIONARYWDFLT
  5
E
102
{ACAD_REACTORS
330
C
102
}
100
AcDbDictionary
281
1
  3
Normal
350
F
100
AcDbDictionaryWithDefault
340
F
  0
DICTIONARY
  5
17
102
{ACAD_REACTORS
330
C
102
}
100
AcDbDictionary
280
0
281
1
  3
Standard
350
18
  0
DICTIONARY
  5
19
102
{ACAD_REACTORS
330
C
102
}
100
AcDbDictionary
281
1
  0
DICTIONARY
  5
1A
102
{ACAD_REACTORS
330
C
102
}
100
AcDbDictionary
281
1
  3
Model
350
289
  3
Layout1
350
28A
  0
ACDBPLACEHOLDER
  5
F
102
{ACAD_REACTORS
330
E
102
}
  0
MLINESTYLE
  5
18
102
{ACAD_REACTORS
330
17
102
}
100
AcDbMlineStyle
  2
STANDARD
 70
0
  3

 62
256
 51
90.0
 52
90.0
 71
2
 49
0.5
 62
256
  6
BYLAYER
 49
-0.5
 62
256
  6
BYLAYER
  0
LAYOUT
  5
289
102
{ACAD_REACTORS
330
1A
102
}
100
AcDbPlotSettings
  1

  2
none_device
  4

  6

 40
0.0
 41
0.0
 42
0.0
 43
0.0
 44
210.0
 45
297.0
 46
0.0
 47
0.0
 48
0.0
 49
0.0
140
0.0
141
0.0
142
1.0
143
1.0
 70
1024
 72
1
 73
0
 74
0
  7

 75
0
147
1.0
148
0.0
149
0.0
100
AcDbLayout
  1
Model
 70
0
 71
0
 10
0.0
 20
0.0
 11
210.0
 21
297.0
 12
0.0
 22
0.0
 32
0.0
 14
0.0
 24
0.0
 34
0.0
 15
0.0
 25
0.0
 35
0.0
146
0.0
 13
0.0
 23
0.0
 33
0.0
 16
1.0
 26
0.0
 36
0.0
 17
0.0
 27
1.0
 37
0.0
 76
0
330
211
345
0
346
0
  0
LAYOUT
  5
28A
102
{ACAD_REACTORS
330
1A
102
}
100
AcDbPlotSettings
  1

  2
none_device
  4

  6

 40
0.0
 41
0.0
 42
0.0
 43
0.0
 44
210.0
 45
297.0
 46
0.0
 47
0.0
 48
0.0
 49
0.0
140
0.0
141
0.0
142
1.0
143
1.0
 70
0
 72
1
 73
0
 74
0
  7

 75
0
147
1.0
148
0.0
149
0.0
100
AcDbLayout
  1
Layout1
 70
0
 71
1
 10
0.0
 20
0.0
 11
210.0
 21
297.0
 12
0.0
 22
0.0
 32
0.0
 14
0.0
 24
0.0
 34
0.0
 15
0.0
 25
0.0
 35
0.0
146
0.0
 13
0.0
 23
0.0
 33
0.0
 16
1.0
 26
0.0
 36
0.0
 17
0.0
 27
1.0
 37
0.0
 76
0
330
212
345
0
346
0
  0
ENDSEC
  0
EOF
