999
DXF file: C:\Vinayak\New 2D genarating\updateCreo8 with 3dPdf\CAD\NSYCRN106300_3D-CAD\drw0001_6.dxf
999
Pro/ENGINEER 2021284 by Parametric Technology Corporation
  0
SECTION
  2
HEADER
  9
$ACADVER
  1
AC1024
  9
$DWGCODEPAGE
  3
ANSI_1252
  9
$EXTMAX
 10
847.0333836903
 20
1197.9472140763
 30
0.0
  9
$EXTMIN
 10
0.0
 20
0.0
 30
0.0
  9
$LIMMIN
 10
0.0
 20
0.0
  9
$LIMMAX
 10
847.0333836903
 20
1197.9472140763
  9
$VIEWCTR
 10
423.5166918451
 20
598.9736070381
  9
$VIEWSIZE
 40
1197.9472140763
  9
$CLAYER
  8
0
  9
$LTSCALE
 40
78.0884109916
  9
$CELTYPE
  6
BYLAYER
  9
$DIMSCALE
 40
1.0
  9
$DIMASZ
 40
10.0837307582
  9
$DIMEXO
 40
1.0
  9
$DIMDLI
 40
53.9519930488
  9
$DIMEXE
 40
1.0
  9
$DIMCEN
 40
12.7781036168
  9
$DIMLFAC
 40
1.0
  9
$DIMBLK
  1
_FILLED
  9
$DIMALT
 70
0
  9
$DIMALTF
 40
0.0393700787
  9
$DIMTXT
 40
14.1172230615
  9
$DIMTOL
 70
1
  9
$DIMLIM
 70
0
  9
$DIMTFAC
 40
1.0
  9
$DIMTP
 40
0.01
  9
$DIMTM
 40
0.01
  9
$DIMGAP
 40
0.625
  9
$DIMDSEP
 70
46
  9
$AUNITS
 70
0
  9
$PDMODE
 70
3
  9
$PDSIZE
 40
0.3125
  9
$HANDSEED
  5
25C
  9
$TILEMODE
 70
1
  9
$MEASUREMENT
 70
1
  9
$INSUNITS
 70
4
  0
ENDSEC
  0
SECTION
  2
CLASSES
  0
CLASS
  1
ACDBDICTIONARYWDFLT
  2
AcDbDictionaryWithDefault
  3
AutoCAD 2000
 90
0
 91
1
280
0
281
0
  0
CLASS
  1
ACDBPLACEHOLDER
  2
AcDbPlaceHolder
  3
AutoCAD 2000
 90
0
 91
1
280
0
281
0
  0
CLASS
  1
LAYOUT
  2
AcDbLayout
  3
AutoCAD 2000
 90
0
 91
0
280
0
281
0
  0
ENDSEC
  0
SECTION
  2
TABLES
  0
TABLE
  2
VPORT
  5
8
100
AcDbSymbolTable
 70
2
  0
VPORT
  5
1F4
100
AcDbSymbolTableRecord
100
AcDbViewportTableRecord
  2
*ACTIVE
 70
0
 10
0.0
 20
0.0
 11
1.0
 21
1.0
 12
423.5166918451
 22
598.9736070381
 13
0.0
 23
0.0
 14
1.0
 24
1.0
 15
0.0
 25
0.0
 16
0.0
 26
0.0
 36
1.0
 17
0.0
 27
0.0
 37
0.0
 40
1197.9472140763
 41
0.7070707071
 42
50.0
 43
0.0
 44
0.0
 50
0.0
 51
0.0
 71
0
 72
100
 73
1
 74
1
 75
0
 76
0
 77
0
 78
0
  0
ENDTAB
  0
TABLE
  2
LTYPE
  5
5
100
AcDbSymbolTable
 70
6
  0
LTYPE
  5
14
100
AcDbSymbolTableRecord
100
AcDbLinetypeTableRecord
  2
BYBLOCK
 70
0
  3

 72
65
 73
0
 40
0.0
  0
LTYPE
  5
15
100
AcDbSymbolTableRecord
100
AcDbLinetypeTableRecord
  2
BYLAYER
 70
0
  3

 72
65
 73
0
 40
0.0
  0
LTYPE
  5
16
100
AcDbSymbolTableRecord
100
AcDbLinetypeTableRecord
  2
CONTINUOUS
 70
64
  3
Solid line
 72
65
 73
0
 40
0.0
  0
LTYPE
  5
1F5
100
AcDbSymbolTableRecord
100
AcDbLinetypeTableRecord
  2
CENTER
 70
64
  3
____ _ ____ _ ____ _ ____ _ ____ _ ____ _ ____
 72
65
 73
4
 40
0.6
 49
0.375
 74
0
 49
-0.075
 74
0
 49
0.075
 74
0
 49
-0.075
 74
0
  0
LTYPE
  5
1F6
100
AcDbSymbolTableRecord
100
AcDbLinetypeTableRecord
  2
HIDDEN
 70
64
  3
- - - - - - - - - - - - - - - - - - - -
 72
65
 73
2
 40
0.2
 49
0.1
 74
0
 49
-0.1
 74
0
  0
LTYPE
  5
1F7
100
AcDbSymbolTableRecord
100
AcDbLinetypeTableRecord
  2
PHANTOM
 70
64
  3
_____ _ _ _____ _ _ _____ _ _ _____
 72
65
 73
6
 40
0.8
 49
0.45
 74
0
 49
-0.05
 74
0
 49
0.1
 74
0
 49
-0.05
 74
0
 49
0.1
 74
0
 49
-0.05
 74
0
  0
LTYPE
  5
1F8
100
AcDbSymbolTableRecord
100
AcDbLinetypeTableRecord
  2
DOT
 70
64
  3
. . . . . . . . . . . . . . . . . . . .
 72
65
 73
2
 40
0.2
 49
0.1
 74
0
 49
-0.1
 74
0
  0
LTYPE
  5
1F9
100
AcDbSymbolTableRecord
100
AcDbLinetypeTableRecord
  2
DASHED
 70
64
  3
- - - - - - - - - - - - - - - - - - - -
 72
65
 73
2
 40
0.2
 49
0.1
 74
0
 49
-0.1
 74
0
  0
ENDTAB
  0
TABLE
  2
LAYER
  5
2
100
AcDbSymbolTable
 70
36
  0
LAYER
  5
10
100
AcDbSymbolTableRecord
100
AcDbLayerTableRecord
  2
0
 70
0
 62
7
  6
CONTINUOUS
370
-3
390
F
  0
LAYER
  5
1FA
100
AcDbSymbolTableRecord
100
AcDbLayerTableRecord
  2
DEFAULT_1
 70
0
 62
7
  6
CENTER
370
-3
390
F
  0
LAYER
  5
1FB
100
AcDbSymbolTableRecord
100
AcDbLayerTableRecord
  2
DEFAULT_2
 70
0
 62
8
  6
HIDDEN
370
-3
390
F
  0
LAYER
  5
1FC
100
AcDbSymbolTableRecord
100
AcDbLayerTableRecord
  2
DEFAULT_3
 70
0
 62
7
  6
PHANTOM
370
-3
390
F
  0
LAYER
  5
1FD
100
AcDbSymbolTableRecord
100
AcDbLayerTableRecord
  2
00_COMPONENTS
 70
0
 62
7
  6
CONTINUOUS
370
-3
390
F
  0
LAYER
  5
1FE
100
AcDbSymbolTableRecord
100
AcDbLayerTableRecord
  2
01_1_DEFAULT_DATUMS
 70
0
 62
7
  6
CONTINUOUS
370
-3
390
F
  0
LAYER
  5
1FF
100
AcDbSymbolTableRecord
100
AcDbLayerTableRecord
  2
01_PLANES
 70
0
 62
7
  6
CONTINUOUS
370
-3
390
F
  0
LAYER
  5
200
100
AcDbSymbolTableRecord
100
AcDbLayerTableRecord
  2
02_COORD_SYS
 70
0
 62
7
  6
CONTINUOUS
370
-3
390
F
  0
LAYER
  5
201
100
AcDbSymbolTableRecord
100
AcDbLayerTableRecord
  2
03_AXES
 70
0
 62
7
  6
CONTINUOUS
370
-3
390
F
  0
LAYER
  5
202
100
AcDbSymbolTableRecord
100
AcDbLayerTableRecord
  2
04_POINTS
 70
0
 62
7
  6
CONTINUOUS
370
-3
390
F
  0
LAYER
  5
203
100
AcDbSymbolTableRecord
100
AcDbLayerTableRecord
  2
05_CURVES
 70
0
 62
7
  6
CONTINUOUS
370
-3
390
F
  0
LAYER
  5
204
100
AcDbSymbolTableRecord
100
AcDbLayerTableRecord
  2
06_SURFS
 70
0
 62
7
  6
CONTINUOUS
370
-3
390
F
  0
LAYER
  5
205
100
AcDbSymbolTableRecord
100
AcDbLayerTableRecord
  2
07_COSMETICS
 70
0
 62
7
  6
CONTINUOUS
370
-3
390
F
  0
LAYER
  5
206
100
AcDbSymbolTableRecord
100
AcDbLayerTableRecord
  2
10_NOTES
 70
0
 62
7
  6
CONTINUOUS
370
-3
390
F
  0
LAYER
  5
207
100
AcDbSymbolTableRecord
100
AcDbLayerTableRecord
  2
11_NOTES_PUB
 70
0
 62
7
  6
CONTINUOUS
370
-3
390
F
  0
LAYER
  5
208
100
AcDbSymbolTableRecord
100
AcDbLayerTableRecord
  2
13_REF_GTOL
 70
0
 62
7
  6
CONTINUOUS
370
-3
390
F
  0
LAYER
  5
209
100
AcDbSymbolTableRecord
100
AcDbLayerTableRecord
  2
16_MISC
 70
0
 62
7
  6
CONTINUOUS
370
-3
390
F
  0
LAYER
  5
20A
100
AcDbSymbolTableRecord
100
AcDbLayerTableRecord
  2
17_NO_PRINT
 70
0
 62
7
  6
CONTINUOUS
370
-3
390
F
  0
LAYER
  5
20B
100
AcDbSymbolTableRecord
100
AcDbLayerTableRecord
  2
18_DATUM_CAMS_JOINTS
 70
0
 62
7
  6
CONTINUOUS
370
-3
390
F
  0
LAYER
  5
20C
100
AcDbSymbolTableRecord
100
AcDbLayerTableRecord
  2
19_DATUM_FUNCTIONAL
 70
0
 62
7
  6
CONTINUOUS
370
-3
390
F
  0
LAYER
  5
20D
100
AcDbSymbolTableRecord
100
AcDbLayerTableRecord
  2
20_DATUM_KINEMATIC_SCHEME
 70
0
 62
7
  6
CONTINUOUS
370
-3
390
F
  0
LAYER
  5
20E
100
AcDbSymbolTableRecord
100
AcDbLayerTableRecord
  2
PART
 70
0
 62
7
  6
CONTINUOUS
370
-3
390
F
  0
ENDTAB
  0
TABLE
  2
STYLE
  5
3
100
AcDbSymbolTable
 70
1
  0
STYLE
  5
11
100
AcDbSymbolTableRecord
100
AcDbTextStyleTableRecord
  2
STANDARD
 70
0
 40
0.0
 41
0.8
 50
0.0
 71
0
 42
0.2
  3
txt
  4

  0
STYLE
  5
20F
100
AcDbSymbolTableRecord
100
AcDbTextStyleTableRecord
  2
TEXTSTYLE_1
 70
0
 40
0.0
 41
0.8
 50
0.0
 71
0
 42
0.2
  3
gdt
  4

  0
ENDTAB
  0
TABLE
  2
VIEW
  5
6
100
AcDbSymbolTable
 70
0
  0
ENDTAB
  0
TABLE
  2
UCS
  5
7
100
AcDbSymbolTable
 70
0
  0
ENDTAB
  0
TABLE
  2
APPID
  5
9
100
AcDbSymbolTable
 70
1
  0
APPID
  5
210
100
AcDbSymbolTableRecord
100
AcDbRegAppTableRecord
  2
ACAD
 70
0
  0
ENDTAB
  0
TABLE
  2
BLOCK_RECORD
  5
1
100
AcDbSymbolTable
 70
0
  0
BLOCK_RECORD
  5
211
100
AcDbSymbolTableRecord
100
AcDbBlockTableRecord
  2
*Model_Space
  0
BLOCK_RECORD
  5
212
100
AcDbSymbolTableRecord
100
AcDbBlockTableRecord
  2
*Paper_Space
  0
BLOCK_RECORD
  5
213
100
AcDbSymbolTableRecord
100
AcDbBlockTableRecord
  2
_FILLED
  0
ENDTAB
  0
TABLE
  2
DIMSTYLE
  5
A
100
AcDbSymbolTable
 70
1
100
AcDbDimStyleTable
 71
0
  0
DIMSTYLE
105
214
100
AcDbSymbolTableRecord
100
AcDbDimStyleTableRecord
  2
STANDARD
 70
0
  3

  4

 40
1.0
 41
10.0837307582
 42
1.0
 43
0.38
 44
1.0
 45
0.0
 46
0.0
 47
0.01
 48
0.01
140
14.1172230615
141
0.09
142
0.0
143
25.4
144
1.0
145
0.0
146
1.0
147
0.625
 71
1
 72
0
 73
0
 74
0
 75
0
 76
0
 77
1
 78
8
 79
2
170
0
171
1
172
0
173
0
174
0
175
0
176
0
177
0
178
0
270
2
179
2
271
2
272
2
273
2
274
2
275
0
280
0
281
0
282
0
283
1
284
8
285
0
286
0
287
3
288
0
340
11
278
46
341
213
342
213
343
213
344
213
  0
ENDTAB
  0
ENDSEC
  0
SECTION
  2
BLOCKS
  0
BLOCK
  5
20
100
AcDbEntity
  8
0
100
AcDbBlockBegin
  2
*Model_Space
 70
0
 10
0.0
 20
0.0
 30
0.0
  3
*Model_Space
  1

  0
ENDBLK
  5
21
100
AcDbEntity
  8
0
100
AcDbBlockEnd
  0
BLOCK
  5
1C
100
AcDbEntity
  8
0
100
AcDbBlockBegin
  2
*Paper_Space
 70
0
 10
0.0
 20
0.0
 30
0.0
  3
*Paper_Space
  1

  0
ENDBLK
  5
1D
100
AcDbEntity
  8
0
100
AcDbBlockEnd
  0
BLOCK
  5
215
100
AcDbEntity
  8
0
100
AcDbBlockBegin
  2
_FILLED
 70
64
 10
0.0
 20
0.0
  3
_FILLED
  1

  0
SOLID
  5
216
100
AcDbEntity
  8
0
  6
BYBLOCK
 62
0
100
AcDbTrace
 10
0.0
 20
0.0
 11
-1.0
 21
0.25
 12
-1.0
 22
-0.25
 13
-1.0
 23
-0.25
  0
ENDBLK
  5
217
100
AcDbEntity
  8
0
  6
BYBLOCK
 62
0
100
AcDbBlockEnd
  0
ENDSEC
  0
SECTION
  2
ENTITIES
  0
LINE
  5
218
100
AcDbEntity
  8
PART
100
AcDbLine
 62
7
  6
CONTINUOUS
 10
283.0477688532
 20
1082.9734505884
 11
284.0869089958
 21
1083.5736070381
  0
LINE
  5
219
100
AcDbEntity
  8
PART
100
AcDbLine
 62
7
  6
CONTINUOUS
 10
285.2126552493
 20
1081.6244350799
 11
284.1735151067
 21
1081.0242786302
  0
LINE
  5
21A
100
AcDbEntity
  8
PART
100
AcDbLine
 62
7
  6
CONTINUOUS
 10
286.3682882528
 20
1079.0233592955
 11
286.6282087837
 21
1079.1734766634
  0
LINE
  5
21B
100
AcDbEntity
  8
PART
100
AcDbLine
 62
7
  6
CONTINUOUS
 10
577.3049089958
 20
98.9736070381
 11
300.8469089958
 21
98.9736070381
  0
LINE
  5
21C
100
AcDbEntity
  8
PART
100
AcDbLine
 62
7
  6
CONTINUOUS
 10
298.6469089958
 20
101.1736070381
 11
578.6549028837
 21
101.1736070381
  0
LINE
  5
21D
100
AcDbEntity
  8
PART
100
AcDbLine
 62
7
  6
CONTINUOUS
 10
285.2126552493
 20
116.922935446
 11
284.1735151067
 21
116.922935446
  0
LINE
  5
21E
100
AcDbEntity
  8
PART
100
AcDbLine
 62
7
  6
CONTINUOUS
 10
284.0869089958
 20
114.3736070381
 11
283.0477688532
 21
114.9737634878
  0
LINE
  5
21F
100
AcDbEntity
  8
PART
100
AcDbLine
 62
7
  6
CONTINUOUS
 10
284.1735151067
 20
116.9229354459
 11
285.2126552493
 21
116.3227789962
  0
LINE
  5
220
100
AcDbEntity
  8
PART
100
AcDbLine
 62
7
  6
CONTINUOUS
 10
286.6282087837
 20
118.7737374127
 11
286.3682882528
 21
118.9238547806
  0
LINE
  5
221
100
AcDbEntity
  8
PART
100
AcDbLine
 62
7
  6
CONTINUOUS
 10
287.4941589025
 20
119.2736070381
 11
297.6469089958
 21
119.2736070381
  0
LINE
  5
222
100
AcDbEntity
  8
PART
100
AcDbLine
 62
7
  6
CONTINUOUS
 10
283.0477688532
 20
119.2976542113
 11
284.0869089958
 21
119.2976542113
  0
LINE
  5
223
100
AcDbEntity
  8
PART
100
AcDbLine
 62
7
  6
CONTINUOUS
 10
287.4941589025
 20
120.4736070381
 11
297.6469089958
 21
120.4736070381
  0
LINE
  5
224
100
AcDbEntity
  8
PART
100
AcDbLine
 62
7
  6
CONTINUOUS
 10
283.0477688532
 20
1078.6495598649
 11
283.0477688532
 21
119.2976542113
  0
LINE
  5
225
100
AcDbEntity
  8
PART
100
AcDbLine
 62
7
  6
CONTINUOUS
 10
284.0869089958
 20
1078.6495598649
 11
284.0869089958
 21
119.2976542113
  0
LINE
  5
226
100
AcDbEntity
  8
PART
100
AcDbLine
 62
7
  6
CONTINUOUS
 10
286.6282087837
 20
119.3738938625
 11
286.6282087837
 21
1078.5733202137
  0
LINE
  5
227
100
AcDbEntity
  8
PART
100
AcDbLine
 62
7
  6
CONTINUOUS
 10
287.4941589025
 20
1078.6736070381
 11
287.4941589025
 21
119.2736070381
  0
LINE
  5
228
100
AcDbEntity
  8
PART
100
AcDbLine
 62
7
  6
CONTINUOUS
 10
297.6469089958
 20
119.2736070381
 11
297.6469089958
 21
1078.6736070381
  0
LINE
  5
229
100
AcDbEntity
  8
PART
100
AcDbLine
 62
7
  6
CONTINUOUS
 10
298.6469089958
 20
101.1736070381
 11
298.6469089958
 21
1096.7736070381
  0
LINE
  5
22A
100
AcDbEntity
  8
PART
100
AcDbLine
 62
7
  6
CONTINUOUS
 10
300.8469089958
 20
1098.9736070381
 11
300.8469089958
 21
98.9736070381
  0
LINE
  5
22B
100
AcDbEntity
  8
PART
100
AcDbLine
 62
7
  6
CONTINUOUS
 10
284.1735151067
 20
116.9229354459
 11
283.0477688533
 21
114.9737634878
  0
LINE
  5
22C
100
AcDbEntity
  8
PART
100
AcDbLine
 62
7
  6
CONTINUOUS
 10
286.6282087837
 20
119.3738938625
 11
285.2126552492
 21
116.9229354459
  0
LINE
  5
22D
100
AcDbEntity
  8
PART
100
AcDbLine
 62
7
  6
CONTINUOUS
 10
284.0869089959
 20
114.3736070381
 11
286.6282087837
 21
118.7737374128
  0
LINE
  5
22E
100
AcDbEntity
  8
PART
100
AcDbLine
 62
7
  6
CONTINUOUS
 10
283.0477688532
 20
1082.9734505884
 11
284.1735151066
 21
1081.0242786302
  0
LINE
  5
22F
100
AcDbEntity
  8
PART
100
AcDbLine
 62
7
  6
CONTINUOUS
 10
285.2126552492
 20
1081.0242786302
 11
286.6282087837
 21
1078.5733202137
  0
LINE
  5
230
100
AcDbEntity
  8
PART
100
AcDbLine
 62
7
  6
CONTINUOUS
 10
286.6282087837
 20
1079.1734766634
 11
284.0869089958
 21
1083.5736070381
  0
LINE
  5
231
100
AcDbEntity
  8
PART
100
AcDbLine
 62
7
  6
CONTINUOUS
 10
577.3049089958
 20
98.9736070381
 11
577.3049089958
 21
1098.9736070381
  0
LINE
  5
232
100
AcDbEntity
  8
PART
100
AcDbLine
 62
7
  6
CONTINUOUS
 10
578.6549089958
 20
1096.7736070381
 11
578.6549089958
 21
101.1736070381
  0
LINE
  5
233
100
AcDbEntity
  8
PART
100
AcDbLine
 62
7
  6
CONTINUOUS
 10
577.4233294183
 20
100.4210009001
 11
578.3474209751
 21
101.1650993886
  0
LINE
  5
234
100
AcDbEntity
  8
PART
100
AcDbLine
 62
7
  6
CONTINUOUS
 10
287.4941589025
 20
1077.4736070381
 11
297.6469089958
 21
1077.4736070381
  0
LINE
  5
235
100
AcDbEntity
  8
PART
100
AcDbLine
 62
7
  6
CONTINUOUS
 10
284.0869089958
 20
1078.6495598649
 11
283.0477688532
 21
1078.6495598649
  0
LINE
  5
236
100
AcDbEntity
  8
PART
100
AcDbLine
 62
7
  6
CONTINUOUS
 10
287.4941589025
 20
1078.6736070381
 11
297.6469089958
 21
1078.6736070381
  0
LINE
  5
237
100
AcDbEntity
  8
PART
100
AcDbLine
 62
7
  6
CONTINUOUS
 10
284.1735151067
 20
1081.0242786302
 11
285.2126552493
 21
1081.0242786302
  0
LINE
  5
238
100
AcDbEntity
  8
PART
100
AcDbLine
 62
7
  6
CONTINUOUS
 10
578.6549028837
 20
1096.7736070381
 11
298.6469089958
 21
1096.7736070381
  0
LINE
  5
239
100
AcDbEntity
  8
PART
100
AcDbLine
 62
7
  6
CONTINUOUS
 10
300.8469089958
 20
1098.9736070381
 11
577.3049089958
 21
1098.9736070381
  0
LINE
  5
23A
100
AcDbEntity
  8
PART
100
AcDbLine
 62
7
  6
CONTINUOUS
 10
578.3474209751
 20
1096.7821146876
 11
577.4233294183
 21
1097.5262131761
  0
ARC
  5
23B
100
AcDbEntity
  8
PART
100
AcDbCircle
 62
7
  6
CONTINUOUS
 10
306.0836650716
 20
1069.7536692662
 40
23.7274977063
100
AcDbArc
 50
155.8003045749
 51
157.9806910596
  0
ARC
  5
23C
100
AcDbEntity
  8
PART
100
AcDbCircle
 62
7
  6
CONTINUOUS
 10
306.0836650656
 20
128.1935448074
 40
23.7274976997
100
AcDbArc
 50
202.01930894
 51
204.1996954252
  0
ARC
  5
23D
100
AcDbEntity
  8
PART
100
AcDbCircle
 62
7
  6
CONTINUOUS
 10
304.3596287033
 20
1070.5250996156
 40
21.8387425846
100
AcDbArc
 50
154.0622297017
 51
155.792236953
  0
ARC
  5
23E
100
AcDbEntity
  8
PART
100
AcDbCircle
 62
7
  6
CONTINUOUS
 10
304.3596287011
 20
127.4221144596
 40
21.8387425822
100
AcDbArc
 50
204.2077630469
 51
205.9377702986
  0
ARC
  5
23F
100
AcDbEntity
  8
PART
100
AcDbCircle
 62
7
  6
CONTINUOUS
 10
303.4769447166
 20
1070.9509375539
 40
20.8587126568
100
AcDbArc
 50
153.4562508971
 51
154.0536096261
  0
ARC
  5
240
100
AcDbEntity
  8
PART
100
AcDbCircle
 62
7
  6
CONTINUOUS
 10
303.4769447102
 20
126.9962765192
 40
20.8587126497
100
AcDbArc
 50
205.9463903743
 51
206.5437491033
  0
ARC
  5
241
100
AcDbEntity
  8
PART
100
AcDbCircle
 62
7
  6
CONTINUOUS
 10
302.9409990797
 20
1071.2193928944
 40
20.2592916407
100
AcDbArc
 50
152.4140739269
 51
153.4581017353
  0
ARC
  5
242
100
AcDbEntity
  8
PART
100
AcDbCircle
 62
7
  6
CONTINUOUS
 10
302.5177796893
 20
126.5110179244
 40
19.7837978533
100
AcDbArc
 50
206.5278886651
 51
208.9890964335
  0
ARC
  5
243
100
AcDbEntity
  8
PART
100
AcDbCircle
 62
7
  6
CONTINUOUS
 10
302.2069822351
 20
1071.6039274259
 40
19.4306501825
100
AcDbArc
 50
150.999376051
 51
152.4167641403
  0
ARC
  5
244
100
AcDbEntity
  8
PART
100
AcDbCircle
 62
7
  6
CONTINUOUS
 10
300.8469089958
 20
101.1736070381
 40
2.2
100
AcDbArc
 50
180.000000001
 51
270.0
  0
ARC
  5
245
100
AcDbEntity
  8
PART
100
AcDbCircle
 62
7
  6
CONTINUOUS
 10
300.8469089958
 20
1096.7736070381
 40
2.2
100
AcDbArc
 50
90.0
 51
180.0
  0
ARC
  5
246
100
AcDbEntity
  8
PART
100
AcDbCircle
 62
7
  6
CONTINUOUS
 10
577.3049089958
 20
100.3256462173
 40
1.3520391791
100
AcDbArc
 50
270.0
 51
38.8417685822
  0
ARC
  5
247
100
AcDbEntity
  8
PART
100
AcDbCircle
 62
7
  6
CONTINUOUS
 10
577.3049089958
 20
1097.621567859
 40
1.3520391791
100
AcDbArc
 50
321.1582314142
 51
90.0
  0
ARC
  5
248
100
AcDbEntity
  8
PART
100
AcDbCircle
 62
7
  6
CONTINUOUS
 10
297.6469089958
 20
118.2736070381
 40
1.0
100
AcDbArc
 50
29.9999793494
 51
90.0
  0
ARC
  5
249
100
AcDbEntity
  8
PART
100
AcDbCircle
 62
7
  6
CONTINUOUS
 10
287.4941589025
 20
118.2736070381
 40
1.0
100
AcDbArc
 50
90.0
 51
149.9913741035
  0
ARC
  5
24A
100
AcDbEntity
  8
PART
100
AcDbCircle
 62
7
  6
CONTINUOUS
 10
300.8469089958
 20
101.1736070381
 40
1.0
100
AcDbArc
 50
180.0000000021
 51
270.0
  0
ARC
  5
24B
100
AcDbEntity
  8
PART
100
AcDbCircle
 62
7
  6
CONTINUOUS
 10
297.6469089958
 20
1079.6736070381
 40
1.0
100
AcDbArc
 50
270.0
 51
299.9999793426
  0
ARC
  5
24C
100
AcDbEntity
  8
PART
100
AcDbCircle
 62
7
  6
CONTINUOUS
 10
300.8469089958
 20
1096.7736070381
 40
1.0
100
AcDbArc
 50
90.0
 51
180.0
  0
ARC
  5
24D
100
AcDbEntity
  8
PART
100
AcDbCircle
 62
7
  6
CONTINUOUS
 10
287.4941589025
 20
1079.6736070381
 40
1.0
100
AcDbArc
 50
210.0086258965
 51
270.0
  0
ARC
  5
24E
100
AcDbEntity
  8
PART
100
AcDbCircle
 62
7
  6
CONTINUOUS
 10
577.3049089958
 20
100.3256462173
 40
0.1520391791
100
AcDbArc
 50
295.579115713
 51
38.8417685683
  0
SPLINE
  5
24F
100
AcDbEntity
  8
PART
100
AcDbSpline
 62
7
  6
CONTINUOUS
 70
0
 71
3
 72
9
 73
5
 74
0
 42
0.0000001
 43
0.0000001
 44
0.0000000001
 40
0.0
 40
0.0
 40
0.0
 40
0.0
 40
0.2353834571
 40
1.0
 40
1.0
 40
1.0
 40
1.0
 10
298.6469089958
 20
118.2736070381
 30
0.0
 10
298.6469089958
 20
118.3962228373
 30
0.0
 10
298.5963657259
 20
118.9183215015
 30
0.0
 10
298.356361621
 20
119.4014888298
 30
0.0
 10
298.1469086836
 20
119.7402737047
 30
0.0
  0
SPLINE
  5
250
100
AcDbEntity
  8
PART
100
AcDbSpline
 62
7
  6
CONTINUOUS
 70
0
 71
3
 72
8
 73
4
 74
0
 42
0.0000001
 43
0.0000001
 44
0.0000000001
 40
0.0
 40
0.0
 40
0.0
 40
0.0
 40
1.0
 40
1.0
 40
1.0
 40
1.0
 10
298.1469086836
 20
119.7402737047
 30
0.0
 10
297.9913290332
 20
119.9919198887
 30
0.0
 10
297.8188260362
 20
120.2328263064
 30
0.0
 10
297.6469089958
 20
120.4736070381
 30
0.0
  0
SPLINE
  5
251
100
AcDbEntity
  8
PART
100
AcDbSpline
 62
7
  6
CONTINUOUS
 70
0
 71
3
 72
9
 73
5
 74
0
 42
0.0000001
 43
0.0000001
 44
0.0000000001
 40
0.0
 40
0.0
 40
0.0
 40
0.0
 40
0.2628758126
 40
1.0
 40
1.0
 40
1.0
 40
1.0
 10
297.6469089958
 20
1077.4736070381
 30
0.0
 10
297.7337371169
 20
1077.5952153351
 30
0.0
 10
298.0628096927
 20
1078.0570015441
 30
0.0
 10
298.3722666127
 20
1078.5455941966
 30
0.0
 10
298.5129345799
 20
1078.9402737047
 30
0.0
  0
SPLINE
  5
252
100
AcDbEntity
  8
PART
100
AcDbSpline
 62
7
  6
CONTINUOUS
 70
0
 71
3
 72
9
 73
5
 74
0
 42
0.0000001
 43
0.0000001
 44
0.0000000001
 40
0.0
 40
0.0
 40
0.0
 40
0.0
 40
0.2584998096
 40
1.0
 40
1.0
 40
1.0
 40
1.0
 10
283.0477688532
 20
119.2976542113
 30
0.0
 10
283.1327621331
 20
119.0876776295
 30
0.0
 10
283.4725913963
 20
118.2799447014
 30
0.0
 10
283.8584298723
 20
117.4912141199
 30
0.0
 10
284.1735151066
 20
116.9229354459
 30
0.0
  0
SPLINE
  5
253
100
AcDbEntity
  8
PART
100
AcDbSpline
 62
7
  6
CONTINUOUS
 70
0
 71
3
 72
9
 73
5
 74
0
 42
0.0000001
 43
0.0000001
 44
0.0000000001
 40
0.0
 40
0.0
 40
0.0
 40
0.0
 40
0.2414578205
 40
1.0
 40
1.0
 40
1.0
 40
1.0
 10
284.1735151066
 20
1081.0242786302
 30
0.0
 10
284.0709109605
 20
1080.8392247408
 30
0.0
 10
283.6587998757
 20
1080.0657351835
 30
0.0
 10
283.2971771786
 20
1079.2657251394
 30
0.0
 10
283.0477688532
 20
1078.6495598649
 30
0.0
  0
SPLINE
  5
254
100
AcDbEntity
  8
PART
100
AcDbSpline
 62
7
  6
CONTINUOUS
 70
0
 71
3
 72
8
 73
4
 74
0
 42
0.0000001
 43
0.0000001
 44
0.0000000001
 40
0.0
 40
0.0
 40
0.0
 40
0.0
 40
1.0
 40
1.0
 40
1.0
 40
1.0
 10
286.6282087837
 20
1078.5733202137
 30
0.0
 10
286.6897163042
 20
1078.444151231
 30
0.0
 10
286.767158828
 20
1078.3223479901
 30
0.0
 10
286.8514482729
 20
1078.2067491552
 30
0.0
  0
SPLINE
  5
255
100
AcDbEntity
  8
PART
100
AcDbSpline
 62
7
  6
CONTINUOUS
 70
0
 71
3
 72
8
 73
4
 74
0
 42
0.0000001
 43
0.0000001
 44
0.0000000001
 40
0.0
 40
0.0
 40
0.0
 40
0.0
 40
1.0
 40
1.0
 40
1.0
 40
1.0
 10
286.8514482729
 20
1078.2067491552
 30
0.0
 10
286.9445657732
 20
1078.0790430759
 30
0.0
 10
287.0468003872
 20
1077.9579644513
 30
0.0
 10
287.1521858046
 20
1077.8401780966
 30
0.0
  0
SPLINE
  5
256
100
AcDbEntity
  8
PART
100
AcDbSpline
 62
7
  6
CONTINUOUS
 70
0
 71
3
 72
8
 73
4
 74
0
 42
0.0000001
 43
0.0000001
 44
0.0000000001
 40
0.0
 40
0.0
 40
0.0
 40
0.0
 40
1.0
 40
1.0
 40
1.0
 40
1.0
 10
287.1521858046
 20
1077.8401780966
 30
0.0
 10
287.2636098776
 20
1077.7156425041
 30
0.0
 10
287.3789305876
 20
1077.5946313054
 30
0.0
 10
287.4941589025
 20
1077.4736070381
 30
0.0
  0
SPLINE
  5
257
100
AcDbEntity
  8
PART
100
AcDbSpline
 62
7
  6
CONTINUOUS
 70
0
 71
3
 72
8
 73
4
 74
0
 42
0.0000001
 43
0.0000001
 44
0.0000000001
 40
0.0
 40
0.0
 40
0.0
 40
0.0
 40
1.0
 40
1.0
 40
1.0
 40
1.0
 10
287.4941589025
 20
120.4736070381
 30
0.0
 10
287.2546859153
 20
120.2220886258
 30
0.0
 10
287.0108527333
 20
119.970765698
 30
0.0
 10
286.8124401484
 20
119.6857371565
 30
0.0
  0
SPLINE
  5
258
100
AcDbEntity
  8
PART
100
AcDbSpline
 62
7
  6
CONTINUOUS
 70
0
 71
3
 72
8
 73
4
 74
0
 42
0.0000001
 43
0.0000001
 44
0.0000000001
 40
0.0
 40
0.0
 40
0.0
 40
0.0
 40
1.0
 40
1.0
 40
1.0
 40
1.0
 10
286.8124401484
 20
119.6857371565
 30
0.0
 10
286.7434631103
 20
119.58664856
 30
0.0
 10
286.6801147753
 20
119.4828991366
 30
0.0
 10
286.6282087837
 20
119.3738938625
 30
0.0
  0
SPLINE
  5
259
100
AcDbEntity
  8
PART
100
AcDbSpline
 62
7
  6
CONTINUOUS
 70
0
 71
3
 72
9
 73
5
 74
0
 42
0.0000001
 43
0.0000001
 44
0.0000000001
 40
0.0
 40
0.0
 40
0.0
 40
0.0
 40
0.2805554663
 40
1.0
 40
1.0
 40
1.0
 40
1.0
 10
300.8469089958
 20
100.1736070381
 30
0.0
 10
300.7605727326
 20
100.2285704103
 30
0.0
 10
300.4554880063
 20
100.4252972056
 30
0.0
 10
300.1426854799
 20
100.6336278399
 30
0.0
 10
299.9808836098
 20
100.8402736969
 30
0.0
  0
ENDSEC
  0
SECTION
  2
OBJECTS
  0
DICTIONARY
  5
C
100
AcDbDictionary
280
0
281
1
  3
ACAD_GROUP
350
D
  3
ACAD_MLINESTYLE
350
17
  3
ACAD_LAYOUT
350
1A
  3
ACAD_PLOTSETTINGS
350
19
  3
ACAD_PLOTSTYLENAME
350
E
  0
DICTIONARY
  5
D
102
{ACAD_REACTORS
330
C
102
}
100
AcDbDictionary
280
0
281
1
  0
ACDBDICTIONARYWDFLT
  5
E
102
{ACAD_REACTORS
330
C
102
}
100
AcDbDictionary
281
1
  3
Normal
350
F
100
AcDbDictionaryWithDefault
340
F
  0
DICTIONARY
  5
17
102
{ACAD_REACTORS
330
C
102
}
100
AcDbDictionary
280
0
281
1
  3
Standard
350
18
  0
DICTIONARY
  5
19
102
{ACAD_REACTORS
330
C
102
}
100
AcDbDictionary
281
1
  0
DICTIONARY
  5
1A
102
{ACAD_REACTORS
330
C
102
}
100
AcDbDictionary
281
1
  3
Model
350
25A
  3
Layout1
350
25B
  0
ACDBPLACEHOLDER
  5
F
102
{ACAD_REACTORS
330
E
102
}
  0
MLINESTYLE
  5
18
102
{ACAD_REACTORS
330
17
102
}
100
AcDbMlineStyle
  2
STANDARD
 70
0
  3

 62
256
 51
90.0
 52
90.0
 71
2
 49
0.5
 62
256
  6
BYLAYER
 49
-0.5
 62
256
  6
BYLAYER
  0
LAYOUT
  5
25A
102
{ACAD_REACTORS
330
1A
102
}
100
AcDbPlotSettings
  1

  2
none_device
  4

  6

 40
0.0
 41
0.0
 42
0.0
 43
0.0
 44
210.0
 45
297.0
 46
0.0
 47
0.0
 48
0.0
 49
0.0
140
0.0
141
0.0
142
1.0
143
1.0
 70
1024
 72
1
 73
0
 74
0
  7

 75
0
147
1.0
148
0.0
149
0.0
100
AcDbLayout
  1
Model
 70
0
 71
0
 10
0.0
 20
0.0
 11
210.0
 21
297.0
 12
0.0
 22
0.0
 32
0.0
 14
0.0
 24
0.0
 34
0.0
 15
0.0
 25
0.0
 35
0.0
146
0.0
 13
0.0
 23
0.0
 33
0.0
 16
1.0
 26
0.0
 36
0.0
 17
0.0
 27
1.0
 37
0.0
 76
0
330
211
345
0
346
0
  0
LAYOUT
  5
25B
102
{ACAD_REACTORS
330
1A
102
}
100
AcDbPlotSettings
  1

  2
none_device
  4

  6

 40
0.0
 41
0.0
 42
0.0
 43
0.0
 44
210.0
 45
297.0
 46
0.0
 47
0.0
 48
0.0
 49
0.0
140
0.0
141
0.0
142
1.0
143
1.0
 70
0
 72
1
 73
0
 74
0
  7

 75
0
147
1.0
148
0.0
149
0.0
100
AcDbLayout
  1
Layout1
 70
0
 71
1
 10
0.0
 20
0.0
 11
210.0
 21
297.0
 12
0.0
 22
0.0
 32
0.0
 14
0.0
 24
0.0
 34
0.0
 15
0.0
 25
0.0
 35
0.0
146
0.0
 13
0.0
 23
0.0
 33
0.0
 16
1.0
 26
0.0
 36
0.0
 17
0.0
 27
1.0
 37
0.0
 76
0
330
212
345
0
346
0
  0
ENDSEC
  0
EOF
