999
DXF file: C:\Vinayak\New 2D genarating\updateCreo8 with 3dPdf\CAD\NSYCRN106300_3D-CAD\drw0001_7.dxf
999
Pro/ENGINEER 2021284 by Parametric Technology Corporation
  0
SECTION
  2
HEADER
  9
$ACADVER
  1
AC1024
  9
$DWGCODEPAGE
  3
ANSI_1252
  9
$EXTMAX
 10
758.4377693787
 20
1072.647702407
 30
0.0
  9
$EXTMIN
 10
0.0
 20
0.0
 30
0.0
  9
$LIMMIN
 10
0.0
 20
0.0
  9
$LIMMAX
 10
758.4377693787
 20
1072.647702407
  9
$VIEWCTR
 10
379.2188846893
 20
536.3238512035
  9
$VIEWSIZE
 40
1072.647702407
  9
$CLAYER
  8
0
  9
$LTSCALE
 40
69.9207391199
  9
$CELTYPE
  6
BYLAYER
  9
$DIMSCALE
 40
1.0
  9
$DIMASZ
 40
9.029021064
  9
$DIMEXO
 40
1.0
  9
$DIMDLI
 40
48.308874301
  9
$DIMEXE
 40
1.0
  9
$DIMCEN
 40
11.4415754923
  9
$DIMLFAC
 40
1.0
  9
$DIMBLK
  1
_FILLED
  9
$DIMALT
 70
0
  9
$DIMALTF
 40
0.0393700787
  9
$DIMTXT
 40
12.6406294896
  9
$DIMTOL
 70
1
  9
$DIMLIM
 70
0
  9
$DIMTFAC
 40
1.0
  9
$DIMTP
 40
0.01
  9
$DIMTM
 40
0.01
  9
$DIMGAP
 40
0.625
  9
$DIMDSEP
 70
46
  9
$AUNITS
 70
0
  9
$PDMODE
 70
3
  9
$PDSIZE
 40
0.3125
  9
$HANDSEED
  5
25C
  9
$TILEMODE
 70
1
  9
$MEASUREMENT
 70
1
  9
$INSUNITS
 70
4
  0
ENDSEC
  0
SECTION
  2
CLASSES
  0
CLASS
  1
ACDBDICTIONARYWDFLT
  2
AcDbDictionaryWithDefault
  3
AutoCAD 2000
 90
0
 91
1
280
0
281
0
  0
CLASS
  1
ACDBPLACEHOLDER
  2
AcDbPlaceHolder
  3
AutoCAD 2000
 90
0
 91
1
280
0
281
0
  0
CLASS
  1
LAYOUT
  2
AcDbLayout
  3
AutoCAD 2000
 90
0
 91
0
280
0
281
0
  0
ENDSEC
  0
SECTION
  2
TABLES
  0
TABLE
  2
VPORT
  5
8
100
AcDbSymbolTable
 70
2
  0
VPORT
  5
1F4
100
AcDbSymbolTableRecord
100
AcDbViewportTableRecord
  2
*ACTIVE
 70
0
 10
0.0
 20
0.0
 11
1.0
 21
1.0
 12
379.2188846893
 22
536.3238512035
 13
0.0
 23
0.0
 14
1.0
 24
1.0
 15
0.0
 25
0.0
 16
0.0
 26
0.0
 36
1.0
 17
0.0
 27
0.0
 37
0.0
 40
1072.647702407
 41
0.7070707071
 42
50.0
 43
0.0
 44
0.0
 50
0.0
 51
0.0
 71
0
 72
100
 73
1
 74
1
 75
0
 76
0
 77
0
 78
0
  0
ENDTAB
  0
TABLE
  2
LTYPE
  5
5
100
AcDbSymbolTable
 70
6
  0
LTYPE
  5
14
100
AcDbSymbolTableRecord
100
AcDbLinetypeTableRecord
  2
BYBLOCK
 70
0
  3

 72
65
 73
0
 40
0.0
  0
LTYPE
  5
15
100
AcDbSymbolTableRecord
100
AcDbLinetypeTableRecord
  2
BYLAYER
 70
0
  3

 72
65
 73
0
 40
0.0
  0
LTYPE
  5
16
100
AcDbSymbolTableRecord
100
AcDbLinetypeTableRecord
  2
CONTINUOUS
 70
64
  3
Solid line
 72
65
 73
0
 40
0.0
  0
LTYPE
  5
1F5
100
AcDbSymbolTableRecord
100
AcDbLinetypeTableRecord
  2
CENTER
 70
64
  3
____ _ ____ _ ____ _ ____ _ ____ _ ____ _ ____
 72
65
 73
4
 40
0.6
 49
0.375
 74
0
 49
-0.075
 74
0
 49
0.075
 74
0
 49
-0.075
 74
0
  0
LTYPE
  5
1F6
100
AcDbSymbolTableRecord
100
AcDbLinetypeTableRecord
  2
HIDDEN
 70
64
  3
- - - - - - - - - - - - - - - - - - - -
 72
65
 73
2
 40
0.2
 49
0.1
 74
0
 49
-0.1
 74
0
  0
LTYPE
  5
1F7
100
AcDbSymbolTableRecord
100
AcDbLinetypeTableRecord
  2
PHANTOM
 70
64
  3
_____ _ _ _____ _ _ _____ _ _ _____
 72
65
 73
6
 40
0.8
 49
0.45
 74
0
 49
-0.05
 74
0
 49
0.1
 74
0
 49
-0.05
 74
0
 49
0.1
 74
0
 49
-0.05
 74
0
  0
LTYPE
  5
1F8
100
AcDbSymbolTableRecord
100
AcDbLinetypeTableRecord
  2
DOT
 70
64
  3
. . . . . . . . . . . . . . . . . . . .
 72
65
 73
2
 40
0.2
 49
0.1
 74
0
 49
-0.1
 74
0
  0
LTYPE
  5
1F9
100
AcDbSymbolTableRecord
100
AcDbLinetypeTableRecord
  2
DASHED
 70
64
  3
- - - - - - - - - - - - - - - - - - - -
 72
65
 73
2
 40
0.2
 49
0.1
 74
0
 49
-0.1
 74
0
  0
ENDTAB
  0
TABLE
  2
LAYER
  5
2
100
AcDbSymbolTable
 70
36
  0
LAYER
  5
10
100
AcDbSymbolTableRecord
100
AcDbLayerTableRecord
  2
0
 70
0
 62
7
  6
CONTINUOUS
370
-3
390
F
  0
LAYER
  5
1FA
100
AcDbSymbolTableRecord
100
AcDbLayerTableRecord
  2
DEFAULT_1
 70
0
 62
7
  6
CENTER
370
-3
390
F
  0
LAYER
  5
1FB
100
AcDbSymbolTableRecord
100
AcDbLayerTableRecord
  2
DEFAULT_2
 70
0
 62
8
  6
HIDDEN
370
-3
390
F
  0
LAYER
  5
1FC
100
AcDbSymbolTableRecord
100
AcDbLayerTableRecord
  2
DEFAULT_3
 70
0
 62
7
  6
PHANTOM
370
-3
390
F
  0
LAYER
  5
1FD
100
AcDbSymbolTableRecord
100
AcDbLayerTableRecord
  2
00_COMPONENTS
 70
0
 62
7
  6
CONTINUOUS
370
-3
390
F
  0
LAYER
  5
1FE
100
AcDbSymbolTableRecord
100
AcDbLayerTableRecord
  2
01_1_DEFAULT_DATUMS
 70
0
 62
7
  6
CONTINUOUS
370
-3
390
F
  0
LAYER
  5
1FF
100
AcDbSymbolTableRecord
100
AcDbLayerTableRecord
  2
01_PLANES
 70
0
 62
7
  6
CONTINUOUS
370
-3
390
F
  0
LAYER
  5
200
100
AcDbSymbolTableRecord
100
AcDbLayerTableRecord
  2
02_COORD_SYS
 70
0
 62
7
  6
CONTINUOUS
370
-3
390
F
  0
LAYER
  5
201
100
AcDbSymbolTableRecord
100
AcDbLayerTableRecord
  2
03_AXES
 70
0
 62
7
  6
CONTINUOUS
370
-3
390
F
  0
LAYER
  5
202
100
AcDbSymbolTableRecord
100
AcDbLayerTableRecord
  2
04_POINTS
 70
0
 62
7
  6
CONTINUOUS
370
-3
390
F
  0
LAYER
  5
203
100
AcDbSymbolTableRecord
100
AcDbLayerTableRecord
  2
05_CURVES
 70
0
 62
7
  6
CONTINUOUS
370
-3
390
F
  0
LAYER
  5
204
100
AcDbSymbolTableRecord
100
AcDbLayerTableRecord
  2
06_SURFS
 70
0
 62
7
  6
CONTINUOUS
370
-3
390
F
  0
LAYER
  5
205
100
AcDbSymbolTableRecord
100
AcDbLayerTableRecord
  2
07_COSMETICS
 70
0
 62
7
  6
CONTINUOUS
370
-3
390
F
  0
LAYER
  5
206
100
AcDbSymbolTableRecord
100
AcDbLayerTableRecord
  2
10_NOTES
 70
0
 62
7
  6
CONTINUOUS
370
-3
390
F
  0
LAYER
  5
207
100
AcDbSymbolTableRecord
100
AcDbLayerTableRecord
  2
11_NOTES_PUB
 70
0
 62
7
  6
CONTINUOUS
370
-3
390
F
  0
LAYER
  5
208
100
AcDbSymbolTableRecord
100
AcDbLayerTableRecord
  2
13_REF_GTOL
 70
0
 62
7
  6
CONTINUOUS
370
-3
390
F
  0
LAYER
  5
209
100
AcDbSymbolTableRecord
100
AcDbLayerTableRecord
  2
16_MISC
 70
0
 62
7
  6
CONTINUOUS
370
-3
390
F
  0
LAYER
  5
20A
100
AcDbSymbolTableRecord
100
AcDbLayerTableRecord
  2
17_NO_PRINT
 70
0
 62
7
  6
CONTINUOUS
370
-3
390
F
  0
LAYER
  5
20B
100
AcDbSymbolTableRecord
100
AcDbLayerTableRecord
  2
18_DATUM_CAMS_JOINTS
 70
0
 62
7
  6
CONTINUOUS
370
-3
390
F
  0
LAYER
  5
20C
100
AcDbSymbolTableRecord
100
AcDbLayerTableRecord
  2
19_DATUM_FUNCTIONAL
 70
0
 62
7
  6
CONTINUOUS
370
-3
390
F
  0
LAYER
  5
20D
100
AcDbSymbolTableRecord
100
AcDbLayerTableRecord
  2
20_DATUM_KINEMATIC_SCHEME
 70
0
 62
7
  6
CONTINUOUS
370
-3
390
F
  0
LAYER
  5
20E
100
AcDbSymbolTableRecord
100
AcDbLayerTableRecord
  2
PART
 70
0
 62
7
  6
CONTINUOUS
370
-3
390
F
  0
ENDTAB
  0
TABLE
  2
STYLE
  5
3
100
AcDbSymbolTable
 70
1
  0
STYLE
  5
11
100
AcDbSymbolTableRecord
100
AcDbTextStyleTableRecord
  2
STANDARD
 70
0
 40
0.0
 41
0.8
 50
0.0
 71
0
 42
0.2
  3
txt
  4

  0
STYLE
  5
20F
100
AcDbSymbolTableRecord
100
AcDbTextStyleTableRecord
  2
TEXTSTYLE_1
 70
0
 40
0.0
 41
0.8
 50
0.0
 71
0
 42
0.2
  3
gdt
  4

  0
ENDTAB
  0
TABLE
  2
VIEW
  5
6
100
AcDbSymbolTable
 70
0
  0
ENDTAB
  0
TABLE
  2
UCS
  5
7
100
AcDbSymbolTable
 70
0
  0
ENDTAB
  0
TABLE
  2
APPID
  5
9
100
AcDbSymbolTable
 70
1
  0
APPID
  5
210
100
AcDbSymbolTableRecord
100
AcDbRegAppTableRecord
  2
ACAD
 70
0
  0
ENDTAB
  0
TABLE
  2
BLOCK_RECORD
  5
1
100
AcDbSymbolTable
 70
0
  0
BLOCK_RECORD
  5
211
100
AcDbSymbolTableRecord
100
AcDbBlockTableRecord
  2
*Model_Space
  0
BLOCK_RECORD
  5
212
100
AcDbSymbolTableRecord
100
AcDbBlockTableRecord
  2
*Paper_Space
  0
BLOCK_RECORD
  5
213
100
AcDbSymbolTableRecord
100
AcDbBlockTableRecord
  2
_FILLED
  0
ENDTAB
  0
TABLE
  2
DIMSTYLE
  5
A
100
AcDbSymbolTable
 70
1
100
AcDbDimStyleTable
 71
0
  0
DIMSTYLE
105
214
100
AcDbSymbolTableRecord
100
AcDbDimStyleTableRecord
  2
STANDARD
 70
0
  3

  4

 40
1.0
 41
9.029021064
 42
1.0
 43
0.38
 44
1.0
 45
0.0
 46
0.0
 47
0.01
 48
0.01
140
12.6406294896
141
0.09
142
0.0
143
25.4
144
1.0
145
0.0
146
1.0
147
0.625
 71
1
 72
0
 73
0
 74
0
 75
0
 76
0
 77
1
 78
8
 79
2
170
0
171
1
172
0
173
0
174
0
175
0
176
0
177
0
178
0
270
2
179
2
271
2
272
2
273
2
274
2
275
0
280
0
281
0
282
0
283
1
284
8
285
0
286
0
287
3
288
0
340
11
278
46
341
213
342
213
343
213
344
213
  0
ENDTAB
  0
ENDSEC
  0
SECTION
  2
BLOCKS
  0
BLOCK
  5
20
100
AcDbEntity
  8
0
100
AcDbBlockBegin
  2
*Model_Space
 70
0
 10
0.0
 20
0.0
 30
0.0
  3
*Model_Space
  1

  0
ENDBLK
  5
21
100
AcDbEntity
  8
0
100
AcDbBlockEnd
  0
BLOCK
  5
1C
100
AcDbEntity
  8
0
100
AcDbBlockBegin
  2
*Paper_Space
 70
0
 10
0.0
 20
0.0
 30
0.0
  3
*Paper_Space
  1

  0
ENDBLK
  5
1D
100
AcDbEntity
  8
0
100
AcDbBlockEnd
  0
BLOCK
  5
215
100
AcDbEntity
  8
0
100
AcDbBlockBegin
  2
_FILLED
 70
64
 10
0.0
 20
0.0
  3
_FILLED
  1

  0
SOLID
  5
216
100
AcDbEntity
  8
0
  6
BYBLOCK
 62
0
100
AcDbTrace
 10
0.0
 20
0.0
 11
-1.0
 21
0.25
 12
-1.0
 22
-0.25
 13
-1.0
 23
-0.25
  0
ENDBLK
  5
217
100
AcDbEntity
  8
0
  6
BYBLOCK
 62
0
100
AcDbBlockEnd
  0
ENDSEC
  0
SECTION
  2
ENTITIES
  0
LINE
  5
218
100
AcDbEntity
  8
PART
100
AcDbLine
 62
7
  6
CONTINUOUS
 10
82.7317949738
 20
686.4553194722
 11
81.9762394183
 21
685.5230449405
  0
LINE
  5
219
100
AcDbEntity
  8
PART
100
AcDbLine
 62
7
  6
CONTINUOUS
 10
96.5319514235
 20
391.1493704814
 11
95.9317949738
 21
392.188510624
  0
LINE
  5
21A
100
AcDbEntity
  8
PART
100
AcDbLine
 62
7
  6
CONTINUOUS
 10
97.8809669319
 20
393.3142568774
 11
98.4811233816
 21
392.2751167348
  0
LINE
  5
21B
100
AcDbEntity
  8
PART
100
AcDbLine
 62
7
  6
CONTINUOUS
 10
100.4820427163
 20
394.4698898809
 11
100.3319253485
 21
394.7298104119
  0
LINE
  5
21C
100
AcDbEntity
  8
PART
100
AcDbLine
 62
7
  6
CONTINUOUS
 10
80.5317949738
 20
408.948510624
 11
80.5317949738
 21
685.406510624
  0
LINE
  5
21D
100
AcDbEntity
  8
PART
100
AcDbLine
 62
7
  6
CONTINUOUS
 10
82.7317949738
 20
686.7585437435
 11
82.7317949738
 21
406.748510624
  0
LINE
  5
21E
100
AcDbEntity
  8
PART
100
AcDbLine
 62
7
  6
CONTINUOUS
 10
98.4811233817
 20
392.2751167348
 11
98.4811233817
 21
393.3142568774
  0
LINE
  5
21F
100
AcDbEntity
  8
PART
100
AcDbLine
 62
7
  6
CONTINUOUS
 10
100.8317949738
 20
395.5957605307
 11
100.8317949738
 21
405.748510624
  0
LINE
  5
220
100
AcDbEntity
  8
PART
100
AcDbLine
 62
7
  6
CONTINUOUS
 10
100.855842147
 20
392.188510624
 11
100.855842147
 21
391.1493704814
  0
LINE
  5
221
100
AcDbEntity
  8
PART
100
AcDbLine
 62
7
  6
CONTINUOUS
 10
102.0317949738
 20
395.5957605307
 11
102.0317949738
 21
405.748510624
  0
LINE
  5
222
100
AcDbEntity
  8
PART
100
AcDbLine
 62
7
  6
CONTINUOUS
 10
100.855842147
 20
391.1493704814
 11
660.2077478006
 21
391.1493704814
  0
LINE
  5
223
100
AcDbEntity
  8
PART
100
AcDbLine
 62
7
  6
CONTINUOUS
 10
100.855842147
 20
392.188510624
 11
660.2077478006
 21
392.188510624
  0
LINE
  5
224
100
AcDbEntity
  8
PART
100
AcDbLine
 62
7
  6
CONTINUOUS
 10
660.1315081494
 20
394.7298104119
 11
100.9320817982
 21
394.7298104119
  0
LINE
  5
225
100
AcDbEntity
  8
PART
100
AcDbLine
 62
7
  6
CONTINUOUS
 10
100.8317949738
 20
395.5957605307
 11
660.2317949738
 21
395.5957605307
  0
LINE
  5
226
100
AcDbEntity
  8
PART
100
AcDbLine
 62
7
  6
CONTINUOUS
 10
660.2317949738
 20
405.748510624
 11
100.8317949738
 21
405.748510624
  0
LINE
  5
227
100
AcDbEntity
  8
PART
100
AcDbLine
 62
7
  6
CONTINUOUS
 10
678.3317949738
 20
406.748510624
 11
82.7317949738
 21
406.748510624
  0
LINE
  5
228
100
AcDbEntity
  8
PART
100
AcDbLine
 62
7
  6
CONTINUOUS
 10
80.5317949738
 20
408.948510624
 11
680.5317949738
 21
408.948510624
  0
LINE
  5
229
100
AcDbEntity
  8
PART
100
AcDbLine
 62
7
  6
CONTINUOUS
 10
100.3319253485
 20
394.7298104119
 11
95.9317949738
 21
392.188510624
  0
LINE
  5
22A
100
AcDbEntity
  8
PART
100
AcDbLine
 62
7
  6
CONTINUOUS
 10
98.4811233816
 20
393.3142568774
 11
100.9320817982
 21
394.7298104119
  0
LINE
  5
22B
100
AcDbEntity
  8
PART
100
AcDbLine
 62
7
  6
CONTINUOUS
 10
96.5319514235
 20
391.1493704814
 11
98.4811233816
 21
392.2751167348
  0
LINE
  5
22C
100
AcDbEntity
  8
PART
100
AcDbLine
 62
7
  6
CONTINUOUS
 10
662.5824665659
 20
392.2751167348
 11
664.5316385241
 21
391.1493704814
  0
LINE
  5
22D
100
AcDbEntity
  8
PART
100
AcDbLine
 62
7
  6
CONTINUOUS
 10
660.1315081494
 20
394.7298104119
 11
662.5824665659
 21
393.3142568774
  0
LINE
  5
22E
100
AcDbEntity
  8
PART
100
AcDbLine
 62
7
  6
CONTINUOUS
 10
665.1317949738
 20
392.188510624
 11
660.7316645991
 21
394.7298104119
  0
LINE
  5
22F
100
AcDbEntity
  8
PART
100
AcDbLine
 62
7
  6
CONTINUOUS
 10
680.5317949738
 20
685.406510624
 11
80.5317949738
 21
685.406510624
  0
LINE
  5
230
100
AcDbEntity
  8
PART
100
AcDbLine
 62
7
  6
CONTINUOUS
 10
678.3317949738
 20
686.7585498032
 11
82.7317949738
 21
686.7585498032
  0
LINE
  5
231
100
AcDbEntity
  8
PART
100
AcDbLine
 62
7
  6
CONTINUOUS
 10
659.0317949738
 20
395.5957605307
 11
659.0317949738
 21
405.748510624
  0
LINE
  5
232
100
AcDbEntity
  8
PART
100
AcDbLine
 62
7
  6
CONTINUOUS
 10
660.2077478006
 20
391.1493704814
 11
660.2077478006
 21
392.188510624
  0
LINE
  5
233
100
AcDbEntity
  8
PART
100
AcDbLine
 62
7
  6
CONTINUOUS
 10
660.2317949738
 20
395.5957605307
 11
660.2317949738
 21
405.748510624
  0
LINE
  5
234
100
AcDbEntity
  8
PART
100
AcDbLine
 62
7
  6
CONTINUOUS
 10
662.5824665659
 20
393.3142568775
 11
662.5824665659
 21
392.2751167349
  0
LINE
  5
235
100
AcDbEntity
  8
PART
100
AcDbLine
 62
7
  6
CONTINUOUS
 10
678.3317949738
 20
406.748510624
 11
678.3317949738
 21
686.7585437435
  0
LINE
  5
236
100
AcDbEntity
  8
PART
100
AcDbLine
 62
7
  6
CONTINUOUS
 10
680.5317949738
 20
685.406510624
 11
680.5317949738
 21
408.948510624
  0
LINE
  5
237
100
AcDbEntity
  8
PART
100
AcDbLine
 62
7
  6
CONTINUOUS
 10
660.7316645991
 20
394.7298104119
 11
660.5815472312
 21
394.469889881
  0
LINE
  5
238
100
AcDbEntity
  8
PART
100
AcDbLine
 62
7
  6
CONTINUOUS
 10
662.582466566
 20
392.2751167349
 11
663.1826230157
 21
393.3142568775
  0
LINE
  5
239
100
AcDbEntity
  8
PART
100
AcDbLine
 62
7
  6
CONTINUOUS
 10
665.1317949738
 20
392.188510624
 11
664.5316385241
 21
391.1493704814
  0
LINE
  5
23A
100
AcDbEntity
  8
PART
100
AcDbLine
 62
7
  6
CONTINUOUS
 10
679.0873505294
 20
685.5230449405
 11
678.3317949738
 21
686.4553194722
  0
ARC
  5
23B
100
AcDbEntity
  8
PART
100
AcDbCircle
 62
7
  6
CONTINUOUS
 10
109.7517327456
 20
414.1852666997
 40
23.7274977061
100
AcDbArc
 50
245.8003045749
 51
247.9806910596
  0
ARC
  5
23C
100
AcDbEntity
  8
PART
100
AcDbCircle
 62
7
  6
CONTINUOUS
 10
651.3118572017
 20
414.1852667004
 40
23.7274977069
100
AcDbArc
 50
292.0193089404
 51
294.199695425
  0
ARC
  5
23D
100
AcDbEntity
  8
PART
100
AcDbCircle
 62
7
  6
CONTINUOUS
 10
108.9803023964
 20
412.4612303318
 40
21.838742585
100
AcDbArc
 50
244.0622297017
 51
245.792236953
  0
ARC
  5
23E
100
AcDbEntity
  8
PART
100
AcDbCircle
 62
7
  6
CONTINUOUS
 10
652.0832875594
 20
412.4612303135
 40
21.8387425649
100
AcDbArc
 50
294.2077630468
 51
295.9377702997
  0
ARC
  5
23F
100
AcDbEntity
  8
PART
100
AcDbCircle
 62
7
  6
CONTINUOUS
 10
108.5544644585
 20
411.5785463459
 40
20.858712658
100
AcDbArc
 50
243.4562508971
 51
244.0536096261
  0
ARC
  5
240
100
AcDbEntity
  8
PART
100
AcDbCircle
 62
7
  6
CONTINUOUS
 10
652.5091255058
 20
411.5785463102
 40
20.8587126187
100
AcDbArc
 50
295.9463903754
 51
296.5437491055
  0
ARC
  5
241
100
AcDbEntity
  8
PART
100
AcDbCircle
 62
7
  6
CONTINUOUS
 10
108.2860091175
 20
411.0426007079
 40
20.2592916407
100
AcDbArc
 50
242.4140739268
 51
243.4581017353
  0
ARC
  5
242
100
AcDbEntity
  8
PART
100
AcDbCircle
 62
7
  6
CONTINUOUS
 10
652.9943840766
 20
410.6193813368
 40
19.7837978755
100
AcDbArc
 50
296.5278886683
 51
298.9890964338
  0
ARC
  5
243
100
AcDbEntity
  8
PART
100
AcDbCircle
 62
7
  6
CONTINUOUS
 10
107.9014745874
 20
410.3085838659
 40
19.4306501855
100
AcDbArc
 50
240.9993760512
 51
242.4167641401
  0
ARC
  5
244
100
AcDbEntity
  8
PART
100
AcDbCircle
 62
7
  6
CONTINUOUS
 10
678.3317949738
 20
408.948510624
 40
2.2
100
AcDbArc
 50
270.0
 51
360.0
  0
ARC
  5
245
100
AcDbEntity
  8
PART
100
AcDbCircle
 62
7
  6
CONTINUOUS
 10
82.7317949738
 20
408.948510624
 40
2.2
100
AcDbArc
 50
180.0
 51
270.0
  0
ARC
  5
246
100
AcDbEntity
  8
PART
100
AcDbCircle
 62
7
  6
CONTINUOUS
 10
81.8817949738
 20
685.406510624
 40
1.35
100
AcDbArc
 50
50.9771974348
 51
180.0
  0
ARC
  5
247
100
AcDbEntity
  8
PART
100
AcDbCircle
 62
7
  6
CONTINUOUS
 10
679.1817949738
 20
685.406510624
 40
1.35
100
AcDbArc
 50
0.0
 51
129.0228025652
  0
ARC
  5
248
100
AcDbEntity
  8
PART
100
AcDbCircle
 62
7
  6
CONTINUOUS
 10
678.3317949738
 20
408.948510624
 40
1.0
100
AcDbArc
 50
270.0
 51
360.0
  0
ARC
  5
249
100
AcDbEntity
  8
PART
100
AcDbCircle
 62
7
  6
CONTINUOUS
 10
661.2317949738
 20
405.748510624
 40
1.0
100
AcDbArc
 50
119.9999793429
 51
180.0
  0
ARC
  5
24A
100
AcDbEntity
  8
PART
100
AcDbCircle
 62
7
  6
CONTINUOUS
 10
661.2317949738
 20
395.5957605307
 40
1.0
100
AcDbArc
 50
180.0
 51
239.9913741035
  0
ARC
  5
24B
100
AcDbEntity
  8
PART
100
AcDbCircle
 62
7
  6
CONTINUOUS
 10
82.7317949738
 20
408.948510624
 40
1.0
100
AcDbArc
 50
180.0
 51
270.0
  0
ARC
  5
24C
100
AcDbEntity
  8
PART
100
AcDbCircle
 62
7
  6
CONTINUOUS
 10
99.8317949738
 20
405.748510624
 40
1.0
100
AcDbArc
 50
0.0
 51
29.9999793426
  0
ARC
  5
24D
100
AcDbEntity
  8
PART
100
AcDbCircle
 62
7
  6
CONTINUOUS
 10
99.8317949738
 20
395.5957605307
 40
1.0
100
AcDbArc
 50
300.0086258965
 51
360.0
  0
ARC
  5
24E
100
AcDbEntity
  8
PART
100
AcDbCircle
 62
7
  6
CONTINUOUS
 10
679.1817949738
 20
685.406510624
 40
0.15
100
AcDbArc
 50
0.0
 51
129.0228025654
  0
SPLINE
  5
24F
100
AcDbEntity
  8
PART
100
AcDbSpline
 62
7
  6
CONTINUOUS
 70
0
 71
3
 72
9
 73
5
 74
0
 42
0.0000001
 43
0.0000001
 44
0.0000000001
 40
0.0
 40
0.0
 40
0.0
 40
0.0
 40
0.2353834571
 40
1.0
 40
1.0
 40
1.0
 40
1.0
 10
661.2317949738
 20
406.748510624
 30
0.0
 10
661.1091791745
 20
406.748510624
 30
0.0
 10
660.5870805104
 20
406.697967354
 30
0.0
 10
660.1039131822
 20
406.4579632492
 30
0.0
 10
659.7651283072
 20
406.2485103118
 30
0.0
  0
SPLINE
  5
250
100
AcDbEntity
  8
PART
100
AcDbSpline
 62
7
  6
CONTINUOUS
 70
0
 71
3
 72
8
 73
4
 74
0
 42
0.0000001
 43
0.0000001
 44
0.0000000001
 40
0.0
 40
0.0
 40
0.0
 40
0.0
 40
1.0
 40
1.0
 40
1.0
 40
1.0
 10
659.7651283072
 20
406.2485103118
 30
0.0
 10
659.5134821232
 20
406.0929306614
 30
0.0
 10
659.2725757055
 20
405.9204276644
 30
0.0
 10
659.0317949738
 20
405.748510624
 30
0.0
  0
SPLINE
  5
251
100
AcDbEntity
  8
PART
100
AcDbSpline
 62
7
  6
CONTINUOUS
 70
0
 71
3
 72
9
 73
5
 74
0
 42
0.0000001
 43
0.0000001
 44
0.0000000001
 40
0.0
 40
0.0
 40
0.0
 40
0.0
 40
0.2628758126
 40
1.0
 40
1.0
 40
1.0
 40
1.0
 10
102.0317949738
 20
405.748510624
 30
0.0
 10
101.9101866767
 20
405.8353387451
 30
0.0
 10
101.4484004678
 20
406.1644113208
 30
0.0
 10
100.9598078153
 20
406.4738682408
 30
0.0
 10
100.5651283072
 20
406.6145362081
 30
0.0
  0
SPLINE
  5
252
100
AcDbEntity
  8
PART
100
AcDbSpline
 62
7
  6
CONTINUOUS
 70
0
 71
3
 72
8
 73
4
 74
0
 42
0.0000001
 43
0.0000001
 44
0.0000000001
 40
0.0
 40
0.0
 40
0.0
 40
0.0
 40
1.0
 40
1.0
 40
1.0
 40
1.0
 10
659.0317949738
 20
395.5957605307
 30
0.0
 10
659.2833133861
 20
395.3562875434
 30
0.0
 10
659.5346363139
 20
395.1124543615
 30
0.0
 10
659.8196648554
 20
394.9140417765
 30
0.0
  0
SPLINE
  5
253
100
AcDbEntity
  8
PART
100
AcDbSpline
 62
7
  6
CONTINUOUS
 70
0
 71
3
 72
8
 73
4
 74
0
 42
0.0000001
 43
0.0000001
 44
0.0000000001
 40
0.0
 40
0.0
 40
0.0
 40
0.0
 40
1.0
 40
1.0
 40
1.0
 40
1.0
 10
659.8196648554
 20
394.9140417765
 30
0.0
 10
659.918753452
 20
394.8450647384
 30
0.0
 10
660.0225028753
 20
394.7817164034
 30
0.0
 10
660.1315081494
 20
394.7298104119
 30
0.0
  0
SPLINE
  5
254
100
AcDbEntity
  8
PART
100
AcDbSpline
 62
7
  6
CONTINUOUS
 70
0
 71
3
 72
8
 73
4
 74
0
 42
0.0000001
 43
0.0000001
 44
0.0000000001
 40
0.0
 40
0.0
 40
0.0
 40
0.0
 40
1.0
 40
1.0
 40
1.0
 40
1.0
 10
100.9320817982
 20
394.7298104119
 30
0.0
 10
101.0612507809
 20
394.7913179323
 30
0.0
 10
101.1830540219
 20
394.8687604561
 30
0.0
 10
101.2986528568
 20
394.9530499011
 30
0.0
  0
SPLINE
  5
255
100
AcDbEntity
  8
PART
100
AcDbSpline
 62
7
  6
CONTINUOUS
 70
0
 71
3
 72
8
 73
4
 74
0
 42
0.0000001
 43
0.0000001
 44
0.0000000001
 40
0.0
 40
0.0
 40
0.0
 40
0.0
 40
1.0
 40
1.0
 40
1.0
 40
1.0
 10
101.2986528568
 20
394.9530499011
 30
0.0
 10
101.426358936
 20
395.0461674014
 30
0.0
 10
101.5474375606
 20
395.1484020154
 30
0.0
 10
101.6652239153
 20
395.2537874327
 30
0.0
  0
SPLINE
  5
256
100
AcDbEntity
  8
PART
100
AcDbSpline
 62
7
  6
CONTINUOUS
 70
0
 71
3
 72
8
 73
4
 74
0
 42
0.0000001
 43
0.0000001
 44
0.0000000001
 40
0.0
 40
0.0
 40
0.0
 40
0.0
 40
1.0
 40
1.0
 40
1.0
 40
1.0
 10
101.6652239153
 20
395.2537874327
 30
0.0
 10
101.7897595078
 20
395.3652115058
 30
0.0
 10
101.9107707065
 20
395.4805322158
 30
0.0
 10
102.0317949738
 20
395.5957605307
 30
0.0
  0
SPLINE
  5
257
100
AcDbEntity
  8
PART
100
AcDbSpline
 62
7
  6
CONTINUOUS
 70
0
 71
3
 72
9
 73
5
 74
0
 42
0.0000001
 43
0.0000001
 44
0.0000000001
 40
0.0
 40
0.0
 40
0.0
 40
0.0
 40
0.2414578205
 40
1.0
 40
1.0
 40
1.0
 40
1.0
 10
98.4811233816
 20
392.2751167348
 30
0.0
 10
98.666177271
 20
392.1725125886
 30
0.0
 10
99.4396668283
 20
391.7604015039
 30
0.0
 10
100.2396768725
 20
391.3987788067
 30
0.0
 10
100.855842147
 20
391.1493704814
 30
0.0
  0
SPLINE
  5
258
100
AcDbEntity
  8
PART
100
AcDbSpline
 62
7
  6
CONTINUOUS
 70
0
 71
3
 72
9
 73
5
 74
0
 42
0.0000001
 43
0.0000001
 44
0.0000000001
 40
0.0
 40
0.0
 40
0.0
 40
0.0
 40
0.2584998096
 40
1.0
 40
1.0
 40
1.0
 40
1.0
 10
660.2077478006
 20
391.1493704814
 30
0.0
 10
660.4177243824
 20
391.2343637613
 30
0.0
 10
661.2254573104
 20
391.5741930245
 30
0.0
 10
662.014187892
 20
391.9600315004
 30
0.0
 10
662.582466566
 20
392.2751167348
 30
0.0
  0
SPLINE
  5
259
100
AcDbEntity
  8
PART
100
AcDbSpline
 62
7
  6
CONTINUOUS
 70
0
 71
3
 72
8
 73
4
 74
0
 42
0.0000001
 43
0.0000001
 44
0.0000000001
 40
0.0
 40
0.0
 40
0.0
 40
0.0
 40
1.0
 40
1.0
 40
1.0
 40
1.0
 10
82.0651283151
 20
408.4485105933
 30
0.0
 10
81.9465110356
 20
408.6099212552
 30
0.0
 10
81.8393664557
 20
408.7795377354
 30
0.0
 10
81.7317949738
 20
408.948510624
 30
0.0
  0
ENDSEC
  0
SECTION
  2
OBJECTS
  0
DICTIONARY
  5
C
100
AcDbDictionary
280
0
281
1
  3
ACAD_GROUP
350
D
  3
ACAD_MLINESTYLE
350
17
  3
ACAD_LAYOUT
350
1A
  3
ACAD_PLOTSETTINGS
350
19
  3
ACAD_PLOTSTYLENAME
350
E
  0
DICTIONARY
  5
D
102
{ACAD_REACTORS
330
C
102
}
100
AcDbDictionary
280
0
281
1
  0
ACDBDICTIONARYWDFLT
  5
E
102
{ACAD_REACTORS
330
C
102
}
100
AcDbDictionary
281
1
  3
Normal
350
F
100
AcDbDictionaryWithDefault
340
F
  0
DICTIONARY
  5
17
102
{ACAD_REACTORS
330
C
102
}
100
AcDbDictionary
280
0
281
1
  3
Standard
350
18
  0
DICTIONARY
  5
19
102
{ACAD_REACTORS
330
C
102
}
100
AcDbDictionary
281
1
  0
DICTIONARY
  5
1A
102
{ACAD_REACTORS
330
C
102
}
100
AcDbDictionary
281
1
  3
Model
350
25A
  3
Layout1
350
25B
  0
ACDBPLACEHOLDER
  5
F
102
{ACAD_REACTORS
330
E
102
}
  0
MLINESTYLE
  5
18
102
{ACAD_REACTORS
330
17
102
}
100
AcDbMlineStyle
  2
STANDARD
 70
0
  3

 62
256
 51
90.0
 52
90.0
 71
2
 49
0.5
 62
256
  6
BYLAYER
 49
-0.5
 62
256
  6
BYLAYER
  0
LAYOUT
  5
25A
102
{ACAD_REACTORS
330
1A
102
}
100
AcDbPlotSettings
  1

  2
none_device
  4

  6

 40
0.0
 41
0.0
 42
0.0
 43
0.0
 44
210.0
 45
297.0
 46
0.0
 47
0.0
 48
0.0
 49
0.0
140
0.0
141
0.0
142
1.0
143
1.0
 70
1024
 72
1
 73
0
 74
0
  7

 75
0
147
1.0
148
0.0
149
0.0
100
AcDbLayout
  1
Model
 70
0
 71
0
 10
0.0
 20
0.0
 11
210.0
 21
297.0
 12
0.0
 22
0.0
 32
0.0
 14
0.0
 24
0.0
 34
0.0
 15
0.0
 25
0.0
 35
0.0
146
0.0
 13
0.0
 23
0.0
 33
0.0
 16
1.0
 26
0.0
 36
0.0
 17
0.0
 27
1.0
 37
0.0
 76
0
330
211
345
0
346
0
  0
LAYOUT
  5
25B
102
{ACAD_REACTORS
330
1A
102
}
100
AcDbPlotSettings
  1

  2
none_device
  4

  6

 40
0.0
 41
0.0
 42
0.0
 43
0.0
 44
210.0
 45
297.0
 46
0.0
 47
0.0
 48
0.0
 49
0.0
140
0.0
141
0.0
142
1.0
143
1.0
 70
0
 72
1
 73
0
 74
0
  7

 75
0
147
1.0
148
0.0
149
0.0
100
AcDbLayout
  1
Layout1
 70
0
 71
1
 10
0.0
 20
0.0
 11
210.0
 21
297.0
 12
0.0
 22
0.0
 32
0.0
 14
0.0
 24
0.0
 34
0.0
 15
0.0
 25
0.0
 35
0.0
146
0.0
 13
0.0
 23
0.0
 33
0.0
 16
1.0
 26
0.0
 36
0.0
 17
0.0
 27
1.0
 37
0.0
 76
0
330
212
345
0
346
0
  0
ENDSEC
  0
EOF
