999
DXF file: C:\Vinayak\New 2D genarating\updateCreo8 with 3dPdf\CAD\NSYCRN106300_3D-CAD\drw0001_2.dxf
999
Pro/ENGINEER 2021284 by Parametric Technology Corporation
  0
SECTION
  2
HEADER
  9
$ACADVER
  1
AC1024
  9
$DWGCODEPAGE
  3
ANSI_1252
  9
$EXTMAX
 10
819.3996704635
 20
1158.865248227
 30
0.0
  9
$EXTMIN
 10
0.0
 20
0.0
 30
0.0
  9
$LIMMIN
 10
0.0
 20
0.0
  9
$LIMMAX
 10
819.3996704635
 20
1158.865248227
  9
$VIEWCTR
 10
409.6998352318
 20
579.4326241135
  9
$VIEWSIZE
 40
1158.865248227
  9
$CLAYER
  8
0
  9
$LTSCALE
 40
75.5408458104
  9
$CELTYPE
  6
BYLAYER
  9
$DIMSCALE
 40
1.0
  9
$DIMASZ
 40
9.7547579817
  9
$DIMEXO
 40
1.0
  9
$DIMDLI
 40
52.1918571053
  9
$DIMEXE
 40
1.0
  9
$DIMCEN
 40
12.3612293144
  9
$DIMLFAC
 40
1.0
  9
$DIMBLK
  1
_FILLED
  9
$DIMALT
 70
0
  9
$DIMALTF
 40
0.0393700787
  9
$DIMTXT
 40
13.6566611744
  9
$DIMTOL
 70
1
  9
$DIMLIM
 70
0
  9
$DIMTFAC
 40
1.0
  9
$DIMTP
 40
0.01
  9
$DIMTM
 40
0.01
  9
$DIMGAP
 40
0.625
  9
$DIMDSEP
 70
46
  9
$AUNITS
 70
0
  9
$PDMODE
 70
3
  9
$PDSIZE
 40
0.3125
  9
$HANDSEED
  5
28C
  9
$TILEMODE
 70
1
  9
$MEASUREMENT
 70
1
  9
$INSUNITS
 70
4
  0
ENDSEC
  0
SECTION
  2
CLASSES
  0
CLASS
  1
ACDBDICTIONARYWDFLT
  2
AcDbDictionaryWithDefault
  3
AutoCAD 2000
 90
0
 91
1
280
0
281
0
  0
CLASS
  1
ACDBPLACEHOLDER
  2
AcDbPlaceHolder
  3
AutoCAD 2000
 90
0
 91
1
280
0
281
0
  0
CLASS
  1
LAYOUT
  2
AcDbLayout
  3
AutoCAD 2000
 90
0
 91
0
280
0
281
0
  0
ENDSEC
  0
SECTION
  2
TABLES
  0
TABLE
  2
VPORT
  5
8
100
AcDbSymbolTable
 70
2
  0
VPORT
  5
1F4
100
AcDbSymbolTableRecord
100
AcDbViewportTableRecord
  2
*ACTIVE
 70
0
 10
0.0
 20
0.0
 11
1.0
 21
1.0
 12
409.6998352318
 22
579.4326241135
 13
0.0
 23
0.0
 14
1.0
 24
1.0
 15
0.0
 25
0.0
 16
0.0
 26
0.0
 36
1.0
 17
0.0
 27
0.0
 37
0.0
 40
1158.865248227
 41
0.7070707071
 42
50.0
 43
0.0
 44
0.0
 50
0.0
 51
0.0
 71
0
 72
100
 73
1
 74
1
 75
0
 76
0
 77
0
 78
0
  0
ENDTAB
  0
TABLE
  2
LTYPE
  5
5
100
AcDbSymbolTable
 70
6
  0
LTYPE
  5
14
100
AcDbSymbolTableRecord
100
AcDbLinetypeTableRecord
  2
BYBLOCK
 70
0
  3

 72
65
 73
0
 40
0.0
  0
LTYPE
  5
15
100
AcDbSymbolTableRecord
100
AcDbLinetypeTableRecord
  2
BYLAYER
 70
0
  3

 72
65
 73
0
 40
0.0
  0
LTYPE
  5
16
100
AcDbSymbolTableRecord
100
AcDbLinetypeTableRecord
  2
CONTINUOUS
 70
64
  3
Solid line
 72
65
 73
0
 40
0.0
  0
LTYPE
  5
1F5
100
AcDbSymbolTableRecord
100
AcDbLinetypeTableRecord
  2
CENTER
 70
64
  3
____ _ ____ _ ____ _ ____ _ ____ _ ____ _ ____
 72
65
 73
4
 40
0.6
 49
0.375
 74
0
 49
-0.075
 74
0
 49
0.075
 74
0
 49
-0.075
 74
0
  0
LTYPE
  5
1F6
100
AcDbSymbolTableRecord
100
AcDbLinetypeTableRecord
  2
HIDDEN
 70
64
  3
- - - - - - - - - - - - - - - - - - - -
 72
65
 73
2
 40
0.2
 49
0.1
 74
0
 49
-0.1
 74
0
  0
LTYPE
  5
1F7
100
AcDbSymbolTableRecord
100
AcDbLinetypeTableRecord
  2
PHANTOM
 70
64
  3
_____ _ _ _____ _ _ _____ _ _ _____
 72
65
 73
6
 40
0.8
 49
0.45
 74
0
 49
-0.05
 74
0
 49
0.1
 74
0
 49
-0.05
 74
0
 49
0.1
 74
0
 49
-0.05
 74
0
  0
LTYPE
  5
1F8
100
AcDbSymbolTableRecord
100
AcDbLinetypeTableRecord
  2
DOT
 70
64
  3
. . . . . . . . . . . . . . . . . . . .
 72
65
 73
2
 40
0.2
 49
0.1
 74
0
 49
-0.1
 74
0
  0
LTYPE
  5
1F9
100
AcDbSymbolTableRecord
100
AcDbLinetypeTableRecord
  2
DASHED
 70
64
  3
- - - - - - - - - - - - - - - - - - - -
 72
65
 73
2
 40
0.2
 49
0.1
 74
0
 49
-0.1
 74
0
  0
ENDTAB
  0
TABLE
  2
LAYER
  5
2
100
AcDbSymbolTable
 70
36
  0
LAYER
  5
10
100
AcDbSymbolTableRecord
100
AcDbLayerTableRecord
  2
0
 70
0
 62
7
  6
CONTINUOUS
370
-3
390
F
  0
LAYER
  5
1FA
100
AcDbSymbolTableRecord
100
AcDbLayerTableRecord
  2
DEFAULT_1
 70
0
 62
7
  6
CENTER
370
-3
390
F
  0
LAYER
  5
1FB
100
AcDbSymbolTableRecord
100
AcDbLayerTableRecord
  2
DEFAULT_2
 70
0
 62
8
  6
HIDDEN
370
-3
390
F
  0
LAYER
  5
1FC
100
AcDbSymbolTableRecord
100
AcDbLayerTableRecord
  2
DEFAULT_3
 70
0
 62
7
  6
PHANTOM
370
-3
390
F
  0
LAYER
  5
1FD
100
AcDbSymbolTableRecord
100
AcDbLayerTableRecord
  2
00_COMPONENTS
 70
0
 62
7
  6
CONTINUOUS
370
-3
390
F
  0
LAYER
  5
1FE
100
AcDbSymbolTableRecord
100
AcDbLayerTableRecord
  2
01_1_DEFAULT_DATUMS
 70
0
 62
7
  6
CONTINUOUS
370
-3
390
F
  0
LAYER
  5
1FF
100
AcDbSymbolTableRecord
100
AcDbLayerTableRecord
  2
01_PLANES
 70
0
 62
7
  6
CONTINUOUS
370
-3
390
F
  0
LAYER
  5
200
100
AcDbSymbolTableRecord
100
AcDbLayerTableRecord
  2
02_COORD_SYS
 70
0
 62
7
  6
CONTINUOUS
370
-3
390
F
  0
LAYER
  5
201
100
AcDbSymbolTableRecord
100
AcDbLayerTableRecord
  2
03_AXES
 70
0
 62
7
  6
CONTINUOUS
370
-3
390
F
  0
LAYER
  5
202
100
AcDbSymbolTableRecord
100
AcDbLayerTableRecord
  2
04_POINTS
 70
0
 62
7
  6
CONTINUOUS
370
-3
390
F
  0
LAYER
  5
203
100
AcDbSymbolTableRecord
100
AcDbLayerTableRecord
  2
05_CURVES
 70
0
 62
7
  6
CONTINUOUS
370
-3
390
F
  0
LAYER
  5
204
100
AcDbSymbolTableRecord
100
AcDbLayerTableRecord
  2
06_SURFS
 70
0
 62
7
  6
CONTINUOUS
370
-3
390
F
  0
LAYER
  5
205
100
AcDbSymbolTableRecord
100
AcDbLayerTableRecord
  2
07_COSMETICS
 70
0
 62
7
  6
CONTINUOUS
370
-3
390
F
  0
LAYER
  5
206
100
AcDbSymbolTableRecord
100
AcDbLayerTableRecord
  2
10_NOTES
 70
0
 62
7
  6
CONTINUOUS
370
-3
390
F
  0
LAYER
  5
207
100
AcDbSymbolTableRecord
100
AcDbLayerTableRecord
  2
11_NOTES_PUB
 70
0
 62
7
  6
CONTINUOUS
370
-3
390
F
  0
LAYER
  5
208
100
AcDbSymbolTableRecord
100
AcDbLayerTableRecord
  2
13_REF_GTOL
 70
0
 62
7
  6
CONTINUOUS
370
-3
390
F
  0
LAYER
  5
209
100
AcDbSymbolTableRecord
100
AcDbLayerTableRecord
  2
16_MISC
 70
0
 62
7
  6
CONTINUOUS
370
-3
390
F
  0
LAYER
  5
20A
100
AcDbSymbolTableRecord
100
AcDbLayerTableRecord
  2
17_NO_PRINT
 70
0
 62
7
  6
CONTINUOUS
370
-3
390
F
  0
LAYER
  5
20B
100
AcDbSymbolTableRecord
100
AcDbLayerTableRecord
  2
18_DATUM_CAMS_JOINTS
 70
0
 62
7
  6
CONTINUOUS
370
-3
390
F
  0
LAYER
  5
20C
100
AcDbSymbolTableRecord
100
AcDbLayerTableRecord
  2
19_DATUM_FUNCTIONAL
 70
0
 62
7
  6
CONTINUOUS
370
-3
390
F
  0
LAYER
  5
20D
100
AcDbSymbolTableRecord
100
AcDbLayerTableRecord
  2
20_DATUM_KINEMATIC_SCHEME
 70
0
 62
7
  6
CONTINUOUS
370
-3
390
F
  0
LAYER
  5
20E
100
AcDbSymbolTableRecord
100
AcDbLayerTableRecord
  2
PART
 70
0
 62
7
  6
CONTINUOUS
370
-3
390
F
  0
ENDTAB
  0
TABLE
  2
STYLE
  5
3
100
AcDbSymbolTable
 70
1
  0
STYLE
  5
11
100
AcDbSymbolTableRecord
100
AcDbTextStyleTableRecord
  2
STANDARD
 70
0
 40
0.0
 41
0.8
 50
0.0
 71
0
 42
0.2
  3
txt
  4

  0
STYLE
  5
20F
100
AcDbSymbolTableRecord
100
AcDbTextStyleTableRecord
  2
TEXTSTYLE_1
 70
0
 40
0.0
 41
0.8
 50
0.0
 71
0
 42
0.2
  3
gdt
  4

  0
ENDTAB
  0
TABLE
  2
VIEW
  5
6
100
AcDbSymbolTable
 70
0
  0
ENDTAB
  0
TABLE
  2
UCS
  5
7
100
AcDbSymbolTable
 70
0
  0
ENDTAB
  0
TABLE
  2
APPID
  5
9
100
AcDbSymbolTable
 70
1
  0
APPID
  5
210
100
AcDbSymbolTableRecord
100
AcDbRegAppTableRecord
  2
ACAD
 70
0
  0
ENDTAB
  0
TABLE
  2
BLOCK_RECORD
  5
1
100
AcDbSymbolTable
 70
0
  0
BLOCK_RECORD
  5
211
100
AcDbSymbolTableRecord
100
AcDbBlockTableRecord
  2
*Model_Space
  0
BLOCK_RECORD
  5
212
100
AcDbSymbolTableRecord
100
AcDbBlockTableRecord
  2
*Paper_Space
  0
BLOCK_RECORD
  5
213
100
AcDbSymbolTableRecord
100
AcDbBlockTableRecord
  2
_FILLED
  0
ENDTAB
  0
TABLE
  2
DIMSTYLE
  5
A
100
AcDbSymbolTable
 70
1
100
AcDbDimStyleTable
 71
0
  0
DIMSTYLE
105
214
100
AcDbSymbolTableRecord
100
AcDbDimStyleTableRecord
  2
STANDARD
 70
0
  3

  4

 40
1.0
 41
9.7547579817
 42
1.0
 43
0.38
 44
1.0
 45
0.0
 46
0.0
 47
0.01
 48
0.01
140
13.6566611744
141
0.09
142
0.0
143
25.4
144
1.0
145
0.0
146
1.0
147
0.625
 71
1
 72
0
 73
0
 74
0
 75
0
 76
0
 77
1
 78
8
 79
2
170
0
171
1
172
0
173
0
174
0
175
0
176
0
177
0
178
0
270
2
179
2
271
2
272
2
273
2
274
2
275
0
280
0
281
0
282
0
283
1
284
8
285
0
286
0
287
3
288
0
340
11
278
46
341
213
342
213
343
213
344
213
  0
ENDTAB
  0
ENDSEC
  0
SECTION
  2
BLOCKS
  0
BLOCK
  5
20
100
AcDbEntity
  8
0
100
AcDbBlockBegin
  2
*Model_Space
 70
0
 10
0.0
 20
0.0
 30
0.0
  3
*Model_Space
  1

  0
ENDBLK
  5
21
100
AcDbEntity
  8
0
100
AcDbBlockEnd
  0
BLOCK
  5
1C
100
AcDbEntity
  8
0
100
AcDbBlockBegin
  2
*Paper_Space
 70
0
 10
0.0
 20
0.0
 30
0.0
  3
*Paper_Space
  1

  0
ENDBLK
  5
1D
100
AcDbEntity
  8
0
100
AcDbBlockEnd
  0
BLOCK
  5
215
100
AcDbEntity
  8
0
100
AcDbBlockBegin
  2
_FILLED
 70
64
 10
0.0
 20
0.0
  3
_FILLED
  1

  0
SOLID
  5
216
100
AcDbEntity
  8
0
  6
BYBLOCK
 62
0
100
AcDbTrace
 10
0.0
 20
0.0
 11
-1.0
 21
0.25
 12
-1.0
 22
-0.25
 13
-1.0
 23
-0.25
  0
ENDBLK
  5
217
100
AcDbEntity
  8
0
  6
BYBLOCK
 62
0
100
AcDbBlockEnd
  0
ENDSEC
  0
SECTION
  2
ENTITIES
  0
LINE
  5
218
100
AcDbEntity
  8
PART
100
AcDbLine
 62
7
  6
CONTINUOUS
 10
714.173594097
 20
77.3049645391
 11
117.573594097
 21
77.304964539
  0
LINE
  5
219
100
AcDbEntity
  8
PART
100
AcDbLine
 62
7
  6
CONTINUOUS
 10
714.173594097
 20
78.504964539
 11
715.373594097
 21
78.504964539
  0
LINE
  5
21A
100
AcDbEntity
  8
PART
100
AcDbLine
 62
7
  6
CONTINUOUS
 10
115.373594097
 20
79.504964539
 11
117.573594097
 21
79.504964539
  0
LINE
  5
21B
100
AcDbEntity
  8
PART
100
AcDbLine
 62
7
  6
CONTINUOUS
 10
118.0776724553
 20
80.0090428973
 11
712.6695157387
 21
80.0090428973
  0
LINE
  5
21C
100
AcDbEntity
  8
PART
100
AcDbLine
 62
7
  6
CONTINUOUS
 10
119.5594261294
 20
81.4907965714
 11
711.1877620646
 21
81.4907965714
  0
LINE
  5
21D
100
AcDbEntity
  8
PART
100
AcDbLine
 62
7
  6
CONTINUOUS
 10
709.2354844148
 20
83.4430742212
 11
121.5117037792
 21
83.4430742212
  0
LINE
  5
21E
100
AcDbEntity
  8
PART
100
AcDbLine
 62
7
  6
CONTINUOUS
 10
122.5715618622
 20
84.5029323042
 11
708.1756263318
 21
84.5029323042
  0
LINE
  5
21F
100
AcDbEntity
  8
PART
100
AcDbLine
 62
7
  6
CONTINUOUS
 10
699.373594097
 20
93.304964539
 11
131.373594097
 21
93.3049645389
  0
LINE
  5
220
100
AcDbEntity
  8
PART
100
AcDbLine
 62
7
  6
CONTINUOUS
 10
696.073594097
 20
96.6049645391
 11
134.673594097
 21
96.604964539
  0
LINE
  5
221
100
AcDbEntity
  8
PART
100
AcDbLine
 62
7
  6
CONTINUOUS
 10
136.873594097
 20
98.804964539
 11
693.873594097
 21
98.8049645391
  0
LINE
  5
222
100
AcDbEntity
  8
PART
100
AcDbLine
 62
7
  6
CONTINUOUS
 10
115.373594097
 20
79.504964539
 11
115.373594097
 21
1075.104964539
  0
LINE
  5
223
100
AcDbEntity
  8
PART
100
AcDbLine
 62
7
  6
CONTINUOUS
 10
117.573594097
 20
1077.304964539
 11
117.573594097
 21
1075.1134721885
  0
LINE
  5
224
100
AcDbEntity
  8
PART
100
AcDbLine
 62
7
  6
CONTINUOUS
 10
117.573594097
 20
79.4964568895
 11
117.573594097
 21
77.304964539
  0
LINE
  5
225
100
AcDbEntity
  8
PART
100
AcDbLine
 62
7
  6
CONTINUOUS
 10
118.073594097
 20
1074.604964539
 11
118.073594097
 21
80.004964539
  0
LINE
  5
226
100
AcDbEntity
  8
PART
100
AcDbLine
 62
7
  6
CONTINUOUS
 10
119.5553477711
 20
1073.1232108649
 11
119.5553477711
 21
81.4867182131
  0
LINE
  5
227
100
AcDbEntity
  8
PART
100
AcDbLine
 62
7
  6
CONTINUOUS
 10
121.5076254209
 20
83.4389958629
 11
121.5076254209
 21
1071.1709332151
  0
LINE
  5
228
100
AcDbEntity
  8
PART
100
AcDbLine
 62
7
  6
CONTINUOUS
 10
122.5674835039
 20
1070.1110751321
 11
122.5674835039
 21
84.4988539459
  0
LINE
  5
229
100
AcDbEntity
  8
PART
100
AcDbLine
 62
7
  6
CONTINUOUS
 10
131.373594097
 20
1061.304964539
 11
131.373594097
 21
93.304964539
  0
LINE
  5
22A
100
AcDbEntity
  8
PART
100
AcDbLine
 62
7
  6
CONTINUOUS
 10
134.673594097
 20
96.604964539
 11
134.673594097
 21
1058.004964539
  0
LINE
  5
22B
100
AcDbEntity
  8
PART
100
AcDbLine
 62
7
  6
CONTINUOUS
 10
136.873594097
 20
1055.804964539
 11
136.873594097
 21
98.804964539
  0
LINE
  5
22C
100
AcDbEntity
  8
PART
100
AcDbLine
 62
7
  6
CONTINUOUS
 10
711.673095934
 20
1073.6046090615
 11
709.2354844148
 21
1071.1668548568
  0
LINE
  5
22D
100
AcDbEntity
  8
PART
100
AcDbLine
 62
7
  6
CONTINUOUS
 10
708.1756263318
 20
1070.1069967738
 11
696.073594097
 21
1058.004964539
  0
LINE
  5
22E
100
AcDbEntity
  8
PART
100
AcDbLine
 62
7
  6
CONTINUOUS
 10
713.173594097
 20
1075.104964539
 11
712.673594097
 21
1074.604964539
  0
LINE
  5
22F
100
AcDbEntity
  8
PART
100
AcDbLine
 62
7
  6
CONTINUOUS
 10
712.2682581784
 20
1074.1996840907
 11
711.780854579
 21
1073.712667656
  0
LINE
  5
230
100
AcDbEntity
  8
PART
100
AcDbLine
 62
7
  6
CONTINUOUS
 10
714.0207806959
 20
78.6564485524
 11
714.173594097
 21
78.5049645391
  0
LINE
  5
231
100
AcDbEntity
  8
PART
100
AcDbLine
 62
7
  6
CONTINUOUS
 10
708.1797046901
 20
84.4988539459
 11
696.073594097
 21
96.604964539
  0
LINE
  5
232
100
AcDbEntity
  8
PART
100
AcDbLine
 62
7
  6
CONTINUOUS
 10
709.2395627731
 20
83.4389958629
 11
711.6692560738
 21
81.0092752814
  0
LINE
  5
233
100
AcDbEntity
  8
PART
100
AcDbLine
 62
7
  6
CONTINUOUS
 10
714.173594097
 20
78.504964539
 11
714.0241469898
 21
78.6557382263
  0
LINE
  5
234
100
AcDbEntity
  8
PART
100
AcDbLine
 62
7
  6
CONTINUOUS
 10
134.673594097
 20
96.604964539
 11
122.5674835039
 21
84.4988539459
  0
LINE
  5
235
100
AcDbEntity
  8
PART
100
AcDbLine
 62
7
  6
CONTINUOUS
 10
121.5076254209
 20
83.4389958629
 11
119.07409226
 21
81.0053200164
  0
LINE
  5
236
100
AcDbEntity
  8
PART
100
AcDbLine
 62
7
  6
CONTINUOUS
 10
118.4789300156
 20
80.4102449872
 11
118.966333615
 21
80.8972614219
  0
LINE
  5
237
100
AcDbEntity
  8
PART
100
AcDbLine
 62
7
  6
CONTINUOUS
 10
117.573594097
 20
79.504964539
 11
118.0735940085
 21
80.0049648032
  0
LINE
  5
238
100
AcDbEntity
  8
PART
100
AcDbLine
 62
7
  6
CONTINUOUS
 10
119.0780279328
 20
1073.6003880177
 11
121.5076254209
 21
1071.1709332151
  0
LINE
  5
239
100
AcDbEntity
  8
PART
100
AcDbLine
 62
7
  6
CONTINUOUS
 10
122.5674835039
 20
1070.1110751321
 11
134.673594097
 21
1058.004964539
  0
LINE
  5
23A
100
AcDbEntity
  8
PART
100
AcDbLine
 62
7
  6
CONTINUOUS
 10
117.573594097
 20
1075.104964539
 11
118.0776724553
 21
1074.6008861807
  0
LINE
  5
23B
100
AcDbEntity
  8
PART
100
AcDbLine
 62
7
  6
CONTINUOUS
 10
118.474796187
 20
1074.2037069786
 11
118.9618126217
 21
1073.7163033792
  0
LINE
  5
23C
100
AcDbEntity
  8
PART
100
AcDbLine
 62
7
  6
CONTINUOUS
 10
693.873594097
 20
98.804964539
 11
693.873594097
 21
1055.804964539
  0
LINE
  5
23D
100
AcDbEntity
  8
PART
100
AcDbLine
 62
7
  6
CONTINUOUS
 10
696.073594097
 20
1058.004964539
 11
696.073594097
 21
96.604964539
  0
LINE
  5
23E
100
AcDbEntity
  8
PART
100
AcDbLine
 62
7
  6
CONTINUOUS
 10
699.373594097
 20
93.304964539
 11
699.373594097
 21
1061.304964539
  0
LINE
  5
23F
100
AcDbEntity
  8
PART
100
AcDbLine
 62
7
  6
CONTINUOUS
 10
708.1797046901
 20
84.4988539459
 11
708.1797046901
 21
1070.1110751321
  0
LINE
  5
240
100
AcDbEntity
  8
PART
100
AcDbLine
 62
7
  6
CONTINUOUS
 10
709.2395627731
 20
1071.1709332151
 11
709.2395627731
 21
83.4389958629
  0
LINE
  5
241
100
AcDbEntity
  8
PART
100
AcDbLine
 62
7
  6
CONTINUOUS
 10
711.1918404229
 20
81.4867182131
 11
711.1918404229
 21
1073.1232108649
  0
LINE
  5
242
100
AcDbEntity
  8
PART
100
AcDbLine
 62
7
  6
CONTINUOUS
 10
712.673594097
 20
80.004964539
 11
712.673594097
 21
1074.604964539
  0
LINE
  5
243
100
AcDbEntity
  8
PART
100
AcDbLine
 62
7
  6
CONTINUOUS
 10
713.173594097
 20
1075.1134721885
 11
713.173594097
 21
1077.304964539
  0
LINE
  5
244
100
AcDbEntity
  8
PART
100
AcDbLine
 62
7
  6
CONTINUOUS
 10
714.173594097
 20
77.304964539
 11
714.173594097
 21
78.5049645391
  0
LINE
  5
245
100
AcDbEntity
  8
PART
100
AcDbLine
 62
7
  6
CONTINUOUS
 10
715.373594097
 20
1075.104964539
 11
715.373594097
 21
78.504964539
  0
LINE
  5
246
100
AcDbEntity
  8
PART
100
AcDbLine
 62
7
  6
CONTINUOUS
 10
693.873594097
 20
1055.804964539
 11
136.873594097
 21
1055.804964539
  0
LINE
  5
247
100
AcDbEntity
  8
PART
100
AcDbLine
 62
7
  6
CONTINUOUS
 10
134.673594097
 20
1058.004964539
 11
696.073594097
 21
1058.004964539
  0
LINE
  5
248
100
AcDbEntity
  8
PART
100
AcDbLine
 62
7
  6
CONTINUOUS
 10
131.373594097
 20
1061.304964539
 11
699.373594097
 21
1061.304964539
  0
LINE
  5
249
100
AcDbEntity
  8
PART
100
AcDbLine
 62
7
  6
CONTINUOUS
 10
708.1756263318
 20
1070.1069967738
 11
122.5715618622
 21
1070.1069967738
  0
LINE
  5
24A
100
AcDbEntity
  8
PART
100
AcDbLine
 62
7
  6
CONTINUOUS
 10
121.5117037792
 20
1071.1668548568
 11
709.2354844148
 21
1071.1668548568
  0
LINE
  5
24B
100
AcDbEntity
  8
PART
100
AcDbLine
 62
7
  6
CONTINUOUS
 10
711.1877620646
 20
1073.1191325066
 11
119.5594261294
 21
1073.1191325066
  0
LINE
  5
24C
100
AcDbEntity
  8
PART
100
AcDbLine
 62
7
  6
CONTINUOUS
 10
712.6695157387
 20
1074.6008861807
 11
118.0776724553
 21
1074.6008861807
  0
LINE
  5
24D
100
AcDbEntity
  8
PART
100
AcDbLine
 62
7
  6
CONTINUOUS
 10
715.373594097
 20
1075.104964539
 11
713.173594097
 21
1075.104964539
  0
LINE
  5
24E
100
AcDbEntity
  8
PART
100
AcDbLine
 62
7
  6
CONTINUOUS
 10
117.573594097
 20
1075.104964539
 11
115.373594097
 21
1075.104964539
  0
LINE
  5
24F
100
AcDbEntity
  8
PART
100
AcDbLine
 62
7
  6
CONTINUOUS
 10
117.573594097
 20
1077.304964539
 11
713.173594097
 21
1077.304964539
  0
ARC
  5
250
100
AcDbEntity
  8
PART
100
AcDbCircle
 62
7
  6
CONTINUOUS
 10
185.0970632832
 20
21.4850190907
 40
88.7732826572
100
AcDbArc
 50
134.7752731762
 51
135.1125885918
  0
ARC
  5
251
100
AcDbEntity
  8
PART
100
AcDbCircle
 62
7
  6
CONTINUOUS
 10
169.2011399993
 20
36.1752674995
 40
67.1455981554
100
AcDbArc
 50
134.9059093209
 51
135.2593248003
  0
ARC
  5
252
100
AcDbEntity
  8
PART
100
AcDbCircle
 62
7
  6
CONTINUOUS
 10
157.4662539935
 20
42.1808787134
 40
54.6015284431
100
AcDbArc
 50
134.6792460033
 51
134.8572334731
  0
ARC
  5
253
100
AcDbEntity
  8
PART
100
AcDbCircle
 62
7
  6
CONTINUOUS
 10
117.573594097
 20
79.504964539
 40
2.2
100
AcDbArc
 50
180.0
 51
270.0
  0
ARC
  5
254
100
AcDbEntity
  8
PART
100
AcDbCircle
 62
7
  6
CONTINUOUS
 10
117.573594097
 20
79.504964539
 40
1.0
100
AcDbArc
 50
180.0
 51
270.0
  0
ARC
  5
255
100
AcDbEntity
  8
PART
100
AcDbCircle
 62
7
  6
CONTINUOUS
 10
59.5495724446
 20
1007.5855758537
 40
88.7732796188
100
AcDbArc
 50
44.7752731738
 51
45.1125886009
  0
ARC
  5
256
100
AcDbEntity
  8
PART
100
AcDbCircle
 62
7
  6
CONTINUOUS
 10
74.6061388002
 20
1023.8333229596
 40
66.637791589
100
AcDbArc
 50
44.9098970693
 51
45.2601948706
  0
ARC
  5
257
100
AcDbEntity
  8
PART
100
AcDbCircle
 62
7
  6
CONTINUOUS
 10
80.2535869272
 20
1035.208226577
 40
54.6015280256
100
AcDbArc
 50
44.6792460043
 51
44.8572334754
  0
ARC
  5
258
100
AcDbEntity
  8
PART
100
AcDbCircle
 62
7
  6
CONTINUOUS
 10
117.573594097
 20
1075.104964539
 40
2.2
100
AcDbArc
 50
90.0
 51
180.0
  0
ARC
  5
259
100
AcDbEntity
  8
PART
100
AcDbCircle
 62
7
  6
CONTINUOUS
 10
117.573594097
 20
1075.104964539
 40
1.0
100
AcDbArc
 50
90.0
 51
180.0
  0
ARC
  5
25A
100
AcDbEntity
  8
PART
100
AcDbCircle
 62
7
  6
CONTINUOUS
 10
1029.7567163166
 20
395.5989470476
 40
447.3709525047
100
AcDbArc
 50
224.9539132758
 51
225.0795034274
  0
ARC
  5
25B
100
AcDbEntity
  8
PART
100
AcDbCircle
 62
7
  6
CONTINUOUS
 10
808.9976657595
 20
175.3071891669
 40
135.50079348
100
AcDbArc
 50
224.8584893643
 51
224.987558342
  0
ARC
  5
25C
100
AcDbEntity
  8
PART
100
AcDbCircle
 62
7
  6
CONTINUOUS
 10
771.3445402598
 20
147.170767065
 40
88.9807009782
100
AcDbArc
 50
224.775564516
 51
225.1135846628
  0
ARC
  5
25D
100
AcDbEntity
  8
PART
100
AcDbCircle
 62
7
  6
CONTINUOUS
 10
756.2558613597
 20
130.891739629
 40
66.8003869526
100
AcDbArc
 50
224.9103188893
 51
225.2597565574
  0
ARC
  5
25E
100
AcDbEntity
  8
PART
100
AcDbCircle
 62
7
  6
CONTINUOUS
 10
673.2823358842
 20
42.1822758248
 40
54.5995494162
100
AcDbArc
 50
45.142849038
 51
45.3207690154
  0
ARC
  5
25F
100
AcDbEntity
  8
PART
100
AcDbCircle
 62
7
  6
CONTINUOUS
 10
645.6501277316
 20
1133.1249071507
 40
88.7732786568
100
AcDbArc
 50
314.7752731733
 51
315.112588604
  0
ARC
  5
260
100
AcDbEntity
  8
PART
100
AcDbCircle
 62
7
  6
CONTINUOUS
 10
661.9060285345
 20
1118.0765005259
 40
66.6377948935
100
AcDbArc
 50
314.9098970796
 51
315.2601948635
  0
ARC
  5
261
100
AcDbEntity
  8
PART
100
AcDbCircle
 62
7
  6
CONTINUOUS
 10
673.2809341116
 20
1112.4290504539
 40
54.6015285692
100
AcDbArc
 50
314.6792460037
 51
314.8572334731
  0
ARC
  5
262
100
AcDbEntity
  8
PART
100
AcDbCircle
 62
7
  6
CONTINUOUS
 10
713.173594097
 20
1075.104964539
 40
2.2
100
AcDbArc
 50
0.0
 51
90.0
  0
ARC
  5
263
100
AcDbEntity
  8
PART
100
AcDbCircle
 62
7
  6
CONTINUOUS
 10
713.173594097
 20
1075.104964539
 40
1.0
100
AcDbArc
 50
0.0
 51
90.0
  0
SPLINE
  5
264
100
AcDbEntity
  8
PART
100
AcDbSpline
 62
7
  6
CONTINUOUS
 70
0
 71
3
 72
9
 73
5
 74
0
 42
0.0000001
 43
0.0000001
 44
0.0000000001
 40
0.0
 40
0.0
 40
0.0
 40
0.0
 40
0.2805554556
 40
1.0
 40
1.0
 40
1.0
 40
1.0
 10
134.673594097
 20
1058.004964539
 30
0.0
 10
134.8635338641
 20
1057.8840451277
 30
0.0
 10
135.5347203459
 20
1057.4512463416
 30
0.0
 10
136.2228857441
 20
1056.9929187619
 30
0.0
 10
136.5788498415
 20
1056.5382978713
 30
0.0
  0
SPLINE
  5
265
100
AcDbEntity
  8
PART
100
AcDbSpline
 62
7
  6
CONTINUOUS
 70
0
 71
3
 72
9
 73
5
 74
0
 42
0.0000001
 43
0.0000001
 44
0.0000000001
 40
0.0
 40
0.0
 40
0.0
 40
0.0
 40
0.2280618275
 40
1.0
 40
1.0
 40
1.0
 40
1.0
 10
136.4814296343
 20
97.9555988289
 30
0.0
 10
136.4337621594
 20
97.9023380113
 30
0.0
 10
136.2150182155
 20
97.6774848641
 30
0.0
 10
135.9685459197
 20
97.4815636762
 30
0.0
 10
135.7735943461
 20
97.3382978713
 30
0.0
  0
SPLINE
  5
266
100
AcDbEntity
  8
PART
100
AcDbSpline
 62
7
  6
CONTINUOUS
 70
0
 71
3
 72
8
 73
4
 74
0
 42
0.0000001
 43
0.0000001
 44
0.0000000001
 40
0.0
 40
0.0
 40
0.0
 40
0.0
 40
1.0
 40
1.0
 40
1.0
 40
1.0
 10
135.7735943461
 20
97.3382978713
 30
0.0
 10
135.4184908688
 20
97.0773398057
 30
0.0
 10
135.0453344915
 20
96.8416218243
 30
0.0
 10
134.673594097
 20
96.604964539
 30
0.0
  0
SPLINE
  5
267
100
AcDbEntity
  8
PART
100
AcDbSpline
 62
7
  6
CONTINUOUS
 70
0
 71
3
 72
11
 73
7
 74
0
 42
0.0000001
 43
0.0000001
 44
0.0000000001
 40
0.0
 40
0.0
 40
0.0
 40
0.0
 40
0.0797505815
 40
0.2990093223
 40
0.6173918845
 40
1.0
 40
1.0
 40
1.0
 40
1.0
 10
118.0776724553
 20
80.0090428973
 30
0.0
 10
118.05872173
 20
80.0090428973
 30
0.0
 10
118.0211711619
 20
79.9279416721
 30
0.0
 10
117.9060789884
 20
79.8515195529
 30
0.0
 10
117.757319889
 20
79.6831258081
 30
0.0
 10
117.6379651052
 20
79.5691697916
 30
0.0
 10
117.573594097
 20
79.504964539
 30
0.0
  0
SPLINE
  5
268
100
AcDbEntity
  8
PART
100
AcDbSpline
 62
7
  6
CONTINUOUS
 70
0
 71
3
 72
13
 73
9
 74
0
 42
0.0000001
 43
0.0000001
 44
0.0000000001
 40
0.0
 40
0.0
 40
0.0
 40
0.0
 40
0.0259661204
 40
0.0981491346
 40
0.2066426057
 40
0.3406614988
 40
0.6545735675
 40
1.0
 40
1.0
 40
1.0
 40
1.0
 10
712.6695157387
 20
80.0090428974
 30
0.0
 10
712.6558980384
 20
80.0090428974
 30
0.0
 10
712.747124932
 20
79.950925723
 30
0.0
 10
712.7742430087
 20
79.893143531
 30
0.0
 10
712.9156731728
 20
79.7670091068
 30
0.0
 10
713.1105716541
 20
79.5657384685
 30
0.0
 10
713.4116753986
 20
79.2684551635
 30
0.0
 10
713.6544015819
 20
79.0251110127
 30
0.0
 10
713.7823249795
 20
78.8968416374
 30
0.0
  0
LINE
  5
269
100
AcDbEntity
  8
PART
100
AcDbLine
 62
7
  6
CONTINUOUS
 10
713.7823249795
 20
78.8968416374
 11
713.8572972669
 21
78.8216061185
  0
LINE
  5
26A
100
AcDbEntity
  8
PART
100
AcDbLine
 62
7
  6
CONTINUOUS
 10
713.8572972669
 20
78.8216061185
 11
714.0213235183
 21
78.6569903056
  0
LINE
  5
26B
100
AcDbEntity
  8
PART
100
AcDbLine
 62
7
  6
CONTINUOUS
 10
118.966333615
 20
80.8972614219
 11
119.0781378153
 21
81.0090698647
  0
SPLINE
  5
26C
100
AcDbEntity
  8
PART
100
AcDbSpline
 62
7
  6
CONTINUOUS
 70
0
 71
3
 72
9
 73
5
 74
0
 42
0.0000001
 43
0.0000001
 44
0.0000000001
 40
0.0
 40
0.0
 40
0.0
 40
0.0
 40
0.2805554556
 40
1.0
 40
1.0
 40
1.0
 40
1.0
 10
134.673594097
 20
96.604964539
 30
0.0
 10
134.7945135083
 20
96.7949043061
 30
0.0
 10
135.2273122944
 20
97.4660907879
 30
0.0
 10
135.6856398741
 20
98.1542561861
 30
0.0
 10
136.1402607647
 20
98.5102202835
 30
0.0
  0
SPLINE
  5
26D
100
AcDbEntity
  8
PART
100
AcDbSpline
 62
7
  6
CONTINUOUS
 70
0
 71
3
 72
9
 73
5
 74
0
 42
0.0000001
 43
0.0000001
 44
0.0000000001
 40
0.0
 40
0.0
 40
0.0
 40
0.0
 40
0.2280618275
 40
1.0
 40
1.0
 40
1.0
 40
1.0
 10
694.7229598071
 20
98.4128000764
 30
0.0
 10
694.7762206246
 20
98.3651326015
 30
0.0
 10
695.0010737719
 20
98.1463886575
 30
0.0
 10
695.1969949598
 20
97.8999163618
 30
0.0
 10
695.3402607647
 20
97.7049647882
 30
0.0
  0
SPLINE
  5
26E
100
AcDbEntity
  8
PART
100
AcDbSpline
 62
7
  6
CONTINUOUS
 70
0
 71
3
 72
8
 73
4
 74
0
 42
0.0000001
 43
0.0000001
 44
0.0000000001
 40
0.0
 40
0.0
 40
0.0
 40
0.0
 40
1.0
 40
1.0
 40
1.0
 40
1.0
 10
695.3402607647
 20
97.7049647882
 30
0.0
 10
695.6012188303
 20
97.3498613109
 30
0.0
 10
695.8369368117
 20
96.9767049336
 30
0.0
 10
696.073594097
 20
96.6049645391
 30
0.0
  0
LINE
  5
26F
100
AcDbEntity
  8
PART
100
AcDbLine
 62
7
  6
CONTINUOUS
 10
714.0236041029
 20
78.6551942738
 11
713.8569374577
 21
78.8212665493
  0
SPLINE
  5
270
100
AcDbEntity
  8
PART
100
AcDbSpline
 62
7
  6
CONTINUOUS
 70
0
 71
3
 72
9
 73
5
 74
0
 42
0.0000001
 43
0.0000001
 44
0.0000000001
 40
0.0
 40
0.0
 40
0.0
 40
0.0
 40
0.3260146388
 40
1.0
 40
1.0
 40
1.0
 40
1.0
 10
712.9477855102
 20
79.7305940308
 30
0.0
 10
712.9209741437
 20
79.7575371312
 30
0.0
 10
712.8390476085
 20
79.8404921127
 30
0.0
 10
712.7551679533
 20
79.9215069022
 30
0.0
 10
712.700306981
 20
79.977766593
 30
0.0
  0
SPLINE
  5
271
100
AcDbEntity
  8
PART
100
AcDbSpline
 62
7
  6
CONTINUOUS
 70
0
 71
3
 72
9
 73
5
 74
0
 42
0.0000001
 43
0.0000001
 44
0.0000000001
 40
0.0
 40
0.0
 40
0.0
 40
0.0
 40
0.7570463953
 40
1.0
 40
1.0
 40
1.0
 40
1.0
 10
712.700306981
 20
79.977766593
 30
0.0
 10
712.6935884913
 20
79.9846563753
 30
0.0
 10
712.6888288081
 20
79.9862588472
 30
0.0
 10
712.673594097
 20
80.0080528657
 30
0.0
 10
712.673594097
 20
80.004964539
 30
0.0
  0
LINE
  5
272
100
AcDbEntity
  8
PART
100
AcDbLine
 62
7
  6
CONTINUOUS
 10
711.6690531285
 20
81.0090725702
 11
711.7749952921
 21
80.9031144281
  0
SPLINE
  5
273
100
AcDbEntity
  8
PART
100
AcDbSpline
 62
7
  6
CONTINUOUS
 70
0
 71
3
 72
9
 73
5
 74
0
 42
0.0000001
 43
0.0000001
 44
0.0000000001
 40
0.0
 40
0.0
 40
0.0
 40
0.0
 40
0.2842490984
 40
1.0
 40
1.0
 40
1.0
 40
1.0
 10
711.7749952921
 20
80.9031144281
 30
0.0
 10
711.8503083693
 20
80.8278474861
 30
0.0
 10
712.1155048443
 20
80.5632978562
 30
0.0
 10
712.3795228989
 20
80.2975661057
 30
0.0
 10
712.5697984103
 20
80.1086774643
 30
0.0
  0
SPLINE
  5
274
100
AcDbEntity
  8
PART
100
AcDbSpline
 62
7
  6
CONTINUOUS
 70
0
 71
3
 72
9
 73
5
 74
0
 42
0.0000001
 43
0.0000001
 44
0.0000000001
 40
0.0
 40
0.0
 40
0.0
 40
0.0
 40
0.2805554556
 40
1.0
 40
1.0
 40
1.0
 40
1.0
 10
696.073594097
 20
1058.004964539
 30
0.0
 10
695.9526746858
 20
1057.8150247719
 30
0.0
 10
695.5198758997
 20
1057.14383829
 30
0.0
 10
695.0615483199
 20
1056.4556728919
 30
0.0
 10
694.6069274293
 20
1056.0997087945
 30
0.0
  0
SPLINE
  5
275
100
AcDbEntity
  8
PART
100
AcDbSpline
 62
7
  6
CONTINUOUS
 70
0
 71
3
 72
9
 73
5
 74
0
 42
0.0000001
 43
0.0000001
 44
0.0000000001
 40
0.0
 40
0.0
 40
0.0
 40
0.0
 40
0.2280618275
 40
1.0
 40
1.0
 40
1.0
 40
1.0
 10
136.0242283869
 20
1056.1971290016
 30
0.0
 10
135.9709675693
 20
1056.2447964766
 30
0.0
 10
135.7461144221
 20
1056.4635404205
 30
0.0
 10
135.5501932342
 20
1056.7100127163
 30
0.0
 10
135.4069274293
 20
1056.9049642898
 30
0.0
  0
SPLINE
  5
276
100
AcDbEntity
  8
PART
100
AcDbSpline
 62
7
  6
CONTINUOUS
 70
0
 71
3
 72
8
 73
4
 74
0
 42
0.0000001
 43
0.0000001
 44
0.0000000001
 40
0.0
 40
0.0
 40
0.0
 40
0.0
 40
1.0
 40
1.0
 40
1.0
 40
1.0
 10
135.4069274293
 20
1056.9049642898
 30
0.0
 10
135.1459693637
 20
1057.2600677672
 30
0.0
 10
134.9102513823
 20
1057.6332241445
 30
0.0
 10
134.673594097
 20
1058.004964539
 30
0.0
  0
SPLINE
  5
277
100
AcDbEntity
  8
PART
100
AcDbSpline
 62
7
  6
CONTINUOUS
 70
0
 71
3
 72
8
 73
4
 74
0
 42
0.0000001
 43
0.0000001
 44
0.0000000001
 40
0.0
 40
0.0
 40
0.0
 40
0.0
 40
1.0
 40
1.0
 40
1.0
 40
1.0
 10
712.2778704902
 20
1074.2091607651
 30
0.0
 10
712.1162033614
 20
1074.0476761543
 30
0.0
 10
711.9556902945
 20
1073.88503711
 30
0.0
 10
711.793721371
 20
1073.7238552006
 30
0.0
  0
SPLINE
  5
278
100
AcDbEntity
  8
PART
100
AcDbSpline
 62
7
  6
CONTINUOUS
 70
0
 71
3
 72
11
 73
7
 74
0
 42
0.0000001
 43
0.0000001
 44
0.0000000001
 40
0.0
 40
0.0
 40
0.0
 40
0.0
 40
0.1005288522
 40
0.3452259056
 40
0.658361751
 40
1.0
 40
1.0
 40
1.0
 40
1.0
 10
712.673594097
 20
80.004964539
 30
0.0
 10
712.673594097
 20
79.9632359075
 30
0.0
 10
712.508864874
 20
80.218957197
 30
0.0
 10
712.365667035
 20
80.2905868518
 30
0.0
 10
712.080246596
 20
80.6066564654
 30
0.0
 10
711.8941910022
 20
80.7860927216
 30
0.0
 10
711.7936714257
 20
80.8861235826
 30
0.0
  0
SPLINE
  5
279
100
AcDbEntity
  8
PART
100
AcDbSpline
 62
7
  6
CONTINUOUS
 70
0
 71
3
 72
9
 73
5
 74
0
 42
0.0000001
 43
0.0000001
 44
0.0000000001
 40
0.0
 40
0.0
 40
0.0
 40
0.0
 40
0.2805554556
 40
1.0
 40
1.0
 40
1.0
 40
1.0
 10
696.073594097
 20
96.604964539
 30
0.0
 10
695.8836543299
 20
96.7258839502
 30
0.0
 10
695.2124678481
 20
97.1586827363
 30
0.0
 10
694.5243024499
 20
97.617010316
 30
0.0
 10
694.1683383525
 20
98.0716312067
 30
0.0
  0
SPLINE
  5
27A
100
AcDbEntity
  8
PART
100
AcDbSpline
 62
7
  6
CONTINUOUS
 70
0
 71
3
 72
9
 73
5
 74
0
 42
0.0000001
 43
0.0000001
 44
0.0000000001
 40
0.0
 40
0.0
 40
0.0
 40
0.0
 40
0.2280618275
 40
1.0
 40
1.0
 40
1.0
 40
1.0
 10
694.2657585597
 20
1056.6543302491
 30
0.0
 10
694.3134260346
 20
1056.7075910666
 30
0.0
 10
694.5321699785
 20
1056.9324442139
 30
0.0
 10
694.7786422743
 20
1057.1283654017
 30
0.0
 10
694.9735938479
 20
1057.2716312067
 30
0.0
  0
SPLINE
  5
27B
100
AcDbEntity
  8
PART
100
AcDbSpline
 62
7
  6
CONTINUOUS
 70
0
 71
3
 72
8
 73
4
 74
0
 42
0.0000001
 43
0.0000001
 44
0.0000000001
 40
0.0
 40
0.0
 40
0.0
 40
0.0
 40
1.0
 40
1.0
 40
1.0
 40
1.0
 10
694.9735938479
 20
1057.2716312067
 30
0.0
 10
695.3286973252
 20
1057.5325892722
 30
0.0
 10
695.7018537025
 20
1057.7683072537
 30
0.0
 10
696.073594097
 20
1058.004964539
 30
0.0
  0
SPLINE
  5
27C
100
AcDbEntity
  8
PART
100
AcDbSpline
 62
7
  6
CONTINUOUS
 70
0
 71
3
 72
11
 73
7
 74
0
 42
0.0000001
 43
0.0000001
 44
0.0000000001
 40
0.0
 40
0.0
 40
0.0
 40
0.0
 40
0.0797505815
 40
0.2990093223
 40
0.6173918845
 40
1.0
 40
1.0
 40
1.0
 40
1.0
 10
712.6695157387
 20
1074.6008861807
 30
0.0
 10
712.688466464
 20
1074.6008861807
 30
0.0
 10
712.7260170322
 20
1074.6819874059
 30
0.0
 10
712.8411092056
 20
1074.7584095251
 30
0.0
 10
712.989868305
 20
1074.9268032699
 30
0.0
 10
713.1092230888
 20
1075.0407592864
 30
0.0
 10
713.173594097
 20
1075.104964539
 30
0.0
  0
LINE
  5
27D
100
AcDbEntity
  8
PART
100
AcDbLine
 62
7
  6
CONTINUOUS
 10
711.780854579
 20
1073.712667656
 11
711.6690503788
 21
1073.6008592133
  0
SPLINE
  5
27E
100
AcDbEntity
  8
PART
100
AcDbSpline
 62
7
  6
CONTINUOUS
 70
0
 71
3
 72
8
 73
4
 74
0
 42
0.0000001
 43
0.0000001
 44
0.0000000001
 40
0.0
 40
0.0
 40
0.0
 40
0.0
 40
1.0
 40
1.0
 40
1.0
 40
1.0
 10
118.4734762292
 20
1074.2051625739
 30
0.0
 10
118.6349608399
 20
1074.043495445
 30
0.0
 10
118.7975998843
 20
1073.8829823781
 30
0.0
 10
118.9587817937
 20
1073.7210134547
 30
0.0
  0
SPLINE
  5
27F
100
AcDbEntity
  8
PART
100
AcDbSpline
 62
7
  6
CONTINUOUS
 70
0
 71
3
 72
11
 73
7
 74
0
 42
0.0000001
 43
0.0000001
 44
0.0000000001
 40
0.0
 40
0.0
 40
0.0
 40
0.0
 40
0.0796426319
 40
0.2987400661
 40
0.6171281674
 40
1.0
 40
1.0
 40
1.0
 40
1.0
 10
118.073594097
 20
1074.604964539
 30
0.0
 10
118.073594097
 20
1074.6237364952
 30
0.0
 10
117.9932233645
 20
1074.660949835
 30
0.0
 10
117.9174554876
 20
1074.7750652699
 30
0.0
 10
117.7503970968
 20
1074.9226333173
 30
0.0
 10
117.6373243515
 20
1075.0410709002
 30
0.0
 10
117.573594097
 20
1075.104964539
 30
0.0
  0
SPLINE
  5
280
100
AcDbEntity
  8
PART
100
AcDbSpline
 62
7
  6
CONTINUOUS
 70
0
 71
3
 72
8
 73
4
 74
0
 42
0.0000001
 43
0.0000001
 44
0.0000000001
 40
0.0
 40
0.0
 40
0.0
 40
0.0
 40
1.0
 40
1.0
 40
1.0
 40
1.0
 10
118.4693177037
 20
80.4007683128
 30
0.0
 10
118.6309848326
 20
80.5622529236
 30
0.0
 10
118.7914978995
 20
80.7248919679
 30
0.0
 10
118.9534668229
 20
80.8860738773
 30
0.0
  0
LINE
  5
281
100
AcDbEntity
  8
PART
100
AcDbLine
 62
7
  6
CONTINUOUS
 10
118.9618126217
 20
1073.7163033792
 11
119.0736210643
 21
1073.604499179
  0
SPLINE
  5
282
100
AcDbEntity
  8
PART
100
AcDbSpline
 62
7
  6
CONTINUOUS
 70
0
 71
3
 72
8
 73
4
 74
0
 42
0.0000001
 43
0.0000001
 44
0.0000000001
 40
0.0
 40
0.0
 40
0.0
 40
0.0
 40
1.0
 40
1.0
 40
1.0
 40
1.0
 10
121.5117037792
 20
83.4430742211
 30
0.0
 10
121.7429559845
 20
83.6720178213
 30
0.0
 10
121.9718916962
 20
83.9032898326
 30
0.0
 10
122.2016444347
 20
84.1337381646
 30
0.0
  0
SPLINE
  5
283
100
AcDbEntity
  8
PART
100
AcDbSpline
 62
7
  6
CONTINUOUS
 70
0
 71
3
 72
8
 73
4
 74
0
 42
0.0000001
 43
0.0000001
 44
0.0000000001
 40
0.0
 40
0.0
 40
0.0
 40
0.0
 40
1.0
 40
1.0
 40
1.0
 40
1.0
 10
708.1756263318
 20
84.5029323042
 30
0.0
 10
708.4340096855
 20
84.2468003706
 30
0.0
 10
708.6899974536
 20
83.9882629353
 30
0.0
 10
708.9469789709
 20
83.7307245409
 30
0.0
  0
SPLINE
  5
284
100
AcDbEntity
  8
PART
100
AcDbSpline
 62
7
  6
CONTINUOUS
 70
0
 71
3
 72
8
 73
4
 74
0
 42
0.0000001
 43
0.0000001
 44
0.0000000001
 40
0.0
 40
0.0
 40
0.0
 40
0.0
 40
1.0
 40
1.0
 40
1.0
 40
1.0
 10
122.5715618622
 20
1070.1069967738
 30
0.0
 10
122.3131806374
 20
1070.363126721
 30
0.0
 10
122.0571938839
 20
1070.6216610567
 30
0.0
 10
121.8002154475
 20
1070.879198414
 30
0.0
  0
SPLINE
  5
285
100
AcDbEntity
  8
PART
100
AcDbSpline
 62
7
  6
CONTINUOUS
 70
0
 71
3
 72
8
 73
4
 74
0
 42
0.0000001
 43
0.0000001
 44
0.0000000001
 40
0.0
 40
0.0
 40
0.0
 40
0.0
 40
1.0
 40
1.0
 40
1.0
 40
1.0
 10
709.2354844148
 20
1071.1668548568
 30
0.0
 10
709.0042322095
 20
1070.9379112566
 30
0.0
 10
708.7752964977
 20
1070.7066392454
 30
0.0
 10
708.5455437593
 20
1070.4761909134
 30
0.0
  0
SPLINE
  5
286
100
AcDbEntity
  8
PART
100
AcDbSpline
 62
7
  6
CONTINUOUS
 70
0
 71
3
 72
8
 73
4
 74
0
 42
0.0000001
 43
0.0000001
 44
0.0000000001
 40
0.0
 40
0.0
 40
0.0
 40
0.0
 40
1.0
 40
1.0
 40
1.0
 40
1.0
 10
708.1797046901
 20
1070.1110751321
 30
0.0
 10
708.4358346373
 20
1070.3694563569
 30
0.0
 10
708.6943689731
 20
1070.6254431104
 30
0.0
 10
708.9519063304
 20
1070.8824215468
 30
0.0
  0
SPLINE
  5
287
100
AcDbEntity
  8
PART
100
AcDbSpline
 62
7
  6
CONTINUOUS
 70
0
 71
3
 72
8
 73
4
 74
0
 42
0.0000001
 43
0.0000001
 44
0.0000000001
 40
0.0
 40
0.0
 40
0.0
 40
0.0
 40
1.0
 40
1.0
 40
1.0
 40
1.0
 10
709.2395627731
 20
83.4389958629
 30
0.0
 10
709.01116476
 20
83.6697020696
 30
0.0
 10
708.7804433529
 20
83.8980968329
 30
0.0
 10
708.5505387575
 20
84.1273017265
 30
0.0
  0
SPLINE
  5
288
100
AcDbEntity
  8
PART
100
AcDbSpline
 62
7
  6
CONTINUOUS
 70
0
 71
3
 72
8
 73
4
 74
0
 42
0.0000001
 43
0.0000001
 44
0.0000000001
 40
0.0
 40
0.0
 40
0.0
 40
0.0
 40
1.0
 40
1.0
 40
1.0
 40
1.0
 10
121.5076254209
 20
1071.1709332151
 30
0.0
 10
121.7365690211
 20
1070.9396810097
 30
0.0
 10
121.9678410323
 20
1070.7107452979
 30
0.0
 10
122.1982893644
 20
1070.4809925595
 30
0.0
  0
SPLINE
  5
289
100
AcDbEntity
  8
PART
100
AcDbSpline
 62
7
  6
CONTINUOUS
 70
0
 71
3
 72
8
 73
4
 74
0
 42
0.0000001
 43
0.0000001
 44
0.0000000001
 40
0.0
 40
0.0
 40
0.0
 40
0.0
 40
1.0
 40
1.0
 40
1.0
 40
1.0
 10
122.5674835039
 20
84.4988539459
 30
0.0
 10
122.3129395171
 20
84.2420726215
 30
0.0
 10
122.0560225988
 20
83.9876543389
 30
0.0
 10
121.8000660203
 20
83.7322810441
 30
0.0
  0
ENDSEC
  0
SECTION
  2
OBJECTS
  0
DICTIONARY
  5
C
100
AcDbDictionary
280
0
281
1
  3
ACAD_GROUP
350
D
  3
ACAD_MLINESTYLE
350
17
  3
ACAD_LAYOUT
350
1A
  3
ACAD_PLOTSETTINGS
350
19
  3
ACAD_PLOTSTYLENAME
350
E
  0
DICTIONARY
  5
D
102
{ACAD_REACTORS
330
C
102
}
100
AcDbDictionary
280
0
281
1
  0
ACDBDICTIONARYWDFLT
  5
E
102
{ACAD_REACTORS
330
C
102
}
100
AcDbDictionary
281
1
  3
Normal
350
F
100
AcDbDictionaryWithDefault
340
F
  0
DICTIONARY
  5
17
102
{ACAD_REACTORS
330
C
102
}
100
AcDbDictionary
280
0
281
1
  3
Standard
350
18
  0
DICTIONARY
  5
19
102
{ACAD_REACTORS
330
C
102
}
100
AcDbDictionary
281
1
  0
DICTIONARY
  5
1A
102
{ACAD_REACTORS
330
C
102
}
100
AcDbDictionary
281
1
  3
Model
350
28A
  3
Layout1
350
28B
  0
ACDBPLACEHOLDER
  5
F
102
{ACAD_REACTORS
330
E
102
}
  0
MLINESTYLE
  5
18
102
{ACAD_REACTORS
330
17
102
}
100
AcDbMlineStyle
  2
STANDARD
 70
0
  3

 62
256
 51
90.0
 52
90.0
 71
2
 49
0.5
 62
256
  6
BYLAYER
 49
-0.5
 62
256
  6
BYLAYER
  0
LAYOUT
  5
28A
102
{ACAD_REACTORS
330
1A
102
}
100
AcDbPlotSettings
  1

  2
none_device
  4

  6

 40
0.0
 41
0.0
 42
0.0
 43
0.0
 44
210.0
 45
297.0
 46
0.0
 47
0.0
 48
0.0
 49
0.0
140
0.0
141
0.0
142
1.0
143
1.0
 70
1024
 72
1
 73
0
 74
0
  7

 75
0
147
1.0
148
0.0
149
0.0
100
AcDbLayout
  1
Model
 70
0
 71
0
 10
0.0
 20
0.0
 11
210.0
 21
297.0
 12
0.0
 22
0.0
 32
0.0
 14
0.0
 24
0.0
 34
0.0
 15
0.0
 25
0.0
 35
0.0
146
0.0
 13
0.0
 23
0.0
 33
0.0
 16
1.0
 26
0.0
 36
0.0
 17
0.0
 27
1.0
 37
0.0
 76
0
330
211
345
0
346
0
  0
LAYOUT
  5
28B
102
{ACAD_REACTORS
330
1A
102
}
100
AcDbPlotSettings
  1

  2
none_device
  4

  6

 40
0.0
 41
0.0
 42
0.0
 43
0.0
 44
210.0
 45
297.0
 46
0.0
 47
0.0
 48
0.0
 49
0.0
140
0.0
141
0.0
142
1.0
143
1.0
 70
0
 72
1
 73
0
 74
0
  7

 75
0
147
1.0
148
0.0
149
0.0
100
AcDbLayout
  1
Layout1
 70
0
 71
1
 10
0.0
 20
0.0
 11
210.0
 21
297.0
 12
0.0
 22
0.0
 32
0.0
 14
0.0
 24
0.0
 34
0.0
 15
0.0
 25
0.0
 35
0.0
146
0.0
 13
0.0
 23
0.0
 33
0.0
 16
1.0
 26
0.0
 36
0.0
 17
0.0
 27
1.0
 37
0.0
 76
0
330
212
345
0
346
0
  0
ENDSEC
  0
EOF
