999
DXF file: C:\Vinayak\New 2D genarating\updateCreo8 with 3dPdf\CAD\NSYCRN106300_3D-CAD\drw0001_1.dxf
999
Pro/ENGINEER 2021284 by Parametric Technology Corporation
  0
SECTION
  2
HEADER
  9
$ACADVER
  1
AC1024
  9
$DWGCODEPAGE
  3
ANSI_1252
  9
$EXTMAX
 10
977.9086261011
 20
1383.0421997716
 30
0.0
  9
$EXTMIN
 10
0.0
 20
0.0
 30
0.0
  9
$LIMMIN
 10
0.0
 20
0.0
  9
$LIMMAX
 10
977.9086261011
 20
1383.0421997716
  9
$VIEWCTR
 10
488.9543130506
 20
691.5210998858
  9
$VIEWSIZE
 40
1383.0421997716
  9
$CLAYER
  8
0
  9
$LTSCALE
 40
90.153861911
  9
$CELTYPE
  6
BYLAYER
  9
$DIMSCALE
 40
1.0
  9
$DIMASZ
 40
11.6417693583
  9
$DIMEXO
 40
1.0
  9
$DIMDLI
 40
62.2881227749
  9
$DIMEXE
 40
1.0
  9
$DIMCEN
 40
14.7524501309
  9
$DIMLFAC
 40
1.0
  9
$DIMBLK
  1
_FILLED
  9
$DIMALT
 70
0
  9
$DIMALTF
 40
0.0393700787
  9
$DIMTXT
 40
16.2984771017
  9
$DIMTOL
 70
1
  9
$DIMLIM
 70
0
  9
$DIMTFAC
 40
1.0
  9
$DIMTP
 40
0.01
  9
$DIMTM
 40
0.01
  9
$DIMGAP
 40
0.625
  9
$DIMDSEP
 70
46
  9
$AUNITS
 70
0
  9
$PDMODE
 70
3
  9
$PDSIZE
 40
0.3125
  9
$HANDSEED
  5
407
  9
$TILEMODE
 70
1
  9
$MEASUREMENT
 70
1
  9
$INSUNITS
 70
4
  0
ENDSEC
  0
SECTION
  2
CLASSES
  0
CLASS
  1
ACDBDICTIONARYWDFLT
  2
AcDbDictionaryWithDefault
  3
AutoCAD 2000
 90
0
 91
1
280
0
281
0
  0
CLASS
  1
ACDBPLACEHOLDER
  2
AcDbPlaceHolder
  3
AutoCAD 2000
 90
0
 91
1
280
0
281
0
  0
CLASS
  1
LAYOUT
  2
AcDbLayout
  3
AutoCAD 2000
 90
0
 91
0
280
0
281
0
  0
ENDSEC
  0
SECTION
  2
TABLES
  0
TABLE
  2
VPORT
  5
8
100
AcDbSymbolTable
 70
2
  0
VPORT
  5
1F4
100
AcDbSymbolTableRecord
100
AcDbViewportTableRecord
  2
*ACTIVE
 70
0
 10
0.0
 20
0.0
 11
1.0
 21
1.0
 12
488.9543130506
 22
691.5210998858
 13
0.0
 23
0.0
 14
1.0
 24
1.0
 15
0.0
 25
0.0
 16
0.0
 26
0.0
 36
1.0
 17
0.0
 27
0.0
 37
0.0
 40
1383.0421997716
 41
0.7070707071
 42
50.0
 43
0.0
 44
0.0
 50
0.0
 51
0.0
 71
0
 72
100
 73
1
 74
1
 75
0
 76
0
 77
0
 78
0
  0
ENDTAB
  0
TABLE
  2
LTYPE
  5
5
100
AcDbSymbolTable
 70
6
  0
LTYPE
  5
14
100
AcDbSymbolTableRecord
100
AcDbLinetypeTableRecord
  2
BYBLOCK
 70
0
  3

 72
65
 73
0
 40
0.0
  0
LTYPE
  5
15
100
AcDbSymbolTableRecord
100
AcDbLinetypeTableRecord
  2
BYLAYER
 70
0
  3

 72
65
 73
0
 40
0.0
  0
LTYPE
  5
16
100
AcDbSymbolTableRecord
100
AcDbLinetypeTableRecord
  2
CONTINUOUS
 70
64
  3
Solid line
 72
65
 73
0
 40
0.0
  0
LTYPE
  5
1F5
100
AcDbSymbolTableRecord
100
AcDbLinetypeTableRecord
  2
CENTER
 70
64
  3
____ _ ____ _ ____ _ ____ _ ____ _ ____ _ ____
 72
65
 73
4
 40
0.6
 49
0.375
 74
0
 49
-0.075
 74
0
 49
0.075
 74
0
 49
-0.075
 74
0
  0
LTYPE
  5
1F6
100
AcDbSymbolTableRecord
100
AcDbLinetypeTableRecord
  2
HIDDEN
 70
64
  3
- - - - - - - - - - - - - - - - - - - -
 72
65
 73
2
 40
0.2
 49
0.1
 74
0
 49
-0.1
 74
0
  0
LTYPE
  5
1F7
100
AcDbSymbolTableRecord
100
AcDbLinetypeTableRecord
  2
PHANTOM
 70
64
  3
_____ _ _ _____ _ _ _____ _ _ _____
 72
65
 73
6
 40
0.8
 49
0.45
 74
0
 49
-0.05
 74
0
 49
0.1
 74
0
 49
-0.05
 74
0
 49
0.1
 74
0
 49
-0.05
 74
0
  0
LTYPE
  5
1F8
100
AcDbSymbolTableRecord
100
AcDbLinetypeTableRecord
  2
DOT
 70
64
  3
. . . . . . . . . . . . . . . . . . . .
 72
65
 73
2
 40
0.2
 49
0.1
 74
0
 49
-0.1
 74
0
  0
LTYPE
  5
1F9
100
AcDbSymbolTableRecord
100
AcDbLinetypeTableRecord
  2
DASHED
 70
64
  3
- - - - - - - - - - - - - - - - - - - -
 72
65
 73
2
 40
0.2
 49
0.1
 74
0
 49
-0.1
 74
0
  0
ENDTAB
  0
TABLE
  2
LAYER
  5
2
100
AcDbSymbolTable
 70
36
  0
LAYER
  5
10
100
AcDbSymbolTableRecord
100
AcDbLayerTableRecord
  2
0
 70
0
 62
7
  6
CONTINUOUS
370
-3
390
F
  0
LAYER
  5
1FA
100
AcDbSymbolTableRecord
100
AcDbLayerTableRecord
  2
DEFAULT_1
 70
0
 62
7
  6
CENTER
370
-3
390
F
  0
LAYER
  5
1FB
100
AcDbSymbolTableRecord
100
AcDbLayerTableRecord
  2
DEFAULT_2
 70
0
 62
8
  6
HIDDEN
370
-3
390
F
  0
LAYER
  5
1FC
100
AcDbSymbolTableRecord
100
AcDbLayerTableRecord
  2
DEFAULT_3
 70
0
 62
7
  6
PHANTOM
370
-3
390
F
  0
LAYER
  5
1FD
100
AcDbSymbolTableRecord
100
AcDbLayerTableRecord
  2
00_COMPONENTS
 70
0
 62
7
  6
CONTINUOUS
370
-3
390
F
  0
LAYER
  5
1FE
100
AcDbSymbolTableRecord
100
AcDbLayerTableRecord
  2
01_1_DEFAULT_DATUMS
 70
0
 62
7
  6
CONTINUOUS
370
-3
390
F
  0
LAYER
  5
1FF
100
AcDbSymbolTableRecord
100
AcDbLayerTableRecord
  2
01_PLANES
 70
0
 62
7
  6
CONTINUOUS
370
-3
390
F
  0
LAYER
  5
200
100
AcDbSymbolTableRecord
100
AcDbLayerTableRecord
  2
02_COORD_SYS
 70
0
 62
7
  6
CONTINUOUS
370
-3
390
F
  0
LAYER
  5
201
100
AcDbSymbolTableRecord
100
AcDbLayerTableRecord
  2
03_AXES
 70
0
 62
7
  6
CONTINUOUS
370
-3
390
F
  0
LAYER
  5
202
100
AcDbSymbolTableRecord
100
AcDbLayerTableRecord
  2
04_POINTS
 70
0
 62
7
  6
CONTINUOUS
370
-3
390
F
  0
LAYER
  5
203
100
AcDbSymbolTableRecord
100
AcDbLayerTableRecord
  2
05_CURVES
 70
0
 62
7
  6
CONTINUOUS
370
-3
390
F
  0
LAYER
  5
204
100
AcDbSymbolTableRecord
100
AcDbLayerTableRecord
  2
06_SURFS
 70
0
 62
7
  6
CONTINUOUS
370
-3
390
F
  0
LAYER
  5
205
100
AcDbSymbolTableRecord
100
AcDbLayerTableRecord
  2
07_COSMETICS
 70
0
 62
7
  6
CONTINUOUS
370
-3
390
F
  0
LAYER
  5
206
100
AcDbSymbolTableRecord
100
AcDbLayerTableRecord
  2
10_NOTES
 70
0
 62
7
  6
CONTINUOUS
370
-3
390
F
  0
LAYER
  5
207
100
AcDbSymbolTableRecord
100
AcDbLayerTableRecord
  2
11_NOTES_PUB
 70
0
 62
7
  6
CONTINUOUS
370
-3
390
F
  0
LAYER
  5
208
100
AcDbSymbolTableRecord
100
AcDbLayerTableRecord
  2
13_REF_GTOL
 70
0
 62
7
  6
CONTINUOUS
370
-3
390
F
  0
LAYER
  5
209
100
AcDbSymbolTableRecord
100
AcDbLayerTableRecord
  2
16_MISC
 70
0
 62
7
  6
CONTINUOUS
370
-3
390
F
  0
LAYER
  5
20A
100
AcDbSymbolTableRecord
100
AcDbLayerTableRecord
  2
17_NO_PRINT
 70
0
 62
7
  6
CONTINUOUS
370
-3
390
F
  0
LAYER
  5
20B
100
AcDbSymbolTableRecord
100
AcDbLayerTableRecord
  2
18_DATUM_CAMS_JOINTS
 70
0
 62
7
  6
CONTINUOUS
370
-3
390
F
  0
LAYER
  5
20C
100
AcDbSymbolTableRecord
100
AcDbLayerTableRecord
  2
19_DATUM_FUNCTIONAL
 70
0
 62
7
  6
CONTINUOUS
370
-3
390
F
  0
LAYER
  5
20D
100
AcDbSymbolTableRecord
100
AcDbLayerTableRecord
  2
20_DATUM_KINEMATIC_SCHEME
 70
0
 62
7
  6
CONTINUOUS
370
-3
390
F
  0
LAYER
  5
20E
100
AcDbSymbolTableRecord
100
AcDbLayerTableRecord
  2
PART
 70
0
 62
7
  6
CONTINUOUS
370
-3
390
F
  0
ENDTAB
  0
TABLE
  2
STYLE
  5
3
100
AcDbSymbolTable
 70
1
  0
STYLE
  5
11
100
AcDbSymbolTableRecord
100
AcDbTextStyleTableRecord
  2
STANDARD
 70
0
 40
0.0
 41
0.8
 50
0.0
 71
0
 42
0.2
  3
txt
  4

  0
STYLE
  5
20F
100
AcDbSymbolTableRecord
100
AcDbTextStyleTableRecord
  2
TEXTSTYLE_1
 70
0
 40
0.0
 41
0.8
 50
0.0
 71
0
 42
0.2
  3
gdt
  4

  0
ENDTAB
  0
TABLE
  2
VIEW
  5
6
100
AcDbSymbolTable
 70
0
  0
ENDTAB
  0
TABLE
  2
UCS
  5
7
100
AcDbSymbolTable
 70
0
  0
ENDTAB
  0
TABLE
  2
APPID
  5
9
100
AcDbSymbolTable
 70
1
  0
APPID
  5
210
100
AcDbSymbolTableRecord
100
AcDbRegAppTableRecord
  2
ACAD
 70
0
  0
ENDTAB
  0
TABLE
  2
BLOCK_RECORD
  5
1
100
AcDbSymbolTable
 70
0
  0
BLOCK_RECORD
  5
211
100
AcDbSymbolTableRecord
100
AcDbBlockTableRecord
  2
*Model_Space
  0
BLOCK_RECORD
  5
212
100
AcDbSymbolTableRecord
100
AcDbBlockTableRecord
  2
*Paper_Space
  0
BLOCK_RECORD
  5
213
100
AcDbSymbolTableRecord
100
AcDbBlockTableRecord
  2
_FILLED
  0
ENDTAB
  0
TABLE
  2
DIMSTYLE
  5
A
100
AcDbSymbolTable
 70
1
100
AcDbDimStyleTable
 71
0
  0
DIMSTYLE
105
214
100
AcDbSymbolTableRecord
100
AcDbDimStyleTableRecord
  2
STANDARD
 70
0
  3

  4

 40
1.0
 41
11.6417693583
 42
1.0
 43
0.38
 44
1.0
 45
0.0
 46
0.0
 47
0.01
 48
0.01
140
16.2984771017
141
0.09
142
0.0
143
25.4
144
1.0
145
0.0
146
1.0
147
0.625
 71
1
 72
0
 73
0
 74
0
 75
0
 76
0
 77
1
 78
8
 79
2
170
0
171
1
172
0
173
0
174
0
175
0
176
0
177
0
178
0
270
2
179
2
271
2
272
2
273
2
274
2
275
0
280
0
281
0
282
0
283
1
284
8
285
0
286
0
287
3
288
0
340
11
278
46
341
213
342
213
343
213
344
213
  0
ENDTAB
  0
ENDSEC
  0
SECTION
  2
BLOCKS
  0
BLOCK
  5
20
100
AcDbEntity
  8
0
100
AcDbBlockBegin
  2
*Model_Space
 70
0
 10
0.0
 20
0.0
 30
0.0
  3
*Model_Space
  1

  0
ENDBLK
  5
21
100
AcDbEntity
  8
0
100
AcDbBlockEnd
  0
BLOCK
  5
1C
100
AcDbEntity
  8
0
100
AcDbBlockBegin
  2
*Paper_Space
 70
0
 10
0.0
 20
0.0
 30
0.0
  3
*Paper_Space
  1

  0
ENDBLK
  5
1D
100
AcDbEntity
  8
0
100
AcDbBlockEnd
  0
BLOCK
  5
215
100
AcDbEntity
  8
0
100
AcDbBlockBegin
  2
_FILLED
 70
64
 10
0.0
 20
0.0
  3
_FILLED
  1

  0
SOLID
  5
216
100
AcDbEntity
  8
0
  6
BYBLOCK
 62
0
100
AcDbTrace
 10
0.0
 20
0.0
 11
-1.0
 21
0.25
 12
-1.0
 22
-0.25
 13
-1.0
 23
-0.25
  0
ENDBLK
  5
217
100
AcDbEntity
  8
0
  6
BYBLOCK
 62
0
100
AcDbBlockEnd
  0
ENDSEC
  0
SECTION
  2
ENTITIES
  0
LINE
  5
218
100
AcDbEntity
  8
PART
100
AcDbLine
 62
7
  6
CONTINUOUS
 10
588.0702295672
 20
121.4098675442
 11
586.9110731228
 21
121.2306529778
  0
LINE
  5
219
100
AcDbEntity
  8
PART
100
AcDbLine
 62
7
  6
CONTINUOUS
 10
587.4933320749
 20
121.9143058321
 11
588.6524885193
 21
122.0935203985
  0
LINE
  5
21A
100
AcDbEntity
  8
PART
100
AcDbLine
 62
7
  6
CONTINUOUS
 10
609.8373972029
 20
106.952280815
 11
608.737416229
 21
106.8433192598
  0
LINE
  5
21B
100
AcDbEntity
  8
PART
100
AcDbLine
 62
7
  6
CONTINUOUS
 10
610.9373920338
 20
106.84332726
 11
609.8373972029
 21
106.952280815
  0
LINE
  5
21C
100
AcDbEntity
  8
PART
100
AcDbLine
 62
7
  6
CONTINUOUS
 10
187.9364046925
 20
1166.9159685273
 11
383.0673624584
 21
1279.5742070417
  0
LINE
  5
21D
100
AcDbEntity
  8
PART
100
AcDbLine
 62
7
  6
CONTINUOUS
 10
384.1673575338
 20
1279.4652536278
 11
188.6828449054
 21
1166.6028913368
  0
LINE
  5
21E
100
AcDbEntity
  8
PART
100
AcDbLine
 62
7
  6
CONTINUOUS
 10
193.9438998165
 20
1137.3071212671
 11
200.0673303216
 21
1140.8424644145
  0
LINE
  5
21F
100
AcDbEntity
  8
PART
100
AcDbLine
 62
7
  6
CONTINUOUS
 10
585.170646876
 20
120.0832207128
 11
584.4358668938
 21
120.1490270164
  0
LINE
  5
220
100
AcDbEntity
  8
PART
100
AcDbLine
 62
7
  6
CONTINUOUS
 10
586.9110731228
 20
121.2306529777
 11
587.645853105
 21
121.1648466742
  0
LINE
  5
221
100
AcDbEntity
  8
PART
100
AcDbLine
 62
7
  6
CONTINUOUS
 10
188.0295273887
 20
1138.7108880131
 11
188.7643073709
 21
1139.6251400932
  0
LINE
  5
222
100
AcDbEntity
  8
PART
100
AcDbLine
 62
7
  6
CONTINUOUS
 10
189.6474746088
 20
1139.7876074012
 11
188.9126946266
 21
1138.8733553211
  0
LINE
  5
223
100
AcDbEntity
  8
PART
100
AcDbLine
 62
7
  6
CONTINUOUS
 10
187.1272035101
 20
1165.7047156791
 11
187.5828500745
 21
1166.7118448918
  0
LINE
  5
224
100
AcDbEntity
  8
PART
100
AcDbLine
 62
7
  6
CONTINUOUS
 10
185.8552294455
 20
1137.1080765054
 11
186.1656329656
 21
1137.7773077155
  0
LINE
  5
225
100
AcDbEntity
  8
PART
100
AcDbLine
 62
7
  6
CONTINUOUS
 10
188.3399309087
 20
1139.3801192232
 11
188.0295273887
 21
1138.7108880131
  0
LINE
  5
226
100
AcDbEntity
  8
PART
100
AcDbLine
 62
7
  6
CONTINUOUS
 10
584.4358668938
 20
120.1490270164
 11
188.9126946266
 21
348.4992710229
  0
LINE
  5
227
100
AcDbEntity
  8
PART
100
AcDbLine
 62
7
  6
CONTINUOUS
 10
187.2293029429
 20
350.1956365661
 11
188.6041115188
 21
349.4019084213
  0
LINE
  5
228
100
AcDbEntity
  8
PART
100
AcDbLine
 62
7
  6
CONTINUOUS
 10
585.5587008136
 20
120.2252541045
 11
608.3838548945
 21
107.0474433735
  0
LINE
  5
229
100
AcDbEntity
  8
PART
100
AcDbLine
 62
7
  6
CONTINUOUS
 10
187.1272164635
 20
350.9986423865
 11
188.3374882462
 21
350.2999074544
  0
LINE
  5
22A
100
AcDbEntity
  8
PART
100
AcDbLine
 62
7
  6
CONTINUOUS
 10
586.3237299606
 20
120.52764181
 11
608.281768761
 21
107.8504489942
  0
LINE
  5
22B
100
AcDbEntity
  8
PART
100
AcDbLine
 62
7
  6
CONTINUOUS
 10
586.1789199265
 20
124.8103390174
 11
190.763567257
 21
353.0983347584
  0
LINE
  5
22C
100
AcDbEntity
  8
PART
100
AcDbLine
 62
7
  6
CONTINUOUS
 10
192.8882817724
 20
354.3250474497
 11
586.1040400746
 21
127.3069593796
  0
LINE
  5
22D
100
AcDbEntity
  8
PART
100
AcDbLine
 62
7
  6
CONTINUOUS
 10
596.190192461
 20
128.7935572294
 11
594.070188758
 21
130.0175142484
  0
LINE
  5
22E
100
AcDbEntity
  8
PART
100
AcDbLine
 62
7
  6
CONTINUOUS
 10
586.1040400746
 20
135.596492097
 11
200.0673303216
 21
358.469848321
  0
LINE
  5
22F
100
AcDbEntity
  8
PART
100
AcDbLine
 62
7
  6
CONTINUOUS
 10
200.6748661804
 20
358.8631167641
 11
586.1040400746
 21
136.3405135967
  0
LINE
  5
230
100
AcDbEntity
  8
PART
100
AcDbLine
 62
7
  6
CONTINUOUS
 10
594.7489618184
 20
130.5742609222
 11
594.8522166864
 21
130.5019913181
  0
LINE
  5
231
100
AcDbEntity
  8
PART
100
AcDbLine
 62
7
  6
CONTINUOUS
 10
586.1040400746
 20
212.4177668046
 11
351.6630048586
 21
347.7692995349
  0
LINE
  5
232
100
AcDbEntity
  8
PART
100
AcDbLine
 62
7
  6
CONTINUOUS
 10
351.8130042344
 20
347.9276456039
 11
586.1040400746
 21
212.6627130944
  0
LINE
  5
233
100
AcDbEntity
  8
PART
100
AcDbLine
 62
7
  6
CONTINUOUS
 10
586.1040400746
 20
216.7964010036
 11
353.6029462758
 21
351.0279333722
  0
LINE
  5
234
100
AcDbEntity
  8
PART
100
AcDbLine
 62
7
  6
CONTINUOUS
 10
354.2529435692
 20
351.7140996723
 11
586.1040400746
 21
217.8578349264
  0
LINE
  5
235
100
AcDbEntity
  8
PART
100
AcDbLine
 62
7
  6
CONTINUOUS
 10
580.8522859516
 20
225.7549372721
 11
493.5242345427
 21
276.1726706593
  0
LINE
  5
236
100
AcDbEntity
  8
PART
100
AcDbLine
 62
7
  6
CONTINUOUS
 10
475.8464921212
 20
286.3786891141
 11
388.5184407117
 21
336.7964225017
  0
LINE
  5
237
100
AcDbEntity
  8
PART
100
AcDbLine
 62
7
  6
CONTINUOUS
 10
389.3684262897
 20
336.8806199055
 11
476.6964773453
 21
286.4628867222
  0
LINE
  5
238
100
AcDbEntity
  8
PART
100
AcDbLine
 62
7
  6
CONTINUOUS
 10
494.374220474
 20
276.2568678592
 11
581.7022715297
 21
225.8391346759
  0
LINE
  5
239
100
AcDbEntity
  8
PART
100
AcDbLine
 62
7
  6
CONTINUOUS
 10
478.8870382673
 20
286.746085071
 11
391.5589872117
 21
337.1638182543
  0
LINE
  5
23A
100
AcDbEntity
  8
PART
100
AcDbLine
 62
7
  6
CONTINUOUS
 10
496.564781396
 20
276.5400662079
 11
583.8928324517
 21
226.1223330247
  0
LINE
  5
23B
100
AcDbEntity
  8
PART
100
AcDbLine
 62
7
  6
CONTINUOUS
 10
392.7610637349
 20
339.2458874249
 11
480.0891144367
 21
288.8281544459
  0
LINE
  5
23C
100
AcDbEntity
  8
PART
100
AcDbLine
 62
7
  6
CONTINUOUS
 10
497.7668582725
 20
278.6221351747
 11
585.0949089749
 21
228.2044021954
  0
LINE
  5
23D
100
AcDbEntity
  8
PART
100
AcDbLine
 62
7
  6
CONTINUOUS
 10
586.1040400746
 20
229.2547562819
 11
364.1231080906
 21
357.4126077998
  0
LINE
  5
23E
100
AcDbEntity
  8
PART
100
AcDbLine
 62
7
  6
CONTINUOUS
 10
389.3684262897
 20
336.8806199055
 11
389.2541843201
 21
336.9594584296
  0
LINE
  5
23F
100
AcDbEntity
  8
PART
100
AcDbLine
 62
7
  6
CONTINUOUS
 10
594.8522166864
 20
130.5019913181
 11
594.978518352
 21
130.386733184
  0
LINE
  5
240
100
AcDbEntity
  8
PART
100
AcDbLine
 62
7
  6
CONTINUOUS
 10
185.8552294456
 20
353.7949266613
 11
185.8552294456
 21
1137.1080765054
  0
LINE
  5
241
100
AcDbEntity
  8
PART
100
AcDbLine
 62
7
  6
CONTINUOUS
 10
186.4828449054
 20
1164.8065860191
 11
186.4828449054
 21
1138.0425143187
  0
LINE
  5
242
100
AcDbEntity
  8
PART
100
AcDbLine
 62
7
  6
CONTINUOUS
 10
186.4828449054
 20
353.0761437104
 11
186.4828449054
 21
351.4885261522
  0
LINE
  5
243
100
AcDbEntity
  8
PART
100
AcDbLine
 62
7
  6
CONTINUOUS
 10
187.1272164635
 20
1163.9084488806
 11
187.1272164635
 21
1138.5538382569
  0
LINE
  5
244
100
AcDbEntity
  8
PART
100
AcDbLine
 62
7
  6
CONTINUOUS
 10
187.1272164635
 20
352.396273212
 11
187.1272164635
 21
350.9986423864
  0
LINE
  5
245
100
AcDbEntity
  8
PART
100
AcDbLine
 62
7
  6
CONTINUOUS
 10
190.763567257
 20
353.0983347583
 11
190.763567257
 21
1136.2869848833
  0
LINE
  5
246
100
AcDbEntity
  8
PART
100
AcDbLine
 62
7
  6
CONTINUOUS
 10
594.9785191277
 20
130.3867324176
 11
594.7759788987
 21
130.5898591477
  0
LINE
  5
247
100
AcDbEntity
  8
PART
100
AcDbLine
 62
7
  6
CONTINUOUS
 10
192.8882817724
 20
1134.973839143
 11
192.8882817724
 21
354.3250474496
  0
LINE
  5
248
100
AcDbEntity
  8
PART
100
AcDbLine
 62
7
  6
CONTINUOUS
 10
199.2187927635
 20
1140.5174136266
 11
199.2187927635
 21
1142.9653406454
  0
LINE
  5
249
100
AcDbEntity
  8
PART
100
AcDbLine
 62
7
  6
CONTINUOUS
 10
200.0673303216
 20
358.4698483209
 11
200.0673303216
 21
1130.8291072969
  0
LINE
  5
24A
100
AcDbEntity
  8
PART
100
AcDbLine
 62
7
  6
CONTINUOUS
 10
200.7116889263
 20
1130.4570950991
 11
200.7116889263
 21
358.8418576228
  0
LINE
  5
24B
100
AcDbEntity
  8
PART
100
AcDbLine
 62
7
  6
CONTINUOUS
 10
461.3174982867
 20
411.2005464703
 11
461.2167499389
 21
411.2468793142
  0
LINE
  5
24C
100
AcDbEntity
  8
PART
100
AcDbLine
 62
7
  6
CONTINUOUS
 10
461.3293119488
 20
411.2074105626
 11
461.2383104442
 21
411.2594747226
  0
LINE
  5
24D
100
AcDbEntity
  8
PART
100
AcDbLine
 62
7
  6
CONTINUOUS
 10
448.9755685563
 20
405.4221033638
 11
585.978106879
 21
326.3254403891
  0
LINE
  5
24E
100
AcDbEntity
  8
PART
100
AcDbLine
 62
7
  6
CONTINUOUS
 10
448.9755685563
 20
406.4019062644
 11
586.1040400746
 21
327.2325373702
  0
LINE
  5
24F
100
AcDbEntity
  8
PART
100
AcDbLine
 62
7
  6
CONTINUOUS
 10
586.1040400746
 20
328.8655003883
 11
585.4477340697
 21
329.2444102648
  0
LINE
  5
250
100
AcDbEntity
  8
PART
100
AcDbLine
 62
7
  6
CONTINUOUS
 10
567.7699902692
 20
339.4504295157
 11
480.4419395495
 21
389.868162505
  0
LINE
  5
251
100
AcDbEntity
  8
PART
100
AcDbLine
 62
7
  6
CONTINUOUS
 10
568.6199761832
 20
339.5346267255
 11
481.2919251275
 21
389.9523599088
  0
LINE
  5
252
100
AcDbEntity
  8
PART
100
AcDbLine
 62
7
  6
CONTINUOUS
 10
570.8105371052
 20
339.8178250743
 11
483.4824860495
 21
390.2355582576
  0
LINE
  5
253
100
AcDbEntity
  8
PART
100
AcDbLine
 62
7
  6
CONTINUOUS
 10
484.6845625728
 20
392.3176274282
 11
572.0126139644
 21
341.899894051
  0
LINE
  5
254
100
AcDbEntity
  8
PART
100
AcDbLine
 62
7
  6
CONTINUOUS
 10
586.1040400746
 20
338.6294587257
 11
458.8457330774
 21
412.100414392
  0
LINE
  5
255
100
AcDbEntity
  8
PART
100
AcDbLine
 62
7
  6
CONTINUOUS
 10
459.4957303711
 20
412.164795837
 11
586.1040400746
 21
339.0691077935
  0
LINE
  5
256
100
AcDbEntity
  8
PART
100
AcDbLine
 62
7
  6
CONTINUOUS
 10
461.435671788
 20
411.1462000268
 11
586.1040400746
 21
339.1705123447
  0
LINE
  5
257
100
AcDbEntity
  8
PART
100
AcDbLine
 62
7
  6
CONTINUOUS
 10
381.7084488049
 20
462.6464294937
 11
586.1040400746
 21
344.6412494869
  0
LINE
  5
258
100
AcDbEntity
  8
PART
100
AcDbLine
 62
7
  6
CONTINUOUS
 10
382.2856704508
 20
464.144807423
 11
586.1040400746
 21
346.4728789496
  0
LINE
  5
259
100
AcDbEntity
  8
PART
100
AcDbLine
 62
7
  6
CONTINUOUS
 10
586.1040400746
 20
348.9432265164
 11
384.5197553793
 21
465.3253346346
  0
LINE
  5
25A
100
AcDbEntity
  8
PART
100
AcDbLine
 62
7
  6
CONTINUOUS
 10
385.2619609082
 20
465.3911781146
 11
586.1040400746
 21
349.4375728643
  0
LINE
  5
25B
100
AcDbEntity
  8
PART
100
AcDbLine
 62
7
  6
CONTINUOUS
 10
391.4859635025
 20
468.9847104292
 11
586.1040400746
 21
356.6244534597
  0
LINE
  5
25C
100
AcDbEntity
  8
PART
100
AcDbLine
 62
7
  6
CONTINUOUS
 10
392.3344881071
 20
469.4746034138
 11
586.1040400746
 21
357.6042312706
  0
LINE
  5
25D
100
AcDbEntity
  8
PART
100
AcDbLine
 62
7
  6
CONTINUOUS
 10
608.2817687611
 20
107.8504489941
 11
596.190192461
 21
128.7935572293
  0
LWPOLYLINE
  5
25E
100
AcDbEntity
  8
PART
100
AcDbPolyline
 62
7
  6
CONTINUOUS
 90
3
 70
0
 10
199.9926908346
 20
1141.1194195969
 10
200.0293461323
 20
1140.952468595
 10
200.0391651797
 20
1140.8400053457
  0
LINE
  5
25F
100
AcDbEntity
  8
PART
100
AcDbLine
 62
7
  6
CONTINUOUS
 10
364.1229314526
 20
381.9071550516
 11
364.1229314526
 21
380.927352151
  0
LINE
  5
260
100
AcDbEntity
  8
PART
100
AcDbLine
 62
7
  6
CONTINUOUS
 10
609.8373972029
 20
923.4546979445
 11
805.3219098314
 21
1036.3170602355
  0
LINE
  5
261
100
AcDbEntity
  8
PART
100
AcDbLine
 62
7
  6
CONTINUOUS
 10
587.4337971939
 20
909.7032759302
 11
593.9274472285
 21
913.4523641467
  0
LINE
  5
262
100
AcDbEntity
  8
PART
100
AcDbLine
 62
7
  6
CONTINUOUS
 10
587.1726718458
 20
908.5727131395
 11
593.9274472285
 21
912.4725612461
  0
LINE
  5
263
100
AcDbEntity
  8
PART
100
AcDbLine
 62
7
  6
CONTINUOUS
 10
609.1302933657
 20
921.250148473
 11
596.190192461
 21
913.7789810577
  0
LINE
  5
264
100
AcDbEntity
  8
PART
100
AcDbLine
 62
7
  6
CONTINUOUS
 10
586.9110731228
 20
908.4217300456
 11
586.1789199265
 21
907.9989891424
  0
LINE
  5
265
100
AcDbEntity
  8
PART
100
AcDbLine
 62
7
  6
CONTINUOUS
 10
588.2823215326
 20
908.2335798914
 11
594.7759788987
 21
911.9826723407
  0
LINE
  5
266
100
AcDbEntity
  8
PART
100
AcDbLine
 62
7
  6
CONTINUOUS
 10
806.8775512267
 20
1033.6226252579
 11
611.3930385982
 21
920.7602629669
  0
LINE
  5
267
100
AcDbEntity
  8
PART
100
AcDbLine
 62
7
  6
CONTINUOUS
 10
608.737416229
 20
106.8433192598
 11
608.2817687611
 21
107.8504489941
  0
LINE
  5
268
100
AcDbEntity
  8
PART
100
AcDbLine
 62
7
  6
CONTINUOUS
 10
200.0673303216
 20
1140.8424644145
 11
199.9926905589
 21
1141.1194206516
  0
LINE
  5
269
100
AcDbEntity
  8
PART
100
AcDbLine
 62
7
  6
CONTINUOUS
 10
381.1053414912
 20
463.6847451563
 11
381.1053414912
 21
1026.3091273725
  0
LINE
  5
26A
100
AcDbEntity
  8
PART
100
AcDbLine
 62
7
  6
CONTINUOUS
 10
382.6915698537
 20
1025.3933387183
 11
382.6915698537
 21
463.4351129583
  0
LINE
  5
26B
100
AcDbEntity
  8
PART
100
AcDbLine
 62
7
  6
CONTINUOUS
 10
384.8309603321
 20
464.7796204957
 11
384.8309603321
 21
1024.1581889925
  0
LINE
  5
26C
100
AcDbEntity
  8
PART
100
AcDbLine
 62
7
  6
CONTINUOUS
 10
385.2590770614
 20
1023.9110212753
 11
385.2590770614
 21
465.3895130772
  0
LINE
  5
26D
100
AcDbEntity
  8
PART
100
AcDbLine
 62
7
  6
CONTINUOUS
 10
391.4859635025
 20
468.9847104291
 11
391.4859635025
 21
1020.3160080424
  0
LINE
  5
26E
100
AcDbEntity
  8
PART
100
AcDbLine
 62
7
  6
CONTINUOUS
 10
392.3344881071
 20
469.4746034137
 11
392.3344881071
 21
1019.8261232161
  0
LINE
  5
26F
100
AcDbEntity
  8
PART
100
AcDbLine
 62
7
  6
CONTINUOUS
 10
406.5491616855
 20
405.4220013833
 11
406.5491616855
 21
406.4018042839
  0
LINE
  5
270
100
AcDbEntity
  8
PART
100
AcDbLine
 62
7
  6
CONTINUOUS
 10
595.9876645527
 20
913.5758668007
 11
596.190192461
 21
913.7789810577
  0
LINE
  5
271
100
AcDbEntity
  8
PART
100
AcDbLine
 62
7
  6
CONTINUOUS
 10
448.9755685563
 20
406.4019062644
 11
448.9755685563
 21
405.4221033638
  0
LINE
  5
272
100
AcDbEntity
  8
PART
100
AcDbLine
 62
7
  6
CONTINUOUS
 10
584.4358668938
 20
910.5231113147
 11
585.170646876
 21
911.4373633948
  0
LINE
  5
273
100
AcDbEntity
  8
PART
100
AcDbLine
 62
7
  6
CONTINUOUS
 10
587.645853105
 20
909.3359821258
 11
586.9110731227
 21
908.4217300457
  0
LINE
  5
274
100
AcDbEntity
  8
PART
100
AcDbLine
 62
7
  6
CONTINUOUS
 10
187.1272164635
 20
1163.9084488806
 11
199.2187927635
 21
1142.9653406454
  0
LINE
  5
275
100
AcDbEntity
  8
PART
100
AcDbLine
 62
7
  6
CONTINUOUS
 10
586.9110731227
 20
121.2306529778
 11
586.1789199265
 21
124.8103390174
  0
LINE
  5
276
100
AcDbEntity
  8
PART
100
AcDbLine
 62
7
  6
CONTINUOUS
 10
587.645853105
 20
121.1648466742
 11
587.6034306788
 21
121.3722608707
  0
LINE
  5
277
100
AcDbEntity
  8
PART
100
AcDbLine
 62
7
  6
CONTINUOUS
 10
353.6029462758
 20
351.0279333722
 11
351.8130042344
 21
347.9276456039
  0
LINE
  5
278
100
AcDbEntity
  8
PART
100
AcDbLine
 62
7
  6
CONTINUOUS
 10
187.1272164635
 20
1163.9084488806
 11
186.4828449054
 21
1164.8065861552
  0
LINE
  5
279
100
AcDbEntity
  8
PART
100
AcDbLine
 62
7
  6
CONTINUOUS
 10
586.1040400746
 20
125.3632854446
 11
586.1040400746
 21
907.9989891424
  0
LINE
  5
27A
100
AcDbEntity
  8
PART
100
AcDbLine
 62
7
  6
CONTINUOUS
 10
586.1789199265
 20
907.9989891424
 11
586.1789199265
 21
124.8103390174
  0
LINE
  5
27B
100
AcDbEntity
  8
PART
100
AcDbLine
 62
7
  6
CONTINUOUS
 10
587.4933320749
 20
905.2274556761
 11
587.4933320749
 21
121.9143058321
  0
LINE
  5
27C
100
AcDbEntity
  8
PART
100
AcDbLine
 62
7
  6
CONTINUOUS
 10
588.6524885193
 20
905.4066702425
 11
588.6524885193
 21
122.0935203985
  0
LINE
  5
27D
100
AcDbEntity
  8
PART
100
AcDbLine
 62
7
  6
CONTINUOUS
 10
807.2729505331
 20
1034.175269521
 11
806.8775512267
 21
1033.6226252579
  0
LINE
  5
27E
100
AcDbEntity
  8
PART
100
AcDbLine
 62
7
  6
CONTINUOUS
 10
593.9274472285
 20
912.4725612461
 11
593.9274472285
 21
913.4523641467
  0
LINE
  5
27F
100
AcDbEntity
  8
PART
100
AcDbLine
 62
7
  6
CONTINUOUS
 10
594.7759788987
 20
130.5898591477
 11
594.7759788987
 21
911.9826723407
  0
LINE
  5
280
100
AcDbEntity
  8
PART
100
AcDbLine
 62
7
  6
CONTINUOUS
 10
596.190192461
 20
913.7789810577
 11
596.190192461
 21
128.7935572293
  0
LINE
  5
281
100
AcDbEntity
  8
PART
100
AcDbLine
 62
7
  6
CONTINUOUS
 10
608.2817687611
 20
107.8504489941
 11
608.2817687611
 21
920.7602554883
  0
LINE
  5
282
100
AcDbEntity
  8
PART
100
AcDbLine
 62
7
  6
CONTINUOUS
 10
609.8373972029
 20
107.4784634421
 11
609.8373972029
 21
106.952280815
  0
LINE
  5
283
100
AcDbEntity
  8
PART
100
AcDbLine
 62
7
  6
CONTINUOUS
 10
609.8373972029
 20
922.474895044
 11
609.8373972029
 21
923.4546979445
  0
LINE
  5
284
100
AcDbEntity
  8
PART
100
AcDbLine
 62
7
  6
CONTINUOUS
 10
611.3930385982
 20
920.7602629669
 11
611.3930385982
 21
107.8504564727
  0
LINE
  5
285
100
AcDbEntity
  8
PART
100
AcDbLine
 62
7
  6
CONTINUOUS
 10
188.0295273886
 20
1138.7108880131
 11
190.763567257
 21
1136.2869848833
  0
LINE
  5
286
100
AcDbEntity
  8
PART
100
AcDbLine
 62
7
  6
CONTINUOUS
 10
188.4559163383
 20
1139.2772906401
 11
188.3399309087
 21
1139.3801192232
  0
LINE
  5
287
100
AcDbEntity
  8
PART
100
AcDbLine
 62
7
  6
CONTINUOUS
 10
190.763567257
 20
353.0983347583
 11
187.1272164635
 21
350.9986423864
  0
LINE
  5
288
100
AcDbEntity
  8
PART
100
AcDbLine
 62
7
  6
CONTINUOUS
 10
192.8882817724
 20
354.3250474497
 11
200.0673303216
 21
358.469848321
  0
LINE
  5
289
100
AcDbEntity
  8
PART
100
AcDbLine
 62
7
  6
CONTINUOUS
 10
385.2590770614
 20
465.3895130772
 11
392.3344881071
 21
469.4746034138
  0
LINE
  5
28A
100
AcDbEntity
  8
PART
100
AcDbLine
 62
7
  6
CONTINUOUS
 10
381.4056833407
 20
463.1646838853
 11
200.7116889263
 21
358.8415802941
  0
LINE
  5
28B
100
AcDbEntity
  8
PART
100
AcDbLine
 62
7
  6
CONTINUOUS
 10
586.1789199265
 20
907.9989891425
 11
586.2317077506
 21
907.8820499791
  0
LINE
  5
28C
100
AcDbEntity
  8
PART
100
AcDbLine
 62
7
  6
CONTINUOUS
 10
351.662724468
 20
386.651388913
 11
394.0889547004
 21
411.1460381451
  0
LINE
  5
28D
100
AcDbEntity
  8
PART
100
AcDbLine
 62
7
  6
CONTINUOUS
 10
351.8127250923
 20
386.6365323774
 11
396.0289122711
 21
412.1646432816
  0
LINE
  5
28E
100
AcDbEntity
  8
PART
100
AcDbLine
 62
7
  6
CONTINUOUS
 10
396.678914977
 20
412.1002649613
 11
354.2526847446
 21
387.6056157292
  0
LINE
  5
28F
100
AcDbEntity
  8
PART
100
AcDbLine
 62
7
  6
CONTINUOUS
 10
364.1229314526
 20
381.9071550516
 11
406.5491616855
 21
406.4018042839
  0
LINE
  5
290
100
AcDbEntity
  8
PART
100
AcDbLine
 62
7
  6
CONTINUOUS
 10
364.1229314526
 20
380.927352151
 11
406.5491616855
 21
405.4220013833
  0
LINE
  5
291
100
AcDbEntity
  8
PART
100
AcDbLine
 62
7
  6
CONTINUOUS
 10
394.2863172104
 20
411.2593153873
 11
394.1953148177
 21
411.2072498583
  0
LINE
  5
292
100
AcDbEntity
  8
PART
100
AcDbLine
 62
7
  6
CONTINUOUS
 10
394.3078781922
 20
411.2467199082
 11
394.2071287053
 21
411.2003857488
  0
LINE
  5
293
100
AcDbEntity
  8
PART
100
AcDbLine
 62
7
  6
CONTINUOUS
 10
596.190192461
 20
913.7789810577
 11
595.9130567913
 21
913.7051460546
  0
LINE
  5
294
100
AcDbEntity
  8
PART
100
AcDbLine
 62
7
  6
CONTINUOUS
 10
588.6524885193
 20
905.4066702425
 11
587.4933320749
 21
905.2274556761
  0
LINE
  5
295
100
AcDbEntity
  8
PART
100
AcDbLine
 62
7
  6
CONTINUOUS
 10
586.9110731228
 20
908.4217300456
 11
588.0702295672
 21
908.6009446121
  0
LINE
  5
296
100
AcDbEntity
  8
PART
100
AcDbLine
 62
7
  6
CONTINUOUS
 10
586.1040454489
 20
908.1031627794
 11
586.1789199265
 21
907.9989891424
  0
LINE
  5
297
100
AcDbEntity
  8
PART
100
AcDbLine
 62
7
  6
CONTINUOUS
 10
586.1414781773
 20
907.9341366633
 11
191.2050127046
 21
1135.945653007
  0
LINE
  5
298
100
AcDbEntity
  8
PART
100
AcDbLine
 62
7
  6
CONTINUOUS
 10
190.7635672569
 20
1136.2869848833
 11
586.1789199265
 21
907.9989891424
  0
LINE
  5
299
100
AcDbEntity
  8
PART
100
AcDbLine
 62
7
  6
CONTINUOUS
 10
188.9126946266
 20
1138.8733553211
 11
584.4358668938
 21
910.5231113147
  0
LINE
  5
29A
100
AcDbEntity
  8
PART
100
AcDbLine
 62
7
  6
CONTINUOUS
 10
189.6474746088
 20
1139.7876074012
 11
585.170646876
 21
911.4373633948
  0
LINE
  5
29B
100
AcDbEntity
  8
PART
100
AcDbLine
 62
7
  6
CONTINUOUS
 10
594.7759788987
 20
911.9826723407
 11
593.9274472285
 21
912.4725612461
  0
LINE
  5
29C
100
AcDbEntity
  8
PART
100
AcDbLine
 62
7
  6
CONTINUOUS
 10
593.9274472285
 20
913.4523641467
 11
200.0673303216
 21
1140.8424644145
  0
LINE
  5
29D
100
AcDbEntity
  8
PART
100
AcDbLine
 62
7
  6
CONTINUOUS
 10
199.2187927635
 20
1142.9653406454
 11
596.190192461
 21
913.7789810577
  0
LINE
  5
29E
100
AcDbEntity
  8
PART
100
AcDbLine
 62
7
  6
CONTINUOUS
 10
608.281768761
 20
920.7602554883
 11
187.1272164635
 21
1163.9084488806
  0
LINE
  5
29F
100
AcDbEntity
  8
PART
100
AcDbLine
 62
7
  6
CONTINUOUS
 10
187.5828650969
 20
1165.4416452907
 11
187.1272035101
 21
1165.7047156791
  0
LINE
  5
2A0
100
AcDbEntity
  8
PART
100
AcDbLine
 62
7
  6
CONTINUOUS
 10
610.5445069281
 20
921.2501518723
 11
611.3930385982
 21
920.7602629669
  0
LINE
  5
2A1
100
AcDbEntity
  8
PART
100
AcDbLine
 62
7
  6
CONTINUOUS
 10
188.6828449054
 20
1166.6028913368
 11
609.8373972029
 21
923.4546979445
  0
LINE
  5
2A2
100
AcDbEntity
  8
PART
100
AcDbLine
 62
7
  6
CONTINUOUS
 10
806.8775512267
 20
220.7128187637
 11
806.8775512267
 21
1033.6226252579
  0
LINE
  5
2A3
100
AcDbEntity
  8
PART
100
AcDbLine
 62
7
  6
CONTINUOUS
 10
807.2729530978
 20
1034.1737502765
 11
807.2729530978
 21
221.2639437823
  0
LINE
  5
2A4
100
AcDbEntity
  8
PART
100
AcDbLine
 62
7
  6
CONTINUOUS
 10
805.3219098314
 20
1036.3170602356
 11
805.9994625077
 21
1036.3831280617
  0
LINE
  5
2A5
100
AcDbEntity
  8
PART
100
AcDbLine
 62
7
  6
CONTINUOUS
 10
611.3930385982
 20
107.8504564727
 11
610.9373920338
 21
106.84332726
  0
LINE
  5
2A6
100
AcDbEntity
  8
PART
100
AcDbLine
 62
7
  6
CONTINUOUS
 10
187.5828500745
 20
1166.7118448918
 11
188.6828449054
 21
1166.6028913368
  0
LINE
  5
2A7
100
AcDbEntity
  8
PART
100
AcDbLine
 62
7
  6
CONTINUOUS
 10
805.3219098314
 20
1036.3170602355
 11
384.1673575338
 21
1279.4652536278
  0
LINE
  5
2A8
100
AcDbEntity
  8
PART
100
AcDbLine
 62
7
  6
CONTINUOUS
 10
805.9979179509
 20
1036.384023876
 11
384.8433656534
 21
1279.5322172683
  0
LINE
  5
2A9
100
AcDbEntity
  8
PART
100
AcDbLine
 62
7
  6
CONTINUOUS
 10
588.6524885193
 20
127.0544814321
 11
594.7759788987
 21
130.5898591477
  0
LINE
  5
2AA
100
AcDbEntity
  8
PART
100
AcDbLine
 62
7
  6
CONTINUOUS
 10
611.3930385982
 20
107.8504564727
 11
806.8775512267
 21
220.7128187637
  0
LINE
  5
2AB
100
AcDbEntity
  8
PART
100
AcDbLine
 62
7
  6
CONTINUOUS
 10
611.2909532505
 20
107.0474547051
 11
806.4219049068
 21
219.7056896921
  0
LINE
  5
2AC
100
AcDbEntity
  8
PART
100
AcDbLine
 62
7
  6
CONTINUOUS
 10
384.1673575338
 20
1279.4652536278
 11
383.0673627029
 21
1279.5742071828
  0
LINE
  5
2AD
100
AcDbEntity
  8
PART
100
AcDbLine
 62
7
  6
CONTINUOUS
 10
384.8449102101
 20
1279.531321454
 11
384.1673575338
 21
1279.4652536279
  0
ARC
  5
2AE
100
AcDbEntity
  8
PART
100
AcDbCircle
 62
7
  6
CONTINUOUS
 10
211.7028840727
 20
356.7747659299
 40
24.2495849156
100
AcDbArc
 50
192.5154509581
 51
195.016598347
  0
ARC
  5
2AF
100
AcDbEntity
  8
PART
100
AcDbCircle
 62
7
  6
CONTINUOUS
 10
204.1659039827
 20
369.1309481171
 40
23.8858703437
100
AcDbArc
 50
222.4441869023
 51
227.5022237612
  0
ARC
  5
2B0
100
AcDbEntity
  8
PART
100
AcDbCircle
 62
7
  6
CONTINUOUS
 10
210.7732639266
 20
356.5218354271
 40
23.2861767952
100
AcDbArc
 50
195.008159768
 51
200.1525257838
  0
ARC
  5
2B1
100
AcDbEntity
  8
PART
100
AcDbCircle
 62
7
  6
CONTINUOUS
 10
203.5516965727
 20
368.5560884455
 40
23.0446706637
100
AcDbArc
 50
219.8325135728
 51
222.4200750063
  0
ARC
  5
2B2
100
AcDbEntity
  8
PART
100
AcDbCircle
 62
7
  6
CONTINUOUS
 10
200.6313959306
 20
362.0429756634
 40
3.617375985
100
AcDbArc
 50
261.0291317903
 51
262.129178318
  0
ARC
  5
2B3
100
AcDbEntity
  8
PART
100
AcDbCircle
 62
7
  6
CONTINUOUS
 10
200.5757792426
 20
361.6237127522
 40
3.1944474998
100
AcDbArc
 50
262.0875457755
 51
265.0189874284
  0
ARC
  5
2B4
100
AcDbEntity
  8
PART
100
AcDbCircle
 62
7
  6
CONTINUOUS
 10
437.7672065098
 20
370.0602649568
 40
47.4161341928
100
AcDbArc
 50
61.1460182825
 51
62.5925105633
  0
ARC
  5
2B5
100
AcDbEntity
  8
PART
100
AcDbCircle
 62
7
  6
CONTINUOUS
 10
417.7575146298
 20
370.0606099823
 40
47.4157423097
100
AcDbArc
 50
117.4078550633
 51
118.8541889166
  0
ARC
  5
2B6
100
AcDbEntity
  8
PART
100
AcDbCircle
 62
7
  6
CONTINUOUS
 10
438.6309801171
 20
371.6342012751
 40
45.6207593132
100
AcDbArc
 50
60.2940289286
 51
61.1422372871
  0
ARC
  5
2B7
100
AcDbEntity
  8
PART
100
AcDbCircle
 62
7
  6
CONTINUOUS
 10
416.8937278316
 20
371.6345530275
 40
45.6203551834
100
AcDbArc
 50
118.8579676669
 51
119.7063767492
  0
ARC
  5
2B8
100
AcDbEntity
  8
PART
100
AcDbCircle
 62
7
  6
CONTINUOUS
 10
439.1177815618
 20
372.4894947708
 40
44.6366338941
100
AcDbArc
 50
60.0006324745
 51
60.158150947
  0
ARC
  5
2B9
100
AcDbEntity
  8
PART
100
AcDbCircle
 62
7
  6
CONTINUOUS
 10
416.4068460335
 20
372.4899747361
 40
44.6360785893
100
AcDbArc
 50
119.8422591966
 51
119.9997806921
  0
ARC
  5
2BA
100
AcDbEntity
  8
PART
100
AcDbCircle
 62
7
  6
CONTINUOUS
 10
373.925889785
 20
348.3350837569
 40
44.2266098538
100
AcDbArc
 50
119.9997902211
 51
120.1682483944
  0
ARC
  5
2BB
100
AcDbEntity
  8
PART
100
AcDbCircle
 62
7
  6
CONTINUOUS
 10
374.5419285394
 20
351.4018732113
 40
41.8787372441
100
AcDbArc
 50
119.9998070754
 51
120.1434303449
  0
ARC
  5
2BC
100
AcDbEntity
  8
PART
100
AcDbCircle
 62
7
  6
CONTINUOUS
 10
374.6042867757
 20
352.3537727318
 40
40.7047925919
100
AcDbArc
 50
119.9987090513
 51
120.7222111345
  0
ARC
  5
2BD
100
AcDbEntity
  8
PART
100
AcDbCircle
 62
7
  6
CONTINUOUS
 10
374.3660853892
 20
352.7561081701
 40
40.2372317922
100
AcDbArc
 50
120.7233115041
 51
120.8731571774
  0
ARC
  5
2BE
100
AcDbEntity
  8
PART
100
AcDbCircle
 62
7
  6
CONTINUOUS
 10
373.6437971064
 20
352.9186740274
 40
40.1160432375
100
AcDbArc
 50
120.1220184829
 51
123.219308781
  0
ARC
  5
2BF
100
AcDbEntity
  8
PART
100
AcDbCircle
 62
7
  6
CONTINUOUS
 10
373.4917649357
 20
354.1915416492
 40
38.5565458764
100
AcDbArc
 50
120.8525657195
 51
123.8685778898
  0
ARC
  5
2C0
100
AcDbEntity
  8
PART
100
AcDbCircle
 62
7
  6
CONTINUOUS
 10
372.5519116536
 20
355.6161672184
 40
36.8498853841
100
AcDbArc
 50
123.8896494438
 51
124.0873015407
  0
ARC
  5
2C1
100
AcDbEntity
  8
PART
100
AcDbCircle
 62
7
  6
CONTINUOUS
 10
377.8137775927
 20
358.1884056657
 40
27.3864627226
100
AcDbArc
 50
119.994238015
 51
121.6118198232
  0
ARC
  5
2C2
100
AcDbEntity
  8
PART
100
AcDbCircle
 62
7
  6
CONTINUOUS
 10
365.3743764458
 20
369.664099106
 40
10.0381030274
100
AcDbArc
 50
182.8304799096
 51
185.3789667065
  0
ARC
  5
2C3
100
AcDbEntity
  8
PART
100
AcDbCircle
 62
7
  6
CONTINUOUS
 10
365.2989136735
 20
369.6602201834
 40
9.9625407746
100
AcDbArc
 50
180.001670466
 51
182.8296301497
  0
ARC
  5
2C4
100
AcDbEntity
  8
PART
100
AcDbCircle
 62
7
  6
CONTINUOUS
 10
389.8218531248
 20
339.0568074749
 40
2.6092573936
100
AcDbArc
 50
236.0164808581
 51
240.0308348958
  0
ARC
  5
2C5
100
AcDbEntity
  8
PART
100
AcDbCircle
 62
7
  6
CONTINUOUS
 10
494.8276455761
 20
278.4330532244
 40
2.6092546181
100
AcDbArc
 50
236.016487384
 51
240.0308347275
  0
ARC
  5
2C6
100
AcDbEntity
  8
PART
100
AcDbCircle
 62
7
  6
CONTINUOUS
 10
380.5436969356
 20
343.1242190325
 40
0.64271004
100
AcDbArc
 50
167.9478188783
 51
180.0197594521
  0
ARC
  5
2C7
100
AcDbEntity
  8
PART
100
AcDbCircle
 62
7
  6
CONTINUOUS
 10
485.5494911199
 20
282.5004669862
 40
0.64271004
100
AcDbArc
 50
167.9478188764
 51
180.0197594522
  0
ARC
  5
2C8
100
AcDbEntity
  8
PART
100
AcDbCircle
 62
7
  6
CONTINUOUS
 10
438.2352022037
 20
375.339546336
 40
42.521865655
100
AcDbArc
 50
60.0006425543
 51
60.1717987185
  0
ARC
  5
2C9
100
AcDbEntity
  8
PART
100
AcDbCircle
 62
7
  6
CONTINUOUS
 10
417.2896345664
 20
375.3396646948
 40
42.5217280981
100
AcDbArc
 50
119.8287060078
 51
119.9997707078
  0
ARC
  5
2CA
100
AcDbEntity
  8
PART
100
AcDbCircle
 62
7
  6
CONTINUOUS
 10
377.9709385126
 20
469.3005424303
 40
8.2762801041
100
AcDbArc
 50
326.8888391281
 51
327.967786341
  0
ARC
  5
2CB
100
AcDbEntity
  8
PART
100
AcDbCircle
 62
7
  6
CONTINUOUS
 10
385.0050275781
 20
457.1251676199
 40
8.2750577444
100
AcDbArc
 50
92.0337471919
 51
93.1119035152
  0
ARC
  5
2CC
100
AcDbEntity
  8
PART
100
AcDbCircle
 62
7
  6
CONTINUOUS
 10
384.957648157
 20
458.583989618
 40
6.8154746883
100
AcDbArc
 50
89.7164479031
 51
92.0709157372
  0
ARC
  5
2CD
100
AcDbEntity
  8
PART
100
AcDbCircle
 62
7
  6
CONTINUOUS
 10
384.9663772857
 20
460.1077302725
 40
5.2917096272
100
AcDbArc
 50
86.7979132474
 51
89.7293129356
  0
ARC
  5
2CE
100
AcDbEntity
  8
PART
100
AcDbCircle
 62
7
  6
CONTINUOUS
 10
385.7227764213
 20
461.1910392046
 40
4.5319360256
100
AcDbArc
 50
139.325009855
 51
141.0055908082
  0
ARC
  5
2CF
100
AcDbEntity
  8
PART
100
AcDbCircle
 62
7
  6
CONTINUOUS
 10
385.6086835533
 20
461.2806752652
 40
4.3868597205
100
AcDbArc
 50
140.9778169485
 51
145.5309305121
  0
ARC
  5
2D0
100
AcDbEntity
  8
PART
100
AcDbCircle
 62
7
  6
CONTINUOUS
 10
381.8854746724
 20
467.5847163804
 40
4.2271737606
100
AcDbArc
 50
279.2408393455
 51
280.9932674098
  0
ARC
  5
2D1
100
AcDbEntity
  8
PART
100
AcDbCircle
 62
7
  6
CONTINUOUS
 10
381.8933270155
 20
467.5263292581
 40
4.1682837336
100
AcDbArc
 50
274.0465141822
 51
279.2631849123
  0
ARC
  5
2D2
100
AcDbEntity
  8
PART
100
AcDbCircle
 62
7
  6
CONTINUOUS
 10
381.9133731145
 20
467.2561830371
 40
3.897396495
100
AcDbArc
 50
271.9105836371
 51
274.0327994803
  0
ARC
  5
2D3
100
AcDbEntity
  8
PART
100
AcDbCircle
 62
7
  6
CONTINUOUS
 10
481.7453519627
 20
392.1285474782
 40
2.6092573935
100
AcDbArc
 50
236.0164808581
 51
240.0308348958
  0
ARC
  5
2D4
100
AcDbEntity
  8
PART
100
AcDbCircle
 62
7
  6
CONTINUOUS
 10
472.4671957734
 20
396.1959590358
 40
0.64271004
100
AcDbArc
 50
167.9478188783
 51
180.0197594521
  0
ARC
  5
2D5
100
AcDbEntity
  8
PART
100
AcDbCircle
 62
7
  6
CONTINUOUS
 10
380.5433142199
 20
396.195738078
 40
0.64271004
100
AcDbArc
 50
167.9478188781
 51
180.0197594522
  0
ARC
  5
2D6
100
AcDbEntity
  8
PART
100
AcDbCircle
 62
7
  6
CONTINUOUS
 10
490.2938037089
 20
889.1794264425
 40
98.5154178636
100
AcDbArc
 50
9.3751848588
 51
10.0084019719
  0
ARC
  5
2D7
100
AcDbEntity
  8
PART
100
AcDbCircle
 62
7
  6
CONTINUOUS
 10
492.5023154371
 20
889.5376391329
 40
97.4509206323
100
AcDbArc
 50
9.3718520072
 51
10.6489070272
  0
ARC
  5
2D8
100
AcDbEntity
  8
PART
100
AcDbCircle
 62
7
  6
CONTINUOUS
 10
492.3775592964
 20
889.546758904
 40
96.3995326297
100
AcDbArc
 50
10.0086389911
 51
10.6525066403
  0
ARC
  5
2D9
100
AcDbEntity
  8
PART
100
AcDbCircle
 62
7
  6
CONTINUOUS
 10
495.0833566199
 20
890.0164483979
 40
94.825851117
100
AcDbArc
 50
10.6527669072
 51
11.3023021973
  0
ARC
  5
2DA
100
AcDbEntity
  8
PART
100
AcDbCircle
 62
7
  6
CONTINUOUS
 10
493.9242001968
 20
889.8372338358
 40
94.8258510952
100
AcDbArc
 50
10.652766907
 51
11.3023021972
  0
ARC
  5
2DB
100
AcDbEntity
  8
PART
100
AcDbCircle
 62
7
  6
CONTINUOUS
 10
196.372617266
 20
1126.158586429
 40
15.4703904133
100
AcDbArc
 50
121.280596267
 51
124.6555275612
  0
ARC
  5
2DC
100
AcDbEntity
  8
PART
100
AcDbCircle
 62
7
  6
CONTINUOUS
 10
196.0622137393
 20
1125.4893552306
 40
15.4703904
100
AcDbArc
 50
121.2805962687
 51
124.6555275659
  0
ARC
  5
2DD
100
AcDbEntity
  8
PART
100
AcDbCircle
 62
7
  6
CONTINUOUS
 10
195.7239548581
 20
1125.9807903445
 40
14.8737950298
100
AcDbArc
 50
124.6601630357
 51
128.1323526897
  0
ARC
  5
2DE
100
AcDbEntity
  8
PART
100
AcDbCircle
 62
7
  6
CONTINUOUS
 10
196.0343583684
 20
1126.6500215673
 40
14.8737950138
100
AcDbArc
 50
124.6601630325
 51
128.1323526903
  0
ARC
  5
2DF
100
AcDbEntity
  8
PART
100
AcDbCircle
 62
7
  6
CONTINUOUS
 10
195.8201544021
 20
1126.9250503645
 40
14.5251944489
100
AcDbArc
 50
128.1376182026
 51
131.6573327839
  0
ARC
  5
2E0
100
AcDbEntity
  8
PART
100
AcDbCircle
 62
7
  6
CONTINUOUS
 10
195.5097508792
 20
1126.2558191576
 40
14.5251944446
100
AcDbArc
 50
128.1376182015
 51
131.6573327837
  0
ARC
  5
2E1
100
AcDbEntity
  8
PART
100
AcDbCircle
 62
7
  6
CONTINUOUS
 10
190.8057537936
 20
1163.5773701214
 40
3.7232490903
100
AcDbArc
 50
149.9523955867
 51
159.3331307413
  0
ARC
  5
2E2
100
AcDbEntity
  8
PART
100
AcDbCircle
 62
7
  6
CONTINUOUS
 10
196.1234774139
 20
1141.7644253114
 40
3.4021176163
100
AcDbArc
 50
335.4807560528
 51
342.2676763945
  0
ARC
  5
2E3
100
AcDbEntity
  8
PART
100
AcDbCircle
 62
7
  6
CONTINUOUS
 10
190.42388522
 20
1163.7217755771
 40
3.3149888614
100
AcDbArc
 50
159.3389789015
 51
165.128715098
  0
ARC
  5
2E4
100
AcDbEntity
  8
PART
100
AcDbCircle
 62
7
  6
CONTINUOUS
 10
188.9018418072
 20
1135.5701817182
 40
3.3031914317
100
AcDbArc
 50
89.8117511869
 51
91.7890401375
  0
ARC
  5
2E5
100
AcDbEntity
  8
PART
100
AcDbCircle
 62
7
  6
CONTINUOUS
 10
196.3043390863
 20
1141.7066367381
 40
3.2122480245
100
AcDbArc
 50
342.2669255504
 51
347.8730376019
  0
ARC
  5
2E6
100
AcDbEntity
  8
PART
100
AcDbCircle
 62
7
  6
CONTINUOUS
 10
196.4797471928
 20
1141.6679033616
 40
3.0326173554
100
AcDbArc
 50
347.8922995744
 51
351.3181082982
  0
ARC
  5
2E7
100
AcDbEntity
  8
PART
100
AcDbCircle
 62
7
  6
CONTINUOUS
 10
196.5295324525
 20
1141.6589527961
 40
2.9820517773
100
AcDbArc
 50
351.3437199791
 51
8.6565511703
  0
ARC
  5
2E8
100
AcDbEntity
  8
PART
100
AcDbCircle
 62
7
  6
CONTINUOUS
 10
192.2700719383
 20
1137.7788063188
 40
2.1201621518
100
AcDbArc
 50
224.7194163473
 51
235.5119549881
  0
ARC
  5
2E9
100
AcDbEntity
  8
PART
100
AcDbCircle
 62
7
  6
CONTINUOUS
 10
192.2461967788
 20
1137.7460424232
 40
2.0796380677
100
AcDbArc
 50
235.5430027202
 51
239.9586665374
  0
ARC
  5
2EA
100
AcDbEntity
  8
PART
100
AcDbCircle
 62
7
  6
CONTINUOUS
 10
580.1594241794
 20
134.8314803724
 40
15.5827948295
100
AcDbArc
 50
296.41239446
 51
298.7134344401
  0
ARC
  5
2EB
100
AcDbEntity
  8
PART
100
AcDbCircle
 62
7
  6
CONTINUOUS
 10
579.4770075818
 20
134.7978921929
 40
15.4704657457
100
AcDbArc
 50
295.3452896984
 51
298.7202029265
  0
ARC
  5
2EC
100
AcDbEntity
  8
PART
100
AcDbCircle
 62
7
  6
CONTINUOUS
 10
580.4343496776
 20
134.2721268939
 40
14.9595345621
100
AcDbArc
 50
291.876754364
 51
296.4223106864
  0
ARC
  5
2ED
100
AcDbEntity
  8
PART
100
AcDbCircle
 62
7
  6
CONTINUOUS
 10
579.7334936607
 20
134.2592109778
 40
14.8738410277
100
AcDbArc
 50
291.8684791456
 51
295.340654327
  0
ARC
  5
2EE
100
AcDbEntity
  8
PART
100
AcDbCircle
 62
7
  6
CONTINUOUS
 10
579.8342789156
 20
134.0144646296
 40
14.6091662804
100
AcDbArc
 50
290.9745209278
 51
291.8591825614
  0
ARC
  5
2EF
100
AcDbEntity
  8
PART
100
AcDbCircle
 62
7
  6
CONTINUOUS
 10
580.5993689516
 20
133.8703594578
 40
14.5252117588
100
AcDbArc
 50
288.3435093374
 51
291.8632137019
  0
ARC
  5
2F0
100
AcDbEntity
  8
PART
100
AcDbCircle
 62
7
  6
CONTINUOUS
 10
579.8748211054
 20
133.9071479778
 40
14.4944482845
100
AcDbArc
 50
288.3412169272
 51
290.9767284085
  0
ARC
  5
2F1
100
AcDbEntity
  8
PART
100
AcDbCircle
 62
7
  6
CONTINUOUS
 10
590.7537167528
 20
124.7392669207
 40
4.5753488659
100
AcDbArc
 50
172.2403255461
 51
179.1099487529
  0
ARC
  5
2F2
100
AcDbEntity
  8
PART
100
AcDbCircle
 62
7
  6
CONTINUOUS
 10
609.8404997854
 20
111.2017640529
 40
3.723304086
100
AcDbArc
 50
269.9523970883
 51
279.3324815564
  0
ARC
  5
2F3
100
AcDbEntity
  8
PART
100
AcDbCircle
 62
7
  6
CONTINUOUS
 10
609.9063741327
 20
110.7988364094
 40
3.3150272345
100
AcDbArc
 50
279.3383169842
 51
285.1282010897
  0
ARC
  5
2F4
100
AcDbEntity
  8
PART
100
AcDbCircle
 62
7
  6
CONTINUOUS
 10
593.7142071539
 20
127.1177737634
 40
2.982048485
100
AcDbArc
 50
51.3437280721
 51
68.6565606028
  0
ARC
  5
2F5
100
AcDbEntity
  8
PART
100
AcDbCircle
 62
7
  6
CONTINUOUS
 10
586.751147795
 20
331.504797528
 40
2.6092600329
100
AcDbArc
 50
236.0164746549
 51
240.0308350558
  0
ARC
  5
2F6
100
AcDbEntity
  8
PART
100
AcDbCircle
 62
7
  6
CONTINUOUS
 10
588.2240955765
 20
125.3690973054
 40
2.1201307185
100
AcDbArc
 50
184.4885453284
 51
195.2807507602
  0
ARC
  5
2F7
100
AcDbEntity
  8
PART
100
AcDbCircle
 62
7
  6
CONTINUOUS
 10
588.1837875904
 20
125.3648028307
 40
2.0796105776
100
AcDbArc
 50
180.041891502
 51
184.4575003775
  0
ARC
  5
2F8
100
AcDbEntity
  8
PART
100
AcDbCircle
 62
7
  6
CONTINUOUS
 10
603.9146415019
 20
164.7200938575
 40
1.6369024971
100
AcDbArc
 50
268.4425896775
 51
273.0986542681
  0
ARC
  5
2F9
100
AcDbEntity
  8
PART
100
AcDbCircle
 62
7
  6
CONTINUOUS
 10
602.8635903831
 20
516.0258107777
 40
1.6368982842
100
AcDbArc
 50
326.9003304436
 51
331.5571537334
  0
ARC
  5
2FA
100
AcDbEntity
  8
PART
100
AcDbCircle
 62
7
  6
CONTINUOUS
 10
806.3102432163
 20
221.6975537041
 40
1.1364599779
100
AcDbArc
 50
299.9463411522
 51
305.4916841468
  0
ARC
  5
2FB
100
AcDbEntity
  8
PART
100
AcDbCircle
 62
7
  6
CONTINUOUS
 10
577.4729899577
 20
335.5722069895
 40
0.64271004
100
AcDbArc
 50
167.9478188765
 51
180.0197594523
  0
ARC
  5
2FC
100
AcDbEntity
  8
PART
100
AcDbCircle
 62
7
  6
CONTINUOUS
 10
806.8204331807
 20
221.2632118898
 40
0.4523453555
100
AcDbArc
 50
351.2226063236
 51
0.2851008769
  0
ARC
  5
2FD
100
AcDbEntity
  8
PART
100
AcDbCircle
 62
7
  6
CONTINUOUS
 10
521.9397450203
 20
834.3711577934
 40
98.5133761188
100
AcDbArc
 50
49.9918461487
 51
50.6250769968
  0
ARC
  5
2FE
100
AcDbEntity
  8
PART
100
AcDbCircle
 62
7
  6
CONTINUOUS
 10
523.9184742777
 20
836.7802861589
 40
96.5686689844
100
AcDbArc
 50
48.7063997029
 51
50.6329378052
  0
ARC
  5
2FF
100
AcDbEntity
  8
PART
100
AcDbCircle
 62
7
  6
CONTINUOUS
 10
523.2995787316
 20
835.9918965193
 40
96.3977339995
100
AcDbArc
 50
49.3477283903
 51
49.9916091183
  0
ARC
  5
300
100
AcDbEntity
  8
PART
100
AcDbCircle
 62
7
  6
CONTINUOUS
 10
524.2033036541
 20
837.0460024727
 40
95.009261128
100
AcDbArc
 50
48.864364697
 51
49.3470775172
  0
ARC
  5
301
100
AcDbEntity
  8
PART
100
AcDbCircle
 62
7
  6
CONTINUOUS
 10
524.6778003936
 20
837.5900279897
 40
94.287381185
100
AcDbArc
 50
48.6972143046
 51
48.8640520431
  0
ARC
  5
302
100
AcDbEntity
  8
PART
100
AcDbCircle
 62
7
  6
CONTINUOUS
 10
803.1597945218
 20
1033.2737793439
 40
3.7660698763
100
AcDbArc
 50
22.9644212132
 51
36.1222303629
  0
ARC
  5
303
100
AcDbEntity
  8
PART
100
AcDbCircle
 62
7
  6
CONTINUOUS
 10
611.9876798106
 20
920.4186963964
 40
3.7521946147
100
AcDbArc
 50
142.3014108375
 51
150.0231667903
  0
ARC
  5
304
100
AcDbEntity
  8
PART
100
AcDbCircle
 62
7
  6
CONTINUOUS
 10
607.688655866
 20
920.4160827365
 40
3.7521772412
100
AcDbArc
 50
22.3010166824
 51
30.023164313
  0
ARC
  5
305
100
AcDbEntity
  8
PART
100
AcDbCircle
 62
7
  6
CONTINUOUS
 10
803.7718178139
 20
1033.8167065278
 40
2.9464367739
100
AcDbArc
 50
45.1253832787
 51
51.006401458
  0
ARC
  5
306
100
AcDbEntity
  8
PART
100
AcDbCircle
 62
7
  6
CONTINUOUS
 10
603.9146415019
 20
868.5451774231
 40
1.6369024971
100
AcDbArc
 50
268.4425896774
 51
273.0986542682
  0
SPLINE
  5
307
100
AcDbEntity
  8
PART
100
AcDbSpline
 62
7
  6
CONTINUOUS
 70
0
 71
3
 72
9
 73
5
 74
0
 42
0.0000001
 43
0.0000001
 44
0.0000000001
 40
0.0
 40
0.0
 40
0.0
 40
0.0
 40
0.2737756791
 40
1.0
 40
1.0
 40
1.0
 40
1.0
 10
601.8470702621
 20
873.0764191962
 30
0.0
 10
601.7482922295
 20
873.1334474298
 30
0.0
 10
601.378502176
 20
873.3236754863
 30
0.0
 10
600.963034197
 20
873.4411576411
 30
0.0
 10
600.6605377727
 20
873.447070897
 30
0.0
  0
SPLINE
  5
308
100
AcDbEntity
  8
PART
100
AcDbSpline
 62
7
  6
CONTINUOUS
 70
0
 71
3
 72
8
 73
4
 74
0
 42
0.0000001
 43
0.0000001
 44
0.0000000001
 40
0.0
 40
0.0
 40
0.0
 40
0.0
 40
1.0
 40
1.0
 40
1.0
 40
1.0
 10
600.6605377727
 20
873.447070897
 30
0.0
 10
600.4082012237
 20
873.4520036184
 30
0.0
 10
600.1436511791
 20
873.394143536
 30
0.0
 10
599.924726629
 20
873.2685644491
 30
0.0
  0
SPLINE
  5
309
100
AcDbEntity
  8
PART
100
AcDbSpline
 62
7
  6
CONTINUOUS
 70
0
 71
3
 72
9
 73
5
 74
0
 42
0.0000001
 43
0.0000001
 44
0.0000000001
 40
0.0
 40
0.0
 40
0.0
 40
0.0
 40
0.2737756791
 40
1.0
 40
1.0
 40
1.0
 40
1.0
 10
601.8470702621
 20
169.2513356305
 30
0.0
 10
601.7482922295
 20
169.3083638641
 30
0.0
 10
601.378502176
 20
169.4985919206
 30
0.0
 10
600.963034197
 20
169.6160740754
 30
0.0
 10
600.6605377727
 20
169.6219873313
 30
0.0
  0
SPLINE
  5
30A
100
AcDbEntity
  8
PART
100
AcDbSpline
 62
7
  6
CONTINUOUS
 70
0
 71
3
 72
8
 73
4
 74
0
 42
0.0000001
 43
0.0000001
 44
0.0000000001
 40
0.0
 40
0.0
 40
0.0
 40
0.0
 40
1.0
 40
1.0
 40
1.0
 40
1.0
 10
600.6605377727
 20
169.6219873313
 30
0.0
 10
600.4082012237
 20
169.6269200527
 30
0.0
 10
600.1436511791
 20
169.5690599703
 30
0.0
 10
599.924726629
 20
169.4434808834
 30
0.0
  0
SPLINE
  5
30B
100
AcDbEntity
  8
PART
100
AcDbSpline
 62
7
  6
CONTINUOUS
 70
0
 71
3
 72
9
 73
5
 74
0
 42
0.0000001
 43
0.0000001
 44
0.0000000001
 40
0.0
 40
0.0
 40
0.0
 40
0.0
 40
0.5163615631
 40
1.0
 40
1.0
 40
1.0
 40
1.0
 10
604.569442704
 20
516.4486162025
 30
0.0
 10
604.569442704
 20
517.5184215571
 30
0.0
 10
603.7871622431
 20
519.5423520052
 30
0.0
 10
602.2071495229
 20
521.1269380959
 30
0.0
 10
601.2524545621
 20
521.4312073601
 30
0.0
  0
SPLINE
  5
30C
100
AcDbEntity
  8
PART
100
AcDbSpline
 62
7
  6
CONTINUOUS
 70
0
 71
3
 72
8
 73
4
 74
0
 42
0.0000001
 43
0.0000001
 44
0.0000000001
 40
0.0
 40
0.0
 40
0.0
 40
0.0
 40
1.0
 40
1.0
 40
1.0
 40
1.0
 10
601.2524545621
 20
521.4312073601
 30
0.0
 10
601.0912592078
 20
521.482581667
 30
0.0
 10
600.9233442003
 20
521.5179051915
 30
0.0
 10
600.7545835071
 20
521.5298672166
 30
0.0
  0
SPLINE
  5
30D
100
AcDbEntity
  8
PART
100
AcDbSpline
 62
7
  6
CONTINUOUS
 70
0
 71
3
 72
8
 73
4
 74
0
 42
0.0000001
 43
0.0000001
 44
0.0000000001
 40
0.0
 40
0.0
 40
0.0
 40
0.0
 40
1.0
 40
1.0
 40
1.0
 40
1.0
 10
600.7545835071
 20
521.5298672166
 30
0.0
 10
600.593245507
 20
521.5413031095
 30
0.0
 10
600.4279764728
 20
521.5311303036
 30
0.0
 10
600.2707418253
 20
521.4932093921
 30
0.0
  0
SPLINE
  5
30E
100
AcDbEntity
  8
PART
100
AcDbSpline
 62
7
  6
CONTINUOUS
 70
0
 71
3
 72
8
 73
4
 74
0
 42
0.0000001
 43
0.0000001
 44
0.0000000001
 40
0.0
 40
0.0
 40
0.0
 40
0.0
 40
1.0
 40
1.0
 40
1.0
 40
1.0
 10
600.2707418253
 20
521.4932093921
 30
0.0
 10
600.1481969125
 20
521.4636547432
 30
0.0
 10
600.0285089794
 20
521.4163390006
 30
0.0
 10
599.9195178448
 20
521.3530012908
 30
0.0
  0
SPLINE
  5
30F
100
AcDbEntity
  8
PART
100
AcDbSpline
 62
7
  6
CONTINUOUS
 70
0
 71
3
 72
9
 73
5
 74
0
 42
0.0000001
 43
0.0000001
 44
0.0000000001
 40
0.0
 40
0.0
 40
0.0
 40
0.0
 40
0.2287863601
 40
1.0
 40
1.0
 40
1.0
 40
1.0
 10
608.2817687611
 20
107.8504489941
 30
0.0
 10
608.3880817256
 20
107.789070564
 30
0.0
 10
608.8765223282
 20
107.5626396983
 30
0.0
 10
609.4235994756
 20
107.4784602573
 30
0.0
 10
609.8374063622
 20
107.478461252
 30
0.0
  0
SPLINE
  5
310
100
AcDbEntity
  8
PART
100
AcDbSpline
 62
7
  6
CONTINUOUS
 70
0
 71
3
 72
8
 73
4
 74
0
 42
0.0000001
 43
0.0000001
 44
0.0000000001
 40
0.0
 40
0.0
 40
0.0
 40
0.0
 40
1.0
 40
1.0
 40
1.0
 40
1.0
 10
610.7715288944
 20
107.598693787
 30
0.0
 10
610.9872419667
 20
107.6572596057
 30
0.0
 10
611.1994625788
 20
107.7386959729
 30
0.0
 10
611.3930385982
 20
107.8504564727
 30
0.0
  0
SPLINE
  5
311
100
AcDbEntity
  8
PART
100
AcDbSpline
 62
7
  6
CONTINUOUS
 70
0
 71
3
 72
8
 73
4
 74
0
 42
0.0000001
 43
0.0000001
 44
0.0000000001
 40
0.0
 40
0.0
 40
0.0
 40
0.0
 40
1.0
 40
1.0
 40
1.0
 40
1.0
 10
609.1302933657
 20
921.250148473
 30
0.0
 10
609.4118878458
 20
921.0875735021
 30
0.0
 10
609.7728718803
 20
921.0507211478
 30
0.0
 10
610.0942033895
 20
921.100441702
 30
0.0
  0
SPLINE
  5
312
100
AcDbEntity
  8
PART
100
AcDbSpline
 62
7
  6
CONTINUOUS
 70
0
 71
3
 72
8
 73
4
 74
0
 42
0.0000001
 43
0.0000001
 44
0.0000000001
 40
0.0
 40
0.0
 40
0.0
 40
0.0
 40
1.0
 40
1.0
 40
1.0
 40
1.0
 10
610.0942033895
 20
921.100441702
 30
0.0
 10
610.2505225091
 20
921.1246294117
 30
0.0
 10
610.4075193727
 20
921.1710625424
 30
0.0
 10
610.5445069281
 20
921.2501518723
 30
0.0
  0
SPLINE
  5
313
100
AcDbEntity
  8
PART
100
AcDbSpline
 62
7
  6
CONTINUOUS
 70
0
 71
3
 72
9
 73
5
 74
0
 42
0.0000001
 43
0.0000001
 44
0.0000000001
 40
0.0
 40
0.0
 40
0.0
 40
0.0
 40
0.2658161311
 40
1.0
 40
1.0
 40
1.0
 40
1.0
 10
596.190192461
 20
128.7935572293
 30
0.0
 10
596.1290951144
 20
128.9276398448
 30
0.0
 10
595.8676995726
 20
129.418037952
 30
0.0
 10
595.5078059315
 20
129.8485765939
 30
0.0
 10
595.2242652089
 20
130.1405188413
 30
0.0
  0
SPLINE
  5
314
100
AcDbEntity
  8
PART
100
AcDbSpline
 62
7
  6
CONTINUOUS
 70
0
 71
3
 72
8
 73
4
 74
0
 42
0.0000001
 43
0.0000001
 44
0.0000000001
 40
0.0
 40
0.0
 40
0.0
 40
0.0
 40
1.0
 40
1.0
 40
1.0
 40
1.0
 10
595.2242652089
 20
130.1405188413
 30
0.0
 10
595.1435259014
 20
130.2236505152
 30
0.0
 10
595.0611599653
 20
130.305193683
 30
0.0
 10
594.978685214
 20
130.3866039182
 30
0.0
  0
SPLINE
  5
315
100
AcDbEntity
  8
PART
100
AcDbSpline
 62
7
  6
CONTINUOUS
 70
0
 71
3
 72
8
 73
4
 74
0
 42
0.0000001
 43
0.0000001
 44
0.0000000001
 40
0.0
 40
0.0
 40
0.0
 40
0.0
 40
1.0
 40
1.0
 40
1.0
 40
1.0
 10
603.7746226795
 20
514.687684924
 30
0.0
 10
603.9589701981
 20
514.7948142761
 30
0.0
 10
604.1183323717
 20
514.9533472643
 30
0.0
 10
604.2348558684
 20
515.1319053232
 30
0.0
  0
SPLINE
  5
316
100
AcDbEntity
  8
PART
100
AcDbSpline
 62
7
  6
CONTINUOUS
 70
0
 71
3
 72
9
 73
5
 74
0
 42
0.0000001
 43
0.0000001
 44
0.0000000001
 40
0.0
 40
0.0
 40
0.0
 40
0.0
 40
0.228459611
 40
1.0
 40
1.0
 40
1.0
 40
1.0
 10
604.302903015
 20
515.2461857779
 30
0.0
 10
604.3478852548
 20
515.3291284878
 30
0.0
 10
604.5145569235
 20
515.7086006208
 30
0.0
 10
604.569442704
 20
516.1299655157
 30
0.0
 10
604.569442704
 20
516.4486162025
 30
0.0
  0
SPLINE
  5
317
100
AcDbEntity
  8
PART
100
AcDbSpline
 62
7
  6
CONTINUOUS
 70
0
 71
3
 72
8
 73
4
 74
0
 42
0.0000001
 43
0.0000001
 44
0.0000000001
 40
0.0
 40
0.0
 40
0.0
 40
0.0
 40
1.0
 40
1.0
 40
1.0
 40
1.0
 10
594.9136781551
 20
913.4000717382
 30
0.0
 10
594.5429709037
 20
913.1427106953
 30
0.0
 10
594.200950954
 20
912.8315240363
 30
0.0
 10
593.9274472285
 20
912.4725612461
 30
0.0
  0
SPLINE
  5
318
100
AcDbEntity
  8
PART
100
AcDbSpline
 62
7
  6
CONTINUOUS
 70
0
 71
3
 72
8
 73
4
 74
0
 42
0.0000001
 43
0.0000001
 44
0.0000000001
 40
0.0
 40
0.0
 40
0.0
 40
0.0
 40
1.0
 40
1.0
 40
1.0
 40
1.0
 10
604.270503925
 20
515.0370675261
 30
0.0
 10
603.9591002754
 20
514.9623255664
 30
0.0
 10
603.6173455584
 20
514.998164341
 30
0.0
 10
603.3113737521
 20
515.0927151065
 30
0.0
  0
SPLINE
  5
319
100
AcDbEntity
  8
PART
100
AcDbSpline
 62
7
  6
CONTINUOUS
 70
0
 71
3
 72
9
 73
5
 74
0
 42
0.0000001
 43
0.0000001
 44
0.0000000001
 40
0.0
 40
0.0
 40
0.0
 40
0.0
 40
0.4829432087
 40
1.0
 40
1.0
 40
1.0
 40
1.0
 10
603.3113737521
 20
515.0927151065
 30
0.0
 10
602.352245171
 20
515.3891030078
 30
0.0
 10
600.7604243952
 20
516.9775334262
 30
0.0
 10
599.973222425
 20
519.0071729551
 30
0.0
 10
599.973222425
 20
520.0819629969
 30
0.0
  0
SPLINE
  5
31A
100
AcDbEntity
  8
PART
100
AcDbSpline
 62
7
  6
CONTINUOUS
 70
0
 71
3
 72
8
 73
4
 74
0
 42
0.0000001
 43
0.0000001
 44
0.0000000001
 40
0.0
 40
0.0
 40
0.0
 40
0.0
 40
1.0
 40
1.0
 40
1.0
 40
1.0
 10
603.7694138953
 20
866.5972053314
 30
0.0
 10
603.8791799192
 20
866.6601691107
 30
0.0
 10
603.9803350552
 20
866.7405686347
 30
0.0
 10
604.0674376376
 20
866.8323627393
 30
0.0
  0
SPLINE
  5
31B
100
AcDbEntity
  8
PART
100
AcDbSpline
 62
7
  6
CONTINUOUS
 70
0
 71
3
 72
8
 73
4
 74
0
 42
0.0000001
 43
0.0000001
 44
0.0000000001
 40
0.0
 40
0.0
 40
0.0
 40
0.0
 40
1.0
 40
1.0
 40
1.0
 40
1.0
 10
604.0674376376
 20
866.8323627393
 30
0.0
 10
604.2878878548
 20
867.0646868535
 30
0.0
 10
604.4277367828
 20
867.3785999487
 30
0.0
 10
604.4988398621
 20
867.6908773005
 30
0.0
  0
SPLINE
  5
31C
100
AcDbEntity
  8
PART
100
AcDbSpline
 62
7
  6
CONTINUOUS
 70
0
 71
3
 72
9
 73
5
 74
0
 42
0.0000001
 43
0.0000001
 44
0.0000000001
 40
0.0
 40
0.0
 40
0.0
 40
0.0
 40
0.2293449967
 40
1.0
 40
1.0
 40
1.0
 40
1.0
 10
604.4988398621
 20
867.6908773005
 30
0.0
 10
604.5226037346
 20
867.7952457643
 30
0.0
 10
604.5963808446
 20
868.257080143
 30
0.0
 10
604.5654640588
 20
868.7314149469
 30
0.0
 10
604.5036563012
 20
869.0857440416
 30
0.0
  0
SPLINE
  5
31D
100
AcDbEntity
  8
PART
100
AcDbSpline
 62
7
  6
CONTINUOUS
 70
0
 71
3
 72
9
 73
5
 74
0
 42
0.0000001
 43
0.0000001
 44
0.0000000001
 40
0.0
 40
0.0
 40
0.0
 40
0.0
 40
0.2405157658
 40
1.0
 40
1.0
 40
1.0
 40
1.0
 10
604.5036563012
 20
869.0857440416
 30
0.0
 10
604.4575620487
 20
869.3499913693
 30
0.0
 10
604.1747617662
 20
870.4310495508
 30
0.0
 10
603.5989873456
 20
871.4330763113
 30
0.0
 10
603.0401349365
 20
872.069574579
 30
0.0
  0
SPLINE
  5
31E
100
AcDbEntity
  8
PART
100
AcDbSpline
 62
7
  6
CONTINUOUS
 70
0
 71
3
 72
9
 73
5
 74
0
 42
0.0000001
 43
0.0000001
 44
0.0000000001
 40
0.0
 40
0.0
 40
0.0
 40
0.0
 40
0.2657515747
 40
1.0
 40
1.0
 40
1.0
 40
1.0
 10
603.0401349365
 20
872.069574579
 30
0.0
 10
602.9486807657
 20
872.1737352131
 30
0.0
 10
602.5908662324
 20
872.5529234456
 30
0.0
 10
602.178736513
 20
872.8849359289
 30
0.0
 10
601.8470702621
 20
873.0764191962
 30
0.0
  0
SPLINE
  5
31F
100
AcDbEntity
  8
PART
100
AcDbSpline
 62
7
  6
CONTINUOUS
 70
0
 71
3
 72
9
 73
5
 74
0
 42
0.0000001
 43
0.0000001
 44
0.0000000001
 40
0.0
 40
0.0
 40
0.0
 40
0.0
 40
0.2284604505
 40
1.0
 40
1.0
 40
1.0
 40
1.0
 10
603.8701527988
 20
866.9088796079
 30
0.0
 10
603.7758348167
 20
866.9113955343
 30
0.0
 10
603.3638839716
 20
866.9567881693
 30
0.0
 10
602.9715441112
 20
867.1199278026
 30
0.0
 10
602.6955948668
 20
867.2792435689
 30
0.0
  0
SPLINE
  5
320
100
AcDbEntity
  8
PART
100
AcDbSpline
 62
7
  6
CONTINUOUS
 70
0
 71
3
 72
9
 73
5
 74
0
 42
0.0000001
 43
0.0000001
 44
0.0000000001
 40
0.0
 40
0.0
 40
0.0
 40
0.0
 40
0.2329694245
 40
1.0
 40
1.0
 40
1.0
 40
1.0
 10
602.6955948668
 20
163.4541600032
 30
0.0
 10
602.591002004
 20
163.5145453547
 30
0.0
 10
602.1555330264
 20
163.7969125593
 30
0.0
 10
601.7719112727
 20
164.1552003358
 30
0.0
 10
601.5090623773
 20
164.453567012
 30
0.0
  0
SPLINE
  5
321
100
AcDbEntity
  8
PART
100
AcDbSpline
 62
7
  6
CONTINUOUS
 70
0
 71
3
 72
9
 73
5
 74
0
 42
0.0000001
 43
0.0000001
 44
0.0000000001
 40
0.0
 40
0.0
 40
0.0
 40
0.0
 40
0.7591027416
 40
1.0
 40
1.0
 40
1.0
 40
1.0
 10
601.5090623773
 20
164.453567012
 30
0.0
 10
600.9523495098
 20
165.0855063915
 30
0.0
 10
600.3775912035
 20
166.0805789859
 30
0.0
 10
600.0912460218
 20
167.1545946627
 30
0.0
 10
600.0438252668
 20
167.4176172341
 30
0.0
  0
SPLINE
  5
322
100
AcDbEntity
  8
PART
100
AcDbSpline
 62
7
  6
CONTINUOUS
 70
0
 71
3
 72
9
 73
5
 74
0
 42
0.0000001
 43
0.0000001
 44
0.0000000001
 40
0.0
 40
0.0
 40
0.0
 40
0.0
 40
0.2830334007
 40
1.0
 40
1.0
 40
1.0
 40
1.0
 10
600.0438252668
 20
167.4176172341
 30
0.0
 10
600.0119678575
 20
167.594316608
 30
0.0
 10
599.9342567608
 20
168.2210414656
 30
0.0
 10
600.0035223372
 20
168.8896192347
 30
0.0
 10
600.2025191403
 20
169.2985986441
 30
0.0
  0
SPLINE
  5
323
100
AcDbEntity
  8
PART
100
AcDbSpline
 62
7
  6
CONTINUOUS
 70
0
 71
3
 72
8
 73
4
 74
0
 42
0.0000001
 43
0.0000001
 44
0.0000000001
 40
0.0
 40
0.0
 40
0.0
 40
0.0
 40
1.0
 40
1.0
 40
1.0
 40
1.0
 10
603.7694138953
 20
162.7721217657
 30
0.0
 10
603.8791799192
 20
162.835085545
 30
0.0
 10
603.9803350552
 20
162.915485069
 30
0.0
 10
604.0674376376
 20
163.0072791736
 30
0.0
  0
SPLINE
  5
324
100
AcDbEntity
  8
PART
100
AcDbSpline
 62
7
  6
CONTINUOUS
 70
0
 71
3
 72
8
 73
4
 74
0
 42
0.0000001
 43
0.0000001
 44
0.0000000001
 40
0.0
 40
0.0
 40
0.0
 40
0.0
 40
1.0
 40
1.0
 40
1.0
 40
1.0
 10
604.0674376376
 20
163.0072791736
 30
0.0
 10
604.2878878548
 20
163.2396032878
 30
0.0
 10
604.4277367828
 20
163.553516383
 30
0.0
 10
604.4988398621
 20
163.8657937348
 30
0.0
  0
SPLINE
  5
325
100
AcDbEntity
  8
PART
100
AcDbSpline
 62
7
  6
CONTINUOUS
 70
0
 71
3
 72
9
 73
5
 74
0
 42
0.0000001
 43
0.0000001
 44
0.0000000001
 40
0.0
 40
0.0
 40
0.0
 40
0.0
 40
0.2293449967
 40
1.0
 40
1.0
 40
1.0
 40
1.0
 10
604.4988398621
 20
163.8657937348
 30
0.0
 10
604.5226037346
 20
163.9701621986
 30
0.0
 10
604.5963808446
 20
164.4319965774
 30
0.0
 10
604.5654640588
 20
164.9063313812
 30
0.0
 10
604.5036563012
 20
165.2606604759
 30
0.0
  0
SPLINE
  5
326
100
AcDbEntity
  8
PART
100
AcDbSpline
 62
7
  6
CONTINUOUS
 70
0
 71
3
 72
9
 73
5
 74
0
 42
0.0000001
 43
0.0000001
 44
0.0000000001
 40
0.0
 40
0.0
 40
0.0
 40
0.0
 40
0.2405157658
 40
1.0
 40
1.0
 40
1.0
 40
1.0
 10
604.5036563012
 20
165.2606604759
 30
0.0
 10
604.4575620487
 20
165.5249078036
 30
0.0
 10
604.1747617662
 20
166.6059659851
 30
0.0
 10
603.5989873456
 20
167.6079927456
 30
0.0
 10
603.0401349365
 20
168.2444910133
 30
0.0
  0
SPLINE
  5
327
100
AcDbEntity
  8
PART
100
AcDbSpline
 62
7
  6
CONTINUOUS
 70
0
 71
3
 72
9
 73
5
 74
0
 42
0.0000001
 43
0.0000001
 44
0.0000000001
 40
0.0
 40
0.0
 40
0.0
 40
0.0
 40
0.2657515747
 40
1.0
 40
1.0
 40
1.0
 40
1.0
 10
603.0401349365
 20
168.2444910133
 30
0.0
 10
602.9486807657
 20
168.3486516474
 30
0.0
 10
602.5908662324
 20
168.7278398799
 30
0.0
 10
602.178736513
 20
169.0598523632
 30
0.0
 10
601.8470702621
 20
169.2513356305
 30
0.0
  0
SPLINE
  5
328
100
AcDbEntity
  8
PART
100
AcDbSpline
 62
7
  6
CONTINUOUS
 70
0
 71
3
 72
9
 73
5
 74
0
 42
0.0000001
 43
0.0000001
 44
0.0000000001
 40
0.0
 40
0.0
 40
0.0
 40
0.0
 40
0.2329694245
 40
1.0
 40
1.0
 40
1.0
 40
1.0
 10
602.6955948668
 20
867.2792435689
 30
0.0
 10
602.591002004
 20
867.3396289204
 30
0.0
 10
602.1555330264
 20
867.621996125
 30
0.0
 10
601.7719112727
 20
867.9802839015
 30
0.0
 10
601.5090623773
 20
868.2786505777
 30
0.0
  0
SPLINE
  5
329
100
AcDbEntity
  8
PART
100
AcDbSpline
 62
7
  6
CONTINUOUS
 70
0
 71
3
 72
9
 73
5
 74
0
 42
0.0000001
 43
0.0000001
 44
0.0000000001
 40
0.0
 40
0.0
 40
0.0
 40
0.0
 40
0.7591027416
 40
1.0
 40
1.0
 40
1.0
 40
1.0
 10
601.5090623773
 20
868.2786505777
 30
0.0
 10
600.9523495098
 20
868.9105899572
 30
0.0
 10
600.3775912035
 20
869.9056625516
 30
0.0
 10
600.0912460218
 20
870.9796782284
 30
0.0
 10
600.0438252668
 20
871.2427007998
 30
0.0
  0
SPLINE
  5
32A
100
AcDbEntity
  8
PART
100
AcDbSpline
 62
7
  6
CONTINUOUS
 70
0
 71
3
 72
9
 73
5
 74
0
 42
0.0000001
 43
0.0000001
 44
0.0000000001
 40
0.0
 40
0.0
 40
0.0
 40
0.0
 40
0.2830334007
 40
1.0
 40
1.0
 40
1.0
 40
1.0
 10
600.0438252668
 20
871.2427007998
 30
0.0
 10
600.0119678575
 20
871.4194001737
 30
0.0
 10
599.9342567608
 20
872.0461250313
 30
0.0
 10
600.0035223372
 20
872.7147028004
 30
0.0
 10
600.2025191403
 20
873.1236822098
 30
0.0
  0
SPLINE
  5
32B
100
AcDbEntity
  8
PART
100
AcDbSpline
 62
7
  6
CONTINUOUS
 70
0
 71
3
 72
9
 73
5
 74
0
 42
0.0000001
 43
0.0000001
 44
0.0000000001
 40
0.0
 40
0.0
 40
0.0
 40
0.0
 40
0.2284604505
 40
1.0
 40
1.0
 40
1.0
 40
1.0
 10
603.8701527988
 20
163.0837960422
 30
0.0
 10
603.7758348167
 20
163.0863119686
 30
0.0
 10
603.3638839716
 20
163.1317046036
 30
0.0
 10
602.9715441112
 20
163.2948442369
 30
0.0
 10
602.6955948668
 20
163.4541600032
 30
0.0
  0
SPLINE
  5
32C
100
AcDbEntity
  8
PART
100
AcDbSpline
 62
7
  6
CONTINUOUS
 70
0
 71
3
 72
9
 73
5
 74
0
 42
0.0000001
 43
0.0000001
 44
0.0000000001
 40
0.0
 40
0.0
 40
0.0
 40
0.0
 40
0.2737755075
 40
1.0
 40
1.0
 40
1.0
 40
1.0
 10
599.973222425
 20
520.0819629969
 30
0.0
 10
599.973222425
 20
520.1960224377
 30
0.0
 10
599.9933709483
 20
520.6113883264
 30
0.0
 10
600.0993571562
 20
521.0299402928
 30
0.0
 10
600.2454806472
 20
521.2948719885
 30
0.0
  0
SPLINE
  5
32D
100
AcDbEntity
  8
PART
100
AcDbSpline
 62
7
  6
CONTINUOUS
 70
0
 71
3
 72
9
 73
5
 74
0
 42
0.0000001
 43
0.0000001
 44
0.0000000001
 40
0.0
 40
0.0
 40
0.0
 40
0.0
 40
0.3017286321
 40
1.0
 40
1.0
 40
1.0
 40
1.0
 10
494.2487072491
 20
276.346269536
 30
0.0
 10
494.2603736328
 20
276.3360344153
 30
0.0
 10
494.2994377392
 20
276.3025066891
 30
0.0
 10
494.3431158378
 20
276.274825723
 30
0.0
 10
494.374220474
 20
276.2568678591
 30
0.0
  0
SPLINE
  5
32E
100
AcDbEntity
  8
PART
100
AcDbSpline
 62
7
  6
CONTINUOUS
 70
0
 71
3
 72
9
 73
5
 74
0
 42
0.0000001
 43
0.0000001
 44
0.0000000001
 40
0.0
 40
0.0
 40
0.0
 40
0.0
 40
0.4987299394
 40
1.0
 40
1.0
 40
1.0
 40
1.0
 10
581.7022715297
 20
225.8391346759
 30
0.0
 10
582.0759514796
 20
225.6233953369
 30
0.0
 10
582.9679114509
 20
225.4979954572
 30
0.0
 10
583.862069521
 20
225.6190929759
 30
0.0
 10
584.2375125457
 20
225.8361736762
 30
0.0
  0
SPLINE
  5
32F
100
AcDbEntity
  8
PART
100
AcDbSpline
 62
7
  6
CONTINUOUS
 70
0
 71
3
 72
9
 73
5
 74
0
 42
0.0000001
 43
0.0000001
 44
0.0000000001
 40
0.0
 40
0.0
 40
0.0
 40
0.0
 40
0.0999870535
 40
1.0
 40
1.0
 40
1.0
 40
1.0
 10
479.3619536444
 20
286.5481897958
 30
0.0
 10
479.3392096125
 20
286.5284400989
 30
0.0
 10
479.0899720926
 20
286.3572911822
 30
0.0
 10
478.7879021293
 20
286.2728095744
 30
0.0
 10
478.5204631951
 20
286.2281751935
 30
0.0
  0
SPLINE
  5
330
100
AcDbEntity
  8
PART
100
AcDbSpline
 62
7
  6
CONTINUOUS
 70
0
 71
3
 72
9
 73
5
 74
0
 42
0.0000001
 43
0.0000001
 44
0.0000000001
 40
0.0
 40
0.0
 40
0.0
 40
0.0
 40
0.281209699
 40
1.0
 40
1.0
 40
1.0
 40
1.0
 10
478.5204631951
 20
286.2281751935
 30
0.0
 10
478.3489103277
 20
286.1995437751
 30
0.0
 10
477.7352302245
 20
286.151992811
 30
0.0
 10
477.081484435
 20
286.2406078039
 30
0.0
 10
476.6964773453
 20
286.4628867222
 30
0.0
  0
SPLINE
  5
331
100
AcDbEntity
  8
PART
100
AcDbSpline
 62
7
  6
CONTINUOUS
 70
0
 71
3
 72
8
 73
4
 74
0
 42
0.0000001
 43
0.0000001
 44
0.0000000001
 40
0.0
 40
0.0
 40
0.0
 40
0.0
 40
1.0
 40
1.0
 40
1.0
 40
1.0
 10
593.9274472285
 20
130.0999451526
 30
0.0
 10
594.2246672394
 20
130.0713127201
 30
0.0
 10
594.5214061486
 20
130.0039175253
 30
0.0
 10
594.7995460579
 20
129.8953001144
 30
0.0
  0
SPLINE
  5
332
100
AcDbEntity
  8
PART
100
AcDbSpline
 62
7
  6
CONTINUOUS
 70
0
 71
3
 72
9
 73
5
 74
0
 42
0.0000001
 43
0.0000001
 44
0.0000000001
 40
0.0
 40
0.0
 40
0.0
 40
0.0
 40
0.2416579784
 40
1.0
 40
1.0
 40
1.0
 40
1.0
 10
190.763567257
 20
353.0983347584
 30
0.0
 10
190.9018124589
 20
353.2416006186
 30
0.0
 10
191.5102452485
 20
353.7954887432
 30
0.0
 10
192.27615568
 20
354.2000385213
 30
0.0
 10
192.8882817724
 20
354.3250474497
 30
0.0
  0
SPLINE
  5
333
100
AcDbEntity
  8
PART
100
AcDbSpline
 62
7
  6
CONTINUOUS
 70
0
 71
3
 72
9
 73
5
 74
0
 42
0.0000001
 43
0.0000001
 44
0.0000000001
 40
0.0
 40
0.0
 40
0.0
 40
0.0
 40
0.4987299394
 40
1.0
 40
1.0
 40
1.0
 40
1.0
 10
568.6199761832
 20
339.5346267255
 30
0.0
 10
568.9936561331
 20
339.3188873864
 30
0.0
 10
569.8856161044
 20
339.1934875068
 30
0.0
 10
570.7797741745
 20
339.3145850255
 30
0.0
 10
571.1552171992
 20
339.5316657258
 30
0.0
  0
SPLINE
  5
334
100
AcDbEntity
  8
PART
100
AcDbSpline
 62
7
  6
CONTINUOUS
 70
0
 71
3
 72
9
 73
5
 74
0
 42
0.0000001
 43
0.0000001
 44
0.0000000001
 40
0.0
 40
0.0
 40
0.0
 40
0.0
 40
0.3017286321
 40
1.0
 40
1.0
 40
1.0
 40
1.0
 10
481.1664119026
 20
390.0417615856
 30
0.0
 10
481.1780782864
 20
390.031526465
 30
0.0
 10
481.2171423927
 20
389.9979987388
 30
0.0
 10
481.2608204913
 20
389.9703177726
 30
0.0
 10
481.2919251275
 20
389.9523599088
 30
0.0
  0
SPLINE
  5
335
100
AcDbEntity
  8
PART
100
AcDbSpline
 62
7
  6
CONTINUOUS
 70
0
 71
3
 72
9
 73
5
 74
0
 42
0.0000001
 43
0.0000001
 44
0.0000000001
 40
0.0
 40
0.0
 40
0.0
 40
0.0
 40
0.4511460297
 40
1.0
 40
1.0
 40
1.0
 40
1.0
 10
355.3804767601
 20
368.7230988605
 30
0.0
 10
355.5877356626
 20
366.5211843954
 30
0.0
 10
357.787801567
 20
361.7975106242
 30
0.0
 10
361.7929326628
 20
358.7579047756
 30
0.0
 10
364.1231080906
 20
357.4126077998
 30
0.0
  0
SPLINE
  5
336
100
AcDbEntity
  8
PART
100
AcDbSpline
 62
7
  6
CONTINUOUS
 70
0
 71
3
 72
9
 73
5
 74
0
 42
0.0000001
 43
0.0000001
 44
0.0000000001
 40
0.0
 40
0.0
 40
0.0
 40
0.0
 40
0.4511467059
 40
1.0
 40
1.0
 40
1.0
 40
1.0
 10
355.3804772172
 20
369.6169674651
 30
0.0
 10
355.5877345272
 20
371.8188545679
 30
0.0
 10
357.7877484973
 20
376.5424659963
 30
0.0
 10
361.7928009478
 20
379.5820587071
 30
0.0
 10
364.1229314526
 20
380.927352151
 30
0.0
  0
SPLINE
  5
337
100
AcDbEntity
  8
PART
100
AcDbSpline
 62
7
  6
CONTINUOUS
 70
0
 71
3
 72
9
 73
5
 74
0
 42
0.0000001
 43
0.0000001
 44
0.0000000001
 40
0.0
 40
0.0
 40
0.0
 40
0.0
 40
0.2315955309
 40
1.0
 40
1.0
 40
1.0
 40
1.0
 10
610.5445069281
 20
921.2501518723
 30
0.0
 10
610.5445069281
 20
921.3412492831
 30
0.0
 10
610.4876158068
 20
921.7328665095
 30
0.0
 10
610.2759522001
 20
922.0982955982
 30
0.0
 10
610.057313472
 20
922.3069865894
 30
0.0
  0
SPLINE
  5
338
100
AcDbEntity
  8
PART
100
AcDbSpline
 62
7
  6
CONTINUOUS
 70
0
 71
3
 72
8
 73
4
 74
0
 42
0.0000001
 43
0.0000001
 44
0.0000000001
 40
0.0
 40
0.0
 40
0.0
 40
0.0
 40
1.0
 40
1.0
 40
1.0
 40
1.0
 10
610.057313472
 20
922.3069865894
 30
0.0
 10
609.9905973353
 20
922.3706672411
 30
0.0
 10
609.9172706864
 20
922.42878111
 30
0.0
 10
609.8373972029
 20
922.474895044
 30
0.0
  0
SPLINE
  5
339
100
AcDbEntity
  8
PART
100
AcDbSpline
 62
7
  6
CONTINUOUS
 70
0
 71
3
 72
8
 73
4
 74
0
 42
0.0000001
 43
0.0000001
 44
0.0000000001
 40
0.0
 40
0.0
 40
0.0
 40
0.0
 40
1.0
 40
1.0
 40
1.0
 40
1.0
 10
576.8302799559
 20
335.5719853397
 30
0.0
 10
576.8304249095
 20
335.387871643
 30
0.0
 10
576.923402263
 20
335.2003622224
 30
0.0
 10
577.0470732429
 20
335.0639680764
 30
0.0
  0
SPLINE
  5
33A
100
AcDbEntity
  8
PART
100
AcDbSpline
 62
7
  6
CONTINUOUS
 70
0
 71
3
 72
9
 73
5
 74
0
 42
0.0000001
 43
0.0000001
 44
0.0000000001
 40
0.0
 40
0.0
 40
0.0
 40
0.0
 40
0.2165086474
 40
1.0
 40
1.0
 40
1.0
 40
1.0
 10
577.0470732429
 20
335.0639680764
 30
0.0
 10
577.1108897375
 20
334.9935861946
 30
0.0
 10
577.4479479315
 20
334.7069043552
 30
0.0
 10
577.8879105806
 20
334.5683147461
 30
0.0
 10
578.2274560628
 20
334.5143727824
 30
0.0
  0
SPLINE
  5
33B
100
AcDbEntity
  8
PART
100
AcDbSpline
 62
7
  6
CONTINUOUS
 70
0
 71
3
 72
9
 73
5
 74
0
 42
0.0000001
 43
0.0000001
 44
0.0000000001
 40
0.0
 40
0.0
 40
0.0
 40
0.0
 40
0.2626957679
 40
1.0
 40
1.0
 40
1.0
 40
1.0
 10
578.2274560628
 20
334.5143727824
 30
0.0
 10
578.390505762
 20
334.4884698579
 30
0.0
 10
579.0158139786
 20
334.4408622341
 30
0.0
 10
579.6723931062
 20
334.5648119586
 30
0.0
 10
580.0736821589
 20
334.7964949182
 30
0.0
  0
SPLINE
  5
33C
100
AcDbEntity
  8
PART
100
AcDbSpline
 62
7
  6
CONTINUOUS
 70
0
 71
3
 72
9
 73
5
 74
0
 42
0.0000001
 43
0.0000001
 44
0.0000000001
 40
0.0
 40
0.0
 40
0.0
 40
0.0
 40
0.2309367974
 40
1.0
 40
1.0
 40
1.0
 40
1.0
 10
806.8775512267
 20
1033.6226252579
 30
0.0
 10
806.8775512267
 20
1033.7111985119
 30
0.0
 10
806.8524887338
 20
1034.094634155
 30
0.0
 10
806.7433284459
 20
1034.4698549464
 30
0.0
 10
806.6283717774
 20
1034.7414975775
 30
0.0
  0
SPLINE
  5
33D
100
AcDbEntity
  8
PART
100
AcDbSpline
 62
7
  6
CONTINUOUS
 70
0
 71
3
 72
8
 73
4
 74
0
 42
0.0000001
 43
0.0000001
 44
0.0000000001
 40
0.0
 40
0.0
 40
0.0
 40
0.0
 40
1.0
 40
1.0
 40
1.0
 40
1.0
 10
806.201879716
 20
1035.4939144715
 30
0.0
 10
806.0956535595
 20
1035.639410508
 30
0.0
 10
805.9785042614
 20
1035.777746065
 30
0.0
 10
805.850698942
 20
1035.9047062686
 30
0.0
  0
SPLINE
  5
33E
100
AcDbEntity
  8
PART
100
AcDbSpline
 62
7
  6
CONTINUOUS
 70
0
 71
3
 72
8
 73
4
 74
0
 42
0.0000001
 43
0.0000001
 44
0.0000000001
 40
0.0
 40
0.0
 40
0.0
 40
0.0
 40
1.0
 40
1.0
 40
1.0
 40
1.0
 10
805.6258147124
 20
1036.1067251222
 30
0.0
 10
805.5299707707
 20
1036.1841306103
 30
0.0
 10
805.4286027637
 20
1036.2554624359
 30
0.0
 10
805.3219098314
 20
1036.3170602355
 30
0.0
  0
SPLINE
  5
33F
100
AcDbEntity
  8
PART
100
AcDbSpline
 62
7
  6
CONTINUOUS
 70
0
 71
3
 72
9
 73
5
 74
0
 42
0.0000001
 43
0.0000001
 44
0.0000000001
 40
0.0
 40
0.0
 40
0.0
 40
0.0
 40
0.4915000263
 40
1.0
 40
1.0
 40
1.0
 40
1.0
 10
577.0929419968
 20
335.1479141691
 30
0.0
 10
577.1143626466
 20
335.1689902917
 30
0.0
 10
577.159557523
 20
335.2102555464
 30
0.0
 10
577.2074633806
 20
335.2483249319
 30
0.0
 10
577.2324043612
 20
335.2668868282
 30
0.0
  0
SPLINE
  5
340
100
AcDbEntity
  8
PART
100
AcDbSpline
 62
7
  6
CONTINUOUS
 70
0
 71
3
 72
9
 73
5
 74
0
 42
0.0000001
 43
0.0000001
 44
0.0000000001
 40
0.0
 40
0.0
 40
0.0
 40
0.0
 40
0.4927271042
 40
1.0
 40
1.0
 40
1.0
 40
1.0
 10
577.2324043612
 20
335.2668868282
 30
0.0
 10
577.256717264
 20
335.2849812883
 30
0.0
 10
577.307205614
 20
335.3201860578
 30
0.0
 10
577.359643521
 20
335.3524060024
 30
0.0
 10
577.3866652033
 20
335.3680068849
 30
0.0
  0
SPLINE
  5
341
100
AcDbEntity
  8
PART
100
AcDbSpline
 62
7
  6
CONTINUOUS
 70
0
 71
3
 72
8
 73
4
 74
0
 42
0.0000001
 43
0.0000001
 44
0.0000000001
 40
0.0
 40
0.0
 40
0.0
 40
0.0
 40
1.0
 40
1.0
 40
1.0
 40
1.0
 10
484.9067811181
 20
282.5002453364
 30
0.0
 10
484.9069260717
 20
282.3161316397
 30
0.0
 10
484.9999034251
 20
282.1286222191
 30
0.0
 10
485.123574405
 20
281.9922280731
 30
0.0
  0
SPLINE
  5
342
100
AcDbEntity
  8
PART
100
AcDbSpline
 62
7
  6
CONTINUOUS
 70
0
 71
3
 72
9
 73
5
 74
0
 42
0.0000001
 43
0.0000001
 44
0.0000000001
 40
0.0
 40
0.0
 40
0.0
 40
0.0
 40
0.2165086474
 40
1.0
 40
1.0
 40
1.0
 40
1.0
 10
485.123574405
 20
281.9922280731
 30
0.0
 10
485.1873908997
 20
281.9218461913
 30
0.0
 10
485.5244490936
 20
281.6351643519
 30
0.0
 10
485.9644117428
 20
281.4965747428
 30
0.0
 10
486.303957225
 20
281.442632779
 30
0.0
  0
SPLINE
  5
343
100
AcDbEntity
  8
PART
100
AcDbSpline
 62
7
  6
CONTINUOUS
 70
0
 71
3
 72
9
 73
5
 74
0
 42
0.0000001
 43
0.0000001
 44
0.0000000001
 40
0.0
 40
0.0
 40
0.0
 40
0.0
 40
0.2626957679
 40
1.0
 40
1.0
 40
1.0
 40
1.0
 10
486.303957225
 20
281.442632779
 30
0.0
 10
486.4670069242
 20
281.4167298546
 30
0.0
 10
487.0923151408
 20
281.3691222308
 30
0.0
 10
487.7488942684
 20
281.4930719553
 30
0.0
 10
488.1501833211
 20
281.7247549149
 30
0.0
  0
SPLINE
  5
344
100
AcDbEntity
  8
PART
100
AcDbSpline
 62
7
  6
CONTINUOUS
 70
0
 71
3
 72
9
 73
5
 74
0
 42
0.0000001
 43
0.0000001
 44
0.0000000001
 40
0.0
 40
0.0
 40
0.0
 40
0.0
 40
0.4915000263
 40
1.0
 40
1.0
 40
1.0
 40
1.0
 10
485.1694431589
 20
282.0761741658
 30
0.0
 10
485.1908638088
 20
282.0972502884
 30
0.0
 10
485.2360586852
 20
282.1385155431
 30
0.0
 10
485.2839645427
 20
282.1765849286
 30
0.0
 10
485.3089055234
 20
282.1951468249
 30
0.0
  0
SPLINE
  5
345
100
AcDbEntity
  8
PART
100
AcDbSpline
 62
7
  6
CONTINUOUS
 70
0
 71
3
 72
9
 73
5
 74
0
 42
0.0000001
 43
0.0000001
 44
0.0000000001
 40
0.0
 40
0.0
 40
0.0
 40
0.0
 40
0.4927271042
 40
1.0
 40
1.0
 40
1.0
 40
1.0
 10
485.3089055234
 20
282.1951468249
 30
0.0
 10
485.3332184262
 20
282.213241285
 30
0.0
 10
485.3837067762
 20
282.2484460545
 30
0.0
 10
485.4361446832
 20
282.2806659991
 30
0.0
 10
485.4631663655
 20
282.2962668815
 30
0.0
  0
SPLINE
  5
346
100
AcDbEntity
  8
PART
100
AcDbSpline
 62
7
  6
CONTINUOUS
 70
0
 71
3
 72
8
 73
4
 74
0
 42
0.0000001
 43
0.0000001
 44
0.0000000001
 40
0.0
 40
0.0
 40
0.0
 40
0.0
 40
1.0
 40
1.0
 40
1.0
 40
1.0
 10
379.9006042181
 20
396.1955164282
 30
0.0
 10
379.9007491717
 20
396.0114027314
 30
0.0
 10
379.9937265252
 20
395.8238933109
 30
0.0
 10
380.1173975051
 20
395.6874991649
 30
0.0
  0
SPLINE
  5
347
100
AcDbEntity
  8
PART
100
AcDbSpline
 62
7
  6
CONTINUOUS
 70
0
 71
3
 72
9
 73
5
 74
0
 42
0.0000001
 43
0.0000001
 44
0.0000000001
 40
0.0
 40
0.0
 40
0.0
 40
0.0
 40
0.2165086474
 40
1.0
 40
1.0
 40
1.0
 40
1.0
 10
380.1173975051
 20
395.6874991649
 30
0.0
 10
380.1812139997
 20
395.6171172831
 30
0.0
 10
380.5182721937
 20
395.3304354436
 30
0.0
 10
380.9582348428
 20
395.1918458346
 30
0.0
 10
381.2977803251
 20
395.1379038708
 30
0.0
  0
SPLINE
  5
348
100
AcDbEntity
  8
PART
100
AcDbSpline
 62
7
  6
CONTINUOUS
 70
0
 71
3
 72
9
 73
5
 74
0
 42
0.0000001
 43
0.0000001
 44
0.0000000001
 40
0.0
 40
0.0
 40
0.0
 40
0.0
 40
0.2626957679
 40
1.0
 40
1.0
 40
1.0
 40
1.0
 10
381.2977803251
 20
395.1379038708
 30
0.0
 10
381.4608300242
 20
395.1120009464
 30
0.0
 10
382.0861382408
 20
395.0643933226
 30
0.0
 10
382.7427173684
 20
395.188343047
 30
0.0
 10
383.1440064211
 20
395.4200260067
 30
0.0
  0
SPLINE
  5
349
100
AcDbEntity
  8
PART
100
AcDbSpline
 62
7
  6
CONTINUOUS
 70
0
 71
3
 72
9
 73
5
 74
0
 42
0.0000001
 43
0.0000001
 44
0.0000000001
 40
0.0
 40
0.0
 40
0.0
 40
0.0
 40
0.4915000263
 40
1.0
 40
1.0
 40
1.0
 40
1.0
 10
380.163266259
 20
395.7714452575
 30
0.0
 10
380.1846869088
 20
395.7925213802
 30
0.0
 10
380.2298817852
 20
395.8337866349
 30
0.0
 10
380.2777876428
 20
395.8718560204
 30
0.0
 10
380.3027286235
 20
395.8904179167
 30
0.0
  0
SPLINE
  5
34A
100
AcDbEntity
  8
PART
100
AcDbSpline
 62
7
  6
CONTINUOUS
 70
0
 71
3
 72
9
 73
5
 74
0
 42
0.0000001
 43
0.0000001
 44
0.0000000001
 40
0.0
 40
0.0
 40
0.0
 40
0.0
 40
0.4927271042
 40
1.0
 40
1.0
 40
1.0
 40
1.0
 10
380.3027286235
 20
395.8904179167
 30
0.0
 10
380.3270415262
 20
395.9085123768
 30
0.0
 10
380.3775298762
 20
395.9437171462
 30
0.0
 10
380.4299677832
 20
395.9759370909
 30
0.0
 10
380.4569894656
 20
395.9915379733
 30
0.0
  0
SPLINE
  5
34B
100
AcDbEntity
  8
PART
100
AcDbSpline
 62
7
  6
CONTINUOUS
 70
0
 71
3
 72
8
 73
4
 74
0
 42
0.0000001
 43
0.0000001
 44
0.0000000001
 40
0.0
 40
0.0
 40
0.0
 40
0.0
 40
1.0
 40
1.0
 40
1.0
 40
1.0
 10
471.8244857716
 20
396.195737386
 30
0.0
 10
471.8246307252
 20
396.0116236893
 30
0.0
 10
471.9176080786
 20
395.8241142687
 30
0.0
 10
472.0412790585
 20
395.6877201227
 30
0.0
  0
SPLINE
  5
34C
100
AcDbEntity
  8
PART
100
AcDbSpline
 62
7
  6
CONTINUOUS
 70
0
 71
3
 72
9
 73
5
 74
0
 42
0.0000001
 43
0.0000001
 44
0.0000000001
 40
0.0
 40
0.0
 40
0.0
 40
0.0
 40
0.2165086474
 40
1.0
 40
1.0
 40
1.0
 40
1.0
 10
472.0412790585
 20
395.6877201227
 30
0.0
 10
472.1050955532
 20
395.6173382409
 30
0.0
 10
472.4421537471
 20
395.3306564015
 30
0.0
 10
472.8821163963
 20
395.1920667924
 30
0.0
 10
473.2216618785
 20
395.1381248286
 30
0.0
  0
SPLINE
  5
34D
100
AcDbEntity
  8
PART
100
AcDbSpline
 62
7
  6
CONTINUOUS
 70
0
 71
3
 72
9
 73
5
 74
0
 42
0.0000001
 43
0.0000001
 44
0.0000000001
 40
0.0
 40
0.0
 40
0.0
 40
0.0
 40
0.2626957679
 40
1.0
 40
1.0
 40
1.0
 40
1.0
 10
473.2216618785
 20
395.1381248286
 30
0.0
 10
473.3847115777
 20
395.1122219042
 30
0.0
 10
474.0100197943
 20
395.0646142804
 30
0.0
 10
474.6665989219
 20
395.1885640049
 30
0.0
 10
475.0678879746
 20
395.4202469645
 30
0.0
  0
SPLINE
  5
34E
100
AcDbEntity
  8
PART
100
AcDbSpline
 62
7
  6
CONTINUOUS
 70
0
 71
3
 72
9
 73
5
 74
0
 42
0.0000001
 43
0.0000001
 44
0.0000000001
 40
0.0
 40
0.0
 40
0.0
 40
0.0
 40
0.4915000263
 40
1.0
 40
1.0
 40
1.0
 40
1.0
 10
472.0871478124
 20
395.7716662153
 30
0.0
 10
472.1085684623
 20
395.792742338
 30
0.0
 10
472.1537633387
 20
395.8340075927
 30
0.0
 10
472.2016691963
 20
395.8720769782
 30
0.0
 10
472.2266101769
 20
395.8906388745
 30
0.0
  0
SPLINE
  5
34F
100
AcDbEntity
  8
PART
100
AcDbSpline
 62
7
  6
CONTINUOUS
 70
0
 71
3
 72
9
 73
5
 74
0
 42
0.0000001
 43
0.0000001
 44
0.0000000001
 40
0.0
 40
0.0
 40
0.0
 40
0.0
 40
0.4927271042
 40
1.0
 40
1.0
 40
1.0
 40
1.0
 10
472.2266101769
 20
395.8906388745
 30
0.0
 10
472.2509230797
 20
395.9087333346
 30
0.0
 10
472.3014114297
 20
395.9439381041
 30
0.0
 10
472.3538493367
 20
395.9761580487
 30
0.0
 10
472.380871019
 20
395.9917589311
 30
0.0
  0
SPLINE
  5
350
100
AcDbEntity
  8
PART
100
AcDbSpline
 62
7
  6
CONTINUOUS
 70
0
 71
3
 72
9
 73
5
 74
0
 42
0.0000001
 43
0.0000001
 44
0.0000000001
 40
0.0
 40
0.0
 40
0.0
 40
0.0
 40
0.3036435601
 40
1.0
 40
1.0
 40
1.0
 40
1.0
 10
187.1272164635
 20
350.9986423864
 30
0.0
 10
187.0635544576
 20
351.0141248262
 30
0.0
 10
186.8586419056
 20
351.0754688218
 30
0.0
 10
186.6525334518
 20
351.1792321891
 30
0.0
 10
186.5578104263
 20
351.2958673561
 30
0.0
  0
SPLINE
  5
351
100
AcDbEntity
  8
PART
100
AcDbSpline
 62
7
  6
CONTINUOUS
 70
0
 71
3
 72
8
 73
4
 74
0
 42
0.0000001
 43
0.0000001
 44
0.0000000001
 40
0.0
 40
0.0
 40
0.0
 40
0.0
 40
1.0
 40
1.0
 40
1.0
 40
1.0
 10
186.5578104263
 20
351.2958673561
 30
0.0
 10
186.5143512222
 20
351.3493799155
 30
0.0
 10
186.4826222915
 20
351.4195892514
 30
0.0
 10
186.4826222902
 20
351.4885261532
 30
0.0
  0
SPLINE
  5
352
100
AcDbEntity
  8
PART
100
AcDbSpline
 62
7
  6
CONTINUOUS
 70
0
 71
3
 72
8
 73
4
 74
0
 42
0.0000001
 43
0.0000001
 44
0.0000000001
 40
0.0
 40
0.0
 40
0.0
 40
0.0
 40
1.0
 40
1.0
 40
1.0
 40
1.0
 10
188.6828449054
 20
1166.6028913368
 30
0.0
 10
188.499613481
 20
1166.4971032561
 30
0.0
 10
188.3316209176
 20
1166.3631737432
 30
0.0
 10
188.1798009811
 20
1166.2158116728
 30
0.0
  0
SPLINE
  5
353
100
AcDbEntity
  8
PART
100
AcDbSpline
 62
7
  6
CONTINUOUS
 70
0
 71
3
 72
8
 73
4
 74
0
 42
0.0000001
 43
0.0000001
 44
0.0000000001
 40
0.0
 40
0.0
 40
0.0
 40
0.0
 40
1.0
 40
1.0
 40
1.0
 40
1.0
 10
188.1798009811
 20
1166.2158116728
 30
0.0
 10
187.945981903
 20
1165.9888581894
 30
0.0
 10
187.7457984533
 20
1165.7238691802
 30
0.0
 10
187.5828733473
 20
1165.4416730521
 30
0.0
  0
SPLINE
  5
354
100
AcDbEntity
  8
PART
100
AcDbSpline
 62
7
  6
CONTINUOUS
 70
0
 71
3
 72
8
 73
4
 74
0
 42
0.0000001
 43
0.0000001
 44
0.0000000001
 40
0.0
 40
0.0
 40
0.0
 40
0.0
 40
1.0
 40
1.0
 40
1.0
 40
1.0
 10
187.2199324874
 20
1164.5725622946
 30
0.0
 10
187.1627983542
 20
1164.3564696948
 30
0.0
 10
187.1272164635
 20
1164.1319669355
 30
0.0
 10
187.1272164635
 20
1163.9084488806
 30
0.0
  0
SPLINE
  5
355
100
AcDbEntity
  8
PART
100
AcDbSpline
 62
7
  6
CONTINUOUS
 70
0
 71
3
 72
8
 73
4
 74
0
 42
0.0000001
 43
0.0000001
 44
0.0000000001
 40
0.0
 40
0.0
 40
0.0
 40
0.0
 40
1.0
 40
1.0
 40
1.0
 40
1.0
 10
379.9009869338
 20
343.1239973827
 30
0.0
 10
379.9011318873
 20
342.9398836859
 30
0.0
 10
379.9941092408
 20
342.7523742654
 30
0.0
 10
380.1177802207
 20
342.6159801194
 30
0.0
  0
SPLINE
  5
356
100
AcDbEntity
  8
PART
100
AcDbSpline
 62
7
  6
CONTINUOUS
 70
0
 71
3
 72
9
 73
5
 74
0
 42
0.0000001
 43
0.0000001
 44
0.0000000001
 40
0.0
 40
0.0
 40
0.0
 40
0.0
 40
0.2165086474
 40
1.0
 40
1.0
 40
1.0
 40
1.0
 10
380.1177802207
 20
342.6159801194
 30
0.0
 10
380.1815967153
 20
342.5455982376
 30
0.0
 10
380.5186549093
 20
342.2589163982
 30
0.0
 10
380.9586175584
 20
342.1203267891
 30
0.0
 10
381.2981630407
 20
342.0663848253
 30
0.0
  0
SPLINE
  5
357
100
AcDbEntity
  8
PART
100
AcDbSpline
 62
7
  6
CONTINUOUS
 70
0
 71
3
 72
9
 73
5
 74
0
 42
0.0000001
 43
0.0000001
 44
0.0000000001
 40
0.0
 40
0.0
 40
0.0
 40
0.0
 40
0.2626957679
 40
1.0
 40
1.0
 40
1.0
 40
1.0
 10
381.2981630407
 20
342.0663848253
 30
0.0
 10
381.4612127399
 20
342.0404819009
 30
0.0
 10
382.0865209564
 20
341.9928742771
 30
0.0
 10
382.743100084
 20
342.1168240016
 30
0.0
 10
383.1443891367
 20
342.3485069612
 30
0.0
  0
SPLINE
  5
358
100
AcDbEntity
  8
PART
100
AcDbSpline
 62
7
  6
CONTINUOUS
 70
0
 71
3
 72
9
 73
5
 74
0
 42
0.0000001
 43
0.0000001
 44
0.0000000001
 40
0.0
 40
0.0
 40
0.0
 40
0.0
 40
0.4915000263
 40
1.0
 40
1.0
 40
1.0
 40
1.0
 10
380.1636489746
 20
342.699926212
 30
0.0
 10
380.1850696244
 20
342.7210023347
 30
0.0
 10
380.2302645009
 20
342.7622675894
 30
0.0
 10
380.2781703584
 20
342.8003369749
 30
0.0
 10
380.3031113391
 20
342.8188988712
 30
0.0
  0
SPLINE
  5
359
100
AcDbEntity
  8
PART
100
AcDbSpline
 62
7
  6
CONTINUOUS
 70
0
 71
3
 72
9
 73
5
 74
0
 42
0.0000001
 43
0.0000001
 44
0.0000000001
 40
0.0
 40
0.0
 40
0.0
 40
0.0
 40
0.4927271042
 40
1.0
 40
1.0
 40
1.0
 40
1.0
 10
380.3031113391
 20
342.8188988712
 30
0.0
 10
380.3274242418
 20
342.8369933313
 30
0.0
 10
380.3779125919
 20
342.8721981007
 30
0.0
 10
380.4303504988
 20
342.9044180454
 30
0.0
 10
380.4573721812
 20
342.9200189278
 30
0.0
  0
SPLINE
  5
35A
100
AcDbEntity
  8
PART
100
AcDbSpline
 62
7
  6
CONTINUOUS
 70
0
 71
3
 72
9
 73
5
 74
0
 42
0.0000001
 43
0.0000001
 44
0.0000000001
 40
0.0
 40
0.0
 40
0.0
 40
0.0
 40
0.2315936383
 40
1.0
 40
1.0
 40
1.0
 40
1.0
 10
609.8373972029
 20
922.474895044
 30
0.0
 10
609.7585055825
 20
922.4293472176
 30
0.0
 10
609.4478024923
 20
922.1842710878
 30
0.0
 10
609.2371658952
 20
921.8182531038
 30
0.0
 10
609.1657515428
 20
921.5245627077
 30
0.0
  0
SPLINE
  5
35B
100
AcDbEntity
  8
PART
100
AcDbSpline
 62
7
  6
CONTINUOUS
 70
0
 71
3
 72
8
 73
4
 74
0
 42
0.0000001
 43
0.0000001
 44
0.0000000001
 40
0.0
 40
0.0
 40
0.0
 40
0.0
 40
1.0
 40
1.0
 40
1.0
 40
1.0
 10
609.1657515428
 20
921.5245627077
 30
0.0
 10
609.1439592676
 20
921.4349423199
 30
0.0
 10
609.1302933657
 20
921.3423803393
 30
0.0
 10
609.1302933657
 20
921.250148473
 30
0.0
  0
SPLINE
  5
35C
100
AcDbEntity
  8
PART
100
AcDbSpline
 62
7
  6
CONTINUOUS
 70
0
 71
3
 72
11
 73
7
 74
0
 42
0.0000001
 43
0.0000001
 44
0.0000000001
 40
0.0
 40
0.0
 40
0.0
 40
0.0
 40
0.237887367
 40
0.5000012315
 40
0.76211441
 40
1.0
 40
1.0
 40
1.0
 40
1.0
 10
459.3856215312
 20
412.2281464864
 30
0.0
 10
454.8768867442
 20
414.8132796634
 30
0.0
 10
444.4382582057
 20
418.5871802899
 30
0.0
 10
427.7621974989
 20
420.3933846986
 30
0.0
 10
411.0861874827
 20
418.5870738912
 30
0.0
 10
400.6476370441
 20
414.8131127709
 30
0.0
 10
396.138958705
 20
412.2279591939
 30
0.0
  0
SPLINE
  5
35D
100
AcDbEntity
  8
PART
100
AcDbSpline
 62
7
  6
CONTINUOUS
 70
0
 71
3
 72
9
 73
5
 74
0
 42
0.0000001
 43
0.0000001
 44
0.0000000001
 40
0.0
 40
0.0
 40
0.0
 40
0.0
 40
0.2844936957
 40
1.0
 40
1.0
 40
1.0
 40
1.0
 10
189.6474746089
 20
1139.7876074012
 30
0.0
 10
189.56196246
 20
1139.7878602101
 30
0.0
 10
189.262243823
 20
1139.777889837
 30
0.0
 10
188.9586647712
 20
1139.7172179136
 30
0.0
 10
188.7643073709
 20
1139.6251400932
 30
0.0
  0
SPLINE
  5
35E
100
AcDbEntity
  8
PART
100
AcDbSpline
 62
7
  6
CONTINUOUS
 70
0
 71
3
 72
9
 73
5
 74
0
 42
0.0000001
 43
0.0000001
 44
0.0000000001
 40
0.0
 40
0.0
 40
0.0
 40
0.0
 40
0.1902505382
 40
1.0
 40
1.0
 40
1.0
 40
1.0
 10
381.1053366419
 20
463.6847171397
 30
0.0
 10
381.105350984
 20
463.6463755845
 30
0.0
 10
381.1736146703
 20
463.4417930064
 30
0.0
 10
381.4247749297
 20
463.3996558212
 30
0.0
 10
381.5865794876
 20
463.378433615
 30
0.0
  0
SPLINE
  5
35F
100
AcDbEntity
  8
PART
100
AcDbSpline
 62
7
  6
CONTINUOUS
 70
0
 71
3
 72
9
 73
5
 74
0
 42
0.0000001
 43
0.0000001
 44
0.0000000001
 40
0.0
 40
0.0
 40
0.0
 40
0.0
 40
0.4848336919
 40
1.0
 40
1.0
 40
1.0
 40
1.0
 10
381.5865794876
 20
463.378433615
 30
0.0
 10
381.613109523
 20
463.3749539487
 30
0.0
 10
381.6679916518
 20
463.3689854155
 30
0.0
 10
381.7230523473
 20
463.3650608269
 30
0.0
 10
381.7514401235
 20
463.3634887883
 30
0.0
  0
SPLINE
  5
360
100
AcDbEntity
  8
PART
100
AcDbSpline
 62
7
  6
CONTINUOUS
 70
0
 71
3
 72
8
 73
4
 74
0
 42
0.0000001
 43
0.0000001
 44
0.0000000001
 40
0.0
 40
0.0
 40
0.0
 40
0.0
 40
1.0
 40
1.0
 40
1.0
 40
1.0
 10
381.7514401235
 20
463.3634887883
 30
0.0
 10
381.848585418
 20
463.3581091435
 30
0.0
 10
381.9460707934
 20
463.3577297715
 30
0.0
 10
382.0433115169
 20
463.3609532042
 30
0.0
  0
SPLINE
  5
361
100
AcDbEntity
  8
PART
100
AcDbSpline
 62
7
  6
CONTINUOUS
 70
0
 71
3
 72
9
 73
5
 74
0
 42
0.0000001
 43
0.0000001
 44
0.0000000001
 40
0.0
 40
0.0
 40
0.0
 40
0.0
 40
0.7583422201
 40
1.0
 40
1.0
 40
1.0
 40
1.0
 10
192.8882817724
 20
354.3250474496
 30
0.0
 10
192.4739583062
 20
353.8574347567
 30
0.0
 10
191.7406557964
 20
353.3964097127
 30
0.0
 10
190.956760968
 20
353.1464278418
 30
0.0
 10
190.763567257
 20
353.0983347583
 30
0.0
  0
SPLINE
  5
362
100
AcDbEntity
  8
PART
100
AcDbSpline
 62
7
  6
CONTINUOUS
 70
0
 71
3
 72
8
 73
4
 74
0
 42
0.0000001
 43
0.0000001
 44
0.0000000001
 40
0.0
 40
0.0
 40
0.0
 40
0.0
 40
1.0
 40
1.0
 40
1.0
 40
1.0
 10
199.9926623156
 20
1141.1196287386
 30
0.0
 10
199.9633959208
 20
1141.2317602899
 30
0.0
 10
199.933959976
 20
1141.3438640676
 30
0.0
 10
199.9023348877
 20
1141.4553533517
 30
0.0
  0
SPLINE
  5
363
100
AcDbEntity
  8
PART
100
AcDbSpline
 62
7
  6
CONTINUOUS
 70
0
 71
3
 72
8
 73
4
 74
0
 42
0.0000001
 43
0.0000001
 44
0.0000000001
 40
0.0
 40
0.0
 40
0.0
 40
0.0
 40
1.0
 40
1.0
 40
1.0
 40
1.0
 10
199.9023348877
 20
1141.4553533517
 30
0.0
 10
199.8303369569
 20
1141.7091707535
 30
0.0
 10
199.7468106366
 20
1141.9606382067
 30
0.0
 10
199.6426060717
 20
1142.2030188663
 30
0.0
  0
SPLINE
  5
364
100
AcDbEntity
  8
PART
100
AcDbSpline
 62
7
  6
CONTINUOUS
 70
0
 71
3
 72
8
 73
4
 74
0
 42
0.0000001
 43
0.0000001
 44
0.0000000001
 40
0.0
 40
0.0
 40
0.0
 40
0.0
 40
1.0
 40
1.0
 40
1.0
 40
1.0
 10
199.6426060717
 20
1142.2030188663
 30
0.0
 10
199.5277746556
 20
1142.4701176678
 30
0.0
 10
199.3876369414
 20
1142.7286559026
 30
0.0
 10
199.2187927635
 20
1142.9653406454
 30
0.0
  0
SPLINE
  5
365
100
AcDbEntity
  8
PART
100
AcDbSpline
 62
7
  6
CONTINUOUS
 70
0
 71
3
 72
8
 73
4
 74
0
 42
0.0000001
 43
0.0000001
 44
0.0000000001
 40
0.0
 40
0.0
 40
0.0
 40
0.0
 40
1.0
 40
1.0
 40
1.0
 40
1.0
 10
186.4828926298
 20
1164.8065861552
 30
0.0
 10
186.4828926707
 20
1164.9730931212
 30
0.0
 10
186.5463501454
 20
1165.1436371029
 30
0.0
 10
186.6415592728
 20
1165.2802379512
 30
0.0
  0
SPLINE
  5
366
100
AcDbEntity
  8
PART
100
AcDbSpline
 62
7
  6
CONTINUOUS
 70
0
 71
3
 72
8
 73
4
 74
0
 42
0.0000001
 43
0.0000001
 44
0.0000000001
 40
0.0
 40
0.0
 40
0.0
 40
0.0
 40
1.0
 40
1.0
 40
1.0
 40
1.0
 10
186.6415592728
 20
1165.2802379512
 30
0.0
 10
186.7644978316
 20
1165.4566234707
 30
0.0
 10
186.9410062785
 20
1165.597215299
 30
0.0
 10
187.1272035101
 20
1165.7047156791
 30
0.0
  0
SPLINE
  5
367
100
AcDbEntity
  8
PART
100
AcDbSpline
 62
7
  6
CONTINUOUS
 70
0
 71
3
 72
8
 73
4
 74
0
 42
0.0000001
 43
0.0000001
 44
0.0000000001
 40
0.0
 40
0.0
 40
0.0
 40
0.0
 40
1.0
 40
1.0
 40
1.0
 40
1.0
 10
805.9993228992
 20
1036.382887516
 30
0.0
 10
806.0809918668
 20
1036.33498894
 30
0.0
 10
806.1480047167
 20
1036.2578167575
 30
0.0
 10
806.191463006
 20
1036.1737009388
 30
0.0
  0
SPLINE
  5
368
100
AcDbEntity
  8
PART
100
AcDbSpline
 62
7
  6
CONTINUOUS
 70
0
 71
3
 72
9
 73
5
 74
0
 42
0.0000001
 43
0.0000001
 44
0.0000000001
 40
0.0
 40
0.0
 40
0.0
 40
0.0
 40
0.7156456491
 40
1.0
 40
1.0
 40
1.0
 40
1.0
 10
806.191463006
 20
1036.1737009388
 30
0.0
 10
806.2639799465
 20
1036.0333405632
 30
0.0
 10
806.2937679445
 20
1035.8005270479
 30
0.0
 10
806.2665617306
 20
1035.5823294867
 30
0.0
 10
806.2551476256
 20
1035.5206016074
 30
0.0
  0
SPLINE
  5
369
100
AcDbEntity
  8
PART
100
AcDbSpline
 62
7
  6
CONTINUOUS
 70
0
 71
3
 72
9
 73
5
 74
0
 42
0.0000001
 43
0.0000001
 44
0.0000000001
 40
0.0
 40
0.0
 40
0.0
 40
0.0
 40
0.7194089648
 40
1.0
 40
1.0
 40
1.0
 40
1.0
 10
806.4218808002
 20
219.7057308816
 30
0.0
 10
806.5862595745
 20
219.8006343331
 30
0.0
 10
806.7591254428
 20
220.0343802844
 30
0.0
 10
806.8287219131
 20
220.287920808
 30
0.0
 10
806.8435952088
 20
220.3604421168
 30
0.0
  0
SPLINE
  5
36A
100
AcDbEntity
  8
PART
100
AcDbSpline
 62
7
  6
CONTINUOUS
 70
0
 71
3
 72
8
 73
4
 74
0
 42
0.0000001
 43
0.0000001
 44
0.0000000001
 40
0.0
 40
0.0
 40
0.0
 40
0.0
 40
1.0
 40
1.0
 40
1.0
 40
1.0
 10
806.8435952088
 20
220.3604421168
 30
0.0
 10
806.8673028245
 20
220.4760390473
 30
0.0
 10
806.8775512267
 20
220.5948157918
 30
0.0
 10
806.8775512267
 20
220.7128187637
 30
0.0
  0
SPLINE
  5
36B
100
AcDbEntity
  8
PART
100
AcDbSpline
 62
7
  6
CONTINUOUS
 70
0
 71
3
 72
9
 73
5
 74
0
 42
0.0000001
 43
0.0000001
 44
0.0000000001
 40
0.0
 40
0.0
 40
0.0
 40
0.0
 40
0.2853187637
 40
1.0
 40
1.0
 40
1.0
 40
1.0
 10
806.6594461672
 20
1034.826642947
 30
0.0
 10
806.7191725451
 20
1034.8043441782
 30
0.0
 10
806.9227556706
 20
1034.7149577104
 30
0.0
 10
807.1117776892
 20
1034.5701509266
 30
0.0
 10
807.195311257
 20
1034.4340487194
 30
0.0
  0
SPLINE
  5
36C
100
AcDbEntity
  8
PART
100
AcDbSpline
 62
7
  6
CONTINUOUS
 70
0
 71
3
 72
8
 73
4
 74
0
 42
0.0000001
 43
0.0000001
 44
0.0000000001
 40
0.0
 40
0.0
 40
0.0
 40
0.0
 40
1.0
 40
1.0
 40
1.0
 40
1.0
 10
807.195311257
 20
1034.4340487194
 30
0.0
 10
807.2424110661
 20
1034.3573084564
 30
0.0
 10
807.2723184098
 20
1034.2653095098
 30
0.0
 10
807.2727729362
 20
1034.1752692221
 30
0.0
  0
SPLINE
  5
36D
100
AcDbEntity
  8
PART
100
AcDbSpline
 62
7
  6
CONTINUOUS
 70
0
 71
3
 72
9
 73
5
 74
0
 42
0.0000001
 43
0.0000001
 44
0.0000000001
 40
0.0
 40
0.0
 40
0.0
 40
0.0
 40
0.5085611077
 40
1.0
 40
1.0
 40
1.0
 40
1.0
 10
806.9700545936
 20
220.7722482259
 30
0.0
 10
806.9887633066
 20
220.7856171977
 30
0.0
 10
807.024714212
 20
220.813100339
 30
0.0
 10
807.0586741701
 20
220.8430191366
 30
0.0
 10
807.0747800314
 20
220.8583273819
 30
0.0
  0
SPLINE
  5
36E
100
AcDbEntity
  8
PART
100
AcDbSpline
 62
7
  6
CONTINUOUS
 70
0
 71
3
 72
8
 73
4
 74
0
 42
0.0000001
 43
0.0000001
 44
0.0000000001
 40
0.0
 40
0.0
 40
0.0
 40
0.0
 40
1.0
 40
1.0
 40
1.0
 40
1.0
 10
807.0747800314
 20
220.8583273819
 30
0.0
 10
807.1683343641
 20
220.947248592
 30
0.0
 10
807.2478124514
 20
221.0666219539
 30
0.0
 10
807.2674809686
 20
221.1941858368
 30
0.0
  0
SPLINE
  5
36F
100
AcDbEntity
  8
PART
100
AcDbSpline
 62
7
  6
CONTINUOUS
 70
0
 71
3
 72
9
 73
5
 74
0
 42
0.0000001
 43
0.0000001
 44
0.0000000001
 40
0.0
 40
0.0
 40
0.0
 40
0.0
 40
0.190412821
 40
1.0
 40
1.0
 40
1.0
 40
1.0
 10
381.7084297688
 20
462.6464348903
 30
0.0
 10
381.6754637717
 20
462.6654800453
 30
0.0
 10
381.5333845449
 20
462.8253835925
 30
0.0
 10
381.6209732022
 20
463.0622292684
 30
0.0
 10
381.6826696323
 20
463.2118829409
 30
0.0
  0
SPLINE
  5
370
100
AcDbEntity
  8
PART
100
AcDbSpline
 62
7
  6
CONTINUOUS
 70
0
 71
3
 72
9
 73
5
 74
0
 42
0.0000001
 43
0.0000001
 44
0.0000000001
 40
0.0
 40
0.0
 40
0.0
 40
0.0
 40
0.4846952147
 40
1.0
 40
1.0
 40
1.0
 40
1.0
 10
381.6826696323
 20
463.2118829409
 30
0.0
 10
381.6929132485
 20
463.2367303232
 30
0.0
 10
381.715205555
 20
463.2875210141
 30
0.0
 10
381.7394090435
 20
463.3374231048
 30
0.0
 10
381.7522937415
 20
463.3629264795
 30
0.0
  0
SPLINE
  5
371
100
AcDbEntity
  8
PART
100
AcDbSpline
 62
7
  6
CONTINUOUS
 70
0
 71
3
 72
8
 73
4
 74
0
 42
0.0000001
 43
0.0000001
 44
0.0000000001
 40
0.0
 40
0.0
 40
0.0
 40
0.0
 40
1.0
 40
1.0
 40
1.0
 40
1.0
 10
381.7522937415
 20
463.3629264795
 30
0.0
 10
381.8224587639
 20
463.5018078765
 30
0.0
 10
381.9040214158
 20
463.6351402228
 30
0.0
 10
381.9920167359
 20
463.7634679145
 30
0.0
  0
SPLINE
  5
372
100
AcDbEntity
  8
PART
100
AcDbSpline
 62
7
  6
CONTINUOUS
 70
0
 71
3
 72
9
 73
5
 74
0
 42
0.0000001
 43
0.0000001
 44
0.0000000001
 40
0.0
 40
0.0
 40
0.0
 40
0.0
 40
0.1794796077
 40
1.0
 40
1.0
 40
1.0
 40
1.0
 10
187.2291916398
 20
350.1954437731
 30
0.0
 10
187.1853871633
 20
350.2207337307
 30
0.0
 10
186.990886875
 20
350.4458028836
 30
0.0
 10
187.0621982415
 20
350.7767330296
 30
0.0
 10
187.1272164635
 20
350.9986423865
 30
0.0
  0
SPLINE
  5
373
100
AcDbEntity
  8
PART
100
AcDbSpline
 62
7
  6
CONTINUOUS
 70
0
 71
3
 72
8
 73
4
 74
0
 42
0.0000001
 43
0.0000001
 44
0.0000000001
 40
0.0
 40
0.0
 40
0.0
 40
0.0
 40
1.0
 40
1.0
 40
1.0
 40
1.0
 10
588.0702295672
 20
121.4098675442
 30
0.0
 10
588.2252875521
 20
121.517051249
 30
0.0
 10
588.3572041459
 20
121.659004269
 30
0.0
 10
588.4691978043
 20
121.8106246692
 30
0.0
  0
SPLINE
  5
374
100
AcDbEntity
  8
PART
100
AcDbSpline
 62
7
  6
CONTINUOUS
 70
0
 71
3
 72
8
 73
4
 74
0
 42
0.0000001
 43
0.0000001
 44
0.0000000001
 40
0.0
 40
0.0
 40
0.0
 40
0.0
 40
1.0
 40
1.0
 40
1.0
 40
1.0
 10
588.4691978043
 20
121.8106246692
 30
0.0
 10
588.5359559613
 20
121.9010038802
 30
0.0
 10
588.5965997164
 20
121.996044786
 30
0.0
 10
588.6524885193
 20
122.0935203985
 30
0.0
  0
SPLINE
  5
375
100
AcDbEntity
  8
PART
100
AcDbSpline
 62
7
  6
CONTINUOUS
 70
0
 71
3
 72
9
 73
5
 74
0
 42
0.0000001
 43
0.0000001
 44
0.0000000001
 40
0.0
 40
0.0
 40
0.0
 40
0.0
 40
0.2287495305
 40
1.0
 40
1.0
 40
1.0
 40
1.0
 10
380.4573721812
 20
342.9200189278
 30
0.0
 10
380.5810394814
 20
342.9914178507
 30
0.0
 10
381.1582972039
 20
343.2373711045
 30
0.0
 10
381.8134563825
 20
343.2776972999
 30
0.0
 10
382.2892993945
 20
343.2043782374
 30
0.0
  0
SPLINE
  5
376
100
AcDbEntity
  8
PART
100
AcDbSpline
 62
7
  6
CONTINUOUS
 70
0
 71
3
 72
9
 73
5
 74
0
 42
0.0000001
 43
0.0000001
 44
0.0000000001
 40
0.0
 40
0.0
 40
0.0
 40
0.0
 40
0.2828788364
 40
1.0
 40
1.0
 40
1.0
 40
1.0
 10
382.2892993945
 20
343.2043782374
 30
0.0
 10
382.4128823552
 20
343.1853362706
 30
0.0
 10
382.842312332
 20
343.0918215385
 30
0.0
 10
383.2692024677
 20
342.8884995157
 30
0.0
 10
383.4825961471
 20
342.6540940685
 30
0.0
  0
SPLINE
  5
377
100
AcDbEntity
  8
PART
100
AcDbSpline
 62
7
  6
CONTINUOUS
 70
0
 71
3
 72
9
 73
5
 74
0
 42
0.0000001
 43
0.0000001
 44
0.0000000001
 40
0.0
 40
0.0
 40
0.0
 40
0.0
 40
0.2287495305
 40
1.0
 40
1.0
 40
1.0
 40
1.0
 10
472.380871019
 20
395.9917589311
 30
0.0
 10
472.5045383192
 20
396.063157854
 30
0.0
 10
473.0817960417
 20
396.3091111078
 30
0.0
 10
473.7369552203
 20
396.3494373032
 30
0.0
 10
474.2127982323
 20
396.2761182407
 30
0.0
  0
SPLINE
  5
378
100
AcDbEntity
  8
PART
100
AcDbSpline
 62
7
  6
CONTINUOUS
 70
0
 71
3
 72
9
 73
5
 74
0
 42
0.0000001
 43
0.0000001
 44
0.0000000001
 40
0.0
 40
0.0
 40
0.0
 40
0.0
 40
0.2828788364
 40
1.0
 40
1.0
 40
1.0
 40
1.0
 10
474.2127982323
 20
396.2761182407
 30
0.0
 10
474.336381193
 20
396.2570762739
 30
0.0
 10
474.7658111699
 20
396.1635615418
 30
0.0
 10
475.1927013055
 20
395.960239519
 30
0.0
 10
475.406094985
 20
395.7258340718
 30
0.0
  0
SPLINE
  5
379
100
AcDbEntity
  8
PART
100
AcDbSpline
 62
7
  6
CONTINUOUS
 70
0
 71
3
 72
9
 73
5
 74
0
 42
0.0000001
 43
0.0000001
 44
0.0000000001
 40
0.0
 40
0.0
 40
0.0
 40
0.0
 40
0.2287495305
 40
1.0
 40
1.0
 40
1.0
 40
1.0
 10
380.4569894656
 20
395.9915379733
 30
0.0
 10
380.5806567658
 20
396.0629368962
 30
0.0
 10
381.1579144883
 20
396.30889015
 30
0.0
 10
381.8130736668
 20
396.3492163454
 30
0.0
 10
382.2889166789
 20
396.2758972829
 30
0.0
  0
SPLINE
  5
37A
100
AcDbEntity
  8
PART
100
AcDbSpline
 62
7
  6
CONTINUOUS
 70
0
 71
3
 72
9
 73
5
 74
0
 42
0.0000001
 43
0.0000001
 44
0.0000000001
 40
0.0
 40
0.0
 40
0.0
 40
0.0
 40
0.2828788364
 40
1.0
 40
1.0
 40
1.0
 40
1.0
 10
382.2889166789
 20
396.2758972829
 30
0.0
 10
382.4124996396
 20
396.2568553161
 30
0.0
 10
382.8419296164
 20
396.163340584
 30
0.0
 10
383.268819752
 20
395.9600185612
 30
0.0
 10
383.4822134315
 20
395.725613114
 30
0.0
  0
SPLINE
  5
37B
100
AcDbEntity
  8
PART
100
AcDbSpline
 62
7
  6
CONTINUOUS
 70
0
 71
3
 72
9
 73
5
 74
0
 42
0.0000001
 43
0.0000001
 44
0.0000000001
 40
0.0
 40
0.0
 40
0.0
 40
0.0
 40
0.2287495305
 40
1.0
 40
1.0
 40
1.0
 40
1.0
 10
485.4631663655
 20
282.2962668815
 30
0.0
 10
485.5868336657
 20
282.3676658044
 30
0.0
 10
486.1640913882
 20
282.6136190582
 30
0.0
 10
486.8192505668
 20
282.6539452536
 30
0.0
 10
487.2950935788
 20
282.5806261911
 30
0.0
  0
SPLINE
  5
37C
100
AcDbEntity
  8
PART
100
AcDbSpline
 62
7
  6
CONTINUOUS
 70
0
 71
3
 72
9
 73
5
 74
0
 42
0.0000001
 43
0.0000001
 44
0.0000000001
 40
0.0
 40
0.0
 40
0.0
 40
0.0
 40
0.2828788364
 40
1.0
 40
1.0
 40
1.0
 40
1.0
 10
487.2950935788
 20
282.5806261911
 30
0.0
 10
487.4186765395
 20
282.5615842243
 30
0.0
 10
487.8481065164
 20
282.4680694922
 30
0.0
 10
488.274996652
 20
282.2647474694
 30
0.0
 10
488.4883903315
 20
282.0303420222
 30
0.0
  0
SPLINE
  5
37D
100
AcDbEntity
  8
PART
100
AcDbSpline
 62
7
  6
CONTINUOUS
 70
0
 71
3
 72
9
 73
5
 74
0
 42
0.0000001
 43
0.0000001
 44
0.0000000001
 40
0.0
 40
0.0
 40
0.0
 40
0.0
 40
0.2287495305
 40
1.0
 40
1.0
 40
1.0
 40
1.0
 10
577.3866652033
 20
335.3680068849
 30
0.0
 10
577.5103325036
 20
335.4394058077
 30
0.0
 10
578.087590226
 20
335.6853590615
 30
0.0
 10
578.7427494046
 20
335.7256852569
 30
0.0
 10
579.2185924166
 20
335.6523661944
 30
0.0
  0
SPLINE
  5
37E
100
AcDbEntity
  8
PART
100
AcDbSpline
 62
7
  6
CONTINUOUS
 70
0
 71
3
 72
9
 73
5
 74
0
 42
0.0000001
 43
0.0000001
 44
0.0000000001
 40
0.0
 40
0.0
 40
0.0
 40
0.0
 40
0.2828788364
 40
1.0
 40
1.0
 40
1.0
 40
1.0
 10
579.2185924166
 20
335.6523661944
 30
0.0
 10
579.3421753774
 20
335.6333242276
 30
0.0
 10
579.7716053542
 20
335.5398094955
 30
0.0
 10
580.1984954898
 20
335.3364874727
 30
0.0
 10
580.4118891693
 20
335.1020820255
 30
0.0
  0
SPLINE
  5
37F
100
AcDbEntity
  8
PART
100
AcDbSpline
 62
7
  6
CONTINUOUS
 70
0
 71
3
 72
11
 73
7
 74
0
 42
0.0000001
 43
0.0000001
 44
0.0000000001
 40
0.0
 40
0.0
 40
0.0
 40
0.0
 40
0.2372398078
 40
0.4999994051
 40
0.7627593222
 40
1.0
 40
1.0
 40
1.0
 40
1.0
 10
406.5491616855
 20
405.4220013833
 30
0.0
 10
409.5608341907
 20
407.1607809357
 30
0.0
 10
416.5644398301
 20
409.6980714135
 30
0.0
 10
427.7623291935
 20
410.913715818
 30
0.0
 10
438.9602370786
 20
409.6981234738
 30
0.0
 10
445.9638724688
 20
407.1608675746
 30
0.0
 10
448.9755685563
 20
405.4221033638
 30
0.0
  0
SPLINE
  5
380
100
AcDbEntity
  8
PART
100
AcDbSpline
 62
7
  6
CONTINUOUS
 70
0
 71
3
 72
9
 73
5
 74
0
 42
0.0000001
 43
0.0000001
 44
0.0000000001
 40
0.0
 40
0.0
 40
0.0
 40
0.0
 40
0.5072883806
 40
1.0
 40
1.0
 40
1.0
 40
1.0
 10
383.1443891367
 20
342.3485069612
 30
0.0
 10
383.1714516319
 20
342.3641314068
 30
0.0
 10
383.2239661712
 20
342.3964007745
 30
0.0
 10
383.2745255038
 20
342.4316631922
 30
0.0
 10
383.2988708193
 20
342.4497876212
 30
0.0
  0
SPLINE
  5
381
100
AcDbEntity
  8
PART
100
AcDbSpline
 62
7
  6
CONTINUOUS
 70
0
 71
3
 72
9
 73
5
 74
0
 42
0.0000001
 43
0.0000001
 44
0.0000000001
 40
0.0
 40
0.0
 40
0.0
 40
0.0
 40
0.5086580958
 40
1.0
 40
1.0
 40
1.0
 40
1.0
 10
383.2988708193
 20
342.4497876212
 30
0.0
 10
383.3242220602
 20
342.4686609345
 30
0.0
 10
383.3728814937
 20
342.5073830629
 30
0.0
 10
383.4187320216
 20
342.5494083903
 30
0.0
 10
383.4404367572
 20
342.5708778903
 30
0.0
  0
SPLINE
  5
382
100
AcDbEntity
  8
PART
100
AcDbSpline
 62
7
  6
CONTINUOUS
 70
0
 71
3
 72
8
 73
4
 74
0
 42
0.0000001
 43
0.0000001
 44
0.0000000001
 40
0.0
 40
0.0
 40
0.0
 40
0.0
 40
1.0
 40
1.0
 40
1.0
 40
1.0
 10
383.4404367572
 20
342.5708778903
 30
0.0
 10
383.5853817255
 20
342.7142519468
 30
0.0
 10
383.7009348962
 20
342.9204561065
 30
0.0
 10
383.7007743842
 20
343.1243314069
 30
0.0
  0
SPLINE
  5
383
100
AcDbEntity
  8
PART
100
AcDbSpline
 62
7
  6
CONTINUOUS
 70
0
 71
3
 72
9
 73
5
 74
0
 42
0.0000001
 43
0.0000001
 44
0.0000000001
 40
0.0
 40
0.0
 40
0.0
 40
0.0
 40
0.5072883806
 40
1.0
 40
1.0
 40
1.0
 40
1.0
 10
475.0678879746
 20
395.4202469645
 30
0.0
 10
475.0949504697
 20
395.4358714101
 30
0.0
 10
475.147465009
 20
395.4681407778
 30
0.0
 10
475.1980243416
 20
395.5034031955
 30
0.0
 10
475.2223696571
 20
395.5215276245
 30
0.0
  0
SPLINE
  5
384
100
AcDbEntity
  8
PART
100
AcDbSpline
 62
7
  6
CONTINUOUS
 70
0
 71
3
 72
9
 73
5
 74
0
 42
0.0000001
 43
0.0000001
 44
0.0000000001
 40
0.0
 40
0.0
 40
0.0
 40
0.0
 40
0.5086580958
 40
1.0
 40
1.0
 40
1.0
 40
1.0
 10
475.2223696571
 20
395.5215276245
 30
0.0
 10
475.2477208981
 20
395.5404009378
 30
0.0
 10
475.2963803315
 20
395.5791230662
 30
0.0
 10
475.3422308595
 20
395.6211483936
 30
0.0
 10
475.3639355951
 20
395.6426178936
 30
0.0
  0
SPLINE
  5
385
100
AcDbEntity
  8
PART
100
AcDbSpline
 62
7
  6
CONTINUOUS
 70
0
 71
3
 72
8
 73
4
 74
0
 42
0.0000001
 43
0.0000001
 44
0.0000000001
 40
0.0
 40
0.0
 40
0.0
 40
0.0
 40
1.0
 40
1.0
 40
1.0
 40
1.0
 10
475.3639355951
 20
395.6426178936
 30
0.0
 10
475.5088805633
 20
395.7859919501
 30
0.0
 10
475.624433734
 20
395.9921961098
 30
0.0
 10
475.624273222
 20
396.1960714102
 30
0.0
  0
SPLINE
  5
386
100
AcDbEntity
  8
PART
100
AcDbSpline
 62
7
  6
CONTINUOUS
 70
0
 71
3
 72
9
 73
5
 74
0
 42
0.0000001
 43
0.0000001
 44
0.0000000001
 40
0.0
 40
0.0
 40
0.0
 40
0.0
 40
0.5072883806
 40
1.0
 40
1.0
 40
1.0
 40
1.0
 10
383.1440064211
 20
395.4200260067
 30
0.0
 10
383.1710689163
 20
395.4356504523
 30
0.0
 10
383.2235834555
 20
395.46791982
 30
0.0
 10
383.2741427882
 20
395.5031822377
 30
0.0
 10
383.2984881036
 20
395.5213066667
 30
0.0
  0
SPLINE
  5
387
100
AcDbEntity
  8
PART
100
AcDbSpline
 62
7
  6
CONTINUOUS
 70
0
 71
3
 72
9
 73
5
 74
0
 42
0.0000001
 43
0.0000001
 44
0.0000000001
 40
0.0
 40
0.0
 40
0.0
 40
0.0
 40
0.5086580958
 40
1.0
 40
1.0
 40
1.0
 40
1.0
 10
383.2984881036
 20
395.5213066667
 30
0.0
 10
383.3238393446
 20
395.54017998
 30
0.0
 10
383.3724987781
 20
395.5789021084
 30
0.0
 10
383.418349306
 20
395.6209274358
 30
0.0
 10
383.4400540416
 20
395.6423969358
 30
0.0
  0
SPLINE
  5
388
100
AcDbEntity
  8
PART
100
AcDbSpline
 62
7
  6
CONTINUOUS
 70
0
 71
3
 72
8
 73
4
 74
0
 42
0.0000001
 43
0.0000001
 44
0.0000000001
 40
0.0
 40
0.0
 40
0.0
 40
0.0
 40
1.0
 40
1.0
 40
1.0
 40
1.0
 10
383.4400540416
 20
395.6423969358
 30
0.0
 10
383.5849990098
 20
395.7857709923
 30
0.0
 10
383.7005521805
 20
395.9919751519
 30
0.0
 10
383.7003916685
 20
396.1958504524
 30
0.0
  0
SPLINE
  5
389
100
AcDbEntity
  8
PART
100
AcDbSpline
 62
7
  6
CONTINUOUS
 70
0
 71
3
 72
9
 73
5
 74
0
 42
0.0000001
 43
0.0000001
 44
0.0000000001
 40
0.0
 40
0.0
 40
0.0
 40
0.0
 40
0.5072883806
 40
1.0
 40
1.0
 40
1.0
 40
1.0
 10
488.1501833211
 20
281.7247549149
 30
0.0
 10
488.1772458162
 20
281.7403793605
 30
0.0
 10
488.2297603555
 20
281.7726487282
 30
0.0
 10
488.2803196881
 20
281.8079111459
 30
0.0
 10
488.3046650036
 20
281.8260355749
 30
0.0
  0
SPLINE
  5
38A
100
AcDbEntity
  8
PART
100
AcDbSpline
 62
7
  6
CONTINUOUS
 70
0
 71
3
 72
9
 73
5
 74
0
 42
0.0000001
 43
0.0000001
 44
0.0000000001
 40
0.0
 40
0.0
 40
0.0
 40
0.0
 40
0.5086580958
 40
1.0
 40
1.0
 40
1.0
 40
1.0
 10
488.3046650036
 20
281.8260355749
 30
0.0
 10
488.3300162445
 20
281.8449088882
 30
0.0
 10
488.378675678
 20
281.8836310166
 30
0.0
 10
488.424526206
 20
281.9256563441
 30
0.0
 10
488.4462309416
 20
281.947125844
 30
0.0
  0
SPLINE
  5
38B
100
AcDbEntity
  8
PART
100
AcDbSpline
 62
7
  6
CONTINUOUS
 70
0
 71
3
 72
8
 73
4
 74
0
 42
0.0000001
 43
0.0000001
 44
0.0000000001
 40
0.0
 40
0.0
 40
0.0
 40
0.0
 40
1.0
 40
1.0
 40
1.0
 40
1.0
 10
488.4462309416
 20
281.947125844
 30
0.0
 10
488.5911759098
 20
282.0904999005
 30
0.0
 10
488.7067290805
 20
282.2967040602
 30
0.0
 10
488.7065685685
 20
282.5005793606
 30
0.0
  0
SPLINE
  5
38C
100
AcDbEntity
  8
PART
100
AcDbSpline
 62
7
  6
CONTINUOUS
 70
0
 71
3
 72
9
 73
5
 74
0
 42
0.0000001
 43
0.0000001
 44
0.0000000001
 40
0.0
 40
0.0
 40
0.0
 40
0.0
 40
0.5072883806
 40
1.0
 40
1.0
 40
1.0
 40
1.0
 10
580.0736821589
 20
334.7964949182
 30
0.0
 10
580.1007446541
 20
334.8121193638
 30
0.0
 10
580.1532591933
 20
334.8443887315
 30
0.0
 10
580.2038185259
 20
334.8796511492
 30
0.0
 10
580.2281638414
 20
334.8977755782
 30
0.0
  0
SPLINE
  5
38D
100
AcDbEntity
  8
PART
100
AcDbSpline
 62
7
  6
CONTINUOUS
 70
0
 71
3
 72
9
 73
5
 74
0
 42
0.0000001
 43
0.0000001
 44
0.0000000001
 40
0.0
 40
0.0
 40
0.0
 40
0.0
 40
0.5086580958
 40
1.0
 40
1.0
 40
1.0
 40
1.0
 10
580.2281638414
 20
334.8977755782
 30
0.0
 10
580.2535150824
 20
334.9166488915
 30
0.0
 10
580.3021745158
 20
334.95537102
 30
0.0
 10
580.3480250438
 20
334.9973963474
 30
0.0
 10
580.3697297794
 20
335.0188658474
 30
0.0
  0
SPLINE
  5
38E
100
AcDbEntity
  8
PART
100
AcDbSpline
 62
7
  6
CONTINUOUS
 70
0
 71
3
 72
8
 73
4
 74
0
 42
0.0000001
 43
0.0000001
 44
0.0000000001
 40
0.0
 40
0.0
 40
0.0
 40
0.0
 40
1.0
 40
1.0
 40
1.0
 40
1.0
 10
580.3697297794
 20
335.0188658474
 30
0.0
 10
580.5146747476
 20
335.1622399038
 30
0.0
 10
580.6302279183
 20
335.3684440635
 30
0.0
 10
580.6300674063
 20
335.5723193639
 30
0.0
  0
SPLINE
  5
38F
100
AcDbEntity
  8
PART
100
AcDbSpline
 62
7
  6
CONTINUOUS
 70
0
 71
3
 72
9
 73
5
 74
0
 42
0.0000001
 43
0.0000001
 44
0.0000000001
 40
0.0
 40
0.0
 40
0.0
 40
0.0
 40
0.2287864873
 40
1.0
 40
1.0
 40
1.0
 40
1.0
 10
609.8373972029
 20
923.4546979445
 30
0.0
 10
609.943710058
 20
923.3933195776
 30
0.0
 10
610.3840300165
 20
923.0835411223
 30
0.0
 10
610.730473978
 20
922.6518510989
 30
0.0
 10
610.9373779203
 20
922.2934849478
 30
0.0
  0
SPLINE
  5
390
100
AcDbEntity
  8
PART
100
AcDbSpline
 62
7
  6
CONTINUOUS
 70
0
 71
3
 72
8
 73
4
 74
0
 42
0.0000001
 43
0.0000001
 44
0.0000000001
 40
0.0
 40
0.0
 40
0.0
 40
0.0
 40
1.0
 40
1.0
 40
1.0
 40
1.0
 10
611.1601814498
 20
921.8399311029
 30
0.0
 10
611.2155787621
 20
921.704651422
 30
0.0
 10
611.2629550844
 20
921.5657028329
 30
0.0
 10
611.3003217067
 20
921.4243762967
 30
0.0
  0
SPLINE
  5
391
100
AcDbEntity
  8
PART
100
AcDbSpline
 62
7
  6
CONTINUOUS
 70
0
 71
3
 72
8
 73
4
 74
0
 42
0.0000001
 43
0.0000001
 44
0.0000000001
 40
0.0
 40
0.0
 40
0.0
 40
0.0
 40
1.0
 40
1.0
 40
1.0
 40
1.0
 10
611.3003217067
 20
921.4243762967
 30
0.0
 10
611.3574563814
 20
921.2082838275
 30
0.0
 10
611.3930385982
 20
920.983781034
 30
0.0
 10
611.3930385982
 20
920.7602629669
 30
0.0
  0
SPLINE
  5
392
100
AcDbEntity
  8
PART
100
AcDbSpline
 62
7
  6
CONTINUOUS
 70
0
 71
3
 72
9
 73
5
 74
0
 42
0.0000001
 43
0.0000001
 44
0.0000000001
 40
0.0
 40
0.0
 40
0.0
 40
0.0
 40
0.1979935546
 40
1.0
 40
1.0
 40
1.0
 40
1.0
 10
580.6300674063
 20
335.5723193639
 30
0.0
 10
580.6299716966
 20
335.6938856988
 30
0.0
 10
580.4277903599
 20
336.3094295346
 30
0.0
 10
579.719217742
 20
336.5526715697
 30
0.0
 10
579.2328912994
 20
336.6299319213
 30
0.0
  0
SPLINE
  5
393
100
AcDbEntity
  8
PART
100
AcDbSpline
 62
7
  6
CONTINUOUS
 70
0
 71
3
 72
9
 73
5
 74
0
 42
0.0000001
 43
0.0000001
 44
0.0000000001
 40
0.0
 40
0.0
 40
0.0
 40
0.0
 40
0.2626957679
 40
1.0
 40
1.0
 40
1.0
 40
1.0
 10
579.2328912994
 20
336.6299319213
 30
0.0
 10
579.0698416002
 20
336.6558348457
 30
0.0
 10
578.4445333836
 20
336.7034424695
 30
0.0
 10
577.7879542561
 20
336.5794927451
 30
0.0
 10
577.3866652033
 20
336.3478097854
 30
0.0
  0
SPLINE
  5
394
100
AcDbEntity
  8
PART
100
AcDbSpline
 62
7
  6
CONTINUOUS
 70
0
 71
3
 72
8
 73
4
 74
0
 42
0.0000001
 43
0.0000001
 44
0.0000000001
 40
0.0
 40
0.0
 40
0.0
 40
0.0
 40
1.0
 40
1.0
 40
1.0
 40
1.0
 10
199.2187927635
 20
1142.9653406454
 30
0.0
 10
199.3426057649
 20
1142.6936239185
 30
0.0
 10
199.4326090966
 20
1142.4029427709
 30
0.0
 10
199.4776135817
 20
1142.1077576843
 30
0.0
  0
SPLINE
  5
395
100
AcDbEntity
  8
PART
100
AcDbSpline
 62
7
  6
CONTINUOUS
 70
0
 71
3
 72
9
 73
5
 74
0
 42
0.0000001
 43
0.0000001
 44
0.0000000001
 40
0.0
 40
0.0
 40
0.0
 40
0.0
 40
0.1979935546
 40
1.0
 40
1.0
 40
1.0
 40
1.0
 10
488.7065685685
 20
282.5005793606
 30
0.0
 10
488.7064728587
 20
282.6221456955
 30
0.0
 10
488.5042915221
 20
283.2376895313
 30
0.0
 10
487.7957189042
 20
283.4809315663
 30
0.0
 10
487.3093924616
 20
283.558191918
 30
0.0
  0
SPLINE
  5
396
100
AcDbEntity
  8
PART
100
AcDbSpline
 62
7
  6
CONTINUOUS
 70
0
 71
3
 72
9
 73
5
 74
0
 42
0.0000001
 43
0.0000001
 44
0.0000000001
 40
0.0
 40
0.0
 40
0.0
 40
0.0
 40
0.2626957679
 40
1.0
 40
1.0
 40
1.0
 40
1.0
 10
487.3093924616
 20
283.558191918
 30
0.0
 10
487.1463427624
 20
283.5840948424
 30
0.0
 10
486.5210345458
 20
283.6317024662
 30
0.0
 10
485.8644554182
 20
283.5077527417
 30
0.0
 10
485.4631663655
 20
283.2760697821
 30
0.0
  0
SPLINE
  5
397
100
AcDbEntity
  8
PART
100
AcDbSpline
 62
7
  6
CONTINUOUS
 70
0
 71
3
 72
9
 73
5
 74
0
 42
0.0000001
 43
0.0000001
 44
0.0000000001
 40
0.0
 40
0.0
 40
0.0
 40
0.0
 40
0.1979935546
 40
1.0
 40
1.0
 40
1.0
 40
1.0
 10
383.7003916685
 20
396.1958504524
 30
0.0
 10
383.7002959588
 20
396.3174167873
 30
0.0
 10
383.4981146222
 20
396.9329606231
 30
0.0
 10
382.7895420042
 20
397.1762026581
 30
0.0
 10
382.3032155616
 20
397.2534630098
 30
0.0
  0
SPLINE
  5
398
100
AcDbEntity
  8
PART
100
AcDbSpline
 62
7
  6
CONTINUOUS
 70
0
 71
3
 72
9
 73
5
 74
0
 42
0.0000001
 43
0.0000001
 44
0.0000000001
 40
0.0
 40
0.0
 40
0.0
 40
0.0
 40
0.2626957679
 40
1.0
 40
1.0
 40
1.0
 40
1.0
 10
382.3032155616
 20
397.2534630098
 30
0.0
 10
382.1401658624
 20
397.2793659342
 30
0.0
 10
381.5148576459
 20
397.326973558
 30
0.0
 10
380.8582785183
 20
397.2030238335
 30
0.0
 10
380.4569894656
 20
396.9713408739
 30
0.0
  0
SPLINE
  5
399
100
AcDbEntity
  8
PART
100
AcDbSpline
 62
7
  6
CONTINUOUS
 70
0
 71
3
 72
8
 73
4
 74
0
 42
0.0000001
 43
0.0000001
 44
0.0000000001
 40
0.0
 40
0.0
 40
0.0
 40
0.0
 40
1.0
 40
1.0
 40
1.0
 40
1.0
 10
595.9128624636
 20
913.7050664743
 30
0.0
 10
595.8011068415
 20
913.6743400288
 30
0.0
 10
595.6892904873
 20
913.6437742966
 30
0.0
 10
595.5769115056
 20
913.6154123853
 30
0.0
  0
SPLINE
  5
39A
100
AcDbEntity
  8
PART
100
AcDbSpline
 62
7
  6
CONTINUOUS
 70
0
 71
3
 72
8
 73
4
 74
0
 42
0.0000001
 43
0.0000001
 44
0.0000000001
 40
0.0
 40
0.0
 40
0.0
 40
0.0
 40
1.0
 40
1.0
 40
1.0
 40
1.0
 10
595.5769115056
 20
913.6154123853
 30
0.0
 10
595.4502676152
 20
913.583450334
 30
0.0
 10
595.3228768912
 20
913.5541760899
 30
0.0
 10
595.194695451
 20
913.529080949
 30
0.0
  0
SPLINE
  5
39B
100
AcDbEntity
  8
PART
100
AcDbSpline
 62
7
  6
CONTINUOUS
 70
0
 71
3
 72
8
 73
4
 74
0
 42
0.0000001
 43
0.0000001
 44
0.0000000001
 40
0.0
 40
0.0
 40
0.0
 40
0.0
 40
1.0
 40
1.0
 40
1.0
 40
1.0
 10
595.194695451
 20
913.529080949
 30
0.0
 10
595.0638219121
 20
913.5034587537
 30
0.0
 10
594.9319833945
 20
913.4821438905
 30
0.0
 10
594.7995460581
 20
913.4664999772
 30
0.0
  0
SPLINE
  5
39C
100
AcDbEntity
  8
PART
100
AcDbSpline
 62
7
  6
CONTINUOUS
 70
0
 71
3
 72
8
 73
4
 74
0
 42
0.0000001
 43
0.0000001
 44
0.0000000001
 40
0.0
 40
0.0
 40
0.0
 40
0.0
 40
1.0
 40
1.0
 40
1.0
 40
1.0
 10
594.7995460581
 20
913.4664999772
 30
0.0
 10
594.5108156236
 20
913.4323942335
 30
0.0
 10
594.2168452795
 20
913.4244852359
 30
0.0
 10
593.9274472285
 20
913.4523641467
 30
0.0
  0
SPLINE
  5
39D
100
AcDbEntity
  8
PART
100
AcDbSpline
 62
7
  6
CONTINUOUS
 70
0
 71
3
 72
9
 73
5
 74
0
 42
0.0000001
 43
0.0000001
 44
0.0000000001
 40
0.0
 40
0.0
 40
0.0
 40
0.0
 40
0.2069334417
 40
1.0
 40
1.0
 40
1.0
 40
1.0
 10
494.4031438471
 20
276.2301913673
 30
0.0
 10
494.4375999174
 20
276.2945295278
 30
0.0
 10
494.6670818719
 20
276.5712941369
 30
0.0
 10
495.0326729874
 20
276.6914503105
 30
0.0
 10
495.309076421
 20
276.7343184315
 30
0.0
  0
SPLINE
  5
39E
100
AcDbEntity
  8
PART
100
AcDbSpline
 62
7
  6
CONTINUOUS
 70
0
 71
3
 72
9
 73
5
 74
0
 42
0.0000001
 43
0.0000001
 44
0.0000000001
 40
0.0
 40
0.0
 40
0.0
 40
0.0
 40
0.7712852855
 40
1.0
 40
1.0
 40
1.0
 40
1.0
 10
495.309076421
 20
276.7343184315
 30
0.0
 10
495.63519557
 20
276.7848970909
 30
0.0
 10
496.0843600509
 20
276.7575830825
 30
0.0
 10
496.4800294233
 20
276.5889966752
 30
0.0
 10
496.564781396
 20
276.5400662079
 30
0.0
  0
SPLINE
  5
39F
100
AcDbEntity
  8
PART
100
AcDbSpline
 62
7
  6
CONTINUOUS
 70
0
 71
3
 72
9
 73
5
 74
0
 42
0.0000001
 43
0.0000001
 44
0.0000000001
 40
0.0
 40
0.0
 40
0.0
 40
0.0
 40
0.1979935546
 40
1.0
 40
1.0
 40
1.0
 40
1.0
 10
475.624273222
 20
396.1960714102
 30
0.0
 10
475.6241775123
 20
396.3176377451
 30
0.0
 10
475.4219961756
 20
396.9331815809
 30
0.0
 10
474.7134235577
 20
397.1764236159
 30
0.0
 10
474.2270971151
 20
397.2536839676
 30
0.0
  0
SPLINE
  5
3A0
100
AcDbEntity
  8
PART
100
AcDbSpline
 62
7
  6
CONTINUOUS
 70
0
 71
3
 72
9
 73
5
 74
0
 42
0.0000001
 43
0.0000001
 44
0.0000000001
 40
0.0
 40
0.0
 40
0.0
 40
0.0
 40
0.2626957679
 40
1.0
 40
1.0
 40
1.0
 40
1.0
 10
474.2270971151
 20
397.2536839676
 30
0.0
 10
474.0640474159
 20
397.279586892
 30
0.0
 10
473.4387391993
 20
397.3271945158
 30
0.0
 10
472.7821600717
 20
397.2032447913
 30
0.0
 10
472.380871019
 20
396.9715618317
 30
0.0
  0
SPLINE
  5
3A1
100
AcDbEntity
  8
PART
100
AcDbSpline
 62
7
  6
CONTINUOUS
 70
0
 71
3
 72
9
 73
5
 74
0
 42
0.0000001
 43
0.0000001
 44
0.0000000001
 40
0.0
 40
0.0
 40
0.0
 40
0.0
 40
0.2287859928
 40
1.0
 40
1.0
 40
1.0
 40
1.0
 10
611.3930385982
 20
920.7602629669
 30
0.0
 10
611.2867264715
 20
920.6988839983
 30
0.0
 10
610.7982883176
 20
920.4724504543
 30
0.0
 10
610.2512125718
 20
920.3882687408
 30
0.0
 10
609.8374063622
 20
920.3882677462
 30
0.0
  0
SPLINE
  5
3A2
100
AcDbEntity
  8
PART
100
AcDbSpline
 62
7
  6
CONTINUOUS
 70
0
 71
3
 72
8
 73
4
 74
0
 42
0.0000001
 43
0.0000001
 44
0.0000000001
 40
0.0
 40
0.0
 40
0.0
 40
0.0
 40
1.0
 40
1.0
 40
1.0
 40
1.0
 10
609.8374063622
 20
920.3882677462
 30
0.0
 10
609.5234611397
 20
920.3882669915
 30
0.0
 10
609.206253721
 20
920.4262405267
 30
0.0
 10
608.9032761497
 20
920.5084974049
 30
0.0
  0
SPLINE
  5
3A3
100
AcDbEntity
  8
PART
100
AcDbSpline
 62
7
  6
CONTINUOUS
 70
0
 71
3
 72
8
 73
4
 74
0
 42
0.0000001
 43
0.0000001
 44
0.0000000001
 40
0.0
 40
0.0
 40
0.0
 40
0.0
 40
1.0
 40
1.0
 40
1.0
 40
1.0
 10
608.9032761497
 20
920.5084974049
 30
0.0
 10
608.6875641186
 20
920.5670621303
 30
0.0
 10
608.4753444682
 20
920.64849703
 30
0.0
 10
608.2817687611
 20
920.7602554883
 30
0.0
  0
SPLINE
  5
3A4
100
AcDbEntity
  8
PART
100
AcDbSpline
 62
7
  6
CONTINUOUS
 70
0
 71
3
 72
8
 73
4
 74
0
 42
0.0000001
 43
0.0000001
 44
0.0000000001
 40
0.0
 40
0.0
 40
0.0
 40
0.0
 40
1.0
 40
1.0
 40
1.0
 40
1.0
 10
494.3743296722
 20
276.2570570002
 30
0.0
 10
494.2991043386
 20
276.3004873856
 30
0.0
 10
494.2118151053
 20
276.3262614494
 30
0.0
 10
494.1252731576
 20
276.3337139974
 30
0.0
  0
SPLINE
  5
3A5
100
AcDbEntity
  8
PART
100
AcDbSpline
 62
7
  6
CONTINUOUS
 70
0
 71
3
 72
8
 73
4
 74
0
 42
0.0000001
 43
0.0000001
 44
0.0000000001
 40
0.0
 40
0.0
 40
0.0
 40
0.0
 40
1.0
 40
1.0
 40
1.0
 40
1.0
 10
494.1252731576
 20
276.3337139974
 30
0.0
 10
493.9186247989
 20
276.3515094926
 30
0.0
 10
493.7038602399
 20
276.276376577
 30
0.0
 10
493.524234896
 20
276.1726704554
 30
0.0
  0
SPLINE
  5
3A6
100
AcDbEntity
  8
PART
100
AcDbSpline
 62
7
  6
CONTINUOUS
 70
0
 71
3
 72
9
 73
5
 74
0
 42
0.0000001
 43
0.0000001
 44
0.0000000001
 40
0.0
 40
0.0
 40
0.0
 40
0.0
 40
0.2737756791
 40
1.0
 40
1.0
 40
1.0
 40
1.0
 10
601.8470702621
 20
162.9642670186
 30
0.0
 10
601.9458482948
 20
162.907238785
 30
0.0
 10
602.3156383483
 20
162.7170107285
 30
0.0
 10
602.7311063273
 20
162.5995285737
 30
0.0
 10
603.0336027516
 20
162.5936153178
 30
0.0
  0
SPLINE
  5
3A7
100
AcDbEntity
  8
PART
100
AcDbSpline
 62
7
  6
CONTINUOUS
 70
0
 71
3
 72
8
 73
4
 74
0
 42
0.0000001
 43
0.0000001
 44
0.0000000001
 40
0.0
 40
0.0
 40
0.0
 40
0.0
 40
1.0
 40
1.0
 40
1.0
 40
1.0
 10
603.0336027516
 20
162.5936153178
 30
0.0
 10
603.2859393006
 20
162.5886825964
 30
0.0
 10
603.5504893452
 20
162.6465426788
 30
0.0
 10
603.7694138953
 20
162.7721217657
 30
0.0
  0
SPLINE
  5
3A8
100
AcDbEntity
  8
PART
100
AcDbSpline
 62
7
  6
CONTINUOUS
 70
0
 71
3
 72
9
 73
5
 74
0
 42
0.0000001
 43
0.0000001
 44
0.0000000001
 40
0.0
 40
0.0
 40
0.0
 40
0.0
 40
0.2329698444
 40
1.0
 40
1.0
 40
1.0
 40
1.0
 10
599.1246978203
 20
519.5920700123
 30
0.0
 10
599.1246978203
 20
519.4712962797
 30
0.0
 10
599.1515052733
 20
518.9529824703
 30
0.0
 10
599.2699845322
 20
518.4416100411
 30
0.0
 10
599.3969560425
 20
518.0647914171
 30
0.0
  0
SPLINE
  5
3A9
100
AcDbEntity
  8
PART
100
AcDbSpline
 62
7
  6
CONTINUOUS
 70
0
 71
3
 72
9
 73
5
 74
0
 42
0.0000001
 43
0.0000001
 44
0.0000000001
 40
0.0
 40
0.0
 40
0.0
 40
0.0
 40
0.5370819328
 40
1.0
 40
1.0
 40
1.0
 40
1.0
 10
599.3969560425
 20
518.0647914171
 30
0.0
 10
599.6663645801
 20
517.2652565122
 30
0.0
 10
600.4635689089
 20
515.8785543585
 30
0.0
 10
601.748823815
 20
514.8302998125
 30
0.0
 10
602.4416859622
 20
514.6094788547
 30
0.0
  0
SPLINE
  5
3AA
100
AcDbEntity
  8
PART
100
AcDbSpline
 62
7
  6
CONTINUOUS
 70
0
 71
3
 72
9
 73
5
 74
0
 42
0.0000001
 43
0.0000001
 44
0.0000000001
 40
0.0
 40
0.0
 40
0.0
 40
0.0
 40
0.279194132
 40
1.0
 40
1.0
 40
1.0
 40
1.0
 10
602.4416859622
 20
514.6094788547
 30
0.0
 10
602.5619537384
 20
514.5711485091
 30
0.0
 10
602.9996622432
 20
514.4641501349
 30
0.0
 10
603.4928573477
 20
514.5239434336
 30
0.0
 10
603.7746226795
 20
514.687684924
 30
0.0
  0
SPLINE
  5
3AB
100
AcDbEntity
  8
PART
100
AcDbSpline
 62
7
  6
CONTINUOUS
 70
0
 71
3
 72
9
 73
5
 74
0
 42
0.0000001
 43
0.0000001
 44
0.0000000001
 40
0.0
 40
0.0
 40
0.0
 40
0.0
 40
0.2327986679
 40
1.0
 40
1.0
 40
1.0
 40
1.0
 10
599.924726629
 20
873.2685644491
 30
0.0
 10
599.8346775628
 20
873.2169106738
 30
0.0
 10
599.473925986
 20
872.9469936966
 30
0.0
 10
599.2712543819
 20
872.5084733413
 30
0.0
 10
599.1953006622
 20
872.17489248
 30
0.0
  0
SPLINE
  5
3AC
100
AcDbEntity
  8
PART
100
AcDbSpline
 62
7
  6
CONTINUOUS
 70
0
 71
3
 72
9
 73
5
 74
0
 42
0.0000001
 43
0.0000001
 44
0.0000000001
 40
0.0
 40
0.0
 40
0.0
 40
0.0
 40
0.462166822
 40
1.0
 40
1.0
 40
1.0
 40
1.0
 10
599.1953006622
 20
872.17489248
 30
0.0
 10
599.0337211374
 20
871.4652519616
 30
0.0
 10
599.2935536092
 20
869.8211468264
 30
0.0
 10
600.0951940938
 20
868.4326468695
 30
0.0
 10
600.6540055878
 20
867.7961952015
 30
0.0
  0
SPLINE
  5
3AD
100
AcDbEntity
  8
PART
100
AcDbSpline
 62
7
  6
CONTINUOUS
 70
0
 71
3
 72
9
 73
5
 74
0
 42
0.0000001
 43
0.0000001
 44
0.0000000001
 40
0.0
 40
0.0
 40
0.0
 40
0.0
 40
0.2657515747
 40
1.0
 40
1.0
 40
1.0
 40
1.0
 10
600.6540055878
 20
867.7961952015
 30
0.0
 10
600.7454597586
 20
867.6920345674
 30
0.0
 10
601.1032742919
 20
867.3128463349
 30
0.0
 10
601.5154040113
 20
866.9808338516
 30
0.0
 10
601.8470702621
 20
866.7893505843
 30
0.0
  0
SPLINE
  5
3AE
100
AcDbEntity
  8
PART
100
AcDbSpline
 62
7
  6
CONTINUOUS
 70
0
 71
3
 72
9
 73
5
 74
0
 42
0.0000001
 43
0.0000001
 44
0.0000000001
 40
0.0
 40
0.0
 40
0.0
 40
0.0
 40
0.1979935546
 40
1.0
 40
1.0
 40
1.0
 40
1.0
 10
383.7007743842
 20
343.1243314069
 30
0.0
 10
383.7006786744
 20
343.2458977418
 30
0.0
 10
383.4984973378
 20
343.8614415776
 30
0.0
 10
382.7899247198
 20
344.1046836126
 30
0.0
 10
382.3035982772
 20
344.1819439643
 30
0.0
  0
SPLINE
  5
3AF
100
AcDbEntity
  8
PART
100
AcDbSpline
 62
7
  6
CONTINUOUS
 70
0
 71
3
 72
9
 73
5
 74
0
 42
0.0000001
 43
0.0000001
 44
0.0000000001
 40
0.0
 40
0.0
 40
0.0
 40
0.0
 40
0.2626957679
 40
1.0
 40
1.0
 40
1.0
 40
1.0
 10
382.3035982772
 20
344.1819439643
 30
0.0
 10
382.1405485781
 20
344.2078468887
 30
0.0
 10
381.5152403615
 20
344.2554545125
 30
0.0
 10
380.8586612339
 20
344.131504788
 30
0.0
 10
380.4573721812
 20
343.8998218284
 30
0.0
  0
SPLINE
  5
3B0
100
AcDbEntity
  8
PART
100
AcDbSpline
 62
7
  6
CONTINUOUS
 70
0
 71
3
 72
8
 73
4
 74
0
 42
0.0000001
 43
0.0000001
 44
0.0000000001
 40
0.0
 40
0.0
 40
0.0
 40
0.0
 40
1.0
 40
1.0
 40
1.0
 40
1.0
 10
595.5769115055
 20
129.4464904644
 30
0.0
 10
595.81004775
 20
129.2599241929
 30
0.0
 10
596.0167843128
 20
129.0366397181
 30
0.0
 10
596.190192461
 20
128.7935572294
 30
0.0
  0
SPLINE
  5
3B1
100
AcDbEntity
  8
PART
100
AcDbSpline
 62
7
  6
CONTINUOUS
 70
0
 71
3
 72
9
 73
5
 74
0
 42
0.0000001
 43
0.0000001
 44
0.0000000001
 40
0.0
 40
0.0
 40
0.0
 40
0.0
 40
0.7044930628
 40
1.0
 40
1.0
 40
1.0
 40
1.0
 10
459.4957303711
 20
412.1647958371
 30
0.0
 10
459.3597397578
 20
412.2433122991
 30
0.0
 10
459.1005194954
 20
412.2307688837
 30
0.0
 10
458.9027762464
 20
412.1333480845
 30
0.0
 10
458.8457330774
 20
412.100414392
 30
0.0
  0
SPLINE
  5
3B2
100
AcDbEntity
  8
PART
100
AcDbSpline
 62
7
  6
CONTINUOUS
 70
0
 71
3
 72
9
 73
5
 74
0
 42
0.0000001
 43
0.0000001
 44
0.0000000001
 40
0.0
 40
0.0
 40
0.0
 40
0.0
 40
0.2287872083
 40
1.0
 40
1.0
 40
1.0
 40
1.0
 10
608.2817687611
 20
920.7602554883
 30
0.0
 10
608.2817687611
 20
920.8830152933
 30
0.0
 10
608.3298890124
 20
921.419234937
 30
0.0
 10
608.530522605
 20
921.9351110933
 30
0.0
 10
608.7374256448
 20
922.2934796598
 30
0.0
  0
SPLINE
  5
3B3
100
AcDbEntity
  8
PART
100
AcDbSpline
 62
7
  6
CONTINUOUS
 70
0
 71
3
 72
8
 73
4
 74
0
 42
0.0000001
 43
0.0000001
 44
0.0000000001
 40
0.0
 40
0.0
 40
0.0
 40
0.0
 40
1.0
 40
1.0
 40
1.0
 40
1.0
 10
609.0187986311
 20
922.713191759
 30
0.0
 10
609.1082551553
 20
922.8288081233
 30
0.0
 10
609.2048995969
 20
922.9393126038
 30
0.0
 10
609.3086083895
 20
923.0423373567
 30
0.0
  0
SPLINE
  5
3B4
100
AcDbEntity
  8
PART
100
AcDbSpline
 62
7
  6
CONTINUOUS
 70
0
 71
3
 72
8
 73
4
 74
0
 42
0.0000001
 43
0.0000001
 44
0.0000000001
 40
0.0
 40
0.0
 40
0.0
 40
0.0
 40
1.0
 40
1.0
 40
1.0
 40
1.0
 10
609.3086083895
 20
923.0423373567
 30
0.0
 10
609.4671844302
 20
923.1998674658
 30
0.0
 10
609.6438211615
 20
923.3429374321
 30
0.0
 10
609.8373972029
 20
923.4546979445
 30
0.0
  0
SPLINE
  5
3B5
100
AcDbEntity
  8
PART
100
AcDbSpline
 62
7
  6
CONTINUOUS
 70
0
 71
3
 72
9
 73
5
 74
0
 42
0.0000001
 43
0.0000001
 44
0.0000000001
 40
0.0
 40
0.0
 40
0.0
 40
0.0
 40
0.4920721218
 40
1.0
 40
1.0
 40
1.0
 40
1.0
 10
479.267750704
 20
286.2153676776
 30
0.0
 10
479.267762817
 20
286.2472410708
 30
0.0
 10
479.2605894091
 20
286.3122079474
 30
0.0
 10
479.2396297671
 20
286.3740539509
 30
0.0
 10
479.2260754196
 20
286.4040325798
 30
0.0
  0
SPLINE
  5
3B6
100
AcDbEntity
  8
PART
100
AcDbSpline
 62
7
  6
CONTINUOUS
 70
0
 71
3
 72
8
 73
4
 74
0
 42
0.0000001
 43
0.0000001
 44
0.0000000001
 40
0.0
 40
0.0
 40
0.0
 40
0.0
 40
1.0
 40
1.0
 40
1.0
 40
1.0
 10
479.2260754196
 20
286.4040325798
 30
0.0
 10
479.1599376912
 20
286.550311729
 30
0.0
 10
479.0260672574
 20
286.665818462
 30
0.0
 10
478.8870382673
 20
286.7460850709
 30
0.0
  0
SPLINE
  5
3B7
100
AcDbEntity
  8
PART
100
AcDbSpline
 62
7
  6
CONTINUOUS
 70
0
 71
3
 72
9
 73
5
 74
0
 42
0.0000001
 43
0.0000001
 44
0.0000000001
 40
0.0
 40
0.0
 40
0.0
 40
0.0
 40
0.22088822
 40
1.0
 40
1.0
 40
1.0
 40
1.0
 10
389.3685354878
 20
336.8808090465
 30
0.0
 10
389.3124737916
 20
336.9131755507
 30
0.0
 10
389.0307150619
 20
337.0152948711
 30
0.0
 10
388.7161793981
 20
336.9105863041
 30
0.0
 10
388.5184407117
 20
336.7964225017
 30
0.0
  0
SPLINE
  5
3B8
100
AcDbEntity
  8
PART
100
AcDbSpline
 62
7
  6
CONTINUOUS
 70
0
 71
3
 72
15
 73
11
 74
0
 42
0.0000001
 43
0.0000001
 44
0.0000000001
 40
0.0
 40
0.0
 40
0.0
 40
0.0
 40
0.1448886407
 40
0.274535514
 40
0.3911128609
 40
0.4999990439
 40
0.6088854005
 40
0.725463209
 40
0.8551107037
 40
1.0
 40
1.0
 40
1.0
 40
1.0
 10
351.662724468
 20
386.651388913
 30
0.0
 10
349.5726158638
 20
385.4446713509
 30
0.0
 10
345.7811323057
 20
382.8339363293
 30
0.0
 10
341.2512911521
 20
378.0727662549
 30
0.0
 10
338.3850401256
 20
372.8013994092
 30
0.0
 10
337.3917635219
 20
367.2103052959
 30
0.0
 10
338.3851233924
 20
361.6192188154
 30
0.0
 10
341.2514494695
 20
356.347870376
 30
0.0
 10
345.7813568894
 20
351.5867246283
 30
0.0
 10
349.572878095
 20
348.9760074852
 30
0.0
 10
351.6630048586
 20
347.7692995349
 30
0.0
  0
SPLINE
  5
3B9
100
AcDbEntity
  8
PART
100
AcDbSpline
 62
7
  6
CONTINUOUS
 70
0
 71
3
 72
9
 73
5
 74
0
 42
0.0000001
 43
0.0000001
 44
0.0000000001
 40
0.0
 40
0.0
 40
0.0
 40
0.0
 40
0.7186003911
 40
1.0
 40
1.0
 40
1.0
 40
1.0
 10
586.107987327
 20
329.3976223936
 30
0.0
 10
585.9465561938
 20
329.426672464
 30
0.0
 10
585.7066378456
 20
329.377891434
 30
0.0
 10
585.5033593814
 20
329.2765257496
 30
0.0
 10
585.4477337338
 20
329.2444104587
 30
0.0
  0
SPLINE
  5
3BA
100
AcDbEntity
  8
PART
100
AcDbSpline
 62
7
  6
CONTINUOUS
 70
0
 71
3
 72
9
 73
5
 74
0
 42
0.0000001
 43
0.0000001
 44
0.0000000001
 40
0.0
 40
0.0
 40
0.0
 40
0.0
 40
0.2737756791
 40
1.0
 40
1.0
 40
1.0
 40
1.0
 10
601.8470702621
 20
866.7893505843
 30
0.0
 10
601.9458482948
 20
866.7323223507
 30
0.0
 10
602.3156383483
 20
866.5420942942
 30
0.0
 10
602.7311063273
 20
866.4246121394
 30
0.0
 10
603.0336027516
 20
866.4186988835
 30
0.0
  0
SPLINE
  5
3BB
100
AcDbEntity
  8
PART
100
AcDbSpline
 62
7
  6
CONTINUOUS
 70
0
 71
3
 72
8
 73
4
 74
0
 42
0.0000001
 43
0.0000001
 44
0.0000000001
 40
0.0
 40
0.0
 40
0.0
 40
0.0
 40
1.0
 40
1.0
 40
1.0
 40
1.0
 10
603.0336027516
 20
866.4186988835
 30
0.0
 10
603.2859393006
 20
866.4137661621
 30
0.0
 10
603.5504893452
 20
866.4716262445
 30
0.0
 10
603.7694138953
 20
866.5972053314
 30
0.0
  0
SPLINE
  5
3BC
100
AcDbEntity
  8
PART
100
AcDbSpline
 62
7
  6
CONTINUOUS
 70
0
 71
3
 72
8
 73
4
 74
0
 42
0.0000001
 43
0.0000001
 44
0.0000000001
 40
0.0
 40
0.0
 40
0.0
 40
0.0
 40
1.0
 40
1.0
 40
1.0
 40
1.0
 10
188.0295273886
 20
1138.7108880131
 30
0.0
 10
188.1998727406
 20
1138.7915900018
 30
0.0
 10
188.3887614144
 20
1138.834866741
 30
0.0
 10
188.5760617889
 20
1138.8560544648
 30
0.0
  0
SPLINE
  5
3BD
100
AcDbEntity
  8
PART
100
AcDbSpline
 62
7
  6
CONTINUOUS
 70
0
 71
3
 72
8
 73
4
 74
0
 42
0.0000001
 43
0.0000001
 44
0.0000000001
 40
0.0
 40
0.0
 40
0.0
 40
0.0
 40
1.0
 40
1.0
 40
1.0
 40
1.0
 10
188.5760617889
 20
1138.8560544648
 30
0.0
 10
188.6499933429
 20
1138.8644177228
 30
0.0
 10
188.7243515732
 20
1138.8694150847
 30
0.0
 10
188.7987176003
 20
1138.8717630109
 30
0.0
  0
SPLINE
  5
3BE
100
AcDbEntity
  8
PART
100
AcDbSpline
 62
7
  6
CONTINUOUS
 70
0
 71
3
 72
8
 73
4
 74
0
 42
0.0000001
 43
0.0000001
 44
0.0000000001
 40
0.0
 40
0.0
 40
0.0
 40
0.0
 40
1.0
 40
1.0
 40
1.0
 40
1.0
 10
587.4933320749
 20
121.9143058321
 30
0.0
 10
587.3879920638
 20
121.7305824104
 30
0.0
 10
587.2652206808
 20
121.5533751284
 30
0.0
 10
587.1157771698
 20
121.4033169708
 30
0.0
  0
SPLINE
  5
3BF
100
AcDbEntity
  8
PART
100
AcDbSpline
 62
7
  6
CONTINUOUS
 70
0
 71
3
 72
8
 73
4
 74
0
 42
0.0000001
 43
0.0000001
 44
0.0000000001
 40
0.0
 40
0.0
 40
0.0
 40
0.0
 40
1.0
 40
1.0
 40
1.0
 40
1.0
 10
587.1157771698
 20
121.4033169708
 30
0.0
 10
587.0527858809
 20
121.3400666049
 30
0.0
 10
586.9845037145
 20
121.281411814
 30
0.0
 10
586.9110731227
 20
121.2306529778
 30
0.0
  0
SPLINE
  5
3C0
100
AcDbEntity
  8
PART
100
AcDbSpline
 62
7
  6
CONTINUOUS
 70
0
 71
3
 72
9
 73
5
 74
0
 42
0.0000001
 43
0.0000001
 44
0.0000000001
 40
0.0
 40
0.0
 40
0.0
 40
0.0
 40
0.2327986679
 40
1.0
 40
1.0
 40
1.0
 40
1.0
 10
599.924726629
 20
169.4434808834
 30
0.0
 10
599.8346775628
 20
169.3918271081
 30
0.0
 10
599.473925986
 20
169.1219101309
 30
0.0
 10
599.2712543819
 20
168.6833897756
 30
0.0
 10
599.1953006622
 20
168.3498089143
 30
0.0
  0
SPLINE
  5
3C1
100
AcDbEntity
  8
PART
100
AcDbSpline
 62
7
  6
CONTINUOUS
 70
0
 71
3
 72
9
 73
5
 74
0
 42
0.0000001
 43
0.0000001
 44
0.0000000001
 40
0.0
 40
0.0
 40
0.0
 40
0.0
 40
0.462166822
 40
1.0
 40
1.0
 40
1.0
 40
1.0
 10
599.1953006622
 20
168.3498089143
 30
0.0
 10
599.0337211374
 20
167.6401683959
 30
0.0
 10
599.2935536092
 20
165.9960632607
 30
0.0
 10
600.0951940938
 20
164.6075633038
 30
0.0
 10
600.6540055878
 20
163.9711116358
 30
0.0
  0
SPLINE
  5
3C2
100
AcDbEntity
  8
PART
100
AcDbSpline
 62
7
  6
CONTINUOUS
 70
0
 71
3
 72
9
 73
5
 74
0
 42
0.0000001
 43
0.0000001
 44
0.0000000001
 40
0.0
 40
0.0
 40
0.0
 40
0.0
 40
0.2657515747
 40
1.0
 40
1.0
 40
1.0
 40
1.0
 10
600.6540055878
 20
163.9711116358
 30
0.0
 10
600.7454597586
 20
163.8669510017
 30
0.0
 10
601.1032742919
 20
163.4877627692
 30
0.0
 10
601.5154040113
 20
163.1557502859
 30
0.0
 10
601.8470702621
 20
162.9642670186
 30
0.0
  0
SPLINE
  5
3C3
100
AcDbEntity
  8
PART
100
AcDbSpline
 62
7
  6
CONTINUOUS
 70
0
 71
3
 72
8
 73
4
 74
0
 42
0.0000001
 43
0.0000001
 44
0.0000000001
 40
0.0
 40
0.0
 40
0.0
 40
0.0
 40
1.0
 40
1.0
 40
1.0
 40
1.0
 10
594.7759788987
 20
911.9826723407
 30
0.0
 10
594.9514462532
 20
912.3677523902
 30
0.0
 10
595.1979498589
 20
912.7227477739
 30
0.0
 10
595.4759997047
 20
913.0417520376
 30
0.0
  0
SPLINE
  5
3C4
100
AcDbEntity
  8
PART
100
AcDbSpline
 62
7
  6
CONTINUOUS
 70
0
 71
3
 72
8
 73
4
 74
0
 42
0.0000001
 43
0.0000001
 44
0.0000000001
 40
0.0
 40
0.0
 40
0.0
 40
0.0
 40
1.0
 40
1.0
 40
1.0
 40
1.0
 10
595.4759997047
 20
913.0417520376
 30
0.0
 10
595.5618330513
 20
913.1402279185
 30
0.0
 10
595.6508911821
 20
913.2359287767
 30
0.0
 10
595.7419039956
 20
913.3296385962
 30
0.0
  0
SPLINE
  5
3C5
100
AcDbEntity
  8
PART
100
AcDbSpline
 62
7
  6
CONTINUOUS
 70
0
 71
3
 72
8
 73
4
 74
0
 42
0.0000001
 43
0.0000001
 44
0.0000000001
 40
0.0
 40
0.0
 40
0.0
 40
0.0
 40
1.0
 40
1.0
 40
1.0
 40
1.0
 10
595.7419039956
 20
913.3296385962
 30
0.0
 10
595.8226479817
 20
913.4127752895
 30
0.0
 10
595.9050188342
 20
913.4943232467
 30
0.0
 10
595.9874984688
 20
913.5757383002
 30
0.0
  0
SPLINE
  5
3C6
100
AcDbEntity
  8
PART
100
AcDbSpline
 62
7
  6
CONTINUOUS
 70
0
 71
3
 72
9
 73
5
 74
0
 42
0.0000001
 43
0.0000001
 44
0.0000000001
 40
0.0
 40
0.0
 40
0.0
 40
0.0
 40
0.22088822
 40
1.0
 40
1.0
 40
1.0
 40
1.0
 10
481.2920343257
 20
389.9525490498
 30
0.0
 10
481.2359726294
 20
389.984915554
 30
0.0
 10
480.9542138998
 20
390.0870348744
 30
0.0
 10
480.6396782359
 20
389.9823263074
 30
0.0
 10
480.4419395495
 20
389.8681625051
 30
0.0
  0
SPLINE
  5
3C7
100
AcDbEntity
  8
PART
100
AcDbSpline
 62
7
  6
CONTINUOUS
 70
0
 71
3
 72
15
 73
11
 74
0
 42
0.0000001
 43
0.0000001
 44
0.0000000001
 40
0.0
 40
0.0
 40
0.0
 40
0.0
 40
0.1467666491
 40
0.2788818523
 40
0.3980802936
 40
0.5089398033
 40
0.6182178526
 40
0.7331830038
 40
0.8594280311
 40
1.0
 40
1.0
 40
1.0
 40
1.0
 10
354.2529435692
 20
351.7140996723
 30
0.0
 10
352.4154992496
 20
352.7749246458
 30
0.0
 10
349.066929832
 20
355.0628429446
 30
0.0
 10
345.0028981137
 20
359.1989666634
 30
0.0
 10
342.3103660066
 20
363.7638613673
 30
0.0
 10
341.1472240016
 20
368.6152433596
 30
0.0
 10
341.6216735034
 20
373.5246655784
 30
0.0
 10
343.685363829
 20
378.2320910874
 30
0.0
 10
347.1869275158
 20
382.5640037957
 30
0.0
 10
350.2162116781
 20
384.9957500582
 30
0.0
 10
351.899192269
 20
386.1346736504
 30
0.0
  0
SPLINE
  5
3C8
100
AcDbEntity
  8
PART
100
AcDbSpline
 62
7
  6
CONTINUOUS
 70
0
 71
3
 72
11
 73
7
 74
0
 42
0.0000001
 43
0.0000001
 44
0.0000000001
 40
0.0
 40
0.0
 40
0.0
 40
0.0
 40
0.2372279391
 40
0.4999994739
 40
0.762771295
 40
1.0
 40
1.0
 40
1.0
 40
1.0
 10
396.678914977
 20
412.1002649613
 30
0.0
 10
401.0916571153
 20
414.647947615
 30
0.0
 10
411.3538635648
 20
418.3660317835
 30
0.0
 10
427.7622751574
 20
420.1470804653
 30
0.0
 10
444.1707115077
 20
418.3661066627
 30
0.0
 10
454.43295832
 20
414.6480734503
 30
0.0
 10
458.8457330774
 20
412.100414392
 30
0.0
  0
SPLINE
  5
3C9
100
AcDbEntity
  8
PART
100
AcDbSpline
 62
7
  6
CONTINUOUS
 70
0
 71
3
 72
9
 73
5
 74
0
 42
0.0000001
 43
0.0000001
 44
0.0000000001
 40
0.0
 40
0.0
 40
0.0
 40
0.0
 40
0.2865339587
 40
1.0
 40
1.0
 40
1.0
 40
1.0
 10
380.4573721812
 20
343.8998218284
 30
0.0
 10
380.3868867942
 20
343.8591273142
 30
0.0
 10
380.1526251796
 20
343.7023332021
 30
0.0
 10
379.9573173063
 20
343.4566423846
 30
0.0
 10
379.915153611
 20
343.258418454
 30
0.0
  0
SPLINE
  5
3CA
100
AcDbEntity
  8
PART
100
AcDbSpline
 62
7
  6
CONTINUOUS
 70
0
 71
3
 72
9
 73
5
 74
0
 42
0.0000001
 43
0.0000001
 44
0.0000000001
 40
0.0
 40
0.0
 40
0.0
 40
0.0
 40
0.2865339587
 40
1.0
 40
1.0
 40
1.0
 40
1.0
 10
472.380871019
 20
396.9715618317
 30
0.0
 10
472.310385632
 20
396.9308673175
 30
0.0
 10
472.0761240174
 20
396.7740732054
 30
0.0
 10
471.8808161442
 20
396.5283823879
 30
0.0
 10
471.8386524489
 20
396.3301584573
 30
0.0
  0
SPLINE
  5
3CB
100
AcDbEntity
  8
PART
100
AcDbSpline
 62
7
  6
CONTINUOUS
 70
0
 71
3
 72
9
 73
5
 74
0
 42
0.0000001
 43
0.0000001
 44
0.0000000001
 40
0.0
 40
0.0
 40
0.0
 40
0.0
 40
0.2865339587
 40
1.0
 40
1.0
 40
1.0
 40
1.0
 10
380.4569894656
 20
396.9713408739
 30
0.0
 10
380.3865040786
 20
396.9306463596
 30
0.0
 10
380.152242464
 20
396.7738522476
 30
0.0
 10
379.9569345907
 20
396.5281614301
 30
0.0
 10
379.9147708954
 20
396.3299374995
 30
0.0
  0
SPLINE
  5
3CC
100
AcDbEntity
  8
PART
100
AcDbSpline
 62
7
  6
CONTINUOUS
 70
0
 71
3
 72
9
 73
5
 74
0
 42
0.0000001
 43
0.0000001
 44
0.0000000001
 40
0.0
 40
0.0
 40
0.0
 40
0.0
 40
0.2865339587
 40
1.0
 40
1.0
 40
1.0
 40
1.0
 10
485.4631663655
 20
283.2760697821
 30
0.0
 10
485.3926809785
 20
283.2353752679
 30
0.0
 10
485.1584193639
 20
283.0785811558
 30
0.0
 10
484.9631114907
 20
282.8328903383
 30
0.0
 10
484.9209477954
 20
282.6346664077
 30
0.0
  0
SPLINE
  5
3CD
100
AcDbEntity
  8
PART
100
AcDbSpline
 62
7
  6
CONTINUOUS
 70
0
 71
3
 72
9
 73
5
 74
0
 42
0.0000001
 43
0.0000001
 44
0.0000000001
 40
0.0
 40
0.0
 40
0.0
 40
0.0
 40
0.2865339587
 40
1.0
 40
1.0
 40
1.0
 40
1.0
 10
577.3866652033
 20
336.3478097854
 30
0.0
 10
577.3161798164
 20
336.3071152712
 30
0.0
 10
577.0819182018
 20
336.1503211591
 30
0.0
 10
576.8866103285
 20
335.9046303416
 30
0.0
 10
576.8444466332
 20
335.706406411
 30
0.0
  0
SPLINE
  5
3CE
100
AcDbEntity
  8
PART
100
AcDbSpline
 62
7
  6
CONTINUOUS
 70
0
 71
3
 72
9
 73
5
 74
0
 42
0.0000001
 43
0.0000001
 44
0.0000000001
 40
0.0
 40
0.0
 40
0.0
 40
0.0
 40
0.2069334417
 40
1.0
 40
1.0
 40
1.0
 40
1.0
 10
481.3208485006
 20
389.9256834169
 30
0.0
 10
481.3553045709
 20
389.9900215774
 30
0.0
 10
481.5847865254
 20
390.2667861866
 30
0.0
 10
481.950377641
 20
390.3869423602
 30
0.0
 10
482.2267810745
 20
390.4298104811
 30
0.0
  0
SPLINE
  5
3CF
100
AcDbEntity
  8
PART
100
AcDbSpline
 62
7
  6
CONTINUOUS
 70
0
 71
3
 72
9
 73
5
 74
0
 42
0.0000001
 43
0.0000001
 44
0.0000000001
 40
0.0
 40
0.0
 40
0.0
 40
0.0
 40
0.7712852855
 40
1.0
 40
1.0
 40
1.0
 40
1.0
 10
482.2267810745
 20
390.4298104811
 30
0.0
 10
482.5529002236
 20
390.4803891406
 30
0.0
 10
483.0020647044
 20
390.4530751322
 30
0.0
 10
483.3977340768
 20
390.2844887249
 30
0.0
 10
483.4824860495
 20
390.2355582576
 30
0.0
  0
SPLINE
  5
3D0
100
AcDbEntity
  8
PART
100
AcDbSpline
 62
7
  6
CONTINUOUS
 70
0
 71
3
 72
11
 73
7
 74
0
 42
0.0000001
 43
0.0000001
 44
0.0000000001
 40
0.0
 40
0.0
 40
0.0
 40
0.0
 40
0.2372405738
 40
0.5000004574
 40
0.7627600882
 40
1.0
 40
1.0
 40
1.0
 40
1.0
 10
448.9755685563
 20
406.4019062644
 30
0.0
 10
445.963873789
 20
408.1406697129
 30
0.0
 10
438.9602406047
 20
410.6779254154
 30
0.0
 10
427.7623343438
 20
411.8935187186
 30
0.0
 10
416.5644433562
 20
410.677875273
 30
0.0
 10
409.5608355109
 20
408.1405845985
 30
0.0
 10
406.5491616855
 20
406.4018042838
 30
0.0
  0
SPLINE
  5
3D1
100
AcDbEntity
  8
PART
100
AcDbSpline
 62
7
  6
CONTINUOUS
 70
0
 71
3
 72
10
 73
6
 74
0
 42
0.0000001
 43
0.0000001
 44
0.0000000001
 40
0.0
 40
0.0
 40
0.0
 40
0.0
 40
0.545277758
 40
0.7798225108
 40
1.0
 40
1.0
 40
1.0
 40
1.0
 10
363.4588454276
 20
381.5112327455
 30
0.0
 10
361.1483727254
 20
380.0888466947
 30
0.0
 10
358.0445202824
 20
377.5009231127
 30
0.0
 10
355.7226826903
 20
373.0330437156
 30
0.0
 10
355.3363724031
 20
370.755492563
 30
0.0
 10
355.3363729031
 20
369.6599297242
 30
0.0
  0
SPLINE
  5
3D2
100
AcDbEntity
  8
PART
100
AcDbSpline
 62
7
  6
CONTINUOUS
 70
0
 71
3
 72
13
 73
9
 74
0
 42
0.0000001
 43
0.0000001
 44
0.0000000001
 40
0.0
 40
0.0
 40
0.0
 40
0.0
 40
0.2921343558
 40
0.4474786852
 40
0.5891446807
 40
0.7969513044
 40
0.8892031843
 40
1.0
 40
1.0
 40
1.0
 40
1.0
 10
484.6845625728
 20
392.3176274282
 30
0.0
 10
484.0709291926
 20
392.6719008107
 30
0.0
 10
482.9488906965
 20
392.8995008578
 30
0.0
 10
481.515874715
 20
392.7527279988
 30
0.0
 10
480.3685550376
 20
392.3901396283
 30
0.0
 10
479.4129723265
 20
391.5027879012
 30
0.0
 10
479.6812934699
 20
390.4549143775
 30
0.0
 10
480.0641471152
 20
390.1152890514
 30
0.0
 10
480.2868960315
 20
389.964955455
 30
0.0
  0
SPLINE
  5
3D3
100
AcDbEntity
  8
PART
100
AcDbSpline
 62
7
  6
CONTINUOUS
 70
0
 71
3
 72
9
 73
5
 74
0
 42
0.0000001
 43
0.0000001
 44
0.0000000001
 40
0.0
 40
0.0
 40
0.0
 40
0.0
 40
0.2328443457
 40
1.0
 40
1.0
 40
1.0
 40
1.0
 10
567.7699902692
 20
339.4504295157
 30
0.0
 10
567.8523551621
 20
339.4028771984
 30
0.0
 10
568.2166995983
 20
339.2171876696
 30
0.0
 10
568.6126407208
 20
339.0973814594
 30
0.0
 10
568.9200083029
 20
339.0364544442
 30
0.0
  0
SPLINE
  5
3D4
100
AcDbEntity
  8
PART
100
AcDbSpline
 62
7
  6
CONTINUOUS
 70
0
 71
3
 72
9
 73
5
 74
0
 42
0.0000001
 43
0.0000001
 44
0.0000000001
 40
0.0
 40
0.0
 40
0.0
 40
0.0
 40
0.7591782392
 40
1.0
 40
1.0
 40
1.0
 40
1.0
 10
568.9200083029
 20
339.0364544442
 30
0.0
 10
569.5603934849
 20
338.909516016
 30
0.0
 10
570.4507539217
 20
338.9107028301
 30
0.0
 10
571.2825773272
 20
339.1350359478
 30
0.0
 10
571.4774537976
 20
339.2051073633
 30
0.0
  0
SPLINE
  5
3D5
100
AcDbEntity
  8
PART
100
AcDbSpline
 62
7
  6
CONTINUOUS
 70
0
 71
3
 72
10
 73
6
 74
0
 42
0.0000001
 43
0.0000001
 44
0.0000000001
 40
0.0
 40
0.0
 40
0.0
 40
0.0
 40
0.5191421689
 40
0.7341586225
 40
1.0
 40
1.0
 40
1.0
 40
1.0
 10
571.4774537976
 20
339.2051073633
 30
0.0
 10
572.0695537707
 20
339.4180077876
 30
0.0
 10
573.0581307446
 20
340.0494485149
 30
0.0
 10
572.7811057734
 20
341.3635044593
 30
0.0
 10
572.2916543282
 20
341.7387936664
 30
0.0
 10
572.0126139644
 20
341.899894051
 30
0.0
  0
SPLINE
  5
3D6
100
AcDbEntity
  8
PART
100
AcDbSpline
 62
7
  6
CONTINUOUS
 70
0
 71
3
 72
10
 73
6
 74
0
 42
0.0000001
 43
0.0000001
 44
0.0000000001
 40
0.0
 40
0.0
 40
0.0
 40
0.0
 40
0.5327124985
 40
0.7451123557
 40
1.0
 40
1.0
 40
1.0
 40
1.0
 10
586.0791295546
 20
331.9723551921
 30
0.0
 10
585.477785805
 20
331.7739711598
 30
0.0
 10
584.4912686447
 20
331.2161421657
 30
0.0
 10
584.6007342335
 20
329.9105776761
 30
0.0
 10
585.0415552036
 20
329.510694891
 30
0.0
 10
585.2926901543
 20
329.3412034743
 30
0.0
  0
SPLINE
  5
3D7
100
AcDbEntity
  8
PART
100
AcDbSpline
 62
7
  6
CONTINUOUS
 70
0
 71
3
 72
13
 73
9
 74
0
 42
0.0000001
 43
0.0000001
 44
0.0000000001
 40
0.0
 40
0.0
 40
0.0
 40
0.0
 40
0.2921343558
 40
0.4474786852
 40
0.5891446807
 40
0.7969513044
 40
0.8892031843
 40
1.0
 40
1.0
 40
1.0
 40
1.0
 10
392.7610637349
 20
339.2458874249
 30
0.0
 10
392.1474303548
 20
339.6001608074
 30
0.0
 10
391.0253918587
 20
339.8277608545
 30
0.0
 10
389.5923758772
 20
339.6809879955
 30
0.0
 10
388.4450561998
 20
339.318399625
 30
0.0
 10
387.4894734886
 20
338.4310478978
 30
0.0
 10
387.7577946321
 20
337.3831743742
 30
0.0
 10
388.1406482774
 20
337.0435490481
 30
0.0
 10
388.3633971936
 20
336.8932154517
 30
0.0
  0
SPLINE
  5
3D8
100
AcDbEntity
  8
PART
100
AcDbSpline
 62
7
  6
CONTINUOUS
 70
0
 71
3
 72
9
 73
5
 74
0
 42
0.0000001
 43
0.0000001
 44
0.0000000001
 40
0.0
 40
0.0
 40
0.0
 40
0.0
 40
0.2327936914
 40
1.0
 40
1.0
 40
1.0
 40
1.0
 10
475.8464921212
 20
286.3786891141
 30
0.0
 10
475.9291724117
 20
286.330954706
 30
0.0
 10
476.2950329503
 20
286.1445866163
 30
0.0
 10
476.6927029907
 20
286.0245981638
 30
0.0
 10
477.0014007732
 20
285.9637528389
 30
0.0
  0
SPLINE
  5
3D9
100
AcDbEntity
  8
PART
100
AcDbSpline
 62
7
  6
CONTINUOUS
 70
0
 71
3
 72
9
 73
5
 74
0
 42
0.0000001
 43
0.0000001
 44
0.0000000001
 40
0.0
 40
0.0
 40
0.0
 40
0.0
 40
0.7595248061
 40
1.0
 40
1.0
 40
1.0
 40
1.0
 10
477.0014007732
 20
285.9637528389
 30
0.0
 10
477.6458434473
 20
285.836731117
 30
0.0
 10
478.5416590919
 20
285.8396090649
 30
0.0
 10
479.3772850988
 20
286.0687630154
 30
0.0
 10
479.57261761
 20
286.1401380502
 30
0.0
  0
SPLINE
  5
3DA
100
AcDbEntity
  8
PART
100
AcDbSpline
 62
7
  6
CONTINUOUS
 70
0
 71
3
 72
10
 73
6
 74
0
 42
0.0000001
 43
0.0000001
 44
0.0000000001
 40
0.0
 40
0.0
 40
0.0
 40
0.0
 40
0.5182478008
 40
0.7336767289
 40
1.0
 40
1.0
 40
1.0
 40
1.0
 10
479.57261761
 20
286.1401380502
 30
0.0
 10
480.1594833245
 20
286.3545803904
 30
0.0
 10
481.1371396867
 20
286.9892475652
 30
0.0
 10
480.8544728693
 20
288.2940751193
 30
0.0
 10
480.3671868512
 20
288.6676128945
 30
0.0
 10
480.0891144367
 20
288.8281544459
 30
0.0
  0
SPLINE
  5
3DB
100
AcDbEntity
  8
PART
100
AcDbSpline
 62
7
  6
CONTINUOUS
 70
0
 71
3
 72
9
 73
5
 74
0
 42
0.0000001
 43
0.0000001
 44
0.0000000001
 40
0.0
 40
0.0
 40
0.0
 40
0.0
 40
0.2328443371
 40
1.0
 40
1.0
 40
1.0
 40
1.0
 10
580.8522859516
 20
225.7549372721
 30
0.0
 10
580.9346508465
 20
225.7073849537
 30
0.0
 10
581.2989953179
 20
225.5216954361
 30
0.0
 10
581.6949364873
 20
225.401889288
 30
0.0
 10
582.0023040988
 20
225.3409623058
 30
0.0
  0
SPLINE
  5
3DC
100
AcDbEntity
  8
PART
100
AcDbSpline
 62
7
  6
CONTINUOUS
 70
0
 71
3
 72
9
 73
5
 74
0
 42
0.0000001
 43
0.0000001
 44
0.0000000001
 40
0.0
 40
0.0
 40
0.0
 40
0.0
 40
0.759178247
 40
1.0
 40
1.0
 40
1.0
 40
1.0
 10
582.0023040988
 20
225.3409623058
 30
0.0
 10
582.6426892955
 20
225.2140239556
 30
0.0
 10
583.533049719
 20
225.2152108203
 30
0.0
 10
584.3648730933
 20
225.4395440242
 30
0.0
 10
584.5597495473
 20
225.5096154587
 30
0.0
  0
SPLINE
  5
3DD
100
AcDbEntity
  8
PART
100
AcDbSpline
 62
7
  6
CONTINUOUS
 70
0
 71
3
 72
10
 73
6
 74
0
 42
0.0000001
 43
0.0000001
 44
0.0000000001
 40
0.0
 40
0.0
 40
0.0
 40
0.0
 40
0.5191421299
 40
0.7341585941
 40
1.0
 40
1.0
 40
1.0
 40
1.0
 10
584.5597495473
 20
225.5096154587
 30
0.0
 10
585.1518494425
 20
225.7225159306
 30
0.0
 10
586.1404262849
 20
226.3539568468
 30
0.0
 10
585.863400913
 20
227.6680127113
 30
0.0
 10
585.3739493641
 20
228.0433017961
 30
0.0
 10
585.0949089749
 20
228.2044021954
 30
0.0
  0
SPLINE
  5
3DE
100
AcDbEntity
  8
PART
100
AcDbSpline
 62
7
  6
CONTINUOUS
 70
0
 71
3
 72
13
 73
9
 74
0
 42
0.0000001
 43
0.0000001
 44
0.0000000001
 40
0.0
 40
0.0
 40
0.0
 40
0.0
 40
0.2921343441
 40
0.4474786764
 40
0.5891446756
 40
0.796951303
 40
0.8892031833
 40
1.0
 40
1.0
 40
1.0
 40
1.0
 10
497.7668582725
 20
278.6221351747
 30
0.0
 10
497.1532248763
 20
278.9764085664
 30
0.0
 10
496.0311863888
 20
279.2040088183
 30
0.0
 10
494.5981703036
 20
279.0572359993
 30
0.0
 10
493.4508505157
 20
278.6946476693
 30
0.0
 10
492.4952676509
 20
277.807295894
 30
0.0
 10
492.7635888403
 20
276.7594222988
 30
0.0
 10
493.1464424921
 20
276.4197969181
 30
0.0
 10
493.3691914427
 20
276.2694633365
 30
0.0
  0
SPLINE
  5
3DF
100
AcDbEntity
  8
PART
100
AcDbSpline
 62
7
  6
CONTINUOUS
 70
0
 71
3
 72
8
 73
4
 74
0
 42
0.0000001
 43
0.0000001
 44
0.0000000001
 40
0.0
 40
0.0
 40
0.0
 40
0.0
 40
1.0
 40
1.0
 40
1.0
 40
1.0
 10
396.6789149772
 20
412.1002649615
 30
0.0
 10
396.5415529462
 20
412.179569173
 30
0.0
 10
396.3772694158
 20
412.2375962492
 30
0.0
 10
396.2192936559
 20
412.2234136958
 30
0.0
  0
SPLINE
  5
3E0
100
AcDbEntity
  8
PART
100
AcDbSpline
 62
7
  6
CONTINUOUS
 70
0
 71
3
 72
8
 73
4
 74
0
 42
0.0000001
 43
0.0000001
 44
0.0000000001
 40
0.0
 40
0.0
 40
0.0
 40
0.0
 40
1.0
 40
1.0
 40
1.0
 40
1.0
 10
396.2192936559
 20
412.2234136958
 30
0.0
 10
396.1531443109
 20
412.2174750212
 30
0.0
 10
396.0864292727
 20
412.1978516875
 30
0.0
 10
396.028912271
 20
412.1646432816
 30
0.0
  0
SPLINE
  5
3E1
100
AcDbEntity
  8
PART
100
AcDbSpline
 62
7
  6
CONTINUOUS
 70
0
 71
3
 72
9
 73
5
 74
0
 42
0.0000001
 43
0.0000001
 44
0.0000000001
 40
0.0
 40
0.0
 40
0.0
 40
0.0
 40
0.2295052849
 40
1.0
 40
1.0
 40
1.0
 40
1.0
 10
496.564781396
 20
276.5400662079
 30
0.0
 10
496.564781396
 20
276.4348759252
 30
0.0
 10
496.5052803754
 20
275.9778814006
 30
0.0
 10
496.2788702284
 20
275.5485437088
 30
0.0
 10
496.0448664191
 20
275.2840567699
 30
0.0
  0
SPLINE
  5
3E2
100
AcDbEntity
  8
PART
100
AcDbSpline
 62
7
  6
CONTINUOUS
 70
0
 71
3
 72
8
 73
4
 74
0
 42
0.0000001
 43
0.0000001
 44
0.0000000001
 40
0.0
 40
0.0
 40
0.0
 40
0.0
 40
1.0
 40
1.0
 40
1.0
 40
1.0
 10
583.8928324517
 20
226.1223330247
 30
0.0
 10
584.0313215442
 20
226.0423781186
 30
0.0
 10
584.164589523
 20
225.9275467406
 30
0.0
 10
584.2310442479
 20
225.782096456
 30
0.0
  0
SPLINE
  5
3E3
100
AcDbEntity
  8
PART
100
AcDbSpline
 62
7
  6
CONTINUOUS
 70
0
 71
3
 72
9
 73
5
 74
0
 42
0.0000001
 43
0.0000001
 44
0.0000000001
 40
0.0
 40
0.0
 40
0.0
 40
0.0
 40
0.5080788027
 40
1.0
 40
1.0
 40
1.0
 40
1.0
 10
584.2310442479
 20
225.782096456
 30
0.0
 10
584.2448603549
 20
225.7518569704
 30
0.0
 10
584.2662364066
 20
225.6894384364
 30
0.0
 10
584.2735571212
 20
225.6238045757
 30
0.0
 10
584.2735448884
 20
225.5916156313
 30
0.0
  0
SPLINE
  5
3E4
100
AcDbEntity
  8
PART
100
AcDbSpline
 62
7
  6
CONTINUOUS
 70
0
 71
3
 72
8
 73
4
 74
0
 42
0.0000001
 43
0.0000001
 44
0.0000000001
 40
0.0
 40
0.0
 40
0.0
 40
0.0
 40
1.0
 40
1.0
 40
1.0
 40
1.0
 10
354.2529435696
 20
351.7140996722
 30
0.0
 10
353.9801000034
 20
351.5565743061
 30
0.0
 10
353.7604716913
 20
351.3007769099
 30
0.0
 10
353.6029462758
 20
351.0279333722
 30
0.0
  0
SPLINE
  5
3E5
100
AcDbEntity
  8
PART
100
AcDbSpline
 62
7
  6
CONTINUOUS
 70
0
 71
3
 72
15
 73
11
 74
0
 42
0.0000001
 43
0.0000001
 44
0.0000000001
 40
0.0
 40
0.0
 40
0.0
 40
0.0
 40
0.1464008383
 40
0.2780287221
 40
0.3967046424
 40
0.5071589927
 40
0.6163378549
 40
0.7316077178
 40
0.8585298616
 40
1.0
 40
1.0
 40
1.0
 40
1.0
 10
353.6029462758
 20
351.0279333722
 30
0.0
 10
351.7081997101
 20
352.1218410644
 30
0.0
 10
348.2583919586
 20
354.4825713005
 30
0.0
 10
344.0844931549
 20
358.7579014315
 30
0.0
 10
341.3434074578
 20
363.4794344253
 30
0.0
 10
340.2032355239
 20
368.4958215616
 30
0.0
 10
340.774757829
 20
373.5610593233
 30
0.0
 10
342.9981173987
 20
378.4017632371
 30
0.0
 10
346.7100998423
 20
382.8401252326
 30
0.0
 10
349.8981922311
 20
385.3200270355
 30
0.0
 10
351.6664160386
 20
386.4789428945
 30
0.0
  0
SPLINE
  5
3E6
100
AcDbEntity
  8
PART
100
AcDbSpline
 62
7
  6
CONTINUOUS
 70
0
 71
3
 72
9
 73
5
 74
0
 42
0.0000001
 43
0.0000001
 44
0.0000000001
 40
0.0
 40
0.0
 40
0.0
 40
0.0
 40
0.7044937883
 40
1.0
 40
1.0
 40
1.0
 40
1.0
 10
353.6026820382
 20
387.6699940493
 30
0.0
 10
353.7386738081
 20
387.7485111792
 30
0.0
 10
353.9978955056
 20
387.7359692114
 30
0.0
 10
354.1956410515
 20
387.6385491755
 30
0.0
 10
354.2526847444
 20
387.6056157292
 30
0.0
  0
SPLINE
  5
3E7
100
AcDbEntity
  8
PART
100
AcDbSpline
 62
7
  6
CONTINUOUS
 70
0
 71
3
 72
9
 73
5
 74
0
 42
0.0000001
 43
0.0000001
 44
0.0000000001
 40
0.0
 40
0.0
 40
0.0
 40
0.0
 40
0.5490649236
 40
1.0
 40
1.0
 40
1.0
 40
1.0
 10
351.6627244677
 20
386.6513889129
 30
0.0
 10
351.6873965827
 20
386.6371447829
 30
0.0
 10
351.7370707787
 20
386.6180099829
 30
0.0
 10
351.7924626804
 20
386.6248335341
 30
0.0
 10
351.8127250922
 20
386.6365323775
 30
0.0
  0
SPLINE
  5
3E8
100
AcDbEntity
  8
PART
100
AcDbSpline
 62
7
  6
CONTINUOUS
 70
0
 71
3
 72
15
 73
11
 74
0
 42
0.0000001
 43
0.0000001
 44
0.0000000001
 40
0.0
 40
0.0
 40
0.0
 40
0.0
 40
0.1447115463
 40
0.2742112757
 40
0.3907163625
 40
0.4996151212
 40
0.6085842829
 40
0.7252757687
 40
0.8550296954
 40
1.0
 40
1.0
 40
1.0
 40
1.0
 10
351.7002088372
 20
386.571350907
 30
0.0
 10
349.6308746605
 20
385.3685013906
 30
0.0
 10
345.8781934424
 20
382.767955247
 30
0.0
 10
341.4003599612
 20
378.0301227232
 30
0.0
 10
338.5743108418
 20
372.7888975253
 30
0.0
 10
337.6067257311
 20
367.2337742319
 30
0.0
 10
338.6078726717
 20
361.681735033
 30
0.0
 10
341.4641542147
 20
356.4478572835
 30
0.0
 10
345.9687124195
 20
351.719949857
 30
0.0
 10
349.7364273221
 20
349.1265307208
 30
0.0
 10
351.8130042344
 20
347.9276456039
 30
0.0
  0
SPLINE
  5
3E9
100
AcDbEntity
  8
PART
100
AcDbSpline
 62
7
  6
CONTINUOUS
 70
0
 71
3
 72
8
 73
4
 74
0
 42
0.0000001
 43
0.0000001
 44
0.0000000001
 40
0.0
 40
0.0
 40
0.0
 40
0.0
 40
1.0
 40
1.0
 40
1.0
 40
1.0
 10
351.8130042344
 20
347.9276456039
 30
0.0
 10
351.7766522155
 20
347.8646817106
 30
0.0
 10
351.7259687588
 20
347.8056515423
 30
0.0
 10
351.663004859
 20
347.7692995347
 30
0.0
  0
SPLINE
  5
3EA
100
AcDbEntity
  8
PART
100
AcDbSpline
 62
7
  6
CONTINUOUS
 70
0
 71
3
 72
8
 73
4
 74
0
 42
0.0000001
 43
0.0000001
 44
0.0000000001
 40
0.0
 40
0.0
 40
0.0
 40
0.0
 40
1.0
 40
1.0
 40
1.0
 40
1.0
 10
385.2590770614
 20
465.3895130772
 30
0.0
 10
385.1765266308
 20
465.2256223901
 30
0.0
 10
385.0844535162
 20
465.0664251512
 30
0.0
 10
384.9871551636
 20
464.9108367149
 30
0.0
  0
SPLINE
  5
3EB
100
AcDbEntity
  8
PART
100
AcDbSpline
 62
7
  6
CONTINUOUS
 70
0
 71
3
 72
8
 73
4
 74
0
 42
0.0000001
 43
0.0000001
 44
0.0000000001
 40
0.0
 40
0.0
 40
0.0
 40
0.0
 40
1.0
 40
1.0
 40
1.0
 40
1.0
 10
599.9195178448
 20
521.3530012908
 30
0.0
 10
599.7031036546
 20
521.2272371245
 30
0.0
 10
599.5218523142
 20
521.0294023421
 30
0.0
 10
599.4001311723
 20
520.8106886231
 30
0.0
  0
SPLINE
  5
3EC
100
AcDbEntity
  8
PART
100
AcDbSpline
 62
7
  6
CONTINUOUS
 70
0
 71
3
 72
8
 73
4
 74
0
 42
0.0000001
 43
0.0000001
 44
0.0000000001
 40
0.0
 40
0.0
 40
0.0
 40
0.0
 40
1.0
 40
1.0
 40
1.0
 40
1.0
 10
599.4001311723
 20
520.8106886231
 30
0.0
 10
599.3112065733
 20
520.6509051256
 30
0.0
 10
599.2478042509
 20
520.4758274915
 30
0.0
 10
599.2045308216
 20
520.2981599348
 30
0.0
  0
SPLINE
  5
3ED
100
AcDbEntity
  8
PART
100
AcDbSpline
 62
7
  6
CONTINUOUS
 70
0
 71
3
 72
8
 73
4
 74
0
 42
0.0000001
 43
0.0000001
 44
0.0000000001
 40
0.0
 40
0.0
 40
0.0
 40
0.0
 40
1.0
 40
1.0
 40
1.0
 40
1.0
 10
599.2045308216
 20
520.2981599348
 30
0.0
 10
599.1484782002
 20
520.0680248973
 30
0.0
 10
599.1246978203
 20
519.8289329091
 30
0.0
 10
599.1246978203
 20
519.5920700123
 30
0.0
  0
SPLINE
  5
3EE
100
AcDbEntity
  8
PART
100
AcDbSpline
 62
7
  6
CONTINUOUS
 70
0
 71
3
 72
8
 73
4
 74
0
 42
0.0000001
 43
0.0000001
 44
0.0000000001
 40
0.0
 40
0.0
 40
0.0
 40
0.0
 40
1.0
 40
1.0
 40
1.0
 40
1.0
 10
583.8249607273
 20
225.6838889233
 30
0.0
 10
583.8479534208
 20
225.762972774
 30
0.0
 10
583.8660568578
 20
225.8437252623
 30
0.0
 10
583.877879522
 20
225.9252307469
 30
0.0
  0
SPLINE
  5
3EF
100
AcDbEntity
  8
PART
100
AcDbSpline
 62
7
  6
CONTINUOUS
 70
0
 71
3
 72
8
 73
4
 74
0
 42
0.0000001
 43
0.0000001
 44
0.0000000001
 40
0.0
 40
0.0
 40
0.0
 40
0.0
 40
1.0
 40
1.0
 40
1.0
 40
1.0
 10
583.877879522
 20
225.9252307469
 30
0.0
 10
583.8873380506
 20
225.9904378734
 30
0.0
 10
583.8928324517
 20
226.0564434723
 30
0.0
 10
583.8928324517
 20
226.1223330247
 30
0.0
  0
SPLINE
  5
3F0
100
AcDbEntity
  8
PART
100
AcDbSpline
 62
7
  6
CONTINUOUS
 70
0
 71
3
 72
9
 73
5
 74
0
 42
0.0000001
 43
0.0000001
 44
0.0000000001
 40
0.0
 40
0.0
 40
0.0
 40
0.0
 40
0.2404968832
 40
1.0
 40
1.0
 40
1.0
 40
1.0
 10
497.7668579193
 20
278.6221353786
 30
0.0
 10
497.5963654523
 20
278.5237020945
 30
0.0
 10
496.9688049907
 20
277.9928213888
 30
0.0
 10
496.564781396
 20
277.1617850412
 30
0.0
 10
496.564781396
 20
276.5400662079
 30
0.0
  0
SPLINE
  5
3F1
100
AcDbEntity
  8
PART
100
AcDbSpline
 62
7
  6
CONTINUOUS
 70
0
 71
3
 72
9
 73
5
 74
0
 42
0.0000001
 43
0.0000001
 44
0.0000000001
 40
0.0
 40
0.0
 40
0.0
 40
0.0
 40
0.2404968832
 40
1.0
 40
1.0
 40
1.0
 40
1.0
 10
484.6845625728
 20
392.3176274283
 30
0.0
 10
484.5140701058
 20
392.2191941441
 30
0.0
 10
483.8865096442
 20
391.6883134385
 30
0.0
 10
483.4824860495
 20
390.8572770909
 30
0.0
 10
483.4824860495
 20
390.2355582576
 30
0.0
  0
SPLINE
  5
3F2
100
AcDbEntity
  8
PART
100
AcDbSpline
 62
7
  6
CONTINUOUS
 70
0
 71
3
 72
9
 73
5
 74
0
 42
0.0000001
 43
0.0000001
 44
0.0000000001
 40
0.0
 40
0.0
 40
0.0
 40
0.0
 40
0.2939100683
 40
1.0
 40
1.0
 40
1.0
 40
1.0
 10
567.7699906051
 20
339.4504293218
 30
0.0
 10
567.8441622128
 20
339.4932520638
 30
0.0
 10
568.1030754784
 20
339.6195391775
 30
0.0
 10
568.4418946739
 20
339.6376919953
 30
0.0
 10
568.6200853813
 20
339.5348158665
 30
0.0
  0
SPLINE
  5
3F3
100
AcDbEntity
  8
PART
100
AcDbSpline
 62
7
  6
CONTINUOUS
 70
0
 71
3
 72
8
 73
4
 74
0
 42
0.0000001
 43
0.0000001
 44
0.0000000001
 40
0.0
 40
0.0
 40
0.0
 40
0.0
 40
1.0
 40
1.0
 40
1.0
 40
1.0
 10
570.8105371052
 20
339.8178250743
 30
0.0
 10
570.8105371052
 20
340.085597175
 30
0.0
 10
570.8750416006
 20
340.3550700207
 30
0.0
 10
570.971584822
 20
340.6048325164
 30
0.0
  0
SPLINE
  5
3F4
100
AcDbEntity
  8
PART
100
AcDbSpline
 62
7
  6
CONTINUOUS
 70
0
 71
3
 72
9
 73
5
 74
0
 42
0.0000001
 43
0.0000001
 44
0.0000000001
 40
0.0
 40
0.0
 40
0.0
 40
0.0
 40
0.2630884645
 40
1.0
 40
1.0
 40
1.0
 40
1.0
 10
570.971584822
 20
340.6048325164
 30
0.0
 10
571.024617215
 20
340.7420301638
 30
0.0
 10
571.2675661011
 20
341.2442893716
 30
0.0
 10
571.6558097282
 20
341.6938946468
 30
0.0
 10
572.0126136284
 20
341.899894245
 30
0.0
  0
SPLINE
  5
3F5
100
AcDbEntity
  8
PART
100
AcDbSpline
 62
7
  6
CONTINUOUS
 70
0
 71
3
 72
8
 73
4
 74
0
 42
0.0000001
 43
0.0000001
 44
0.0000000001
 40
0.0
 40
0.0
 40
0.0
 40
0.0
 40
1.0
 40
1.0
 40
1.0
 40
1.0
 10
583.8928324517
 20
226.1223330247
 30
0.0
 10
583.8928324517
 20
226.3901051254
 30
0.0
 10
583.9573369471
 20
226.6595779711
 30
0.0
 10
584.0538801685
 20
226.9093404669
 30
0.0
  0
SPLINE
  5
3F6
100
AcDbEntity
  8
PART
100
AcDbSpline
 62
7
  6
CONTINUOUS
 70
0
 71
3
 72
9
 73
5
 74
0
 42
0.0000001
 43
0.0000001
 44
0.0000000001
 40
0.0
 40
0.0
 40
0.0
 40
0.0
 40
0.2630884645
 40
1.0
 40
1.0
 40
1.0
 40
1.0
 10
584.0538801685
 20
226.9093404669
 30
0.0
 10
584.1069125615
 20
227.0465381142
 30
0.0
 10
584.3498614476
 20
227.548797322
 30
0.0
 10
584.7381050747
 20
227.9984025972
 30
0.0
 10
585.0949089749
 20
228.2044021954
 30
0.0
  0
SPLINE
  5
3F7
100
AcDbEntity
  8
PART
100
AcDbSpline
 62
7
  6
CONTINUOUS
 70
0
 71
3
 72
9
 73
5
 74
0
 42
0.0000001
 43
0.0000001
 44
0.0000000001
 40
0.0
 40
0.0
 40
0.0
 40
0.0
 40
0.2295052849
 40
1.0
 40
1.0
 40
1.0
 40
1.0
 10
483.4824860495
 20
390.2355582576
 30
0.0
 10
483.4824860495
 20
390.1303679748
 30
0.0
 10
483.422985029
 20
389.6733734502
 30
0.0
 10
483.196574882
 20
389.2440357585
 30
0.0
 10
482.9625710726
 20
388.9795488196
 30
0.0
  0
SPLINE
  5
3F8
100
AcDbEntity
  8
PART
100
AcDbSpline
 62
7
  6
CONTINUOUS
 70
0
 71
3
 72
9
 73
5
 74
0
 42
0.0000001
 43
0.0000001
 44
0.0000000001
 40
0.0
 40
0.0
 40
0.0
 40
0.0
 40
0.2939100683
 40
1.0
 40
1.0
 40
1.0
 40
1.0
 10
580.8522859516
 20
225.7549372721
 30
0.0
 10
580.9264575593
 20
225.7977600141
 30
0.0
 10
581.1853708249
 20
225.9240471278
 30
0.0
 10
581.5241900204
 20
225.9421999457
 30
0.0
 10
581.7023807278
 20
225.8393238169
 30
0.0
  0
SPLINE
  5
3F9
100
AcDbEntity
  8
PART
100
AcDbSpline
 62
7
  6
CONTINUOUS
 70
0
 71
3
 72
8
 73
4
 74
0
 42
0.0000001
 43
0.0000001
 44
0.0000000001
 40
0.0
 40
0.0
 40
0.0
 40
0.0
 40
1.0
 40
1.0
 40
1.0
 40
1.0
 10
478.8191363807
 20
286.3075372364
 30
0.0
 10
478.8604415554
 20
286.4495778457
 30
0.0
 10
478.8870382673
 20
286.5981605897
 30
0.0
 10
478.8870382673
 20
286.746085071
 30
0.0
  0
SPLINE
  5
3FA
100
AcDbEntity
  8
PART
100
AcDbSpline
 62
7
  6
CONTINUOUS
 70
0
 71
3
 72
8
 73
4
 74
0
 42
0.0000001
 43
0.0000001
 44
0.0000000001
 40
0.0
 40
0.0
 40
0.0
 40
0.0
 40
1.0
 40
1.0
 40
1.0
 40
1.0
 10
570.7426653808
 20
339.3793809728
 30
0.0
 10
570.7656580743
 20
339.4584648236
 30
0.0
 10
570.7837615113
 20
339.5392173119
 30
0.0
 10
570.7955841755
 20
339.6207227965
 30
0.0
  0
SPLINE
  5
3FB
100
AcDbEntity
  8
PART
100
AcDbSpline
 62
7
  6
CONTINUOUS
 70
0
 71
3
 72
8
 73
4
 74
0
 42
0.0000001
 43
0.0000001
 44
0.0000000001
 40
0.0
 40
0.0
 40
0.0
 40
0.0
 40
1.0
 40
1.0
 40
1.0
 40
1.0
 10
570.7955841755
 20
339.6207227965
 30
0.0
 10
570.8050427041
 20
339.685929923
 30
0.0
 10
570.8105371052
 20
339.7519355219
 30
0.0
 10
570.8105371052
 20
339.8178250743
 30
0.0
  0
SPLINE
  5
3FC
100
AcDbEntity
  8
PART
100
AcDbSpline
 62
7
  6
CONTINUOUS
 70
0
 71
3
 72
8
 73
4
 74
0
 42
0.0000001
 43
0.0000001
 44
0.0000000001
 40
0.0
 40
0.0
 40
0.0
 40
0.0
 40
1.0
 40
1.0
 40
1.0
 40
1.0
 10
570.8105371052
 20
339.8178250742
 30
0.0
 10
570.9490261977
 20
339.7378701682
 30
0.0
 10
571.0822941765
 20
339.6230387902
 30
0.0
 10
571.1487489014
 20
339.4775885056
 30
0.0
  0
SPLINE
  5
3FD
100
AcDbEntity
  8
PART
100
AcDbSpline
 62
7
  6
CONTINUOUS
 70
0
 71
3
 72
9
 73
5
 74
0
 42
0.0000001
 43
0.0000001
 44
0.0000000001
 40
0.0
 40
0.0
 40
0.0
 40
0.0
 40
0.5080788027
 40
1.0
 40
1.0
 40
1.0
 40
1.0
 10
571.1487489014
 20
339.4775885056
 30
0.0
 10
571.1625650084
 20
339.4473490199
 30
0.0
 10
571.1839410601
 20
339.3849304859
 30
0.0
 10
571.1912617747
 20
339.3192966253
 30
0.0
 10
571.1912495419
 20
339.2871076809
 30
0.0
  0
SPLINE
  5
3FE
100
AcDbEntity
  8
PART
100
AcDbSpline
 62
7
  6
CONTINUOUS
 70
0
 71
3
 72
9
 73
5
 74
0
 42
0.0000001
 43
0.0000001
 44
0.0000000001
 40
0.0
 40
0.0
 40
0.0
 40
0.0
 40
0.2295052849
 40
1.0
 40
1.0
 40
1.0
 40
1.0
 10
391.5589872117
 20
337.1638182543
 30
0.0
 10
391.5589872117
 20
337.0586279715
 30
0.0
 10
391.4994861911
 20
336.6016334469
 30
0.0
 10
391.2730760441
 20
336.1722957551
 30
0.0
 10
391.0390722348
 20
335.9078088162
 30
0.0
  0
SPLINE
  5
3FF
100
AcDbEntity
  8
PART
100
AcDbSpline
 62
7
  6
CONTINUOUS
 70
0
 71
3
 72
8
 73
4
 74
0
 42
0.0000001
 43
0.0000001
 44
0.0000000001
 40
0.0
 40
0.0
 40
0.0
 40
0.0
 40
1.0
 40
1.0
 40
1.0
 40
1.0
 10
478.8870382673
 20
286.746085071
 30
0.0
 10
478.8870382673
 20
287.0138571717
 30
0.0
 10
478.9515427627
 20
287.2833300174
 30
0.0
 10
479.0480859841
 20
287.5330925131
 30
0.0
  0
SPLINE
  5
400
100
AcDbEntity
  8
PART
100
AcDbSpline
 62
7
  6
CONTINUOUS
 70
0
 71
3
 72
9
 73
5
 74
0
 42
0.0000001
 43
0.0000001
 44
0.0000000001
 40
0.0
 40
0.0
 40
0.0
 40
0.0
 40
0.2630884645
 40
1.0
 40
1.0
 40
1.0
 40
1.0
 10
479.0480859841
 20
287.5330925131
 30
0.0
 10
479.1011183772
 20
287.6702901605
 30
0.0
 10
479.3440672632
 20
288.1725493683
 30
0.0
 10
479.7323108904
 20
288.6221546435
 30
0.0
 10
480.0891147906
 20
288.8281542417
 30
0.0
  0
SPLINE
  5
401
100
AcDbEntity
  8
PART
100
AcDbSpline
 62
7
  6
CONTINUOUS
 70
0
 71
3
 72
9
 73
5
 74
0
 42
0.0000001
 43
0.0000001
 44
0.0000000001
 40
0.0
 40
0.0
 40
0.0
 40
0.0
 40
0.2404968832
 40
1.0
 40
1.0
 40
1.0
 40
1.0
 10
392.7610637349
 20
339.245887425
 30
0.0
 10
392.5905712679
 20
339.1474541408
 30
0.0
 10
391.9630108064
 20
338.6165734352
 30
0.0
 10
391.5589872117
 20
337.7855370875
 30
0.0
 10
391.5589872117
 20
337.1638182543
 30
0.0
  0
SPLINE
  5
402
100
AcDbEntity
  8
PART
100
AcDbSpline
 62
7
  6
CONTINUOUS
 70
0
 71
3
 72
9
 73
5
 74
0
 42
0.0000001
 43
0.0000001
 44
0.0000000001
 40
0.0
 40
0.0
 40
0.0
 40
0.0
 40
0.2287147145
 40
1.0
 40
1.0
 40
1.0
 40
1.0
 10
391.5589872117
 20
337.1638182543
 30
0.0
 10
391.474235239
 20
337.2127487215
 30
0.0
 10
391.0785658666
 20
337.3813351289
 30
0.0
 10
390.6294013857
 20
337.4086491372
 30
0.0
 10
390.3032822367
 20
337.3580704778
 30
0.0
  0
SPLINE
  5
403
100
AcDbEntity
  8
PART
100
AcDbSpline
 62
7
  6
CONTINUOUS
 70
0
 71
3
 72
9
 73
5
 74
0
 42
0.0000001
 43
0.0000001
 44
0.0000000001
 40
0.0
 40
0.0
 40
0.0
 40
0.0
 40
0.298289053
 40
1.0
 40
1.0
 40
1.0
 40
1.0
 10
390.3032822367
 20
337.3580704778
 30
0.0
 10
390.1971385032
 20
337.3416083726
 30
0.0
 10
389.8523209855
 20
337.2620438104
 30
0.0
 10
389.4906415985
 20
337.0564524683
 30
0.0
 10
389.3840472483
 20
336.8273530778
 30
0.0
  0
SPLINE
  5
404
100
AcDbEntity
  8
PART
100
AcDbSpline
 62
7
  6
CONTINUOUS
 70
0
 71
3
 72
9
 73
5
 74
0
 42
0.0000001
 43
0.0000001
 44
0.0000000001
 40
0.0
 40
0.0
 40
0.0
 40
0.0
 40
0.2939100683
 40
1.0
 40
1.0
 40
1.0
 40
1.0
 10
475.8464917673
 20
286.3786893185
 30
0.0
 10
475.9206633749
 20
286.4215120605
 30
0.0
 10
476.1795766406
 20
286.5477991742
 30
0.0
 10
476.518395836
 20
286.565951992
 30
0.0
 10
476.6965865435
 20
286.4630758632
 30
0.0
  0
ENDSEC
  0
SECTION
  2
OBJECTS
  0
DICTIONARY
  5
C
100
AcDbDictionary
280
0
281
1
  3
ACAD_GROUP
350
D
  3
ACAD_MLINESTYLE
350
17
  3
ACAD_LAYOUT
350
1A
  3
ACAD_PLOTSETTINGS
350
19
  3
ACAD_PLOTSTYLENAME
350
E
  0
DICTIONARY
  5
D
102
{ACAD_REACTORS
330
C
102
}
100
AcDbDictionary
280
0
281
1
  0
ACDBDICTIONARYWDFLT
  5
E
102
{ACAD_REACTORS
330
C
102
}
100
AcDbDictionary
281
1
  3
Normal
350
F
100
AcDbDictionaryWithDefault
340
F
  0
DICTIONARY
  5
17
102
{ACAD_REACTORS
330
C
102
}
100
AcDbDictionary
280
0
281
1
  3
Standard
350
18
  0
DICTIONARY
  5
19
102
{ACAD_REACTORS
330
C
102
}
100
AcDbDictionary
281
1
  0
DICTIONARY
  5
1A
102
{ACAD_REACTORS
330
C
102
}
100
AcDbDictionary
281
1
  3
Model
350
405
  3
Layout1
350
406
  0
ACDBPLACEHOLDER
  5
F
102
{ACAD_REACTORS
330
E
102
}
  0
MLINESTYLE
  5
18
102
{ACAD_REACTORS
330
17
102
}
100
AcDbMlineStyle
  2
STANDARD
 70
0
  3

 62
256
 51
90.0
 52
90.0
 71
2
 49
0.5
 62
256
  6
BYLAYER
 49
-0.5
 62
256
  6
BYLAYER
  0
LAYOUT
  5
405
102
{ACAD_REACTORS
330
1A
102
}
100
AcDbPlotSettings
  1

  2
none_device
  4

  6

 40
0.0
 41
0.0
 42
0.0
 43
0.0
 44
210.0
 45
297.0
 46
0.0
 47
0.0
 48
0.0
 49
0.0
140
0.0
141
0.0
142
1.0
143
1.0
 70
1024
 72
1
 73
0
 74
0
  7

 75
0
147
1.0
148
0.0
149
0.0
100
AcDbLayout
  1
Model
 70
0
 71
0
 10
0.0
 20
0.0
 11
210.0
 21
297.0
 12
0.0
 22
0.0
 32
0.0
 14
0.0
 24
0.0
 34
0.0
 15
0.0
 25
0.0
 35
0.0
146
0.0
 13
0.0
 23
0.0
 33
0.0
 16
1.0
 26
0.0
 36
0.0
 17
0.0
 27
1.0
 37
0.0
 76
0
330
211
345
0
346
0
  0
LAYOUT
  5
406
102
{ACAD_REACTORS
330
1A
102
}
100
AcDbPlotSettings
  1

  2
none_device
  4

  6

 40
0.0
 41
0.0
 42
0.0
 43
0.0
 44
210.0
 45
297.0
 46
0.0
 47
0.0
 48
0.0
 49
0.0
140
0.0
141
0.0
142
1.0
143
1.0
 70
0
 72
1
 73
0
 74
0
  7

 75
0
147
1.0
148
0.0
149
0.0
100
AcDbLayout
  1
Layout1
 70
0
 71
1
 10
0.0
 20
0.0
 11
210.0
 21
297.0
 12
0.0
 22
0.0
 32
0.0
 14
0.0
 24
0.0
 34
0.0
 15
0.0
 25
0.0
 35
0.0
146
0.0
 13
0.0
 23
0.0
 33
0.0
 16
1.0
 26
0.0
 36
0.0
 17
0.0
 27
1.0
 37
0.0
 76
0
330
212
345
0
346
0
  0
ENDSEC
  0
EOF
