999
DXF file: C:\Vinayak\New 2D genarating\updateCreo8 with 3dPdf\CAD\NSYCRN106300_3D-CAD\drw0001_3.dxf
999
Pro/ENGINEER 2021284 by Parametric Technology Corporation
  0
SECTION
  2
HEADER
  9
$ACADVER
  1
AC1024
  9
$DWGCODEPAGE
  3
ANSI_1252
  9
$EXTMAX
 10
758.4377693787
 20
1072.647702407
 30
0.0
  9
$EXTMIN
 10
0.0
 20
0.0
 30
0.0
  9
$LIMMIN
 10
0.0
 20
0.0
  9
$LIMMAX
 10
758.4377693787
 20
1072.647702407
  9
$VIEWCTR
 10
379.2188846893
 20
536.3238512035
  9
$VIEWSIZE
 40
1072.647702407
  9
$CLAYER
  8
0
  9
$LTSCALE
 40
69.9207391199
  9
$CELTYPE
  6
BYLAYER
  9
$DIMSCALE
 40
1.0
  9
$DIMASZ
 40
9.029021064
  9
$DIMEXO
 40
1.0
  9
$DIMDLI
 40
48.308874301
  9
$DIMEXE
 40
1.0
  9
$DIMCEN
 40
11.4415754923
  9
$DIMLFAC
 40
1.0
  9
$DIMBLK
  1
_FILLED
  9
$DIMALT
 70
0
  9
$DIMALTF
 40
0.0393700787
  9
$DIMTXT
 40
12.6406294896
  9
$DIMTOL
 70
1
  9
$DIMLIM
 70
0
  9
$DIMTFAC
 40
1.0
  9
$DIMTP
 40
0.01
  9
$DIMTM
 40
0.01
  9
$DIMGAP
 40
0.625
  9
$DIMDSEP
 70
46
  9
$AUNITS
 70
0
  9
$PDMODE
 70
3
  9
$PDSIZE
 40
0.3125
  9
$HANDSEED
  5
2B5
  9
$TILEMODE
 70
1
  9
$MEASUREMENT
 70
1
  9
$INSUNITS
 70
4
  0
ENDSEC
  0
SECTION
  2
CLASSES
  0
CLASS
  1
ACDBDICTIONARYWDFLT
  2
AcDbDictionaryWithDefault
  3
AutoCAD 2000
 90
0
 91
1
280
0
281
0
  0
CLASS
  1
ACDBPLACEHOLDER
  2
AcDbPlaceHolder
  3
AutoCAD 2000
 90
0
 91
1
280
0
281
0
  0
CLASS
  1
LAYOUT
  2
AcDbLayout
  3
AutoCAD 2000
 90
0
 91
0
280
0
281
0
  0
ENDSEC
  0
SECTION
  2
TABLES
  0
TABLE
  2
VPORT
  5
8
100
AcDbSymbolTable
 70
2
  0
VPORT
  5
1F4
100
AcDbSymbolTableRecord
100
AcDbViewportTableRecord
  2
*ACTIVE
 70
0
 10
0.0
 20
0.0
 11
1.0
 21
1.0
 12
379.2188846893
 22
536.3238512035
 13
0.0
 23
0.0
 14
1.0
 24
1.0
 15
0.0
 25
0.0
 16
0.0
 26
0.0
 36
1.0
 17
0.0
 27
0.0
 37
0.0
 40
1072.647702407
 41
0.7070707071
 42
50.0
 43
0.0
 44
0.0
 50
0.0
 51
0.0
 71
0
 72
100
 73
1
 74
1
 75
0
 76
0
 77
0
 78
0
  0
ENDTAB
  0
TABLE
  2
LTYPE
  5
5
100
AcDbSymbolTable
 70
6
  0
LTYPE
  5
14
100
AcDbSymbolTableRecord
100
AcDbLinetypeTableRecord
  2
BYBLOCK
 70
0
  3

 72
65
 73
0
 40
0.0
  0
LTYPE
  5
15
100
AcDbSymbolTableRecord
100
AcDbLinetypeTableRecord
  2
BYLAYER
 70
0
  3

 72
65
 73
0
 40
0.0
  0
LTYPE
  5
16
100
AcDbSymbolTableRecord
100
AcDbLinetypeTableRecord
  2
CONTINUOUS
 70
64
  3
Solid line
 72
65
 73
0
 40
0.0
  0
LTYPE
  5
1F5
100
AcDbSymbolTableRecord
100
AcDbLinetypeTableRecord
  2
CENTER
 70
64
  3
____ _ ____ _ ____ _ ____ _ ____ _ ____ _ ____
 72
65
 73
4
 40
0.6
 49
0.375
 74
0
 49
-0.075
 74
0
 49
0.075
 74
0
 49
-0.075
 74
0
  0
LTYPE
  5
1F6
100
AcDbSymbolTableRecord
100
AcDbLinetypeTableRecord
  2
HIDDEN
 70
64
  3
- - - - - - - - - - - - - - - - - - - -
 72
65
 73
2
 40
0.2
 49
0.1
 74
0
 49
-0.1
 74
0
  0
LTYPE
  5
1F7
100
AcDbSymbolTableRecord
100
AcDbLinetypeTableRecord
  2
PHANTOM
 70
64
  3
_____ _ _ _____ _ _ _____ _ _ _____
 72
65
 73
6
 40
0.8
 49
0.45
 74
0
 49
-0.05
 74
0
 49
0.1
 74
0
 49
-0.05
 74
0
 49
0.1
 74
0
 49
-0.05
 74
0
  0
LTYPE
  5
1F8
100
AcDbSymbolTableRecord
100
AcDbLinetypeTableRecord
  2
DOT
 70
64
  3
. . . . . . . . . . . . . . . . . . . .
 72
65
 73
2
 40
0.2
 49
0.1
 74
0
 49
-0.1
 74
0
  0
LTYPE
  5
1F9
100
AcDbSymbolTableRecord
100
AcDbLinetypeTableRecord
  2
DASHED
 70
64
  3
- - - - - - - - - - - - - - - - - - - -
 72
65
 73
2
 40
0.2
 49
0.1
 74
0
 49
-0.1
 74
0
  0
ENDTAB
  0
TABLE
  2
LAYER
  5
2
100
AcDbSymbolTable
 70
36
  0
LAYER
  5
10
100
AcDbSymbolTableRecord
100
AcDbLayerTableRecord
  2
0
 70
0
 62
7
  6
CONTINUOUS
370
-3
390
F
  0
LAYER
  5
1FA
100
AcDbSymbolTableRecord
100
AcDbLayerTableRecord
  2
DEFAULT_1
 70
0
 62
7
  6
CENTER
370
-3
390
F
  0
LAYER
  5
1FB
100
AcDbSymbolTableRecord
100
AcDbLayerTableRecord
  2
DEFAULT_2
 70
0
 62
8
  6
HIDDEN
370
-3
390
F
  0
LAYER
  5
1FC
100
AcDbSymbolTableRecord
100
AcDbLayerTableRecord
  2
DEFAULT_3
 70
0
 62
7
  6
PHANTOM
370
-3
390
F
  0
LAYER
  5
1FD
100
AcDbSymbolTableRecord
100
AcDbLayerTableRecord
  2
00_COMPONENTS
 70
0
 62
7
  6
CONTINUOUS
370
-3
390
F
  0
LAYER
  5
1FE
100
AcDbSymbolTableRecord
100
AcDbLayerTableRecord
  2
01_1_DEFAULT_DATUMS
 70
0
 62
7
  6
CONTINUOUS
370
-3
390
F
  0
LAYER
  5
1FF
100
AcDbSymbolTableRecord
100
AcDbLayerTableRecord
  2
01_PLANES
 70
0
 62
7
  6
CONTINUOUS
370
-3
390
F
  0
LAYER
  5
200
100
AcDbSymbolTableRecord
100
AcDbLayerTableRecord
  2
02_COORD_SYS
 70
0
 62
7
  6
CONTINUOUS
370
-3
390
F
  0
LAYER
  5
201
100
AcDbSymbolTableRecord
100
AcDbLayerTableRecord
  2
03_AXES
 70
0
 62
7
  6
CONTINUOUS
370
-3
390
F
  0
LAYER
  5
202
100
AcDbSymbolTableRecord
100
AcDbLayerTableRecord
  2
04_POINTS
 70
0
 62
7
  6
CONTINUOUS
370
-3
390
F
  0
LAYER
  5
203
100
AcDbSymbolTableRecord
100
AcDbLayerTableRecord
  2
05_CURVES
 70
0
 62
7
  6
CONTINUOUS
370
-3
390
F
  0
LAYER
  5
204
100
AcDbSymbolTableRecord
100
AcDbLayerTableRecord
  2
06_SURFS
 70
0
 62
7
  6
CONTINUOUS
370
-3
390
F
  0
LAYER
  5
205
100
AcDbSymbolTableRecord
100
AcDbLayerTableRecord
  2
07_COSMETICS
 70
0
 62
7
  6
CONTINUOUS
370
-3
390
F
  0
LAYER
  5
206
100
AcDbSymbolTableRecord
100
AcDbLayerTableRecord
  2
10_NOTES
 70
0
 62
7
  6
CONTINUOUS
370
-3
390
F
  0
LAYER
  5
207
100
AcDbSymbolTableRecord
100
AcDbLayerTableRecord
  2
11_NOTES_PUB
 70
0
 62
7
  6
CONTINUOUS
370
-3
390
F
  0
LAYER
  5
208
100
AcDbSymbolTableRecord
100
AcDbLayerTableRecord
  2
13_REF_GTOL
 70
0
 62
7
  6
CONTINUOUS
370
-3
390
F
  0
LAYER
  5
209
100
AcDbSymbolTableRecord
100
AcDbLayerTableRecord
  2
16_MISC
 70
0
 62
7
  6
CONTINUOUS
370
-3
390
F
  0
LAYER
  5
20A
100
AcDbSymbolTableRecord
100
AcDbLayerTableRecord
  2
17_NO_PRINT
 70
0
 62
7
  6
CONTINUOUS
370
-3
390
F
  0
LAYER
  5
20B
100
AcDbSymbolTableRecord
100
AcDbLayerTableRecord
  2
18_DATUM_CAMS_JOINTS
 70
0
 62
7
  6
CONTINUOUS
370
-3
390
F
  0
LAYER
  5
20C
100
AcDbSymbolTableRecord
100
AcDbLayerTableRecord
  2
19_DATUM_FUNCTIONAL
 70
0
 62
7
  6
CONTINUOUS
370
-3
390
F
  0
LAYER
  5
20D
100
AcDbSymbolTableRecord
100
AcDbLayerTableRecord
  2
20_DATUM_KINEMATIC_SCHEME
 70
0
 62
7
  6
CONTINUOUS
370
-3
390
F
  0
LAYER
  5
20E
100
AcDbSymbolTableRecord
100
AcDbLayerTableRecord
  2
PART
 70
0
 62
7
  6
CONTINUOUS
370
-3
390
F
  0
ENDTAB
  0
TABLE
  2
STYLE
  5
3
100
AcDbSymbolTable
 70
1
  0
STYLE
  5
11
100
AcDbSymbolTableRecord
100
AcDbTextStyleTableRecord
  2
STANDARD
 70
0
 40
0.0
 41
0.8
 50
0.0
 71
0
 42
0.2
  3
txt
  4

  0
STYLE
  5
20F
100
AcDbSymbolTableRecord
100
AcDbTextStyleTableRecord
  2
TEXTSTYLE_1
 70
0
 40
0.0
 41
0.8
 50
0.0
 71
0
 42
0.2
  3
gdt
  4

  0
ENDTAB
  0
TABLE
  2
VIEW
  5
6
100
AcDbSymbolTable
 70
0
  0
ENDTAB
  0
TABLE
  2
UCS
  5
7
100
AcDbSymbolTable
 70
0
  0
ENDTAB
  0
TABLE
  2
APPID
  5
9
100
AcDbSymbolTable
 70
1
  0
APPID
  5
210
100
AcDbSymbolTableRecord
100
AcDbRegAppTableRecord
  2
ACAD
 70
0
  0
ENDTAB
  0
TABLE
  2
BLOCK_RECORD
  5
1
100
AcDbSymbolTable
 70
0
  0
BLOCK_RECORD
  5
211
100
AcDbSymbolTableRecord
100
AcDbBlockTableRecord
  2
*Model_Space
  0
BLOCK_RECORD
  5
212
100
AcDbSymbolTableRecord
100
AcDbBlockTableRecord
  2
*Paper_Space
  0
BLOCK_RECORD
  5
213
100
AcDbSymbolTableRecord
100
AcDbBlockTableRecord
  2
_FILLED
  0
ENDTAB
  0
TABLE
  2
DIMSTYLE
  5
A
100
AcDbSymbolTable
 70
1
100
AcDbDimStyleTable
 71
0
  0
DIMSTYLE
105
214
100
AcDbSymbolTableRecord
100
AcDbDimStyleTableRecord
  2
STANDARD
 70
0
  3

  4

 40
1.0
 41
9.029021064
 42
1.0
 43
0.38
 44
1.0
 45
0.0
 46
0.0
 47
0.01
 48
0.01
140
12.6406294896
141
0.09
142
0.0
143
25.4
144
1.0
145
0.0
146
1.0
147
0.625
 71
1
 72
0
 73
0
 74
0
 75
0
 76
0
 77
1
 78
8
 79
2
170
0
171
1
172
0
173
0
174
0
175
0
176
0
177
0
178
0
270
2
179
2
271
2
272
2
273
2
274
2
275
0
280
0
281
0
282
0
283
1
284
8
285
0
286
0
287
3
288
0
340
11
278
46
341
213
342
213
343
213
344
213
  0
ENDTAB
  0
ENDSEC
  0
SECTION
  2
BLOCKS
  0
BLOCK
  5
20
100
AcDbEntity
  8
0
100
AcDbBlockBegin
  2
*Model_Space
 70
0
 10
0.0
 20
0.0
 30
0.0
  3
*Model_Space
  1

  0
ENDBLK
  5
21
100
AcDbEntity
  8
0
100
AcDbBlockEnd
  0
BLOCK
  5
1C
100
AcDbEntity
  8
0
100
AcDbBlockBegin
  2
*Paper_Space
 70
0
 10
0.0
 20
0.0
 30
0.0
  3
*Paper_Space
  1

  0
ENDBLK
  5
1D
100
AcDbEntity
  8
0
100
AcDbBlockEnd
  0
BLOCK
  5
215
100
AcDbEntity
  8
0
100
AcDbBlockBegin
  2
_FILLED
 70
64
 10
0.0
 20
0.0
  3
_FILLED
  1

  0
SOLID
  5
216
100
AcDbEntity
  8
0
  6
BYBLOCK
 62
0
100
AcDbTrace
 10
0.0
 20
0.0
 11
-1.0
 21
0.25
 12
-1.0
 22
-0.25
 13
-1.0
 23
-0.25
  0
ENDBLK
  5
217
100
AcDbEntity
  8
0
  6
BYBLOCK
 62
0
100
AcDbBlockEnd
  0
ENDSEC
  0
SECTION
  2
ENTITIES
  0
LINE
  5
218
100
AcDbEntity
  8
PART
100
AcDbLine
 62
7
  6
CONTINUOUS
 10
105.122166965
 20
685.7108329209
 11
105.7223234147
 21
686.7499730635
  0
LINE
  5
219
100
AcDbEntity
  8
PART
100
AcDbLine
 62
7
  6
CONTINUOUS
 10
107.6714953729
 20
685.62422681
 11
107.0713389232
 21
684.5850866674
  0
LINE
  5
21A
100
AcDbEntity
  8
PART
100
AcDbLine
 62
7
  6
CONTINUOUS
 10
109.5222973397
 20
683.169533133
 11
109.6724147076
 21
683.4294536639
  0
LINE
  5
21B
100
AcDbEntity
  8
PART
100
AcDbLine
 62
7
  6
CONTINUOUS
 10
89.7221669651
 20
392.4928329208
 11
89.7221669651
 21
668.9508329208
  0
LINE
  5
21C
100
AcDbEntity
  8
PART
100
AcDbLine
 62
7
  6
CONTINUOUS
 10
90.9221669651
 20
668.9508329208
 11
90.9221669651
 21
391.1493694751
  0
LINE
  5
21D
100
AcDbEntity
  8
PART
100
AcDbLine
 62
7
  6
CONTINUOUS
 10
107.6714953729
 20
684.5850866675
 11
107.6714953729
 21
685.62422681
  0
LINE
  5
21E
100
AcDbEntity
  8
PART
100
AcDbLine
 62
7
  6
CONTINUOUS
 10
110.0221669651
 20
682.3035830141
 11
110.0221669651
 21
672.1508329208
  0
LINE
  5
21F
100
AcDbEntity
  8
PART
100
AcDbLine
 62
7
  6
CONTINUOUS
 10
110.0462141382
 20
686.7499730634
 11
110.0462141382
 21
685.7108329209
  0
LINE
  5
220
100
AcDbEntity
  8
PART
100
AcDbLine
 62
7
  6
CONTINUOUS
 10
111.2221669651
 20
682.3035830141
 11
111.2221669651
 21
672.1508329208
  0
LINE
  5
221
100
AcDbEntity
  8
PART
100
AcDbLine
 62
7
  6
CONTINUOUS
 10
163.6008466215
 20
450.140793742
 11
163.6008466215
 21
510.1407937414
  0
LINE
  5
222
100
AcDbEntity
  8
PART
100
AcDbLine
 62
7
  6
CONTINUOUS
 10
164.6615067933
 20
510.1407937417
 11
164.6615067933
 21
450.1407937417
  0
LINE
  5
223
100
AcDbEntity
  8
PART
100
AcDbLine
 62
7
  6
CONTINUOUS
 10
167.222166965
 20
510.1407937417
 11
167.222166965
 21
450.1407937417
  0
LINE
  5
224
100
AcDbEntity
  8
PART
100
AcDbLine
 62
7
  6
CONTINUOUS
 10
181.2221669651
 20
510.1407937417
 11
181.2221669651
 21
450.1407937417
  0
LINE
  5
225
100
AcDbEntity
  8
PART
100
AcDbLine
 62
7
  6
CONTINUOUS
 10
211.2221669651
 20
557.7621140852
 11
211.2221669651
 21
554.1407937418
  0
LINE
  5
226
100
AcDbEntity
  8
PART
100
AcDbLine
 62
7
  6
CONTINUOUS
 10
211.2221669651
 20
406.1407937417
 11
211.2221669651
 21
402.5194733981
  0
LINE
  5
227
100
AcDbEntity
  8
PART
100
AcDbLine
 62
7
  6
CONTINUOUS
 10
91.0749813881
 20
391.1407938553
 11
90.9221669651
 21
391.1493694751
  0
LINE
  5
228
100
AcDbEntity
  8
PART
100
AcDbLine
 62
7
  6
CONTINUOUS
 10
253.7221669651
 20
548.1407937417
 11
253.7221669651
 21
542.1407937417
  0
LINE
  5
229
100
AcDbEntity
  8
PART
100
AcDbLine
 62
7
  6
CONTINUOUS
 10
253.7221669651
 20
418.1407937417
 11
253.7221669651
 21
412.1407937417
  0
LINE
  5
22A
100
AcDbEntity
  8
PART
100
AcDbLine
 62
7
  6
CONTINUOUS
 10
91.0744269093
 20
391.1407937417
 11
687.5221669651
 21
391.1407937417
  0
LINE
  5
22B
100
AcDbEntity
  8
PART
100
AcDbLine
 62
7
  6
CONTINUOUS
 10
90.9221669651
 20
392.4928329208
 11
689.7221669651
 21
392.4928329208
  0
LINE
  5
22C
100
AcDbEntity
  8
PART
100
AcDbLine
 62
7
  6
CONTINUOUS
 10
568.2221669651
 20
402.5194733981
 11
211.2221669651
 21
402.5194733981
  0
LINE
  5
22D
100
AcDbEntity
  8
PART
100
AcDbLine
 62
7
  6
CONTINUOUS
 10
211.2221669651
 20
403.5801335699
 11
568.2221669651
 21
403.5801335699
  0
LINE
  5
22E
100
AcDbEntity
  8
PART
100
AcDbLine
 62
7
  6
CONTINUOUS
 10
211.2221669651
 20
406.1407937417
 11
568.2221669651
 21
406.1407937417
  0
LINE
  5
22F
100
AcDbEntity
  8
PART
100
AcDbLine
 62
7
  6
CONTINUOUS
 10
525.7221669651
 20
412.1407937417
 11
402.22216649
 21
412.1407937417
  0
LINE
  5
230
100
AcDbEntity
  8
PART
100
AcDbLine
 62
7
  6
CONTINUOUS
 10
377.2221674401
 20
412.1407937417
 11
253.7221669651
 21
412.1407937417
  0
LINE
  5
231
100
AcDbEntity
  8
PART
100
AcDbLine
 62
7
  6
CONTINUOUS
 10
377.2221669651
 20
412.6407937417
 11
253.7221669651
 21
412.6407937417
  0
LINE
  5
232
100
AcDbEntity
  8
PART
100
AcDbLine
 62
7
  6
CONTINUOUS
 10
402.2221669651
 20
412.6407937417
 11
525.7221669651
 21
412.6407937417
  0
LINE
  5
233
100
AcDbEntity
  8
PART
100
AcDbLine
 62
7
  6
CONTINUOUS
 10
377.2221669651
 20
417.6407937417
 11
253.7221669651
 21
417.6407937417
  0
LINE
  5
234
100
AcDbEntity
  8
PART
100
AcDbLine
 62
7
  6
CONTINUOUS
 10
402.2221669651
 20
417.6407937417
 11
525.7221669651
 21
417.6407937417
  0
LINE
  5
235
100
AcDbEntity
  8
PART
100
AcDbLine
 62
7
  6
CONTINUOUS
 10
253.7221669651
 20
418.1407937417
 11
377.22216649
 21
418.1407937417
  0
LINE
  5
236
100
AcDbEntity
  8
PART
100
AcDbLine
 62
7
  6
CONTINUOUS
 10
402.2221674401
 20
418.1407937417
 11
525.7221669651
 21
418.1407937417
  0
LINE
  5
237
100
AcDbEntity
  8
PART
100
AcDbLine
 62
7
  6
CONTINUOUS
 10
211.2221669651
 20
420.1407937417
 11
568.2221669651
 21
420.1407937417
  0
LINE
  5
238
100
AcDbEntity
  8
PART
100
AcDbLine
 62
7
  6
CONTINUOUS
 10
163.6008466215
 20
450.1407937417
 11
167.222166965
 21
450.1407937417
  0
LINE
  5
239
100
AcDbEntity
  8
PART
100
AcDbLine
 62
7
  6
CONTINUOUS
 10
612.2221669651
 20
450.1407937417
 11
615.8434873087
 21
450.1407937417
  0
LINE
  5
23A
100
AcDbEntity
  8
PART
100
AcDbLine
 62
7
  6
CONTINUOUS
 10
615.8434873087
 20
510.1407937417
 11
612.2221669651
 21
510.1407937417
  0
LINE
  5
23B
100
AcDbEntity
  8
PART
100
AcDbLine
 62
7
  6
CONTINUOUS
 10
167.222166965
 20
510.1407937417
 11
163.6008466215
 21
510.1407937417
  0
LINE
  5
23C
100
AcDbEntity
  8
PART
100
AcDbLine
 62
7
  6
CONTINUOUS
 10
377.2221669651
 20
412.1407937417
 11
377.2221669651
 21
418.1407937417
  0
LINE
  5
23D
100
AcDbEntity
  8
PART
100
AcDbLine
 62
7
  6
CONTINUOUS
 10
377.2221669651
 20
542.1407937417
 11
377.2221669651
 21
548.1407937417
  0
LINE
  5
23E
100
AcDbEntity
  8
PART
100
AcDbLine
 62
7
  6
CONTINUOUS
 10
568.2221669651
 20
540.1407937417
 11
211.2221669651
 21
540.1407937417
  0
LINE
  5
23F
100
AcDbEntity
  8
PART
100
AcDbLine
 62
7
  6
CONTINUOUS
 10
105.1221669651
 20
685.7108329208
 11
109.5222973398
 21
683.169533133
  0
LINE
  5
240
100
AcDbEntity
  8
PART
100
AcDbLine
 62
7
  6
CONTINUOUS
 10
110.1224537895
 20
683.169533133
 11
107.6714953729
 21
684.5850866674
  0
LINE
  5
241
100
AcDbEntity
  8
PART
100
AcDbLine
 62
7
  6
CONTINUOUS
 10
107.6714953729
 20
685.6242268101
 11
105.7223234148
 21
686.7499730634
  0
LINE
  5
242
100
AcDbEntity
  8
PART
100
AcDbLine
 62
7
  6
CONTINUOUS
 10
402.2221669651
 20
548.1407937417
 11
402.2221669651
 21
542.1407937417
  0
LINE
  5
243
100
AcDbEntity
  8
PART
100
AcDbLine
 62
7
  6
CONTINUOUS
 10
402.2221669651
 20
418.1407937417
 11
402.2221669651
 21
412.1407937417
  0
LINE
  5
244
100
AcDbEntity
  8
PART
100
AcDbLine
 62
7
  6
CONTINUOUS
 10
673.7220105154
 20
686.7499730634
 11
671.7728385572
 21
685.62422681
  0
LINE
  5
245
100
AcDbEntity
  8
PART
100
AcDbLine
 62
7
  6
CONTINUOUS
 10
671.7728385572
 20
684.5850866674
 11
669.3218801406
 21
683.169533133
  0
LINE
  5
246
100
AcDbEntity
  8
PART
100
AcDbLine
 62
7
  6
CONTINUOUS
 10
669.9220365903
 20
683.169533133
 11
674.3221669651
 21
685.7108329208
  0
LINE
  5
247
100
AcDbEntity
  8
PART
100
AcDbLine
 62
7
  6
CONTINUOUS
 10
525.7221669651
 20
542.1407937417
 11
402.2221674646
 21
542.1407937417
  0
LINE
  5
248
100
AcDbEntity
  8
PART
100
AcDbLine
 62
7
  6
CONTINUOUS
 10
377.2221664646
 20
542.1407937417
 11
253.7221669651
 21
542.1407937417
  0
LINE
  5
249
100
AcDbEntity
  8
PART
100
AcDbLine
 62
7
  6
CONTINUOUS
 10
377.2221669651
 20
542.6407937417
 11
253.7221669651
 21
542.6407937417
  0
LINE
  5
24A
100
AcDbEntity
  8
PART
100
AcDbLine
 62
7
  6
CONTINUOUS
 10
402.2221669651
 20
542.6407937417
 11
525.7221669651
 21
542.6407937417
  0
LINE
  5
24B
100
AcDbEntity
  8
PART
100
AcDbLine
 62
7
  6
CONTINUOUS
 10
377.2221669651
 20
547.6407937417
 11
253.7221669651
 21
547.6407937417
  0
LINE
  5
24C
100
AcDbEntity
  8
PART
100
AcDbLine
 62
7
  6
CONTINUOUS
 10
402.2221669651
 20
547.6407937417
 11
525.7221669651
 21
547.6407937417
  0
LINE
  5
24D
100
AcDbEntity
  8
PART
100
AcDbLine
 62
7
  6
CONTINUOUS
 10
253.7221669651
 20
548.1407937417
 11
377.2221674655
 21
548.1407937417
  0
LINE
  5
24E
100
AcDbEntity
  8
PART
100
AcDbLine
 62
7
  6
CONTINUOUS
 10
402.2221664655
 20
548.1407937417
 11
525.7221669651
 21
548.1407937417
  0
LINE
  5
24F
100
AcDbEntity
  8
PART
100
AcDbLine
 62
7
  6
CONTINUOUS
 10
568.2221669651
 20
554.1407937418
 11
211.2221669651
 21
554.1407937418
  0
LINE
  5
250
100
AcDbEntity
  8
PART
100
AcDbLine
 62
7
  6
CONTINUOUS
 10
568.2221669651
 20
556.7014539135
 11
211.2221669651
 21
556.7014539135
  0
LINE
  5
251
100
AcDbEntity
  8
PART
100
AcDbLine
 62
7
  6
CONTINUOUS
 10
211.2221669645
 20
557.7621140852
 11
568.2221669656
 21
557.7621140852
  0
LINE
  5
252
100
AcDbEntity
  8
PART
100
AcDbLine
 62
7
  6
CONTINUOUS
 10
525.7221669651
 20
412.1407937417
 11
525.7221669651
 21
418.1407937417
  0
LINE
  5
253
100
AcDbEntity
  8
PART
100
AcDbLine
 62
7
  6
CONTINUOUS
 10
525.7221669651
 20
542.1407937417
 11
525.7221669651
 21
548.1407937417
  0
LINE
  5
254
100
AcDbEntity
  8
PART
100
AcDbLine
 62
7
  6
CONTINUOUS
 10
689.7221669651
 20
668.9508329208
 11
89.7221669651
 21
668.9508329208
  0
LINE
  5
255
100
AcDbEntity
  8
PART
100
AcDbLine
 62
7
  6
CONTINUOUS
 10
91.9221669651
 20
671.1508329208
 11
687.522166965
 21
671.1508329208
  0
LINE
  5
256
100
AcDbEntity
  8
PART
100
AcDbLine
 62
7
  6
CONTINUOUS
 10
110.0221669651
 20
672.1508329208
 11
669.4221669651
 21
672.1508329208
  0
LINE
  5
257
100
AcDbEntity
  8
PART
100
AcDbLine
 62
7
  6
CONTINUOUS
 10
669.4221669651
 20
682.3035830141
 11
110.0221669651
 21
682.3035830141
  0
LINE
  5
258
100
AcDbEntity
  8
PART
100
AcDbLine
 62
7
  6
CONTINUOUS
 10
110.1224537895
 20
683.169533133
 11
669.3218801406
 21
683.169533133
  0
LINE
  5
259
100
AcDbEntity
  8
PART
100
AcDbLine
 62
7
  6
CONTINUOUS
 10
669.3981197919
 20
685.7108329209
 11
110.0462141382
 21
685.7108329209
  0
LINE
  5
25A
100
AcDbEntity
  8
PART
100
AcDbLine
 62
7
  6
CONTINUOUS
 10
669.3981197919
 20
686.7499730634
 11
110.0462141382
 21
686.7499730634
  0
LINE
  5
25B
100
AcDbEntity
  8
PART
100
AcDbLine
 62
7
  6
CONTINUOUS
 10
568.2221669651
 20
402.5194733981
 11
568.2221669651
 21
406.1407937417
  0
LINE
  5
25C
100
AcDbEntity
  8
PART
100
AcDbLine
 62
7
  6
CONTINUOUS
 10
568.2221669651
 20
554.1407937418
 11
568.2221669651
 21
557.7621140852
  0
LINE
  5
25D
100
AcDbEntity
  8
PART
100
AcDbLine
 62
7
  6
CONTINUOUS
 10
598.2221669651
 20
450.1407937417
 11
598.2221669651
 21
510.1407937417
  0
LINE
  5
25E
100
AcDbEntity
  8
PART
100
AcDbLine
 62
7
  6
CONTINUOUS
 10
612.2221669651
 20
450.1407937417
 11
612.2221669651
 21
510.1407937417
  0
LINE
  5
25F
100
AcDbEntity
  8
PART
100
AcDbLine
 62
7
  6
CONTINUOUS
 10
614.7828271369
 20
450.1407937417
 11
614.7828271369
 21
510.1407937417
  0
LINE
  5
260
100
AcDbEntity
  8
PART
100
AcDbLine
 62
7
  6
CONTINUOUS
 10
615.8434873087
 20
510.1407937414
 11
615.8434873087
 21
450.140793742
  0
LINE
  5
261
100
AcDbEntity
  8
PART
100
AcDbLine
 62
7
  6
CONTINUOUS
 10
668.2221669651
 20
682.3035830141
 11
668.2221669651
 21
672.1508329208
  0
LINE
  5
262
100
AcDbEntity
  8
PART
100
AcDbLine
 62
7
  6
CONTINUOUS
 10
669.3981197919
 20
685.7108329209
 11
669.3981197919
 21
686.7499730634
  0
LINE
  5
263
100
AcDbEntity
  8
PART
100
AcDbLine
 62
7
  6
CONTINUOUS
 10
669.4221669651
 20
682.3035830141
 11
669.4221669651
 21
672.1508329208
  0
LINE
  5
264
100
AcDbEntity
  8
PART
100
AcDbLine
 62
7
  6
CONTINUOUS
 10
671.7728385572
 20
685.62422681
 11
671.7728385572
 21
684.5850866674
  0
LINE
  5
265
100
AcDbEntity
  8
PART
100
AcDbLine
 62
7
  6
CONTINUOUS
 10
687.5221669651
 20
391.1407998014
 11
687.5221669651
 21
671.1508329208
  0
LINE
  5
266
100
AcDbEntity
  8
PART
100
AcDbLine
 62
7
  6
CONTINUOUS
 10
689.7221669651
 20
668.9508329208
 11
689.7221669651
 21
392.4928329208
  0
LINE
  5
267
100
AcDbEntity
  8
PART
100
AcDbLine
 62
7
  6
CONTINUOUS
 10
687.5221669651
 20
391.4440240727
 11
688.2777225206
 21
392.3762986044
  0
LINE
  5
268
100
AcDbEntity
  8
PART
100
AcDbLine
 62
7
  6
CONTINUOUS
 10
669.7719192225
 20
683.4294536639
 11
669.9220365904
 21
683.169533133
  0
LINE
  5
269
100
AcDbEntity
  8
PART
100
AcDbLine
 62
7
  6
CONTINUOUS
 10
672.372995007
 20
684.5850866674
 11
671.7728385572
 21
685.62422681
  0
LINE
  5
26A
100
AcDbEntity
  8
PART
100
AcDbLine
 62
7
  6
CONTINUOUS
 10
673.7220105154
 20
686.7499730635
 11
674.3221669651
 21
685.7108329209
  0
ARC
  5
26B
100
AcDbEntity
  8
PART
100
AcDbCircle
 62
7
  6
CONTINUOUS
 10
211.2221669651
 20
450.1407937417
 40
47.6213203436
100
AcDbArc
 50
179.9999999996
 51
270.0
  0
ARC
  5
26C
100
AcDbEntity
  8
PART
100
AcDbCircle
 62
7
  6
CONTINUOUS
 10
211.2221669651
 20
450.1407937417
 40
46.5606601718
100
AcDbArc
 50
180.0
 51
270.0
  0
ARC
  5
26D
100
AcDbEntity
  8
PART
100
AcDbCircle
 62
7
  6
CONTINUOUS
 10
211.2221669651
 20
450.1407937417
 40
44.0
100
AcDbArc
 50
179.9999999992
 51
270.0000000001
  0
ARC
  5
26E
100
AcDbEntity
  8
PART
100
AcDbCircle
 62
7
  6
CONTINUOUS
 10
211.2221669651
 20
450.1407937417
 40
30.0
100
AcDbArc
 50
180.0
 51
270.0
  0
ARC
  5
26F
100
AcDbEntity
  8
PART
100
AcDbCircle
 62
7
  6
CONTINUOUS
 10
91.0721669651
 20
392.4928329208
 40
1.35
100
AcDbArc
 50
180.0
 51
263.6206297916
  0
ARC
  5
270
100
AcDbEntity
  8
PART
100
AcDbCircle
 62
7
  6
CONTINUOUS
 10
211.2221669651
 20
510.1407937417
 40
47.6213203436
100
AcDbArc
 50
90.0000000006
 51
180.0000000004
  0
ARC
  5
271
100
AcDbEntity
  8
PART
100
AcDbCircle
 62
7
  6
CONTINUOUS
 10
211.2221669651
 20
510.1407937417
 40
46.5606601718
100
AcDbArc
 50
90.0
 51
180.0
  0
ARC
  5
272
100
AcDbEntity
  8
PART
100
AcDbCircle
 62
7
  6
CONTINUOUS
 10
211.2221669651
 20
510.1407937417
 40
44.0
100
AcDbArc
 50
89.9999999992
 51
180.0000000008
  0
ARC
  5
273
100
AcDbEntity
  8
PART
100
AcDbCircle
 62
7
  6
CONTINUOUS
 10
211.2221669651
 20
510.1407937417
 40
30.0
100
AcDbArc
 50
90.0
 51
180.0
  0
CIRCLE
  5
274
100
AcDbEntity
  8
PART
100
AcDbCircle
 62
7
  6
CONTINUOUS
 10
176.2221669651
 20
480.1407937417
 40
1.9
  0
ARC
  5
275
100
AcDbEntity
  8
PART
100
AcDbCircle
 62
7
  6
CONTINUOUS
 10
377.2221669651
 20
415.1407937417
 40
3.0
100
AcDbArc
 50
270.000009073
 51
90.0000090731
  0
ARC
  5
276
100
AcDbEntity
  8
PART
100
AcDbCircle
 62
7
  6
CONTINUOUS
 10
253.7221669651
 20
415.1407937417
 40
3.0
100
AcDbArc
 50
90.0
 51
270.0
  0
ARC
  5
277
100
AcDbEntity
  8
PART
100
AcDbCircle
 62
7
  6
CONTINUOUS
 10
377.2221669651
 20
415.1407937417
 40
2.5
100
AcDbArc
 50
270.0
 51
90.0
  0
ARC
  5
278
100
AcDbEntity
  8
PART
100
AcDbCircle
 62
7
  6
CONTINUOUS
 10
253.7221669651
 20
415.1407937417
 40
2.5
100
AcDbArc
 50
90.0
 51
270.0
  0
CIRCLE
  5
279
100
AcDbEntity
  8
PART
100
AcDbCircle
 62
7
  6
CONTINUOUS
 10
241.2221669651
 20
415.1407937417
 40
1.9
  0
ARC
  5
27A
100
AcDbEntity
  8
PART
100
AcDbCircle
 62
7
  6
CONTINUOUS
 10
118.9421047258
 20
663.714076871
 40
23.727497678
100
AcDbArc
 50
112.0193089391
 51
114.1996954263
  0
ARC
  5
27B
100
AcDbEntity
  8
PART
100
AcDbCircle
 62
7
  6
CONTINUOUS
 10
118.1706743918
 20
665.4381132044
 40
21.8387425945
100
AcDbArc
 50
114.2077630477
 51
115.937770298
  0
ARC
  5
27C
100
AcDbEntity
  8
PART
100
AcDbCircle
 62
7
  6
CONTINUOUS
 10
117.744836455
 20
666.3207971879
 40
20.8587126703
100
AcDbArc
 50
115.9463903736
 51
116.5437491024
  0
ARC
  5
27D
100
AcDbEntity
  8
PART
100
AcDbCircle
 62
7
  6
CONTINUOUS
 10
117.2595778359
 20
667.2799622566
 40
19.7837978203
100
AcDbArc
 50
116.527888663
 51
118.9890964353
  0
CIRCLE
  5
27E
100
AcDbEntity
  8
PART
100
AcDbCircle
 62
7
  6
CONTINUOUS
 10
104.022166965
 20
659.6508329208
 40
5.15
  0
ARC
  5
27F
100
AcDbEntity
  8
PART
100
AcDbCircle
 62
7
  6
CONTINUOUS
 10
377.2221669651
 20
545.1407937417
 40
3.0
100
AcDbArc
 50
269.999990442
 51
89.999990442
  0
ARC
  5
280
100
AcDbEntity
  8
PART
100
AcDbCircle
 62
7
  6
CONTINUOUS
 10
253.7221669651
 20
545.1407937417
 40
3.0
100
AcDbArc
 50
90.0
 51
270.0
  0
ARC
  5
281
100
AcDbEntity
  8
PART
100
AcDbCircle
 62
7
  6
CONTINUOUS
 10
377.2221669651
 20
545.1407937417
 40
2.5
100
AcDbArc
 50
270.0
 51
90.0
  0
ARC
  5
282
100
AcDbEntity
  8
PART
100
AcDbCircle
 62
7
  6
CONTINUOUS
 10
253.7221669651
 20
545.1407937417
 40
2.5
100
AcDbArc
 50
90.0
 51
270.0
  0
ARC
  5
283
100
AcDbEntity
  8
PART
100
AcDbCircle
 62
7
  6
CONTINUOUS
 10
91.9221669651
 20
668.9508329208
 40
2.2
100
AcDbArc
 50
90.0
 51
180.0
  0
CIRCLE
  5
284
100
AcDbEntity
  8
PART
100
AcDbCircle
 62
7
  6
CONTINUOUS
 10
241.2221669651
 20
545.1407937417
 40
1.9
  0
ARC
  5
285
100
AcDbEntity
  8
PART
100
AcDbCircle
 62
7
  6
CONTINUOUS
 10
109.0221669651
 20
672.1508329208
 40
1.0
100
AcDbArc
 50
299.9999793426
 51
360.0
  0
ARC
  5
286
100
AcDbEntity
  8
PART
100
AcDbCircle
 62
7
  6
CONTINUOUS
 10
109.0221669651
 20
682.3035830141
 40
1.0
100
AcDbArc
 50
0.0
 51
59.9913741035
  0
ARC
  5
287
100
AcDbEntity
  8
PART
100
AcDbCircle
 62
7
  6
CONTINUOUS
 10
402.2221669651
 20
415.1407937417
 40
3.0
100
AcDbArc
 50
89.999990927
 51
269.999990927
  0
ARC
  5
288
100
AcDbEntity
  8
PART
100
AcDbCircle
 62
7
  6
CONTINUOUS
 10
525.7221669651
 20
415.1407937417
 40
3.0
100
AcDbArc
 50
270.0
 51
90.0
  0
ARC
  5
289
100
AcDbEntity
  8
PART
100
AcDbCircle
 62
7
  6
CONTINUOUS
 10
402.2221669651
 20
415.1407937417
 40
2.5
100
AcDbArc
 50
90.0
 51
270.0
  0
ARC
  5
28A
100
AcDbEntity
  8
PART
100
AcDbCircle
 62
7
  6
CONTINUOUS
 10
525.7221669651
 20
415.1407937417
 40
2.5
100
AcDbArc
 50
270.0
 51
90.0
  0
CIRCLE
  5
28B
100
AcDbEntity
  8
PART
100
AcDbCircle
 62
7
  6
CONTINUOUS
 10
389.7221669651
 20
415.1407937417
 40
1.9
  0
CIRCLE
  5
28C
100
AcDbEntity
  8
PART
100
AcDbCircle
 62
7
  6
CONTINUOUS
 10
538.2221669651
 20
415.1407937417
 40
1.9
  0
ARC
  5
28D
100
AcDbEntity
  8
PART
100
AcDbCircle
 62
7
  6
CONTINUOUS
 10
568.2221669651
 20
450.1407937417
 40
47.6213203436
100
AcDbArc
 50
270.0
 51
360.0
  0
ARC
  5
28E
100
AcDbEntity
  8
PART
100
AcDbCircle
 62
7
  6
CONTINUOUS
 10
568.2221669651
 20
450.1407937417
 40
46.5606601718
100
AcDbArc
 50
270.0
 51
360.0
  0
ARC
  5
28F
100
AcDbEntity
  8
PART
100
AcDbCircle
 62
7
  6
CONTINUOUS
 10
568.2221669651
 20
450.1407937417
 40
44.0
100
AcDbArc
 50
270.0000000003
 51
359.9999999997
  0
ARC
  5
290
100
AcDbEntity
  8
PART
100
AcDbCircle
 62
7
  6
CONTINUOUS
 10
568.2221669651
 20
450.1407937417
 40
30.0
100
AcDbArc
 50
270.0
 51
360.0
  0
ARC
  5
291
100
AcDbEntity
  8
PART
100
AcDbCircle
 62
7
  6
CONTINUOUS
 10
688.3721669651
 20
392.4928329208
 40
1.35
100
AcDbArc
 50
230.9771974348
 51
360.0
  0
ARC
  5
292
100
AcDbEntity
  8
PART
100
AcDbCircle
 62
7
  6
CONTINUOUS
 10
568.2221669651
 20
510.1407937417
 40
47.6213203436
100
AcDbArc
 50
0.0
 51
89.9999999994
  0
ARC
  5
293
100
AcDbEntity
  8
PART
100
AcDbCircle
 62
7
  6
CONTINUOUS
 10
568.2221669651
 20
510.1407937417
 40
46.5606601718
100
AcDbArc
 50
0.0
 51
90.0
  0
ARC
  5
294
100
AcDbEntity
  8
PART
100
AcDbCircle
 62
7
  6
CONTINUOUS
 10
568.2221669651
 20
510.1407937417
 40
44.0
100
AcDbArc
 50
0.0000000003
 51
90.0000000004
  0
ARC
  5
295
100
AcDbEntity
  8
PART
100
AcDbCircle
 62
7
  6
CONTINUOUS
 10
568.2221669651
 20
510.1407937417
 40
30.0
100
AcDbArc
 50
0.0
 51
90.0
  0
CIRCLE
  5
296
100
AcDbEntity
  8
PART
100
AcDbCircle
 62
7
  6
CONTINUOUS
 10
603.2221669651
 20
480.1407937417
 40
1.9
  0
ARC
  5
297
100
AcDbEntity
  8
PART
100
AcDbCircle
 62
7
  6
CONTINUOUS
 10
402.2221669651
 20
545.1407937417
 40
3.0
100
AcDbArc
 50
90.0000095414
 51
270.0000095414
  0
ARC
  5
298
100
AcDbEntity
  8
PART
100
AcDbCircle
 62
7
  6
CONTINUOUS
 10
525.7221669651
 20
545.1407937417
 40
3.0
100
AcDbArc
 50
270.0
 51
90.0
  0
ARC
  5
299
100
AcDbEntity
  8
PART
100
AcDbCircle
 62
7
  6
CONTINUOUS
 10
402.2221669651
 20
545.1407937417
 40
2.5
100
AcDbArc
 50
90.0
 51
270.0
  0
ARC
  5
29A
100
AcDbEntity
  8
PART
100
AcDbCircle
 62
7
  6
CONTINUOUS
 10
525.7221669651
 20
545.1407937417
 40
2.5
100
AcDbArc
 50
270.0
 51
90.0
  0
CIRCLE
  5
29B
100
AcDbEntity
  8
PART
100
AcDbCircle
 62
7
  6
CONTINUOUS
 10
389.7221669651
 20
545.1407937417
 40
1.9
  0
CIRCLE
  5
29C
100
AcDbEntity
  8
PART
100
AcDbCircle
 62
7
  6
CONTINUOUS
 10
538.2221669651
 20
545.1407937417
 40
1.9
  0
ARC
  5
29D
100
AcDbEntity
  8
PART
100
AcDbCircle
 62
7
  6
CONTINUOUS
 10
660.5022291813
 20
663.7140768162
 40
23.7274977375
100
AcDbArc
 50
65.8003045773
 51
67.980691059
  0
ARC
  5
29E
100
AcDbEntity
  8
PART
100
AcDbCircle
 62
7
  6
CONTINUOUS
 10
661.2736595542
 20
665.4381132379
 40
21.8387425575
100
AcDbArc
 50
64.0622297009
 51
65.7922369544
  0
ARC
  5
29F
100
AcDbEntity
  8
PART
100
AcDbCircle
 62
7
  6
CONTINUOUS
 10
661.699497484
 20
666.320797207
 40
20.8587126493
100
AcDbArc
 50
63.456250896
 51
64.0536096254
  0
ARC
  5
2A0
100
AcDbEntity
  8
PART
100
AcDbCircle
 62
7
  6
CONTINUOUS
 10
661.9679528222
 20
666.8567428396
 40
20.259291638
100
AcDbArc
 50
62.4140739256
 51
63.458101734
  0
ARC
  5
2A1
100
AcDbEntity
  8
PART
100
AcDbCircle
 62
7
  6
CONTINUOUS
 10
662.3524873401
 20
667.5907596581
 40
19.4306502093
100
AcDbArc
 50
60.9993760513
 51
62.4167641388
  0
ARC
  5
2A2
100
AcDbEntity
  8
PART
100
AcDbCircle
 62
7
  6
CONTINUOUS
 10
687.5221669651
 20
668.9508329208
 40
2.2
100
AcDbArc
 50
0.0
 51
90.0
  0
ARC
  5
2A3
100
AcDbEntity
  8
PART
100
AcDbCircle
 62
7
  6
CONTINUOUS
 10
687.5221669651
 20
668.9508329208
 40
1.0
100
AcDbArc
 50
0.0
 51
90.0
  0
ARC
  5
2A4
100
AcDbEntity
  8
PART
100
AcDbCircle
 62
7
  6
CONTINUOUS
 10
670.4221669651
 20
672.1508329208
 40
1.0
100
AcDbArc
 50
180.0
 51
209.9999793429
  0
ARC
  5
2A5
100
AcDbEntity
  8
PART
100
AcDbCircle
 62
7
  6
CONTINUOUS
 10
670.4221669651
 20
682.3035830141
 40
1.0
100
AcDbArc
 50
120.0086258965
 51
180.0
  0
SPLINE
  5
2A6
100
AcDbEntity
  8
PART
100
AcDbSpline
 62
7
  6
CONTINUOUS
 70
0
 71
3
 72
8
 73
4
 74
0
 42
0.0000001
 43
0.0000001
 44
0.0000000001
 40
0.0
 40
0.0
 40
0.0
 40
0.0
 40
1.0
 40
1.0
 40
1.0
 40
1.0
 10
90.9221669651
 20
668.9508329208
 30
0.0
 10
90.9746361917
 20
669.1321535517
 30
0.0
 10
91.0271187974
 20
669.3134751243
 30
0.0
 10
91.0811464551
 20
669.4943375115
 30
0.0
  0
SPLINE
  5
2A7
100
AcDbEntity
  8
PART
100
AcDbSpline
 62
7
  6
CONTINUOUS
 70
0
 71
3
 72
9
 73
5
 74
0
 42
0.0000001
 43
0.0000001
 44
0.0000000001
 40
0.0
 40
0.0
 40
0.0
 40
0.0
 40
0.296725569
 40
1.0
 40
1.0
 40
1.0
 40
1.0
 10
91.0811464551
 20
669.4943375115
 30
0.0
 10
91.1223186474
 20
669.6321650857
 30
0.0
 10
91.2661420458
 20
670.093955357
 30
0.0
 10
91.4175636731
 20
670.5612995266
 30
0.0
 10
91.5888336306
 20
670.8560887818
 30
0.0
  0
SPLINE
  5
2A8
100
AcDbEntity
  8
PART
100
AcDbSpline
 62
7
  6
CONTINUOUS
 70
0
 71
3
 72
9
 73
5
 74
0
 42
0.0000001
 43
0.0000001
 44
0.0000000001
 40
0.0
 40
0.0
 40
0.0
 40
0.0
 40
0.3355638364
 40
1.0
 40
1.0
 40
1.0
 40
1.0
 10
91.5888336306
 20
670.8560887818
 30
0.0
 10
91.6142804185
 20
670.8998877047
 30
0.0
 10
91.6922628576
 20
671.0228872959
 30
0.0
 10
91.821867948
 20
671.1508329208
 30
0.0
 10
91.9221669651
 20
671.1508329208
 30
0.0
  0
SPLINE
  5
2A9
100
AcDbEntity
  8
PART
100
AcDbSpline
 62
7
  6
CONTINUOUS
 70
0
 71
3
 72
9
 73
5
 74
0
 42
0.0000001
 43
0.0000001
 44
0.0000000001
 40
0.0
 40
0.0
 40
0.0
 40
0.0
 40
0.2353834571
 40
1.0
 40
1.0
 40
1.0
 40
1.0
 10
109.0221669651
 20
671.1508329208
 30
0.0
 10
109.1447827643
 20
671.1508329208
 30
0.0
 10
109.6668814285
 20
671.2013761908
 30
0.0
 10
110.1500487567
 20
671.4413802956
 30
0.0
 10
110.4888336317
 20
671.650833233
 30
0.0
  0
SPLINE
  5
2AA
100
AcDbEntity
  8
PART
100
AcDbSpline
 62
7
  6
CONTINUOUS
 70
0
 71
3
 72
8
 73
4
 74
0
 42
0.0000001
 43
0.0000001
 44
0.0000000001
 40
0.0
 40
0.0
 40
0.0
 40
0.0
 40
1.0
 40
1.0
 40
1.0
 40
1.0
 10
110.4888336317
 20
671.650833233
 30
0.0
 10
110.7404798157
 20
671.8064128834
 30
0.0
 10
110.9813862334
 20
671.9789158805
 30
0.0
 10
111.2221669651
 20
672.1508329208
 30
0.0
  0
SPLINE
  5
2AB
100
AcDbEntity
  8
PART
100
AcDbSpline
 62
7
  6
CONTINUOUS
 70
0
 71
3
 72
9
 73
5
 74
0
 42
0.0000001
 43
0.0000001
 44
0.0000000001
 40
0.0
 40
0.0
 40
0.0
 40
0.0
 40
0.2628758126
 40
1.0
 40
1.0
 40
1.0
 40
1.0
 10
668.2221669651
 20
672.1508329208
 30
0.0
 10
668.3437752621
 20
672.0640047998
 30
0.0
 10
668.805561471
 20
671.7349322241
 30
0.0
 10
669.2941541235
 20
671.4254753041
 30
0.0
 10
669.6888336315
 20
671.2848073368
 30
0.0
  0
SPLINE
  5
2AC
100
AcDbEntity
  8
PART
100
AcDbSpline
 62
7
  6
CONTINUOUS
 70
0
 71
3
 72
8
 73
4
 74
0
 42
0.0000001
 43
0.0000001
 44
0.0000000001
 40
0.0
 40
0.0
 40
0.0
 40
0.0
 40
1.0
 40
1.0
 40
1.0
 40
1.0
 10
111.2221669651
 20
682.3035830141
 30
0.0
 10
110.9706485528
 20
682.5430560014
 30
0.0
 10
110.719325625
 20
682.7868891835
 30
0.0
 10
110.4342970834
 20
682.9853017684
 30
0.0
  0
SPLINE
  5
2AD
100
AcDbEntity
  8
PART
100
AcDbSpline
 62
7
  6
CONTINUOUS
 70
0
 71
3
 72
8
 73
4
 74
0
 42
0.0000001
 43
0.0000001
 44
0.0000000001
 40
0.0
 40
0.0
 40
0.0
 40
0.0
 40
1.0
 40
1.0
 40
1.0
 40
1.0
 10
110.4342970834
 20
682.9853017684
 30
0.0
 10
110.3352084869
 20
683.0542788064
 30
0.0
 10
110.2314590636
 20
683.1176271414
 30
0.0
 10
110.1224537895
 20
683.169533133
 30
0.0
  0
SPLINE
  5
2AE
100
AcDbEntity
  8
PART
100
AcDbSpline
 62
7
  6
CONTINUOUS
 70
0
 71
3
 72
8
 73
4
 74
0
 42
0.0000001
 43
0.0000001
 44
0.0000000001
 40
0.0
 40
0.0
 40
0.0
 40
0.0
 40
1.0
 40
1.0
 40
1.0
 40
1.0
 10
669.3218801406
 20
683.169533133
 30
0.0
 10
669.1927111579
 20
683.1080256125
 30
0.0
 10
669.070907917
 20
683.0305830887
 30
0.0
 10
668.9553090821
 20
682.9462936438
 30
0.0
  0
SPLINE
  5
2AF
100
AcDbEntity
  8
PART
100
AcDbSpline
 62
7
  6
CONTINUOUS
 70
0
 71
3
 72
8
 73
4
 74
0
 42
0.0000001
 43
0.0000001
 44
0.0000000001
 40
0.0
 40
0.0
 40
0.0
 40
0.0
 40
1.0
 40
1.0
 40
1.0
 40
1.0
 10
668.9553090821
 20
682.9462936438
 30
0.0
 10
668.8276030028
 20
682.8531761435
 30
0.0
 10
668.7065243783
 20
682.7509415295
 30
0.0
 10
668.5887380236
 20
682.6455561121
 30
0.0
  0
SPLINE
  5
2B0
100
AcDbEntity
  8
PART
100
AcDbSpline
 62
7
  6
CONTINUOUS
 70
0
 71
3
 72
8
 73
4
 74
0
 42
0.0000001
 43
0.0000001
 44
0.0000000001
 40
0.0
 40
0.0
 40
0.0
 40
0.0
 40
1.0
 40
1.0
 40
1.0
 40
1.0
 10
668.5887380236
 20
682.6455561121
 30
0.0
 10
668.464202431
 20
682.5341320391
 30
0.0
 10
668.3431912324
 20
682.4188113291
 30
0.0
 10
668.2221669651
 20
682.3035830141
 30
0.0
  0
SPLINE
  5
2B1
100
AcDbEntity
  8
PART
100
AcDbSpline
 62
7
  6
CONTINUOUS
 70
0
 71
3
 72
9
 73
5
 74
0
 42
0.0000001
 43
0.0000001
 44
0.0000000001
 40
0.0
 40
0.0
 40
0.0
 40
0.0
 40
0.2584998096
 40
1.0
 40
1.0
 40
1.0
 40
1.0
 10
110.0462141382
 20
686.7499730634
 30
0.0
 10
109.8362375564
 20
686.6649797835
 30
0.0
 10
109.0285046284
 20
686.3251505203
 30
0.0
 10
108.2397740468
 20
685.9393120444
 30
0.0
 10
107.6714953729
 20
685.62422681
 30
0.0
  0
SPLINE
  5
2B2
100
AcDbEntity
  8
PART
100
AcDbSpline
 62
7
  6
CONTINUOUS
 70
0
 71
3
 72
9
 73
5
 74
0
 42
0.0000001
 43
0.0000001
 44
0.0000000001
 40
0.0
 40
0.0
 40
0.0
 40
0.0
 40
0.2414578205
 40
1.0
 40
1.0
 40
1.0
 40
1.0
 10
671.7728385572
 20
685.62422681
 30
0.0
 10
671.5877846678
 20
685.7268309562
 30
0.0
 10
670.8142951106
 20
686.138942041
 30
0.0
 10
670.0142850664
 20
686.5005647381
 30
0.0
 10
669.3981197919
 20
686.7499730634
 30
0.0
  0
ENDSEC
  0
SECTION
  2
OBJECTS
  0
DICTIONARY
  5
C
100
AcDbDictionary
280
0
281
1
  3
ACAD_GROUP
350
D
  3
ACAD_MLINESTYLE
350
17
  3
ACAD_LAYOUT
350
1A
  3
ACAD_PLOTSETTINGS
350
19
  3
ACAD_PLOTSTYLENAME
350
E
  0
DICTIONARY
  5
D
102
{ACAD_REACTORS
330
C
102
}
100
AcDbDictionary
280
0
281
1
  0
ACDBDICTIONARYWDFLT
  5
E
102
{ACAD_REACTORS
330
C
102
}
100
AcDbDictionary
281
1
  3
Normal
350
F
100
AcDbDictionaryWithDefault
340
F
  0
DICTIONARY
  5
17
102
{ACAD_REACTORS
330
C
102
}
100
AcDbDictionary
280
0
281
1
  3
Standard
350
18
  0
DICTIONARY
  5
19
102
{ACAD_REACTORS
330
C
102
}
100
AcDbDictionary
281
1
  0
DICTIONARY
  5
1A
102
{ACAD_REACTORS
330
C
102
}
100
AcDbDictionary
281
1
  3
Model
350
2B3
  3
Layout1
350
2B4
  0
ACDBPLACEHOLDER
  5
F
102
{ACAD_REACTORS
330
E
102
}
  0
MLINESTYLE
  5
18
102
{ACAD_REACTORS
330
17
102
}
100
AcDbMlineStyle
  2
STANDARD
 70
0
  3

 62
256
 51
90.0
 52
90.0
 71
2
 49
0.5
 62
256
  6
BYLAYER
 49
-0.5
 62
256
  6
BYLAYER
  0
LAYOUT
  5
2B3
102
{ACAD_REACTORS
330
1A
102
}
100
AcDbPlotSettings
  1

  2
none_device
  4

  6

 40
0.0
 41
0.0
 42
0.0
 43
0.0
 44
210.0
 45
297.0
 46
0.0
 47
0.0
 48
0.0
 49
0.0
140
0.0
141
0.0
142
1.0
143
1.0
 70
1024
 72
1
 73
0
 74
0
  7

 75
0
147
1.0
148
0.0
149
0.0
100
AcDbLayout
  1
Model
 70
0
 71
0
 10
0.0
 20
0.0
 11
210.0
 21
297.0
 12
0.0
 22
0.0
 32
0.0
 14
0.0
 24
0.0
 34
0.0
 15
0.0
 25
0.0
 35
0.0
146
0.0
 13
0.0
 23
0.0
 33
0.0
 16
1.0
 26
0.0
 36
0.0
 17
0.0
 27
1.0
 37
0.0
 76
0
330
211
345
0
346
0
  0
LAYOUT
  5
2B4
102
{ACAD_REACTORS
330
1A
102
}
100
AcDbPlotSettings
  1

  2
none_device
  4

  6

 40
0.0
 41
0.0
 42
0.0
 43
0.0
 44
210.0
 45
297.0
 46
0.0
 47
0.0
 48
0.0
 49
0.0
140
0.0
141
0.0
142
1.0
143
1.0
 70
0
 72
1
 73
0
 74
0
  7

 75
0
147
1.0
148
0.0
149
0.0
100
AcDbLayout
  1
Layout1
 70
0
 71
1
 10
0.0
 20
0.0
 11
210.0
 21
297.0
 12
0.0
 22
0.0
 32
0.0
 14
0.0
 24
0.0
 34
0.0
 15
0.0
 25
0.0
 35
0.0
146
0.0
 13
0.0
 23
0.0
 33
0.0
 16
1.0
 26
0.0
 36
0.0
 17
0.0
 27
1.0
 37
0.0
 76
0
330
212
345
0
346
0
  0
ENDSEC
  0
EOF
